<?xml version="1.0" encoding="UTF-8"?>
<svg width="16px" height="16px" viewBox="0 0 16 16" version="1.1" xmlns="http://www.w3.org/2000/svg" xmlns:xlink="http://www.w3.org/1999/xlink">
    <!-- Generator: Sketch 60 (88103) - https://sketch.com -->
    <title>形状</title>
    <desc>Created with Sketch.</desc>
    <g id="Symbols" stroke="none" stroke-width="1" fill="none" fill-rule="evenodd">
        <g id="-左边栏-我的优惠券" transform="translate(-21.000000, -153.000000)" fill="#02ADFF" fill-rule="nonzero">
            <g id="youhuiquan-2" transform="translate(21.000000, 153.000000)">
                <path d="M15.251765,9.31887458 C15.6513178,9.25524328 15.9463568,8.9121551 15.9494394,8.50757891 L15.9494394,6.8434593 C15.9392108,5.8118387 15.0960331,4.98307561 14.0643895,4.99063537 L13.3912998,4.99063537 L8.84412375,0.541798165 C8.10219717,-0.18053698 6.91993737,-0.18053698 6.17801079,0.541798165 L4.59794435,2.09561877 C3.81669401,1.95017299 3.02748448,2.30647048 2.61987126,2.98864202 L1.40558556,5.05442277 C0.585558293,5.26242195 0.00910747164,5.99748887 0.00259551235,6.8434593 L0.00259551235,14.095951 C0.0124600273,15.1280933 0.856150796,15.9573658 1.88830979,15.9494957 L14.0640573,15.9494957 C15.096087,15.9571816 15.9395747,15.1279626 15.9494394,14.095951 L15.9494394,12.4328281 C15.9467046,12.0279252 15.6516157,11.6843574 15.251765,11.6205357 C14.6863206,11.5301256 14.2703252,11.0423318 14.2703252,10.4697052 C14.2703252,9.89707853 14.6863206,9.40928469 15.251765,9.31887458 L15.251765,9.31887458 Z M6.87335963,1.2255191 C7.22819537,0.880071446 7.79360695,0.880071446 8.1484427,1.2255191 L11.9793397,4.99063537 L9.92751246,4.99063537 L5.5600706,2.51621677 L6.87335963,1.2255191 Z M3.47169851,3.47103405 C3.59230499,3.26650196 3.78926888,3.11830098 4.01920681,3.05907393 C4.24998422,2.99758884 4.49568496,3.02933065 4.70325997,3.14744602 L7.95309386,4.99129984 L2.57900747,4.99129984 L3.47169851,3.47103405 Z M14.9667151,12.5501038 L14.9667151,14.0962832 C14.9619656,14.5896285 14.5587406,14.9860167 14.0653862,14.9823553 L1.88830979,14.9823553 C1.3949554,14.9860167 0.991730435,14.5896285 0.986980905,14.0962832 L0.986980905,6.8434593 C0.991730435,6.350114 1.3949554,5.95372586 1.88830979,5.95738728 L14.0640573,5.95738728 C14.5574117,5.95372585 14.9606367,6.35011399 14.9653862,6.8434593 L14.9653862,8.38930649 C13.9820172,8.59689061 13.2783018,9.46466499 13.2783018,10.4697052 C13.2783018,11.4747453 13.9820172,12.3425197 14.9653862,12.5501038 L14.9667151,12.5501038 Z M7.85973837,10.1687085 C8.12670658,10.1687085 8.34312707,9.95228797 8.34312707,9.68531977 C8.34312707,9.41835156 8.12670658,9.20193107 7.85973837,9.20193107 L7.06073505,9.20193107 L7.80791114,7.93017026 C7.87301775,7.81906423 7.89065233,7.68642514 7.85683772,7.56216738 C7.8230231,7.43790962 7.740607,7.3324976 7.62817691,7.26970514 C7.39315867,7.13698645 7.09519646,7.21549058 6.95608388,7.44678156 L6.18199751,8.76771179 L5.40492109,7.44777823 C5.26582244,7.21668196 4.96810278,7.13820294 4.7331603,7.27070184 C4.62067374,7.33343754 4.53818657,7.43882457 4.50430808,7.56308736 C4.47042959,7.68735016 4.48801387,7.82002025 4.55309386,7.93116695 L5.30026993,9.20292774 L4.55741279,9.20292774 C4.38471464,9.20292773 4.22513495,9.2950611 4.13878587,9.44462208 C4.05243679,9.59418307 4.05243679,9.77844981 4.13878587,9.9280108 C4.22513495,10.0775718 4.38471464,10.1697052 4.55741279,10.1697051 L5.6600706,10.1697051 L5.6600706,10.8255191 L4.55741279,10.8255191 C4.29044458,10.8255191 4.07402406,11.0419396 4.07402406,11.3089078 C4.07402406,11.575876 4.29044458,11.7922965 4.55741279,11.7922965 L5.6600706,11.7922965 L5.6600706,12.9318314 C5.66012281,13.2035332 5.88039532,13.4237634 6.15209717,13.4237634 C6.42379903,13.4237634 6.64407154,13.2035332 6.64412375,12.9318314 L6.64412375,11.7922965 L7.8600706,11.7922965 C8.12703881,11.7922965 8.34345931,11.575876 8.34345931,11.3089078 C8.34345931,11.0419396 8.12703881,10.8255191 7.8600706,10.8255191 L6.64379153,10.8255191 L6.64379153,10.1687085 L7.85973837,10.1687085 Z M11.0839909,9.48166528 L12.037147,9.48166528 L12.037147,7.6381437 L11.0843231,7.6381437 L11.0843231,9.48299419 L11.0839909,9.48166528 Z M11.0839909,13.2736919 L12.037147,13.2736919 L12.037147,11.431167 L11.0843231,11.431167 L11.0843231,13.2756852 L11.0839909,13.2736919 Z" id="形状"></path>
            </g>
        </g>
    </g>
</svg>