<?xml version="1.0" encoding="UTF-8"?>
<svg width="52px" height="58px" viewBox="0 0 52 58" version="1.1" xmlns="http://www.w3.org/2000/svg" xmlns:xlink="http://www.w3.org/1999/xlink">
    <!-- Generator: Sketch 60 (88103) - https://sketch.com -->
    <title>已过期1</title>
    <desc>Created with Sketch.</desc>
    <g id="卡券页面" stroke="none" stroke-width="1" fill="none" fill-rule="evenodd">
        <g id="我的优惠券1" transform="translate(-1002.000000, -495.000000)">
            <g id="编组-4" transform="translate(835.000000, 495.000000)">
                <g id="编组-6" transform="translate(167.000000, 0.000000)">
                    <polygon id="路径备份" fill="#939597" points="0 0 27.5 0 52 29 52 58"></polygon>
                    <path d="M23.69,21.904 L23.69,16.304 L13.33,16.304 L13.33,17.284 L22.668,17.284 L22.668,20.938 L14.898,20.938 L14.898,18.866 L13.89,18.866 L13.89,26.216 C13.89,27.364 14.45,27.952 15.584,27.952 L23.172,27.952 C23.76,27.924 24.222,27.77 24.53,27.476 C24.866,27.112 25.104,26.076 25.244,24.34 L24.264,24.032 C24.18,25.572 23.998,26.468 23.718,26.72 C23.508,26.888 23.228,26.972 22.892,26.972 L15.864,26.972 C15.22,26.972 14.898,26.65 14.898,26.034 L14.898,21.904 L23.69,21.904 Z M27.722,15.758 L27.022,16.416 C28.03,17.228 28.814,17.998 29.388,18.712 L30.116,17.97 C29.472,17.242 28.674,16.5 27.722,15.758 Z M36.234,28.148 L39.188,28.148 L39.44,27.126 C39.104,27.154 38.614,27.168 37.984,27.182 C37.5546667,27.182 37.1377778,27.1882222 36.725037,27.1923704 L36.108,27.196 C34.96,27.196 33.994,27.182 33.224,27.168 C32.356,27.14 31.684,27.042 31.236,26.86 C30.8976667,26.6966667 30.5787778,26.4652778 30.2712315,26.1658333 L30.088,25.978 C29.962,25.838 29.836,25.74 29.724,25.656 L29.724,20.406 L26.742,20.406 L26.742,21.358 L28.758,21.358 L28.758,25.6 C28.17,25.852 27.512,26.58 26.756,27.784 L27.512,28.456 C28.296,27.14 28.87,26.496 29.206,26.496 C29.388,26.496 29.584,26.608 29.78,26.846 C30.228,27.35 30.746,27.7 31.334,27.868 C31.908,28.022 32.678,28.106 33.63,28.12 L35.2428,28.142176 C35.5844,28.14576 35.9148,28.148 36.234,28.148 Z M35.814,26.272 C36.654,26.272 37.088,25.852 37.088,25.04 L37.088,18.852 L39.16,18.852 L39.16,17.858 L37.088,17.858 L37.088,15.59 L36.066,15.59 L36.066,17.858 L30.774,17.858 L30.774,18.852 L36.066,18.852 L36.066,24.802 C36.066,25.18 35.856,25.376 35.464,25.376 C34.876,25.376 34.246,25.348 33.602,25.306 L33.826,26.272 L35.814,26.272 Z M32.3,20.098 L31.516,20.602 C32.37,21.624 33.042,22.548 33.546,23.388 L34.358,22.828 C33.882,22.044 33.196,21.134 32.3,20.098 Z M41.75,15.604 L41.75,17.172 L40.882,17.172 L40.882,18.11 L41.75,18.11 L41.75,24.032 L40.728,24.032 L40.728,24.984 L47.35,24.984 L47.35,24.032 L46.44,24.032 L46.44,18.11 L47.28,18.11 L47.28,17.172 L46.44,17.172 L46.44,15.632 L45.46,15.632 L45.46,17.172 L42.73,17.172 L42.73,15.604 L41.75,15.604 Z M42.73,24.032 L42.73,22.66 L45.46,22.66 L45.46,24.032 L42.73,24.032 Z M45.46,18.11 L45.46,19.51 L42.73,19.51 L42.73,18.11 L45.46,18.11 Z M42.73,21.778 L42.73,20.392 L45.46,20.392 L45.46,21.778 L42.73,21.778 Z M45.208,25.348 L44.424,25.838 C45.054,26.678 45.558,27.462 45.922,28.176 L46.664,27.644 C46.65,27.672 46.636,27.7 46.608,27.728 L47.378,28.442 C48.302,27.21 48.862,25.684 49.058,23.836 L51.774,23.836 L51.774,26.706 C51.774,27.126 51.592,27.336 51.228,27.336 C50.78,27.336 50.304,27.308 49.786,27.28 L50.066,28.274 L51.55,28.274 C52.362,28.274 52.782,27.868 52.782,27.07 L52.782,16.094 L48.134,16.094 L48.134,22.646 C48.106,24.606 47.644,26.244 46.72,27.546 C46.37,26.93 45.866,26.188 45.208,25.348 Z M42.478,25.334 C41.96,26.286 41.344,27.098 40.644,27.784 L41.442,28.358 C42.142,27.616 42.758,26.734 43.29,25.726 L42.478,25.334 Z M49.128,20.42 L51.774,20.42 L51.774,22.912 L49.114,22.912 L49.128,22.562 L49.128,22.562 L49.128,20.42 Z M51.774,19.496 L49.128,19.496 L49.128,17.046 L51.774,17.046 L51.774,19.496 Z" id="已过期" fill="#FFFFFF" fill-rule="nonzero" transform="translate(33.056000, 22.023000) rotate(50.000000) translate(-33.056000, -22.023000) "></path>
                </g>
            </g>
        </g>
    </g>
</svg>