<?xml version="1.0" encoding="UTF-8"?>
<svg width="52px" height="58px" viewBox="0 0 52 58" version="1.1" xmlns="http://www.w3.org/2000/svg" xmlns:xlink="http://www.w3.org/1999/xlink">
    <!-- Generator: Sketch 60 (88103) - https://sketch.com -->
    <title>已使用1</title>
    <desc>Created with Sketch.</desc>
    <g id="卡券页面" stroke="none" stroke-width="1" fill="none" fill-rule="evenodd">
        <g id="我的优惠券1" transform="translate(-763.000000, -495.000000)">
            <g id="编组-5" transform="translate(763.000000, 495.000000)">
                <polygon id="路径" fill="#FA6400" points="0 0 27.5 0 52 29 52 58"></polygon>
                <path d="M23.69,21.904 L23.69,16.304 L13.33,16.304 L13.33,17.284 L22.668,17.284 L22.668,20.938 L14.898,20.938 L14.898,18.866 L13.89,18.866 L13.89,26.216 C13.89,27.364 14.45,27.952 15.584,27.952 L23.172,27.952 C23.76,27.924 24.222,27.77 24.53,27.476 C24.866,27.112 25.104,26.076 25.244,24.34 L24.264,24.032 C24.18,25.572 23.998,26.468 23.718,26.72 C23.508,26.888 23.228,26.972 22.892,26.972 L15.864,26.972 C15.22,26.972 14.898,26.65 14.898,26.034 L14.898,21.904 L23.69,21.904 Z M30.788,16.99 L30.788,17.956 L34.456,17.956 L34.456,19.286 L31.264,19.286 L31.264,23.248 L34.4,23.248 C34.316,24.228 34.12,25.026 33.826,25.642 C33.084,25.11 32.412,24.48 31.81,23.724 L31.04,24.256 C31.684,25.082 32.426,25.796 33.252,26.384 C32.608,27 31.558,27.392 30.13,27.546 L30.564,28.47 C32.188,28.232 33.378,27.728 34.134,26.958 C35.618,27.826 37.34,28.316 39.3,28.442 L39.552,27.476 C37.718,27.378 36.094,26.944 34.694,26.174 C35.072,25.474 35.31,24.508 35.422,23.248 L38.754,23.248 L38.754,19.286 L35.478,19.286 L35.478,17.956 L39.328,17.956 L39.328,16.99 L35.478,16.99 L35.478,15.562 L34.456,15.562 L34.456,16.99 L30.788,16.99 Z M37.802,22.338 L35.464,22.338 L35.478,22.002 L35.478,22.002 L35.478,20.182 L37.802,20.182 L37.802,22.338 Z M34.442,22.338 L32.216,22.338 L32.216,20.182 L34.456,20.182 L34.456,22.002 L34.442,22.338 L34.442,22.338 Z M28.226,20.616 L28.226,28.428 L29.234,28.428 L29.234,19.006 C29.752,18.04 30.186,17.004 30.536,15.912 L29.584,15.478 C28.94,17.69 27.89,19.65 26.434,21.358 L26.77,22.422 C27.302,21.848 27.778,21.246 28.226,20.616 Z M42.982,20.448 L46.538,20.448 L46.538,22.898 L42.982,22.898 L42.982,20.448 Z M42.926,23.822 L46.538,23.822 L46.538,27.924 L47.574,27.924 L47.574,23.822 L51.382,23.822 L51.382,26.258 C51.382,26.846 51.116,27.14 50.612,27.14 C50.136,27.14 49.618,27.112 49.058,27.084 L49.324,28.078 L50.934,28.078 C51.914,28.078 52.404,27.588 52.404,26.608 L52.404,16.122 L41.974,16.122 L41.974,22.842 C41.946,24.76 41.484,26.342 40.588,27.588 L41.358,28.274 C42.254,27.098 42.772,25.614 42.926,23.822 Z M51.382,22.898 L47.574,22.898 L47.574,20.448 L51.382,20.448 L51.382,22.898 Z M51.382,19.51 L47.574,19.51 L47.574,17.102 L51.382,17.102 L51.382,19.51 Z M46.538,17.102 L46.538,19.51 L42.982,19.51 L42.982,17.102 L46.538,17.102 Z" id="已使用" fill="#FFFFFF" fill-rule="nonzero" transform="translate(32.867000, 21.974000) rotate(50.000000) translate(-32.867000, -21.974000) "></path>
            </g>
        </g>
    </g>
</svg>