<?xml version="1.0" encoding="UTF-8"?>
<svg width="200px" height="64px" viewBox="0 0 200 64" version="1.1" xmlns="http://www.w3.org/2000/svg" xmlns:xlink="http://www.w3.org/1999/xlink">
    <!-- Generator: Sketch 57 (83077) - https://sketch.com -->
    <title>Group Copy</title>
    <desc>Created with Sketch.</desc>
    <g id="迭代页面" stroke="none" stroke-width="1" fill="none" fill-rule="evenodd">
        <g id="电子印章落地页" transform="translate(-360.000000, -10.000000)" fill="#FFFFFF">
            <g id="头部" transform="translate(360.000000, 10.000000)">
                <g id="Group-Copy">
                    <path d="M6.55648958,25.9948816 L6.53787588,24.1105771 L24.5008406,24.1105771 L24.5008406,25.777379 C24.5008406,27.075934 23.7659718,27.9603009 22.2493275,28.4914953 C22.248583,28.4914953 15.5215919,30.831622 15.5215919,30.831622 L9.04774714,28.6221404 C8.20938611,28.3335726 7.59215583,28.0249056 7.20722452,27.6961393 C6.78506581,27.3408133 6.56914689,26.7959802 6.55648958,26.0831747 L6.56542415,26.0867638 C6.55872322,26.0558971 6.55648958,26.0279018 6.55648958,25.9948816 L6.55648958,25.9948816 Z M3.69444711,18.1461253 C3.69742531,17.7714179 3.8463349,17.5302269 4.15011048,17.3880965 C4.49855894,17.2280203 5.1247238,17.144752 6.01148045,17.144752 L25.6474445,17.1713118 C26.2162792,17.1713118 26.6659862,17.3242096 27.0226247,17.6343123 C27.1998271,17.7814675 27.2861946,17.9264692 27.2861946,18.0736244 L27.26088,19.4360663 L27.1134595,19.4324771 L24.5008406,19.4324771 L24.5008406,21.1696264 L6.53787588,21.1696264 L6.53787588,19.4324771 L3.64530695,19.4324771 L3.65349697,19.2795793 L3.69444711,18.1461253 Z M13.6691565,13 L13.6691565,14.2454355 L4.71596695,14.2569208 C3.36237871,14.2569208 2.27533865,14.5275428 1.49281871,15.0522768 C0.552454607,15.6868387 0.0617974829,16.5877157 0.0342492074,17.7312194 C0.0342492074,17.7312194 0.00521183591,19.0498736 0,19.2716832 L2.88214526,19.2716832 L2.88214526,21.1696264 L0.223364396,21.1696264 C0.218897108,21.3950251 0.199538861,23.8801536 0.199538861,24.1105771 L2.88661255,24.1105771 L2.91564992,26.5124372 C2.92830723,27.7435161 3.37726967,28.7247901 4.25136901,29.4239568 C5.18354309,30.1791143 6.30185416,30.7842452 7.57279758,31.220686 L7.55641752,31.2235573 C7.65916515,31.2479635 7.8229657,31.3068256 8.11259487,31.4022971 L10.7728648,32.3060454 L10.2889086,32.3979277 C8.77449803,32.6836241 7.23626189,32.8817453 5.71366125,32.9772167 C4.15234413,33.0734059 2.36245076,33.1222184 0.384186761,33.1222184 L0.0677538668,33.1222184 L0.0677538668,36 C0.212196176,36 0.391632241,35.9971287 0.391632241,35.9971287 C5.70844942,35.9260635 9.70592756,35.5427421 12.2694063,34.8643925 C13.0348016,34.6605287 14.0697233,34.3511438 15.437458,33.9168565 L15.4858536,33.9010643 L15.5349938,33.9197278 C16.7396724,34.3152523 17.7261985,34.6038201 18.4595782,34.781842 C20.0290854,35.1723417 22.0147949,35.4824444 24.3563983,35.7028183 C26.3785906,35.8987859 28.4737487,35.9971287 30.5763522,35.9971287 L30.8816169,35.9971287 C30.8875733,35.7774726 30.9873427,33.3433101 31,33.1042727 C30.7230281,33.1078618 28.7216832,33.1415998 28.7216832,33.1415998 C26.8640359,33.1415998 25.2766596,33.0683811 23.9923143,32.9255329 C23.1398069,32.832215 22.0378759,32.6520396 20.7244932,32.3957742 L20.2531944,32.2995849 L20.6991786,32.1423801 C23.1532088,31.2895977 24.5470026,30.7907057 24.8492891,30.6650854 C25.4419493,30.4167161 26.0145067,30.0671327 26.5610049,29.6400237 C27.6152848,28.7678599 28.1573158,27.4642801 28.1573158,25.7630224 L28.1573158,24.1105771 L30.9873427,24.1105771 L30.9873427,21.1696264 L28.1573158,21.1696264 L28.1573158,19.2716832 L30.8540686,19.2716832 L30.8540686,17.4763896 C30.8540686,16.5927406 30.4028725,15.8146125 29.5123931,15.1520552 C28.680733,14.5497956 27.438827,14.2454355 25.8119896,14.2454355 L17.3219089,14.2454355 L17.3219089,13 L13.6691565,13 L13.6691565,13 Z" id="Fill-29"></path>
                    <path d="M48.3916248,13.2056858 L38.7608473,13.2056858 C37.7695837,13.2056858 36.9723266,13.3211585 36.390307,13.5499388 C35.7160428,13.8184129 35.1157206,14.2766952 34.5973937,14.9125169 C34.2035238,15.4126581 34,16.1762214 34,17.1851643 L34,31.4280021 C34,32.9666761 34.7006198,34.1286203 36.0784323,34.8770278 C36.6882718,35.2025166 37.5916833,35.3728388 38.7608473,35.3728388 L47.9948265,35.3728388 L47.9948265,32.4145722 L39.7198985,32.4145722 C38.9350871,32.4145722 38.3728342,32.2990994 38.0455854,32.0732059 C37.852311,31.9360821 37.6195031,31.577395 37.6195031,30.6391791 L37.6195031,25.6370454 L47.7978916,25.6370454 L47.7978916,22.6795005 L37.6195031,22.6795005 L37.6195031,17.89893 C37.6195031,17.4254919 37.6971058,16.7947221 38.0455854,16.5183093 C38.3354971,16.2851988 38.905071,16.1646741 39.7198985,16.1646741 L48.3916248,16.1646741 L48.3916248,13.2056858 Z M52.837669,13 C51.8185856,13 50.9825272,13.3918855 50.3390112,14.1706047 C50.0542242,14.5321786 49.9107326,15.1824343 49.9107326,16.1646741 L49.9107326,36 L53.532432,36 L53.532432,17.1851643 C53.532432,16.4966582 53.6114989,16.2325144 53.6481039,16.1394145 L53.6744595,16.091782 L53.7279028,16.067244 C53.8325931,16.0289937 54.1085949,15.9568232 54.7916443,15.9568232 L59.3123627,15.9568232 C59.8592415,15.9568232 60.0678901,16.0080643 60.1447606,16.0419844 L60.1799014,16.0564185 L60.2040607,16.0888952 C60.2589682,16.1560137 60.3783006,16.4013932 60.3783006,17.1851643 L60.3783006,29.9607769 C60.3783006,30.5929901 60.2618966,30.7618689 60.2216311,30.8008409 L60.213578,30.8037278 L60.2040607,30.8145533 C60.147689,30.8542471 59.9551467,30.9487904 59.3123627,30.9487904 L55.8282981,30.9487904 L55.8282981,33.9048919 L61.0913661,33.9048919 C61.7934501,33.9048919 62.4655181,33.6732248 63.0724291,33.2156641 C63.6888574,32.7588252 64,31.9642286 64,30.8513603 L64,15.9156861 C64,14.006056 62.8513349,13 60.6850505,13 L52.837669,13 L52.837669,13 Z" id="Fill-30"></path>
                    <polygon id="Fill-31" points="1 11 2 11 2 3 1 3"></polygon>
                    <polygon id="Fill-32" points="4 9 8 9 8 8 4 8"></polygon>
                    <polyline id="Fill-33" points="18 3 14.1473186 7.81799068 14.1473186 11 12.8491325 11 12.8491325 7.81799068 9 3 10.5693218 3 13.5134858 6.65810403 16.4370662 3 18 3"></polyline>
                    <polygon id="Fill-34" points="20 11 21 11 21 3 20 3"></polygon>
                    <polyline id="Fill-35" points="31 11 29.687716 11 24.3518916 4.59795228 24.3518916 11 23 11 23 3 24.5671182 3 29.66156 9.10512844 29.66156 3 31 3 31 11"></polyline>
                    <path d="M77.064573,12.5788997 C77.064573,12.5788997 74.3271927,-0.202304528 59.4714476,0.00243372285 C47.2092819,0.166370045 42,10.83316 42,10.83316 L46.5072382,10.83316 L47.2026449,10.8266026 C47.2026449,10.8266026 50.6110963,4.43090023 59.5982874,4.11031364 C69.0677649,3.77224052 72.7180969,11.3715998 73.2394675,16.4062664 C73.2468419,16.4747553 73.252004,16.5410585 73.258641,16.6073616 C73.3463964,17.0255814 73.7210164,17.3381533 74.1693804,17.3381533 C74.2372249,17.3381533 74.3028572,17.3308672 74.3670145,17.3162951 C74.4215851,17.2944369 74.4953292,17.2674785 74.5867719,17.2376057 C75.9576743,16.7829556 81.218577,15.6630884 84.0186398,19.4897264 C87.1439139,23.7622713 85.7029546,30.6687264 77.4620536,31.0454156 L66.3790557,31.0454156 C65.9270045,31.0519731 65.5553343,31.371831 65.4742158,31.7951511 C65.4638916,31.8512537 65.4572547,31.908085 65.4572547,31.967102 L65.4572547,31.9736595 C65.365812,32.7576394 64.9639068,34.0122987 63.36661,34.4939072 L63.36661,34.9966453 L78.677356,34.9981025 L78.6817807,34.9951881 C78.6817807,34.9951881 82.203798,35.1452809 84.6815991,33.7689444 C84.7715669,33.721585 84.8519479,33.6793258 84.9249545,33.6443528 C87.2781282,32.2804026 89.8650705,29.5925755 89.9948601,24.3364127 C90.24559,14.5825659 81.2591363,12.2998437 77.064573,12.5788997" id="Fill-36"></path>
                </g>
                <path d="M11.7833333,52.9416667 C11.7833333,53.3694466 10.9433417,54.5438793 9.26333333,56.465 C9.47333438,56.6050007 9.60555528,56.7099997 9.66,56.78 C9.7066669,56.865556 9.7066669,56.9627772 9.66,57.0716667 C9.62888873,57.1883339 9.42277968,57.211667 9.04166667,57.1416667 C8.73833182,57.0872219 8.14333777,57.1727767 7.25666667,57.3983333 C7.23333322,57.4761115 7.22361109,57.5733327 7.2275,57.69 C7.23138891,57.8066673 7.24499988,57.9174995 7.26833333,58.0225 C7.29166678,58.1275005 7.31694431,58.2188885 7.34416667,58.2966667 C7.37138903,58.3744448 7.3927777,58.4172222 7.40833333,58.425 C7.50944495,58.4794447 7.7388871,58.5066667 8.09666667,58.5066667 C8.27555645,58.5066667 8.45444355,58.5086111 8.63333333,58.5125 C8.81222312,58.5163889 9.05722067,58.4911114 9.36833333,58.4366667 C9.68722382,58.3899998 9.97499872,58.3413891 10.2316667,58.2908333 C10.4883346,58.2402775 10.6438886,58.2305554 10.6983333,58.2616667 C10.8072228,58.3161114 10.9433325,58.5261093 11.1066667,58.8916667 C11.2777786,59.2650019 11.0366699,59.5061106 10.3833333,59.615 C10.0644429,59.6616669 9.73000175,59.685 9.38,59.685 C9.02999825,59.685 8.65666865,59.6538892 8.26,59.5916667 C7.4666627,59.4749994 6.9300014,59.2766681 6.65,58.9966667 C6.52555493,58.8722216 6.41472271,58.7069455 6.3175,58.5008333 C6.22027729,58.2947212 6.12111162,58.0438904 6.02,57.7483333 C5.18777362,57.9816678 4.72888932,58.0672225 4.64333333,58.005 C4.5344439,57.9349997 4.39833415,57.7561125 4.235,57.4683333 C4.07944367,57.1727763 3.86166807,56.4105617 3.58166667,55.1816667 C3.29388745,53.9527716 3.1344446,53.2255567 3.10333333,53 C3.06444425,52.7666655 3.07999965,52.6655554 3.15,52.6966667 C3.18888908,52.7200001 3.31138786,52.8094437 3.5175,52.965 C3.72361214,53.1205563 4.01722032,53.3422208 4.39833333,53.63 C4.79500198,53.077775 5.43277338,52.5994465 6.31166667,52.195 C6.4205561,51.1605504 6.43222265,50.5655563 6.34666667,50.41 C6.27666632,50.2233324 6.20666702,50.2388878 6.13666667,50.4566667 C6.06666632,50.6744455 5.99277817,50.7949999 5.915,50.8183333 C5.75944367,50.0716629 5.67388897,49.6400006 5.65833333,49.5233333 C5.65833333,49.4066661 5.71666608,49.2938894 5.83333333,49.185 C5.9577784,49.0527771 6.1055547,48.9866667 6.27666667,48.9866667 C6.45555645,48.9633332 6.6305547,48.994444 6.80166667,49.08 C6.96500082,49.165556 7.15944332,49.3949981 7.385,49.7683333 C7.5716676,50.079446 7.6572223,50.7094397 7.64166667,51.6583333 C7.82833427,51.6038886 7.98194384,51.5747222 8.1025,51.5708333 C8.22305616,51.5669444 8.32222183,51.5611112 8.4,51.5533333 C8.6333345,51.5299999 9.04944145,51.6427765 9.64833333,51.8916667 C10.2472252,52.1405568 10.9588848,52.4905533 11.7833333,52.9416667 Z M9.905,52.6383333 C9.91277782,52.568333 9.76500152,52.4983337 9.46166667,52.4283333 C9.17388745,52.358333 8.80055785,52.3544441 8.34166667,52.4166667 C8.00722055,52.4633336 7.79527823,52.5702769 7.70583333,52.7375 C7.61638844,52.9047231 7.54833357,53.1477762 7.50166667,53.4666667 C7.74277898,53.3966663 7.94888803,53.3733332 8.12,53.3966667 C8.31444542,53.4277779 8.48555482,53.5911096 8.63333333,53.8866667 C8.79666748,54.2055571 8.69555738,54.4855544 8.33,54.7266667 C7.96444262,54.9911124 8.01888652,55.3488866 8.49333333,55.8 C8.8977798,55.0766631 9.2088878,54.5011133 9.42666667,54.0733333 C9.64444553,53.6455534 9.77666643,53.3538897 9.82333333,53.1983333 C9.89333368,52.8949985 9.92055563,52.7083337 9.905,52.6383333 Z M7.54833333,55.135 C7.40833263,55.2827785 7.26444518,55.6249973 7.11666667,56.1616667 L8.17833333,55.9166667 L7.54833333,55.135 Z M6.28833333,52.9183333 C6.2261108,52.9183333 5.9305582,53.1283312 5.40166667,53.5483333 C4.88833077,53.9683354 4.66666632,54.368887 4.73666667,54.75 C5.70889375,54.1277747 6.2261108,53.5172252 6.28833333,52.9183333 Z M6.03166667,56.1266667 C6.08611138,55.9322212 6.07055598,55.6950014 5.985,55.415 C5.35499685,55.3061106 4.9388899,55.1583343 4.73666667,54.9716667 C4.76000012,55.42278 4.78722207,55.8077762 4.81833333,56.1266667 C4.86500023,56.4455571 5.06722043,56.5700004 5.425,56.5 C5.78277957,56.4377775 5.98499977,56.3133343 6.03166667,56.1266667 Z M25.34,54.7616667 C25.3166665,54.917223 25.227223,55.0066665 25.0716667,55.03 C24.9238881,55.0844447 24.6983348,55.0727782 24.395,54.995 C24.0916652,54.9172218 23.9244446,54.8744445 23.8933333,54.8666667 C23.8466664,54.8666667 23.8077779,54.909444 23.7766667,54.995 C23.7377776,55.0650003 23.7183333,55.1933324 23.7183333,55.38 C23.7183333,55.4733338 23.6950002,55.702776 23.6483333,56.0683333 C23.6016664,56.4338907 23.5277783,56.9316635 23.4266667,57.5616667 C23.2399991,58.8450064 22.9794461,59.6499984 22.645,59.9766667 C22.3105539,60.303335 22.0461121,60.4666667 21.8516667,60.4666667 C21.6805547,60.4666667 21.1594488,60.1750029 20.2883333,59.5916667 C19.4327735,58.984997 18.8027798,58.4211137 18.3983333,57.9 C18.242777,57.7055546 18.1222227,57.5480562 18.0366667,57.4275 C17.9511107,57.3069438 17.8888891,57.2077782 17.85,57.13 C17.8111109,57.0522218 17.7858334,56.9900002 17.7741667,56.9433333 C17.7624999,56.8966664 17.7566667,56.8422225 17.7566667,56.78 C17.7488889,56.6711106 17.745,56.5738893 17.745,56.4883333 C17.745,56.4027774 17.7372223,56.3366669 17.7216667,56.29 C17.6827776,56.1811106 17.6788887,56.0644451 17.71,55.94 C17.7566669,55.8155549 17.9783313,55.6211124 18.375,55.3566667 C18.5927789,55.2322216 18.8902759,55.092223 19.2675,54.9366667 C19.6447241,54.7811103 20.1094417,54.6138898 20.6616667,54.435 C21.7661166,54.0616648 22.3027779,53.7622233 22.2716667,53.5366667 C21.6027744,53.6844452 21.1866675,53.7583333 21.0233333,53.7583333 C20.8833326,53.7583333 20.7744448,53.715556 20.6966667,53.63 C20.6266663,53.5522218 20.5683336,53.4200009 20.5216667,53.2333333 C20.4827776,53.077777 20.4633333,52.9455561 20.4633333,52.8366667 C20.4633333,52.7744441 20.6888866,52.4477807 21.14,51.8566667 L21.2566667,51.9616667 C21.3422227,51.9149998 21.5055544,51.9499994 21.7466667,52.0666667 C21.9800012,51.5611086 22.5244402,50.7366724 23.38,49.5933333 C23.123332,49.7100006 22.8919455,49.8188884 22.6858333,49.92 C22.4797212,50.0211116 22.3027785,50.1183329 22.155,50.2116667 C21.859443,50.3905564 20.7744538,51.3044362 18.9,52.9533333 C18.7444437,52.8055548 18.6472224,52.6577785 18.6083333,52.51 C18.5694442,52.3855549 18.55,52.1794459 18.55,51.8916667 C18.55,51.6349987 18.5927773,51.4288897 18.6783333,51.2733333 C18.7561115,51.117777 18.8883324,51.0088892 19.075,50.9466667 C19.2616676,50.8688885 19.4988875,50.6433352 19.7866667,50.27 L19.46,49.3716667 C20.2066704,49.8305578 21.0077735,49.8733352 21.8633333,49.5 C22.726671,49.1266648 23.2322215,48.9516665 23.38,48.975 C23.5277785,49.0216669 23.749443,49.2161094 24.045,49.5583333 C24.3483348,49.8850016 24.4844446,50.1572211 24.4533333,50.375 C24.4066664,50.6083345 24.2588901,50.8377766 24.01,51.0633333 C23.8933327,51.164445 23.6755571,51.3122213 23.3566667,51.5066667 C23.0377762,51.7011121 22.6138915,51.9499985 22.085,52.2533333 C22.1316669,52.2766668 22.1841664,52.3058332 22.2425,52.3408333 C22.3008336,52.3758335 22.3688885,52.4127776 22.4466667,52.4516667 C23.0766698,52.8638909 23.4033332,53.1516659 23.4266667,53.315 C23.4811114,53.4550007 23.5588884,53.525 23.66,53.525 C23.7144447,53.525 23.8077771,53.5444442 23.94,53.5833333 C24.0722229,53.6222224 24.2394434,53.6805552 24.4416667,53.7583333 C24.853891,53.9138897 25.1144439,54.0772214 25.2233333,54.2483333 C25.3400006,54.4427788 25.3788891,54.6138882 25.34,54.7616667 Z M22.68,55.205 C22.6411109,55.0649993 22.5788893,54.9522226 22.4933333,54.8666667 C22.4388886,54.812222 22.3611116,54.7888888 22.26,54.7966667 C22.1588884,54.8044445 22.0150009,54.8316664 21.8283333,54.8783333 C21.4549981,54.9405559 20.8250044,55.2555527 19.9383333,55.8233333 C19.0361066,56.3833361 18.5616669,56.7566657 18.515,56.9433333 C18.4761109,57.1300009 18.5694433,57.3749985 18.795,57.6783333 C19.0283345,57.9738904 19.5572181,58.2927761 20.3816667,58.635 C21.2061152,58.9694461 21.6494441,59.1327778 21.7116667,59.125 C21.7894448,59.125 21.8866661,59.1094446 22.0033333,59.0783333 C22.104445,59.0472221 22.2522213,58.4327838 22.4466667,57.235 C22.6255565,56.0527719 22.7033335,55.376112 22.68,55.205 Z M40.9033333,51.705 C40.9033333,51.7283335 40.8897224,51.7594443 40.8625,51.7983333 C40.8352776,51.8372224 40.8100001,51.8644444 40.7866667,51.88 C40.7555554,51.9188891 40.7186113,52.0044438 40.6758333,52.1366667 C40.6330553,52.2688895 40.5941668,52.4166659 40.5591667,52.58 C40.5241665,52.7433341 40.4891668,52.8969437 40.4541667,53.0408333 C40.4191665,53.1847229 40.393889,53.2799998 40.3783333,53.3266667 C40.3005552,53.7233353 40.1936118,54.106387 40.0575,54.4758333 C39.9213882,54.8452796 39.732779,55.1933317 39.4916667,55.52 C39.4683332,55.5588891 39.421667,55.6230551 39.3516667,55.7125 C39.2816663,55.8019449 39.2097226,55.8952773 39.1358333,55.9925 C39.0619441,56.0897227 38.9861115,56.1772218 38.9083333,56.255 C38.8305552,56.3327782 38.7683336,56.3755555 38.7216667,56.3833333 C38.6594441,56.3911112 38.5777783,56.3716669 38.4766667,56.325 C38.3755551,56.2783331 38.2725005,56.2219448 38.1675,56.1558333 C38.0624995,56.0897219 37.9633338,56.021667 37.87,55.9516667 C37.7766662,55.8816663 37.7066669,55.8350001 37.66,55.8116667 C37.66,56.177224 37.6386113,56.5466648 37.5958333,56.92 C37.5530553,57.2933352 37.5044447,57.6588871 37.45,58.0166667 C37.3799997,58.5922251 37.3255557,59.1638861 37.2866667,59.7316667 C37.2477776,60.2994473 37.1622229,60.8555528 37.03,61.4 C36.9911109,61.1666655 36.9347226,60.8925016 36.8608333,60.5775 C36.7869441,60.2624984 36.75,59.9922234 36.75,59.7666667 C36.75,59.6344438 36.7461112,59.5061117 36.7383333,59.3816667 C36.7305555,59.2572216 36.7150001,59.1327784 36.6916667,59.0083333 C36.676111,58.8216657 36.6663889,58.6350009 36.6625,58.4483333 C36.6586111,58.2616657 36.6566667,58.0750009 36.6566667,57.8883333 C36.6488889,57.5849985 36.645,57.2836126 36.645,56.9841667 L36.645,55.3508333 C36.645,55.0824987 36.6411112,54.8083347 36.6333333,54.5283333 C36.6255555,54.2483319 36.613889,53.9761124 36.5983333,53.7116667 C36.5827777,53.4472209 36.5555557,53.2100011 36.5166667,53 L36.3766667,53.07 C36.2288882,53.2722232 36.0752786,53.4647213 35.9158333,53.6475 C35.7563881,53.8302787 35.6261116,53.9722217 35.525,54.0733333 C35.1205535,54.5011133 34.7122243,54.9249979 34.3,55.345 C33.8877757,55.7650021 33.4716688,56.1849979 33.0516667,56.605 C32.9738885,56.6750003 32.8825005,56.7391664 32.7775,56.7975 C32.6724995,56.8558336 32.5577784,56.8733335 32.4333333,56.85 C32.3011105,56.8266665 32.1863894,56.7450007 32.0891667,56.605 C31.991944,56.4649993 31.9200002,56.3405561 31.8733333,56.2316667 C31.7799995,56.0372213 31.7236112,55.8680563 31.7041667,55.7241667 C31.6847221,55.5802771 31.6847221,55.4441673 31.7041667,55.3158333 C31.7236112,55.1874994 31.7508332,55.053334 31.7858333,54.9133333 C31.8208335,54.7733326 31.8383333,54.6022232 31.8383333,54.4 C31.8383333,54.2677771 31.8422222,54.1141675 31.85,53.9391667 C31.8577778,53.7641658 31.8636111,53.5833343 31.8675,53.3966667 C31.8713889,53.2099991 31.8713889,53.031112 31.8675,52.86 C31.8636111,52.688888 31.8461113,52.5527783 31.815,52.4516667 C31.8072222,52.3894441 31.7391673,52.2766675 31.6108333,52.1133333 C31.4824994,51.9499992 31.3444452,51.7769454 31.1966667,51.5941667 C31.0488882,51.411388 30.9050007,51.2402786 30.765,51.0808333 C30.6249993,50.9213881 30.5316669,50.8144447 30.485,50.76 C30.6016673,50.6822218 30.6891664,50.6316668 30.7475,50.6083333 C30.8058336,50.5849999 30.8602775,50.5752778 30.9108333,50.5791667 C30.9613891,50.5830556 31.0138886,50.5947221 31.0683333,50.6141667 C31.1227781,50.6336112 31.2044439,50.6433333 31.3133333,50.6433333 C31.3444446,50.6433333 31.424166,50.6025004 31.5525,50.5208333 C31.680834,50.4391663 31.8305547,50.3361117 32.0016667,50.2116667 C32.1727786,50.0872216 32.3594434,49.9511119 32.5616667,49.8033333 C32.7638899,49.6555548 32.9544436,49.5155562 33.1333333,49.3833333 C33.3122231,49.2511104 33.4658327,49.1363894 33.5941667,49.0391667 C33.7225006,48.941944 33.8022221,48.8777779 33.8333333,48.8466667 C33.8177777,48.8233332 33.7866669,48.7825003 33.74,48.7241667 C33.6933331,48.665833 33.6427781,48.5997226 33.5883333,48.5258333 C33.5338886,48.4519441 33.4891668,48.3858336 33.4541667,48.3275 C33.4191665,48.2691664 33.4016667,48.2166669 33.4016667,48.17 C33.5027783,48.2166669 33.6602767,48.2769441 33.8741667,48.3508333 C34.0880566,48.4247226 34.3058322,48.5141661 34.5275,48.6191667 C34.7491678,48.7241672 34.9494435,48.8349994 35.1283333,48.9516667 C35.3072231,49.0683339 35.4199998,49.1811106 35.4666667,49.29 C35.5055557,49.3911116 35.5366666,49.4961106 35.56,49.605 C35.5833334,49.7138894 35.5716669,49.8149995 35.525,49.9083333 C35.5094444,49.9394446 35.4316674,49.9899997 35.2916667,50.06 C35.151666,50.1300004 34.9786121,50.2116662 34.7725,50.305 C34.5663879,50.3983338 34.3466678,50.4916662 34.1133333,50.585 C33.8799988,50.6783338 33.6583344,50.7697218 33.4483333,50.8591667 C33.2383323,50.9486116 33.0555563,51.0224997 32.9,51.0808333 C32.7444437,51.139167 32.6472224,51.1799999 32.6083333,51.2033333 L33.0516667,52.1133333 C33.121667,52.0822221 33.2499991,52.0238893 33.4366667,51.9383333 C33.6233343,51.8527773 33.8216656,51.7672227 34.0316667,51.6816667 C34.2416677,51.5961107 34.4419435,51.524167 34.6325,51.4658333 C34.8230565,51.4074997 34.9494441,51.3899999 35.0116667,51.4133333 C35.1205561,51.4522224 35.2158329,51.5086107 35.2975,51.5825 C35.3791671,51.6563893 35.4588885,51.7361107 35.5366667,51.8216667 C35.5833336,51.8761114 35.6299998,51.9441663 35.6766667,52.0258333 C35.7233336,52.1075004 35.7466667,52.1911107 35.7466667,52.2766667 C35.7466667,52.3077779 35.6941672,52.3680551 35.5891667,52.4575 C35.4841661,52.5469449 35.3500008,52.6499994 35.1866667,52.7666667 C35.0233325,52.8833339 34.8444454,53.0077771 34.65,53.14 C34.4555546,53.2722229 34.2708342,53.3947217 34.0958333,53.5075 C33.9208325,53.6202783 33.7691673,53.719444 33.6408333,53.805 C33.5124994,53.890556 33.4327779,53.941111 33.4016667,53.9566667 L33.6116667,53.5016667 C33.4949994,53.5561114 33.3958337,53.6436105 33.3141667,53.7641667 C33.2324996,53.8847228 33.1663891,54.0208326 33.1158333,54.1725 C33.0652775,54.3241674 33.026389,54.4758326 32.9991667,54.6275 C32.9719443,54.7791674 32.9505556,54.9094439 32.935,55.0183333 C33.2150014,54.862777 33.4872209,54.6916676 33.7516667,54.505 C34.0161124,54.3183324 34.2844431,54.1238899 34.5566667,53.9216667 C34.8366681,53.7194434 35.1088876,53.5152788 35.3733333,53.3091667 C35.6377791,53.1030545 35.9022209,52.895001 36.1666667,52.685 C36.2133336,52.5061102 36.265833,52.3252787 36.3241667,52.1425 C36.3825003,51.9597213 36.4349998,51.798334 36.4816667,51.6583333 C36.4972223,51.6116664 36.5283331,51.5261117 36.575,51.4016667 C36.6216669,51.2772216 36.6644443,51.1450007 36.7033333,51.005 C36.7422224,50.8649993 36.7791665,50.7347228 36.8141667,50.6141667 C36.8491668,50.4936105 36.8666667,50.4100002 36.8666667,50.3633333 C36.8666667,50.2777774 36.8413891,50.1883338 36.7908333,50.095 C36.7402775,50.0016662 36.6916669,49.9277781 36.645,49.8733333 C36.3416651,50.013334 36.1083342,50.2311096 35.945,50.5266667 C35.9372222,50.4955554 35.9197224,50.4333338 35.8925,50.34 C35.8652776,50.2466662 35.8555555,50.1805557 35.8633333,50.1416667 C35.8633333,50.1027776 35.8769443,50.0425004 35.9041667,49.9608333 L35.9566667,49.8033333 C35.9877779,49.7177773 36.024722,49.6419448 36.0675,49.5758333 C36.110278,49.5097219 36.1705552,49.4533336 36.2483333,49.4066667 C36.3261115,49.3599998 36.4174995,49.3269445 36.5225,49.3075 C36.6275005,49.2880555 36.7383327,49.286111 36.855,49.3016667 C36.9716672,49.3172223 37.0805551,49.3444442 37.1816667,49.3833333 C37.2827783,49.4222224 37.3644441,49.4688886 37.4266667,49.5233333 C37.5355561,49.6244449 37.6288885,49.7838878 37.7066667,50.0016667 C37.7844448,50.2194455 37.8388887,50.3944438 37.87,50.5266667 C38.1111123,50.386666 38.3736097,50.3380553 38.6575,50.3808333 C38.9413903,50.4236113 39.1999988,50.4916662 39.4333333,50.585 C39.4800002,50.6083335 39.5616661,50.6413887 39.6783333,50.6841667 C39.7950006,50.7269447 39.9155549,50.7736109 40.04,50.8241667 C40.1644451,50.8747225 40.2772217,50.9291664 40.3783333,50.9875 C40.479445,51.0458336 40.5455554,51.0983331 40.5766667,51.145 L40.7866667,51.4716667 C40.8100001,51.4950001 40.8352776,51.5319442 40.8625,51.5825 C40.8897224,51.6330558 40.9033333,51.6738887 40.9033333,51.705 Z M39.165,51.32 C39.1338887,51.2733331 39.1047224,51.2227781 39.0775,51.1683333 C39.0502776,51.1138886 39.0191668,51.0672224 38.9841667,51.0283333 C38.9491665,50.9894442 38.9161113,50.9738888 38.885,50.9816667 C38.8538887,50.9894445 38.8188891,51.0244441 38.78,51.0866667 C38.7099997,51.2033339 38.6283338,51.3122217 38.535,51.4133333 C38.4416662,51.5144449 38.3483338,51.6116662 38.255,51.705 C38.1305549,51.8372229 38.0294448,52.0044434 37.9516667,52.2066667 C37.8738885,52.4088899 37.8097225,52.6188878 37.7591667,52.8366667 C37.7086109,53.0544455 37.6775001,53.27611 37.6658333,53.5016667 C37.6541666,53.7272234 37.6483333,53.9294436 37.6483333,54.1083333 C37.6483333,54.4116682 37.76111,54.6605546 37.9866667,54.855 C38.0644448,54.9172225 38.1499995,54.9736109 38.2433333,55.0241667 C38.3366671,55.0747225 38.4377772,55.072778 38.5466667,55.0183333 C38.6011114,54.9872221 38.6594441,54.8958341 38.7216667,54.7441667 C38.7838892,54.5924992 38.8422219,54.4213898 38.8966667,54.2308333 C38.9511114,54.0402768 38.9977776,53.8594453 39.0366667,53.6883333 C39.0755558,53.5172214 39.0988888,53.4005559 39.1066667,53.3383333 C39.1377779,53.2216661 39.1688887,53.0700009 39.2,52.8833333 C39.2311113,52.6966657 39.2544444,52.5061121 39.27,52.3116667 C39.2855556,52.1172213 39.2875001,51.928612 39.2758333,51.7458333 C39.2641666,51.5630546 39.2272225,51.4211116 39.165,51.32 Z M51.3342432,51.4921023 C51.4314778,51.4697348 51.5322847,51.4473676 51.6366667,51.425 C51.7455561,51.4016666 51.8583328,51.3783334 51.975,51.355 C53.4527852,51.1138877 54.1955555,50.9933333 54.2033333,50.9933333 C54.2733337,50.9933333 54.3666661,51.028333 54.4833333,51.0983333 C54.6388897,51.1683337 54.7944437,51.3199988 54.95,51.5533333 C55.1055563,51.77889 55.1833333,51.9033332 55.1833333,51.9266667 C55.1911111,51.9500001 55.1561115,51.9849998 55.0783333,52.0316667 C55.008333,52.0783336 54.7633354,52.0705559 54.3433333,52.0083333 C53.9388869,51.938333 53.4138921,51.9227776 52.7683333,51.9616667 C52.4494429,51.9850001 51.9633366,52.0841658 51.31,52.2591667 C50.6566634,52.4341675 49.8244495,52.6811095 48.8133333,53 C46.8299901,53.637781 45.7838894,53.948889 45.675,53.9333333 C45.589444,53.9333333 45.461112,53.8983337 45.29,53.8283333 C45.1499993,53.7816664 45.0625002,53.7388891 45.0275,53.7 C44.9924998,53.6611109 44.9633334,53.6105559 44.94,53.5483333 C44.9088887,53.4472217 44.8933333,53.361667 44.8933333,53.2916667 C45.3833358,53.1594438 45.8908307,53.0155563 46.4158333,52.86 C46.940836,52.7044437 47.4911082,52.5255566 48.0666667,52.3233333 C48.4088906,52.2066661 48.762776,52.0997227 49.1283333,52.0025 C49.4938907,51.9052773 49.8788869,51.8061116 50.2833333,51.705 C50.6566685,51.3938873 51.084442,50.9038922 51.5666667,50.235 L51.3333333,50.025 C49.6377693,51.4094514 48.7744446,52.1016667 48.7433333,52.1016667 C48.7122221,52.1016667 48.6188897,52.0472228 48.4633333,51.9383333 C48.307777,51.8294439 48.2261112,51.6738899 48.2183333,51.4716667 C48.2183333,51.2927769 48.5488856,50.8572257 49.21,50.165 C48.2222173,49.5116634 47.7283333,49.1500003 47.7283333,49.08 C47.8838897,49.1188891 48.0063884,49.146111 48.0958333,49.1616667 C48.1852782,49.1772223 48.257222,49.1888888 48.3116667,49.1966667 C48.381667,49.1966667 49.0116607,49.0683346 50.2016667,48.8116667 C49.6649973,48.0727741 49.3966667,47.6877779 49.3966667,47.6566667 C49.3966667,47.6099998 49.4083332,47.5711113 49.4316667,47.54 C49.4783336,47.5011109 49.8011081,47.5711102 50.4,47.75 C50.9988919,47.921112 51.3761103,48.1738872 51.5316667,48.5083333 C51.9050019,48.4227773 52.1888879,48.4733324 52.3833333,48.66 C52.5700009,48.8544454 52.6633333,48.9633332 52.6633333,48.9866667 C52.6633333,49.0177779 52.2200044,49.274442 51.3333333,49.7566667 C51.6288904,49.6399994 51.8349994,49.5972221 51.9516667,49.6283333 C52.0605561,49.6516668 52.192777,49.7838877 52.3483333,50.025 C52.5038897,50.2350011 52.5816667,50.3788885 52.5816667,50.4566667 C52.5816667,50.5188892 52.4455569,50.705554 52.1733333,51.0166667 C52.01778,51.1877753 51.7339019,51.3472153 51.3216905,51.4949914 L51.3342432,51.4921023 Z M53.9466667,56.92 C54.016667,57.0677785 53.9583343,57.184444 53.7716667,57.27 C53.5927769,57.3400003 53.3322239,57.3400003 52.99,57.27 C52.6322204,57.1922218 52.0372264,57.2272215 51.205,57.375 C51.2438891,57.6083345 51.2477779,57.9388868 51.2166667,58.3666667 C51.2088888,58.4677783 51.1991667,58.6272211 51.1875,58.845 C51.1758333,59.0627789 51.1583335,59.3097208 51.135,59.5858333 C51.1116666,59.8619458 51.0786113,60.1536096 51.0358333,60.4608333 C50.9930553,60.7680571 50.9444447,61.069443 50.89,61.365 C50.7733327,61.2094437 50.6800004,61.0480564 50.61,60.8808333 C50.5399996,60.7136103 50.4894446,60.4900014 50.4583333,60.21 C50.4427777,59.9533321 50.4272223,59.5897246 50.4116667,59.1191667 C50.396111,58.6486088 50.3766668,58.0672257 50.3533333,57.375 C48.3466566,58.1216704 47.3083337,58.495 47.2383333,58.495 C47.168333,58.495 47.0750006,58.4016676 46.9583333,58.215 C46.8416661,58.0283324 46.7833333,57.8611119 46.7833333,57.7133333 L50.3416667,56.64 C50.3183332,56.5699996 50.3047222,56.5116669 50.3008333,56.465 C50.2969444,56.4183331 50.2911112,56.3716669 50.2833333,56.325 L49.8983333,56.43 C49.44722,56.5466672 49.1011123,56.6341664 48.86,56.6925 C48.6188877,56.7508336 48.4827779,56.78 48.4516667,56.78 L49.21,56.3366667 C48.8366648,56.2588885 48.6344446,56.1850003 48.6033333,56.115 C48.5644442,56.0372218 48.4088902,55.6483368 48.1366667,54.9483333 C47.8566653,54.240552 47.7555552,53.8283339 47.8333333,53.7116667 C47.9033337,53.5872216 47.9577776,53.5327777 47.9966667,53.5483333 C48.0277779,53.5483333 48.2727755,53.6961096 48.7316667,53.9916667 C48.7550001,54.8238931 48.7977775,55.2866662 48.86,55.38 C48.9377782,55.4966673 48.9961109,55.5472223 49.035,55.5316667 C49.0738891,55.5316667 49.1516661,55.5200001 49.2683333,55.4966667 C49.3772228,55.4499998 49.5366656,55.2516684 49.7466667,54.9016667 C49.3422202,54.9172223 49.1088892,54.8588896 49.0466667,54.7266667 C49.0233332,54.6644441 49.003889,54.6138891 48.9883333,54.575 C48.9727777,54.5361109 48.9611112,54.508889 48.9533333,54.4933333 C48.9533333,54.4388886 49.2527748,54.2794458 49.8516667,54.015 C50.4272251,53.7505542 50.7383331,53.6183333 50.785,53.6183333 C50.8238891,53.6183333 50.9211103,53.6688884 51.0766667,53.77 C51.232223,53.8866673 51.31,53.9838885 51.31,54.0616667 C51.31,54.1394448 50.9055596,54.5361075 50.0966667,55.2516667 L51.2166667,55.0766667 C51.3488895,54.8666656 51.5977759,54.2211165 51.9633333,53.14 C51.7377767,52.9222211 51.2555593,52.9649985 50.5166667,53.2683333 C49.7777741,53.5716682 49.365556,53.7349999 49.28,53.7583333 C49.2177775,53.7583333 48.9572245,53.6844452 48.4983333,53.5366667 C50.5205657,52.8366632 51.5627775,52.4866667 51.625,52.4866667 C51.6950004,52.4866667 51.9827753,52.6461095 52.4883333,52.965 C52.970558,53.2916683 53.2116667,53.4938885 53.2116667,53.5716667 C53.2116667,53.6650005 53.1883336,53.754444 53.1416667,53.84 C53.1105554,53.9722229 52.9005575,54.3377748 52.5116667,54.9366667 C52.1227758,55.5355585 51.807779,55.8738885 51.5666667,55.9516667 C51.5277776,55.9750001 51.4850002,55.9866667 51.4383333,55.9866667 C51.3061105,56.2588903 51.24,56.472777 51.24,56.6283333 C52.3600056,56.4572214 53.0716652,56.4261106 53.375,56.535 C53.670557,56.6361116 53.8611107,56.7644437 53.9466667,56.92 Z M71.4933333,55.555 C71.5166668,55.6561116 71.2366696,55.749444 70.6533333,55.835 C70.3499985,55.8816669 70.1030565,55.9166666 69.9125,55.94 C69.7219435,55.9633335 69.5722228,55.9788889 69.4633333,55.9866667 C69.307777,55.9866667 68.9383363,55.7066695 68.355,55.1466667 C68.0749986,54.8666653 67.7677794,54.5555573 67.4333333,54.2133333 C67.0988872,53.8711094 66.7450019,53.4861133 66.3716667,53.0583333 C65.6405519,52.226107 65.0494467,51.6972234 64.5983333,51.4716667 C64.4349992,51.3938885 64.3047227,51.3316669 64.2075,51.285 C64.1102773,51.2383331 64.0305559,51.2052779 63.9683333,51.1858333 C63.9061108,51.1663888 63.8536113,51.1547222 63.8108333,51.1508333 C63.7680553,51.1469444 63.7233336,51.145 63.6766667,51.145 C63.3344427,51.6738915 62.9727797,52.3311072 62.5916667,53.1166667 C62.5294441,53.2488896 62.4652781,53.3752772 62.3991667,53.4958333 C62.3330552,53.6163895 62.2688892,53.7349994 62.2066667,53.8516667 C62.4711124,53.8827779 62.8794417,53.7272239 63.4316667,53.385 C64.1783371,52.9261088 64.6255548,52.6966667 64.7733333,52.6966667 C64.9366675,52.6966667 65.1194434,52.7316663 65.3216667,52.8016667 C65.562779,52.871667 65.7144441,52.9999991 65.7766667,53.1866667 C65.846667,53.3655564 65.8661113,53.5638878 65.835,53.7816667 C65.7883331,54.022779 65.7027784,54.2172215 65.5783333,54.365 C65.4305548,54.5283341 65.2905562,55.0144404 65.1583333,55.8233333 C65.5394464,56.0333344 65.7688885,56.2199992 65.8466667,56.3833333 C65.9322227,56.5311119 65.9477781,56.6555551 65.8933333,56.7566667 C65.8622221,56.8733339 65.5200033,57.5344384 64.8666667,58.74 C65.2244462,58.6466662 65.5783316,58.6427774 65.9283333,58.7283333 C66.2705573,58.7905559 66.5583322,59.0083315 66.7916667,59.3816667 C67.0250012,59.7550019 67.0911116,59.9961106 66.99,60.105 C66.8733328,60.2216672 66.4572258,60.2566669 65.7416667,60.21 C65.3761093,60.1944444 65.0630569,60.1905555 64.8025,60.1983333 C64.5419431,60.2061111 64.3338897,60.2255554 64.1783333,60.2566667 C63.9216654,60.3033336 63.7291673,60.3422221 63.6008333,60.3733333 C63.4724994,60.4044446 63.3266675,60.4511108 63.1633333,60.5133333 C62.8444429,60.6222228 62.6577781,60.6766667 62.6033333,60.6766667 C62.5566664,60.6766667 62.4827783,60.6611113 62.3816667,60.63 C62.2649994,60.5988887 62.1522228,60.3966685 62.0433333,60.0233333 C61.9266661,59.6499981 61.8799999,59.4283337 61.9033333,59.3583333 C61.9422224,59.3038886 62.3661071,59.0666688 63.175,58.6466667 C62.1172169,57.7677734 61.5883333,57.2972225 61.5883333,57.235 C61.5883333,57.1572218 62.3699922,56.7294483 63.9333333,55.9516667 L64.0266667,55.1233333 C63.6533315,55.1622224 63.4083339,55.1622224 63.2916667,55.1233333 C63.1905551,55.0922221 62.8094478,54.7033371 62.1483333,53.9566667 C61.6816643,54.8200043 61.1955581,55.5705524 60.69,56.2083333 C60.0288856,57.0327819 59.5894455,57.4877774 59.3716667,57.5733333 C59.14611,57.6666671 58.9866671,57.6238898 58.8933333,57.445 C58.8155552,57.2505546 58.8894433,56.8383365 59.115,56.2083333 C59.1927782,56.4727791 59.3949984,56.4105575 59.7216667,56.0216667 C60.0405572,55.6638871 60.9661035,53.9722374 62.4983333,50.9466667 L61.9733333,50.725 C62.3077795,50.5616658 62.6772202,50.1650032 63.0816667,49.535 C63.4861131,48.8894412 63.6105563,48.4111127 63.455,48.1 C63.836113,48.1 64.1783318,48.2322209 64.4816667,48.4966667 C64.7850015,48.7533346 64.9366667,48.951666 64.9366667,49.0916667 C64.9366667,49.2238895 64.7305576,49.5816637 64.3183333,50.165 C64.4505562,50.165 64.5672217,50.1844442 64.6683333,50.2233333 C65.1038911,50.3788897 65.8233283,50.9505506 66.8266667,51.9383333 C67.8688941,52.9338939 68.8916616,53.7505524 69.895,54.3883333 C70.9216718,55.0494477 71.4544442,55.4383328 71.4933333,55.555 Z M63.945,57.3983333 C63.6572208,57.3983333 63.3305574,57.3866668 62.965,57.3633333 C62.6305539,57.3322221 62.3544455,57.3983325 62.1366667,57.5616667 C62.3000008,57.7716677 62.529443,57.9272217 62.825,58.0283333 C63.1438905,58.1372228 63.3149999,58.1916667 63.3383333,58.1916667 C63.3772224,58.1916667 63.4705548,58.1333339 63.6183333,58.0166667 C63.7738897,57.8922216 63.8827775,57.6861126 63.945,57.3983333 Z M82.145,58.8916667 C82.230556,59.1250012 82.203334,59.3311102 82.0633333,59.51 C81.9155548,59.7044454 81.4877813,59.7588893 80.78,59.6733333 C80.0411074,59.5799995 79.1855604,59.6849985 78.2133333,59.9883333 C77.209995,60.2838904 76.6500006,60.396667 76.5333333,60.3266667 C76.4166661,60.2566663 76.3000006,60.0738904 76.1833333,59.7783333 C76.0511104,59.4749985 76.2766637,59.1094466 76.86,58.6816667 C77.155557,58.45611 77.3849992,58.273334 77.5483333,58.1333333 C77.7116675,57.9933326 77.8088887,57.8844448 77.84,57.8066667 C76.8444395,57.1688857 76.3816663,56.7177791 76.4516667,56.4533333 C76.5061114,56.2044432 76.8599967,55.8350024 77.5133333,55.345 C78.1822256,54.8705532 78.5438886,54.2988922 78.5983333,53.63 C77.1438816,54.7266721 76.3777782,55.275 76.3,55.275 C76.2611109,55.275 76.1988893,55.2711111 76.1133333,55.2633333 C76.0277773,55.2555555 75.9188895,55.2322224 75.7866667,55.1933333 C75.5377765,55.1388886 75.3083344,54.9250019 75.0983333,54.5516667 C74.8961101,54.1861093 74.8766658,53.6261149 75.04,52.8716667 C75.1955563,52.1172184 75.2577779,51.6855561 75.2266667,51.5766667 C75.1722219,51.4522216 75.145,51.285001 75.145,51.075 C76.0161155,52.2338947 76.3777785,53.0427755 76.23,53.5016667 L78.7733333,52.0666667 C78.8744449,50.7211044 78.8744449,49.7994469 78.7733333,49.3016667 C78.6877774,48.819442 78.645,48.5627779 78.645,48.5316667 C78.645,48.4849998 78.6799996,48.4227782 78.75,48.345 C78.8200004,48.2827775 78.9522212,48.2788886 79.1466667,48.3333333 C79.3488899,48.4111115 79.5938874,48.683331 79.8816667,49.15 C80.2005571,49.6322246 80.2705565,50.4372166 80.0916667,51.565 C80.3561124,51.4405549 80.5855546,51.4055553 80.78,51.46 C80.9433341,51.4988891 81.052222,51.5280555 81.1066667,51.5475 C81.1611114,51.5669445 81.2194441,51.5961109 81.2816667,51.635 C81.3905561,51.6972225 81.4683331,51.7866661 81.515,51.9033333 C81.5538891,52.0122228 81.5733333,52.0899998 81.5733333,52.1366667 C81.5733333,52.1755558 81.2816696,52.350554 80.6983333,52.6616667 C80.1072193,52.9805571 79.7144454,53.5988843 79.52,54.5166667 C80.367782,55.0066691 80.8072221,55.321666 80.8383333,55.4616667 C80.8850002,55.6094452 80.9122222,55.7261107 80.92,55.8116667 C80.92,55.881667 80.4572268,56.7138809 79.5316667,58.3083333 C79.8427793,58.2849999 80.1383319,58.2422225 80.4183333,58.18 C80.729446,58.0866662 81.0716648,58.1294435 81.445,58.3083333 C81.8183352,58.4794453 82.0516662,58.6738878 82.145,58.8916667 Z M78.6916667,56.4533333 C78.4272209,56.5000002 78.1491681,56.5544441 77.8575,56.6166667 C77.5658319,56.6788892 77.2527794,56.7566662 76.9183333,56.85 C77.0816675,57.0677789 77.326665,57.2272217 77.6533333,57.3283333 C77.9722238,57.429445 78.1588886,57.48 78.2133333,57.48 C78.2522224,57.48 78.4116653,57.1377812 78.6916667,56.4533333 Z M93.2721656,52.6997147 C92.9547496,53.0417516 92.7262522,53.522953 92.5866667,54.1433333 C93.1155582,54.2911119 93.4849989,54.4777766 93.695,54.7033333 C93.9283345,54.9211122 94.0605554,55.1272212 94.0916667,55.3216667 C94.1383336,55.5083343 94.1383336,55.6172221 94.0916667,55.6483333 C94.0605554,55.6872224 93.8155578,55.6950001 93.3566667,55.6716667 C92.9211089,55.6249998 92.5127797,55.6755548 92.1316667,55.8233333 L92.6916667,55.2633333 L92.2483333,54.9366667 C91.0583274,55.6833371 90.3661121,56.0566667 90.1716667,56.0566667 C89.9772212,56.0566667 89.5844474,55.866113 88.9933333,55.485 C89.2966682,55.485 89.6544424,55.3838899 90.0666667,55.1816667 C90.4711131,54.9794434 90.992219,54.3183389 91.63,53.1983333 C90.992219,53.338334 90.4516689,53.2216685 90.0083333,52.8483333 C89.55722,52.4749981 89.3316667,52.2533337 89.3316667,52.1833333 C89.3316667,52.1055552 89.3705552,52.0511113 89.4483333,52.02 C89.5261115,51.9733331 89.6388881,51.9733331 89.7866667,52.02 C89.9344452,52.0744447 90.327219,51.9811123 90.965,51.74 C91.5950031,51.5222211 91.91,51.3238898 91.91,51.145 C91.91,50.9972215 91.9644439,50.6161142 92.0733333,50.0016667 C92.1900006,49.394997 92.0616685,48.9438904 91.6883333,48.6483333 C91.6883333,48.4227767 91.7544438,48.2944446 91.8866667,48.2633333 C92.0033339,48.2244443 92.131666,48.205 92.2716667,48.205 C92.4038896,48.205 92.6372205,48.2788882 92.9716667,48.4266667 C93.3216684,48.582223 93.566666,48.7649989 93.7066667,48.975 C93.862223,49.1927789 93.7300021,49.8305503 93.31,50.8883333 C94.4688947,50.2194411 95.238887,50.0133321 95.62,50.27 C95.9933333,50.526668 96.18,50.6977773 96.18,50.7833333 C96.18,50.8533337 95.896114,51.0399985 95.3283333,51.3433333 C94.7761084,51.6466682 94.2316694,51.961665 93.695,52.2883333 C93.5316658,52.3972228 93.3877784,52.5333325 93.2633333,52.6966667 C93.2662702,52.6976794 93.2692143,52.6986954 93.2721656,52.6997147 L93.2721656,52.6997147 Z M93.2780401,52.7017446 C93.5005262,52.7786627 93.7639548,52.8741914 94.0683333,52.9883333 C94.379446,53.1050006 94.7449979,53.2449992 95.165,53.4083333 C95.9972264,53.7350016 96.4444441,54.0383319 96.5066667,54.3183333 C96.5844448,54.5905569 96.6233333,54.796666 96.6233333,54.9366667 C96.6155555,55.0766674 96.6000001,55.205 96.5766667,55.3216667 C96.5377776,55.4305561 96.3588905,55.3916676 96.04,55.205 C95.8922215,55.1116662 95.6900013,54.9600011 95.4333333,54.75 C95.1766654,54.5399989 94.8616685,54.2677794 94.4883333,53.9333333 C94.2161098,53.692221 94.0041674,53.4997229 93.8525,53.3558333 C93.7008326,53.2119437 93.5841671,53.0972226 93.5025,53.0116667 C93.4208329,52.9261107 93.3683334,52.8619447 93.345,52.8191667 C93.3226799,52.7782465 93.3003602,52.7391062 93.2780401,52.7017446 L93.2780401,52.7017446 Z M98.2916667,58.18 C97.0161047,57.8688873 96.2655567,57.6083344 96.04,57.3983333 C96.7944482,57.1727767 97.1872221,56.982223 97.2183333,56.8266667 C97.2572224,56.7022216 97.2766667,56.4961125 97.2766667,56.2083333 C97.1444438,56.2083333 96.7905584,56.371665 96.215,56.6983333 C96.0049989,56.8227784 95.835834,56.9199997 95.7075,56.99 C95.579166,57.0600003 95.4780559,57.1202775 95.4041667,57.1708333 C95.3302774,57.2213891 95.2700002,57.2602776 95.2233333,57.2875 C95.1766664,57.3147224 95.1300002,57.3477776 95.0833333,57.3866667 C95.0288886,57.4411114 94.9686114,57.4994441 94.9025,57.5616667 C94.8363886,57.6238892 94.7644448,57.7016662 94.6866667,57.795 C95.2622251,58.1138905 95.7133317,58.372499 96.04,58.5708333 C96.3666683,58.7691677 96.5727773,58.9072218 96.6583333,58.985 C96.759445,59.0627782 96.887777,59.1833325 97.0433333,59.3466667 C97.1988897,59.5100008 97.3894433,59.7199987 97.615,59.9766667 C96.2072152,60.342224 94.9588943,60.4316676 93.87,60.245 C92.76555,60.0427768 91.9411138,59.5216709 91.3966667,58.6816667 C90.8366639,57.8105512 90.5566667,57.3011118 90.5566667,57.1533333 C90.5566667,57.0133326 90.4827785,56.8305567 90.335,56.605 C90.1794437,56.9083349 89.9986121,57.3302751 89.7925,57.8708333 C89.5863879,58.4113916 89.3550013,59.0783294 89.0983333,59.8716667 C88.6549978,58.8994396 88.5616654,58.0905588 88.8183333,57.445 C89.0750013,56.8149968 89.2422218,56.5 89.32,56.5 C89.3588891,56.7177789 89.386111,56.9297212 89.4016667,57.1358333 C89.4172223,57.3419455 89.425,57.5383324 89.425,57.725 L90.2183333,56.5 C90.3427784,56.5 90.4944435,56.5388885 90.6733333,56.6166667 C90.8211118,56.6788892 90.9688881,56.9355533 91.1166667,57.3866667 C91.2566674,57.8222244 91.4977761,58.2383313 91.84,58.635 C92.1744461,59.0083352 92.6061085,59.2688882 93.135,59.4166667 C93.6561137,59.5566674 94.1577754,59.591667 94.64,59.5216667 C95.1222246,59.4594441 95.4449992,59.3466675 95.6083333,59.1833333 C95.4994439,59.0511104 95.3613897,58.8780566 95.1941667,58.6641667 C95.0269436,58.4502767 94.822779,58.1916682 94.5816667,57.8883333 C94.5427776,57.9272224 94.5077779,57.9661109 94.4766667,58.005 C94.4455554,58.0438891 94.4105557,58.0866664 94.3716667,58.1333333 C94.0683318,58.4600016 93.7727792,58.5844448 93.485,58.5066667 C93.1661095,58.4211107 92.9327785,58.2927786 92.785,58.1216667 C92.6449993,57.9272213 92.575,57.7794449 92.575,57.6783333 C92.575,57.5538883 92.6449993,57.1261148 92.785,56.395 C93.0883348,56.5427785 93.2944439,56.7177768 93.4033333,56.92 C93.5200006,57.1300011 93.7261096,57.1883338 94.0216667,57.095 C94.3094459,57.0327775 94.9472173,56.8033353 95.935,56.4066667 C96.9072271,56.0177758 97.5955535,56.0488866 98,56.5 C98.4200021,56.9511134 98.5172233,57.5111078 98.2916667,58.18 Z M113.061667,55.485 C112.843888,55.5550004 112.53278,55.5666669 112.128333,55.52 C111.708331,55.4733331 111.428334,55.4888885 111.288333,55.5666667 C111.140555,55.636667 111.039445,55.8349984 110.985,56.1616667 C110.969444,56.3250008 110.953889,56.5097212 110.938333,56.7158333 C110.922778,56.9219455 110.915,57.1494432 110.915,57.3983333 C110.915,57.6550013 110.901389,57.9563872 110.874167,58.3025 C110.846944,58.6486128 110.81,59.1055527 110.763333,59.6733333 C110.662222,60.7855611 110.49889,61.3416667 110.273333,61.3416667 C110.14111,60.3694396 110.082778,59.7511124 110.098333,59.4866667 C110.098333,59.3544438 110.082778,59.0025029 110.051667,58.4308333 C110.020555,57.8591638 109.977778,57.0094501 109.923333,55.8816667 C108.857772,56.4572251 108.243334,56.667223 108.08,56.5116667 C107.893332,56.3638882 107.757223,56.1927788 107.671667,55.9983333 C107.601666,55.8194436 107.574444,55.6833338 107.59,55.59 C107.59,55.5277775 107.92833,54.9405611 108.605,53.8283333 C108.464999,53.758333 108.371667,53.6261121 108.325,53.4316667 C108.309444,53.3383329 108.301667,53.2450005 108.301667,53.1516667 L108.301667,52.8833333 C108.309444,52.7899995 108.313333,52.714167 108.313333,52.6558333 C108.313333,52.5974997 108.321111,52.5527779 108.336667,52.5216667 C108.375556,52.506111 108.550554,52.4633337 108.861667,52.3933333 C109.102779,52.2144435 109.752217,51.4716732 110.81,50.165 C110.732222,50.2038891 110.588334,50.2816661 110.378333,50.3983333 C110.168332,50.5150006 109.900002,50.6705546 109.573333,50.865 C108.888885,51.2694465 108.531111,51.4677778 108.5,51.46 C108.453333,51.46 108.418333,51.4444446 108.395,51.4133333 C108.340555,51.3666664 108.282223,51.2150013 108.22,50.9583333 C108.142222,50.7016654 108.126666,50.4838898 108.173333,50.305 C108.22,50.1105546 108.274444,49.9938891 108.336667,49.955 C108.406667,49.9161109 108.461111,49.8966667 108.5,49.8966667 C108.554445,49.8966667 108.651666,49.8655559 108.791667,49.8033333 C108.947223,49.733333 109.067777,49.6011121 109.153333,49.4066667 C109.231111,49.2122212 109.27,49.1072223 109.27,49.0916667 C109.27,49.0527776 109.215556,48.9594452 109.106667,48.8116667 C108.989999,48.6561103 108.974444,48.535556 109.06,48.45 C109.137778,48.3722218 109.339998,48.341111 109.666667,48.3566667 C110.008891,48.3566667 110.428886,48.659997 110.926667,49.2666667 C111.237779,49.3522227 111.474999,49.601109 111.638333,50.0133333 C111.825001,50.4177798 111.867778,50.7211101 111.766667,50.9233333 C111.634444,51.1100009 111.198893,51.4911082 110.46,52.0666667 C111.027781,52.0044441 111.412777,52.08611 111.615,52.3116667 C111.879446,52.6150015 111.965,52.7822221 111.871667,52.8133333 C111.832778,52.828889 111.782223,52.8580553 111.72,52.9008333 C111.657777,52.9436113 111.583889,52.992222 111.498333,53.0466667 C111.358333,53.1244448 111.266945,53.1691666 111.224167,53.1808333 C111.181389,53.1925001 111.140556,53.1983333 111.101667,53.1983333 C111.016111,53.4938904 111.027777,53.7583322 111.136667,53.9916667 C111.245556,54.2172233 111.564442,54.2561118 112.093333,54.1083333 C112.74667,54.9561153 113.069444,55.4149996 113.061667,55.485 Z M107.66,52.4633333 C107.66,52.5411115 107.628889,52.7666648 107.566667,53.14 C107.52,53.5133352 107.492778,54.0927739 107.485,54.8783333 C107.477222,55.2827798 107.481111,55.6502761 107.496667,55.9808333 C107.512222,56.3113905 107.531667,56.6205541 107.555,56.9083333 C107.632778,57.4683361 107.648334,57.8766654 107.601667,58.1333333 C107.578333,58.2655562 107.562778,58.3763884 107.555,58.4658333 C107.547222,58.5552782 107.539444,58.6272219 107.531667,58.6816667 C107.531667,58.7983339 107.341113,59.0433315 106.96,59.4166667 C106.874444,59.1755543 106.438893,58.4172286 105.653333,57.1416667 C105.419999,58.0361156 105.233334,58.4833333 105.093333,58.4833333 C104.945555,58.03222 104.891111,57.7288897 104.93,57.5733333 C104.968889,57.4488883 104.988333,57.301112 104.988333,57.13 C104.988333,57.0522218 104.980556,56.9588894 104.965,56.85 C104.949444,56.7411106 104.918334,56.6088897 104.871667,56.4533333 C104.28833,56.297777 103.957778,56.1461118 103.88,55.9983333 C103.545554,57.4527851 103.323889,58.2422216 103.215,58.3666667 C103.106111,58.4911117 102.977779,58.4250013 102.83,58.1683333 C102.689999,57.8961098 102.639444,57.6705564 102.678333,57.4916667 C102.725,57.2972212 102.783333,57.1844446 102.853333,57.1533333 C102.931111,57.1066664 103.005,56.8461135 103.075,56.3716667 C103.160556,55.8816642 103.176111,55.4344465 103.121667,55.03 C103.043888,54.5944423 103.067222,54.1238914 103.191667,53.6183333 C103.238334,53.4238879 103.275278,53.2702783 103.3025,53.1575 C103.329722,53.0447217 103.351111,52.9533337 103.366667,52.8833333 C103.382222,52.813333 103.395833,52.7627779 103.4075,52.7316667 C103.419167,52.7005554 103.428889,52.6655557 103.436667,52.6266667 C103.452222,52.5488885 103.469722,52.4827781 103.489167,52.4283333 C103.508611,52.3738886 103.53,52.3233336 103.553333,52.2766667 C103.592222,52.2299998 103.825553,52.1366674 104.253333,51.9966667 L104.183333,51.9616667 C105.233339,51.2305519 105.882777,50.5344477 106.131667,49.8733333 C105.711665,50.0522231 105.299446,50.2427768 104.895,50.445 C104.490554,50.6472232 104.086113,50.8649988 103.681667,51.0983333 C102.880552,51.5727801 102.340001,51.7750003 102.06,51.705 C102.06,51.4172208 102.16111,51.1216682 102.363333,50.8183333 C102.573334,50.5149985 103.043885,50.1066692 103.775,49.5933333 C104.070557,49.3988879 104.294166,49.2472228 104.445833,49.1383333 C104.597501,49.0294439 104.712222,48.9458336 104.79,48.8875 C104.867778,48.8291664 104.914444,48.786389 104.93,48.7591667 C104.945556,48.7319443 104.961111,48.7027779 104.976667,48.6716667 C105.007778,48.5627772 104.953334,48.28278 104.813333,47.8316667 C104.891111,47.7538885 104.949444,47.715 104.988333,47.715 C105.027222,47.715 105.244998,47.8316655 105.641667,48.065 C106.046113,48.2905567 106.302777,48.5005546 106.411667,48.695 C106.528334,48.8738898 106.586667,48.9866664 106.586667,49.0333333 C106.586667,49.0722224 106.47389,49.161666 106.248333,49.3016667 C106.691669,49.457223 106.967777,49.690554 107.076667,50.0016667 C107.177778,50.2738903 106.905559,50.7327746 106.26,51.3783333 L106.178333,51.46 C106.676114,51.3822218 106.998888,51.4172215 107.146667,51.565 C107.411112,51.7905567 107.562778,51.9811103 107.601667,52.1366667 C107.617222,52.2144448 107.626944,52.2805553 107.630833,52.335 C107.634722,52.3894447 107.644444,52.4322221 107.66,52.4633333 Z M110.005,53.525 C109.857221,53.6727785 109.701667,53.7466667 109.538333,53.7466667 C109.382777,53.7466667 109.254445,53.7777775 109.153333,53.84 C109.028888,53.9177782 108.88889,54.3649959 108.733333,55.1816667 L110.075,54.645 L110.005,53.525 Z M106.691667,56.6633333 C106.691667,56.4455545 106.689722,56.2180567 106.685833,55.9808333 C106.681944,55.7436099 106.676111,55.4850014 106.668333,55.205 C106.652778,54.9327764 106.641111,54.6450015 106.633333,54.3416667 C106.625556,54.0383318 106.629444,53.723335 106.645,53.3966667 L106.645,52.5333333 C106.645,52.463333 106.639167,52.4108335 106.6275,52.3758333 C106.615833,52.3408332 106.606111,52.3077779 106.598333,52.2766667 C106.567222,52.175555 106.508889,52.0977781 106.423333,52.0433333 C106.361111,52.0122221 106.213334,52.066666 105.98,52.2066667 C106.042223,52.4400012 106.003334,52.626666 105.863333,52.7666667 C106.314447,53.303336 106.528333,53.5872221 106.505,53.6183333 C106.505,53.6572224 106.275558,54.0927736 105.816667,54.925 C106.190002,55.2983352 106.353334,55.5549993 106.306667,55.695 C106.26,55.8427785 106.061668,55.9516663 105.711667,56.0216667 C105.688333,56.5427804 105.727222,56.8966657 105.828333,57.0833333 C105.945001,57.2700009 106.057777,57.3866664 106.166667,57.4333333 C106.275556,57.4722224 106.407777,57.4916667 106.563333,57.4916667 C106.641111,57.3438881 106.683889,57.0677798 106.691667,56.6633333 Z M105,52.755 C104.968889,52.5994437 104.809446,52.4633339 104.521667,52.3466667 C104.218332,52.2299994 104.031667,52.2533325 103.961667,52.4166667 C103.883888,52.5411117 103.864444,52.7199988 103.903333,52.9533333 C103.942222,53.1633344 103.911112,53.3888877 103.81,53.63 C104.12889,53.4744437 104.509998,53.3305562 104.953333,53.1983333 C105.023334,53.0583326 105.038889,52.9105563 105,52.755 Z M104.696667,54.5516667 C104.54111,54.4349994 104.408889,54.3183339 104.3,54.2016667 C104.191111,54.0849994 104.101667,53.9761116 104.031667,53.875 C103.860555,54.7150042 103.775,55.2322213 103.775,55.4266667 L104.696667,54.5516667 Z M127.493333,55.3216667 C127.4,55.4850008 127.326111,55.5744444 127.271667,55.59 C127.193888,55.6444447 126.968335,55.6327782 126.595,55.555 C126.400555,55.5161109 126.223612,55.4869445 126.064167,55.4675 C125.904721,55.4480555 125.751112,55.4383333 125.603333,55.4383333 C125.447777,55.4383333 125.300001,55.4422222 125.16,55.45 C125.019999,55.4577778 124.880001,55.4733332 124.74,55.4966667 C124.467776,55.5433336 123.935004,55.7416649 123.141667,56.0916667 C123.009444,56.1538892 122.890834,56.2083331 122.785833,56.255 C122.680833,56.3016669 122.577778,56.3405554 122.476667,56.3716667 C122.484444,56.612779 122.430001,56.9199981 122.313333,57.2933333 C122.149999,57.7833358 121.854447,58.2266647 121.426667,58.6233333 C120.959998,59.0355576 120.54778,59.3349991 120.19,59.5216667 C119.83222,59.7161121 119.575556,59.7977779 119.42,59.7666667 C119.279999,59.7588888 119.054446,59.6227791 118.743333,59.3583333 C119.031113,59.2183326 119.505552,58.8605584 120.166667,58.285 C120.79667,57.7249972 121.127222,57.3283345 121.158333,57.095 C121.173889,56.9938884 121.17,56.8888894 121.146667,56.78 C121.107778,56.8033334 121.072778,56.8188889 121.041667,56.8266667 C120.784999,56.9433339 120.598334,57.0016667 120.481667,57.0016667 C120.427222,57.0016667 120.351389,56.9686114 120.254167,56.9025 C120.156944,56.8363886 120.030556,56.7372229 119.875,56.605 C119.587221,56.3327764 119.474444,56.1577782 119.536667,56.08 C119.614445,55.9711106 119.987774,55.8000012 120.656667,55.5666667 C121.325559,55.3255544 121.675555,55.1466673 121.706667,55.03 C121.714444,54.9755553 121.73,54.8705563 121.753333,54.715 C121.776667,54.5594437 121.811666,54.3494458 121.858333,54.085 C121.967223,53.5716641 121.998334,53.2722227 121.951667,53.1866667 C121.912778,53.1088885 121.784446,53.0350003 121.566667,52.965 C121.387777,52.9105553 121.158335,52.8949999 120.878333,52.9183333 C119.898328,54.2716734 119.28389,55.294441 119.035,55.9866667 C118.778332,56.7255593 118.65,57.1961101 118.65,57.3983333 C118.65,57.4994449 118.638333,57.614166 118.615,57.7425 C118.591667,57.870834 118.548889,58.0205547 118.486667,58.1916667 C118.393333,58.518335 118.292223,58.7011109 118.183333,58.74 C118.105555,58.7866669 117.880002,58.7127787 117.506667,58.5183333 C117.156665,58.3394435 116.919445,58.1177791 116.795,57.8533333 C116.717222,57.6588879 116.666667,57.5208337 116.643333,57.4391667 C116.62,57.3574996 116.600556,57.2622228 116.585,57.1533333 C116.561667,57.0599995 116.536389,56.9627783 116.509167,56.8616667 C116.481944,56.7605551 116.441111,56.659445 116.386667,56.5583333 L116.97,57.2233333 C117.047778,57.1377774 117.181943,56.9900011 117.3725,56.78 C117.563057,56.5699989 117.817776,56.2900018 118.136667,55.94 C118.782225,55.2322187 119.396664,54.5050037 119.98,53.7583333 C120.112223,53.5872214 120.236666,53.4375006 120.353333,53.3091667 C120.470001,53.1808327 120.571111,53.0661116 120.656667,52.965 C120.726667,52.7472211 121.029997,52.4866682 121.566667,52.1833333 C122.08778,51.8722207 122.383333,51.3822256 122.453333,50.7133333 C122.476667,50.4644432 122.494167,50.2641674 122.505833,50.1125 C122.5175,49.9608326 122.523333,49.8344449 122.523333,49.7333333 C122.523333,49.6322217 122.515556,49.546667 122.5,49.4766667 L122.453333,49.2666667 C122.375555,49.2666667 122.150002,49.6011078 121.776667,50.27 C121.776667,49.974443 121.834999,49.6400019 121.951667,49.2666667 C122.060556,48.8933315 122.212221,48.6872224 122.406667,48.6483333 C122.577779,48.6094442 122.834443,48.6988878 123.176667,48.9166667 C123.518891,49.157779 123.744444,49.3872211 123.853333,49.605 C123.970001,49.8461123 124.024444,49.9977775 124.016667,50.06 C124.016667,50.1533338 123.861113,50.5966627 123.55,51.39 C124.452227,50.9466645 124.95,50.7405554 125.043333,50.7716667 C125.160001,50.8183336 125.443887,50.989443 125.895,51.285 C126.377225,51.580557 126.649444,51.84111 126.711667,52.0666667 C126.773889,52.3000012 126.773889,52.5061102 126.711667,52.685 C126.633888,52.8716676 125.965006,53.4122177 124.705,54.3066667 C125.38167,54.3066667 125.82111,54.2911113 126.023333,54.26 C126.241112,54.2211109 126.532776,54.2599994 126.898333,54.3766667 C127.232779,54.4933339 127.431111,54.6372214 127.493333,54.8083333 C127.571111,54.9872231 127.571111,55.1583325 127.493333,55.3216667 Z M127.038333,59.5216667 C127.022778,59.6305561 126.836113,59.9105533 126.478333,60.3616667 C125.996109,59.9105533 125.510002,59.4438913 125.02,58.9616667 C124.529998,58.479442 124.040002,57.9816692 123.55,57.4683333 C124.15667,57.5305559 124.83333,57.6588879 125.58,57.8533333 C126.32667,58.0322231 126.754444,58.3277757 126.863333,58.74 C126.980001,59.1522243 127.038333,59.4127772 127.038333,59.5216667 Z M120.178333,52.6033333 C120.178333,52.6966671 120.120001,52.828888 120.003333,53 C119.894444,53.1944454 119.762223,53.2955555 119.606667,53.3033333 C119.474444,53.3033333 119.326667,53.3149999 119.163333,53.3383333 C119.023333,53.3772224 118.202785,54.0694377 116.701667,55.415 C117.82945,53.4705458 118.276668,52.2766689 118.043333,51.8333333 C117.957777,51.6622214 117.887778,51.5241672 117.833333,51.4191667 C117.778889,51.3141661 117.734167,51.2247226 117.699167,51.1508333 C117.664166,51.0769441 117.629167,51.0166669 117.594167,50.97 C117.559166,50.9233331 117.522222,50.8727781 117.483333,50.8183333 L119.058333,51.495 C119.571669,51.705001 119.886666,51.9305544 120.003333,52.1716667 C120.120001,52.3972233 120.178333,52.5411108 120.178333,52.6033333 Z M124.88,52.195 C124.724444,52.2727782 124.559168,52.3486107 124.384167,52.4225 C124.209166,52.4963893 124.028334,52.5722218 123.841667,52.65 C123.460554,52.8055563 123.258333,52.9611103 123.235,53.1166667 C123.227222,53.2177783 123.03278,53.7661061 122.651667,54.7616667 C123.017224,54.6916663 123.281666,54.5750008 123.445,54.4116667 C123.608334,54.2561103 124.086663,53.5172288 124.88,52.195 Z M137.841667,50.83 C137.818333,50.9933341 137.744445,51.1061108 137.62,51.1683333 C137.479999,51.2461115 136.838339,51.4133321 135.695,51.67 C135.111664,51.8100007 134.66639,51.9111108 134.359167,51.9733333 C134.051943,52.0355559 133.875,52.0705555 133.828333,52.0783333 C135.47723,51.1761066 136.235556,50.6666673 136.103333,50.55 C135.978888,50.4411106 135.792223,50.1222249 135.543333,49.5933333 C135.302221,49.0722196 135.224444,48.7961113 135.31,48.765 C135.364445,48.7261109 135.694997,48.8427764 136.301667,49.115 C136.916114,49.3872236 137.324443,49.7022204 137.526667,50.06 C137.760001,50.4255574 137.865,50.6822215 137.841667,50.83 Z M141.33,52.2533333 C141.182221,52.4322231 140.995557,52.5100001 140.77,52.4866667 C140.559999,52.4555554 139.548898,52.7861076 137.736667,53.4783333 C137.907779,53.7194456 138.17222,53.9061104 138.53,54.0383333 C138.981113,54.2327788 139.334999,54.5166667 139.591667,54.89 C139.856112,55.2633352 139.708336,55.8933289 139.148333,56.78 C138.87611,57.246669 138.631112,57.6394429 138.413333,57.9583333 C138.195554,58.2772238 138.012779,58.5377768 137.865,58.74 C137.561665,59.1288908 137.238891,59.4438877 136.896667,59.685 C136.569998,59.9183345 136.36,60.035 136.266667,60.035 C136.157777,60.035 135.940002,59.6111153 135.613333,58.7633333 C135.488888,58.436665 135.391667,58.1800009 135.321667,57.9933333 C135.251666,57.8066657 135.203056,57.6608339 135.175833,57.5558333 C135.148611,57.4508328 135.135,57.3730558 135.135,57.3225 L135.135,57.1766667 C135.150556,56.9822213 135.166111,56.780001 135.181667,56.57 C135.243889,56.6400004 135.313888,56.8072209 135.391667,57.0716667 C135.469445,57.3438903 135.675554,57.6277763 136.01,57.9233333 C136.344446,58.2266682 136.569999,58.2927786 136.686667,58.1216667 C136.787778,57.9894438 137.102775,57.4800044 137.631667,56.5933333 C138.145003,55.6911066 138.39,55.1661119 138.366667,55.0183333 C138.327778,54.8861105 138.024447,54.7577784 137.456667,54.6333333 C137.332222,54.6022221 137.221389,54.5750001 137.124167,54.5516667 C137.026944,54.5283332 136.947223,54.508889 136.885,54.4933333 L136.628333,54.7966667 C136.293887,55.1700019 135.940002,55.5569424 135.566667,55.9575 C135.193331,56.3580576 134.800558,56.7799978 134.388333,57.2233333 C133.571663,58.086671 132.968891,58.5883326 132.58,58.7283333 C132.439999,58.7750002 132.333056,58.8041666 132.259167,58.8158333 C132.185277,58.8275001 132.132778,58.8216668 132.101667,58.7983333 C132.070555,58.7749999 132.051111,58.7419447 132.043333,58.6991667 C132.035556,58.6563887 132.031667,58.6000004 132.031667,58.53 C132.047222,58.3977771 132.070555,58.2636118 132.101667,58.1275 C132.132778,57.9913882 132.187222,57.8455563 132.265,57.69 C132.335,57.7600003 133.034993,57.0483408 134.365,55.555 C135.710562,54.0616592 136.278334,53.315 136.068333,53.315 C136.068333,53.1516659 136.111111,52.992223 136.196667,52.8366667 C135.799998,52.992223 135.35278,53.1788878 134.855,53.3966667 C134.10833,53.7311128 133.509447,53.9877769 133.058333,54.1666667 C132.60722,54.3455565 132.296112,54.4583331 132.125,54.505 C131.751665,54.590556 131.417224,54.4738905 131.121667,54.155 C131.004999,54.0305549 130.915556,53.925556 130.853333,53.84 C130.791111,53.754444 130.744445,53.6805559 130.713333,53.6183333 C130.682222,53.5561108 130.662778,53.4977781 130.655,53.4433333 C130.647222,53.3888886 130.639444,53.326667 130.631667,53.2566667 C130.600555,53.0077765 130.670555,52.9299995 130.841667,53.0233333 C131.036112,53.1400006 131.841104,53.0116685 133.256667,52.6383333 C133.972226,52.4438879 134.714996,52.2591675 135.485,52.0841667 C136.255004,51.9091658 137.063885,51.7322231 137.911667,51.5533333 C139.576119,51.1955538 140.513332,51.0166667 140.723333,51.0166667 C140.910001,51.0166667 141.096666,51.1761095 141.283333,51.495 C141.454445,51.8061127 141.470001,52.0588879 141.33,52.2533333 Z M139.078333,52.2533333 C139.000555,52.1288883 138.642781,52.1249994 138.005,52.2416667 C137.864999,52.2572223 137.697779,52.2961108 137.503333,52.3583333 C137.308888,52.4205559 137.09889,52.494444 136.873333,52.58 L136.826667,52.6383333 C137.130002,52.7938897 137.347777,52.9338883 137.48,53.0583333 L139.078333,52.2533333 Z M155.668333,52.9066667 C155.668333,52.976667 155.629445,53.0349998 155.551667,53.0816667 C155.489444,53.1205558 155.376667,53.14 155.213333,53.14 C155.088888,53.14 154.851668,53.1011115 154.501667,53.0233333 C154.159443,52.9455552 153.801669,52.9455552 153.428333,53.0233333 L153.65,52.8016667 C153.455555,52.7627776 153.300001,52.7336112 153.183333,52.7141667 C153.066666,52.6947221 152.977223,52.685 152.915,52.685 C152.883889,52.685 152.833334,52.6869444 152.763333,52.6908333 C152.693333,52.6947222 152.603889,52.7005555 152.495,52.7083333 C152.354999,52.9027787 152.197501,53.1147211 152.0225,53.3441667 C151.847499,53.5736123 151.655001,53.8244431 151.445,54.0966667 C151.569445,54.1277779 151.705555,54.1608332 151.853333,54.1958333 C152.001112,54.2308335 152.156666,54.2716664 152.32,54.3183333 C153.06667,54.5127787 153.513888,54.714999 153.661667,54.925 C153.809445,55.135001 153.883333,55.3255547 153.883333,55.4966667 C153.883333,55.652223 153.840556,55.7416665 153.755,55.765 C153.692777,55.8038891 153.136672,55.6366685 152.086667,55.2633333 C151.845554,55.1777773 151.616112,55.1000004 151.398333,55.03 C151.180554,54.9599997 150.978334,54.8900004 150.791667,54.82 C150.581666,55.0222232 150.352223,55.1933326 150.103333,55.3333333 C150.531113,55.2555552 151.079441,55.4577754 151.748333,55.94 C152.425003,55.8233327 152.778889,55.765 152.81,55.765 C152.856667,55.765 153.008332,55.8116662 153.265,55.905 C153.529446,56.0138894 153.692777,56.1149995 153.755,56.2083333 C153.840556,56.3327784 153.883333,56.4066665 153.883333,56.43 C153.883333,56.4611113 153.840556,56.5038886 153.755,56.5583333 C153.685,56.6050002 153.591667,56.6205556 153.475,56.605 C153.420555,56.605 153.342778,56.6030556 153.241667,56.5991667 C153.140555,56.5952778 153.016112,56.5855556 152.868333,56.57 C152.588332,56.5311109 152.218891,56.5427775 151.76,56.605 C151.728889,56.9705574 151.697778,57.2972208 151.666667,57.585 C152.055557,57.5305553 152.343332,57.5033333 152.53,57.5033333 C152.747779,57.5033333 153.101664,57.6005546 153.591667,57.795 C154.066113,57.9738898 154.326666,58.1294438 154.373333,58.2616667 C154.42,58.3783339 154.443333,58.5494433 154.443333,58.775 C154.443333,58.9772232 154.404445,59.1327772 154.326667,59.2416667 C154.256666,59.3583339 154.202222,59.4166667 154.163333,59.4166667 C154.14,59.4166667 154.077778,59.3777782 153.976667,59.3 C153.937778,59.2611109 153.84639,59.1794451 153.7025,59.055 C153.55861,58.9305549 153.362223,58.7555567 153.113333,58.53 C152.949999,58.3977771 152.806112,58.2869449 152.681667,58.1975 C152.557222,58.1080551 152.440556,58.0322225 152.331667,57.97 C152.222777,57.9077775 152.115834,57.8572224 152.010833,57.8183333 C151.905833,57.7794442 151.795,57.7405557 151.678333,57.7016667 L151.6375,58.2325 C151.625833,58.3841674 151.62,58.5144439 151.62,58.6233333 C151.612222,58.8100009 151.594722,59.0063879 151.5675,59.2125 C151.540278,59.4186121 151.487778,59.6344433 151.41,59.86 C151.269999,60.3033355 151.153334,60.525 151.06,60.525 C150.997777,60.525 150.869445,60.4433341 150.675,60.28 C150.49611,60.1166659 150.25889,59.8950014 149.963333,59.615 C149.714443,59.3894433 149.508334,59.1172238 149.345,58.7983333 C149.282777,58.8605559 149.224445,58.9227775 149.17,58.985 C149.115555,59.0472225 149.061111,59.113333 149.006667,59.1833333 C148.524442,59.7822252 148.240556,60.0816667 148.155,60.0816667 C148.077222,60.0816667 147.960556,59.9222238 147.805,59.6033333 C147.664999,59.276665 147.598889,59.0744448 147.606667,58.9966667 C147.606667,58.9033329 147.676666,58.7400012 147.816667,58.5066667 C147.933334,58.3433325 148.016944,58.2344447 148.0675,58.18 C148.118056,58.1255553 148.166666,58.0672225 148.213333,58.005 C148.322223,57.8883328 148.4,57.9272213 148.446667,58.1216667 C148.493334,58.3161121 149.185549,58.1683358 150.523333,57.6783333 C150.14222,57.9738904 149.765002,58.3238869 149.391667,58.7283333 C149.59389,58.8994453 149.764999,59.0005554 149.905,59.0316667 C150.068334,59.0627779 150.196666,59.0783333 150.29,59.0783333 C150.375556,59.0783333 150.468888,59.035556 150.57,58.95 C150.678889,58.8722218 150.748889,58.7438898 150.78,58.565 C150.826667,58.3705546 150.811111,57.7950048 150.733333,56.8383333 C150.538888,56.9161115 150.332779,56.9938885 150.115,57.0716667 C149.897221,57.1494448 149.656112,57.2349995 149.391667,57.3283333 C149.127221,57.4216671 148.926945,57.4936109 148.790833,57.5441667 C148.654722,57.5947225 148.578889,57.62 148.563333,57.62 C148.532222,57.62 148.435001,57.569445 148.271667,57.4683333 C148.11611,57.3361104 148.003334,57.0833352 147.933333,56.71 C148.011111,56.71 148.085,56.7527774 148.155,56.8383333 C148.232778,56.9161115 148.399999,56.9161115 148.656667,56.8383333 C148.78889,56.7994443 149.018332,56.7255561 149.345,56.6166667 C149.671668,56.5077772 150.095553,56.3561121 150.616667,56.1616667 L149.986667,55.415 C149.838888,55.4927782 149.683334,55.5627775 149.52,55.625 C148.827774,55.8738901 148.256113,55.9672225 147.805,55.905 C147.346109,55.8505553 146.716115,55.59778 145.915,55.1466667 C146.825005,55.3800012 147.404443,55.4966667 147.653333,55.4966667 C147.886668,55.4966667 148.166665,55.4577782 148.493333,55.38 C148.78889,55.3099997 149.134998,55.1272237 149.531667,54.8316667 C149.601667,54.7849998 149.663889,54.7363891 149.718333,54.6858333 C149.772778,54.6352775 149.827222,54.5866669 149.881667,54.54 C149.835,54.5166665 149.792222,54.5011111 149.753333,54.4933333 C149.714444,54.4855555 149.667778,54.473889 149.613333,54.4583333 C149.395554,54.3961108 149.226389,54.3436113 149.105833,54.3008333 C148.985277,54.2580553 148.897778,54.215278 148.843333,54.1725 C148.788889,54.129722 148.751945,54.0908335 148.7325,54.0558333 C148.713055,54.0208332 148.703333,53.9838891 148.703333,53.945 C148.703333,53.8749996 148.792777,53.7855561 148.971667,53.6766667 C148.574998,53.8244452 148.19778,53.9702771 147.84,54.1141667 C147.48222,54.2580563 147.136113,54.4038882 146.801667,54.5516667 C145.977218,54.878335 145.479445,55.0027782 145.308333,54.925 C145.129444,54.8549996 144.958334,54.6722237 144.795,54.3766667 C144.872778,54.2988885 144.962222,54.26 145.063333,54.26 C145.203334,54.26 145.580552,54.1511122 146.195,53.9333333 C146.51389,53.8244439 146.854165,53.705834 147.215833,53.5775 C147.577502,53.449166 147.964442,53.3188896 148.376667,53.1866667 C149.201115,52.9299987 149.671666,52.68889 149.788333,52.4633333 C149.897223,52.2455545 150.04111,51.6738935 150.22,50.7483333 C150.017777,51.0283347 149.761113,51.3277762 149.45,51.6466667 C148.742219,52.3777814 148.361111,52.7433333 148.306667,52.7433333 C148.252222,52.7433333 148.112223,52.5838905 147.886667,52.265 C147.653332,51.9538873 147.552222,51.755556 147.583333,51.67 C147.598889,51.5999997 147.715554,51.487223 147.933333,51.3316667 C148.166668,51.1838882 148.295,51.0555561 148.318333,50.9466667 C148.357222,50.8377772 148.376667,50.6900009 148.376667,50.5033333 C148.376667,50.3166657 148.341667,50.1494452 148.271667,50.0016667 C148.209444,49.8849994 148.201666,49.8363888 148.248333,49.8558333 C148.295,49.8752779 148.372777,49.9238885 148.481667,50.0016667 C148.598334,50.0794448 148.713055,50.1630551 148.825833,50.2525 C148.938612,50.3419449 149.053333,50.4411106 149.17,50.55 L150.371667,49.8733333 C150.418334,49.5933319 150.455278,49.3755563 150.4825,49.22 C150.509722,49.0644437 150.523333,48.9633336 150.523333,48.9166667 C150.523333,48.8388885 150.474723,48.8486106 150.3775,48.9458333 C150.280277,49.043056 150.138334,49.2083322 149.951667,49.4416667 C149.951667,49.301666 149.986666,49.1266677 150.056667,48.9166667 C150.126667,48.7455547 150.301665,48.6055561 150.581667,48.4966667 C150.846112,48.3877772 151.083332,48.4072215 151.293333,48.555 C151.511112,48.7027785 151.588889,48.8894433 151.526667,49.115 C151.900002,49.029444 152.102222,48.9827778 152.133333,48.975 C152.156667,48.975 152.273332,49.0138885 152.483333,49.0916667 C152.677779,49.161667 152.938332,49.4066646 153.265,49.8266667 C153.58389,50.2388909 153.739444,50.4877774 153.731667,50.5733333 C153.723889,50.6433337 153.156117,51.1605507 152.028333,52.125 C153.708342,51.9305546 154.641666,51.8761107 154.828333,51.9616667 C155.015001,52.031667 155.201666,52.1911099 155.388333,52.44 C155.575001,52.6888901 155.668333,52.8444441 155.668333,52.9066667 Z M152.285,49.9433333 C152.308333,49.6944432 152.304445,49.5505558 152.273333,49.5116667 C152.242222,49.4727776 152.199445,49.461111 152.145,49.4766667 C152.028333,49.5155558 151.841668,49.6322213 151.585,49.8266667 C151.328332,50.0055565 151.083334,50.5499954 150.85,51.46 C150.997779,51.5377782 151.164999,51.5338893 151.351667,51.4483333 C151.538334,51.3705552 151.732777,51.1838904 151.935,50.8883333 C152.137223,50.5849985 152.253889,50.2700016 152.285,49.9433333 Z M151.561667,52.2416667 C151.164998,52.0316656 150.923889,51.8061123 150.838333,51.565 C150.690555,52.0005577 150.546667,52.3738873 150.406667,52.685 L151.561667,52.2416667 Z M151.235,52.9183333 C151.079444,52.9650002 150.921945,53.0116664 150.7625,53.0583333 C150.603055,53.1050002 150.426112,53.1555553 150.231667,53.21 C150.130555,53.6300021 150.251109,53.8749996 150.593333,53.945 C150.896668,53.649443 151.098888,53.4238897 151.2,53.2683333 C151.246667,53.1827774 151.258333,53.0661118 151.235,52.9183333 Z M169.026667,50.2116667 C169.088889,50.3283339 169.050001,50.4411106 168.91,50.55 C168.785555,50.6666673 168.653334,51.4327707 168.513333,52.8483333 C168.388888,54.263896 168.377222,55.6483266 168.478333,57.0016667 C168.525,57.6783367 168.56,58.2208313 168.583333,58.6291667 C168.606667,59.037502 168.618333,59.311666 168.618333,59.4516667 C168.618333,59.7394459 168.579445,60.0272208 168.501667,60.315 C168.423888,60.5716679 168.365556,60.6922223 168.326667,60.6766667 C168.287778,60.6766667 168.140001,60.3461144 167.883333,59.685 C167.618888,59.00833 167.502222,58.5688899 167.533333,58.3666667 C167.548889,58.2499994 167.5625,57.8883364 167.574167,57.2816667 C167.585833,56.674997 167.591667,55.8155611 167.591667,54.7033333 C167.591667,53.5988834 167.595556,52.7394475 167.603333,52.125 C167.611111,51.5105525 167.618889,51.1372229 167.626667,51.005 C167.634444,50.8649993 167.640278,50.7502782 167.644167,50.6608333 C167.648056,50.5713884 167.65,50.4994447 167.65,50.445 C167.65,50.3283328 167.451669,49.7488941 167.055,48.7066667 C167.109445,48.7066667 167.393331,48.8311099 167.906667,49.08 C168.101112,49.1733338 168.250833,49.2511108 168.355833,49.3133333 C168.460834,49.3755559 168.5425,49.4319442 168.600833,49.4825 C168.659167,49.5330558 168.7,49.5758332 168.723333,49.6108333 C168.746667,49.6458335 168.773889,49.6944441 168.805,49.7566667 C168.851667,49.8577783 168.8925,49.9472218 168.9275,50.025 C168.9625,50.1027782 168.995555,50.1649998 169.026667,50.2116667 Z M165.351667,50.4333333 C165.328333,50.4955559 164.846116,51.0399949 163.905,52.0666667 C164.356113,52.3700015 164.597222,52.5799994 164.628333,52.6966667 C164.675,52.8211117 164.678889,52.968888 164.64,53.14 C164.608889,53.311112 164.282225,53.7038858 163.66,54.3183333 C163.893334,54.4661119 164.192776,54.7811087 164.558333,55.2633333 C164.931669,55.7533358 165.118333,56.0138887 165.118333,56.045 C165.118333,56.0605556 165.100834,56.1247217 165.065833,56.2375 C165.030833,56.3502783 164.974445,56.5077768 164.896667,56.71 C164.818888,56.920001 164.688612,57.1863873 164.505833,57.5091667 C164.323055,57.8319461 164.08389,58.2111089 163.788333,58.6466667 C163.189441,59.5177821 162.855,59.9377779 162.785,59.9066667 C162.730555,59.852222 162.687778,59.7997225 162.656667,59.7491667 C162.625555,59.6986109 162.586667,59.6227783 162.54,59.5216667 C162.508889,59.4283329 162.456389,59.2786121 162.3825,59.0725 C162.308611,58.8663879 162.217223,58.6038905 162.108333,58.285 C161.882777,57.6549969 161.77,57.0055589 161.77,56.3366667 C160.945551,56.8577804 160.475001,57.0600006 160.358333,56.9433333 C160.265,56.8499995 160.195,56.6438905 160.148333,56.325 C160.117222,56.0216652 160.245554,55.7572234 160.533333,55.5316667 C160.68889,55.4149994 160.968887,55.1836128 161.373333,54.8375 C161.77778,54.4913872 162.314441,54.015003 162.983333,53.4083333 C161.482215,54.2327819 160.723889,54.645 160.708333,54.645 C160.669444,54.645 160.591667,54.5905561 160.475,54.4816667 C160.358333,54.3649994 160.288333,54.2288897 160.265,54.0733333 C160.241667,53.9955552 160.226111,53.9255559 160.218333,53.8633333 C160.210556,53.8011108 160.202778,53.742778 160.195,53.6883333 C160.195,53.5716661 160.233888,53.4277786 160.311667,53.2566667 C160.397223,53.0622213 160.525555,52.9494446 160.696667,52.9183333 C160.883334,52.8716664 161.727215,52.2688947 163.228333,51.11 C162.473885,50.7833317 161.991668,50.3555582 161.781667,49.8266667 C162.155002,49.8888892 162.672219,49.815001 163.333333,49.605 C164.010003,49.3794433 164.363889,49.2666667 164.395,49.2666667 C164.441667,49.2666667 164.612776,49.4533315 164.908333,49.8266667 C165.188335,50.1611128 165.336111,50.363333 165.351667,50.4333333 Z M163.788333,55.31 C163.306109,55.4733341 162.878335,55.6755543 162.505,55.9166667 C162.084998,56.1811124 162.038332,56.6049971 162.365,57.1883333 C162.68389,57.7561139 162.886111,58.0711108 162.971667,58.1333333 C163.049445,58.1800002 163.123333,58.1041677 163.193333,57.9058333 C163.263334,57.707499 163.368333,57.4022243 163.508333,56.99 C163.765001,56.1655514 163.858334,55.605557 163.788333,55.31 Z M184.753333,59.1716667 C184.753333,59.2727783 184.702778,59.4049992 184.601667,59.5683333 C184.484999,59.708334 184.383889,59.7744445 184.298333,59.7666667 C184.220555,59.7666667 183.963891,59.5605576 183.528333,59.1483333 C183.310554,58.9538879 183.05,58.6738907 182.746667,58.3083333 C182.443332,57.9427759 182.089446,57.4916693 181.685,56.955 C181.420554,57.7250039 181.020003,58.3083314 180.483333,58.705 C179.931108,59.1327799 179.515001,59.3466667 179.235,59.3466667 C179.024999,59.3544445 178.9025,59.3330558 178.8675,59.2825 C178.8325,59.2319442 178.811111,59.1638893 178.803333,59.0783333 C178.803333,58.9305548 178.842222,58.7011127 178.92,58.39 C179.153334,58.646668 179.413887,58.6622233 179.701667,58.4366667 C180.012779,58.1955544 180.288888,57.8533355 180.53,57.41 C180.763334,56.9744423 180.961666,56.4222256 181.125,55.7533333 C181.30389,55.0688855 181.377778,54.5983346 181.346667,54.3416667 C181.338889,54.3105554 181.329167,54.2755557 181.3175,54.2366667 C181.305833,54.1977776 181.288333,54.1511114 181.265,54.0966667 L181.055,54.6216667 C180.681665,55.5238934 180.495,56.0838878 180.495,56.3016667 C180.495,56.5194455 180.436667,56.7099992 180.32,56.8733333 C180.211111,57.013334 180.141111,57.0833333 180.11,57.0833333 C180.063333,57.0833333 179.946668,56.8772243 179.76,56.465 C179.58111,56.0527757 179.507222,55.7961116 179.538333,55.695 C179.585,55.5783328 179.713332,55.1466704 179.923333,54.4 C180.032223,54.0266648 180.191666,53.579447 180.401667,53.0583333 C180.611668,52.5372196 180.864443,51.9383367 181.16,51.2616667 C180.903332,51.3005558 180.689445,51.3297221 180.518333,51.3491667 C180.347221,51.3686112 180.226667,51.3705556 180.156667,51.355 C180.008888,51.355 179.876667,51.4016662 179.76,51.495 C179.697777,51.5338891 179.604445,51.5533333 179.48,51.5533333 C179.339999,51.6466671 179.083335,51.7886102 178.71,51.9791667 C178.336665,52.1697232 177.84667,52.420554 177.24,52.7316667 L178.15,51.495 L177.695,51.145 C177.593888,51.316112 177.43639,51.5747205 177.2225,51.9208333 C177.00861,52.2669462 176.730557,52.6966641 176.388333,53.21 L176.505,53.21 C176.621667,53.2488891 176.909442,53.1788898 177.368333,53 C177.819447,52.8055546 178.149999,52.8249988 178.36,53.0583333 C178.593334,53.28389 178.702222,53.4355552 178.686667,53.5133333 C178.686667,53.5833337 177.978896,54.2211051 176.563333,55.4266667 C177.138892,54.9988867 177.578332,54.9211097 177.881667,55.1933333 C178.208335,55.4577791 178.235557,55.8972191 177.963333,56.5116667 C177.698888,57.1261142 177.609444,57.5383323 177.695,57.7483333 C177.959446,57.1416636 178.239443,56.498059 178.535,55.8175 C178.830557,55.136941 179.145554,54.4077817 179.48,53.63 C178.725552,55.963345 178.192779,57.5072184 177.881667,58.2616667 C177.562776,59.055004 177.376111,59.4672221 177.321667,59.4983333 C177.275,59.5372224 177.150557,59.5022228 176.948333,59.3933333 C176.769444,59.2766661 176.625556,59.1094455 176.516667,58.8916667 C176.407777,58.6505544 176.372778,58.4833338 176.411667,58.39 C176.427222,58.3355553 176.485555,58.1430572 176.586667,57.8125 C176.687778,57.4819428 176.831666,57.0133364 177.018333,56.4066667 C176.427219,57.0055586 175.995557,57.3399996 175.723333,57.41 C175.466665,57.4800003 175.264445,57.3400017 175.116667,56.99 C174.968888,56.6166648 174.93,56.3872226 175,56.3016667 C175.038889,56.2549998 175.196388,56.0663905 175.4725,55.7358333 C175.748612,55.4052761 176.151108,54.9250032 176.68,54.295 C176.454443,54.2249997 176.306667,54.0888899 176.236667,53.8866667 C176.19,53.7933329 176.143334,53.7233336 176.096667,53.6766667 C175.388885,54.7266719 174.69667,55.4966642 174.02,55.9866667 C173.281107,56.5311138 172.791112,56.7877779 172.55,56.7566667 C174.424454,54.4310995 175.676664,52.60334 176.306667,51.2733333 C176.944448,49.9355489 177.142779,49.1422235 176.901667,48.8933333 C177.127223,48.8155552 177.411109,48.8583325 177.753333,49.0216667 C178.080002,49.1616674 178.398887,49.45722 178.71,49.9083333 L177.916667,50.69 C178.515559,50.5422215 178.869444,50.4683333 178.978333,50.4683333 C179.087223,50.4683333 179.196111,50.5072218 179.305,50.585 C179.429445,50.6627782 179.526666,50.7911102 179.596667,50.97 C179.612222,51.0088891 179.631667,51.0672218 179.655,51.145 C180.253892,50.6316641 180.86833,50.1844464 181.498333,49.8033333 C182.237226,49.3599978 182.804998,49.2083326 183.201667,49.3483333 C183.575002,49.4961118 183.773333,49.6127774 183.796667,49.6983333 C183.82,49.7372224 183.835556,49.7722221 183.843333,49.8033333 C183.851111,49.8344446 183.858889,49.8694443 183.866667,49.9083333 C183.866667,49.9861115 183.831667,50.0794439 183.761667,50.1883333 C183.691666,50.3050006 183.520557,50.4177772 183.248333,50.5266667 C183.11611,50.5888892 182.980001,50.6549997 182.84,50.725 C182.699999,50.7950004 182.556112,50.8766662 182.408333,50.97 C182.112776,51.1566676 181.856112,51.4405536 181.638333,51.8216667 C181.552777,51.9616674 181.494445,52.0724996 181.463333,52.1541667 C181.432222,52.2358337 181.414722,52.305833 181.410833,52.3641667 C181.406944,52.4225003 181.416667,52.4691665 181.44,52.5041667 C181.463333,52.5391668 181.486667,52.5722221 181.51,52.6033333 C182.031114,52.0044415 182.400554,51.705 182.618333,51.705 C182.851668,51.705 183.096665,51.8411098 183.353333,52.1133333 C183.625557,52.3777791 183.792777,52.6344432 183.855,52.8833333 C183.932778,53.1633347 183.971667,53.777773 183.971667,54.7266667 C183.971667,55.2166691 183.952222,55.6347205 183.913333,55.9808333 C183.874444,56.3269462 183.816111,56.6011101 183.738333,56.8033333 C183.574999,57.2233354 183.353335,57.5033326 183.073333,57.6433333 C183.438891,57.7133337 183.749999,57.8299992 184.006667,57.9933333 C184.247779,58.133334 184.430555,58.3355542 184.555,58.6 C184.687223,58.8722236 184.753333,59.0627772 184.753333,59.1716667 Z M183.073333,54.6333333 C183.073333,54.3844432 183.018889,53.9722251 182.91,53.3966667 C182.793333,52.8055526 182.707778,52.4866669 182.653333,52.44 C182.591111,52.3855553 182.404446,52.5177762 182.093333,52.8366667 C181.929999,52.992223 181.751112,53.2372206 181.556667,53.5716667 C181.642223,53.6027779 181.700555,53.6183333 181.731667,53.6183333 C181.809445,53.6183333 181.937777,53.6922215 182.116667,53.84 C182.311112,53.9877785 182.408333,54.1005552 182.408333,54.1783333 C182.408333,54.2405559 182.350001,54.5399973 182.233333,55.0766667 C182.14,55.5433357 181.972779,56.1266632 181.731667,56.8266667 C181.887223,56.8188889 182.128332,56.8849993 182.455,57.025 L182.291667,56.5233333 C182.595002,56.5933337 182.781666,56.5777783 182.851667,56.4766667 C182.929445,56.3677772 182.987778,56.0838912 183.026667,55.625 C183.042222,55.3994433 183.053889,55.2069452 183.061667,55.0475 C183.069444,54.8880548 183.073333,54.7500006 183.073333,54.6333333 Z M198.193333,53.1283333 C198.193333,53.3072231 198.158334,53.4355552 198.088333,53.5133333 C198.018333,53.5988893 197.96,53.6533332 197.913333,53.6766667 C197.858889,53.6766667 197.598336,53.6261116 197.131667,53.525 C196.937221,53.4861109 196.674724,53.4841665 196.344167,53.5191667 C196.013609,53.5541668 195.611113,53.6299994 195.136667,53.7466667 C194.918888,53.987779 194.730279,54.1977769 194.570833,54.3766667 C194.411388,54.5555564 194.277223,54.7072216 194.168333,54.8316667 C194.059444,54.9561117 193.97,55.0591663 193.9,55.1408333 C193.83,55.2225004 193.775556,55.2905553 193.736667,55.345 C194.491115,54.8627754 194.938333,54.6216667 195.078333,54.6216667 C195.226112,54.6216667 195.471109,54.7849984 195.813333,55.1116667 C196.155557,55.4305571 196.326667,55.6288885 196.326667,55.7066667 C196.326667,55.7455558 196.334444,55.8116662 196.35,55.905 C196.365556,55.9983338 196.381111,56.1188882 196.396667,56.2666667 C196.412222,56.422223 196.427778,56.6244432 196.443333,56.8733333 C196.458889,57.1222235 196.466667,57.4294426 196.466667,57.795 C196.474444,58.4872257 196.431667,59.1211082 196.338333,59.6966667 C196.229444,60.2566695 196.070001,60.6649987 195.86,60.9216667 C195.782222,61.0305561 195.718056,61.1063887 195.6675,61.1491667 C195.616944,61.1919447 195.576111,61.221111 195.545,61.2366667 C195.513889,61.2522223 195.488611,61.2502779 195.469167,61.2308333 C195.449722,61.2113888 195.428333,61.1861113 195.405,61.155 C195.366111,61.1005553 195.280556,60.9586123 195.148333,60.7291667 C195.01611,60.4997211 194.837223,60.1827798 194.611667,59.7783333 C194.277221,59.8950006 194.016668,59.9805553 193.83,60.035 C193.643332,60.0894447 193.530556,60.1244444 193.491667,60.14 C193.421666,60.14 193.312779,60.3266648 193.165,60.7 C192.620553,59.5022162 192.379444,58.5688922 192.441667,57.9 C192.480556,57.4644423 192.507778,57.1105569 192.523333,56.8383333 L192.43,56.955 C192.118887,57.3127796 191.75528,57.6977757 191.339167,58.11 C190.923053,58.5222243 190.435003,58.9577755 189.875,59.4166667 C188.778328,60.3266712 188.191111,60.7816667 188.113333,60.7816667 C188.891115,59.8716621 189.622219,59.006393 190.306667,58.1858333 C190.991115,57.3652737 191.632775,56.5816704 192.231667,55.8349997 C192.465001,55.5627764 192.68861,55.2905569 192.9025,55.0183333 C193.11639,54.7461098 193.328332,54.4738902 193.538333,54.2016667 C192.418328,54.5750019 191.415004,55.0066642 190.528333,55.4966667 C189.983886,55.8000015 189.552224,56.0352769 189.233333,56.2025 C188.914443,56.3697231 188.716111,56.4727776 188.638333,56.5116667 C188.459444,56.5894448 188.257223,56.4261131 188.031667,56.0216667 C187.946111,55.8738881 187.883889,55.7533338 187.845,55.66 C187.806111,55.5666662 187.786667,55.492778 187.786667,55.4383333 C187.786667,55.3838886 187.798333,55.3430557 187.821667,55.3158333 C187.845,55.288611 187.876111,55.2633335 187.915,55.24 C188.055001,55.1233328 188.140555,55.065 188.171667,55.065 C188.233889,55.065 188.334999,55.0844442 188.475,55.1233333 C188.630556,55.1544446 189.241106,54.9405578 190.306667,54.4816667 C190.983337,54.170554 191.78444,53.8827791 192.71,53.6183333 C192.663333,52.9261076 192.468891,52.424446 192.126667,52.1133333 C191.978888,51.9733326 191.864167,51.8644448 191.7825,51.7866667 C191.700833,51.7088885 191.640556,51.6525002 191.601667,51.6175 C191.562778,51.5824998 191.5375,51.5552779 191.525833,51.5358333 C191.514167,51.5163888 191.504444,51.4950001 191.496667,51.4716667 C191.473333,51.4327776 191.446111,51.384167 191.415,51.3258333 C191.383889,51.2674997 191.345,51.1916671 191.298333,51.0983333 C191.749447,51.0827777 192.138332,50.9777787 192.465,50.7833333 C192.760557,50.6044435 192.947222,50.3166686 193.025,49.92 C193.079445,49.538887 193.017223,49.2122236 192.838333,48.94 C192.643888,48.6522208 192.546667,48.465556 192.546667,48.38 C192.780001,48.3099996 193.044443,48.3216662 193.34,48.415 C193.627779,48.5161116 193.888332,48.6988876 194.121667,48.9633333 C194.347223,49.2122235 194.471667,49.5272203 194.495,49.9083333 C194.837224,49.9083333 195.074444,49.943333 195.206667,50.0133333 C195.362223,50.0833337 195.591665,50.3788863 195.895,50.9 C195.630554,51.0944454 195.389446,51.2636104 195.171667,51.4075 C194.953888,51.5513896 194.765279,51.6855549 194.605833,51.81 C194.446388,51.9344451 194.32,52.0549994 194.226667,52.1716667 C194.133333,52.2883339 194.075,52.416666 194.051667,52.5566667 L194.028333,53.21 C194.075,53.1944444 194.111944,53.1827778 194.139167,53.175 C194.166389,53.1672222 194.187778,53.1613889 194.203333,53.1575 C194.218889,53.1536111 194.238333,53.1497222 194.261667,53.1458333 C194.285,53.1419444 194.327777,53.1361111 194.39,53.1283333 C194.561112,52.8949988 194.728333,52.6694455 194.891667,52.4516667 C195.055001,52.2338878 195.214444,52.0200011 195.37,51.81 C196.233338,50.6122162 196.665,49.9666671 196.665,49.8733333 C196.665,49.803333 196.703888,49.7450002 196.781667,49.6983333 C196.851667,49.6594442 196.906111,49.64 196.945,49.64 C196.968333,49.64 197.04611,49.6788885 197.178333,49.7566667 C197.279445,49.8188892 197.39611,50.0211094 197.528333,50.3633333 C197.645001,50.6900016 197.497224,51.0866643 197.085,51.5533333 C196.960555,51.6777784 196.816667,51.8352768 196.653333,52.0258333 C196.489999,52.2163898 196.299446,52.4361099 196.081667,52.685 C196.385002,52.6072218 196.624166,52.5488891 196.799167,52.51 C196.974168,52.4711109 197.077222,52.4477778 197.108333,52.44 C197.225001,52.44 197.43111,52.5099993 197.726667,52.65 C198.037779,52.7977785 198.193333,52.9572214 198.193333,53.1283333 Z M195.346667,57.305 C195.346667,57.1494437 195.338889,56.9977785 195.323333,56.85 C195.307778,56.7022215 195.292222,56.5505563 195.276667,56.395 C195.237778,56.0916651 195.210556,55.8350011 195.195,55.625 C194.300551,55.9361127 193.705557,56.0916667 193.41,56.0916667 C193.34,56.4105572 193.316667,56.7449983 193.34,57.095 C193.480001,57.0249996 193.623888,56.9705558 193.771667,56.9316667 L194.215,56.815 C194.362779,56.7683331 194.557221,56.8344436 194.798333,57.0133333 C195.02389,57.1844453 195.097778,57.3516659 195.02,57.515 C194.95,57.6705563 194.390005,57.9427758 193.34,58.3316667 L193.351667,59.3583333 C194.113893,59.1094432 194.716664,59.0977767 195.16,59.3233333 C195.23,58.7944418 195.278611,58.3647239 195.305833,58.0341667 C195.333056,57.7036095 195.346667,57.4605563 195.346667,57.305 Z" id="电子印章全生态解决方案引领者" fill-rule="nonzero"></path>
            </g>
        </g>
    </g>
</svg>