<?xml version="1.0" encoding="UTF-8"?>
<svg width="18px" height="18px" viewBox="0 0 18 18" version="1.1" xmlns="http://www.w3.org/2000/svg" xmlns:xlink="http://www.w3.org/1999/xlink">
    <!-- Generator: Sketch 57 (83077) - https://sketch.com -->
    <title>形状</title>
    <desc>Created with Sketch.</desc>
    <g id="落地页" stroke="none" stroke-width="1" fill="none" fill-rule="evenodd">
        <g id="电子签章落地页" transform="translate(-1389.000000, -31.000000)" fill="#FFFFFF" fill-rule="nonzero">
            <g id="business-office-building-2210x1473">
                <g id="ai206" transform="translate(1389.000000, 31.000000)">
                    <path d="M9.9893368,5.9971112 L7.99430882,5.9971112 L7.99430882,7.99213917 L9.9893368,7.99213917 L9.9893368,5.9971112 Z M13.9808526,5.9971112 L11.9858247,5.9971112 L11.9858247,7.99213917 L13.9808526,7.99213917 L13.9808526,5.9971112 Z M16.973916,12.4821253 C15.7770244,12.4821253 14.5784643,12.283295 13.3828239,11.8843312 C13.0819065,11.7833128 12.6827341,11.8843312 12.383094,12.0829528 L10.188167,14.278297 C7.39669718,12.8810891 5.09905728,10.4870973 3.60255166,7.69268162 L5.79768725,5.49733749 C6.09881321,5.19915734 6.19811102,4.80019346 5.99802947,4.50055343 C5.69838944,3.40170825 5.49955924,2.20588543 5.49955924,1.00774244 C5.49955924,0.408462407 5.09908334,0.0109844684 4.50149778,0.0109844684 L1.00949498,0.0109844684 C0.41044955,0.0109844684 0.0114596128,0.408462407 0.0114596128,1.00774244 C0.0114596128,10.3875909 7.59531886,17.9699903 16.973916,17.9699903 C17.5717101,17.9699903 17.970674,17.5695665 17.970674,16.9719549 L17.970674,13.4803953 C17.970674,12.8811152 17.571684,12.4821253 16.973916,12.4821253 L16.973916,12.4821253 Z M15.9758806,7.99211311 L17.9707001,7.99211311 L17.9707001,5.99708514 L15.9758806,5.99708514 L15.9758806,7.99211311 Z" id="形状"></path>
                </g>
            </g>
        </g>
    </g>
</svg>