<?xml version="1.0" encoding="UTF-8"?>
<svg width="1200px" height="163px" viewBox="0 0 1200 163" version="1.1" xmlns="http://www.w3.org/2000/svg" xmlns:xlink="http://www.w3.org/1999/xlink">
    <!-- Generator: Sketch 59 (86127) - https://sketch.com -->
    <title>编组 3</title>
    <desc>Created with Sketch.</desc>
    <g id="落地页" stroke="none" stroke-width="1" fill="none" fill-rule="evenodd">
        <g id="电子合同" transform="translate(-360.000000, -3157.000000)">
            <g id="编组-14" transform="translate(360.000000, 3157.000000)">
                <rect id="Rectangle-7-Copy-4" stroke="#C9B387" stroke-width="2" x="865" y="1" width="118" height="118" rx="59"></rect>
                <path d="M945.011598,35 C947.512229,35 949,37 949,39 L949,39 L949,81 C949,83 947.512229,85 945.011598,85 L945.011598,85 L916.004286,85 C914.003782,85 912.003278,83.5 912.003278,81 L912.003278,81 L912.003278,80 L912.003278,80 L909,80 C906.805786,80 905,78.2600708 905,76 L905,76 L905,74 L905,74 L903,74 C900.769592,74 899,72.2077026 899,70 L899,70 L899,50 C899,47.7816772 900.78595,46 903,46 L903,46 L905,46 L905,46 L905,44 C905,41.7764282 906.790222,40 909,40 L909,40 L912.003278,40 L912.003278,40 L912.003278,39 C912.003278,37 913.503656,35 916.004286,35 L916.004286,35 Z M945,37 L916,37 C914.895431,37 914,37.8954305 914,39 L914,81 C914,82.1045695 914.895431,83 916,83 L945,83 C946.104569,83 947,82.1045695 947,81 L947,39 C947,37.8954305 946.104569,37 945,37 Z M912,42 L909,42 C907.895431,42 907,42.8954305 907,44 L907,76 C907,77.1045695 907.895431,78 909,78 L912,78 L912,42 Z M941.9823,75 C942.544088,75 943,75.4474753 943,75.9996935 C943,76.5525247 942.544088,77 941.9823,77 L941.9823,77 L919.017077,77 C918.455601,77 918,76.5525247 918,75.9996935 C918,75.4474753 918.455601,75 919.017077,75 L919.017077,75 Z M905,48 L903,48 C901.895431,48 901,48.8954305 901,50 L901,70 C901,71.1045695 901.895431,72 903,72 L905,72 L905,48 Z M941.9823,67 C942.544088,67 943,67.4478309 943,67.999732 C943,68.5522457 942.544088,69 941.9823,69 L941.9823,69 L919.017077,69 C918.455601,69 918,68.5522457 918,67.999732 C918,67.4478309 918.455601,67 919.017077,67 L919.017077,67 Z M941.9823,59 C942.544088,59 943,59.4477129 943,60.0001526 C943,60.5525924 942.544088,61 941.9823,61 L941.9823,61 L919.017077,61 C918.455601,61.0008415 918,60.5525924 918,60.0001526 C918,59.4477129 918.455601,59 919.017077,59 L919.017077,59 Z M932,43 C933.108612,43 933.999658,43.7487245 933.999658,44.6672923 L933.999658,44.6672923 L933.999658,51.3364614 C933.999658,52.2543931 933.107513,53.0037537 932,53.0037537 L932,53.0037537 L920,53.0037537 C918.899506,53.0037537 918,52.2755599 918,51.3364614 L918,51.3364614 L918,44.6672923 C918,43.7402019 918.89679,43 920,43 L920,43 Z M931,45 L921,45 C920.447715,45 920,45.4477153 920,46 L920,50 C920,50.5522847 920.447715,51 921,51 L931,51 C931.552285,51 932,50.5522847 932,50 L932,46 C932,45.4477153 931.552285,45 931,45 Z" id="形状结合" fill="#C9B387"></path>
                <circle id="Oval-2" stroke="#C9B387" stroke-width="2" cx="708" cy="60" r="59"></circle>
                <path d="M709.5625,59.21875 L690.8125,59.21875 C690.421875,59.21875 690.03125,59.609375 690.03125,60 C690.03125,60.390625 690.421875,60.78125 690.8125,60.78125 L709.5625,60.78125 C709.953125,60.78125 710.34375,60.3797545 710.34375,60 C710.34375,59.609375 709.953125,59.21875 709.5625,59.21875 Z M690.8125,42.8125 C690.421875,42.8125 690.03125,43.203125 690.03125,43.59375 C690.03125,43.984375 690.421875,44.375 690.8125,44.375 L716.59375,44.375 C716.984375,44.375 717.375,43.984375 717.375,43.59375 C717.375,43.203125 716.984375,42.8125 716.59375,42.8125 L690.8125,42.8125 Z M690.8125,51.40625 C690.421875,51.40625 690.03125,51.796875 690.03125,52.203125 C690.03125,52.609375 690.421875,52.96875 690.8125,52.96875 L716.59375,52.96875 C716.984375,52.96875 717.375,52.553744 717.375,52.1875 C717.375,51.796875 716.984375,51.40625 716.59375,51.40625 C714.770833,51.40625 706.177083,51.40625 690.8125,51.40625 Z M687,83.4375 C685.88446,83.4375 684.5625,82.1032715 684.5625,81 L684.5625,39 C684.5625,37.8999634 685.889893,36.5625 687,36.5625 L720.5,36.5625 C721.619034,36.5625 722.84375,37.8147583 722.84375,38.90625 L722.84375,55.3125 C722.84375,55.9155284 723.016828,56.09375 723.625,56.09375 C724.232715,56.09375 724.40625,55.9155284 724.40625,55.3125 L724.40625,38.90625 C724.40625,36.953125 722.84375,35 720.5,35 L687,35 C684.785706,35 683,36.7890778 683,39 L683,81 C683,83.2583008 684.824402,85 687,85 L705.65625,85 C706.046875,85 706.4375,84.609375 706.4375,84.21875 C706.4375,83.828125 706.046875,83.4375 705.65625,83.4375 L687,83.4375 Z M730.4375,83.4375 L713.6875,83.4375 C713.135215,83.4375 712.6875,82.9897847 712.6875,82.4375 L712.6875,80.53125 C712.6875,79.9789653 713.135215,79.53125 713.6875,79.53125 L718.9375,79.53125 L718.9375,79.53125 C720.087758,79.53125 721.020833,78.7503179 721.020833,77.578125 L721.020833,73.739006 C721.020833,73.2425383 720.694783,72.8028561 720.214433,72.6525773 C717.811516,71.8984115 716.291568,69.7237964 716.291568,67.2417958 C716.291568,64.1104799 718.880456,61.5625 722.063187,61.5625 C725.245918,61.5625 727.835081,64.1104799 727.835081,67.2417958 C727.835081,69.723526 726.313484,71.8978707 723.910567,72.6528477 C723.430217,72.8033969 723.104167,73.2425383 723.104167,73.739006 L723.104167,77.578125 C723.104167,78.7255859 724.038863,79.53125 725.1875,79.53125 L730.4375,79.53125 C730.989785,79.53125 731.4375,79.9789653 731.4375,80.53125 L731.4375,82.4375 C731.4375,82.9897847 730.989785,83.4375 730.4375,83.4375 Z M731.011364,78 L725.40625,78 C724.853965,78 724.40625,77.5522847 724.40625,77 L724.40625,74.4154667 L724.40625,74.4154667 C727.135211,73.2227072 729.629944,70.546878 729.629944,67.527356 C729.629944,63.3768319 726.235275,60 722.063143,60 C717.890753,60 714.496598,63.3768319 714.496598,67.527356 C714.496598,70.5471337 716.989532,73.222963 719.71875,74.4154667 L719.71875,77 C719.71875,77.5522847 719.271035,78 718.71875,78 L713.113636,78 L713.113636,78 C712.014843,78 711.125,78.8916626 711.125,80 L711.125,83 C711.125,84.1148987 712.01897,85 713.113636,85 L731.011364,85 C732.116226,85 733,84.1186218 733,83 L733,80 C733,78.8839417 732.10955,78 731.011364,78 Z" id="Fill-1-Copy-2" fill="#C9B387"></path>
                <circle id="Oval-2-Copy-2" stroke="#C9B387" stroke-width="2" cx="492" cy="60" r="59"></circle>
                <path d="M507.5,66 C502.254293,66 498,70.2539219 498,75.5 C498,80.745707 502.254293,85 507.5,85 C512.746078,85 517,80.745707 517,75.5 C517,70.2539219 512.746078,66 507.5,66 Z" id="Fill-1" fill="#C9B387"></path>
                <path d="M507.6,70 C508.152285,70 508.6,70.4477153 508.6,71 L508.6,74.4 L512,74.4 C512.552285,74.4 513,74.8477153 513,75.4 L513,75.6 C513,76.1522847 512.552285,76.6 512,76.6 L508.6,76.6 L508.6,80 C508.6,80.5522847 508.152285,81 507.6,81 L507.4,81 C506.847715,81 506.4,80.5522847 506.4,80 L506.399,76.6 L503,76.6 C502.447715,76.6 502,76.1522847 502,75.6 L502,75.4 C502,74.8477153 502.447715,74.4 503,74.4 L506.4,74.4 L506.4,71 C506.4,70.4477153 506.847715,70 507.4,70 L507.6,70 Z" id="Combined-Shape-Copy" fill="#FFFFFF" transform="translate(507.500000, 75.500000) rotate(-270.000000) translate(-507.500000, -75.500000) "></path>
                <path d="M477,69 L489,69 C489.552285,69 490,69.4477153 490,70 C490,70.5522847 489.552285,71 489,71 L477,71 C476.447715,71 476,70.5522847 476,70 C476,69.4477153 476.447715,69 477,69 Z M477,58 L499,58 C499.552285,58 500,58.4477153 500,59 C500,59.5522847 499.552285,60 499,60 L477,60 C476.447715,60 476,59.5522847 476,59 C476,58.4477153 476.447715,58 477,58 Z M499,47 C499.552285,47 500,47.4477153 500,48 C500,48.5522847 499.552285,49 499,49 L477,49 C476.447715,49 476,48.5522847 476,48 C476,47.4477153 476.447715,47 477,47 L499,47 Z" id="Combined-Shape" fill="#C9B387"></path>
                <path d="M504,35 C506.209139,35 508,36.790861 508,39 L508,64 L508,64 C507.318641,64 506.650545,64.0567867 506.000187,64.1658855 L506,40 C506,38.3431458 504.656854,37 503,37 L503,37 L472,37 C470.343146,37 469,38.3431458 469,40 L469,40 L469,80 C469,81.6568542 470.343146,83 472,83 L472,83 L498.25269,83.0008275 C498.77989,83.7335584 499.387671,84.4044302 500.063057,85.0004682 L471,85 C468.790861,85 467,83.209139 467,81 L467,39 C467,36.790861 468.790861,35 471,35 L504,35 Z" id="Combined-Shape" fill="#C9B387"></path>
                <circle id="Oval-2-Copy" stroke="#C9B387" stroke-width="2" cx="60" cy="60" r="59"></circle>
                <path d="M75.5,66 C70.254293,66 66,70.2539219 66,75.5 C66,80.745707 70.254293,85 75.5,85 C80.7460781,85 85,80.745707 85,75.5 C85,70.2539219 80.7460781,66 75.5,66 Z" id="Fill-1" fill="#C9B387"></path>
                <path d="M61.2135621,56.2919666 C60.8999686,56.6502438 60.9362404,57.1946584 61.2927007,57.5082519 C63.3462001,59.3086557 64.5246657,61.9063677 64.5246657,64.6352371 C64.5246657,65.1107418 64.9105338,65.4966099 65.3861059,65.4966099 C65.8616106,65.4966099 66.247546,65.1107418 66.247546,64.6352371 C66.247546,61.410338 64.8553522,58.3421012 62.4298474,56.212828 C62.0697532,55.9010514 61.5271556,55.9355063 61.2135621,56.2919666 Z" id="Fill-5" fill="#C9B387"></path>
                <path d="M44,64.6325296 C44,65.1095289 44.3858681,65.4966099 44.8614401,65.4966099 C45.3366756,65.4966099 45.7225437,65.1095289 45.7225437,64.6325296 C45.7225437,60.533346 48.4032974,56.876666 52.2656797,55.6117334 C53.1683715,55.9935489 54.1588829,56.2060587 55.197712,56.2060587 C59.3789367,56.2060587 62.77786,52.794629 62.77786,48.6021518 C62.77786,44.409607 59.3771198,41 55.197712,41 C51.0183715,41 47.6176312,44.4114972 47.6176312,48.6021518 C47.6176312,50.9783052 48.7324361,53.0780879 50.439502,54.4743877 C46.579004,56.30104 44,60.2585954 44,64.6325296 Z M49.8152285,48.4992413 C49.8152285,45.4672169 52.2821054,43 55.3152285,43 C58.3483516,43 60.8152285,45.4672169 60.8152285,48.4992413 C60.8152285,51.5327824 58.3483516,54 55.3152285,54 C52.2821054,54.0015161 49.8152285,51.5327824 49.8152285,48.4992413 Z" id="Fill-6" fill="#C9B387"></path>
                <path d="M48.5,77.5 L63.5,77.5 C64.0522847,77.5 64.5,77.9477153 64.5,78.5 C64.5,79.0522847 64.0522847,79.5 63.5,79.5 L48.5,79.5 C47.9477153,79.5 47.5,79.0522847 47.5,78.5 C47.5,77.9477153 47.9477153,77.5 48.5,77.5 Z M48.5,72.5 L63.5,72.5 C64.0522847,72.5 64.5,72.9477153 64.5,73.5 C64.5,74.0522847 64.0522847,74.5 63.5,74.5 L48.5,74.5 C47.9477153,74.5 47.5,74.0522847 47.5,73.5 C47.5,72.9477153 47.9477153,72.5 48.5,72.5 Z M58,67 C58.5522847,67 59,67.4477153 59,68 C59,68.5522847 58.5522847,69 58,69 L54,69 C53.4477153,69 53,68.5522847 53,68 C53,67.4477153 53.4477153,67 54,67 L58,67 Z" id="Combined-Shape" fill="#C9B387"></path>
                <path d="M72,35 C74.209139,35 76,36.790861 76,39 L76,64 L76,64 C75.318641,64 74.6505452,64.0567867 74.0001873,64.1658855 L74,40 C74,38.3431458 72.6568542,37 71,37 L71,37 L40,37 C38.3431458,37 37,38.3431458 37,40 L37,40 L37,80 C37,81.6568542 38.3431458,83 40,83 L40,83 L66.2526901,83.0008275 C66.7798902,83.7335584 67.3876708,84.4044302 68.0630574,85.0004682 L39,85 C36.790861,85 35,83.209139 35,81 L35,39 C35,36.790861 36.790861,35 39,35 L72,35 Z" id="Combined-Shape" fill="#C9B387"></path>
                <path d="M74,79 C73.4477153,79 73,78.5522847 73,78 C73,77.4477153 73.4477153,77 74,77 L76.999,77 L77,70 C77,69.4477153 77.4477153,69 78,69 C78.5522847,69 79,69.4477153 79,70 L78.9998557,77.9828385 C78.9999518,77.9885475 79,77.9942681 79,78 C79,78.5522847 78.5522847,79 78,79 L74,79 Z" id="Combined-Shape-Copy" fill="#FFFFFF" transform="translate(76.000000, 74.000000) rotate(-315.000000) translate(-76.000000, -74.000000) "></path>
                <circle id="Oval-2-Copy-3" stroke="#C9B387" stroke-width="2" cx="276" cy="60" r="59"></circle>
                <circle id="Oval-5" fill="#C9B387" cx="274" cy="39" r="1"></circle>
                <circle id="Oval-5-Copy" stroke="#C9B387" cx="274" cy="80" r="1.5"></circle>
                <path d="M275.838227,67 L266.019195,67 C265.415815,67 264.928571,67.3582852 264.928571,67.7994569 L264.928571,68.2014635 C264.928571,68.6417148 265.417142,69 266.019195,69 L275.838227,69 C276.440281,69 276.928571,68.6426352 276.928571,68.2014635 L276.928571,67.7994569 C276.928571,67.3582852 276.440281,67 275.838227,67 Z" id="Path" fill="#C9B387"></path>
                <path d="M265.828392,51 L282.028748,51 C282.52602,51 282.928571,50.6427733 282.928571,50.2014635 L282.928571,49.7990888 C282.929837,49.3582852 282.52602,49 282.028748,49 L265.828392,49 C265.33134,49 264.928571,49.357779 264.928571,49.7990888 L264.928571,50.2014635 C264.928571,50.6417148 265.33134,51 265.828392,51 Z" id="Path" fill="#C9B387"></path>
                <path d="M265.828392,60 L282.028748,60 C282.52602,60 282.928571,59.6427733 282.928571,59.2014635 L282.928571,58.7990888 C282.929837,58.3582852 282.52602,58 282.028748,58 L265.828392,58 C265.33134,58 264.928571,58.357779 264.928571,58.7990888 L264.928571,59.2014635 C264.928571,59.6417148 265.33134,60 265.828392,60 Z" id="Path-Copy-9" fill="#C9B387"></path>
                <path d="M289,35 C291.209139,35 293,36.790861 293,39 L293,56 L291.19,57.81 L291.190476,40 C291.190476,38.4023191 289.941556,37.0963391 288.366749,37.0050927 L288.190476,37 L259.809524,37 C258.15267,37 256.809524,38.3431458 256.809524,40 L256.809524,40 L256.809524,80 C256.809524,81.6568542 258.15267,83 259.809524,83 L259.809524,83 L288.190476,83 C289.84733,83 291.190476,81.6568542 291.190476,80 L291.190476,80 L291.19,67.81 L293,66 L293,81 C293,83.209139 291.209139,85 289,85 L259,85 C256.790861,85 255,83.209139 255,81 L255,39 C255,36.790861 256.790861,35 259,35 L289,35 Z" id="Combined-Shape" fill="#C9B387"></path>
                <path d="M285,41 C287.209139,41 289,42.790861 289,45 L289,60 L287.235,61.765 L287.235294,45.8 C287.235294,44.2023191 285.986374,42.8963391 284.411567,42.8050927 L284.235294,42.8 L263.764706,42.8 C262.107852,42.8 260.764706,44.1431458 260.764706,45.8 L260.764706,45.8 L260.764706,72.2 C260.764706,73.8568542 262.107852,75.2 263.764706,75.2 L263.764706,75.2 L284.235294,75.2 C285.892148,75.2 287.235294,73.8568542 287.235294,72.2 L287.235294,72.2 L287.235,71.765 L289,70 L289,73 C289,75.209139 287.209139,77 285,77 L263,77 C260.790861,77 259,75.209139 259,73 L259,45 C259,42.790861 260.790861,41 263,41 L285,41 Z" id="Combined-Shape" fill="#C9B387"></path>
                <path d="M303.584906,59 L303.584906,60.8867925 L280.943396,60.8867925 C280.422373,60.8867925 280,60.4644196 280,59.9433962 C280,59.4223729 280.422373,59 280.943396,59 L303.584906,59 Z M307.695418,59 C308.216441,59 308.638814,59.4223729 308.638814,59.9433962 C308.638814,60.4644196 308.216441,60.8867925 307.695418,60.8867925 L304.427224,60.8867925 L304.427224,59 L307.695418,59 Z" id="Combined-Shape" fill="#C9B387" transform="translate(294.319407, 59.943396) rotate(-45.000000) translate(-294.319407, -59.943396) "></path>
                <rect id="Rectangle-7-Copy-5" stroke="#C9B387" stroke-width="2" x="1081" y="1" width="118" height="118" rx="59"></rect>
                <path d="M1152,35 C1154.20914,35 1156,36.790861 1156,39 L1156.00085,57.3969947 C1155.3489,57.2464812 1154.68122,57.1370945 1154.00068,57.0717138 L1154,40 C1154,38.3431458 1152.65685,37 1151,37 L1151,37 L1120,37 C1118.34315,37 1117,38.3431458 1117,40 L1117,40 L1117,80 C1117,81.6568542 1118.34315,83 1120,83 L1120,83 L1141.09896,83.0008925 C1141.77736,83.7370777 1142.52616,84.4073963 1143.33468,85.0011668 L1119,85 C1116.79086,85 1115,83.209139 1115,81 L1115,39 C1115,36.790861 1116.79086,35 1119,35 L1152,35 Z" id="Combined-Shape" fill="#C9B387"></path>
                <path d="M1148,39 C1150.20914,39 1152,40.790861 1152,43 L1152.00065,57.0078914 C1151.32189,57.0293736 1150.65415,57.0944949 1150.00013,57.2005423 L1150,44 C1150,42.3431458 1148.65685,41 1147,41 L1147,41 L1124,41 C1122.34315,41 1121,42.3431458 1121,44 L1121,44 L1121,76 C1121,77.6568542 1122.34315,79 1124,79 L1124,79 L1138.42507,79.0009177 C1138.74709,79.6969542 1139.11922,80.3650667 1139.53684,81.000626 L1123,81 C1120.79086,81 1119,79.209139 1119,77 L1119,43 C1119,40.790861 1120.79086,39 1123,39 L1148,39 Z" id="Combined-Shape" fill="#C9B387"></path>
                <rect id="Rectangle-22" fill="#C9B387" x="1124" y="47" width="12" height="2" rx="1"></rect>
                <rect id="Rectangle-22备份" fill="#C9B387" x="1124" y="55" width="12" height="2" rx="1"></rect>
                <rect id="Rectangle-22-Copy" fill="#C9B387" x="1124" y="63" width="8" height="2" rx="1"></rect>
                <rect id="Rectangle-22-Copy-2" fill="#C9B387" x="1124" y="71" width="12" height="2" rx="1"></rect>
                <circle id="Oval-7" fill="#C9B387" cx="1152.5" cy="72.5" r="12.5"></circle>
                <path d="M1150.71929,77 C1150.50611,77 1150.2929,76.9209578 1150.13499,76.7550021 L1147.24482,73.862757 C1147.08689,73.7047306 1147,73.4992827 1147,73.2780147 C1147,73.0567661 1147.08689,72.8513182 1147.24482,72.6932146 L1148.4688,71.46836 C1148.79255,71.1443778 1149.32158,71.1443778 1149.6375,71.46836 L1152.52767,74.360605 C1152.85141,74.6846644 1152.85141,75.2061652 1152.52767,75.5301475 L1151.30369,76.7550021 C1151.14578,76.9209578 1150.9325,77 1150.71929,77 Z M1148.11341,73.285944 L1150.71929,75.8936797 L1151.659,74.9533152 L1149.05312,72.3455602 L1148.11341,73.285944 Z M1155.94688,71.7765801 C1155.73368,71.7765801 1155.52047,71.6975186 1155.36248,71.5315821 L1152.47239,68.6393371 C1152.3144,68.4812913 1152.22757,68.2758627 1152.22757,68.0545948 C1152.22757,67.8333462 1152.3144,67.6278983 1152.47239,67.4698718 L1153.69637,66.2449979 C1153.8543,66.0868943 1154.05958,66 1154.28069,66 C1154.5018,66 1154.70708,66.0868943 1154.86499,66.2449979 L1157.75518,69.1371851 C1157.91309,69.2952887 1158,69.5007173 1158,69.7219853 C1158,69.9432532 1157.91309,70.1486818 1157.75518,70.3067275 L1156.53118,71.5315821 C1156.37327,71.6975186 1156.16007,71.7765801 1155.94688,71.7765801 Z M1153.341,68.0545948 L1155.94688,70.6623498 L1156.88657,69.7219853 L1154.28069,67.1142303 L1153.341,68.0545948 Z" id="Fill-1" fill="#FFFFFF"></path>
                <path d="M1149.47702,72.5375661 C1149.3259,72.5375661 1149.17478,72.4659113 1149.07926,72.3304032 C1148.93611,72.115244 1148.99179,71.8203753 1149.20655,71.6689914 C1149.2225,71.6610146 1150.42368,70.8481412 1151.13176,70.1389077 C1151.83974,69.4296936 1152.65112,68.2263468 1152.65908,68.2104515 C1152.80232,67.995234 1153.0966,67.9315364 1153.31935,68.0829397 C1153.53421,68.2263468 1153.59778,68.5212155 1153.44666,68.7443515 C1153.41486,68.8001306 1152.57161,70.043303 1151.79998,70.8162924 C1151.02826,71.5892625 1149.78732,72.4260079 1149.73164,72.4659113 C1149.66001,72.5057368 1149.56458,72.5375661 1149.47702,72.5375661 Z M1151.93518,75 C1151.8477,75 1151.75218,74.976128 1151.67267,74.9203489 C1151.45789,74.776864 1151.39424,74.4819953 1151.54536,74.2588593 C1151.57723,74.2030802 1152.42041,72.9599662 1153.19211,72.1869961 C1153.96376,71.4139483 1155.20477,70.5772029 1155.26047,70.5373773 C1155.47524,70.3939703 1155.76952,70.4497494 1155.92074,70.6649086 C1156.06389,70.8800484 1156.00821,71.1749171 1155.79343,71.3263204 C1155.7775,71.3342972 1154.5763,72.1470927 1153.86832,72.8563847 C1153.16026,73.5655988 1152.34886,74.7688872 1152.3409,74.7848408 C1152.2375,74.9283257 1152.0863,75 1151.93518,75 Z" id="Fill-2" fill="#FFFFFF"></path>
                <path d="M1158.57044,79 C1158.20405,79 1157.83773,78.8648436 1157.55898,78.5866522 L1152.29469,73.3328021 C1152.10352,73.1420889 1152,72.8876882 1152,72.6254284 C1152,72.3551932 1152.10352,72.1008895 1152.29469,71.9180547 L1152.93975,71.2741939 C1153.30615,70.908602 1153.89545,70.908602 1154.26184,71.2741939 L1159.58188,76.5836784 C1160.13937,77.1400611 1160.13937,78.0382256 1159.58188,78.5946083 C1159.30314,78.8648436 1158.93676,79 1158.57044,79 Z M1153.60084,71.9498015 L1152.97166,72.5777501 C1152.96367,72.5857062 1152.9557,72.6016184 1152.9557,72.6174723 C1152.9557,72.6333845 1152.96367,72.6492967 1152.97166,72.6572528 L1158.23595,77.9110446 C1158.41907,78.0938794 1158.72173,78.0938794 1158.90493,77.9110446 C1159.08805,77.7282875 1159.08805,77.4262085 1158.90493,77.2433738 L1153.60084,71.9498015 Z" id="Fill-4" fill="#FFFFFF"></path>
                <path d="M30.14,159.12 C32.74,160.16 35.28,161.5 37.76,163.18 L38.8,161.54 C36.48,160.1 33.94,158.82 31.18,157.74 C31.26,157.58 31.36,157.42 31.46,157.26 L38.52,157.26 L38.52,155.46 L32.24,155.46 C32.64,154.26 32.86,152.92 32.92,151.44 L32.92,149 L31.08,149 L31.08,151.44 C31,152.92 30.72,154.26 30.24,155.46 L21.5,155.46 L21.5,157.26 L29.26,157.26 L28.92,157.72 C27.58,159.24 25.04,160.48 21.32,161.46 L22.36,163.08 C25.92,162.16 28.52,160.84 30.14,159.12 Z M24.36,151.66 L23.42,153.08 C24.74,153.6 26.04,154.32 27.28,155.26 L28.26,153.76 C27.08,152.94 25.78,152.24 24.36,151.66 Z M26.32,148.86 L25.38,150.26 C26.7,150.78 27.98,151.52 29.22,152.44 L30.2,150.94 C29.04,150.12 27.74,149.42 26.32,148.86 Z M38.34,146.36 L31.04,146.36 C30.84,145.66 30.62,145.04 30.38,144.48 L28.44,144.8 C28.68,145.28 28.9,145.8 29.12,146.36 L21.62,146.36 L21.62,150.46 L23.46,150.46 L23.46,148.1 L36.5,148.1 L36.5,150.46 L38.34,150.46 L38.34,146.36 Z M47.34,161.94 L55.8,161.94 L55.8,163 L57.72,163 L57.72,154.3 L50.06,154.3 C53.44,152.62 55.78,150.5 57.08,147.96 L57.08,146.28 L49.58,146.28 C49.92,145.8 50.22,145.3 50.5,144.78 L48.42,144.54 C47.22,146.6 44.94,148.34 41.56,149.78 L42.84,151.42 C44.92,150.42 46.62,149.3 47.98,148.06 L54.9,148.06 C54.02,149.5 52.68,150.78 50.86,151.88 C50.04,151.18 48.94,150.4 47.54,149.54 L45.9,150.56 C47.26,151.34 48.38,152.08 49.22,152.76 C46.98,153.8 44.2,154.62 40.86,155.26 L41.86,157.1 C43.12,156.8 44.32,156.48 45.44,156.14 L45.44,163 L47.34,163 L47.34,161.94 Z M55.8,160.1 L47.34,160.1 L47.34,156.06 L55.8,156.06 L55.8,160.1 Z M72.32,144.74 C72.3,148.58 72.02,151.72 71.46,154.14 C70.74,157.02 69.26,159.44 66.98,161.4 L68.26,162.96 C70.94,160.72 72.64,157.9 73.36,154.46 L73.52,153.68 C74.6,157.28 76.12,160.36 78.1,162.92 L79.46,161.32 C76.9,158.4 75.1,154.48 74.06,149.56 C74.18,148.08 74.24,146.46 74.24,144.74 L72.32,144.74 Z M63.46,144.76 L62.14,146.06 C63.56,147.1 64.66,148.1 65.46,149.04 L66.76,147.72 C65.86,146.72 64.76,145.74 63.46,144.76 Z M60.82,150.56 L60.82,152.38 L63.62,152.38 L63.62,159.54 C63.62,159.96 63.44,160.3 63.1,160.58 L63.82,162.28 C65.28,161.32 66.64,160.26 67.92,159.08 L67.44,157.12 L66.7392593,157.773333 C66.2844444,158.191111 65.8533333,158.573333 65.44,158.92 L65.44,150.56 L60.82,150.56 Z M93.06,147.24 L93.06,160.52 L90.72,160.52 L90.72,150.26 L88.86,150.26 L88.86,160.52 L86.98,160.52 L86.98,162.38 L99.34,162.38 L99.34,160.52 L95,160.52 L95,154.16 L98.66,154.16 L98.66,152.38 L95,152.38 L95,147.24 L98.94,147.24 L98.94,145.38 L87.6,145.38 L87.6,147.24 L93.06,147.24 Z M83.54,144.76 L82.22,146.02 C83.58,147.08 84.66,148.08 85.44,149.04 L86.74,147.72 C85.86,146.74 84.78,145.76 83.54,144.76 Z M80.8,150.56 L85.38,150.56 L85.38,158.78 C85.92,158.3 86.5,157.74 87.12,157.14 L87.62,159.16 C86.42,160.32 85.14,161.36 83.78,162.28 L83.06,160.56 C83.38,160.28 83.56,159.94 83.56,159.54 L83.56,152.38 L80.8,152.38 L80.8,150.56 Z" id="实名认证" fill="#C9B387" fill-rule="nonzero"></path>
                <path d="M243.12,153.76 L243.12,155.6 L247.5,155.6 L247.5,160.52 L242.38,160.52 L242.38,162.38 L254.94,162.38 L254.94,160.52 L249.44,160.52 L249.44,155.6 L254.06,155.6 L254.06,153.76 L249.44,153.76 L249.44,150.24 L247.5,150.24 L247.5,153.76 L243.12,153.76 Z M239.7,155.42 L239.7,163.12 L241.58,163.12 L241.58,153.3 C242.64,151.98 243.54,150.54 244.3,149.02 L254.94,149.02 L254.94,147.16 L245.14,147.16 C245.46,146.34 245.74,145.5 246,144.64 L244.04,144.42 C243.76,145.36 243.44,146.28 243.04,147.16 L237.34,147.16 L237.34,149.02 L242.14,149.02 C240.78,151.46 238.94,153.66 236.62,155.58 L237.82,157.14 C238.48,156.58 239.1,156.02 239.7,155.42 Z M263.94,158.8 C261.98,159.52 259.66,160.1 257.02,160.54 L257.26,162.4 C259.76,161.94 261.98,161.34 263.94,160.58 L263.94,158.8 Z M260.1,144.48 C259.38,146.68 258.56,148.7 257.6,150.5 C257.36,150.84 257.1,151.08 256.82,151.2 L257.28,152.92 L258.7825,152.7125 C259.275,152.645 259.76,152.58 260.24,152.52 L259.880533,153.1424 C259.120178,154.435467 258.48,155.368 257.96,155.94 C257.72,156.16 257.44,156.34 257.1,156.48 L257.62,158.2 C259.54,157.96 261.58,157.46 263.74,156.74 L263.74,155.04 C262.42,155.48 261.14,155.84 259.86,156.12 C260.98,154.68 262.34,152.4 263.96,149.28 L262.26,148.64 L261.7025,149.76 C261.52,150.125 261.34,150.48 261.16,150.82 C260.44,150.92 259.74,151 259.04,151.08 C260,149.58 260.96,147.62 261.92,145.2 L260.1,144.48 Z M273.68,147.98 L268.9,148.64 L268.9,144.6 L267,144.6 L267,148.9 L264.1,149.32 L264.38,151.08 L267.04,150.7 C267.08,151.5 267.12,152.26 267.2,153 L263.76,153.54 L264.02,155.34 L267.44,154.8 C267.52,155.24 267.6,155.68 267.7,156.1 C267.94,157.1 268.22,158.02 268.58,158.86 C267.18,159.9 265.58,160.7 263.78,161.26 L264.88,162.78 C266.48,162.3 268,161.54 269.44,160.5 C269.54,160.66 269.66,160.84 269.8,161.02 C270.7,162.22 271.66,162.84 272.66,162.86 C273.78,162.86 274.62,161.56 275.22,159 L273.6,157.92 L273.511225,158.414861 C273.210248,159.986612 272.858182,160.78 272.44,160.78 C271.96,160.78 271.42,160.3 270.82,159.38 C271.98,158.34 273.04,157.08 274.04,155.64 L272.54,154.62 C271.8,155.74 270.96,156.74 270.04,157.62 C269.78,156.88 269.56,156.04 269.4,155.1 L269.32,154.52 L274.5,153.7 L274.22,151.9 L269.1,152.7 C269.02,151.98 268.98,151.24 268.94,150.44 L273.94,149.74 L273.68,147.98 Z M271.14,144.52 L269.7,145.44 C270.62,146.34 271.36,147.16 271.9,147.92 L273.38,146.88 C272.86,146.22 272.1,145.44 271.14,144.52 Z M290.42,156.1 C289.86,157.88 289.24,159.42 288.52,160.72 L277.52,160.72 L277.52,162.48 L294.52,162.48 L294.52,160.72 L290.56,160.72 C291.24,159.5 291.82,158.12 292.3,156.6 L290.42,156.1 Z M281.34,156.28 L279.6,156.84 C280.24,157.96 280.74,159.14 281.14,160.38 L282.86,159.94 C282.4,158.56 281.9,157.34 281.34,156.28 Z M285.96,155.88 L284.2,156.44 C284.72,157.64 285.14,158.88 285.48,160.18 L287.18,159.76 C286.82,158.3 286.42,157 285.96,155.88 Z M280.76,154.12 L280.76,155.54 L291.26,155.54 L291.26,154.14 C292.18,154.56 293.18,154.96 294.24,155.32 L295.16,153.68 C291.92,152.66 289.08,151.26 286.6,149.5 L285.4,149.5 C283.12,151.14 280.28,152.52 276.84,153.64 L277.76,155.3 C278.8,154.92 279.8,154.52 280.76,154.12 Z M290.7,153.88 L281.28,153.88 C283.1,153.02 284.68,152.08 286,151.04 C287.36,152.1 288.94,153.04 290.7,153.88 Z M280.24,147.86 L281.56,147.86 C281.88,148.6 282.16,149.36 282.4,150.16 L284.12,149.54 C283.94,149.02 283.72,148.46 283.44,147.86 L285.94,147.86 L285.94,146.18 L280.96,146.18 L281.24,145.368148 C281.286667,145.228889 281.333333,145.086667 281.38,144.94 L279.54,144.54 C279.02,146.3 278.16,147.94 276.92,149.48 L278.56,150.52 C279.18,149.72 279.74,148.82 280.24,147.86 Z M288.62,147.86 L290.2,147.86 C290.62,148.66 291,149.48 291.32,150.36 L293.06,149.7 C292.82,149.14 292.52,148.52 292.14,147.86 L294.96,147.86 L294.96,146.18 L289.34,146.18 C289.48,145.78 289.62,145.38 289.74,144.94 L287.94,144.54 C287.54,146.02 286.86,147.38 285.94,148.66 L287.54,149.68 C287.94,149.12 288.3,148.5 288.62,147.86 Z M298.7,145.24 L298.7,149.3 L304.44,149.3 L304.44,150.28 L299.32,150.28 L299.32,151.76 L304.44,151.76 L304.44,152.86 L297.14,152.86 L297.14,154.48 L305.44,154.48 C303.04,155.4 300.24,156.04 297.06,156.36 L298.08,157.92 C299,157.74 299.92,157.54 300.8,157.34 L300.8,163.2 L302.66,163.2 L302.66,162.38 L310.7,162.38 L310.7,163.2 L312.56,163.2 L312.56,155.6 L306.24,155.6 C307.1,155.24 307.92,154.88 308.68,154.48 L314.96,154.48 L314.96,152.86 L311.36,152.86 C312.36,152.14 313.28,151.36 314.1,150.5 L312.54,149.68 C311.9,150.38 311.18,151.06 310.38,151.7 L310.38,150.28 L306.28,150.28 L306.28,149.3 L313.22,149.3 L313.22,145.24 L298.7,145.24 Z M308.72,152.86 L306.28,152.86 L306.28,151.76 L310.3,151.76 C309.8,152.14 309.28,152.5 308.72,152.86 Z M311.42,147.92 L308.94,147.92 L308.94,146.64 L311.42,146.64 L311.42,147.92 Z M307.2,147.92 L304.76,147.92 L304.76,146.64 L307.2,146.64 L307.2,147.92 Z M303.02,147.92 L300.5,147.92 L300.5,146.64 L303.02,146.64 L303.02,147.92 Z M302.66,159.68 L310.7,159.68 L310.7,160.84 L302.66,160.84 L302.66,159.68 Z M310.7,158.24 L302.66,158.24 L302.66,157.04 L310.7,157.04 L310.7,158.24 Z" id="在线签署" fill="#C9B387" fill-rule="nonzero"></path>
                <path d="M454.06,151.02 L458.94,151.02 C457.58,155.22 455.52,158.54 452.76,160.98 L453.74,162.74 C455.92,160.98 457.74,158.62 459.18,155.66 C459.82,156.84 460.8,157.96 462.1,159 C460.68,159.86 458.96,160.66 456.96,161.38 L457.96,163.18 C460.26,162.28 462.2,161.28 463.78,160.18 C465.42,161.22 467.46,162.2 469.88,163.08 L470.86,161.28 C468.72,160.56 466.88,159.78 465.36,158.94 C466.84,157.62 467.82,156.14 468.34,154.5 L468.34,152.9 L460.34,152.9 L460.65,151.9825 C460.755,151.67 460.86,151.35 460.96,151.02 L470.6,151.02 L470.6,149.2 L461.44,149.2 C461.78,147.82 462.08,146.34 462.32,144.76 L460.38,144.52 C460.14,146.16 459.84,147.72 459.46,149.2 L456.5,149.2 L457.54,145.5 L455.64,145.18 L454.06,151.02 Z M460.56,154.62 L466.42,154.62 C465.86,155.78 464.94,156.88 463.68,157.9 C462.26,156.9 461.22,155.8 460.56,154.62 Z M465.68,144.54 L464.4,145.8 C465.88,146.94 467,148.02 467.8,149.06 L469.16,147.7 C468.22,146.64 467.06,145.58 465.68,144.54 Z M474.72,144.8 L473.4,146.06 C474.84,147.22 475.96,148.28 476.74,149.28 L478.12,147.92 C477.2,146.88 476.06,145.84 474.72,144.8 Z M486.2,162.72 L490.76,162.72 L491.22,160.84 L490.600741,160.879259 C490.213086,160.900247 489.753416,160.919177 489.225158,160.93262 L488.9,160.94 C487.9,160.96 486.9,160.98 485.92,160.98 L484.432593,160.974074 C483.488889,160.966667 482.64,160.953333 481.88,160.94 C480.7,160.9 479.82,160.72 479.22,160.44 C478.791429,160.217143 478.377551,159.891429 477.978367,159.462857 L477.78,159.24 C477.68,159.12 477.58,159.02 477.48,158.94 L477.48,151.38 L473.02,151.38 L473.02,153.14 L475.7,153.14 L475.7,158.8 C474.9,159.2 474,160.22 473,161.84 L474.4,163.14 L474.670744,162.671405 C475.54843,161.183802 476.178182,160.44 476.56,160.44 C476.8,160.44 477.04,160.6 477.32,160.94 C477.92,161.62 478.62,162.1 479.42,162.34 C480.26,162.54 481.32,162.66 482.62,162.68 L485.067407,162.714074 C485.455556,162.717778 485.833333,162.72 486.2,162.72 Z M479.06,152.32 L479.06,154.12 L483.3,154.12 C482.64,155.88 481.16,157.32 478.88,158.44 L480.08,159.96 C482.96,158.4 484.7,156.44 485.3,154.12 L490.64,154.12 L490.64,152.32 L485.66,152.32 C485.74,151.58 485.8,150.74 485.82,149.8 L489.96,149.8 L489.96,148.04 L487.68,148.04 C488.18,147.16 488.64,146.18 489.06,145.08 L487.26,144.46 C486.82,145.74 486.32,146.92 485.76,148.04 L482.72,148.04 L483.84,147.48 C483.3,146.44 482.72,145.5 482.12,144.64 L480.42,145.46 C481.02,146.22 481.58,147.08 482.1,148.04 L479.74,148.04 L479.74,149.8 L483.96,149.8 C483.94,150.74 483.88,151.58 483.76,152.32 L479.06,152.32 Z M486.3,155.06 L485.18,156.32 C486.62,157.36 488,158.6 489.32,160.02 L490.64,158.58 C489.34,157.32 487.9,156.14 486.3,155.06 Z M501.3,144.56 C498.98,147.24 496.06,149.5 492.56,151.3 L493.56,153.14 C494.68,152.52 495.74,151.86 496.74,151.14 L496.74,152.6 L507.26,152.6 L507.26,151.18 C508.22,151.86 509.26,152.5 510.36,153.1 L511.38,151.28 C508.1,149.64 505.22,147.4 502.7,144.56 L501.3,144.56 Z M497.24,150.78 C499.08,149.42 500.66,147.92 502,146.28 C503.38,147.96 504.96,149.46 506.72,150.78 L497.24,150.78 Z M508.52,154.74 L495.48,154.74 L495.48,163.04 L497.32,163.04 L497.32,161.96 L506.68,161.96 L506.68,163.04 L508.52,163.04 L508.52,154.74 Z M497.32,160.16 L497.32,156.52 L506.68,156.52 L506.68,160.16 L497.32,160.16 Z M528.26,162.98 C529.54,162.98 530.2,162.22 530.2,160.74 L530.2,145.26 L513.8,145.26 L513.8,163.04 L515.7,163.04 L515.7,147.1 L528.3,147.1 L528.3,160.32 C528.3,160.88 528.08,161.16 527.64,161.16 L525.12,161.08 L525.64,162.98 L528.26,162.98 Z M516.9,149 L516.9,150.76 L527.1,150.76 L527.1,149 L516.9,149 Z M517.94,152.58 L517.94,159.28 L526.08,159.28 L526.08,152.58 L517.94,152.58 Z M524.24,157.58 L519.78,157.58 L519.78,154.28 L524.24,154.28 L524.24,157.58 Z" id="发送合同" fill="#C9B387" fill-rule="nonzero"></path>
                <path d="M677.52,148.34 L677.52,150.18 L683.12,150.18 L683.12,160.22 C683.12,160.9 682.74,161.26 682,161.26 C681.12,161.26 680.18,161.22 679.22,161.14 L679.62,163 L682.66,163 C684.24,163 685.04,162.22 685.04,160.7 L685.04,150.18 L687.1,150.18 L687.1,148.34 L685.04,148.34 L685.04,144.56 L683.12,144.56 L683.12,148.34 L677.52,148.34 Z M670.6,149.76 L669.32,150.96 C670.68,152.48 671.92,153.98 673,155.42 C671.98,157.22 670.58,158.82 668.78,160.18 L669.86,161.84 C671.62,160.36 673.06,158.76 674.14,157 C674.76,157.9 675.32,158.78 675.82,159.66 L677.22,158.26 C676.56,157.24 675.86,156.22 675.1,155.18 C676.12,152.96 676.64,150.52 676.68,147.86 L676.68,146.46 L669.66,146.46 L669.66,148.3 L674.98,148.3 C674.88,150.18 674.52,151.94 673.88,153.58 C672.86,152.3 671.76,151.04 670.6,149.76 Z M678.86,152.2 L677.42,153.26 C678.64,154.8 679.62,156.22 680.36,157.52 L681.86,156.48 C681.16,155.24 680.16,153.8 678.86,152.2 Z M689.16,147.4 L689.16,149.24 L694.66,149.24 L694.612,150.08352 C694.588,150.5664 694.564,151.14 694.54,151.8 C694.44,153.68 694.06,155.38 693.38,156.9 C692.7,158.42 691.3,160.06 689.18,161.84 L690.56,163.16 C692.32,161.72 693.7,160.14 694.68,158.42 C695.4,157.14 695.88,155.72 696.16,154.18 L702.7,154.18 L702.677105,155.527238 C702.637316,157.513157 702.57913,158.798261 702.48,159.36 C702.24,160.56 701.7,161.16 700.86,161.2 L700.286562,161.193125 C699.68,161.18 698.975,161.15 698.18,161.12 L698.74,162.84 L699.468863,162.886064 C700.054286,162.919592 700.582857,162.94 701.04,162.94 C702.62,162.9 703.62,162.08 704.06,160.48 L704.122139,160.238667 C704.403467,159.012889 704.564,156.393333 704.62,152.38 L696.38,152.38 L696.54,149.24 L706.94,149.24 L706.94,147.4 L699.52,147.4 C699.08,146.28 698.58,145.32 698.04,144.5 L696.24,145.16 C696.76,145.88 697.2,146.62 697.58,147.4 L689.16,147.4 Z M722.42,156.1 C721.86,157.88 721.24,159.42 720.52,160.72 L709.52,160.72 L709.52,162.48 L726.52,162.48 L726.52,160.72 L722.56,160.72 C723.24,159.5 723.82,158.12 724.3,156.6 L722.42,156.1 Z M713.34,156.28 L711.6,156.84 C712.24,157.96 712.74,159.14 713.14,160.38 L714.86,159.94 C714.4,158.56 713.9,157.34 713.34,156.28 Z M717.96,155.88 L716.2,156.44 C716.72,157.64 717.14,158.88 717.48,160.18 L719.18,159.76 C718.82,158.3 718.42,157 717.96,155.88 Z M712.76,154.12 L712.76,155.54 L723.26,155.54 L723.26,154.14 C724.18,154.56 725.18,154.96 726.24,155.32 L727.16,153.68 C723.92,152.66 721.08,151.26 718.6,149.5 L717.4,149.5 C715.12,151.14 712.28,152.52 708.84,153.64 L709.76,155.3 C710.8,154.92 711.8,154.52 712.76,154.12 Z M722.7,153.88 L713.28,153.88 C715.1,153.02 716.68,152.08 718,151.04 C719.36,152.1 720.94,153.04 722.7,153.88 Z M712.24,147.86 L713.56,147.86 C713.88,148.6 714.16,149.36 714.4,150.16 L716.12,149.54 C715.94,149.02 715.72,148.46 715.44,147.86 L717.94,147.86 L717.94,146.18 L712.96,146.18 L713.24,145.368148 C713.286667,145.228889 713.333333,145.086667 713.38,144.94 L711.54,144.54 C711.02,146.3 710.16,147.94 708.92,149.48 L710.56,150.52 C711.18,149.72 711.74,148.82 712.24,147.86 Z M720.62,147.86 L722.2,147.86 C722.62,148.66 723,149.48 723.32,150.36 L725.06,149.7 C724.82,149.14 724.52,148.52 724.14,147.86 L726.96,147.86 L726.96,146.18 L721.34,146.18 C721.48,145.78 721.62,145.38 721.74,144.94 L719.94,144.54 C719.54,146.02 718.86,147.38 717.94,148.66 L719.54,149.68 C719.94,149.12 720.3,148.5 720.62,147.86 Z M730.7,145.24 L730.7,149.3 L736.44,149.3 L736.44,150.28 L731.32,150.28 L731.32,151.76 L736.44,151.76 L736.44,152.86 L729.14,152.86 L729.14,154.48 L737.44,154.48 C735.04,155.4 732.24,156.04 729.06,156.36 L730.08,157.92 C731,157.74 731.92,157.54 732.8,157.34 L732.8,163.2 L734.66,163.2 L734.66,162.38 L742.7,162.38 L742.7,163.2 L744.56,163.2 L744.56,155.6 L738.24,155.6 C739.1,155.24 739.92,154.88 740.68,154.48 L746.96,154.48 L746.96,152.86 L743.36,152.86 C744.36,152.14 745.28,151.36 746.1,150.5 L744.54,149.68 C743.9,150.38 743.18,151.06 742.38,151.7 L742.38,150.28 L738.28,150.28 L738.28,149.3 L745.22,149.3 L745.22,145.24 L730.7,145.24 Z M740.72,152.86 L738.28,152.86 L738.28,151.76 L742.3,151.76 C741.8,152.14 741.28,152.5 740.72,152.86 Z M743.42,147.92 L740.94,147.92 L740.94,146.64 L743.42,146.64 L743.42,147.92 Z M739.2,147.92 L736.76,147.92 L736.76,146.64 L739.2,146.64 L739.2,147.92 Z M735.02,147.92 L732.5,147.92 L732.5,146.64 L735.02,146.64 L735.02,147.92 Z M734.66,159.68 L742.7,159.68 L742.7,160.84 L734.66,160.84 L734.66,159.68 Z M742.7,158.24 L734.66,158.24 L734.66,157.04 L742.7,157.04 L742.7,158.24 Z" id="对方签署" fill="#C9B387" fill-rule="nonzero"></path>
                <path d="M845.56,146.42 L845.56,148.28 L850.06,148.28 C848.8,150.92 847.02,153.24 844.74,155.26 L845.92,156.78 C846.48,156.28 847.02,155.76 847.54,155.2 L847.54,163.08 L849.4,163.08 L849.4,152.98 C850.48,151.54 851.38,149.96 852.12,148.28 L862.84,148.28 L862.84,146.42 L852.86,146.42 C853.04,145.86 853.22,145.28 853.38,144.7 L851.46,144.48 C851.28,145.12 851.08,145.76 850.84,146.42 L845.56,146.42 Z M850.74,155.82 L850.74,157.66 L856.38,157.66 L856.38,160.32 C856.38,160.94 856.06,161.26 855.46,161.26 C854.66,161.26 853.92,161.24 853.24,161.2 L853.74,163 L856.22,163 C857.58,163 858.26,162.3 858.26,160.92 L858.26,157.66 L863.1,157.66 L863.1,155.82 L858.26,155.82 L858.26,154.96 C859.58,154.06 860.76,153.1 861.82,152.1 L861.82,150.36 L852.26,150.36 L852.26,152.1 L859.44,152.1 C858.46,152.9 857.44,153.6 856.38,154.2 L856.38,155.82 L850.74,155.82 Z M866.46,152.6 L866.46,163.1 L868.3,163.1 L868.3,149.22 C868.82,148 869.26,146.72 869.62,145.4 L867.9,144.6 C867.2,147.52 866.1,150.08 864.6,152.28 L865.24,154.32 C865.66,153.76 866.06,153.2 866.46,152.6 Z M871,145.28 L869.7,146.54 C870.9,147.66 871.82,148.72 872.48,149.7 L873.9,148.28 C873.1,147.28 872.14,146.28 871,145.28 Z M868.88,150.7 L868.88,152.46 L870.92,152.46 L870.92,159.92 C870.92,160.24 870.76,160.54 870.48,160.78 L871.22,162.52 C872.4,161.48 873.52,160.3 874.56,158.98 L874.1,157.12 L873.27488,158.08048 C873.0992,158.2824 872.928,158.476 872.76,158.66 L872.76,150.7 L868.88,150.7 Z M874.68,146.82 L874.68,148.44 L876.92,148.44 L876.92,150.64 L874.38,150.64 L874.38,152.36 L877.52,152.36 C876.3,153.56 874.92,154.52 873.36,155.24 L874.32,156.72 C874.66,156.56 875.02,156.38 875.38,156.18 L875.38,163.02 L877.16,163.02 L877.16,162.26 L880.4,162.26 L880.4,163.02 L882.18,163.02 L882.18,153.9 L878.48,153.9 C878.96,153.42 879.44,152.92 879.9,152.36 L883.04,152.36 L883.04,150.64 L881.14,150.64 C881.94,149.4 882.68,147.98 883.32,146.42 L881.76,145.6 C881.46,146.36 881.12,147.08 880.76,147.8 L880.76,146.82 L878.66,146.82 L878.66,144.64 L876.92,144.64 L876.92,146.82 L874.68,146.82 Z M879,150.64 L878.66,150.64 L878.66,148.44 L880.44,148.44 C880,149.22 879.52,149.96 879,150.64 Z M877.16,158.84 L880.4,158.84 L880.4,160.62 L877.16,160.62 L877.16,158.84 Z M880.4,157.28 L877.16,157.28 L877.16,155.56 L880.4,155.56 L880.4,157.28 Z M887.48,158.04 L886.34,159.08 C887.14,159.72 887.9,160.42 888.62,161.18 C889.26,161.86 889.86,162.56 890.38,163.32 L891.68,162.22 C891.12,161.46 890.52,160.76 889.88,160.1 C889.12,159.3 888.32,158.62 887.48,158.04 Z M907.92,152.02 L907.92,159.58 L920.16,159.58 L920.16,152.02 L907.92,152.02 Z M918.32,157.9 L909.76,157.9 L909.76,156.64 L918.32,156.64 L918.32,157.9 Z M909.76,155.04 L909.76,153.7 L918.32,153.7 L918.32,155.04 L909.76,155.04 Z M905.76,146.24 L905.76,148 L911.46,148 C909.94,149.16 907.72,150.14 904.78,150.94 L905.8,152.62 C909.12,151.42 911.56,149.88 913.12,148.04 L913.12,151.42 L914.96,151.42 L914.96,148.02 C916.46,149.9 918.92,151.44 922.36,152.62 L923.18,150.9 C920.32,150.18 918.14,149.2 916.66,148 L922.32,148 L922.32,146.24 L914.96,146.24 L914.96,144.56 L913.12,144.56 L913.12,146.24 L905.76,146.24 Z M905.36,160.78 L905.36,162.52 L922.66,162.52 L922.66,160.78 L905.36,160.78 Z M926.36,148.12 L926.36,149.74 L931.78,149.74 C931.58,150.06 931.34,150.4 931.1,150.74 L925.28,150.74 L925.28,152.42 L929.74,152.42 C928.38,153.9 926.72,155.32 924.76,156.64 L925.78,158.26 C926.82,157.54 927.8,156.8 928.72,156 L928.72,163.08 L930.52,163.08 L930.52,162.32 L939.18,162.32 L939.18,163.08 L940.98,163.08 L940.98,153.42 L931.28,153.42 L931.805926,152.759259 C931.895556,152.646667 931.986667,152.533333 932.08,152.42 L942.88,152.42 L942.88,150.74 L933.2,150.74 C933.4,150.42 933.58,150.08 933.78,149.74 L941.72,149.74 L941.72,148.12 L934.54,148.12 C934.68,147.76 934.82,147.38 934.96,146.98 C937.48,146.78 939.7,146.48 941.6,146.08 L940.72,144.58 C936.88,145.32 932.12,145.7 926.48,145.7 L927.02,147.26 C929.18,147.26 931.22,147.2 933.1,147.1 C932.96,147.44 932.82,147.78 932.66,148.12 L926.36,148.12 Z M930.52,157.38 L939.18,157.38 L939.18,158.32 L930.52,158.32 L930.52,157.38 Z M939.18,155.94 L930.52,155.94 L930.52,154.96 L939.18,154.96 L939.18,155.94 Z M930.52,159.76 L939.18,159.76 L939.18,160.78 L930.52,160.78 L930.52,159.76 Z M947.48,158.04 L946.34,159.08 C947.14,159.72 947.9,160.42 948.62,161.18 C949.26,161.86 949.86,162.56 950.38,163.32 L951.68,162.22 C951.12,161.46 950.52,160.76 949.88,160.1 C949.12,159.3 948.32,158.62 947.48,158.04 Z M965.04,145.52 L965.04,147.38 L972.52,147.38 L972.52,163.06 L974.42,163.06 L974.42,152.02 C976.1,152.88 978.2,154.14 980.72,155.78 L981.86,154.06 C979.34,152.54 976.86,151.18 974.42,150 L974.42,147.38 L982.94,147.38 L982.94,145.52 L965.04,145.52 Z M986.18,146.06 L986.18,147.78 L989.92,147.78 L989.92,149.22 L985.14,149.22 L985.14,150.96 L996.24,150.96 C996.36,152.68 996.58,154.18 996.86,155.42 C997.06,156.42 997.32,157.34 997.6,158.18 C996.62,159.66 995.44,160.78 994.04,161.54 L995.06,163.06 C996.3,162.38 997.42,161.44 998.42,160.2 C998.56,160.48 998.72,160.76 998.9,161.02 C999.74,162.22 1000.5,162.82 1001.22,162.82 C1002.12,162.82 1002.8,161.48 1003.26,158.82 L1001.64,157.96 L1001.52532,158.884961 C1001.34408,160.211229 1001.16522,160.88 1001,160.88 C1000.75733,160.88 1000.42756,160.461867 999.994406,159.658121 L999.9,159.48 C999.76,159.22 999.62,158.92 999.5,158.6 C1000.48,156.92 1001.28,154.86 1001.9,152.42 L1000.2,151.66 C999.82,153.28 999.34,154.74 998.76,156.06 C998.68,155.72 998.62,155.36 998.54,155 C998.34,153.96 998.18,152.62 998.06,150.96 L1002.84,150.96 L1002.84,149.22 L997.96,149.22 C997.88,147.82 997.84,146.26 997.84,144.52 L996,144.52 C996,146.2 996.04,147.78 996.12,149.22 L991.76,149.22 L991.76,147.78 L995.22,147.78 L995.22,146.06 L991.76,146.06 L991.76,144.54 L989.92,144.54 L989.92,146.06 L986.18,146.06 Z M999.88,144.72 L998.44,145.64 C999.44,146.76 1000.22,147.76 1000.78,148.66 L1002.2,147.66 C1001.66,146.82 1000.88,145.84 999.88,144.72 Z M995.22,158.74 L995.22,160.38 L993.017812,160.65 C992.7675,160.68 992.515,160.71 992.26,160.74 L992.26,163 L990.4,163 L990.4,160.94 L987.8512,161.156 C987.2704,161.204 986.68,161.252 986.08,161.3 L985.86,159.54 C987.46,159.46 988.96,159.36 990.4,159.24 L990.4,157.78 L986.7,157.78 L986.34,156.26 C986.82,155.68 987.26,154.98 987.68,154.14 L985.74,154.14 L985.74,152.46 L988.42,152.46 C988.58,152.02 988.72,151.58 988.88,151.12 L990.68,151.46 C990.56,151.82 990.44,152.14 990.32,152.46 L995.32,152.46 L995.32,154.14 L989.62,154.14 C989.26,154.9 988.86,155.58 988.46,156.2 L990.4,156.2 L990.4,154.88 L992.26,154.88 L992.26,156.2 L995.12,156.2 L995.12,157.78 L992.26,157.78 L992.26,159.06 L993.48048,158.93872 C994.0776,158.8768 994.656,158.812 995.22,158.74 Z" id="存储、查看、下载" fill="#C9B387" fill-rule="nonzero"></path>
                <path d="M1101.56,146.42 L1101.56,148.28 L1106.06,148.28 C1104.8,150.92 1103.02,153.24 1100.74,155.26 L1101.92,156.78 C1102.48,156.28 1103.02,155.76 1103.54,155.2 L1103.54,163.08 L1105.4,163.08 L1105.4,152.98 C1106.48,151.54 1107.38,149.96 1108.12,148.28 L1118.84,148.28 L1118.84,146.42 L1108.86,146.42 C1109.04,145.86 1109.22,145.28 1109.38,144.7 L1107.46,144.48 C1107.28,145.12 1107.08,145.76 1106.84,146.42 L1101.56,146.42 Z M1106.74,155.82 L1106.74,157.66 L1112.38,157.66 L1112.38,160.32 C1112.38,160.94 1112.06,161.26 1111.46,161.26 C1110.66,161.26 1109.92,161.24 1109.24,161.2 L1109.74,163 L1112.22,163 C1113.58,163 1114.26,162.3 1114.26,160.92 L1114.26,157.66 L1119.1,157.66 L1119.1,155.82 L1114.26,155.82 L1114.26,154.96 C1115.58,154.06 1116.76,153.1 1117.82,152.1 L1117.82,150.36 L1108.26,150.36 L1108.26,152.1 L1115.44,152.1 C1114.46,152.9 1113.44,153.6 1112.38,154.2 L1112.38,155.82 L1106.74,155.82 Z M1133.06,147.24 L1133.06,160.52 L1130.72,160.52 L1130.72,150.26 L1128.86,150.26 L1128.86,160.52 L1126.98,160.52 L1126.98,162.38 L1139.34,162.38 L1139.34,160.52 L1135,160.52 L1135,154.16 L1138.66,154.16 L1138.66,152.38 L1135,152.38 L1135,147.24 L1138.94,147.24 L1138.94,145.38 L1127.6,145.38 L1127.6,147.24 L1133.06,147.24 Z M1123.54,144.76 L1122.22,146.02 C1123.58,147.08 1124.66,148.08 1125.44,149.04 L1126.74,147.72 C1125.86,146.74 1124.78,145.76 1123.54,144.76 Z M1120.8,150.56 L1120.8,152.38 L1123.56,152.38 L1123.56,159.54 C1123.56,159.94 1123.38,160.28 1123.06,160.56 L1123.78,162.28 C1125.14,161.36 1126.42,160.32 1127.62,159.16 L1127.12,157.14 L1126.3952,157.83824 C1126.0424,158.1752 1125.704,158.492 1125.38,158.78 L1125.38,150.56 L1120.8,150.56 Z M1147.8,152.42 C1147.1,152.78 1146.38,153.12 1145.66,153.44 L1145.66,149.94 L1147.74,149.94 L1147.74,148.12 L1145.66,148.12 L1145.66,144.66 L1143.8,144.66 L1143.8,148.12 L1141.06,148.12 L1141.06,149.94 L1143.8,149.94 L1143.8,154.16 C1142.78,154.52 1141.74,154.8 1140.68,155.04 L1141.16,156.92 C1142.04,156.64 1142.92,156.34 1143.8,156.02 L1143.8,160.54 C1143.8,161.04 1143.54,161.3 1143.06,161.3 C1142.54,161.3 1142,161.26 1141.42,161.18 L1141.86,163 L1143.74,163 C1145.02,163 1145.66,162.32 1145.66,161 L1145.66,155.28 C1146.38,154.98 1147.08,154.66 1147.8,154.3 L1147.8,152.42 Z M1150.42,154.18 L1151.3,154.18 C1151.62,156.02 1152.4,157.72 1153.68,159.3 C1152.88,160.18 1151.9,160.9 1150.74,161.46 L1151.66,163.12 C1152.94,162.5 1154.06,161.7 1154.98,160.72 C1155.84,161.56 1156.86,162.34 1158.06,163.1 L1159.34,161.62 C1158.06,160.94 1156.98,160.18 1156.06,159.34 C1157.02,157.9 1157.66,156.14 1157.98,154.08 L1157.98,152.44 L1150.42,152.44 L1150.42,147.02 L1156.02,147.02 L1155.99863,147.482249 C1155.95396,148.280237 1155.87846,148.806154 1155.76,149.06 C1155.64,149.26 1155.46,149.4 1155.26,149.46 L1155.02536,149.489388 C1154.80612,149.509796 1154.52857,149.52 1154.2,149.52 L1153.5525,149.51 C1153.36,149.505 1153.19,149.5 1153.04,149.5 L1153.56,151.14 L1155.06,151.14 C1156.4,151.14 1157.2,150.76 1157.46,150 C1157.7,149.22 1157.84,147.66 1157.84,145.3 L1148.62,145.3 L1148.62,163.06 L1150.42,163.06 L1150.42,154.18 Z M1153,154.18 L1156.2,154.18 C1155.88,155.58 1155.4,156.84 1154.74,157.92 C1153.84,156.78 1153.26,155.54 1153,154.18 Z M1176.76,155.46 L1163.36,155.46 L1163.36,163.04 L1165.28,163.04 L1165.28,162.08 L1174.84,162.08 L1174.84,163.04 L1176.76,163.04 L1176.76,155.46 Z M1165.28,160.3 L1165.28,157.26 L1174.84,157.26 L1174.84,160.3 L1165.28,160.3 Z M1164.82,149.08 C1164.14,150 1163.36,150.82 1162.46,151.56 L1161.32,150.06 C1163.08,148.64 1164.28,146.9 1164.92,144.82 L1166.8,145.06 C1166.56,145.84 1166.28,146.58 1165.94,147.26 L1169.3,147.26 L1169.3,144.58 L1171.2,144.58 L1171.2,147.26 L1177.58,147.26 L1177.58,149.08 L1171.2,149.08 L1171.2,151.84 L1179.1,151.84 L1179.1,153.7 L1160.9,153.7 L1160.9,151.84 L1169.3,151.84 L1169.3,149.08 L1164.82,149.08 Z" id="存证报告" fill="#C9B387" fill-rule="nonzero"></path>
                <path id="Line-5" d="M187.564212,55.7548694 C187.699594,55.5141904 188.004452,55.4288303 188.245131,55.5642122 L188.245131,55.5642122 L196.245131,60.0642122 C196.584956,60.2553643 196.584956,60.7446357 196.245131,60.9357878 L196.245131,60.9357878 L188.245131,65.4357878 C188.004452,65.5711697 187.699594,65.4858096 187.564212,65.2451306 C187.42883,65.0044517 187.51419,64.6995941 187.754869,64.5642122 L187.754869,64.5642122 L194.091,61 L190.5,61 C190.25454,61 190.050392,60.8231248 190.008056,60.5898756 L190,60.5 C190,60.2238576 190.223858,60 190.5,60 L190.5,60 L194.091,60 L187.754869,56.4357878 C187.540933,56.3154483 187.449717,56.0612021 187.527171,55.8371522 Z M138.5,56 C140.816379,56 142.723981,57.7501788 142.972568,60.000297 L148.5,60 C148.776142,60 149,60.2238576 149,60.5 C149,60.7761424 148.776142,61 148.5,61 L148.5,61 L142.972457,61.0007074 C142.723414,63.2503421 140.816034,65 138.5,65 C136.014719,65 134,62.9852814 134,60.5 C134,58.0147186 136.014719,56 138.5,56 Z M138.5,57 C136.567003,57 135,58.5670034 135,60.5 C135,62.4329966 136.567003,64 138.5,64 C140.432997,64 142,62.4329966 142,60.5 C142,58.5670034 140.432997,57 138.5,57 Z M160.5,60 C160.776142,60 161,60.2238576 161,60.5 C161,60.7761424 160.776142,61 160.5,61 L160.5,61 L154.5,61 C154.223858,61 154,60.7761424 154,60.5 C154,60.2238576 154.223858,60 154.5,60 L154.5,60 Z M172.5,60 C172.776142,60 173,60.2238576 173,60.5 C173,60.7761424 172.776142,61 172.5,61 L172.5,61 L166.5,61 C166.223858,61 166,60.7761424 166,60.5 C166,60.2238576 166.223858,60 166.5,60 L166.5,60 Z M184.5,60 C184.776142,60 185,60.2238576 185,60.5 C185,60.7761424 184.776142,61 184.5,61 L184.5,61 L178.5,61 C178.223858,61 178,60.7761424 178,60.5 C178,60.2238576 178.223858,60 178.5,60 L178.5,60 Z" fill="#C9B387" fill-rule="nonzero"></path>
                <path id="Line-5备份" d="M409.064212,55.7548694 C409.199594,55.5141904 409.504452,55.4288303 409.745131,55.5642122 L409.745131,55.5642122 L417.745131,60.0642122 C418.084956,60.2553643 418.084956,60.7446357 417.745131,60.9357878 L417.745131,60.9357878 L409.745131,65.4357878 C409.504452,65.5711697 409.199594,65.4858096 409.064212,65.2451306 C408.92883,65.0044517 409.01419,64.6995941 409.254869,64.5642122 L409.254869,64.5642122 L415.591,61 L412,61 C411.75454,61 411.550392,60.8231248 411.508056,60.5898756 L411.5,60.5 C411.5,60.2238576 411.723858,60 412,60 L412,60 L415.591,60 L409.254869,56.4357878 C409.040933,56.3154483 408.949717,56.0612021 409.027171,55.8371522 Z M360,56 C362.316379,56 364.223981,57.7501788 364.472568,60.000297 L370,60 C370.276142,60 370.5,60.2238576 370.5,60.5 C370.5,60.7761424 370.276142,61 370,61 L370,61 L364.472457,61.0007074 C364.223414,63.2503421 362.316034,65 360,65 C357.514719,65 355.5,62.9852814 355.5,60.5 C355.5,58.0147186 357.514719,56 360,56 Z M360,57 C358.067003,57 356.5,58.5670034 356.5,60.5 C356.5,62.4329966 358.067003,64 360,64 C361.932997,64 363.5,62.4329966 363.5,60.5 C363.5,58.5670034 361.932997,57 360,57 Z M382,60 C382.276142,60 382.5,60.2238576 382.5,60.5 C382.5,60.7761424 382.276142,61 382,61 L382,61 L376,61 C375.723858,61 375.5,60.7761424 375.5,60.5 C375.5,60.2238576 375.723858,60 376,60 L376,60 Z M394,60 C394.276142,60 394.5,60.2238576 394.5,60.5 C394.5,60.7761424 394.276142,61 394,61 L394,61 L388,61 C387.723858,61 387.5,60.7761424 387.5,60.5 C387.5,60.2238576 387.723858,60 388,60 L388,60 Z M406,60 C406.276142,60 406.5,60.2238576 406.5,60.5 C406.5,60.7761424 406.276142,61 406,61 L406,61 L400,61 C399.723858,61 399.5,60.7761424 399.5,60.5 C399.5,60.2238576 399.723858,60 400,60 L400,60 Z" fill="#C9B387" fill-rule="nonzero"></path>
                <path id="Line-5备份-2" d="M620.064212,55.7548694 C620.199594,55.5141904 620.504452,55.4288303 620.745131,55.5642122 L620.745131,55.5642122 L628.745131,60.0642122 C629.084956,60.2553643 629.084956,60.7446357 628.745131,60.9357878 L628.745131,60.9357878 L620.745131,65.4357878 C620.504452,65.5711697 620.199594,65.4858096 620.064212,65.2451306 C619.92883,65.0044517 620.01419,64.6995941 620.254869,64.5642122 L620.254869,64.5642122 L626.591,61 L623,61 C622.75454,61 622.550392,60.8231248 622.508056,60.5898756 L622.5,60.5 C622.5,60.2238576 622.723858,60 623,60 L623,60 L626.591,60 L620.254869,56.4357878 C620.040933,56.3154483 619.949717,56.0612021 620.027171,55.8371522 Z M571,56 C573.316379,56 575.223981,57.7501788 575.472568,60.000297 L581,60 C581.276142,60 581.5,60.2238576 581.5,60.5 C581.5,60.7761424 581.276142,61 581,61 L581,61 L575.472457,61.0007074 C575.223414,63.2503421 573.316034,65 571,65 C568.514719,65 566.5,62.9852814 566.5,60.5 C566.5,58.0147186 568.514719,56 571,56 Z M571,57 C569.067003,57 567.5,58.5670034 567.5,60.5 C567.5,62.4329966 569.067003,64 571,64 C572.932997,64 574.5,62.4329966 574.5,60.5 C574.5,58.5670034 572.932997,57 571,57 Z M593,60 C593.276142,60 593.5,60.2238576 593.5,60.5 C593.5,60.7761424 593.276142,61 593,61 L593,61 L587,61 C586.723858,61 586.5,60.7761424 586.5,60.5 C586.5,60.2238576 586.723858,60 587,60 L587,60 Z M605,60 C605.276142,60 605.5,60.2238576 605.5,60.5 C605.5,60.7761424 605.276142,61 605,61 L605,61 L599,61 C598.723858,61 598.5,60.7761424 598.5,60.5 C598.5,60.2238576 598.723858,60 599,60 L599,60 Z M617,60 C617.276142,60 617.5,60.2238576 617.5,60.5 C617.5,60.7761424 617.276142,61 617,61 L617,61 L611,61 C610.723858,61 610.5,60.7761424 610.5,60.5 C610.5,60.2238576 610.723858,60 611,60 L611,60 Z" fill="#C9B387" fill-rule="nonzero"></path>
                <path id="Line-5备份-3" d="M836.064212,55.7548694 C836.199594,55.5141904 836.504452,55.4288303 836.745131,55.5642122 L836.745131,55.5642122 L844.745131,60.0642122 C845.084956,60.2553643 845.084956,60.7446357 844.745131,60.9357878 L844.745131,60.9357878 L836.745131,65.4357878 C836.504452,65.5711697 836.199594,65.4858096 836.064212,65.2451306 C835.92883,65.0044517 836.01419,64.6995941 836.254869,64.5642122 L836.254869,64.5642122 L842.589,61 L839,61 C838.75454,61 838.550392,60.8231248 838.508056,60.5898756 L838.5,60.5 C838.5,60.2238576 838.723858,60 839,60 L839,60 L842.593,60 L836.254869,56.4357878 C836.040933,56.3154483 835.949717,56.0612021 836.027171,55.8371522 Z M787,56 C789.316379,56 791.223981,57.7501788 791.472568,60.000297 L797,60 C797.276142,60 797.5,60.2238576 797.5,60.5 C797.5,60.7761424 797.276142,61 797,61 L797,61 L791.472457,61.0007074 C791.223414,63.2503421 789.316034,65 787,65 C784.514719,65 782.5,62.9852814 782.5,60.5 C782.5,58.0147186 784.514719,56 787,56 Z M787,57 C785.067003,57 783.5,58.5670034 783.5,60.5 C783.5,62.4329966 785.067003,64 787,64 C788.932997,64 790.5,62.4329966 790.5,60.5 C790.5,58.5670034 788.932997,57 787,57 Z M809,60 C809.276142,60 809.5,60.2238576 809.5,60.5 C809.5,60.7761424 809.276142,61 809,61 L809,61 L803,61 C802.723858,61 802.5,60.7761424 802.5,60.5 C802.5,60.2238576 802.723858,60 803,60 L803,60 Z M821,60 C821.276142,60 821.5,60.2238576 821.5,60.5 C821.5,60.7761424 821.276142,61 821,61 L821,61 L815,61 C814.723858,61 814.5,60.7761424 814.5,60.5 C814.5,60.2238576 814.723858,60 815,60 L815,60 Z M833,60 C833.276142,60 833.5,60.2238576 833.5,60.5 C833.5,60.7761424 833.276142,61 833,61 L833,61 L827,61 C826.723858,61 826.5,60.7761424 826.5,60.5 C826.5,60.2238576 826.723858,60 827,60 L827,60 Z" fill="#C9B387" fill-rule="nonzero"></path>
                <path id="Line-5备份-4" d="M1053.06421,55.7548694 C1053.19959,55.5141904 1053.50445,55.4288303 1053.74513,55.5642122 L1053.74513,55.5642122 L1061.74513,60.0642122 C1062.08496,60.2553643 1062.08496,60.7446357 1061.74513,60.9357878 L1061.74513,60.9357878 L1053.74513,65.4357878 C1053.50445,65.5711697 1053.19959,65.4858096 1053.06421,65.2451306 C1052.92883,65.0044517 1053.01419,64.6995941 1053.25487,64.5642122 L1053.25487,64.5642122 L1059.591,61 L1056,61 C1055.75454,61 1055.55039,60.8231248 1055.50806,60.5898756 L1055.5,60.5 C1055.5,60.2238576 1055.72386,60 1056,60 L1056,60 L1059.593,60 L1053.25487,56.4357878 C1053.04093,56.3154483 1052.94972,56.0612021 1053.02717,55.8371522 Z M1004,56 C1006.31638,56 1008.22398,57.7501788 1008.47257,60.000297 L1014,60 C1014.27614,60 1014.5,60.2238576 1014.5,60.5 C1014.5,60.7761424 1014.27614,61 1014,61 L1014,61 L1008.47246,61.0007074 C1008.22341,63.2503421 1006.31603,65 1004,65 C1001.51472,65 999.5,62.9852814 999.5,60.5 C999.5,58.0147186 1001.51472,56 1004,56 Z M1004,57 C1002.067,57 1000.5,58.5670034 1000.5,60.5 C1000.5,62.4329966 1002.067,64 1004,64 C1005.933,64 1007.5,62.4329966 1007.5,60.5 C1007.5,58.5670034 1005.933,57 1004,57 Z M1026,60 C1026.27614,60 1026.5,60.2238576 1026.5,60.5 C1026.5,60.7761424 1026.27614,61 1026,61 L1026,61 L1020,61 C1019.72386,61 1019.5,60.7761424 1019.5,60.5 C1019.5,60.2238576 1019.72386,60 1020,60 L1020,60 Z M1038,60 C1038.27614,60 1038.5,60.2238576 1038.5,60.5 C1038.5,60.7761424 1038.27614,61 1038,61 L1038,61 L1032,61 C1031.72386,61 1031.5,60.7761424 1031.5,60.5 C1031.5,60.2238576 1031.72386,60 1032,60 L1032,60 Z M1050,60 C1050.27614,60 1050.5,60.2238576 1050.5,60.5 C1050.5,60.7761424 1050.27614,61 1050,61 L1050,61 L1044,61 C1043.72386,61 1043.5,60.7761424 1043.5,60.5 C1043.5,60.2238576 1043.72386,60 1044,60 L1044,60 Z" fill="#C9B387" fill-rule="nonzero"></path>
            </g>
        </g>
    </g>
</svg>