<?xml version="1.0" encoding="UTF-8"?>
<svg width="120px" height="120px" viewBox="0 0 120 120" version="1.1" xmlns="http://www.w3.org/2000/svg" xmlns:xlink="http://www.w3.org/1999/xlink">
    <!-- Generator: Sketch 59 (86127) - https://sketch.com -->
    <title>矩形</title>
    <desc>Created with Sketch.</desc>
    <g id="落地页" stroke="none" stroke-width="1" fill="none" fill-rule="evenodd">
        <g id="电子合同移动端" transform="translate(-30.000000, -915.000000)">
            <g id="编组-13" transform="translate(30.000000, 915.000000)">
                <rect id="矩形" fill="#C9B387" x="0" y="0" width="120" height="120" rx="60"></rect>
                <g id="Group-5" transform="translate(28.000000, 28.000000)" fill="#FFFFFF">
                    <path d="M51.84,39.68 C58.55498,39.68 64,45.12502 64,51.84 C64,58.554505 58.55498,64 51.84,64 C45.125495,64 39.68,58.554505 39.68,51.84 C39.68,45.12502 45.125495,39.68 51.84,39.68 Z M58.6176869,47.0067201 C58.2271626,46.6161958 57.5939976,46.6161958 57.2034733,47.0067201 L57.2034733,47.0067201 L50.6690995,53.5396796 L47.7565267,50.6271068 C47.3660024,50.2365825 46.7328374,50.2365825 46.3423131,50.6271068 L46.3423131,50.6271068 L45.9463333,51.0230866 C45.5558091,51.4136109 45.5558091,52.0467758 45.9463333,52.4373001 L45.9463333,52.4373001 L49.9626999,56.4536667 L50.0499207,56.531373 C50.4424383,56.8421985 51.0142837,56.8162964 51.3769134,56.4536667 L51.3769134,56.4536667 L59.0136667,48.8169134 C59.4041909,48.4263891 59.4041909,47.7932242 59.0136667,47.4026999 L59.0136667,47.4026999 Z" id="形状结合"></path>
                    <path d="M33.5533595,27.2537172 C33.1519598,27.7123121 33.1983878,28.4091627 33.6546569,28.8105624 C36.2831361,31.1150793 37.7915722,34.4401506 37.7915722,37.9331035 C37.7915722,38.5417495 38.2854833,39.0356607 38.8942155,39.0356607 C39.5028615,39.0356607 39.9968588,38.5417495 39.9968588,37.9331035 C39.9968588,33.8052327 38.2148508,29.8778895 35.1102047,27.1524198 C34.6492841,26.7533458 33.9547592,26.797448 33.5533595,27.2537172 Z" id="Fill-5"></path>
                    <path d="M11.52,37.9296379 C11.52,38.540197 12.0139112,39.0356607 12.6226433,39.0356607 C13.2309448,39.0356607 13.724856,38.540197 13.724856,37.9296379 C13.724856,32.6826829 17.1562207,28.0021325 22.10007,26.3830188 C23.2555155,26.8717426 24.5233701,27.1437551 25.8530713,27.1437551 C31.205039,27.1437551 35.5556608,22.7771252 35.5556608,17.4107543 C35.5556608,12.0442969 31.2027133,7.68 25.8530713,7.68 C20.5035155,7.68 16.150568,12.0467164 16.150568,17.4107543 C16.150568,20.4522306 17.5775182,23.1399525 19.7625626,24.9272162 C14.8211252,27.2653312 11.52,32.3310022 11.52,37.9296379 Z M18.9634925,17.2790288 C18.9634925,13.3980376 22.121095,10.24 26.0034925,10.24 C29.88589,10.24 33.0434925,13.3980376 33.0434925,17.2790288 C33.0434925,21.1619615 29.88589,24.32 26.0034925,24.32 C22.121095,24.3219406 18.9634925,21.1619615 18.9634925,17.2790288 Z" id="Fill-6"></path>
                    <path d="M36.76,54.4 C37.3122847,54.4 37.76,54.8477153 37.76,55.4 L37.76,55.96 C37.76,56.5122847 37.3122847,56.96 36.76,56.96 L17,56.96 C16.4477153,56.96 16,56.5122847 16,55.96 L16,55.4 C16,54.8477153 16.4477153,54.4 17,54.4 L36.76,54.4 Z M36.76,48 C37.3122847,48 37.76,48.4477153 37.76,49 L37.76,49.56 C37.76,50.1122847 37.3122847,50.56 36.76,50.56 L17,50.56 C16.4477153,50.56 16,50.1122847 16,49.56 L16,49 C16,48.4477153 16.4477153,48 17,48 L36.76,48 Z M29.72,40.96 C30.2722847,40.96 30.72,41.4077153 30.72,41.96 L30.72,42.52 C30.72,43.0722847 30.2722847,43.52 29.72,43.52 L24.04,43.52 C23.4877153,43.52 23.04,43.0722847 23.04,42.52 L23.04,41.96 C23.04,41.4077153 23.4877153,40.96 24.04,40.96 L29.72,40.96 Z" id="Combined-Shape"></path>
                    <path d="M48.48,0 C50.689139,3.51840692e-15 52.48,1.790861 52.48,4 L52.48,37.12 L52.48,37.12 C51.6078932,37.12 50.752762,37.1926815 49.9203334,37.3323177 L49.92,5.56 C49.92,3.90314575 48.5768542,2.56 46.92,2.56 L46.92,2.56 L5.56,2.56 C3.90314575,2.56 2.56,3.90314575 2.56,5.56 L2.56,5.56 L2.56,58.44 C2.56,60.0968542 3.90314575,61.44 5.56,61.44 L5.56,61.44 L40.0032773,61.4408285 C40.6783364,62.3790983 41.4566194,63.2381287 42.3214997,64.0012932 L4,64 C1.790861,64 2.705415e-16,62.209139 0,60 L0,4 C-7.1463071e-16,1.790861 1.790861,4.05812251e-16 4,0 L48.48,0 Z" id="Combined-Shape"></path>
                </g>
            </g>
        </g>
    </g>
</svg>