<?xml version="1.0" encoding="UTF-8"?>
<svg width="120px" height="120px" viewBox="0 0 120 120" version="1.1" xmlns="http://www.w3.org/2000/svg" xmlns:xlink="http://www.w3.org/1999/xlink">
    <!-- Generator: Sketch 59 (86127) - https://sketch.com -->
    <title>矩形备份 2</title>
    <desc>Created with Sketch.</desc>
    <g id="落地页" stroke="none" stroke-width="1" fill="none" fill-rule="evenodd">
        <g id="电子合同移动端" transform="translate(-30.000000, -1139.000000)">
            <g id="编组-12" transform="translate(30.000000, 1139.000000)">
                <rect id="矩形备份-2" fill="#C9B387" x="0" y="0" width="120" height="120" rx="60"></rect>
                <g id="编组备份-2" transform="translate(28.000000, 28.000000)" fill="#FFFFFF">
                    <path d="M35.84,31.9998862 C35.84,31.29308 35.247796,30.72 34.517168,30.72 L9.00259668,30.72 C8.27251766,30.72 7.68,31.29308 7.68,31.9998862 C7.68,32.70692 8.27251766,33.28 9.00259668,33.28 L34.517168,33.28 C35.247796,33.28 35.84,32.70692 35.84,31.9998862 L35.84,31.9998862 Z M44.8190828,10.24 L8.9406929,10.24 C8.24478504,10.24 7.68,10.813012 7.68,11.5200379 C7.68,12.2266845 8.24478504,12.8 8.9406929,12.8 L44.8190828,12.8 C45.5152897,12.8 46.08,12.2266845 46.08,11.5200379 C46.08,10.813012 45.5152897,10.24 44.8190828,10.24 L44.8190828,10.24 Z M44.8190828,20.48 L8.9406929,20.48 C8.24478504,20.48 7.68,21.053021 7.68,21.7601518 C7.68,22.4669031 8.24478504,23.04 8.9406929,23.04 L44.8190828,23.04 C45.5152897,23.04 46.08,22.4669031 46.08,21.7601518 C46.08,21.053021 45.5152897,20.48 44.8190828,20.48 L44.8190828,20.48 Z M5.12,61.44 C3.69210937,61.44 2.56,60.2921875 2.56,58.88 L2.56,5.12 C2.56,3.71195312 3.6990625,2.56 5.12,2.56 L48.64,2.56 C50.0723633,2.56 51.2,3.72289062 51.2,5.12 L51.2,25.6 C51.2,26.3718763 51.7015403,26.88 52.48,26.88 C53.2578748,26.88 53.76,26.3718763 53.76,25.6 L53.76,5.12 C53.76,2.3240625 51.5098437,0 48.64,0 L5.12,0 C2.28570312,0 0,2.29001953 0,5.12 L0,58.88 C0,61.770625 2.33523437,64 5.12,64 L29.44,64 C30.2184597,64 30.72,63.4919592 30.72,62.72 C30.72,61.9484551 30.2184597,61.44 29.44,61.44 L5.12,61.44 Z M60.44,61.44 L39.4,61.44 C38.8477153,61.44 38.4,60.9922847 38.4,60.44 L38.4,58.6 C38.4,58.0477153 38.8477153,57.6 39.4,57.6 L46.08,57.6 L46.08,57.6 C47.4934375,57.6 48.64,56.4803906 48.64,55.04 L48.64,49.5224906 C48.64,48.9124311 48.2393499,48.3721496 47.6490958,48.187487 C44.6963904,47.260768 42.8286782,44.588601 42.8286782,41.5387187 C42.8286782,37.6909577 46.0099045,34.56 49.9208442,34.56 C53.8317839,34.56 57.0133478,37.6909577 57.0133478,41.5387187 C57.0133478,44.5882687 55.1436096,47.2601035 52.1909042,48.1878193 C51.6006501,48.3728142 51.2,48.9124311 51.2,49.5224906 L51.2,55.04 C51.2,56.45 52.3485547,57.6 53.76,57.6 L60.44,57.6 C60.9922847,57.6 61.44,58.0477153 61.44,58.6 L61.44,60.44 C61.44,60.9922847 60.9922847,61.44 60.44,61.44 Z M61.44,55.04 L54.76,55.04 C54.2077153,55.04 53.76,54.5922847 53.76,54.04 L53.76,50.4517974 L53.76,50.4517974 C57.2730302,48.9250653 59.6616786,45.5 59.6616786,41.6350157 C59.6616786,36.3223449 55.2916726,32 49.9208273,32 C44.5496511,32 40.1803068,36.3223449 40.1803068,41.6350157 C40.1803068,45.5003312 42.5666389,48.9253926 46.08,50.4517974 L46.08,54.04 C46.08,54.5922847 45.6322847,55.04 45.08,55.04 L38.4,55.04 L38.4,55.04 C36.9855078,55.04 35.84,56.1813281 35.84,57.6 L35.84,61.44 C35.84,62.8670703 36.9908203,64 38.4,64 L61.44,64 C62.8623047,64 64,62.8718359 64,61.44 L64,57.6 C64,56.1714453 62.8537109,55.04 61.44,55.04 Z" id="Fill-1-Copy"></path>
                </g>
            </g>
        </g>
    </g>
</svg>