<?xml version="1.0" encoding="UTF-8"?>
<svg width="120px" height="120px" viewBox="0 0 120 120" version="1.1" xmlns="http://www.w3.org/2000/svg" xmlns:xlink="http://www.w3.org/1999/xlink">
    <!-- Generator: Sketch 59 (86127) - https://sketch.com -->
    <title>矩形备份 4</title>
    <desc>Created with Sketch.</desc>
    <g id="落地页" stroke="none" stroke-width="1" fill="none" fill-rule="evenodd">
        <g id="电子合同移动端" transform="translate(-30.000000, -1587.000000)">
            <g id="编组-15" transform="translate(30.000000, 1587.000000)">
                <rect id="矩形备份-4" fill="#C9B387" x="0" y="0" width="120" height="120" rx="60"></rect>
                <path d="M64,50.1256814 L64,62.9675818 C64,63.5198665 63.5522847,63.9675818 63,63.9675818 L59.48419,63.9675818 C58.6644945,63.9675818 58,64.6320763 58,65.4517718 C58,66.2714673 58.6644945,66.9359619 59.48419,66.9359619 L65,66.9359619 C66.1045695,66.9359619 67,66.0405314 67,64.9359619 L67,48.1573014 C67,47.0527319 66.1045695,46.1573014 65,46.1573014 L44,46.1573014 C42.8954305,46.1573014 42,47.0527319 42,48.1573014 L42,64.9359619 C42,66.0405314 42.8954305,66.9359619 44,66.9359619 L49.51581,66.9359619 C50.3355055,66.9359619 51,66.2714673 51,65.4517718 C51,64.6320763 50.3355055,63.9675818 49.51581,63.9675818 L46,63.9675818 C45.4477153,63.9675818 45,63.5198665 45,62.9675818 L45,50.1256814 C45,49.5733967 45.4477153,49.1256814 46,49.1256814 L63,49.1256814 C63.5522847,49.1256814 64,49.5733967 64,50.1256814 Z M76,55.0624416 L70.48419,55.0624416 C69.6644945,55.0624416 69,55.7269361 69,56.5466316 C69,57.3663271 69.6644945,58.0308216 70.48419,58.0308216 L74,58.0308216 C74.5522847,58.0308216 75,58.4785369 75,59.0308216 L75,71.872722 C75,72.4250068 74.5522847,72.872722 74,72.872722 L57,72.872722 C56.4477153,72.872722 56,72.4250068 56,71.872722 L56,59.0308216 C56,58.4785369 56.4477153,58.0308216 57,58.0308216 L60.51581,58.0308216 C61.3355055,58.0308216 62,57.3663271 62,56.5466316 C62,55.7269361 61.3355055,55.0624416 60.51581,55.0624416 L55,55.0624416 C53.8954305,55.0624416 53,55.9578721 53,57.0624416 L53,73.8411021 C53,74.9456716 53.8954305,75.8411021 55,75.8411021 L76,75.8411021 C77.1045695,75.8411021 78,74.9456716 78,73.8411021 L78,57.0624416 C78,55.9578721 77.1045695,55.0624416 76,55.0624416 Z M58.4347217,92.3100682 L32.4806858,77.3147836 C31.5529358,76.7787639 30.9814901,75.7886369 30.9814901,74.7171719 L30.9814901,66.4477868 C30.9814901,65.6244711 30.3140608,64.9570418 29.490745,64.9570418 C28.6674293,64.9570418 28,65.6244711 28,66.4477868 L28,75.8578318 C28,77.2863787 28.7618504,78.606492 29.9987505,79.3212117 L57.9346341,95.4634415 C59.1728143,96.1789009 60.6987536,96.1789372 61.9369679,95.4635369 L72.7086743,89.2399924 C73.4219734,88.8278712 73.6663659,87.9156883 73.2546532,87.2021534 C72.8433025,86.4892459 71.9319112,86.2447858 71.2190037,86.6561364 C71.2186973,86.6563132 71.218391,86.6564901 71.2180848,86.6566671 L61.4367013,92.3098538 C60.5080334,92.8465808 59.3634662,92.8466625 58.4347217,92.3100682 Z M32.5076871,42.4148283 L58.5357912,27.6336964 C59.4547883,27.111806 60.5805971,27.1119666 61.4994453,27.6341189 L69.2221287,32.0226759 C69.9338045,32.4270987 70.8383514,32.1849122 71.2527402,31.4789929 C71.6596053,30.7858905 71.4275641,29.8941908 70.7344617,29.4873257 C70.728505,29.483829 70.7225235,29.4803748 70.7165176,29.4769633 L61.9932776,24.5218892 C60.7681682,23.8259885 59.2672894,23.825955 58.0421488,24.5218009 L30.0245133,40.4350416 C28.7731143,41.1458016 28,42.4740216 28,43.9131808 L28,57.5257106 C28,58.3511394 28.6691423,59.0202817 29.4945711,59.0202817 C30.3199999,59.0202817 30.9891422,58.3511394 30.9891422,57.5257106 L30.9891422,45.0235235 C30.9891422,43.9440883 31.5690479,42.9478732 32.5076871,42.4148283 Z M76.7521208,34.5775269 C76.3421056,35.2770607 76.5768068,36.1765278 77.2763405,36.586543 C77.2818338,36.5897628 77.2873479,36.5929467 77.2928826,36.5960947 L87.474407,42.3871129 C88.4120645,42.920431 88.9912054,43.9160986 88.9912054,44.9948155 L88.9912054,74.7435803 C88.9912054,75.8222397 88.4121257,76.8178635 87.4745466,77.3512035 L78.5403988,82.4333758 C77.8354319,82.8343948 77.5890335,83.7309734 77.9900525,84.4359402 C77.9931645,84.4414109 77.9963117,84.4468616 77.9994937,84.4522919 C78.4164253,85.1637883 79.3277938,85.4080437 80.0446612,85.0004161 L89.9771985,79.352542 C91.2276355,78.6415141 92,77.3138308 92,75.8753756 L92,43.8695664 C92,42.4316018 91.2281577,41.1042925 89.978391,40.3930784 L78.7969573,34.0299764 C78.0803524,33.6221728 77.1690519,33.8661937 76.7521208,34.5775269 Z" id="Fill-1" fill="#FFFFFF"></path>
            </g>
        </g>
    </g>
</svg>