<?xml version="1.0" encoding="UTF-8"?>
<svg width="120px" height="120px" viewBox="0 0 120 120" version="1.1" xmlns="http://www.w3.org/2000/svg" xmlns:xlink="http://www.w3.org/1999/xlink">
    <!-- Generator: Sketch 59 (86127) - https://sketch.com -->
    <title>矩形备份 3</title>
    <desc>Created with Sketch.</desc>
    <g id="落地页" stroke="none" stroke-width="1" fill="none" fill-rule="evenodd">
        <g id="电子合同移动端" transform="translate(-30.000000, -1363.000000)">
            <g id="编组-8" transform="translate(30.000000, 1363.000000)">
                <rect id="矩形备份-3" fill="#C9B387" x="0" y="0" width="120" height="120" rx="60"></rect>
                <g id="Group-7" transform="translate(28.000000, 28.000000)" fill="#FFFFFF">
                    <polygon id="Fill-1" points="32.5549133 24.9341965 27.2351445 35.795422 26.0441156 24.9341965 22.4923931 24.9341965 17.1655029 36.1801618 15.9815954 24.9341965 11.8381503 24.9341965 14.1762775 41.5075145 18.348948 41.5075145 23.6763006 30.8532717 24.2680231 41.5075145 28.4042543 41.5075145 36.6983584 24.9341965"></polygon>
                    <path d="M23.08634,9.91078121 C22.9803497,10.3853071 22.8036991,10.7341591 22.5563883,10.9505346 C22.3089891,11.1737126 22.0122161,11.278281 21.6731353,11.278281 C21.2066011,11.278281 20.8322785,11.103855 20.5424832,10.755003 C20.252688,10.406151 20.1115441,9.82696952 20.1115441,9.00394047 C20.1115441,8.22957627 20.2599306,7.67115145 20.5497259,7.32945093 C20.8464106,6.98748877 21.2280642,6.81306278 21.7013994,6.81306278 C22.0405686,6.81306278 22.3372532,6.91082855 22.5705203,7.10601124 C22.8106768,7.30154277 22.9662176,7.56658307 23.0438556,7.90148098 L24.3156515,7.59449123 C24.1745076,7.07810308 23.9553726,6.68049903 23.6655773,6.40150465 C23.17811,5.93404299 22.5421679,5.69664921 21.7649053,5.69664921 C20.8675203,5.69664921 20.1539403,5.99674913 19.6026138,6.58988472 C19.0516406,7.18302031 18.78322,8.02000344 18.78322,9.10170624 C18.78322,10.1202668 19.05853,10.9226264 19.6026138,11.5085233 C20.1466976,12.0945074 20.8464106,12.3878047 21.6941567,12.3878047 C22.3797377,12.3878047 22.9448429,12.2133787 23.3899141,11.8714166 C23.8353385,11.5297161 24.1531329,11.0064381 24.3439156,10.2946928 L23.08634,9.91078121 Z" id="Fill-2"></path>
                    <path d="M14.6422653,5.70380068 C14.1264456,5.70380068 13.6672424,5.78761237 13.2645674,5.96203836 C12.9675294,6.08736344 12.6922195,6.28289497 12.4375776,6.54793527 C12.1905318,6.80617295 11.9925065,7.10601124 11.84412,7.43410653 C11.6533374,7.88072428 11.5543247,8.43156157 11.5543247,9.09455477 C11.5543247,10.1271567 11.8372306,10.9365805 12.3955348,11.5225646 C12.9537507,12.1084615 13.7096385,12.401846 14.6563973,12.401846 C15.5962668,12.401846 16.3452653,12.1084615 16.9035695,11.5156748 C17.4617853,10.9226264 17.7443379,10.1063127 17.7443379,9.05975679 C17.7443379,8.00604936 17.4617853,7.18302031 16.8963268,6.58988472 C16.3311332,5.99674913 15.5821347,5.70380068 14.6422653,5.70380068 Z M15.9143262,10.720205 C15.5821347,11.0970524 15.1653277,11.2854325 14.649508,11.2854325 C14.1336883,11.2854325 13.7096385,11.0970524 13.3774471,10.720205 C13.0455206,10.3434449 12.8757594,9.78545613 12.8757594,9.05260532 C12.8757594,8.3062365 13.038278,7.74781168 13.363315,7.378203 C13.6882638,7.00859432 14.1195562,6.82701686 14.649508,6.82701686 C15.1794597,6.82701686 15.6035095,7.00859432 15.9285466,7.378203 C16.2462526,7.74100906 16.4087712,8.29908503 16.4087712,9.03865124 C16.4087712,9.78545613 16.2462526,10.3434449 15.9143262,10.720205 Z" id="Fill-3"></path>
                    <path d="M9.64667501,6.53398119 C9.19436118,6.05265266 8.29008683,5.70380068 7.37856979,5.70380068 L5.11726562,5.70380068 L5.11726562,12.401846 L7.37856979,12.401846 C8.2687121,12.401846 9.2227136,11.9970905 9.58325745,11.6342844 C9.87994211,11.3412488 10.1059665,10.9644886 10.2684851,10.4899627 C10.4026512,10.1063127 10.4665104,9.64574091 10.4665104,9.11566032 C10.4665104,8.50857065 10.3957618,7.99924675 10.2542647,7.58733976 C10.1132092,7.16906623 9.9151839,6.82021425 9.64667501,6.53398119 Z M9.00357855,10.2456791 C8.91869794,10.531825 8.80590654,10.7410489 8.66440942,10.8667229 C8.48775883,11.0271948 7.88714684,11.2854325 7.37856979,11.2854325 L6.24791771,11.2854325 L6.24791771,6.82021425 L6.81302294,6.82021425 C7.27955714,6.82021425 8.00029154,6.66654495 8.63614533,7.27363462 C8.79177449,7.42006524 8.91180857,7.62928922 9.00357855,7.90148098 C9.08845916,8.17367274 9.13094362,8.55732271 9.13094362,9.05260532 C9.13094362,9.55512661 9.08845916,9.95273066 9.00357855,10.2456791 Z" id="Fill-4"></path>
                    <path d="M40.96,10.24 L34.56,10.24 L34.56,5.12 L40.96,10.24 Z M29.44,0 L29.44,13.3846847 C29.44,14.4892542 30.3354305,15.3846847 31.44,15.3846847 L48.64,15.3846847 L48.6399624,29.4508264 C48.4275277,29.4436282 48.2141876,29.44 48,29.44 C47.3517976,29.44 46.7113562,29.4732291 46.0802865,29.5380769 L46.08,17.92 L29.88,17.92 C28.2231458,17.92 26.88,16.5768542 26.88,14.92 L26.88,14.92 L26.88,2.56 L4.56,2.56 C3.4554305,2.56 2.56,3.4554305 2.56,4.56 L2.56,4.56 L2.56,59.44 C2.56,60.5445695 3.4554305,61.44 4.56,61.44 L4.56,61.44 L35.2003267,61.4403587 C36.2256649,62.4171171 37.3626283,63.2777513 38.5901241,64.0011687 L3,64 C1.34314575,64 2.02906125e-16,62.6568542 0,61 L0,3 C-2.02906125e-16,1.34314575 1.34314575,3.04359188e-16 3,0 L29.44,0 Z M31.4045164,56.3194764 L9.96,56.32 C9.40771525,56.32 8.96,55.8722847 8.96,55.32 L8.96,54.76 C8.96,54.2077153 9.40771525,53.76 9.96,53.76 L30.3510197,53.7596265 C30.6394276,54.6439634 30.9924519,55.4991053 31.4045164,56.3194764 Z M29.44,48 C29.44,48.6482024 29.4732291,49.2886438 29.5380769,49.9197135 L9.96,49.92 C9.40771525,49.92 8.96,49.4722847 8.96,48.92 L8.96,48.36 C8.96,47.8077153 9.40771525,47.36 9.96,47.36 L29.4508603,47.3590371 C29.4436396,47.5718024 29.44,47.7854762 29.44,48 Z M31.9631908,0 L48.64,12.8 L32.9631908,12.8 C32.410906,12.8 31.9631908,12.3522847 31.9631908,11.8 L31.9631908,11.8 L31.9631908,0 Z" id="Combined-Shape"></path>
                    <path d="M48.7718087,41.4198823 L50.31541,44.8939833 C50.5085604,45.0982424 50.7014281,45.3029006 50.8942958,45.3029006 L54.3675167,45.7114188 C54.9464967,45.7114188 55.3326091,46.7334128 54.753629,47.141931 L52.0521617,49.5944372 C51.859294,49.7986963 51.859294,50.0029554 51.859294,50.4117729 L52.6311418,54.090133 C52.8240095,54.7033094 52.0521617,55.3164858 51.4732759,54.9075685 L48.3856963,53.0685381 C48.1928286,52.8638799 47.8071874,52.8638799 47.6139428,53.0685381 L44.5267401,54.9075685 C43.9478542,55.3164858 43.3688742,54.7033094 43.3688742,54.090133 L44.1407219,50.4117729 C44.1407219,50.2075138 44.1407219,49.7986963 43.9478542,49.5944372 L41.246387,47.141931 C40.6674069,46.7334128 41.0535192,45.9160771 41.6321224,45.7114188 L45.1057201,45.3029006 C45.2985878,45.3029006 45.6842291,45.0982424 45.6842291,44.8939833 L47.2282073,41.4198823 C47.6139428,40.8067059 48.3856963,40.8067059 48.7718087,41.4198823 Z" id="Path"></path>
                    <path d="M48.0251737,34.5982275 C55.4091403,34.5982275 61.4508556,40.6376017 61.4508556,48.0192776 C61.4508556,55.4005165 55.4091403,61.44 48.0251737,61.44 C40.6408793,61.44 34.5996011,55.4005165 34.5996011,48.0192776 C34.5996011,40.6376017 40.6408793,34.5982275 48.0251737,34.5982275 L48.0251737,34.5982275 Z M47.9999512,32 C39.1998267,32 32,39.197167 32,47.9940408 C32,56.7906217 39.1998267,63.9881792 47.9999512,63.9881792 C56.8001733,63.9881792 64,56.7906217 64,47.9940408 C64,39.197167 56.8001733,32 47.9999512,32 Z" id="Fill-3"></path>
                </g>
            </g>
        </g>
    </g>
</svg>