<?xml version="1.0" encoding="UTF-8"?>
<svg width="198px" height="62px" viewBox="0 0 198 62" version="1.1" xmlns="http://www.w3.org/2000/svg" xmlns:xlink="http://www.w3.org/1999/xlink">
    <!-- Generator: Sketch 57 (83077) - https://sketch.com -->
    <title>编组 30</title>
    <desc>Created with Sketch.</desc>
    <g id="落地页" stroke="none" stroke-width="1" fill="none" fill-rule="evenodd">
        <g id="电子签章落地页" transform="translate(-360.000000, -10.000000)" fill="#FFFFFF">
            <g id="business-office-building-2210x1473">
                <g id="头部" transform="translate(360.000000, 10.000000)">
                    <g id="编组-30">
                        <g id="Group-Copy">
                            <path d="M6.55648958,25.9948816 L6.53787588,24.1105771 L24.5008406,24.1105771 L24.5008406,25.777379 C24.5008406,27.075934 23.7659718,27.9603009 22.2493275,28.4914953 C22.248583,28.4914953 15.5215919,30.831622 15.5215919,30.831622 L9.04774714,28.6221404 C8.20938611,28.3335726 7.59215583,28.0249056 7.20722452,27.6961393 C6.78506581,27.3408133 6.56914689,26.7959802 6.55648958,26.0831747 L6.56542415,26.0867638 C6.55872322,26.0558971 6.55648958,26.0279018 6.55648958,25.9948816 L6.55648958,25.9948816 Z M3.69444711,18.1461253 C3.69742531,17.7714179 3.8463349,17.5302269 4.15011048,17.3880965 C4.49855894,17.2280203 5.1247238,17.144752 6.01148045,17.144752 L25.6474445,17.1713118 C26.2162792,17.1713118 26.6659862,17.3242096 27.0226247,17.6343123 C27.1998271,17.7814675 27.2861946,17.9264692 27.2861946,18.0736244 L27.26088,19.4360663 L27.1134595,19.4324771 L24.5008406,19.4324771 L24.5008406,21.1696264 L6.53787588,21.1696264 L6.53787588,19.4324771 L3.64530695,19.4324771 L3.65349697,19.2795793 L3.69444711,18.1461253 Z M13.6691565,13 L13.6691565,14.2454355 L4.71596695,14.2569208 C3.36237871,14.2569208 2.27533865,14.5275428 1.49281871,15.0522768 C0.552454607,15.6868387 0.0617974829,16.5877157 0.0342492074,17.7312194 C0.0342492074,17.7312194 0.00521183591,19.0498736 0,19.2716832 L2.88214526,19.2716832 L2.88214526,21.1696264 L0.223364396,21.1696264 C0.218897108,21.3950251 0.199538861,23.8801536 0.199538861,24.1105771 L2.88661255,24.1105771 L2.91564992,26.5124372 C2.92830723,27.7435161 3.37726967,28.7247901 4.25136901,29.4239568 C5.18354309,30.1791143 6.30185416,30.7842452 7.57279758,31.220686 L7.55641752,31.2235573 C7.65916515,31.2479635 7.8229657,31.3068256 8.11259487,31.4022971 L10.7728648,32.3060454 L10.2889086,32.3979277 C8.77449803,32.6836241 7.23626189,32.8817453 5.71366125,32.9772167 C4.15234413,33.0734059 2.36245076,33.1222184 0.384186761,33.1222184 L0.0677538668,33.1222184 L0.0677538668,36 C0.212196176,36 0.391632241,35.9971287 0.391632241,35.9971287 C5.70844942,35.9260635 9.70592756,35.5427421 12.2694063,34.8643925 C13.0348016,34.6605287 14.0697233,34.3511438 15.437458,33.9168565 L15.4858536,33.9010643 L15.5349938,33.9197278 C16.7396724,34.3152523 17.7261985,34.6038201 18.4595782,34.781842 C20.0290854,35.1723417 22.0147949,35.4824444 24.3563983,35.7028183 C26.3785906,35.8987859 28.4737487,35.9971287 30.5763522,35.9971287 L30.8816169,35.9971287 C30.8875733,35.7774726 30.9873427,33.3433101 31,33.1042727 C30.7230281,33.1078618 28.7216832,33.1415998 28.7216832,33.1415998 C26.8640359,33.1415998 25.2766596,33.0683811 23.9923143,32.9255329 C23.1398069,32.832215 22.0378759,32.6520396 20.7244932,32.3957742 L20.2531944,32.2995849 L20.6991786,32.1423801 C23.1532088,31.2895977 24.5470026,30.7907057 24.8492891,30.6650854 C25.4419493,30.4167161 26.0145067,30.0671327 26.5610049,29.6400237 C27.6152848,28.7678599 28.1573158,27.4642801 28.1573158,25.7630224 L28.1573158,24.1105771 L30.9873427,24.1105771 L30.9873427,21.1696264 L28.1573158,21.1696264 L28.1573158,19.2716832 L30.8540686,19.2716832 L30.8540686,17.4763896 C30.8540686,16.5927406 30.4028725,15.8146125 29.5123931,15.1520552 C28.680733,14.5497956 27.438827,14.2454355 25.8119896,14.2454355 L17.3219089,14.2454355 L17.3219089,13 L13.6691565,13 L13.6691565,13 Z" id="Fill-29"></path>
                            <path d="M48.3916248,13.2056858 L38.7608473,13.2056858 C37.7695837,13.2056858 36.9723266,13.3211585 36.390307,13.5499388 C35.7160428,13.8184129 35.1157206,14.2766952 34.5973937,14.9125169 C34.2035238,15.4126581 34,16.1762214 34,17.1851643 L34,31.4280021 C34,32.9666761 34.7006198,34.1286203 36.0784323,34.8770278 C36.6882718,35.2025166 37.5916833,35.3728388 38.7608473,35.3728388 L47.9948265,35.3728388 L47.9948265,32.4145722 L39.7198985,32.4145722 C38.9350871,32.4145722 38.3728342,32.2990994 38.0455854,32.0732059 C37.852311,31.9360821 37.6195031,31.577395 37.6195031,30.6391791 L37.6195031,25.6370454 L47.7978916,25.6370454 L47.7978916,22.6795005 L37.6195031,22.6795005 L37.6195031,17.89893 C37.6195031,17.4254919 37.6971058,16.7947221 38.0455854,16.5183093 C38.3354971,16.2851988 38.905071,16.1646741 39.7198985,16.1646741 L48.3916248,16.1646741 L48.3916248,13.2056858 Z M52.837669,13 C51.8185856,13 50.9825272,13.3918855 50.3390112,14.1706047 C50.0542242,14.5321786 49.9107326,15.1824343 49.9107326,16.1646741 L49.9107326,36 L53.532432,36 L53.532432,17.1851643 C53.532432,16.4966582 53.6114989,16.2325144 53.6481039,16.1394145 L53.6744595,16.091782 L53.7279028,16.067244 C53.8325931,16.0289937 54.1085949,15.9568232 54.7916443,15.9568232 L59.3123627,15.9568232 C59.8592415,15.9568232 60.0678901,16.0080643 60.1447606,16.0419844 L60.1799014,16.0564185 L60.2040607,16.0888952 C60.2589682,16.1560137 60.3783006,16.4013932 60.3783006,17.1851643 L60.3783006,29.9607769 C60.3783006,30.5929901 60.2618966,30.7618689 60.2216311,30.8008409 L60.213578,30.8037278 L60.2040607,30.8145533 C60.147689,30.8542471 59.9551467,30.9487904 59.3123627,30.9487904 L55.8282981,30.9487904 L55.8282981,33.9048919 L61.0913661,33.9048919 C61.7934501,33.9048919 62.4655181,33.6732248 63.0724291,33.2156641 C63.6888574,32.7588252 64,31.9642286 64,30.8513603 L64,15.9156861 C64,14.006056 62.8513349,13 60.6850505,13 L52.837669,13 L52.837669,13 Z" id="Fill-30"></path>
                            <polygon id="Fill-31" points="1 11 2 11 2 3 1 3"></polygon>
                            <polygon id="Fill-32" points="4 9 8 9 8 8 4 8"></polygon>
                            <polyline id="Fill-33" points="18 3 14.1473186 7.81799068 14.1473186 11 12.8491325 11 12.8491325 7.81799068 9 3 10.5693218 3 13.5134858 6.65810403 16.4370662 3 18 3"></polyline>
                            <polygon id="Fill-34" points="20 11 21 11 21 3 20 3"></polygon>
                            <polyline id="Fill-35" points="31 11 29.687716 11 24.3518916 4.59795228 24.3518916 11 23 11 23 3 24.5671182 3 29.66156 9.10512844 29.66156 3 31 3 31 11"></polyline>
                            <path d="M77.064573,12.5788997 C77.064573,12.5788997 74.3271927,-0.202304528 59.4714476,0.00243372285 C47.2092819,0.166370045 42,10.83316 42,10.83316 L46.5072382,10.83316 L47.2026449,10.8266026 C47.2026449,10.8266026 50.6110963,4.43090023 59.5982874,4.11031364 C69.0677649,3.77224052 72.7180969,11.3715998 73.2394675,16.4062664 C73.2468419,16.4747553 73.252004,16.5410585 73.258641,16.6073616 C73.3463964,17.0255814 73.7210164,17.3381533 74.1693804,17.3381533 C74.2372249,17.3381533 74.3028572,17.3308672 74.3670145,17.3162951 C74.4215851,17.2944369 74.4953292,17.2674785 74.5867719,17.2376057 C75.9576743,16.7829556 81.218577,15.6630884 84.0186398,19.4897264 C87.1439139,23.7622713 85.7029546,30.6687264 77.4620536,31.0454156 L66.3790557,31.0454156 C65.9270045,31.0519731 65.5553343,31.371831 65.4742158,31.7951511 C65.4638916,31.8512537 65.4572547,31.908085 65.4572547,31.967102 L65.4572547,31.9736595 C65.365812,32.7576394 64.9639068,34.0122987 63.36661,34.4939072 L63.36661,34.9966453 L78.677356,34.9981025 L78.6817807,34.9951881 C78.6817807,34.9951881 82.203798,35.1452809 84.6815991,33.7689444 C84.7715669,33.721585 84.8519479,33.6793258 84.9249545,33.6443528 C87.2781282,32.2804026 89.8650705,29.5925755 89.9948601,24.3364127 C90.24559,14.5825659 81.2591363,12.2998437 77.064573,12.5788997" id="Fill-36"></path>
                        </g>
                        <text id="电子印章全生态解决方案引领者" font-family="-, ????" font-size="14" font-weight="normal">
                            <tspan x="0" y="60">电子印章全生态解决方案引领者</tspan>
                        </text>
                    </g>
                </g>
            </g>
        </g>
    </g>
</svg>