<?xml version="1.0" encoding="UTF-8"?>
<svg width="24px" height="24px" viewBox="0 0 24 24" version="1.1" xmlns="http://www.w3.org/2000/svg" xmlns:xlink="http://www.w3.org/1999/xlink">
    <!-- Generator: Sketch 59 (86127) - https://sketch.com -->
    <title>Fill 1</title>
    <desc>Created with Sketch.</desc>
    <defs>
        <polygon id="path-1" points="0 0 24 0 24 24 0 24"></polygon>
    </defs>
    <g id="实名认证/人工审核" stroke="none" stroke-width="1" fill="none" fill-rule="evenodd">
        <g id="企业实名认证—人工审核驳回" transform="translate(-510.000000, -147.000000)">
            <g id="警告" transform="translate(510.000000, 147.000000)">
                <mask id="mask-2" fill="white">
                    <use xlink:href="#path-1"></use>
                </mask>
                <g id="Clip-2"></g>
                <path d="M12,6 C11.4254481,6 10.9690208,6.54004749 11.0016464,7.18257328 L11.3113477,13.2731674 C11.3317482,13.6810299 11.635286,14 12,14 C12.3667006,14 12.6682518,13.6810299 12.6886523,13.2731674 L12.9983536,7.18257328 C13.0309792,6.54004749 12.5745519,6 12,6 Z M12,15 C11.4499453,15 11,15.4500462 11,16.0000651 C11,16.550084 11.4499453,17 12,17 C12.5500547,17 13,16.550084 13,16.0000651 C13,15.4500462 12.5500547,15 12,15 Z" id="Fill-4" fill="#E02020" mask="url(#mask-2)"></path>
                <path d="M23.0550322,7.35519219 C22.4510045,5.92706939 21.5866409,4.64391323 20.483183,3.54045531 C19.3798929,2.43713162 18.0993206,1.57263377 16.6684461,0.96860608 C15.1893165,0.343202521 13.6161935,0.0263899973 11.9973322,0.0263899973 C10.3785716,0.0263899973 8.80531433,0.343202521 7.32618474,0.96860608 C5.89806194,1.57263377 4.61477155,2.43713162 3.51144786,3.54045531 C2.40812417,4.64391323 1.54624377,5.92706939 0.942216083,7.35519219 C0.316812524,8.834456 0,10.407579 0,12.0264739 C0,13.645201 0.316812524,15.218324 0.942216083,16.6975878 C1.54624377,18.1257106 2.41074163,19.4090345 3.51406532,20.5123247 C4.61752323,21.6156484 5.89806194,22.4801462 7.32880219,23.0841739 C8.80806601,23.7097117 10.381189,24.02639 12.0000839,24.02639 C13.618811,24.02639 15.191934,23.7097117 16.6711978,23.0841739 C18.0993206,22.4801462 19.3826446,21.6156484 20.4859347,20.5123247 C21.5892584,19.4090345 22.4537562,18.1284623 23.0577839,16.6975878 C23.6833217,15.218324 24,13.645201 24,12.0264739 C23.9973825,10.407579 23.68057,8.83710701 23.0550322,7.35519219 Z M19.0704356,19.0968256 C17.1801645,20.9872272 14.6710629,22.02639 12.0000816,22.02639 C9.32906767,22.02639 6.81728979,20.9872272 4.92956441,19.0968256 C3.04183903,17.2091002 2,14.6974529 2,12.0264716 C2,9.35545767 3.0391628,6.84367979 4.92956441,4.95595441 C6.81983548,3.06822903 9.32906767,2.02639 12.0000816,2.02639 C14.6710629,2.02639 17.1827102,3.06555279 19.0704356,4.95595441 C20.958161,6.84622547 22,9.35545767 22,12.0264716 C22,14.6974529 20.958161,17.2091002 19.0704356,19.0968256 Z" id="Fill-1" fill="#E02020" mask="url(#mask-2)"></path>
            </g>
        </g>
    </g>
</svg>