<?xml version="1.0" encoding="UTF-8"?>
<svg width="16px" height="16px" viewBox="0 0 16 16" version="1.1" xmlns="http://www.w3.org/2000/svg" xmlns:xlink="http://www.w3.org/1999/xlink">
    <!-- Generator: Sketch 52.2 (67145) - http://www.bohemiancoding.com/sketch -->
    <title>合并形状</title>
    <desc>Created with Sketch.</desc>
    <g id="Page-2" stroke="none" stroke-width="1" fill="none" fill-rule="evenodd">
        <g id="合同管理" transform="translate(-380.000000, -491.000000)" fill="#02ADFF">
            <path d="M386.620186,502.403007 C386.393252,502.062293 385.084287,500.088132 385.058495,500.047631 C385.028404,500.004085 385.075287,499.983979 385.075287,499.983979 C385.075287,499.983979 387.513568,498.866283 387.590429,498.830863 C387.668455,498.795175 387.648081,498.881664 387.648081,498.881664 L387.332263,500.028757 C387.332263,500.028757 387.70571,500.253855 388.440602,500.237936 C389.525588,500.215458 390.466973,499.429497 390.720415,499.20019 C390.762998,499.159957 390.778044,499.167995 390.75758,499.222042 C390.590716,499.678998 389.661242,501.808672 386.99905,501.332192 C386.919211,501.609344 386.728816,502.211492 386.67065,502.397947 C386.659209,502.432761 386.641791,502.435717 386.620186,502.403007 Z M385.268032,497.705733 C385.204963,497.760922 385.184589,497.754608 385.211008,497.684397 C385.403149,497.173729 386.359042,495.09358 389.013443,495.568806 C389.090326,495.302244 389.269169,494.737283 389.337029,494.520201 C389.364053,494.446049 389.416264,494.508492 389.416264,494.508492 L390.972558,496.857934 C390.972558,496.857934 390.998977,496.918608 390.946766,496.94346 C390.877674,496.978342 388.826115,497.898479 388.40825,498.107681 C388.32953,498.147645 388.350531,498.072261 388.350531,498.072261 L388.675953,496.890376 C388.675953,496.890376 388.297179,496.663062 387.551428,496.678107 C386.488136,496.700944 385.560476,497.445105 385.268032,497.705733 Z M380,491.5 C380,491.223858 380.223858,491 380.5,491 L395.5,491 C395.776142,491 396,491.223858 396,491.5 C396,491.776142 395.776142,492 395.5,492 L395,492 L392.778425,505.328813 C392.617689,506.293182 391.783312,507 390.805639,507 L385.194254,507 C384.216576,507 383.382196,506.293174 383.221466,505.328798 L381,492 L380.5,492 C380.223858,492 380,491.776142 380,491.5 Z M384.35282,505.175791 C384.437985,505.652719 384.852775,506 385.337247,506 L390.662753,506 C391.147225,506 391.562015,505.652719 391.64718,505.175791 L394,492 L382,492 L384.35282,505.175791 Z" id="合并形状"></path>
        </g>
    </g>
</svg>