<?xml version="1.0" encoding="UTF-8"?>
<svg width="16px" height="16px" viewBox="0 0 16 16" version="1.1" xmlns="http://www.w3.org/2000/svg" xmlns:xlink="http://www.w3.org/1999/xlink">
    <!-- Generator: Sketch 52.2 (67145) - http://www.bohemiancoding.com/sketch -->
    <title>合并形状</title>
    <desc>Created with Sketch.</desc>
    <g id="Page-2" stroke="none" stroke-width="1" fill="none" fill-rule="evenodd">
        <g id="合同管理" transform="translate(-380.000000, -246.000000)" fill="#000000">
            <path d="M389.050361,259.99827 C389.182979,259.347315 389.568556,258.788347 390.099967,258.428489 C389.729573,258.06549 389.49976,257.559583 389.49976,257 C389.49976,255.895431 390.395191,255 391.49976,255 C392.60433,255 393.49976,255.895431 393.49976,257 C393.49976,257.559484 393.270028,258.065312 392.89975,258.428297 C393.431318,258.788155 393.817014,259.347223 393.949647,259.998311 C394.597625,259.362849 395,258.477822 395,257.5 C395,255.569204 393.430928,254 391.5,254 C389.569204,254 388,255.569204 388,257.5 C388,258.477801 388.402391,259.362811 389.050361,259.99827 Z M390,260.662384 C390.454797,260.878825 390.963436,261 391.5,261 C392.036578,261 392.545213,260.878835 393,260.662411 L393,260.5 C393,259.671573 392.328427,259 391.5,259 C390.671573,259 390,259.671573 390,260.5 L390,260.662384 Z M385.5,261 L382,261 C380.895431,261 380,260.104569 380,259 L380,248 C380,246.895431 380.895431,246 382,246 L391,246 C392.104569,246 393,246.895431 393,248 L393,250.5 C393,250.776142 392.776142,251 392.5,251 C392.223858,251 392,250.776142 392,250.5 L392,248 C392,247.447715 391.552285,247 391,247 L382,247 C381.447715,247 381,247.447715 381,248 L381,259 C381,259.552285 381.447715,260 382,260 L385.5,260 C385.776142,260 386,260.223858 386,260.5 C386,260.776142 385.776142,261 385.5,261 Z M391.499948,262 C390.296415,262 389.167279,261.532577 388.319368,260.680529 C387.469439,259.832746 387,258.701491 387,257.499948 C387,256.296415 387.46732,255.167279 388.319368,254.319368 C389.167279,253.469439 390.298432,253 391.499948,253 C392.70361,253 393.832746,253.46732 394.680529,254.319368 C395.528441,255.169296 396,256.300551 396,257.499948 C396,258.70361 395.532577,259.832746 394.680529,260.680529 C393.830627,261.530561 392.70361,262 391.499948,262 Z M389.5,250 L383.5,250 C383.223858,250 383,249.776142 383,249.5 C383,249.223858 383.223858,249 383.5,249 L389.5,249 C389.776142,249 390,249.223858 390,249.5 C390,249.776142 389.776142,250 389.5,250 Z M387.5,253.5 L383.5,253.5 C383.223858,253.5 383,253.276142 383,253 C383,252.723858 383.223858,252.5 383.5,252.5 L387.5,252.5 C387.776142,252.5 388,252.723858 388,253 C388,253.276142 387.776142,253.5 387.5,253.5 Z M385.5,257 L383.5,257 C383.223858,257 383,256.776142 383,256.5 C383,256.223858 383.223858,256 383.5,256 L385.5,256 C385.776142,256 386,256.223858 386,256.5 C386,256.776142 385.776142,257 385.5,257 Z M391.49976,258 C391.499808,258 391.499856,258 391.499904,258 C392.052123,257.999922 392.49976,257.552237 392.49976,257 C392.49976,256.447715 392.052045,256 391.49976,256 C390.947476,256 390.49976,256.447715 390.49976,257 C390.49976,257.552285 390.947476,258 391.49976,258 Z" id="合并形状"></path>
        </g>
    </g>
</svg>