<?xml version="1.0" encoding="UTF-8"?>
<svg width="16px" height="16px" viewBox="0 0 16 16" version="1.1" xmlns="http://www.w3.org/2000/svg" xmlns:xlink="http://www.w3.org/1999/xlink">
    <!-- Generator: Sketch 52.2 (67145) - http://www.bohemiancoding.com/sketch -->
    <title>合并形状</title>
    <desc>Created with Sketch.</desc>
    <g id="Page-2" stroke="none" stroke-width="1" fill="none" fill-rule="evenodd">
        <g id="合同管理" transform="translate(-380.000000, -205.000000)" fill="#000000">
            <path d="M392.12132,215.146447 C392.316582,214.951184 392.633165,214.951184 392.828427,215.146447 C393.023689,215.341709 393.023689,215.658291 392.828427,215.853553 L391.06066,217.62132 L390,217.974874 L390.353553,216.914214 L392.12132,215.146447 Z M385.5,220 L382,220 C380.895431,220 380,219.104569 380,218 L380,207 C380,205.895431 380.895431,205 382,205 L391,205 C392.104569,205 393,205.895431 393,207 L393,209.5 C393,209.776142 392.776142,210 392.5,210 C392.223858,210 392,209.776142 392,209.5 L392,207 C392,206.447715 391.552285,206 391,206 L382,206 C381.447715,206 381,206.447715 381,207 L381,218 C381,218.552285 381.447715,219 382,219 L385.5,219 C385.776142,219 386,219.223858 386,219.5 C386,219.776142 385.776142,220 385.5,220 Z M391.499948,221 C390.296415,221 389.167279,220.532577 388.319368,219.680529 C387.469439,218.832746 387,217.701491 387,216.499948 C387,215.296415 387.46732,214.167279 388.319368,213.319368 C389.167279,212.469439 390.298432,212 391.499948,212 C392.70361,212 393.832746,212.46732 394.680529,213.319368 C395.528441,214.169296 396,215.300551 396,216.499948 C396,217.70361 395.532577,218.832746 394.680529,219.680529 C393.830627,220.530561 392.70361,221 391.499948,221 Z M391.5,213 C389.569204,213 388,214.569204 388,216.5 C388,218.430928 389.569204,220 391.5,220 C393.430928,220 395,218.430928 395,216.5 C395,214.569204 393.430928,213 391.5,213 Z M389.5,209 L383.5,209 C383.223858,209 383,208.776142 383,208.5 C383,208.223858 383.223858,208 383.5,208 L389.5,208 C389.776142,208 390,208.223858 390,208.5 C390,208.776142 389.776142,209 389.5,209 Z M387.5,212.5 L383.5,212.5 C383.223858,212.5 383,212.276142 383,212 C383,211.723858 383.223858,211.5 383.5,211.5 L387.5,211.5 C387.776142,211.5 388,211.723858 388,212 C388,212.276142 387.776142,212.5 387.5,212.5 Z M385.5,216 L383.5,216 C383.223858,216 383,215.776142 383,215.5 C383,215.223858 383.223858,215 383.5,215 L385.5,215 C385.776142,215 386,215.223858 386,215.5 C386,215.776142 385.776142,216 385.5,216 Z" id="合并形状"></path>
        </g>
    </g>
</svg>