<?xml version="1.0" encoding="UTF-8"?>
<svg width="16px" height="16px" viewBox="0 0 16 16" version="1.1" xmlns="http://www.w3.org/2000/svg" xmlns:xlink="http://www.w3.org/1999/xlink">
    <!-- Generator: Sketch 52.2 (67145) - http://www.bohemiancoding.com/sketch -->
    <title>合并形状</title>
    <desc>Created with Sketch.</desc>
    <g id="Page-2" stroke="none" stroke-width="1" fill="none" fill-rule="evenodd">
        <g id="合同管理" transform="translate(-380.000000, -552.000000)" fill="#000000">
            <path d="M395,559 C395.552285,559 396,559.447715 396,560 L396,566 C396,567.104569 395.104569,568 394,568 L384,568 C383.447715,568 383,567.552285 383,567 L382,567 C380.895431,567 380,566.104569 380,565 L380,556 C380,554.895431 380.895431,554 382,554 C382,552.895431 382.895431,552 384,552 L393,552 C394.104569,552 395,552.895431 395,554 L395,559 Z M384,553 C383.447715,553 383,553.447715 383,554 L391,554 C392.104569,554 393,554.895431 393,556 L393,559 L394,559 L394,554 C394,553.447715 393.552285,553 393,553 L384,553 Z M383,566 L383,564 C383,562.895431 383.895431,562 385,562 L387.031625,562 C387.328405,562 387.609853,561.868177 387.799846,561.640184 L389.400307,559.719631 C389.780295,559.263646 390.34319,559 390.93675,559 L392,559 L392,556 C392,555.447715 391.552285,555 391,555 L382,555 C381.447715,555 381,555.447715 381,556 L381,565 C381,565.552285 381.447715,566 382,566 L383,566 Z M394,567 C394.552285,567 395,566.552285 395,566 L395,560.5 C395,560.223858 394.776142,560 394.5,560 L390.968375,560 C390.671595,560 390.390147,560.131823 390.200154,560.359816 L388.599693,562.280369 C388.219705,562.736354 387.65681,563 387.06325,563 L385,563 C384.447715,563 384,563.447715 384,564 L384,566.5 C384,566.776142 384.223858,567 384.5,567 L394,567 Z M393.5,565 C393.776142,565 394,565.223858 394,565.5 C394,565.776142 393.776142,566 393.5,566 L391.5,566 C391.223858,566 391,565.776142 391,565.5 C391,565.223858 391.223858,565 391.5,565 L393.5,565 Z M383.5,557.5 C383.223858,557.5 383,557.276142 383,557 C383,556.723858 383.223858,556.5 383.5,556.5 L389.5,556.5 C389.776142,556.5 390,556.723858 390,557 C390,557.276142 389.776142,557.5 389.5,557.5 L383.5,557.5 Z M387.5,558.5 C387.776142,558.5 388,558.723858 388,559 C388,559.276142 387.776142,559.5 387.5,559.5 L383.5,559.5 C383.223858,559.5 383,559.276142 383,559 C383,558.723858 383.223858,558.5 383.5,558.5 L387.5,558.5 Z" id="合并形状"></path>
        </g>
    </g>
</svg>