<?xml version="1.0" encoding="UTF-8"?>
<svg width="16px" height="16px" viewBox="0 0 16 16" version="1.1" xmlns="http://www.w3.org/2000/svg" xmlns:xlink="http://www.w3.org/1999/xlink">
    <!-- Generator: Sketch 52.2 (67145) - http://www.bohemiancoding.com/sketch -->
    <title>合并形状</title>
    <desc>Created with Sketch.</desc>
    <g id="Page-2" stroke="none" stroke-width="1" fill="none" fill-rule="evenodd">
        <g id="合同管理" transform="translate(-380.000000, -369.000000)" fill="#000000">
            <path d="M385.5,384 L382,384 C380.895431,384 380,383.104569 380,382 L380,371 C380,369.895431 380.895431,369 382,369 L391,369 C392.104569,369 393,369.895431 393,371 L393,373.5 C393,373.776142 392.776142,374 392.5,374 C392.223858,374 392,373.776142 392,373.5 L392,371 C392,370.447715 391.552285,370 391,370 L382,370 C381.447715,370 381,370.447715 381,371 L381,382 C381,382.552285 381.447715,383 382,383 L385.5,383 C385.776142,383 386,383.223858 386,383.5 C386,383.776142 385.776142,384 385.5,384 Z M389.5,373 L383.5,373 C383.223858,373 383,372.776142 383,372.5 C383,372.223858 383.223858,372 383.5,372 L389.5,372 C389.776142,372 390,372.223858 390,372.5 C390,372.776142 389.776142,373 389.5,373 Z M387.5,376.5 L383.5,376.5 C383.223858,376.5 383,376.276142 383,376 C383,375.723858 383.223858,375.5 383.5,375.5 L387.5,375.5 C387.776142,375.5 388,375.723858 388,376 C388,376.276142 387.776142,376.5 387.5,376.5 Z M385.5,380 L383.5,380 C383.223858,380 383,379.776142 383,379.5 C383,379.223858 383.223858,379 383.5,379 L385.5,379 C385.776142,379 386,379.223858 386,379.5 C386,379.776142 385.776142,380 385.5,380 Z M387.652926,378.162136 C387.838194,377.859216 388.061108,377.576374 388.319368,377.319368 C389.167279,376.469439 390.298432,376 391.499948,376 C392.70361,376 393.832746,376.46732 394.680529,377.319368 C395.528441,378.169296 396,379.300551 396,380.499948 C396,381.70361 395.532577,382.832746 394.680529,383.680529 C393.830627,384.530561 392.70361,385 391.499948,385 C390.296415,385 389.167279,384.532577 388.319368,383.680529 C387.897783,383.260008 387.569813,382.769742 387.346315,382.235748 L387.349979,382.234117 C387.328433,382.17828 387.31662,382.117604 387.31662,382.054169 C387.31662,381.778026 387.540477,381.554169 387.81662,381.554169 C388.040385,381.554169 388.229819,381.70116 388.29363,381.903851 C388.835314,383.1372 390.068241,384 391.5,384 C393.430928,384 395,382.430928 395,380.5 C395,378.569204 393.430928,377 391.5,377 C390.185815,377 389.039147,377.726975 388.440788,378.800134 L389.5,379.657867 L387.013695,379.919189 L386.752374,377.432884 L387.652926,378.162136 Z M391,378.0003 C391.275977,378.000135 391.499834,378.223723 391.5,378.4997 C391.5,378.4998 391.5,378.4999 391.5,378.5 L391.5,380.513215 C391.5,380.789357 391.723858,381.013215 392,381.013215 L393.006607,381.013215 C393.279101,381.013215 393.5,381.234114 393.5,381.506607 C393.5,381.779101 393.279101,382 393.006607,382 L391.5,382 C390.947715,382 390.5,381.552285 390.5,381 L390.5,378.500601 C390.5,378.22441 390.723809,378.000466 391,378.0003 Z" id="合并形状"></path>
        </g>
    </g>
</svg>