<?xml version="1.0" encoding="UTF-8"?>
<svg width="16px" height="16px" viewBox="0 0 16 16" version="1.1" xmlns="http://www.w3.org/2000/svg" xmlns:xlink="http://www.w3.org/1999/xlink">
    <!-- Generator: Sketch 52.2 (67145) - http://www.bohemiancoding.com/sketch -->
    <title>合并形状</title>
    <desc>Created with Sketch.</desc>
    <g id="Page-2" stroke="none" stroke-width="1" fill="none" fill-rule="evenodd">
        <g id="合同管理" transform="translate(-380.000000, -287.000000)" fill="#000000">
            <path d="M387.5,302 L382,302 C380.895431,302 380,301.104569 380,300 L380,289 C380,287.895431 380.895431,287 382,287 L391,287 C392.104569,287 393,287.895431 393,289 L393,292.5 C393,292.776142 392.776142,293 392.5,293 C392.223858,293 392,292.776142 392,292.5 L392,289 C392,288.447715 391.552285,288 391,288 L382,288 C381.447715,288 381,288.447715 381,289 L381,300 C381,300.552285 381.447715,301 382,301 L387.5,301 C387.776142,301 388,301.223858 388,301.5 C388,301.776142 387.776142,302 387.5,302 Z M389.5,291 L383.5,291 C383.223858,291 383,290.776142 383,290.5 C383,290.223858 383.223858,290 383.5,290 L389.5,290 C389.776142,290 390,290.223858 390,290.5 C390,290.776142 389.776142,291 389.5,291 Z M387.5,294.5 L383.5,294.5 C383.223858,294.5 383,294.276142 383,294 C383,293.723858 383.223858,293.5 383.5,293.5 L387.5,293.5 C387.776142,293.5 388,293.723858 388,294 C388,294.276142 387.776142,294.5 387.5,294.5 Z M385.5,298 L383.5,298 C383.223858,298 383,297.776142 383,297.5 C383,297.223858 383.223858,297 383.5,297 L385.5,297 C385.776142,297 386,297.223858 386,297.5 C386,297.776142 385.776142,298 385.5,298 Z M394.475884,297.486431 L393.774132,298.312858 C393.670737,298.415988 393.670737,298.583782 393.774132,298.687177 L394.475884,299.513339 C394.775752,299.813471 395,300.212098 395,300.636297 L395,302 C395.666667,302 396,302.333333 396,303 L389,303 C389,302.333333 389.333333,302 390,302 L389.999941,300.636297 C389.999941,300.212098 390.200074,299.813471 390.499941,299.513339 L391.245761,298.687177 C391.349019,298.583782 391.349019,298.416034 391.245761,298.312904 L390.499941,297.486431 C390.200074,297.186575 389.999702,296.787948 389.999702,296.363473 L390,295 C389.333333,295 389,294.666667 389,294 L396,294 C396,294.666667 395.666667,295 395,295 L395,296.363473 C395,296.787948 394.775752,297.186575 394.475884,297.486431 Z M393.774132,300.123223 L393.143038,299.296796 C393.099076,299.239224 393.052142,299.140292 393.002234,299 L392.012609,299 C391.966209,299.140292 391.921028,299.239224 391.877066,299.296796 L391.245761,300.123223 C391.093111,300.323008 391.008969,300.589031 391.008969,300.871597 L390.999941,302 L394.002064,302 L394.011091,300.871597 C394.011091,300.589031 393.926993,300.323008 393.774132,300.123223 Z M393.143003,297.703239 L393.774132,296.876812 C393.926993,296.676981 394.011091,296.28283 394.011091,296 L394.002064,295 L391.008969,295 L391,296 C391,296.28283 391.08799,296.676981 391.240605,296.876812 L391.871945,297.703239 C391.937887,297.789563 391.983504,297.891704 392.012609,298 L393.002234,298 C393.031268,297.891704 393.07706,297.789563 393.143003,297.703239 Z" id="合并形状"></path>
        </g>
    </g>
</svg>