<?xml version="1.0" encoding="UTF-8"?>
<svg width="16px" height="16px" viewBox="0 0 16 16" version="1.1" xmlns="http://www.w3.org/2000/svg" xmlns:xlink="http://www.w3.org/1999/xlink">
    <!-- Generator: Sketch 52.2 (67145) - http://www.bohemiancoding.com/sketch -->
    <title>合并形状</title>
    <desc>Created with Sketch.</desc>
    <g id="Page-2" stroke="none" stroke-width="1" fill="none" fill-rule="evenodd">
        <g id="合同管理" transform="translate(-380.000000, -328.000000)" fill="#000000">
            <path d="M385.5,343 L382,343 C380.895431,343 380,342.104569 380,341 L380,330 C380,328.895431 380.895431,328 382,328 L391,328 C392.104569,328 393,328.895431 393,330 L393,332.5 C393,332.776142 392.776142,333 392.5,333 C392.223858,333 392,332.776142 392,332.5 L392,330 C392,329.447715 391.552285,329 391,329 L382,329 C381.447715,329 381,329.447715 381,330 L381,341 C381,341.552285 381.447715,342 382,342 L385.5,342 C385.776142,342 386,342.223858 386,342.5 C386,342.776142 385.776142,343 385.5,343 Z M391.499948,344 C390.296415,344 389.167279,343.532577 388.319368,342.680529 C387.469439,341.832746 387,340.701491 387,339.499948 C387,338.296415 387.46732,337.167279 388.319368,336.319368 C389.167279,335.469439 390.298432,335 391.499948,335 C392.70361,335 393.832746,335.46732 394.680529,336.319368 C395.528441,337.169296 396,338.300551 396,339.499948 C396,340.70361 395.532577,341.832746 394.680529,342.680529 C393.830627,343.530561 392.70361,344 391.499948,344 Z M391.5,336 C389.569204,336 388,337.569204 388,339.5 C388,341.430928 389.569204,343 391.5,343 C393.430928,343 395,341.430928 395,339.5 C395,337.569204 393.430928,336 391.5,336 Z M389.5,332 L383.5,332 C383.223858,332 383,331.776142 383,331.5 C383,331.223858 383.223858,331 383.5,331 L389.5,331 C389.776142,331 390,331.223858 390,331.5 C390,331.776142 389.776142,332 389.5,332 Z M387.5,335.5 L383.5,335.5 C383.223858,335.5 383,335.276142 383,335 C383,334.723858 383.223858,334.5 383.5,334.5 L387.5,334.5 C387.776142,334.5 388,334.723858 388,335 C388,335.276142 387.776142,335.5 387.5,335.5 Z M385.5,339 L383.5,339 C383.223858,339 383,338.776142 383,338.5 C383,338.223858 383.223858,338 383.5,338 L385.5,338 C385.776142,338 386,338.223858 386,338.5 C386,338.776142 385.776142,339 385.5,339 Z M391,340.085786 L392.767767,338.318019 C392.963029,338.122757 393.279612,338.122757 393.474874,338.318019 C393.670136,338.513282 393.670136,338.829864 393.474874,339.025126 L391.353553,341.146447 C391.158291,341.341709 390.841709,341.341709 390.646447,341.146447 L389.232233,339.732233 C389.036971,339.536971 389.036971,339.220388 389.232233,339.025126 C389.427495,338.829864 389.744078,338.829864 389.93934,339.025126 L391,340.085786 Z" id="合并形状"></path>
        </g>
    </g>
</svg>