<?xml version="1.0" encoding="UTF-8"?>
<svg width="16px" height="16px" viewBox="0 0 16 16" version="1.1" xmlns="http://www.w3.org/2000/svg" xmlns:xlink="http://www.w3.org/1999/xlink">
    <!-- Generator: Sketch 52.2 (67145) - http://www.bohemiancoding.com/sketch -->
    <title>合并形状</title>
    <desc>Created with Sketch.</desc>
    <g id="Page-2" stroke="none" stroke-width="1" fill="none" fill-rule="evenodd">
        <g id="合同管理" transform="translate(-380.000000, -164.000000)" fill="#000000">
            <path d="M387,180 L382,180 C380.895431,180 380,179.104569 380,178 L380,166 C380,164.895431 380.895431,164 382,164 L393,164 C394.104569,164 395,164.895431 395,166 L395,170 C395,170.276142 394.776142,170.5 394.5,170.5 C394.223858,170.5 394,170.276142 394,170 L394,166 C394,165.447715 393.552285,165 393,165 L382,165 C381.447715,165 381,165.447715 381,166 L381,178.002888 C381,178.554044 381.445954,179.00129 381.997107,179.002884 L386.870324,179.01698 C386.91168,179.005905 386.95515,179 387,179 C387.276142,179 387.5,179.223858 387.5,179.5 C387.5,179.776142 387.276142,180 387,180 Z M391.5,171 C393.985293,171 396,173.014707 396,175.5 C396,177.985293 393.985293,180 391.5,180 C389.014707,180 387,177.985293 387,175.5 C387,173.014707 389.014707,171 391.5,171 Z M391.5,178.999932 C393.43301,178.999932 395,177.432942 395,175.499932 C395,173.567013 393.43301,172 391.5,172 C389.56699,172 388,173.567013 388,175.499932 C388,177.432942 389.56699,178.999932 391.5,178.999932 Z M392.158916,174.756958 L393.49988,175.02796 L392.565878,176.075031 L392.735861,177.5 L391.49988,176.891023 L390.263899,177.5 L390.433883,176.075031 L389.49988,175.02796 L390.840844,174.756958 L391.49988,173.5 L392.158916,174.756958 Z M391.499986,167.999972 C391.776136,167.999972 392,168.223836 392,168.499986 C392,168.776136 391.776136,169 391.499986,169 L383.500014,169 C383.223864,169 383,168.776136 383,168.499986 C383,168.223836 383.223864,167.999972 383.500014,167.999972 L391.499986,167.999972 Z M386.499414,171 C386.77588,171 387,171.22412 387,171.500586 C387,171.777052 386.77588,172.001172 386.499414,172.001172 L383.500586,172.001172 C383.22412,172.001172 383,171.777052 383,171.500586 C383,171.22412 383.22412,171 383.500586,171 L386.499414,171 Z M383,174.5 C383,174.223858 383.223858,174 383.5,174 L384.5,174 C384.776142,174 385,174.223858 385,174.5 C385,174.776142 384.776142,175 384.5,175 L383.5,175 C383.223858,175 383,174.776142 383,174.5 Z" id="合并形状"></path>
        </g>
    </g>
</svg>