<?xml version="1.0" encoding="UTF-8"?>
<svg width="16px" height="16px" viewBox="0 0 16 16" version="1.1" xmlns="http://www.w3.org/2000/svg" xmlns:xlink="http://www.w3.org/1999/xlink">
    <!-- Generator: Sketch 52.2 (67145) - http://www.bohemiancoding.com/sketch -->
    <title>合并形状</title>
    <desc>Created with Sketch.</desc>
    <g id="Page-2" stroke="none" stroke-width="1" fill="none" fill-rule="evenodd">
        <g id="合同管理" transform="translate(-380.000000, -450.000000)" fill="#000000">
            <path d="M393,462.5 C393,462.223858 393.223858,462 393.5,462 C393.776142,462 394,462.223858 394,462.5 L394,464 C394,465.104569 393.104569,466 392,466 L382,466 C380.895431,466 380,465.104569 380,464 L380,452 C380,450.895431 380.895431,450 382,450 L392,450 C393.104569,450 394,450.895431 394,452 L394,458 C394,458.276142 393.776142,458.5 393.5,458.5 C393.223858,458.5 393,458.276142 393,458 L393,452 C393,451.447715 392.552285,451 392,451 L382,451 C381.447715,451 381,451.447715 381,452 L381,464 C381,464.552285 381.447715,465 382,465 L392,465 C392.552285,465 393,464.552285 393,464 L393,462.5 Z M383.5,453 L390.5,453 C390.776142,453 391,453.223858 391,453.5 C391,453.776142 390.776142,454 390.5,454 L383.5,454 C383.223858,454 383,453.776142 383,453.5 C383,453.223858 383.223858,453 383.5,453 Z M383.5,456 L389.5,456 C389.776142,456 390,456.223858 390,456.5 C390,456.776142 389.776142,457 389.5,457 L383.5,457 C383.223858,457 383,456.776142 383,456.5 C383,456.223858 383.223858,456 383.5,456 Z M383.5,459 L386.5,459 C386.776142,459 387,459.223858 387,459.5 C387,459.776142 386.776142,460 386.5,460 L383.5,460 C383.223858,460 383,459.776142 383,459.5 C383,459.223858 383.223858,459 383.5,459 Z M390.968666,462.387008 L388.812806,460.663789 C388.746964,460.61114 388.698011,460.550498 388.658795,460.48682 C388.505085,460.237263 388.551919,459.925245 388.807291,459.716122 L391.791127,457.272734 C392.111709,457.01003 392.374414,457.200192 392.376833,457.659173 L392.383279,458.88726 L392.43716,458.886974 C392.782218,458.885442 393.119058,458.959217 393.439941,459.089983 C393.518644,459.121806 393.594883,459.161293 393.671422,459.200209 C394.450685,459.595798 395.116972,460.328828 395.533987,461.177869 C395.819049,461.758405 395.988671,462.390705 396,463 C396.000886,463.154942 395.876281,463.198441 395.755957,463.001232 C395.142034,461.913062 394.146946,461.352434 392.846843,461.35918 L392.396426,461.361584 L392.403187,462.65712 C392.405005,463.043484 392.122693,463.309253 391.799046,463.050831 L390.968666,462.387008 Z" id="合并形状"></path>
        </g>
    </g>
</svg>