<?xml version="1.0" encoding="UTF-8"?>
<svg width="16px" height="16px" viewBox="0 0 16 16" version="1.1" xmlns="http://www.w3.org/2000/svg" xmlns:xlink="http://www.w3.org/1999/xlink">
    <!-- Generator: Sketch 52.2 (67145) - http://www.bohemiancoding.com/sketch -->
    <title>Fill 1</title>
    <desc>Created with Sketch.</desc>
    <g id="Page-2" stroke="none" stroke-width="1" fill="none" fill-rule="evenodd">
        <g id="合同管理" transform="translate(-380.000000, -409.000000)" fill="#000000">
            <path d="M384,420 L384,413 C384,412.447715 384.447715,412 385,412 L385.009426,412 L385.009426,412 C385.009426,412.552285 385.457141,413 386.009426,413 L391,413 L393.002234,411 L390.49976,411 C390.49976,411 390.49976,411 390.49976,411 L390.49976,411 C390.49976,409.895501 389.604439,409.0001 388.49994,409.000001 L388.49994,409 C387.395404,409 386.5,409.895404 386.5,410.99994 C386.5,410.99996 386.5,410.99998 386.5,411 L385,411 C383.895431,411 383,411.895431 383,413 L383,421 L384,420 Z M388.5,410 C389.050089,410 389.500059,410.44997 389.500059,410.999902 C389.500059,411.549991 389.050089,412 388.5,412 C387.950028,412 387.500059,411.549991 387.500059,410.999902 C387.500059,410.44997 387.950028,410 388.5,410 Z M396,410.999902 L394.49976,411 L380,425 L381.5,425 L383,423.5 L383,423.5 C383,424.328427 383.671573,425 384.5,425 L391.979057,425 C393.081992,425 393.976743,424.10712 393.979053,423.004188 L394,413 L396,410.999902 Z M392.002234,424 L384.5,424 C384.223858,424 384,423.776142 384,423.5 L384,422.5 L393.002234,414 L393.002234,423 C393.002234,423.552285 392.554518,424 392.002234,424 Z" id="Fill-1"></path>
        </g>
    </g>
</svg>