<?xml version="1.0" encoding="UTF-8"?>
<svg width="34px" height="40px" viewBox="0 0 34 40" version="1.1" xmlns="http://www.w3.org/2000/svg" xmlns:xlink="http://www.w3.org/1999/xlink">
    <!-- Generator: Sketch 57 (83077) - https://sketch.com -->
    <title>形状</title>
    <desc>Created with Sketch.</desc>
    <g id="Ukey-申请流程" stroke="none" stroke-width="1" fill="none" fill-rule="evenodd">
        <g id="付款开票信息填写" transform="translate(-414.000000, -311.000000)" fill="#C0CCDA" fill-rule="nonzero">
            <g id="peizhitubiaosvg-" transform="translate(414.000000, 311.000000)">
                <path d="M30.5757473,0.0283061736 L2.96705163,0.0283061736 C0.838428456,0.0283061736 0.0141104818,0.861639479 0.0141104818,3.01743661 L0.0141104818,35.9884511 C0.0093371846,37.0166488 0.413174312,38.0046462 1.13682254,38.7350892 C1.86047077,39.4655323 2.84465086,39.8785852 3.87284872,39.8833786 L4.2623415,39.8833786 L10.4308198,35.9612772 L14.6518342,39.2221467 C15.3870539,39.7941785 16.3983053,39.8553574 17.1971241,39.3761323 L23.0123415,35.9069293 L29.2804574,39.8833786 L29.6790082,39.8833786 C30.707206,39.8785852 31.6913861,39.4655323 32.4150343,38.7350892 C33.1386826,38.0046462 33.5425197,37.0166488 33.5377464,35.9884511 L33.5377464,3.01743661 C33.5286458,0.861639479 32.7043705,0.0283061736 30.5757473,0.0283061736 Z M30.8112925,35.9884511 C30.8153693,36.5011547 30.4847696,36.9566476 29.9960372,37.1116395 L24.2713995,33.4884511 C23.5427029,33.0327253 22.6178496,33.0327253 21.8891531,33.4884511 L16.1011096,36.948596 L11.8710372,33.6877264 C11.1177623,33.101949 10.0781113,33.0512343 9.27139946,33.5609149 L3.54676176,37.1841033 C3.05802927,37.0291114 2.72742961,36.5736185 2.73150639,36.0609149 L2.73150639,3.01743661 L2.73150639,2.75475543 L30.8112925,2.75475543 L30.8112925,3.01743661 L30.8112925,35.9884511 Z" id="形状"></path>
                <path d="M23.1119792,16.7855525 C23.862366,16.7855525 24.4706748,16.1772438 24.4706748,15.4268569 C24.4706748,14.67647 23.862366,14.0681612 23.1119792,14.0681612 L19.1989357,14.0681612 L22.9851676,10.2819293 C23.6518289,9.73304452 23.7602604,8.75314508 23.2297328,8.07178443 C22.5483722,7.54125684 21.5684727,7.64968834 21.0195878,8.31634965 L16.916327,12.4196105 L16.7804574,12.582654 L16.6445878,12.4196105 L12.541327,8.31634965 C11.9924422,7.64968836 11.0125427,7.54125686 10.3311821,8.07178443 C9.8006545,8.75314508 9.90908599,9.73304452 10.5757473,10.2819293 L14.3619792,14.0681612 L10.4308198,14.0681612 C9.68043287,14.0681612 9.07212411,14.67647 9.07212411,15.4268569 C9.07212411,16.1772438 9.68043287,16.7855525 10.4308198,16.7855525 L15.4127038,16.7855525 L15.4127038,20.408741 L10.4308198,20.408741 C9.68043287,20.408741 9.07212411,21.0170497 9.07212411,21.7674366 C9.07212411,22.5178235 9.68043287,23.1261323 10.4308198,23.1261323 L15.4127038,23.1261323 L15.4127038,27.2022192 C15.4127038,27.9526061 16.0210126,28.5609149 16.7713995,28.5609149 C17.5217863,28.5609149 18.1300951,27.9526061 18.1300951,27.2022192 L18.1300951,23.1261323 L23.1119792,23.1261323 C23.862366,23.1261323 24.4706748,22.5178235 24.4706748,21.7674366 C24.4706748,21.0170497 23.862366,20.408741 23.1119792,20.408741 L18.1300951,20.408741 L18.1300951,16.7855525 L23.1119792,16.7855525 Z" id="路径"></path>
            </g>
        </g>
    </g>
</svg>