<?xml version="1.0" encoding="UTF-8"?>
<svg width="16px" height="16px" viewBox="0 0 16 16" version="1.1" xmlns="http://www.w3.org/2000/svg" xmlns:xlink="http://www.w3.org/1999/xlink">
    <!-- Generator: Sketch 57 (83077) - https://sketch.com -->
    <title>放大</title>
    <desc>Created with Sketch.</desc>
    <g id="Ukey-申请流程" stroke="none" stroke-width="1" fill="none" fill-rule="evenodd">
        <g id="印章管理-ukey申请-资料上传" transform="translate(-490.000000, -537.000000)" fill="#FFFFFF">
            <path d="M505.896803,552.39788 L502.784541,549.285738 C502.625901,549.459476 502.45949,549.625887 502.285751,549.78455 L505.397897,552.896786 C505.535703,553.034405 505.758997,553.034405 505.896803,552.896786 C506.034399,552.75898 506.034399,552.535686 505.896803,552.39788 Z M497.054031,537 C493.158237,537 490,540.158233 490,544.054117 C490,547.949906 493.158237,551.108139 497.054031,551.108139 C500.949895,551.108139 504.108131,547.949906 504.108131,544.054117 C504.108131,540.158233 500.949895,537 497.054031,537 Z M497.054031,550.40277 C493.547779,550.40277 490.70537,547.560271 490.70537,544.054117 C490.70537,540.547775 493.547779,537.705463 497.054031,537.705463 C500.560376,537.705463 503.402785,540.547775 503.402785,544.054117 C503.402785,547.560271 500.560376,550.40277 497.054031,550.40277 Z M500.228443,543.70135 L497.406798,543.70135 L497.406798,540.879708 C497.406798,540.685019 497.248884,540.527105 497.054031,540.527105 C496.859248,540.527105 496.701427,540.685019 496.701427,540.879708 L496.701427,543.70135 L493.879689,543.70135 C493.685023,543.70135 493.527015,543.859264 493.527015,544.054117 C493.527015,544.248876 493.685023,544.406696 493.879689,544.406696 L496.701427,544.406696 L496.701427,547.228338 C496.701427,547.423214 496.859248,547.581128 497.054031,547.581128 C497.248884,547.581128 497.406798,547.423214 497.406798,547.228338 L497.406798,544.40679 L500.228443,544.40679 C500.423202,544.40679 500.58114,544.248876 500.58114,544.054117 C500.58114,543.859264 500.423202,543.70135 500.228443,543.70135 Z" id="放大"></path>
        </g>
    </g>
</svg>