<svg t="1604994028501" class="icon" viewBox="0 0 1024 1024" version="1.1" xmlns="http://www.w3.org/2000/svg" p-id="1182" width="200" height="200"><path d="M502.183 72.267a18 18 0 0 1 12.777-0.04l365.17 137.306a18 18 0 0 1 11.665 16.831c0.2 204.701 0.2 328.856 0 372.538a18 18 0 0 1-0.7 4.886c-11.053 38.48-55.496 90.495-127.129 155.593-18.443 16.76-38.474 34.16-59.903 52.107-34.393 28.804-70.93 57.827-109.372 87.261a4646.513 4646.513 0 0 1-41.794 31.613c-5.701 4.266-23.452 17.493-26.31 19.642a18 18 0 0 1-19.325 1.473C313.15 847.347 188.463 732.413 133.87 605.953a18 18 0 0 1-1.474-7.134V226.382a18 18 0 0 1 11.558-16.808l358.23-137.307z m6.504 36.061L168.396 238.759v356.295c50.733 114.444 165.802 221.083 345.82 319.256 6.238-4.654 13.786-10.282 17.114-12.772a4611.18 4611.18 0 0 0 41.475-31.373C610.861 841.028 647 812.32 680.948 783.89c21.075-17.65 40.744-34.735 58.807-51.15 64.86-58.943 106.166-106.87 116.051-136.67 0.186-44.88 0.186-163.974 0-357.22l-347.12-130.521z" fill="#cccccc" p-id="1183"></path>

<path d="M358.867 350.882c-9.94 0-18-8.06-18-18 0-9.941 8.06-18 18-18h316.02c9.94 0 18 8.059 18 18 0 9.94-8.06 18-18 18 h-316.02z" fill="#ccc" p-id="1184"></path>

<path d="M498.877 350.941c0-9.941 8.059-18 18-18s18 8.059 18 18v315.882c0 9.94-8.059 18-18 18s-18-8.06-18-18V317.94z" fill="#ccc" p-id="1185" data-spm-anchor-id="a313x.7781069.0.i0" class="selected"></path></svg>