<?xml version="1.0" encoding="UTF-8"?>
<svg width="18px" height="18px" viewBox="0 0 18 18" version="1.1" xmlns="http://www.w3.org/2000/svg" xmlns:xlink="http://www.w3.org/1999/xlink">
    <!-- Generator: Sketch 57 (83077) - https://sketch.com -->
    <title>椭圆形</title>
    <desc>Created with Sketch.</desc>
    <g id="Ukey-申请流程" stroke="none" stroke-width="1" fill="none" fill-rule="evenodd">
        <g id="印章管理-ukey申请-资料上传" transform="translate(-1101.000000, -694.000000)">
            <g id="编组-2" transform="translate(1101.000000, 694.000000)">
                <circle id="椭圆形" fill="#D8D8D8" cx="9" cy="9" r="9"></circle>
                <path d="M6.13525396,5.47989917 L8.9636667,8.30841869 L11.7920743,5.4798653 C11.9873365,5.28460315 12.303919,5.28460315 12.4991811,5.4798653 C12.6944433,5.67512744 12.6944433,5.99170993 12.4991811,6.18697208 L9.6706667,9.01541869 L12.499215,11.8438602 C12.6944771,12.0391223 12.6944771,12.3557048 12.499215,12.550967 C12.3039528,12.7462291 11.9873704,12.7462291 11.7921082,12.550967 L8.9636667,9.72241869 L6.13522009,12.5509331 C5.93995794,12.7461953 5.62337545,12.7461953 5.42811331,12.5509331 C5.23285116,12.355671 5.23285116,12.0390885 5.42811331,11.8438263 L8.2566667,9.01541869 L5.42814718,6.18700595 C5.23288503,5.9917438 5.23288503,5.67516131 5.42814718,5.47989917 C5.62340932,5.28463702 5.93999181,5.28463702 6.13525396,5.47989917 Z" id="形状结合" fill="#FFFFFF"></path>
            </g>
        </g>
    </g>
</svg>