<?xml version="1.0" encoding="UTF-8"?>
<svg width="548px" height="30px" viewBox="0 0 548 30" version="1.1" xmlns="http://www.w3.org/2000/svg" xmlns:xlink="http://www.w3.org/1999/xlink">
    <!-- Generator: Sketch 57 (83077) - https://sketch.com -->
    <title>Group 5</title>
    <desc>Created with Sketch.</desc>
    <g id="Ukey-申请流程" stroke="none" stroke-width="1" fill="none" fill-rule="evenodd">
        <g id="付款开票信息填写" transform="translate(-984.000000, -106.000000)">
            <g id="Group-5" transform="translate(984.000000, 106.000000)">
                <path d="M15,0 L122.729203,0 C123.708859,-1.705535e-14 124.654454,0.359514275 125.386658,1.01036273 L136.898259,11.2428967 C138.54939,12.7105688 138.698113,15.2388582 137.230441,16.8899893 C137.197839,16.9266665 137.164565,16.9627406 137.130635,16.9981934 L125.868803,28.7656594 C125.114242,29.5540978 124.070298,30 122.978971,30 L15,30 C6.71572875,30 1.01453063e-15,23.2842712 0,15 C-1.01453063e-15,6.71572875 6.71572875,1.52179594e-15 15,0 Z" id="Rectangle-23" fill="#C0CCDA"></path>
                <path d="M136.547185,0 L258.475346,0 C259.445547,3.61312264e-14 260.38268,0.352621897 261.112224,0.992197576 L272.785903,11.2262692 C274.447066,12.6825766 274.613135,15.2097861 273.156828,16.8709495 C273.112371,16.9216598 273.066639,16.9712378 273.019675,17.0196358 L261.602489,28.7855642 C260.849181,29.5618819 259.81357,30 258.731839,30 L136.316885,30 C135.7646,30 135.316885,29.5522847 135.316885,29 C135.316885,28.7449983 135.414302,28.4996296 135.589215,28.3140725 L146.317324,16.933099 C147.832633,15.325575 147.757878,12.7940186 146.150354,11.2787095 C146.14291,11.2716921 146.135439,11.2647033 146.12794,11.2577433 L135.866861,1.73291147 C135.462086,1.35717889 135.438541,0.72445181 135.814274,0.31967598 C136.003492,0.115831958 136.269056,-5.99308121e-17 136.547185,0 Z" id="Rectangle-23-Copy" fill="#C0CCDA"></path>
                <path d="M272.547185,0 L394.475346,0 C395.445547,3.61312264e-14 396.38268,0.352621897 397.112224,0.992197576 L408.785903,11.2262692 C410.447066,12.6825766 410.613135,15.2097861 409.156828,16.8709495 C409.112371,16.9216598 409.066639,16.9712378 409.019675,17.0196358 L397.602489,28.7855642 C396.849181,29.5618819 395.81357,30 394.731839,30 L272.316885,30 C271.7646,30 271.316885,29.5522847 271.316885,29 C271.316885,28.7449983 271.414302,28.4996296 271.589215,28.3140725 L282.317324,16.933099 C283.832633,15.325575 283.757878,12.7940186 282.150354,11.2787095 C282.14291,11.2716921 282.135439,11.2647033 282.12794,11.2577433 L271.866861,1.73291147 C271.462086,1.35717889 271.438541,0.72445181 271.814274,0.31967598 C272.003492,0.115831958 272.269056,-5.99308121e-17 272.547185,0 Z" id="Rectangle-23-Copy-2" fill="#C0CCDA"></path>
                <path d="M408.230301,0 L532.632924,0 C540.917195,-1.52179594e-15 547.632924,6.71572875 547.632924,15 C547.632924,23.2842712 540.917195,30 532.632924,30 L408,30 C407.447715,30 407,29.5522847 407,29 C407,28.7449983 407.097417,28.4996296 407.27233,28.3140725 L418.000439,16.933099 C419.515748,15.325575 419.440993,12.7940186 417.833469,11.2787095 C417.826025,11.2716921 417.818554,11.2647033 417.811056,11.2577433 L407.549977,1.73291147 C407.145201,1.35717889 407.121657,0.72445181 407.497389,0.31967598 C407.686607,0.115831958 407.952171,4.951807e-16 408.230301,0 Z" id="Rectangle-23-Copy-3" fill="#02ADFF"></path>
                <text id="1.资料上传" font-family="PingFangSC-Regular, PingFang SC" font-size="14" font-weight="normal" fill="#FFFFFF">
                    <tspan x="37" y="20">1.资料上传</tspan>
                </text>
                <text id="2.创建Ukey印章" font-family="PingFangSC-Regular, PingFang SC" font-size="14" font-weight="normal" fill="#FFFFFF">
                    <tspan x="154" y="20">2.创建Ukey印章</tspan>
                </text>
                <text id="3.订单支付" font-family="PingFangSC-Regular, PingFang SC" font-size="14" font-weight="normal" fill="#FFFFFF">
                    <tspan x="306" y="20">3.订单支付</tspan>
                </text>
                <text id="4.申请完成" font-family="PingFangSC-Regular, PingFang SC" font-size="14" font-weight="normal" fill="#FFFFFF">
                    <tspan x="443" y="20">4.申请完成</tspan>
                </text>
            </g>
        </g>
    </g>
</svg>