<?xml version="1.0" encoding="UTF-8"?>
<svg width="548px" height="30px" viewBox="0 0 548 30" version="1.1" xmlns="http://www.w3.org/2000/svg" xmlns:xlink="http://www.w3.org/1999/xlink">
    <!-- Generator: Sketch 57 (83077) - https://sketch.com -->
    <title>Group 5</title>
    <desc>Created with Sketch.</desc>
    <g id="Ukey-申请流程" stroke="none" stroke-width="1" fill="none" fill-rule="evenodd">
        <g id="印章管理-ukey申请-资料上传" transform="translate(-982.000000, -110.000000)">
            <g id="Group-5" transform="translate(982.000000, 110.000000)">
                <path d="M15,0 L122.729203,0 C123.708859,-1.705535e-14 124.654454,0.359514275 125.386658,1.01036273 L136.898259,11.2428967 C138.54939,12.7105688 138.698113,15.2388582 137.230441,16.8899893 C137.197839,16.9266665 137.164565,16.9627406 137.130635,16.9981934 L125.868803,28.7656594 C125.114242,29.5540978 124.070298,30 122.978971,30 L15,30 C6.71572875,30 1.01453063e-15,23.2842712 0,15 C-1.01453063e-15,6.71572875 6.71572875,1.52179594e-15 15,0 Z" id="Rectangle-23" fill="#02ADFF"></path>
                <path d="M136.547185,0.5 C136.408121,0.5 136.275339,0.557915979 136.18073,0.65983799 C135.992863,0.862225905 136.004636,1.17858945 136.207023,1.36645574 L146.468102,10.8912875 C146.48074,10.9030488 146.48074,10.9030488 146.493318,10.9148745 C148.301782,12.6195973 148.385882,15.4675983 146.681159,17.2760628 L135.95305,28.6570363 C135.865594,28.7498148 135.816885,28.8724991 135.816885,29 C135.816885,29.2761424 136.040743,29.5 136.316885,29.5 L258.731839,29.5 C259.678353,29.5 260.584513,29.1166467 261.243657,28.4373686 L272.660844,16.6714403 C272.701937,16.629092 272.741953,16.5857113 272.780852,16.5413397 C274.055121,15.0878218 273.909811,12.8765135 272.456293,11.6022445 L260.782614,1.36817288 C260.144263,0.80854416 259.324272,0.5 258.475346,0.5 L136.547185,0.5 Z" id="Rectangle-23-Copy" stroke="#EEEEEE" fill="#FFFFFF"></path>
                <path d="M272.547185,0.5 C272.408121,0.5 272.275339,0.557915979 272.18073,0.65983799 C271.992863,0.862225905 272.004636,1.17858945 272.207023,1.36645574 L282.468102,10.8912875 C282.48074,10.9030488 282.48074,10.9030488 282.493318,10.9148745 C284.301782,12.6195973 284.385882,15.4675983 282.681159,17.2760628 L271.95305,28.6570363 C271.865594,28.7498148 271.816885,28.8724991 271.816885,29 C271.816885,29.2761424 272.040743,29.5 272.316885,29.5 L394.731839,29.5 C395.678353,29.5 396.584513,29.1166467 397.243657,28.4373686 L408.660844,16.6714403 C408.701937,16.629092 408.741953,16.5857113 408.780852,16.5413397 C410.055121,15.0878218 409.909811,12.8765135 408.456293,11.6022445 L396.782614,1.36817288 C396.144263,0.80854416 395.324272,0.5 394.475346,0.5 L272.547185,0.5 Z" id="Rectangle-23-Copy-2" stroke="#E8ECEF" fill="#FFFFFF"></path>
                <path d="M408.230301,0.5 C408.091236,0.5 407.958454,0.557915979 407.863845,0.65983799 C407.675979,0.862225905 407.687751,1.17858945 407.890139,1.36645574 L418.151218,10.8912875 C418.163855,10.9030488 418.163855,10.9030488 418.176433,10.9148745 C419.984898,12.6195973 420.068997,15.4675983 418.364274,17.2760628 L407.636165,28.6570363 C407.548709,28.7498148 407.5,28.8724991 407.5,29 C407.5,29.2761424 407.723858,29.5 408,29.5 L532.632924,29.5 C540.641053,29.5 547.132924,23.0081289 547.132924,15 C547.132924,6.99187113 540.641053,0.5 532.632924,0.5 L408.230301,0.5 Z" id="Rectangle-23-Copy-3" stroke="#E8ECEF" fill="#FFFFFF"></path>
                <text id="1.资料上传" font-family="PingFangSC-Regular, PingFang SC" font-size="14" font-weight="normal" fill="#FFFFFF">
                    <tspan x="37" y="20">1.资料上传</tspan>
                </text>
                <text id="2.创建Ukey印章" font-family="PingFangSC-Regular, PingFang SC" font-size="14" font-weight="normal" fill="#999999">
                    <tspan x="154" y="20">2.创建Ukey印章</tspan>
                </text>
                <text id="3.订单支付" font-family="PingFangSC-Regular, PingFang SC" font-size="14" font-weight="normal" fill="#999999">
                    <tspan x="306" y="20">3.订单支付</tspan>
                </text>
                <text id="4.申请完成" font-family="PingFangSC-Regular, PingFang SC" font-size="14" font-weight="normal" fill="#999999">
                    <tspan x="443" y="20">4.申请完成</tspan>
                </text>
            </g>
        </g>
    </g>
</svg>