<?xml version="1.0" encoding="UTF-8"?>
<svg width="16px" height="16px" viewBox="0 0 16 16" version="1.1" xmlns="http://www.w3.org/2000/svg" xmlns:xlink="http://www.w3.org/1999/xlink">
    <!-- Generator: Sketch 57 (83077) - https://sketch.com -->
    <title>Combined Shape</title>
    <desc>Created with Sketch.</desc>
    <g id="Ukey-申请流程" stroke="none" stroke-width="1" fill="none" fill-rule="evenodd">
        <g id="印章管理-ukey申请-资料上传" transform="translate(-463.000000, -626.000000)" fill="#02ADFF">
            <g id="Combined-Shape-2" transform="translate(463.000000, 626.000000)">
                <path d="M15.5043545,8.78293931 C15.7761087,8.78293931 15.9839484,8.98495225 16,9.24922378 L16,9.24922378 L16,12.8551351 C16,14.0363454 15.0090458,15 13.794133,15 L13.794133,15 L2.20577716,15 C0.991043955,15 0,14.0363454 0,12.8551351 L0,12.8551351 L0,9.24922378 C0,8.98495225 0.207749932,8.78293931 0.479414286,8.78293931 C0.751190889,8.78293931 0.95903062,8.98495225 0.95903062,9.24922378 L0.95903062,9.24922378 L0.95903062,12.8551351 C0.95903062,13.523498 1.51843334,14.0675402 2.20568736,14.0675402 L2.20568736,14.0675402 L13.7780815,14.0675402 C14.4654477,14.0675402 15.0248505,13.523498 15.0248505,12.8551351 L15.0248505,12.8551351 L15.0248505,9.24922378 C15.0248505,8.98495225 15.2326677,8.78293931 15.5043545,8.78293931 Z M8.00809147,1.00130069 L8.07182796,1.01170623 L8.07182796,1.01170623 L8.14368117,1.03503137 L8.14368117,1.03503137 L8.16766591,1.04283552 C8.18362768,1.0583565 8.19967925,1.0583565 8.21573082,1.07387749 C8.21573082,1.07387749 8.23178238,1.08939848 8.24765435,1.08939848 C8.27957789,1.10500678 8.31156877,1.1359396 8.32746319,1.15154791 L8.32746319,1.15154791 L11.6842163,4.41545183 C11.8760942,4.5864228 11.8760942,4.88171447 11.6842163,5.06829374 C11.5883559,5.16150697 11.4605046,5.20813542 11.3485253,5.20813542 C11.2367929,5.20813542 11.1088518,5.16150697 11.012924,5.06829374 L11.012924,5.06829374 L8.47145585,2.5969206 L8.47145585,10.3371335 C8.47145585,10.6012959 8.26361612,10.8034835 7.99192932,10.8034835 C7.72017516,10.8034835 7.51242523,10.6012959 7.51242523,10.3371335 L7.51242523,10.3371335 L7.51242523,2.5969206 L4.97095705,5.06829374 C4.87491704,5.16150697 4.76311732,5.20813542 4.63535582,5.20813542 C4.50739228,5.20813542 4.39550276,5.16150697 4.26765146,5.06829374 C4.0758633,4.89732277 4.0758633,4.60194379 4.26765146,4.41545183 L4.26765146,4.41545183 L7.62431476,1.15154791 C7.65641789,1.12050594 7.67228986,1.10500678 7.7043032,1.08939848 C7.7043032,1.08939848 7.72017516,1.07387749 7.73622673,1.07387749 C7.75216605,1.0583565 7.76812782,1.04283552 7.78408959,1.04283552 C7.80014115,1.04283552 7.81610292,1.02722721 7.83206469,1.02722721 L7.88003979,1.01170623 C7.94292153,0.996097924 8.00885642,0.996097924 8.07182796,1.01170623 Z" id="Combined-Shape"></path>
            </g>
        </g>
    </g>
</svg>