<?xml version="1.0" encoding="UTF-8"?>
<svg width="16px" height="19px" viewBox="0 0 16 19" version="1.1" xmlns="http://www.w3.org/2000/svg" xmlns:xlink="http://www.w3.org/1999/xlink">
    <!-- Generator: Sketch 60 (88103) - https://sketch.com -->
    <title>使用手册</title>
    <desc>Created with Sketch.</desc>
    <g id="迭代页面" stroke="none" stroke-width="1" fill="none" fill-rule="evenodd">
        <g id="下载中心" transform="translate(-1393.000000, -827.000000)" fill-rule="nonzero">
            <g id="编组-2" transform="translate(1393.000000, 827.000000)">
                <path d="M6,6 C5.51105442,5.77891156 4.48894558,5.77678571 4,6 L4,2 L6,2 L6,6 Z M3,1 L3,8 C3,8.20620748 3.24659864,8.3125 3.39753401,8.17219388 L4.58054396,7.12035867 C4.82926845,6.94603894 5.18215961,6.96091989 5.38836709,7.09910017 L6.60459184,8.17431973 C6.75552721,8.3125 7,8.20620748 7,8 L7,1 L3,1 Z" id="形状" fill="#F7B500"></path>
                <path d="M0,2 L0,17 C1.3527075e-16,18.1045695 0.8954305,19 2,19 L14,19 C15.1045695,19 16,18.1045695 16,17 L16,2 C16,0.8954305 15.1045695,-2.02906125e-16 14,0 L2,0 C0.8954305,2.02906125e-16 -1.3527075e-16,0.8954305 0,2 Z M13,18 L3,18 C3,18 1,18 1,16.5 C1,15 3,15 3,15 L13,15 C13,15 15,15 15,16.5 C15,17.5 14.3333333,18 13,18 Z M15,14.5 C14.5280612,14.1577381 13.5888605,14 13,14 L3,14 C2.41113946,14 1.47406463,14.1598639 1,14.5 L1,2 C1,1.44771525 1.44771525,1 2,1 L14,1 C14.5522847,1 15,1.44771525 15,2 L15,14.5 L15,14.5 Z" id="形状" fill="#0C6DB0"></path>
            </g>
        </g>
    </g>
</svg>