<?xml version="1.0" encoding="UTF-8"?>
<svg width="83px" height="17px" viewBox="0 0 83 17" version="1.1" xmlns="http://www.w3.org/2000/svg" xmlns:xlink="http://www.w3.org/1999/xlink">
    <!-- Generator: Sketch 52.3 (67297) - http://www.bohemiancoding.com/sketch -->
    <title>直线 copy</title>
    <desc>Created with Sketch.</desc>
    <g id="Page-1" stroke="none" stroke-width="1" fill="none" fill-rule="evenodd">
        <g id="印章管理-UKEY印章订单查看" transform="translate(-863.000000, -286.000000)" fill="#7ED321" fill-rule="nonzero">
            <g id="直线-copy-5" transform="translate(864.000000, 294.000000)">
                <path id="直线-copy" d="M77.353672,-0.263087008 L68.2597388,-5.37842446 C67.7783809,-5.64918827 67.6076607,-6.25890336 67.8784245,-6.74026124 C68.1491883,-7.22161912 68.7589034,-7.39233934 69.2402612,-7.12157554 L81.2402612,-0.371575537 C81.9199129,0.0107285332 81.9199129,0.989271467 81.2402612,1.37157554 L69.2402612,8.12157554 C68.7589034,8.39233934 68.1491883,8.22161912 67.8784245,7.74026124 C67.6076607,7.25890336 67.7783809,6.64918827 68.2597388,6.37842446 L77.353672,1.26308701 C77.1373199,1.07965581 77,0.805864289 77,0.5 C77,0.194135711 77.1373199,-0.0796558084 77.353672,-0.263087008 Z M0,1.5 C-0.55228475,1.5 -1,1.05228475 -1,0.5 C-1,-0.0522847498 -0.55228475,-0.5 0,-0.5 L2,-0.5 C2.55228475,-0.5 3,-0.0522847498 3,0.5 C3,1.05228475 2.55228475,1.5 2,1.5 L0,1.5 Z M6,1.5 C5.44771525,1.5 5,1.05228475 5,0.5 C5,-0.0522847498 5.44771525,-0.5 6,-0.5 L8,-0.5 C8.55228475,-0.5 9,-0.0522847498 9,0.5 C9,1.05228475 8.55228475,1.5 8,1.5 L6,1.5 Z M12,1.5 C11.4477153,1.5 11,1.05228475 11,0.5 C11,-0.0522847498 11.4477153,-0.5 12,-0.5 L14,-0.5 C14.5522847,-0.5 15,-0.0522847498 15,0.5 C15,1.05228475 14.5522847,1.5 14,1.5 L12,1.5 Z M18,1.5 C17.4477153,1.5 17,1.05228475 17,0.5 C17,-0.0522847498 17.4477153,-0.5 18,-0.5 L20,-0.5 C20.5522847,-0.5 21,-0.0522847498 21,0.5 C21,1.05228475 20.5522847,1.5 20,1.5 L18,1.5 Z M24,1.5 C23.4477153,1.5 23,1.05228475 23,0.5 C23,-0.0522847498 23.4477153,-0.5 24,-0.5 L26,-0.5 C26.5522847,-0.5 27,-0.0522847498 27,0.5 C27,1.05228475 26.5522847,1.5 26,1.5 L24,1.5 Z M30,1.5 C29.4477153,1.5 29,1.05228475 29,0.5 C29,-0.0522847498 29.4477153,-0.5 30,-0.5 L32,-0.5 C32.5522847,-0.5 33,-0.0522847498 33,0.5 C33,1.05228475 32.5522847,1.5 32,1.5 L30,1.5 Z M36,1.5 C35.4477153,1.5 35,1.05228475 35,0.5 C35,-0.0522847498 35.4477153,-0.5 36,-0.5 L38,-0.5 C38.5522847,-0.5 39,-0.0522847498 39,0.5 C39,1.05228475 38.5522847,1.5 38,1.5 L36,1.5 Z M42,1.5 C41.4477153,1.5 41,1.05228475 41,0.5 C41,-0.0522847498 41.4477153,-0.5 42,-0.5 L44,-0.5 C44.5522847,-0.5 45,-0.0522847498 45,0.5 C45,1.05228475 44.5522847,1.5 44,1.5 L42,1.5 Z M48,1.5 C47.4477153,1.5 47,1.05228475 47,0.5 C47,-0.0522847498 47.4477153,-0.5 48,-0.5 L50,-0.5 C50.5522847,-0.5 51,-0.0522847498 51,0.5 C51,1.05228475 50.5522847,1.5 50,1.5 L48,1.5 Z M54,1.5 C53.4477153,1.5 53,1.05228475 53,0.5 C53,-0.0522847498 53.4477153,-0.5 54,-0.5 L56,-0.5 C56.5522847,-0.5 57,-0.0522847498 57,0.5 C57,1.05228475 56.5522847,1.5 56,1.5 L54,1.5 Z M60,1.5 C59.4477153,1.5 59,1.05228475 59,0.5 C59,-0.0522847498 59.4477153,-0.5 60,-0.5 L62,-0.5 C62.5522847,-0.5 63,-0.0522847498 63,0.5 C63,1.05228475 62.5522847,1.5 62,1.5 L60,1.5 Z M66,1.5 C65.4477153,1.5 65,1.05228475 65,0.5 C65,-0.0522847498 65.4477153,-0.5 66,-0.5 L68,-0.5 C68.5522847,-0.5 69,-0.0522847498 69,0.5 C69,1.05228475 68.5522847,1.5 68,1.5 L66,1.5 Z M72,1.5 C71.4477153,1.5 71,1.05228475 71,0.5 C71,-0.0522847498 71.4477153,-0.5 72,-0.5 L74,-0.5 C74.5522847,-0.5 75,-0.0522847498 75,0.5 C75,1.05228475 74.5522847,1.5 74,1.5 L72,1.5 Z"></path>
            </g>
        </g>
    </g>
</svg>