<?xml version="1.0" encoding="UTF-8"?>
<svg width="64px" height="64px" viewBox="0 0 64 64" version="1.1" xmlns="http://www.w3.org/2000/svg" xmlns:xlink="http://www.w3.org/1999/xlink">
    <!-- Generator: Sketch 52.3 (67297) - http://www.bohemiancoding.com/sketch -->
    <title>审核中</title>
    <desc>Created with Sketch.</desc>
    <g id="Page-1" stroke="none" stroke-width="1" fill="none" fill-rule="evenodd">
        <g id="印章管理-UKEY印章订单查看" transform="translate(-953.000000, -261.000000)">
            <g id="审核中" transform="translate(953.000000, 261.000000)">
                <circle id="椭圆形" fill="#7ED321" cx="32" cy="32" r="32"></circle>
                <path d="M25.9977645,48.0001586 L19,48.001741 C17.3431458,48.0020033 15.9997875,46.6590701 15.9995252,45.0022159 C15.9995252,45.0020576 15.9995252,45.0018993 15.9995252,45.0017411 L16,19 C16,17.3431458 17.3431458,16 19,16 L41,16 C42.6568542,16 44,17.3431458 44,19 L44,26 C44,26.5522847 43.5522847,27 43,27 C42.4477153,27 42,26.5522847 42,26 L42,19 C42,18.4477153 41.5522847,18 41,18 L19,18 C18.4477153,18 18,18.4477153 18,19 L18,44.9955289 C18,45.5478137 18.4477153,45.9955289 19,45.9955289 L25.9977645,45.9955289 C26.5512839,45.9955289 27,46.4442451 27,46.9977645 C27,47.5513095 26.5513095,48.000071 25.9977645,48.0001586 Z M43.7556998,42.2862105 L47.7022865,46.2327973 C48.0928108,46.6233216 48.0928108,47.2564866 47.7022865,47.6470109 C47.3117622,48.0375352 46.6785973,48.0375352 46.288073,47.6470109 L42.2641699,43.6231078 C41.2455784,44.2863881 40.0305925,44.6721371 38.7274318,44.6721371 C35.1431448,44.6721371 32.2274128,41.7563671 32.2274128,38.1721181 C32.2274128,34.5878691 35.1431448,31.6721371 38.7274318,31.6721371 C42.3116808,31.6721371 45.2274128,34.5889354 45.2274128,38.1721181 C45.2274128,39.7315677 44.6750272,41.1647454 43.7556998,42.2862105 Z M38.7274283,33.6721371 C36.246431,33.6721371 34.2274128,35.6904421 34.2274128,38.1721216 C34.2274128,40.6530879 36.246431,42.6721371 38.7274283,42.6721371 C41.2083945,42.6721371 43.2274128,40.6530879 43.2274128,38.1721216 C43.2274128,35.6911554 41.2083945,33.6721371 38.7274283,33.6721371 Z M38,26.0044711 L22.0022355,26.0044711 C21.4487161,26.0044711 21,25.5557549 21,25.0022355 C21,24.4488536 21.4486047,24.0002489 22.0019866,24.0002489 C22.0020696,24.0002489 22.0021525,24.0002489 22.0022355,24.0002489 L38,24.0042227 C38.5523249,24.0043599 39,24.4521461 39,25.0044711 C39,25.5567558 38.5522847,26.0044711 38,26.0044711 Z M30,33.0044711 L22.0022355,33.0044711 C21.4487161,33.0044711 21,32.5557549 21,32.0022355 C21,31.4489636 21.4485156,31.000448 22.0017875,31.000448 C22.0019368,31.000448 22.0020861,31.000448 22.0022354,31.0004481 L30.0000001,31.0040239 C30.5523571,31.0042709 31,31.452114 31,32.0044711 C31,32.5567558 30.5522847,33.0044711 30,33.0044711 Z M26,40.005031 L22.0022355,40.005031 C21.4487161,40.005031 21,39.5563149 21,39.0027955 C21,38.4496884 21.4483819,38.0013065 22.001489,38.0013065 C22.0017377,38.0013065 22.0019865,38.0013066 22.0022352,38.0013068 L26.0000003,38.0042859 C26.5524054,38.0046975 27,38.4526258 27,39.005031 C27,39.5573158 26.5522847,40.005031 26,40.005031 Z" id="合并形状" fill="#FFFFFF"></path>
            </g>
        </g>
    </g>
</svg>