<?xml version="1.0" encoding="UTF-8"?>
<svg width="64px" height="64px" viewBox="0 0 64 64" version="1.1" xmlns="http://www.w3.org/2000/svg" xmlns:xlink="http://www.w3.org/1999/xlink">
    <!-- Generator: Sketch 52.3 (67297) - http://www.bohemiancoding.com/sketch -->
    <title>审核未通过</title>
    <desc>Created with Sketch.</desc>
    <g id="Page-1" stroke="none" stroke-width="1" fill="none" fill-rule="evenodd">
        <g id="印章管理-UKEY印章订单查看" transform="translate(-1807.000000, -261.000000)">
            <g id="审核未通过" transform="translate(1807.000000, 261.000000)">
                <circle id="椭圆形-copy-13" fill="#D0021B" cx="32" cy="32" r="32"></circle>
                <path d="M41.3386782,39.9289322 L46.2884257,34.9791847 C46.67895,34.5886604 47.312115,34.5886604 47.7026393,34.9791847 C48.0931635,35.369709 48.0931635,36.002874 47.7026393,36.3933983 L42.7528918,41.3431458 L47.7026393,46.2928932 C48.0931635,46.6834175 48.0931635,47.3165825 47.7026393,47.7071068 C47.312115,48.0976311 46.67895,48.0976311 46.2884257,47.7071068 L41.3386782,42.7573593 L36.3889308,47.7071068 C35.9984065,48.0976311 35.3652415,48.0976311 34.9747172,47.7071068 C34.5841929,47.3165825 34.5841929,46.6834175 34.9747172,46.2928932 L39.9244647,41.3431458 L34.9747172,36.3933983 C34.5841929,36.002874 34.5841929,35.369709 34.9747172,34.9791847 C35.3652415,34.5886604 35.9984065,34.5886604 36.3889308,34.9791847 L41.3386782,39.9289322 Z M25.9982393,48.0001586 L19.0004748,48.001741 C17.3436206,48.0020033 16.0002623,46.6590701 16,45.0022159 C16,45.0020576 16,45.0018993 16,45.0017411 L16.0004748,19 C16.0004748,17.3431458 17.3436205,16 19.0004748,16 L41.0004748,16 C42.657329,16 44.0004748,17.3431458 44.0004748,19 L44.0004748,26 C44.0004748,26.5522847 43.5527595,27 43.0004748,27 C42.44819,27 42.0004748,26.5522847 42.0004748,26 L42.0004748,19 C42.0004748,18.4477153 41.5527595,18 41.0004748,18 L19.0004748,18 C18.44819,18 18.0004748,18.4477153 18.0004748,19 L18.0004748,44.9955289 C18.0004748,45.5478137 18.44819,45.9955289 19.0004748,45.9955289 L25.9982393,45.9955289 C26.5517587,45.9955289 27.0004748,46.4442451 27.0004748,46.9977645 C27.0004748,47.5513095 26.5517843,48.000071 25.9982393,48.0001586 Z M38.0004748,26.0044711 L22.0027103,26.0044711 C21.4491909,26.0044711 21.0004748,25.5557549 21.0004748,25.0022355 C21.0004748,24.4488536 21.4490795,24.0002489 22.0024614,24.0002489 C22.0025444,24.0002489 22.0026273,24.0002489 22.0027103,24.0002489 L38.0004748,24.0042227 C38.5527997,24.0043599 39.0004748,24.4521461 39.0004748,25.0044711 C39.0004748,25.5567558 38.5527595,26.0044711 38.0004748,26.0044711 Z M30.0004748,33.0044711 L22.0027103,33.0044711 C21.4491909,33.0044711 21.0004748,32.5557549 21.0004748,32.0022355 C21.0004748,31.4489636 21.4489903,31.000448 22.0022623,31.000448 C22.0024116,31.000448 22.0025609,31.000448 22.0027102,31.0004481 L30.0004749,31.0040239 C30.5528319,31.0042709 31.0004748,31.452114 31.0004748,32.0044711 C31.0004748,32.5567558 30.5527595,33.0044711 30.0004748,33.0044711 Z M26.0004748,40.005031 L22.0027103,40.005031 C21.4491909,40.005031 21.0004748,39.5563149 21.0004748,39.0027955 C21.0004748,38.4496884 21.4488567,38.0013065 22.0019638,38.0013065 C22.0022125,38.0013065 22.0024613,38.0013066 22.00271,38.0013068 L26.0004751,38.0042859 C26.5528802,38.0046975 27.0004748,38.4526258 27.0004748,39.005031 C27.0004748,39.5573158 26.5527595,40.005031 26.0004748,40.005031 Z" id="合并形状" fill="#FFFFFF"></path>
            </g>
        </g>
    </g>
</svg>