<?xml version="1.0" encoding="UTF-8"?>
<svg width="64px" height="64px" viewBox="0 0 64 64" version="1.1" xmlns="http://www.w3.org/2000/svg" xmlns:xlink="http://www.w3.org/1999/xlink">
    <!-- Generator: Sketch 52.3 (67297) - http://www.bohemiancoding.com/sketch -->
    <title>完成</title>
    <desc>Created with Sketch.</desc>
    <g id="Page-1" stroke="none" stroke-width="1" fill="none" fill-rule="evenodd">
        <g id="印章管理-UKEY印章订单查看" transform="translate(-1442.000000, -261.000000)">
            <g id="完成" transform="translate(1442.000000, 261.000000)">
                <circle id="椭圆形-copy-10" cx="32" cy="32" r="32"></circle>
                <path d="M39.5355339,40.6568542 L42.363961,37.8284271 C42.7544853,37.4379028 43.3876503,37.4379028 43.7781746,37.8284271 C44.1686989,38.2189514 44.1686989,38.8521164 43.7781746,39.2426407 L40.2426407,42.7781746 C39.8521164,43.1686989 39.2189514,43.1686989 38.8284271,42.7781746 L36.7071068,40.6568542 C36.3165825,40.26633 36.3165825,39.633165 36.7071068,39.2426407 C37.0976311,38.8521164 37.7307961,38.8521164 38.1213203,39.2426407 L39.5355339,40.6568542 Z M40,48 C35.581722,48 32,44.418278 32,40 C32,35.581722 35.581722,32 40,32 C44.418278,32 48,35.581722 48,40 C48,44.418278 44.418278,48 40,48 Z M40,46 C43.3137085,46 46,43.3137085 46,40 C46,36.6862915 43.3137085,34 40,34 C36.6862915,34 34,36.6862915 34,40 C34,43.3137085 36.6862915,46 40,46 Z M25.9982393,48.0001586 L19.0004748,48.001741 C17.3436206,48.0020033 16.0002623,46.6590701 16,45.0022159 C16,45.0020576 16,45.0018993 16,45.0017411 L16.0004748,19 C16.0004748,17.3431458 17.3436205,16 19.0004748,16 L41.0004748,16 C42.657329,16 44.0004748,17.3431458 44.0004748,19 L44.0004748,26 C44.0004748,26.5522847 43.5527595,27 43.0004748,27 C42.44819,27 42.0004748,26.5522847 42.0004748,26 L42.0004748,19 C42.0004748,18.4477153 41.5527595,18 41.0004748,18 L19.0004748,18 C18.44819,18 18.0004748,18.4477153 18.0004748,19 L18.0004748,44.9955289 C18.0004748,45.5478137 18.44819,45.9955289 19.0004748,45.9955289 L25.9982393,45.9955289 C26.5517587,45.9955289 27.0004748,46.4442451 27.0004748,46.9977645 C27.0004748,47.5513095 26.5517843,48.000071 25.9982393,48.0001586 Z M38.0004748,26.0044711 L22.0027103,26.0044711 C21.4491909,26.0044711 21.0004748,25.5557549 21.0004748,25.0022355 C21.0004748,24.4488536 21.4490795,24.0002489 22.0024614,24.0002489 C22.0025444,24.0002489 22.0026273,24.0002489 22.0027103,24.0002489 L38.0004748,24.0042227 C38.5527997,24.0043599 39.0004748,24.4521461 39.0004748,25.0044711 C39.0004748,25.5567558 38.5527595,26.0044711 38.0004748,26.0044711 Z M30.0004748,33.0044711 L22.0027103,33.0044711 C21.4491909,33.0044711 21.0004748,32.5557549 21.0004748,32.0022355 C21.0004748,31.4489636 21.4489903,31.000448 22.0022623,31.000448 C22.0024116,31.000448 22.0025609,31.000448 22.0027102,31.0004481 L30.0004749,31.0040239 C30.5528319,31.0042709 31.0004748,31.452114 31.0004748,32.0044711 C31.0004748,32.5567558 30.5527595,33.0044711 30.0004748,33.0044711 Z M26.0004748,40.005031 L22.0027103,40.005031 C21.4491909,40.005031 21.0004748,39.5563149 21.0004748,39.0027955 C21.0004748,38.4496884 21.4488567,38.0013065 22.0019638,38.0013065 C22.0022125,38.0013065 22.0024613,38.0013066 22.00271,38.0013068 L26.0004751,38.0042859 C26.5528802,38.0046975 27.0004748,38.4526258 27.0004748,39.005031 C27.0004748,39.5573158 26.5527595,40.005031 26.0004748,40.005031 Z" id="合并形状" fill="#7ED321"></path>
            </g>
        </g>
    </g>
</svg>