<?xml version="1.0" encoding="UTF-8"?>
<svg width="64px" height="64px" viewBox="0 0 64 64" version="1.1" xmlns="http://www.w3.org/2000/svg" xmlns:xlink="http://www.w3.org/1999/xlink">
    <!-- Generator: Sketch 52.3 (67297) - http://www.bohemiancoding.com/sketch -->
    <title>椭圆形 copy 12</title>
    <desc>Created with Sketch.</desc>
    <g id="Page-1" stroke="none" stroke-width="1" fill="none" fill-rule="evenodd">
        <g id="印章管理-UKEY印章订单查看" transform="translate(-627.000000, -261.000000)">
            <g id="分组" transform="translate(627.000000, 261.000000)">
                <circle id="椭圆形-copy-12" fill="#7ED321" cx="32" cy="32" r="32"></circle>
                <path d="M45,27.0017411 L45,27.0017411 C45.5522847,27.0017411 46,27.4494563 46,28.0017411 L46,45.0017411 C46,46.6585953 44.6568542,48.0017411 43,48.0017411 L21,48.0017411 C19.3431458,48.0017411 18,46.6585953 18,45.0017411 L18,22.0017411 C18,20.3448868 19.3431458,19.0017411 21,19.0017411 L36,19.0017411 C36.5522847,19.0017411 37,19.4494563 37,20.0017411 L37,20.0017411 C37,20.5540258 36.5522847,21.0017411 36,21.0017411 L21,21.0017411 C20.4477153,21.0017411 20,21.4494563 20,22.0017411 L20,45.0017411 C20,45.5540258 20.4477153,46.0017411 21,46.0017411 L43,46.0017411 C43.5522847,46.0017411 44,45.5540258 44,45.0017411 L44,28.0017411 C44,27.4494563 44.4477153,27.0017411 45,27.0017411 Z M22.9962292,40.0017411 L29.0037708,40.0017411 C29.553973,40.0017411 30,39.555714 30,39.0055118 L30,39.0055118 C30,38.4553096 29.553973,38.0092826 29.0037708,38.0092826 L22.9962292,38.0092826 C22.446027,38.0092826 22,38.4553096 22,39.0055118 L22,39.0055118 C22,39.555714 22.446027,40.0017411 22.9962292,40.0017411 Z M23,34.0017411 L35,34.0017411 C35.5522847,34.0017411 36,33.5540258 36,33.0017411 L36,33.0017411 C36,32.4494563 35.5522847,32.0017411 35,32.0017411 L23,32.0017411 C22.4477153,32.0017411 22,32.4494563 22,33.0017411 L22,33.0017411 C22,33.5540258 22.4477153,34.0017411 23,34.0017411 Z M37.6133304,27.7626492 L44.1157275,16.500167 C44.3918699,16.0218744 45.0034603,15.8579992 45.4817529,16.1341416 L45.4817529,16.1341416 C45.9600455,16.4102839 46.1239207,17.0218744 45.8477783,17.500167 L39.3453812,28.7626492 C39.0692388,29.2409418 38.4576484,29.4048169 37.9793558,29.1286746 L37.9793558,29.1286746 C37.5010632,28.8525322 37.337188,28.2409418 37.6133304,27.7626492 Z" id="xiugaidingdan" fill="#FFFFFF"></path>
            </g>
        </g>
    </g>
</svg>