<?xml version="1.0" encoding="UTF-8"?>
<svg width="64px" height="64px" viewBox="0 0 64 64" version="1.1" xmlns="http://www.w3.org/2000/svg" xmlns:xlink="http://www.w3.org/1999/xlink">
    <!-- Generator: Sketch 52.3 (67297) - http://www.bohemiancoding.com/sketch -->
    <title>付款成功</title>
    <desc>Created with Sketch.</desc>
    <g id="Page-1" stroke="none" stroke-width="1" fill="none" fill-rule="evenodd">
        <g id="印章管理-UKEY印章订单查看" transform="translate(-790.000000, -261.000000)">
            <g id="付款成功" transform="translate(790.000000, 261.000000)">
                <circle id="椭圆形-copy-11" fill="#7ED321" cx="32" cy="32" r="32"></circle>
                <path d="M22.5355339,40.6523832 L25.363961,37.8239561 C25.7544853,37.4334318 26.3876503,37.4334318 26.7781746,37.8239561 C27.1686989,38.2144804 27.1686989,38.8476453 26.7781746,39.2381696 L23.2426407,42.7737035 C22.8521164,43.1642278 22.2189514,43.1642278 21.8284271,42.7737035 L19.7071068,40.6523832 C19.3165825,40.2618589 19.3165825,39.6286939 19.7071068,39.2381696 C20.0976311,38.8476453 20.7307961,38.8476453 21.1213203,39.2381696 L22.5355339,40.6523832 Z M29.261136,44.9757993 C27.7954275,46.8160276 25.5354574,47.9955289 23,47.9955289 C18.581722,47.9955289 15,44.4138069 15,39.9955289 C15,37.0343995 16.6087945,34.4490242 19,33.0657865 L19,24.9955289 C19,24.3407274 19.2097848,23.7349236 19.5658101,23.241662 C20.0098999,22.152022 20.9280461,21.270079 22.1384893,20.9126998 L38.3594799,16.1235081 C38.393709,16.113402 38.4281158,16.1039076 38.4626837,16.0950294 C40.0674544,15.682868 41.7025009,16.6496689 42.1146623,18.2544396 L43.0755052,21.9955289 L44,21.9955289 C45.6568542,21.9955289 47,23.3386747 47,24.9955289 L47,41.9921904 C47,41.9933026 46.9999994,41.9944149 46.9999981,41.9955271 C46.9981553,43.6523803 45.6535165,44.9940313 43.9966633,44.9921885 L29.261136,44.9757993 Z M21,32.2475639 C21.6392398,32.083035 22.3094009,31.9955289 23,31.9955289 C27.418278,31.9955289 31,35.5772509 31,39.9955289 C31,41.0564294 30.7934929,42.0690975 30.418483,42.9955289 L44,42.9955289 C44.5522847,42.9955289 45,42.5478137 45,41.9955289 L45,37.9955289 L41.5,37.9955289 C39.0147186,37.9955289 37,35.9808103 37,33.4955289 C37,31.0102476 39.0147186,28.9955289 41.5,28.9955289 L45,28.9955289 L45,24.9955289 C45,24.4432442 44.5522847,23.9955289 44,23.9955289 L43.5891753,23.9955289 L41.5268872,23.9955289 L22,23.9955289 C21.4477153,23.9955289 21,24.4432442 21,24.9955289 L21,32.2475639 Z M25.90633,21.9955289 L41.0192333,21.9955289 L40.1854794,18.7107956 C40.1814449,18.694901 40.1770201,18.6791081 40.1722089,18.6634311 C40.0101742,18.1354508 39.4508066,17.8387932 38.9228263,18.0008279 L25.90633,21.9955289 Z M41.5,35.9955289 L45,35.9955289 L45,30.9955289 L41.5,30.9955289 C40.1192881,30.9955289 39,32.1148171 39,33.4955289 C39,34.8762408 40.1192881,35.9955289 41.5,35.9955289 Z M41.0832688,33.4378042 C41.0832688,33.0895513 41.2694301,32.7676777 41.5715025,32.5935679 C41.8736921,32.4194248 42.2460147,32.4194248 42.5480479,32.5935679 C42.8502766,32.7676777 43.0363988,33.0895513 43.0363988,33.4378042 C43.0363988,33.7860238 42.8502766,34.1077643 42.5480479,34.2819074 C42.2460147,34.4560172 41.8736921,34.4560172 41.5715025,34.2819074 C41.2694301,34.1077643 41.0832688,33.7860238 41.0832688,33.4378042 Z M23,45.9955289 C26.3137085,45.9955289 29,43.3092374 29,39.9955289 C29,36.6818204 26.3137085,33.9955289 23,33.9955289 C19.6862915,33.9955289 17,36.6818204 17,39.9955289 C17,43.3092374 19.6862915,45.9955289 23,45.9955289 Z" id="合并形状" fill="#FFFFFF"></path>
            </g>
        </g>
    </g>
</svg>