<?xml version="1.0" encoding="UTF-8"?>
<svg width="64px" height="64px" viewBox="0 0 64 64" version="1.1" xmlns="http://www.w3.org/2000/svg" xmlns:xlink="http://www.w3.org/1999/xlink">
    <!-- Generator: Sketch 52.3 (67297) - http://www.bohemiancoding.com/sketch -->
    <title>生产中</title>
    <desc>Created with Sketch.</desc>
    <g id="Page-1" stroke="none" stroke-width="1" fill="none" fill-rule="evenodd">
        <g id="印章管理-UKEY印章订单查看" transform="translate(-1116.000000, -261.000000)">
            <g id="生产中" transform="translate(1116.000000, 261.000000)">
                <circle id="椭圆形-copy-9" fill="#7ED321" cx="32" cy="32" r="32"></circle>
                <path d="M24.113227,35.8298713 L23.996671,35.4262423 L23.1790461,35.0862964 L22.8006747,35.2927942 C21.6252543,35.9342851 20.1676765,35.7244491 19.2209388,34.7774478 C18.2750876,33.8313334 18.0690009,32.3737024 18.7154895,31.2024555 L18.9217921,30.8286961 L18.5830583,30.0162692 L18.167235,29.8941122 C16.8824294,29.5166731 16,28.3377215 16,26.9986226 C16,25.6608324 16.8848929,24.4843513 18.1701975,24.1133057 L18.5789025,23.9953196 L18.9192036,23.1773358 L18.7114951,22.7988571 C18.0676267,21.6256243 18.2755943,20.1681965 19.2219124,19.2218754 C20.1682296,18.2755551 21.6256567,18.0675862 22.7988875,18.7114555 L23.1728243,18.9166721 L23.9913041,18.5756575 L24.1118881,18.1614507 C24.4847331,16.8807255 25.6584178,16 26.9923108,16 L27.0077245,16 C28.3416121,16 29.5152933,16.8807184 29.8881431,18.1614365 L30.0087196,18.57561 L30.8274607,18.9165058 L31.2011005,18.7114575 C32.3743411,18.0675996 33.8317682,18.2755767 34.7780876,19.2218991 C35.7244071,20.1682217 35.9323803,21.6256495 35.2885197,22.7988889 L35.0809626,23.1770983 L35.4191264,23.9896202 L35.8312542,24.1096336 C37.1163228,24.4838514 38,25.6615649 38,27.0000119 C38,28.3384609 37.1163267,29.5161784 35.8312589,29.8904062 L35.4191977,30.0104036 L35.0836224,30.8179385 L35.2917919,31.1992564 C35.9334777,32.3746746 35.7239282,33.8323648 34.7771258,34.7794308 C33.8313443,35.7254755 32.3737178,35.9315813 31.20272,35.2848454 L30.8331601,35.0807395 L30.014799,35.4221815 L29.8941774,35.8327651 C29.5167294,37.1175603 28.3377852,37.9999811 26.9986939,37.9999881 C25.660894,37.9999952 24.4843786,37.1151554 24.113227,35.8298713 Z M28.3363978,34.9516288 C28.4846914,34.294131 28.9428685,33.7495035 29.5652857,33.4908701 L29.7732081,33.404472 C30.3965171,33.145468 31.1068319,33.2056466 31.6776835,33.5658211 C32.2100695,33.901726 32.9041075,33.8241332 33.3491687,33.3789506 L33.3795709,33.3485401 C33.8250268,32.9029627 33.9021316,32.2081392 33.5652021,31.6757402 C33.2039192,31.1048593 33.1432688,30.3938069 33.4026475,29.7699856 L33.4872161,29.5665932 C33.7463735,28.9433043 34.2917687,28.4844508 34.9502051,28.3357466 C35.5640628,28.1971103 36,27.6517397 36,27.0224217 L36,26.9775783 C36,26.3482603 35.5640628,25.8028897 34.9502051,25.6642534 C34.2917578,25.5155468 33.7463332,25.0567245 33.4870965,24.4334566 L33.4028308,24.2308613 C33.1432755,23.6068273 33.203666,22.8955153 33.5647093,22.3241702 C33.9014301,21.791315 33.8240182,21.0962721 33.3783075,20.650562 L33.3473341,20.6195887 C32.9029701,20.1752252 32.2098301,20.0985343 31.6790722,20.4350077 C31.1098911,20.7958394 30.4005724,20.8566388 29.7782875,20.597934 L29.5652869,20.5093824 C28.9427629,20.2505781 28.4844015,19.7059548 28.3356923,19.0483824 C28.1970468,18.4353108 27.652298,18 27.0237446,18 L26.9762354,18 C26.3476792,18 25.8029265,18.4353094 25.6642742,19.0483824 C25.5155587,19.7059509 25.0571795,20.2505601 24.4346438,20.50933 L24.2271842,20.5955649 C23.6039765,20.8546141 22.8937135,20.7943654 22.3230444,20.4340445 C21.7908187,20.0979968 21.0968096,20.1754231 20.6517294,20.6205028 L20.6214633,20.6507688 C20.1758636,21.0963679 20.0984377,21.7912241 20.4350219,22.3239798 C20.7959286,22.8952339 20.8563614,23.6063552 20.5970271,24.2303188 L20.5126953,24.4332228 C20.2535787,25.0566626 19.7082689,25.5157704 19.0497949,25.6648694 C18.4358603,25.8038833 18,26.3494698 18,26.9789461 L18,27.0238274 C18,27.6529755 18.436012,28.1981174 19.0497837,28.3363626 C19.7081389,28.4846496 20.2535203,28.9433381 20.5124583,29.5665329 L20.5971405,29.7703404 C20.8564087,30.3943299 20.7960957,31.105418 20.4354363,31.6768266 C20.099064,32.2097559 20.1765876,32.9045817 20.6221468,33.3502688 L20.6533316,33.3814625 C21.0978023,33.8260609 21.7912534,33.9027437 22.3221261,33.5660003 C22.8914574,33.2048617 23.6011012,33.1439604 24.2236399,33.4028132 L24.4345488,33.4905096 C25.0571846,33.7494028 25.5157404,34.2939915 25.6648341,34.9516176 C25.8038435,35.5647632 26.3488004,36 26.9775064,36 L27.0252401,36 C27.6536235,36 28.1981435,35.5646144 28.3363978,34.9516288 Z M23.466003,30.5355767 C22.5206417,29.5912342 22,28.3355951 22,27 C22,25.6644049 22.5206417,24.4087658 23.466003,23.4644233 C24.4113872,22.5200807 25.6683579,22 27.0053937,22 C28.3424296,22 29.5994232,22.5200807 30.5447845,23.4644233 C31.4901458,24.4087658 32.0107875,25.6644049 32.0107875,27 C32.0107875,28.3355722 31.4901458,29.5912342 30.5447845,30.5355767 C29.5994232,31.4799193 28.3424067,32 27.0053937,32 C25.6683579,31.9999771 24.4113643,31.4799193 23.466003,30.5355767 Z M24,27.0000191 C24,28.6542199 25.3458035,30 27.0000096,30 C28.6542156,30 30,28.6542199 30,27.0000191 C30,25.3458184 28.6542156,24.0000191 27.0000096,24.0000191 C25.3458035,24 24,25.3458184 24,27.0000191 Z M36.0665742,45.5856721 L36.0979438,45.2817441 L35.6392217,44.8297585 L35.3278214,44.8659192 C34.3604483,44.9782536 33.4347487,44.4396536 33.0543507,43.5431453 C32.674309,42.6474766 32.9324603,41.6084265 33.6874937,40.9947665 L33.9284342,40.7989399 L33.9213593,40.1588227 L33.6742437,39.9631628 C32.9107091,39.3586156 32.6368681,38.3232199 33.0016938,37.4202444 C33.3661631,36.5181514 34.2833823,35.965913 35.2511715,36.0658811 L35.558912,36.0976693 L36.0112349,35.638802 L35.974287,35.3269995 C35.8597534,34.3604539 36.3970527,33.4343463 37.2929868,33.0540431 C38.1889201,32.6737403 39.2283454,32.9305668 39.8440569,33.6843745 L40.0402989,33.9246311 L40.6851191,33.9176672 L40.8758118,33.6756127 C41.4782032,32.910971 42.5131115,32.6359063 43.4156535,33.0005569 C44.3181965,33.365208 44.8715737,34.2819796 44.7737377,35.2504745 L44.7427701,35.5570274 L45.201986,36.0099577 L45.5098009,35.9734853 C46.4763489,35.8589609 47.4024534,36.3962664 47.7827542,37.2922029 C48.1630551,38.1881396 47.9062312,39.2275666 47.1524271,39.8432862 L46.9094282,40.0417716 L46.9160929,40.6817977 L47.1613006,40.8750052 C47.9258902,41.4774519 48.2009099,42.5123528 47.8362618,43.4148886 C47.471613,44.3174259 46.5548794,44.8708303 45.5863828,44.7730725 L45.2758312,44.7417262 L44.8295417,45.1948351 L44.866027,45.5086777 C44.9784934,46.4761024 44.440056,47.401956 43.5435924,47.7826294 C42.6480954,48.1628924 41.6090432,47.9047552 40.9956184,47.1496229 L40.8020253,46.9113077 L40.1571686,46.9185921 L39.9639717,47.1625928 C39.3594213,47.926118 38.3240329,48.1999552 37.4210606,47.8351363 C36.5189591,47.4706692 35.9666831,46.5534764 36.0665742,45.5856721 Z M39.1535942,46.1440253 C39.4327205,45.7410655 39.8900555,45.4986409 40.3802236,45.4938125 L40.5439673,45.4921995 C41.0348378,45.4873641 41.4974191,45.7214625 41.784227,46.1198574 C42.0517089,46.4914073 42.5408491,46.6281698 42.962247,46.4492292 L42.9910327,46.4370057 C43.4128043,46.2579064 43.6540959,45.8103825 43.5719464,45.359584 C43.4838592,44.8762016 43.6366817,44.3802041 43.9815395,44.0302171 L44.0939779,43.9161064 C44.4385414,43.566418 44.9313206,43.405594 45.4158278,43.4847057 C45.867532,43.5584612 46.3100727,43.3094765 46.4815249,42.8851174 L46.4937421,42.8548788 C46.6651943,42.4305198 46.5198164,41.9440005 46.1436528,41.6832758 C45.7401652,41.4036123 45.4973789,40.9456251 45.4923754,40.4547189 L45.490749,40.2951483 C45.4857394,39.8036387 45.7202524,39.3404428 46.1193675,39.0535388 C46.4915954,38.7859628 46.6287537,38.2961942 46.4496337,37.8742149 L46.4371863,37.8448907 C46.2586076,37.4241863 45.8121062,37.1836326 45.3625386,37.2659215 C44.8804253,37.3541676 44.3855563,37.2019179 44.0364216,36.8579331 L43.9169171,36.7401912 C43.5676483,36.3960742 43.4069459,35.9039496 43.4858187,35.4200236 C43.5593539,34.9688471 43.3106178,34.5268981 42.8867744,34.3556542 L42.8547382,34.3427107 C42.4308928,34.1714661 41.9449612,34.316589 41.6844394,34.6922192 C41.4050095,35.0951117 40.9475431,35.3374689 40.4572579,35.3423571 L40.2938707,35.3439861 C39.8030562,35.3488795 39.340529,35.114748 39.0538841,34.7163042 C38.7865492,34.3447017 38.2974737,34.2078347 37.8760911,34.3867007 L37.8474365,34.3988639 C37.4255621,34.5779386 37.184045,35.0253971 37.2658645,35.4763421 C37.3535963,35.9598736 37.2006083,36.4558582 36.8557417,36.8059534 L36.743596,36.9197993 C36.3990189,37.2696005 35.9062281,37.4306192 35.4215879,37.3517635 C34.9697291,37.2782417 34.5271813,37.5273929 34.355686,37.9518587 L34.3434585,37.9821229 C34.1720526,38.4063674 34.3175432,38.8927528 34.6937554,39.1531904 C35.0972952,39.4325458 35.3400888,39.890431 35.3449108,40.3812065 L35.3464878,40.541708 C35.351316,41.0331094 35.1169163,41.4961755 34.7180426,41.7832268 C34.3460296,42.0509477 34.2090058,42.5406004 34.3880298,42.9625229 L34.4005597,42.9920533 C34.5791464,43.4129452 35.0258598,43.6535783 35.4755785,43.5711385 C35.9578765,43.4827264 36.4529926,43.6349959 36.802258,43.9791497 L36.9205851,44.095745 C37.2699051,44.4399524 37.430748,44.9321067 37.3521198,45.4161736 C37.2788099,45.8674992 37.5277064,46.309455 37.9516528,46.4807404 L37.9838404,46.4937451 C38.4075692,46.6649426 38.8933646,46.519705 39.1535942,46.1440253 Z M37.072525,41.8393154 C36.6923309,40.944975 36.6833419,39.9564335 37.0472131,39.0558207 C37.4110842,38.1552079 38.104249,37.450355 38.9989989,37.0711253 C39.8937642,36.6919019 40.8830508,36.6836539 41.7846351,37.0479177 C42.6862194,37.4121814 43.3921386,38.1053369 43.7723327,38.9996773 C44.1525268,39.8940178 44.1615159,40.8825593 43.7976447,41.7831721 C43.4337797,42.6837694 42.7406087,43.3886378 41.8458588,43.7678675 C40.951109,44.1470971 39.9617915,44.1553326 39.0602226,43.7910751 C38.1586446,43.426796 37.4527192,42.7336559 37.072525,41.8393154 Z M38.3958393,39.6007161 C37.9451668,40.7161697 38.4860173,41.9903028 39.6014745,42.4409768 C40.7169317,42.8916507 41.9910613,42.3508172 42.4417338,41.2353636 C42.8924063,40.1199099 42.351574,38.8457692 41.2361168,38.3950952 C40.1206648,37.9444083 38.8465119,38.4852625 38.3958393,39.6007161 Z" id="合并形状" fill="#FFFFFF" fill-rule="nonzero"></path>
            </g>
        </g>
    </g>
</svg>