<?xml version="1.0" encoding="UTF-8"?>
<svg width="64px" height="64px" viewBox="0 0 64 64" version="1.1" xmlns="http://www.w3.org/2000/svg" xmlns:xlink="http://www.w3.org/1999/xlink">
    <!-- Generator: Sketch 52.3 (67297) - http://www.bohemiancoding.com/sketch -->
    <title>等待收货</title>
    <desc>Created with Sketch.</desc>
    <g id="Page-1" stroke="none" stroke-width="1" fill="none" fill-rule="evenodd">
        <g id="印章管理-UKEY印章订单查看" transform="translate(-1279.000000, -261.000000)">
            <g id="等待收货" transform="translate(1279.000000, 261.000000)">
                <circle id="椭圆形-copy-8" cx="32" cy="32" r="32"></circle>
                <path d="M25,44 C24.4477153,44 24,43.5522847 24,43 C24,42.4477153 24.4477153,42 25,42 C25.5522847,42 26,42.4477153 26,43 C26,43.5522847 25.5522847,44 25,44 Z M44,44 C43.4477153,44 43,43.5522847 43,43 C43,42.4477153 43.4477153,42 44,42 C44.5522847,42 45,42.4477153 45,43 C45,43.5522847 44.5522847,44 44,44 Z M19,42 L20.1000181,42 C20.2500024,41.2611224 20.5629193,40.5814107 20.9996338,40.0000001 L19,40 L19,40.0045031 L17,40.005031 C16.4469033,40.0022484 16,39.553091 16,38.9999873 L16,35.0017411 C16,34.4494563 16.4477153,34.0017411 17,34.0017411 C17.5522847,34.0017411 18,34.4494563 18,35.0017411 L18,38.0092826 L24.6928043,38.0092826 C24.7944136,38.003124 24.896842,38 25,38 C25.103158,38 25.2055864,38.003124 25.3071957,38.0092826 L35,38.0092826 C35.5522847,38.0092826 36,37.5615673 36,37.0092826 L36,19 C36,18.4477153 35.5522847,18 35,18 L19,18 C18.4477153,18 18,18.4477153 18,19 L18,20.9955264 C18,21.5481738 17.552646,21.996529 17,21.9977645 C16.9992565,21.9977661 16.998513,21.997767 16.9977695,21.997767 C16.4467166,21.997767 16,21.5510504 16,20.9999975 L16,19 C16,17.3431458 17.3431458,16 19,16 L42.5643748,16 C43.7427938,16 44.8120722,16.6899074 45.2977414,17.7635911 L48.0564174,23.8622792 C48.3038781,24.4093482 48.7098052,24.8695747 49.2216857,25.1834214 L51.5680983,26.6220654 C52.457729,27.1675202 53,28.1360822 53,29.1796165 L53,39.9955289 L47.9979976,39.9968492 C48.4359493,40.5789544 48.7497266,41.2597873 48.8999819,42 L51,42 L51,40 L53,40 L53,42 C53,43.1045695 52.1045695,44 51,44 L48.8999819,44 C48.4367116,46.2822403 46.4189579,48 44,48 C41.5810421,48 39.5632884,46.2822403 39.1000181,44 L29.8999819,44 C29.4367116,46.2822403 27.4189579,48 25,48 C22.5810421,48 20.5632884,46.2822403 20.1000181,44 L19,44 L19,44.005031 C17.8954305,44.005031 17,43.1096005 17,42.005031 L17,40.005031 L19,40.005031 L19,42 Z M25.1327481,40.0028844 C25.0887382,40.0009681 25.0444821,40 25,40 C24.9549756,40 24.9101829,40.0009919 24.8656425,40.0029549 C23.6180048,40.0579431 22.5683464,40.8749711 22.1707057,42 C22.0601542,42.3127789 22,42.6493646 22,43 C22,43.3506354 22.0601542,43.6872211 22.1707057,44 C22.5825421,45.1651924 23.6937812,46 25,46 C26.3062188,46 27.4174579,45.1651924 27.8292943,44 C27.9398458,43.6872211 28,43.3506354 28,43 C28,42.6493646 27.9398458,42.3127789 27.8292943,42 C27.4314827,40.8744874 26.3810925,40.0572406 25.1327486,40.0028844 Z M40.0004151,39.9989601 L36.060772,40 L29.0003662,40 C29.4370807,40.5814106 29.7499976,41.2611224 29.8999819,42 L39.1000181,42 C39.2500918,41.2606818 39.5632925,40.5806001 40.0004151,39.9989601 Z M43.6928043,38.0092826 C43.7944136,38.003124 43.896842,38 44,38 C44.103158,38 44.2055864,38.003124 44.3071957,38.0092826 L50,38.0092826 C50.5522847,38.0092826 51,37.5615673 51,37.0092826 L51,30.071253 C51,29.4020589 50.6653134,28.7772081 50.1082549,28.4063893 L47.2333778,26.4926609 C46.7545691,26.1739308 46.3774816,25.7242724 46.1470416,25.1972581 L43.524155,19.1987382 C43.2057558,18.4705618 42.4864205,18 41.691676,18 L39,18 C38.4477153,18 38,18.4477153 38,19 L38,37.0092826 C38,37.5615673 38.4477153,38.0092826 39,38.0092826 L43.6928043,38.0092826 Z M20,29 C20.5522847,29 21,29.4477153 21,30 C21,30.5522847 20.5522847,31 20,31 L14,31 C13.4477153,31 13,30.5522847 13,30 C13,29.4477153 13.4477153,29 14,29 L20,29 Z M22,25 C22.5522847,25 23,25.4477153 23,26 C23,26.5522847 22.5522847,27 22,27 L12,27 C11.4477153,27 11,26.5522847 11,26 C11,25.4477153 11.4477153,25 12,25 L22,25 Z M41.1707057,44 C41.5825421,45.1651924 42.6937812,46 44,46 C45.3062188,46 46.4174579,45.1651924 46.8292943,44 C46.9398458,43.6872211 47,43.3506354 47,43 C47,42.6493646 46.9398458,42.3127789 46.8292943,42 C46.4174579,40.8348076 45.3062188,40 44,40 C42.6937812,40 41.5825421,40.8348076 41.1707057,42 C41.0601542,42.3127789 41,42.6493646 41,43 C41,43.3506354 41.0601542,43.6872211 41.1707057,44 Z" id="合并形状" fill="#CDCDCD"></path>
            </g>
        </g>
    </g>
</svg>