<?xml version="1.0" encoding="UTF-8"?>
<svg width="30px" height="30px" viewBox="0 0 30 30" version="1.1" xmlns="http://www.w3.org/2000/svg" xmlns:xlink="http://www.w3.org/1999/xlink">
    <!-- Generator: Sketch 52.3 (67297) - http://www.bohemiancoding.com/sketch -->
    <title>合并形状</title>
    <desc>Created with Sketch.</desc>
    <g id="安全合规" stroke="none" stroke-width="1" fill="none" fill-rule="evenodd">
        <g id="落地页" transform="translate(-883.000000, -1204.000000)" fill="#333333">
            <g id="分组-2" transform="translate(411.000000, 480.000000)">
                <g id="合并形状-8" transform="translate(472.000000, 724.000000)">
                    <path d="M3.91304348,17.8836663 C4.30994856,18.0919155 4.74623521,18.2885495 5.21773309,18.4719784 C7.70350308,19.4390282 11.1679596,20.0390446 15,20.0390446 C18.8321513,20.0390446 22.2966974,19.4389934 24.7824827,18.4718944 C25.2538979,18.2884895 25.690112,18.0918837 26.0869565,17.8836663 C27.7278585,17.0227135 28.6956522,15.9632341 28.6956522,14.8175767 C28.6956522,14.0210691 28.2278598,13.2662163 27.3913043,12.5907735 L27.3913043,11.1383147 C29.0373167,12.185864 30,13.4528025 30,14.8175767 C30,18.422248 23.2842712,21.3444115 15,21.3444115 C6.71572875,21.3444115 0,18.422248 0,14.8175767 C0,13.4528025 0.96268331,12.185864 2.60869565,11.1383147 L2.60869565,12.5907735 C1.77214024,13.2662163 1.30434783,14.0210691 1.30434783,14.8175767 C1.30434783,15.9632341 2.27214151,17.0227135 3.91304348,17.8836663 Z M26.0114645,19.2496296 C25.5760214,19.4543611 25.1107965,19.6469254 24.618785,19.8260192 C25.1107965,19.6469254 25.5760214,19.4543611 26.0114645,19.2496296 Z M5.38786137,19.8284371 C4.89339278,19.6486589 4.42593883,19.4552827 3.98853554,19.2496296 C4.42593883,19.4552827 4.89339278,19.6486589 5.38786137,19.8284371 Z M25.6548742,20.7461549 C25.0518038,22.5050172 23.8442966,24.0273869 22.2027889,25.012248 L19.1158323,26.8643401 C16.5824396,28.3843086 13.4175604,28.3843086 10.8841677,26.8643401 L7.79721115,25.012248 C6.15570341,24.0273869 4.94819624,22.5050172 4.34512576,20.7461549 C4.86429634,20.9616589 5.41207147,21.1616913 5.98534615,21.3447608 C6.495374,22.2533326 7.24157505,23.0288088 8.16962359,23.576085 L12.9745037,26.4095539 C14.2248141,27.14687 15.776434,27.148993 17.0287574,26.4151013 L21.8162215,23.6095319 C22.7611487,23.0557817 23.5187033,22.2657774 24.0317015,21.3393094 C24.5987901,21.1577225 25.1408522,20.9595217 25.6548742,20.7461549 Z M26.0869565,16.568402 C25.7198161,16.8001578 25.2820618,17.0187998 24.7826087,17.2215107 L24.7826087,12.6498322 C24.7826087,10.5587563 23.6939299,8.61851449 21.9092049,7.52885613 L17.0781066,4.57924393 C15.8016435,3.79990332 14.1970443,3.7977477 12.9184919,4.57365588 L8.10456547,7.49505738 C6.3120106,8.58289545 5.2173913,10.5275978 5.2173913,12.6244156 L5.2173913,17.2215107 C4.71793822,17.0187998 4.28018388,16.8001578 3.91304348,16.568402 L3.91304348,12.9600159 C3.91304348,10.2250263 5.31023774,7.67956853 7.61753286,6.21104644 L10.7044894,4.24629395 C13.3252619,2.57825321 16.6747381,2.57825321 19.2955106,4.24629395 L22.3824671,6.21104644 C24.6897623,7.67956853 26.0869565,10.2250263 26.0869565,12.9600159 L26.0869565,16.568402 Z M15.5,22.6461658 L15.5,24.3957738 L14.5,24.3957738 L14.5,22.6461658 C14.6660545,22.6485685 14.8327331,22.6497785 15,22.6497785 C15.1672669,22.6497785 15.3339455,22.6485685 15.5,22.6461658 Z M15.5,18.7305477 C15.3341508,18.7326277 15.1674633,18.7336776 15,18.7336776 C14.8325367,18.7336776 14.6658492,18.7326277 14.5,18.7305477 L14.5,14.4060428 L7.5,14.4060428 L7.5,13.4647808 L14.5,13.4647808 L14.5,8.45617452 L15.5,8.45617452 L15.5,13.4647808 L22.5,13.4647808 L22.5,14.4060428 L15.5,14.4060428 L15.5,18.7305477 Z" id="合并形状"></path>
                </g>
            </g>
        </g>
    </g>
</svg>