<?xml version="1.0" encoding="UTF-8"?>
<svg width="30px" height="30px" viewBox="0 0 30 30" version="1.1" xmlns="http://www.w3.org/2000/svg" xmlns:xlink="http://www.w3.org/1999/xlink">
    <!-- Generator: Sketch 52.3 (67297) - http://www.bohemiancoding.com/sketch -->
    <title>合并形状</title>
    <desc>Created with Sketch.</desc>
    <g id="安全合规" stroke="none" stroke-width="1" fill="none" fill-rule="evenodd">
        <g id="落地页" transform="translate(-883.000000, -787.000000)" fill="#333333">
            <g id="分组-2" transform="translate(411.000000, 480.000000)">
                <g id="合并形状-2" transform="translate(472.000000, 307.000000)">
                    <path d="M17.4233053,29.9325409 C16.6345146,29.9775137 15.8247463,30 15,30 C10.8749583,30 7.12497208,29.4375359 4.49996887,28.3125712 C1.50003845,27.1874599 1.10193105e-12,25.5000311 1.10193105e-12,23.8124558 L8.52651283e-13,6.37493454 C8.52651283e-13,4.49996887 1.50003845,3.0000769 4.49996887,1.68742882 C7.12497208,0.562464066 10.8750499,0 15.0000916,0 C19.1249501,0 22.8750645,0.562464066 25.5000311,1.68742882 C28.4999615,3.0000769 30,4.49996887 30,6.37493454 L30,17.5233073 C29.7037238,17.0777042 29.368795,16.6600167 29,16.2750313 L29,14 C28.4517639,14.2733215 27.9098743,14.5946071 27.3662914,14.9277551 C26.8772595,14.6128292 26.3557466,14.343984 25.8078894,14.1273563 C27.7020206,13.2122988 29,12.0828868 29,11.3142233 L29,9 C27,9.5 26,12 15,12 C7,12 2.92853107,9.77147054 1,9 L1,12 C1.5,13 3.04289266,13.8106637 5.74288889,14.7749925 C8.44288512,15.546463 11.7255543,16 15.0042341,16 C15.433497,16 15.8659957,15.992225 16.2991513,15.9769793 C15.9370672,16.3212886 15.6036191,16.6954316 15.302747,17.0954682 C15.2034765,17.0941675 15.1039723,17.0934817 15.0042341,17.0934817 C12.1113434,17.0934817 9.50721469,17.0768855 7,16.5 C4.87853672,15.9229642 2.92853107,14.9614633 1,14 L1,18 C2.60869565,19 3,19.5 5.5,20.5 C7.80609891,21.1570412 10.5807643,21.5775391 13.5221053,21.8642694 C13.5074503,22.0742758 13.5,22.2862678 13.5,22.5 C13.5,22.7120812 13.5073356,22.9224491 13.521767,23.1308637 C11.1548783,23.0089506 8.7418064,22.5147548 6.73410208,22 C4.6126388,21.4064389 2.92853107,20.4890883 1,19.5 L1,23.7527859 C1,25.1374013 2.80000377,26.7087912 5.5,27.5 C8.19999623,28.2912474 11.7255543,29 15.0042341,29 C15.4044159,29 15.81426,28.9849372 16.2299979,28.9565612 C16.5986348,29.3146119 16.9978331,29.6413677 17.4233053,29.9325409 Z M24.5,9.77285319 C27.434825,8.97904604 29,7.378327 29,6.1875 C29,4.99682804 27.2392872,3.49233645 24.5,2.5 C21.9565946,1.70619285 18.1727549,1 15.0423921,1 C11.7161858,1 8.04344365,1.50781859 5.5,2.5 C2.76086569,3.49233645 1,4.99682804 1,6.1875 C1,7.378327 2.56517502,8.70619285 5.5,9.5 C8.04344365,10.4923365 11.6737937,11 15,11 C18.1303628,11 21.9565946,10.7651896 24.5,9.77285319 Z M22,25.5 C22,25.7761424 22.2238576,26 22.5,26 C22.7761424,26 23,25.7761424 23,25.5 L23,24 L25.0454951,24 C25.3216375,24 25.5454951,23.7761424 25.5454951,23.5 C25.5454951,23.2238576 25.3216375,23 25.0454951,23 L23,23 L23,22 L24.9994828,22 C25.279516,22 25.5100206,21.7797439 25.5227476,21.5 C25.523077,21.4927593 25.5232418,21.485512 25.5232418,21.4782638 C25.5232418,21.214126 25.3091158,21 25.0449779,21 L23,21 L25.5348697,19.3100868 C25.8005933,19.1329378 25.8928221,18.7856442 25.75,18.5 C25.7408489,18.4816977 25.7305682,18.4639823 25.7192176,18.4469564 C25.5680357,18.2201835 25.2616427,18.1589049 25.0348697,18.3100868 L22.5,20 L20.02924,18.3214835 C20.0163591,18.3127328 20.0030939,18.3045616 19.989484,18.2969943 C19.7369573,18.1565845 19.4184194,18.2474733 19.2780097,18.5 C19.1209777,18.7824217 19.2071386,19.1380924 19.4760094,19.3173396 L22,21 L20.0560194,21 C19.779877,21 19.5560194,21.2238576 19.5560194,21.5 C19.5560194,21.7761424 19.779877,22 20.0560194,22 L22,22 L22,23 L20.0007839,23 C19.9919506,23 19.9831189,23.0002472 19.9742994,23.0007412 C19.7131934,23.0153682 19.5133827,23.238894 19.5280097,23.5 C19.5437262,23.7805542 19.7758092,24 20.0568033,24 L22,24 L22,25.5 Z M22.4999162,30 C18.3667288,30 15,26.6361958 15,22.4981983 C15,18.3600332 18.3667288,15 22.4999162,15 C26.6331036,15 30,18.3639718 30,22.5019693 C30,26.6399668 26.6368737,30 22.4999162,30 Z" id="合并形状"></path>
                </g>
            </g>
        </g>
    </g>
</svg>