<?xml version="1.0" encoding="UTF-8"?>
<svg width="30px" height="30px" viewBox="0 0 30 30" version="1.1" xmlns="http://www.w3.org/2000/svg" xmlns:xlink="http://www.w3.org/1999/xlink">
    <!-- Generator: Sketch 52.3 (67297) - http://www.bohemiancoding.com/sketch -->
    <title>合并形状</title>
    <desc>Created with Sketch.</desc>
    <g id="安全合规" stroke="none" stroke-width="1" fill="none" fill-rule="evenodd">
        <g id="落地页" transform="translate(-883.000000, -1137.000000)" fill="#333333">
            <g id="分组-2" transform="translate(411.000000, 480.000000)">
                <g id="合并形状-7" transform="translate(472.000000, 657.000000)">
                    <path d="M20.9682805,11.5354773 L17.0642706,16.6002939 C16.4187234,17.4377863 15.2164822,17.5933885 14.3789899,16.9478413 C14.2871809,16.877074 14.2019884,16.7981154 14.1244618,16.7119382 L13.2443902,15.7336651 C12.879728,15.3283127 12.2575616,15.2897963 11.8456873,15.6470757 L7.92275319,19.0500155 C7.70582337,19.2381908 7.37742083,19.2148806 7.18924559,18.9979508 C7.17180914,18.9778499 7.15594141,18.9564402 7.14178223,18.9339104 C6.95547606,18.6374637 7.01055539,18.2498084 7.27206155,18.0169883 L11.8762851,13.9178277 C12.274605,13.5632018 12.8811264,13.5835573 13.2547735,13.9640915 L14.870072,15.6091631 C15.257014,16.0032371 15.8901526,16.0090188 16.2842266,15.6220768 C16.3131106,15.5937156 16.3402459,15.5636267 16.3654826,15.5319762 L20.0684694,10.8878917 L16.4790959,10.8878917 C16.2015904,10.8878917 15.9766277,10.662929 15.9766277,10.3854235 C15.9766277,10.107918 16.2015904,9.88295534 16.4790959,9.88295534 L20.9389659,9.88295534 C21.4912507,9.88295534 21.9389659,10.3306706 21.9389659,10.8829553 L21.9389659,15.4272307 C21.9389659,15.695278 21.7216706,15.9125734 21.4536232,15.9125734 C21.1855758,15.9125734 20.9682805,15.695278 20.9682805,15.4272307 L20.9682805,11.5354773 Z M14.9782972,28.9767458 L15.3294223,28.7721504 C20.8131802,25.5941961 25.0009343,22.0477997 25.9599332,18.9515304 C26.7704097,16.2918243 26.9582638,11.9781718 26.9582638,5.49932738 C26.9582638,5.14528318 26.6712542,4.85827365 26.31721,4.85827365 L26.2829225,4.85827365 C24.9457254,4.85827365 22.7078393,4.17161708 21.2626798,3.84421126 C18.8044412,3.28500398 16.9127371,2.77316383 15.3998455,1.64109626 L14.9825242,1.34099646 L14.5759809,1.61375694 C13.0632213,2.59587451 11.018916,3.18953282 9.03341686,3.84421126 C7.26394147,4.41710485 5.1593914,4.77645549 3.67367181,4.85827365 L3.63945047,4.85827365 C3.28536972,4.85827365 2.99833055,5.14531281 2.99833055,5.49939357 C2.99833055,11.978238 3.17266462,16.7827332 3.9966611,18.9515304 C4.98260118,21.5431046 8.56258038,25.0485086 14.613619,28.7584974 L14.9782972,28.9767458 Z M14.9758174,30 L14.5635725,29.7575018 C7.72326796,25.6352921 4.25968483,22.2708927 3.14514387,19.3913658 C2.21366959,16.9815912 2,11.7644088 2,4.56569277 C2,4.17226971 2.31893241,3.85333731 2.71235547,3.85333731 L2.76342924,3.85333731 C4.44293836,3.76242825 6.48887205,3.4849494 8.48914858,2.84840097 C10.7336258,2.12098048 12.7622326,1.22790089 14.4723087,0.136659155 L14.5110941,0.11331384 C14.7910595,-0.0552002952 15.1459024,-0.0338421513 15.4036339,0.167036176 C17.1138592,1.42488902 19.3979075,2.22705955 22.1767859,2.84840097 C23.8104444,3.21218521 25.7249566,3.85333731 27.2365708,3.85333731 L27.2877181,3.85333731 C27.6811005,3.85333731 28,4.17223679 28,4.56561924 C28,11.7643353 27.7276412,16.4361368 26.8114505,19.3913658 C25.7273647,22.8316651 21.5717721,26.2416115 15.3727414,29.7726718 L14.9758174,30 Z" id="合并形状"></path>
                </g>
            </g>
        </g>
    </g>
</svg>