<?xml version="1.0" encoding="UTF-8"?>
<svg width="30px" height="30px" viewBox="0 0 30 30" version="1.1" xmlns="http://www.w3.org/2000/svg" xmlns:xlink="http://www.w3.org/1999/xlink">
    <!-- Generator: Sketch 52.3 (67297) - http://www.bohemiancoding.com/sketch -->
    <title>合并形状</title>
    <desc>Created with Sketch.</desc>
    <g id="安全合规" stroke="none" stroke-width="1" fill="none" fill-rule="evenodd">
        <g id="落地页" transform="translate(-883.000000, -927.000000)" fill="#333333">
            <g id="分组-2" transform="translate(411.000000, 480.000000)">
                <g id="合并形状-4" transform="translate(472.000000, 447.000000)">
                    <path d="M21.9920051,26.4946583 C21.9920003,26.4955545 21.9919979,26.4964507 21.9919979,26.4973469 C21.9919979,26.7749545 22.2170434,27 22.494651,27 C22.7737476,27 23,26.7737476 23,26.494651 L23,25 L25,25 C25.2761424,25 25.5,24.7761424 25.5,24.5 C25.5,24.2238576 25.2761424,24 25,24 L23,24 L23,23 L25,23 C25.2761424,23 25.5,22.7761424 25.5,22.5 C25.5,22.2238576 25.2761424,22 25,22 L23,22 L25.5348697,20.3100868 C25.8005933,20.1329378 25.8928221,19.7856442 25.75,19.5 C25.7408489,19.4816977 25.7305682,19.4639823 25.7192176,19.4469564 C25.5680357,19.2201835 25.2616427,19.1589049 25.0348697,19.3100868 L22.5,21 L19.9651303,19.3100868 C19.9481044,19.2987362 19.930389,19.2884556 19.9120867,19.2793044 C19.6683131,19.1574177 19.3718868,19.2562264 19.25,19.5 C19.1071779,19.7856442 19.1994067,20.1329378 19.4651303,20.3100868 L22,22 L20,22 C19.7238576,22 19.5,22.2238576 19.5,22.5 C19.5,22.7761424 19.7238576,23 20,23 L22,23 L21.9893021,24 L20,24 C19.7238576,24 19.5,24.2238576 19.5,24.5 C19.5,24.7761424 19.7238576,25 20,25 L22,25 L21.9920051,26.4946583 Z M22.4999162,30 C18.3667288,30 15,26.6361958 15,22.4981983 C15,18.3600332 18.3667288,15 22.4999162,15 C26.6331036,15 30,18.3639718 30,22.5019693 C30,26.6399668 26.6368737,30 22.4999162,30 Z M13,30 L2,30 C0.8954305,30 -1.24607359e-13,29.1045695 -1.25233157e-13,28 L-1.24344979e-13,2 C-1.2448025e-13,0.8954305 0.8954305,-8.45342949e-13 2,-8.45545856e-13 L22,-8.45989945e-13 C23.1045695,-8.46192851e-13 24,0.8954305 24,2 L24,13 C24,13.2761424 23.7761424,13.5 23.5,13.5 C23.2238576,13.5 23,13.2761424 23,13 L23,2 C23,1.44771525 22.5522847,1 22,1 L2,1 C1.44771525,1 1,1.44771525 1,2 L1,28 C1,28.5522847 1.44771525,29 2,29 L13,29 C13.2761424,29 13.5,29.2238576 13.5,29.5 C13.5,29.7761424 13.2761424,30 13,30 Z M19,8 L5,8 C4.72385763,8 4.5,7.77614237 4.5,7.5 C4.5,7.22385763 4.72385763,7 5,7 L19,7 C19.2761424,7 19.5,7.22385763 19.5,7.5 C19.5,7.77614237 19.2761424,8 19,8 Z M19,12 L5,12 C4.72385763,12 4.5,11.7761424 4.5,11.5 C4.5,11.2238576 4.72385763,11 5,11 L19,11 C19.2761424,11 19.5,11.2238576 19.5,11.5 C19.5,11.7761424 19.2761424,12 19,12 Z M11.5,17 L5,17 C4.72385763,17 4.5,16.7761424 4.5,16.5 C4.5,16.2238576 4.72385763,16 5,16 L11.5,16 C11.7761424,16 12,16.2238576 12,16.5 C12,16.7761424 11.7761424,17 11.5,17 Z" id="合并形状"></path>
                </g>
            </g>
        </g>
    </g>
</svg>