<?xml version="1.0" encoding="UTF-8"?>
<svg width="30px" height="30px" viewBox="0 0 30 30" version="1.1" xmlns="http://www.w3.org/2000/svg" xmlns:xlink="http://www.w3.org/1999/xlink">
    <!-- Generator: Sketch 52.3 (67297) - http://www.bohemiancoding.com/sketch -->
    <title>合并形状</title>
    <desc>Created with Sketch.</desc>
    <g id="安全合规" stroke="none" stroke-width="1" fill="none" fill-rule="evenodd">
        <g id="落地页" transform="translate(-883.000000, -1067.000000)" fill="#333333">
            <g id="分组-2" transform="translate(411.000000, 480.000000)">
                <g id="合并形状-6" transform="translate(472.000000, 587.000000)">
                    <path d="M25,25 L26.6402974,29.5139391 C26.7086392,29.7020091 26.6115803,29.9098718 26.4235104,29.9782136 C26.3838461,29.992627 26.3419686,30 26.2997666,30 L26.2997666,30 C25.9896649,30 25.7130756,29.8049681 25.608938,29.5128749 L24,25 L6,25 L4.66257841,29.458072 C4.56608244,29.7797252 4.27002637,30 3.93421053,30 L3.93421053,30 C3.70748395,30 3.52368574,29.8162018 3.52368574,29.5894752 C3.52368574,29.5462227 3.53052103,29.503242 3.54393869,29.4621234 L5,25 L0.5,25 C0.223857625,25 -2.56147274e-12,24.7761424 -2.56150656e-12,24.5 L-2.56150656e-12,24.5 C-2.56154038e-12,24.2238576 0.223857625,24 0.5,24 L29.5,24 C29.7761424,24 30,24.2238576 30,24.5 L30,24.5 C30,24.7761424 29.7761424,25 29.5,25 L25,25 Z M26,-3.15728791e-15 L3.99608958,1.77635684e-15 C2.89304838,1.97898222e-15 1.9982522,0.89304667 1.99609341,1.99608576 L1.95890806,20.9960858 C1.95674629,22.1006531 2.85042261,22.9978344 3.95498999,22.9999962 C3.95629474,22.9999987 3.95759948,23 3.95890423,23 L26,23 C27.1045695,23 28,22.1045695 28,21 L28,2 C28,0.8954305 27.1045695,-3.7556198e-15 26,-3.55271368e-15 Z M4,22 L26,22 C26.5522847,22 27,21.5522847 27,21 L27,2 C27,1.44771525 26.5522847,1 26,1 L4,1 C3.44771525,1 3,1.44771525 3,2 L3,21 C3,21.5522847 3.44771525,22 4,22 Z M12.1875,17.625 L12.1875,17.625 C11.8262208,17.3841472 11.5706206,17.0143559 11.4729858,16.5912717 L10.5843223,12.7403967 C10.534964,12.5265105 10.3445075,12.375 10.125,12.375 L10.125,12.375 C9.88939429,12.375 9.66801222,12.4877332 9.52943561,12.678276 L7.21788772,15.8566544 C6.9970803,16.1602646 6.57195582,16.2273895 6.26834562,16.0065821 C6.23963444,15.9857012 6.2126032,15.9626032 6.1875,15.9375 L6.1875,15.9375 C5.86571784,15.6157178 5.83256166,15.1051698 6.11002194,14.7444715 L8.68907539,11.391702 C9.1215646,10.829466 9.79066496,10.5 10.5,10.5 L10.5,10.5 C11.1585225,10.5 11.7298919,10.9545315 11.8779669,11.5961901 L12.6903751,15.1166255 C12.7086264,15.1957146 12.7875364,15.2450333 12.8666255,15.226782 C12.8934647,15.2205884 12.9180231,15.2069769 12.9375,15.1875 L12.9375,15.1875 C13.062475,15.062525 13.1838916,14.9340414 13.3016041,14.8022034 L21.9415288,5.12548774 C22.2711812,4.75627703 22.8072926,4.65364631 23.25,4.875 L23.25,4.875 C23.7096495,5.10482477 24,5.57462167 24,6.08852549 L24,10.5 C24,10.9142136 23.6642136,11.25 23.25,11.25 L23.25,11.25 C22.8357864,11.25 22.5,10.9142136 22.5,10.5 L22.5,7.6875 C22.5,7.56862846 22.4036356,7.47226404 22.284764,7.47226404 C22.2236044,7.47226404 22.1653327,7.49828273 22.1245059,7.54382031 L13.2012877,17.4966406 C12.9422764,17.7855379 12.5103403,17.8402269 12.1875,17.625 Z" id="合并形状"></path>
                </g>
            </g>
        </g>
    </g>
</svg>