<?xml version="1.0" encoding="UTF-8"?>
<svg width="30px" height="30px" viewBox="0 0 30 30" version="1.1" xmlns="http://www.w3.org/2000/svg" xmlns:xlink="http://www.w3.org/1999/xlink">
    <!-- Generator: Sketch 52.3 (67297) - http://www.bohemiancoding.com/sketch -->
    <title>合并形状</title>
    <desc>Created with Sketch.</desc>
    <g id="安全合规" stroke="none" stroke-width="1" fill="none" fill-rule="evenodd">
        <g id="落地页" transform="translate(-883.000000, -1271.000000)">
            <g id="分组-2" transform="translate(411.000000, 480.000000)">
                <g id="合并形状-9" transform="translate(472.000000, 791.000000)">
                    <path d="M15.5,27.9888455 L15.5,28 L14.5,28 L14.5,27.992134 C7.5317121,27.75164 1.95652174,22.0268977 1.95652174,15 C1.95652174,13.9528661 2.08032635,12.9346484 2.31409644,11.9591859 C2.58893858,12.2213692 2.87648532,12.4703507 3.17571919,12.7051129 C3.0318671,13.4479183 2.95652174,14.2151602 2.95652174,15 C2.95652174,21.4745587 8.08413055,26.7515002 14.5,26.9914763 L14.5,13.7330078 C13.4233173,14.0763421 12.2816215,14.2608696 11.0992108,14.2608696 C5.9768849,14.2608696 1.61866172,10.7978199 -4.90052443e-13,5.96283621 C1.22198104,5.50815925 2.53622062,5.26086957 3.9050233,5.26086957 C8.82772525,5.26086957 13.0447202,8.45925929 14.8026245,13 L15.2285335,13 C16.7874243,8.4848521 20.8907756,5.26086957 25.7074968,5.26086957 C27.2287108,5.26086957 28.6787719,5.58243567 30,6.16468332 C28.1223723,10.9189868 23.677375,14.2608696 18.4929199,14.2608696 C17.4611932,14.2608696 16.4587509,14.1285225 15.5,13.8790349 L15.5,26.9879122 C21.8751841,26.703749 26.9565217,21.4452795 26.9565217,15 C26.9565217,14.131391 26.8642342,13.2843369 26.6889295,12.4681082 C26.9853163,12.2393941 27.2710568,11.9975556 27.5452807,11.7434633 C27.8137272,12.7841958 27.9565217,13.8754222 27.9565217,15 C27.9565217,21.997644 22.427655,27.703952 15.5,27.9888455 Z M21.0694382,4.67153007 C19.2791208,3.60964255 17.1890161,3 14.9565217,3 C12.6156883,3 10.4313997,3.67024807 8.58509815,4.8293019 C8.18439611,4.68247724 7.77346075,4.55687279 7.35365327,4.45384972 C9.49162368,2.90985539 12.1178187,2 14.9565217,2 C17.6884563,2 20.2235676,2.84270001 22.3160945,4.28233867 C21.8902928,4.38799027 21.4742083,4.51825307 21.0694382,4.67153007 Z M1,6.80684362 C2.40244428,10.5673865 6.17850514,13.2608696 10.6166015,13.2608696 C11.8025624,13.2608696 12.9412486,13.0685331 14,12.7148955 C12.5975557,8.95435262 8.82149486,6.26086957 4.38339848,6.26086957 C3.19743758,6.26086957 2.05875137,6.45320598 1,6.80684362 Z" id="合并形状" fill="#333333"></path>
                    <path d="M16,6.70296625 C17.1450644,6.25010697 18.401784,6 19.7201694,6 C24.1184968,6 27.8304913,8.78365943 29,12.5926574 C28.0395016,12.8578194 27.0236801,13 25.9728028,13 C21.4796084,13 17.6272773,10.4007579 16,6.70296625 Z" id="合并形状-copy-6" fill="#FFFFFF" transform="translate(22.500000, 9.500000) scale(-1, 1) translate(-22.500000, -9.500000) "></path>
                </g>
            </g>
        </g>
    </g>
</svg>