<?xml version="1.0" encoding="UTF-8"?>
<svg width="70px" height="70px" viewBox="0 0 70 70" version="1.1" xmlns="http://www.w3.org/2000/svg" xmlns:xlink="http://www.w3.org/1999/xlink">
    <!-- Generator: Sketch 52.3 (67297) - http://www.bohemiancoding.com/sketch -->
    <title>Fill 1</title>
    <desc>Created with Sketch.</desc>
    <g id="安全合规" stroke="none" stroke-width="1" fill="none" fill-rule="evenodd">
        <g id="落地页" transform="translate(-1378.000000, -1644.000000)" fill="#02ADFF">
            <g id="Fill-11" transform="translate(1378.000000, 1644.000000)">
                <path d="M1.57103665,65 C0.682370155,65 0,64.4749399 0,63.5280393 C0,62.6419969 0.664602142,62.0560786 1.57103665,62.0560786 L68.4692299,62.0560786 C69.3574626,62.0560786 70,62.6368693 70,63.5280393 C70,64.4192093 69.3574626,64.9568053 68.4692299,65 L1.57103665,65 Z M68.4692299,20.7274692 L36.0422294,4.33239572 C35.5979395,3.88920143 35.1539967,3.88920143 34.7096201,4.33239572 L1.83876342,20.7274692 C1.39438679,21.1703173 1.05924289,21.690301 1.05924289,22.3837984 C1.05924289,23.0772959 1.88386328,24.2720716 2.77209598,24.2720716 L6.72499763,24.2720716 L6.72499763,56.2246383 L4.50380856,56.2246383 C3.61557586,56.2246383 2.58240039,56.4039941 2.58240039,57.5051532 C2.58240039,58.3915418 3.19221765,58.8348226 4.50380856,58.8348226 L66.2480409,58.8348226 C67.1362736,58.8348226 67.5261166,57.9483475 67.5261166,57.5051532 C67.5261166,56.6191108 66.8936446,56.2246383 66.2480409,56.2246383 L62.9260599,56.2246383 L62.9260599,24.2720716 L67.1362736,24.2720716 C68.0248533,24.2720716 68.4692299,23.8292235 68.9131728,23.3860292 C69.8017525,22.4999868 69.3574626,21.1703173 68.4692299,20.7274692 Z M35.5152179,7.25934981 L64.0059926,21.4130043 L5.76976827,21.4130043 L35.5152179,7.25934981 Z M26.9219414,56.2246383 L42.4576894,56.2246383 L42.4576894,24.3588131 L26.9219414,24.3588131 L26.9219414,56.2246383 Z M9.368342,56.2246383 L24.0489189,56.2246383 L24.0489189,24.2720716 L9.368342,24.2720716 L9.368342,56.2246383 Z M45.3704079,56.2246383 L60.0750956,56.2246383 L60.0750956,24.2720716 L45.3704079,24.2720716 L45.3704079,56.2246383 Z" id="Fill-1"></path>
            </g>
        </g>
    </g>
</svg>