<?xml version="1.0" encoding="UTF-8"?>
<svg width="33px" height="30px" viewBox="0 0 33 30" version="1.1" xmlns="http://www.w3.org/2000/svg" xmlns:xlink="http://www.w3.org/1999/xlink">
    <!-- Generator: Sketch 52.3 (67297) - http://www.bohemiancoding.com/sketch -->
    <title>合并形状</title>
    <desc>Created with Sketch.</desc>
    <g id="安全合规" stroke="none" stroke-width="1" fill="none" fill-rule="evenodd">
        <g id="落地页" transform="translate(-884.000000, -997.000000)" fill="#333333">
            <g id="分组-2" transform="translate(411.000000, 480.000000)">
                <g id="合并形状-5" transform="translate(473.000000, 517.000000)">
                    <path d="M29.2471818,23.0017649 C29.7251809,23.71663 30.0039433,24.5762834 30.0039433,25.5011146 C30.0039433,27.9857731 27.9918758,29.9999868 25.5098649,29.9999868 C23.0278539,29.9999868 21.0157865,27.9857731 21.0157865,25.5011146 C21.0157865,24.5762833 21.2945488,23.7166299 21.772548,23.0017648 L10.7675694,23.0017646 C11.2455741,23.7166324 11.5243399,24.5762907 11.5243399,25.5011278 C11.5243399,27.9857863 9.51227246,30 7.03026149,30 C4.54825053,30 2.53618309,27.9857863 2.53618309,25.5011278 C2.53618309,24.5762907 2.81494897,23.7166323 3.29295367,23.0017645 L2,23.0017645 C0.8954305,23.0017645 -1.00931316e-13,22.106334 -1.03028697e-13,21.0017645 L7.37188088e-14,2 C7.35835381e-14,0.8954305 0.8954305,-3.58215322e-13 2,-4.56523708e-13 L17.0184183,-4.57189842e-13 C18.1229878,-5.55498227e-13 19.0184183,0.8954305 19.0184183,2 L19.0184183,4.00650296 L23.5009903,4.00562152 C23.5016121,4.0056214 23.5022338,4.00562133 23.5028556,4.00562133 C28.7479811,4.0056201 32.9999965,8.2576335 32.9999978,13.5027591 L33,21.0017649 C33,22.1063344 32.1045695,23.0017649 31,23.0017649 L29.2471818,23.0017649 Z M27.9561571,23.0017649 L23.0635727,23.0017648 C22.4161649,23.6368624 22.0144706,24.5220281 22.0144706,25.5011146 C22.0144706,27.4336268 23.5794119,29.0002374 25.5098649,29.0002374 C27.4403178,29.0002374 29.0052592,27.4336268 29.0052592,25.5011146 C29.0052592,24.5220282 28.6035649,23.6368625 27.9561571,23.0017649 Z M28.3348308,22.0020088 L31.0013126,22.0020088 C31.5535973,22.0020088 32.0013125,21.5542935 32.0013125,21.0020087 L32.0013115,14.0042549 L25.0131547,14.0042549 C23.9085852,14.0042549 23.0131547,13.1088244 23.0131547,12.0042549 L23.0131547,5.00375366 L19.0184183,5.00625234 L19.0184183,22.0020087 L22.684899,22.0020087 C23.4567482,21.3767554 24.4396171,21.0022424 25.5098649,21.0022424 C26.5801127,21.0022424 27.5629816,21.3767554 28.3348308,22.0020088 Z M25.5208805,22.0020088 C25.5172099,22.0019974 25.5135381,22.0019918 25.5098649,22.0019918 C25.5061917,22.0019918 25.5025199,22.0019974 25.4988494,22.0020088 L25.5208805,22.0020088 Z M4.58398308,23.0017645 C3.9365672,23.6368631 3.53486718,24.5220344 3.53486718,25.5011278 C3.53486718,27.43364 5.09980852,29.0002506 7.03026149,29.0002506 C8.96071447,29.0002506 10.5256558,27.43364 10.5256558,25.5011278 C10.5256558,24.5220344 10.1239558,23.6368632 9.47653999,23.0017646 L4.58398308,23.0017645 Z M4.20530462,22.0020147 C4.97715247,21.3767656 5.96001783,21.0022556 7.03026149,21.0022556 C8.10051491,21.0022556 9.08338843,21.3767725 9.85523948,22.0020318 L18.0197342,22.0020565 L18.0195145,2.0035021 C18.0195145,1.45130315 17.5719331,1.00362344 17.0197342,1.00350212 L1.99868367,0.999762604 C1.44639893,0.999641267 0.99858533,1.44725814 0.998463993,1.99954288 C0.998463977,1.99961611 0.998463969,1.99968935 0.998463969,1.99976258 L0.998686671,21.002005 C0.998686671,21.5542885 1.44640008,22.0020033 1.99868364,22.002005 L4.20530462,22.0020147 Z M7.01886094,22.0020232 L7.04168363,22.0020233 C7.03787768,22.0020111 7.0340703,22.002005 7.03026149,22.002005 C7.02645989,22.002005 7.0226597,22.002011 7.01886094,22.0020232 Z M32.0013115,13.0045055 L32.0013115,12.9932268 C32.0013115,12.9923941 32.0013113,12.9915615 32.0013111,12.9907289 C31.9999315,8.5796447 28.4229229,5.00487279 24.0118387,5.00625234 L24.0118383,12.0045059 C24.0118383,12.5567906 24.4595535,13.0045059 25.0118383,13.0045058 L32.0013115,13.0045055 Z M10.4861829,18.9967419 C6.90105599,18.9967419 3.99473636,16.0873221 3.99473636,12.498371 C3.99473636,8.90941978 6.90105599,6 10.4861829,6 C14.0713099,6 16.9776295,8.90941978 16.9776295,12.498371 C16.9776295,16.0873221 14.0713099,18.9967419 10.4861829,18.9967419 Z M10.0311189,16.5048403 C10.0311189,16.7803826 10.25449,17.0037537 10.5300323,17.0037537 C10.8055745,17.0037537 11.0289456,16.7803826 11.0289456,16.5048403 L11.0289456,15.0042549 L13.0266385,15.0042549 C13.3027117,15.0042549 13.5265132,14.7804534 13.5265132,14.5043802 C13.5265132,14.228307 13.3027117,14.0045055 13.0266385,14.0045055 L11.0289456,14.0045055 L11.029803,13.0047561 L13.0266385,13.0047561 C13.3027117,13.0047561 13.5265132,12.7809546 13.5265132,12.5048815 C13.5265132,12.2288083 13.3027117,12.0050068 13.0266385,12.0050068 L11.029803,12.0050068 L13.5610932,10.3156799 C13.8266679,10.1384412 13.9188515,9.79127209 13.7761843,9.50563332 C13.7665113,9.48626679 13.7555633,9.4675638 13.7434125,9.44964773 C13.5917896,9.22608377 13.2876406,9.16776402 13.0640766,9.31938691 L10.578305,11.0052574 L8.00142032,9.31253293 C7.98509784,9.30181089 7.9681569,9.29206134 7.95068583,9.28333511 C7.70540337,9.16082456 7.40724822,9.26035086 7.28473768,9.50563332 C7.14207047,9.79127209 7.23425402,10.1384412 7.49982868,10.3156799 L10.0311189,12.0050068 L7.90717705,12.0050068 C7.88790469,12.0050068 7.86865295,12.0062666 7.84954494,12.0087781 C7.60738395,12.0406074 7.43687646,12.2627205 7.4687058,12.5048815 C7.50630091,12.7909091 7.75009509,13.0047561 8.03858285,13.0047561 L10.0311189,13.0047561 L10.0311189,14.0045055 L8.03428339,14.0045055 C7.75821022,14.0045055 7.5344087,14.228307 7.5344087,14.5043802 C7.5344087,14.7804534 7.75821022,15.0042549 8.03428339,15.0042549 L10.0311189,15.0042549 L10.0311189,16.5048403 Z" id="合并形状"></path>
                </g>
            </g>
        </g>
    </g>
</svg>