<?xml version="1.0" encoding="UTF-8"?>
<svg width="30px" height="30px" viewBox="0 0 30 30" version="1.1" xmlns="http://www.w3.org/2000/svg" xmlns:xlink="http://www.w3.org/1999/xlink">
    <!-- Generator: Sketch 52.3 (67297) - http://www.bohemiancoding.com/sketch -->
    <title>合并形状</title>
    <desc>Created with Sketch.</desc>
    <g id="安全合规" stroke="none" stroke-width="1" fill="none" fill-rule="evenodd">
        <g id="落地页" transform="translate(-883.000000, -857.000000)" fill="#333333">
            <g id="分组-2" transform="translate(411.000000, 480.000000)">
                <g id="合并形状-3" transform="translate(472.000000, 377.000000)">
                    <path d="M17.3834149,15.0949158 C16.9884755,15.3683183 16.6164677,15.6725021 16.2708605,16.003998 C16.1808988,16.0013389 16.0906058,16 16,16 C11.0294373,16 6.99914144,20.0294373 6.99914144,25 C6.99914144,25.634638 7.06484334,26.2539337 7.18981547,26.8514592 C7.19855893,26.8796004 7.20488352,26.9088068 7.20854607,26.9388352 C7.21302901,26.9592495 7.21758127,26.9796379 7.22220258,27 L7.21224976,27 C7.21224976,27.2761424 6.98839213,27.5 6.71224976,27.5 C6.43610738,27.5 6.21224976,27.2761424 6.21224976,27 L6.20003623,27 C6.06886052,26.3537801 6,25.6849317 6,25 C6,19.4771525 10.4771525,15 16,15 C16.4693941,15 16.9312346,15.0323408 17.3834149,15.0949158 Z M17.5,13 C13.9101491,13 11,10.0898509 11,6.5 C11,2.91014913 13.9101491,0 17.5,0 C21.0898509,0 24,2.91014913 24,6.5 C24,10.0898509 21.0898509,13 17.5,13 Z M17.5,12 C20.5375661,12 23,9.53756612 23,6.5 C23,3.46243388 20.5375661,1 17.5,1 C14.4624339,1 12,3.46243388 12,6.5 C12,9.53756612 14.4624339,12 17.5,12 Z M12.5418928,0.563466083 C12.2725513,0.801276133 12.0188587,1.05640146 11.782557,1.32709997 C11.2288584,1.11575842 10.6279476,1 10,1 C7.23857625,1 5,3.23857625 5,6 C5,8.76142375 7.23857625,11 10,11 C10.3007492,11 10.5952967,10.9734469 10.8814259,10.9225572 C11.0640288,11.2334149 11.2664121,11.5312532 11.4868467,11.8143432 C11.0113799,11.9355649 10.5132148,12 10,12 C6.6862915,12 4,9.3137085 4,6 C4,2.6862915 6.6862915,0 10,0 C10.9086189,0 11.770065,0.201970546 12.5418928,0.563466083 Z M10.6235737,15.019126 C10.0651972,15.3189128 9.53505939,15.664474 9.03817936,16.0507906 C4.51986231,16.5308142 1,20.3543532 1,25.0000002 C1,25.6842449 1.07635829,26.3506552 1.22101851,26.9911747 L1.20930624,26.9912593 C1.20935608,26.9941669 1.2093811,26.9970805 1.2093811,27 C1.2093811,27.2761424 0.985523478,27.5 0.709381104,27.5 C0.433238729,27.5 0.209381104,27.2761424 0.209381104,27 C0.209381104,26.9994954 0.209381851,26.9989909 0.209383345,26.9984866 L0.199743253,26.9985563 C0.0687579885,26.352784 2.77111667e-13,25.6844217 2.77111667e-13,25.0000002 C2.77111667e-13,19.4771527 4.4771525,15.0000002 10,15.0000002 C10.2094239,15.0000002 10.4173442,15.0064378 10.6235737,15.019126 Z M22,26.5 C22,26.7761424 22.2238576,27 22.5,27 C22.7761424,27 23,26.7761424 23,26.5 L23,25 L25.0454951,25 C25.3216375,25 25.5454951,24.7761424 25.5454951,24.5 C25.5454951,24.2238576 25.3216375,24 25.0454951,24 L23,24 L23,23 L25.0449779,23 C25.0522262,23 25.0594734,22.9998352 25.0667141,22.9995058 C25.330579,22.9875012 25.5347521,22.7638649 25.5227476,22.5 C25.5100206,22.2202561 25.279516,22 24.9994828,22 L23,22 L25.5348697,20.3100868 C25.8005933,20.1329378 25.8928221,19.7856442 25.75,19.5 C25.7408489,19.4816977 25.7305682,19.4639823 25.7192176,19.4469564 C25.5680357,19.2201835 25.2616427,19.1589049 25.0348697,19.3100868 L22.5,21 L20.1819856,19.3516347 C20.179413,19.3498053 20.1768259,19.3479963 20.1742246,19.3462079 C19.9024267,19.1593471 19.5306104,19.2282021 19.3437496,19.5 C19.3421361,19.5023469 19.3405393,19.5047054 19.3389595,19.5070751 C19.155712,19.7819464 19.2299877,20.1533251 19.504859,20.3365727 L22,22 L20.0005172,22 C19.720484,22 19.4899794,22.2202561 19.4772524,22.5 C19.476923,22.5072407 19.4767582,22.514488 19.4767582,22.5217362 C19.4767582,22.785874 19.6908842,23 19.9550221,23 L22,23 L22,24 L20.0005172,24 C19.720484,24 19.4899794,24.2202561 19.4772524,24.5 C19.476923,24.5072407 19.4767582,24.514488 19.4767582,24.5217362 C19.4767582,24.785874 19.6908842,25 19.9550221,25 L22,25 L22,26.5 Z M22.4999162,30 C18.3667288,30 15,26.6361958 15,22.4981983 C15,18.3600332 18.3667288,15 22.4999162,15 C26.6331036,15 30,18.3639718 30,22.5019693 C30,26.6399668 26.6368737,30 22.4999162,30 Z" id="合并形状"></path>
                </g>
            </g>
        </g>
    </g>
</svg>