<?xml version="1.0" encoding="UTF-8"?>
<svg width="70px" height="70px" viewBox="0 0 70 70" version="1.1" xmlns="http://www.w3.org/2000/svg" xmlns:xlink="http://www.w3.org/1999/xlink">
    <!-- Generator: Sketch 52.3 (67297) - http://www.bohemiancoding.com/sketch -->
    <title>Fill 1</title>
    <desc>Created with Sketch.</desc>
    <g id="安全合规" stroke="none" stroke-width="1" fill="none" fill-rule="evenodd">
        <g id="落地页" transform="translate(-476.000000, -1644.000000)" fill="#02ADFF">
            <g id="gengxinshenfenzhengxinxi" transform="translate(476.000000, 1644.000000)">
                <g id="分组" transform="translate(2.000000, 4.000000)">
                    <path d="M64,33 L64,5 C64,3.91526276 64,0 58.9725641,0 L5,0 C3.98798801,0 0,0.16327695 0,5.0816755 L0,50.007459 C0,50.999219 0,55.0020446 5,55.0020446 L35.9126179,55.0020446 C35.6788679,53.6906033 34.9993333,53.338356 35,52 L4.99849729,51.9707781 C3.89464137,51.9697702 3.00032352,51.0746353 3.00032352,49.970779 L2.99849646,4.97587622 C2.99849646,3.87130672 3.89392696,2.97587622 4.99849646,2.97587622 L59.0340529,2.97587622 C60.1386224,2.97587622 61.0340529,3.87130672 61.0340529,4.97587622 L61.0340529,30.6514875 C62.2525529,31.1686122 62.91475,32.179535 64,33 Z" id="Fill-1"></path>
                </g>
                <path d="M37,30.2394621 L59.1417424,30.2394621 L59.1417424,27.0819672 L37,27.0819672 L37,30.2394621 Z M37,16.5932593 L59.1565426,16.5932593 L59.1565426,13.442623 L37,13.442623 L37,16.5932593 Z M47,39 L37.006915,39 L37,42 L43.5,42 C44.5,40.5 45.5,40 47,39 Z M29.3923094,35.9814014 C33.2679832,37.924845 34.4620234,37.7562286 34.4577091,41.2922352 C34.4620234,41.681737 34.4620234,41.8333174 34.4645936,41.9127859 L7.00956333,41.9127859 C7.00956333,41.9127859 6.99377498,42.3505882 7.00277067,41.2922352 C6.99588621,37.7566158 8.1924966,37.924845 12.0660592,35.9814014 C13.3859472,35.3174866 17.559305,33.3691065 17.559305,33.3691065 C17.559305,33.3691065 17.7697858,32.3757995 17.559305,31.6275766 C16.5753784,31.0289983 15.5685036,28.3709195 15.4451342,27.2740422 C14.530144,26.8388533 14.2576113,24.99143 14.1776598,24.6621345 C14.1022979,24.3566505 14.2600897,23.4714631 14.8732653,23.4208395 C14.6911485,22.8381355 14.5982542,22.2282323 14.5986214,21.6146508 C14.5986214,21.46791 14.6100955,21.3234924 14.6215696,21.1790747 C14.6122067,21.0349474 14.5986214,20.8905298 14.5986214,20.743789 C14.5986214,17.3787219 17.3419397,15.5195865 20.7257879,15.5195865 C24.1095444,15.5195865 26.8525874,17.3763988 26.8525874,20.743789 C26.8525874,20.8905298 26.8411133,21.0349474 26.8296392,21.1790747 C26.8389102,21.3234924 26.8525874,21.46791 26.8525874,21.6146508 C26.8529545,22.2282323 26.7600603,22.8381355 26.5779434,23.4208395 C27.1935974,23.4714631 27.3491862,24.3566505 27.2735489,24.6621345 C27.1935974,24.99143 26.9214319,26.8388533 26.0059827,27.2740422 C25.8826133,28.3709195 24.8783087,31.0289983 23.8922709,31.6279638 C23.6312123,32.4431686 23.8922709,33.3691065 23.8922709,33.3691065 C23.8922709,33.3691065 28.0720541,35.3174866 29.3923094,35.9814014 Z M54.6937251,62.0829831 C54.5915168,62.0829831 54.4893471,62.0515673 54.3965043,61.9888927 L50.8546607,59.5446624 C49.6656611,58.7257746 48.6842517,57.6432065 48.0186007,56.4163456 C47.3529885,55.1927008 47,53.821508 47,52.4535312 L47,48.2302526 C47,47.4363483 47.5448276,46.7335929 48.359205,46.4794431 L48.3715892,46.4763839 L50.1548758,45.801632 C51.0062898,45.4785324 51.8018975,45.0549102 52.5140666,44.5402962 C52.7525012,44.3710199 53.0806826,44.42738 53.2478694,44.6659199 C53.4150948,44.9043422 53.3592885,45.2399924 53.1239112,45.4094256 C52.3376691,45.9773797 51.461448,46.4449682 50.5232672,46.7994836 L48.6874251,47.4929045 L48.6594446,47.4991798 C48.3034374,47.6153121 48.0557921,47.9132713 48.0557921,48.2239772 L48.0557921,52.450472 C48.0557921,53.639485 48.3622237,54.8319101 48.9442426,55.8986723 C49.5326083,56.9812013 50.3994639,57.9350865 51.4520825,58.659727 L54.9939647,61.1039966 C55.235534,61.2703706 55.297339,61.6029616 55.1333257,61.8445608 C55.0280986,62.0014433 54.8609119,62.0829831 54.6937251,62.0829831 Z M54.5512461,41.0634442 L54.5838479,41.0888084 L54.6164497,41.1139749 L57.2662104,43.1147459 C58.3817937,43.9566739 59.2331777,44.8431972 60.5386972,45.3655194 L63.0548609,46.3689716 L63.0905041,46.3847204 L63.1290403,46.3974223 C63.6452544,46.5716088 63.9923767,47.0020894 63.9923767,47.4738413 L63.9923767,52.652913 C63.9923767,53.5361124 63.8855955,53.4162649 63.6749632,54.2741 C63.4673352,55.122557 63.1557077,55.9518227 62.7522091,56.7337627 C62.3456692,57.5219153 61.8442168,58.2658683 61.2626506,58.943344 C60.6692158,59.6335215 59.9897329,60.2603082 59.244898,60.8015844 L54.6549859,64.2108447 C54.5927123,64.2552421 54.5125615,64.2804085 54.4236205,64.2804085 C54.3346794,64.2804085 54.2545286,64.2552421 54.1922551,64.2108447 L49.7362918,60.6019544 C48.9916053,60.0606782 48.3121224,59.4338916 47.7186876,58.743714 C47.1371215,58.0663966 46.635669,57.3224436 46.2291662,56.5341723 C45.8256676,55.752351 45.514003,54.922927 45.3064121,54.07447 C45.0957427,53.2166349 44.9888132,53.333396 44.9888132,52.4534413 L44.9888132,47.2678802 C44.9888132,46.7962865 45.3360839,46.3656477 45.852298,46.1916194 L45.8908341,46.1789175 L45.9264773,46.1631687 L48.442641,45.1595582 C49.7481605,44.6404807 50.9737147,43.9503427 52.086405,43.1082565 L54.2367256,41.1108884 L54.3019292,41.0601994 C54.3256666,41.0380799 54.3732156,41.0254175 54.4236205,41.0254175 C54.4740253,41.0254175 54.5215743,41.0411663 54.5512461,41.0634442 Z M54.4236205,38.442623 C54.0498307,38.442623 53.6758926,38.5692069 53.3762822,38.8225728 L50.7234801,40.823146 C49.711785,41.5860925 48.5990947,42.2096345 47.415118,42.6844728 L44.9019957,43.6848386 C43.7625267,44.0678749 43,45.1030225 43,46.2711249 L43,52.4534413 C43,56.5687072 44.9999496,60.4434675 48.3972898,62.9125479 L53.358442,66.518233 C53.6729996,66.746195 54.0498307,66.8632031 54.4236205,66.8632031 C54.7974102,66.8632031 55.1742414,66.7492815 55.4887989,66.518233 L60.4499512,62.9125479 C63.8472914,60.4434675 65.847241,56.5687072 65.847241,52.4534413 L65.847241,46.2711249 C65.847241,45.106109 65.0847143,44.0678749 63.9452452,43.6848386 L61.4290816,42.6813864 C60.2452532,42.2096345 59.1325629,41.5828478 58.1207195,40.8199013 L55.4709588,38.8193281 C55.1713484,38.5692069 54.7974102,38.442623 54.4236205,38.442623 Z" id="Fill-3"></path>
            </g>
        </g>
    </g>
</svg>