<?xml version="1.0" encoding="UTF-8"?>
<svg width="70px" height="70px" viewBox="0 0 70 70" version="1.1" xmlns="http://www.w3.org/2000/svg" xmlns:xlink="http://www.w3.org/1999/xlink">
    <!-- Generator: Sketch 52.3 (67297) - http://www.bohemiancoding.com/sketch -->
    <title>形状</title>
    <desc>Created with Sketch.</desc>
    <g id="安全合规" stroke="none" stroke-width="1" fill="none" fill-rule="evenodd">
        <g id="落地页" transform="translate(-775.000000, -1644.000000)">
            <g id="shujujicheng" transform="translate(775.000000, 1644.000000)">
                <path d="M45.986889,16.2884994 L36.5203477,12.100013 C36.2344762,11.9666623 35.9021228,11.9666623 35.6163334,12.100013 L26.1069609,16.3087189 C25.8230603,16.4477064 25.6180803,16.7053084 25.55,17.0095348 C25.5397346,17.0915906 25.5397346,17.1746932 25.55,17.256749 L25.55,29.1428571 L17.893366,33.0754522 C17.7499786,33.0905105 17.6129967,33.1399533 17.494,33.2198349 C17.18924,33.4066548 17.0029021,33.7331868 17.0000277,34.0854872 L17.0000277,46.6915585 C16.9970713,47.0916107 17.2306302,47.4571978 17.5992,47.6292009 L26.5972138,51.8244336 L26.6497728,51.8244336 C26.9013168,51.9477186 27.1970431,51.9477186 27.4485871,51.8244336 L27.5012282,51.8244336 L35.9104994,47.8767372 L44.5514407,51.9171994 C44.8057768,52.0276002 45.0958367,52.0276002 45.3501728,51.9171994 L45.4028139,51.9171994 L54.4007456,47.7119814 C54.7658662,47.5414278 54.9990966,47.1806722 55,46.7840021 L55,34.1782529 C54.9967972,34.0515053 54.972078,33.9259656 54.9265817,33.8074316 C54.8470041,33.5243029 54.6481013,33.2881208 54.3798863,33.1578301 L46.3968489,29.1726263 L46.3968489,17.2472395 C46.3968489,16.7624317 46.2601956,16.4428517 45.986889,16.2884994 Z M25.55,48.212292 L19.8143637,45.7690863 L19.8143637,37.1834504 L25.55,39.6444537 L25.55,48.212292 Z M27.0755005,37.1834504 L20.3417112,34.554006 L26.7270988,31.2756782 L33.1140094,33.9047619 L27.0755005,37.1834504 Z M34.0790071,45.5917382 L28.4,48.2065412 L28.4,39.6432548 L34.0790071,36.793666 L34.0790071,45.5917382 Z M34.1600636,31.5143274 L28.4,29.1726263 L28.4,19.6190476 L34.1600636,22.1551837 L34.1600636,31.5143274 Z M29.35,16.9931759 L36.0434658,14.2421021 L42.7369316,16.9931759 L36.0683405,19.8247174 L29.35,16.9931759 Z M43.5644102,19.6190476 L43.5644102,29.1428571 L36.95,31.9915726 L36.95,22.5041455 L43.5644102,19.6190476 Z M43.616396,48.7602034 L36.95,45.6124669 L36.95,36.5989383 L43.616396,39.6432548 L43.616396,48.7602034 Z M52.1280873,45.706414 L46.4979505,48.7602034 L46.4979505,39.6444537 L52.1280873,36.7871614 L52.1280873,45.706414 Z M51.7126458,34.2295643 L45.0662722,37.1834504 L38.3697977,34.4725008 L45.0662722,31.2756782 L51.7126458,34.2295643 Z" id="Fill-1" fill="#02ADFF"></path>
                <path d="M6,33 C6,46.1513444 14.4624251,57.3261836 26.2390513,61.3762937 M42.108344,62.3776895 C55.7477701,59.556352 66,47.4754443 66,33 C66,31.1873566 65.8392395,29.4122608 65.5311984,27.6881925 M58.1932127,12.8140198 C52.705891,6.78457985 44.7949135,3 36,3 C25.5812751,3 16.4030218,8.31109013 11.0249495,16.3735609" id="形状" stroke="#02ADFF" stroke-width="3"></path>
                <path d="M67.4592558,18.7477856 C66.8677568,17.5603214 65.8230851,16.6605405 64.5608262,16.2509274 C62.6408205,15.6189023 60.5289155,16.2050771 59.2099573,17.7358699 C57.891337,19.2666626 57.6252469,21.4406264 58.5362399,23.243819 C59.3891814,24.9227176 61.1082465,25.9858033 62.9923399,25.9999891 C64.7311779,26.0036199 66.3468997,25.1037546 67.2585687,23.6241318 C68.1698996,22.1441713 68.246203,20.2974082 67.4592558,18.7477856 Z M64.8975924,21.6270538 C64.7324991,22.1302233 64.374133,22.5469431 63.901563,22.7856467 C63.4292308,23.0241123 62.8813968,23.064987 62.3788639,22.8990487 C61.8723478,22.7403097 61.4538776,22.3791605 61.2221405,21.9013368 C60.8496253,21.1805854 60.952058,20.3057951 61.4810463,19.69083 C62.010094,19.0758649 62.8593408,18.844658 63.6268434,19.1063275 C64.1391262,19.2753002 64.559915,19.6469209 64.7909981,20.1345021 C65.0262427,20.6081609 65.0645287,21.1557154 64.8975924,21.6577545 L64.8975924,21.6270538 Z M6.98695966,29.999762 C7.77287898,30.0034014 8.54831937,29.8176234 9.24753405,29.4582552 C10.4339342,28.8628346 11.3330935,27.8173997 11.7464194,26.5547865 C12.166675,25.2961513 12.0613787,23.9208017 11.4542772,22.7412173 C10.4332581,20.7254204 8.18983876,19.6450305 5.98013786,20.1052013 C3.77035245,20.5654567 2.14290791,22.452267 2.00887909,24.7086866 C1.87493478,26.9651062 3.26795564,29.0314313 5.40768437,29.7505063 C5.91675727,29.9207958 6.45016832,30.0050941 6.98695966,29.999762 Z M5.09985156,24.3770914 C5.37134532,23.5567927 6.13694467,23.0020805 7.0004861,23 C7.2118723,23.0029721 7.42183302,23.0364379 7.62395362,23.0989114 C8.67286631,23.4436746 9.24406639,24.5740226 8.89975456,25.624005 C8.55568031,26.6737497 7.42622824,27.2456406 6.37707797,26.9015312 C5.3279277,26.557184 4.75625247,25.4271333 5.09985156,24.3770914 Z M35.4951584,56.1950445 C32.8650393,55.4519743 30.1104704,56.8943798 29.2559954,59.4622607 C28.4016063,62.0298019 29.7525054,64.8057424 32.3158444,65.7498238 C32.8264495,65.9183946 33.3616352,66.0029772 33.899743,65.99992 C34.6987829,65.9983065 35.4860481,65.8122417 36.199142,65.456587 C38.0392456,64.5426531 39.1397839,62.6219652 38.9856828,60.5928314 C38.8312378,58.5636127 37.4527501,56.8266967 35.4951584,56.1950445 Z M35.8635049,61.6333841 C35.5173007,62.6793015 34.3965709,63.2449782 33.3587859,62.89775 C32.3209418,62.5505219 31.757887,61.4214342 32.1001894,60.3741455 C32.4424326,59.3267971 33.5606202,58.7567086 34.599824,59.0997633 C35.1085479,59.2573992 35.5330265,59.6146435 35.7778406,60.0911879 C36.0225957,60.5676727 36.0671718,61.1233331 35.9013414,61.6333841 L35.8635049,61.6333841 Z" id="Fill-3" fill="#02ADFF"></path>
            </g>
        </g>
    </g>
</svg>