<?xml version="1.0" encoding="UTF-8"?>
<svg width="70px" height="70px" viewBox="0 0 70 70" version="1.1" xmlns="http://www.w3.org/2000/svg" xmlns:xlink="http://www.w3.org/1999/xlink">
    <!-- Generator: Sketch 52.3 (67297) - http://www.bohemiancoding.com/sketch -->
    <title>Fill 6</title>
    <desc>Created with Sketch.</desc>
    <g id="安全合规" stroke="none" stroke-width="1" fill="none" fill-rule="evenodd">
        <g id="落地页" transform="translate(-1075.000000, -1644.000000)">
            <g id="wangluo" transform="translate(1075.000000, 1644.000000)">
                <path d="M51.5032981,40.1956824 C50.7827839,42.502652 49.5840765,44.5191454 48.0462291,46.3065468 C46.1061234,45.0319593 44.2845427,44.3895561 41.9429583,43.7177544 C42.331014,41.5007567 42.7575467,38.4593731 42.8127111,35.8960832 L54.9817821,35.8960832 C55.0094942,35.4806884 55.002393,33.6762644 54.9817821,33.2608696 L42.8127111,33.2608696 C42.7575467,30.6903923 42.331014,28.5141581 41.9429583,26.3043478 C44.2845427,25.6325461 46.1061234,25.0238818 48.0462291,23.7492943 C49.5840765,25.5366091 50.7898851,27.4821858 51.5032981,29.7819681 L54.2957348,29.7904625 C52.0024733,21.2697165 44.229407,15 34.9876002,15 C25.7453605,15 17.9722942,21.2697165 15.6791193,29.7904625 L18.3048392,29.7904625 C19.0182522,27.4906802 20.1961889,25.3984655 21.7272815,23.6111508 C23.6669542,24.8857383 25.5493304,25.6321997 27.8980161,26.3043478 C27.5100469,28.5209125 27.1574329,30.7616681 27.1022685,33.3321454 L15.0207841,33.2608696 C14.993072,33.6762644 14.993072,35.4874428 15.0207841,35.8960832 L27.1022685,35.8960832 C27.1577793,38.4661275 27.5100469,41.2348189 27.8980161,43.4518165 C25.5493304,44.1239647 23.6601994,45.1143483 21.7201803,46.3889358 C20.1823329,44.6015345 19.0043961,42.502652 18.2909832,40.1956824 L15.6652632,40.1956824 C17.9513369,48.7165149 25.7315044,55 34.980499,55 C37.3908536,55 39.7009729,54.5737244 41.839987,53.7924125 C47.908705,51.5757082 52.6001193,46.5011541 54.2957348,40.1956824 L51.5032981,40.1956824 Z M46.4394457,21.7960392 C44.8667849,22.7658133 43.1209236,23.5417884 41.2640408,24.089067 C40.6544616,21.6022402 39.8439697,19.5100255 38.8947443,17.9581618 C41.7353194,18.602513 44.3126298,19.9463762 46.4394457,21.7960392 Z M30.6297885,27.1094038 C32.0431913,27.3587099 33.4909745,27.4974346 34.9876002,27.4974346 C36.4770381,27.4974346 37.9320091,27.3658107 39.344979,27.1165045 C39.6778704,29.049385 40.1153853,30.8448856 40.1779107,33.3321454 L29.762773,33.3321454 C30.1144102,30.4722379 30.4034154,28.3979907 30.6297885,27.1094038 Z M40.2350758,35.8960832 C40.179565,38.3761556 39.6707692,40.9507016 39.3314694,42.8834955 C37.9249079,42.6341893 36.4699369,42.502652 34.980499,42.502652 C33.4909745,42.502652 32.0360901,42.6410303 30.6226872,42.8905962 C30.2902288,40.9578024 29.8250386,38.3829966 29.762773,35.8960832 L40.2350758,35.8960832 Z M34.980499,17.5007685 C35.9019258,17.5007685 38.1053885,19.8681473 39.2761374,24.5652174 C38.0292669,24.7799723 36.3038376,24.9966661 34.980499,24.9966661 C33.664175,24.9966661 31.9250782,24.7799723 30.6848759,24.5652174 C31.8557114,19.8681473 34.0660869,17.5007685 34.980499,17.5007685 Z M23.528567,21.7960392 C25.6553828,19.9463762 28.2327798,18.6092674 31.0661672,17.9581618 C30.1170283,19.5100255 28.7194809,21.2693845 28.1099017,23.7562113 C26.2602067,23.2089327 25.1080692,22.7658133 23.528567,21.7960392 Z M23.528567,48.2040474 C25.1013143,47.2342733 26.8400744,46.4582982 28.6968706,45.910933 C29.3064499,48.391092 30.1170283,50.4899745 31.0661672,52.0419248 C28.2327798,51.3908192 25.6621376,50.0536238 23.528567,48.2040474 Z M34.980499,52.4988851 C34.0589856,52.4988851 32.2992683,50.0330142 31.135534,45.3359442 C32.3824912,45.1211027 33.664175,45.0034205 34.980499,45.0034205 C36.2967364,45.0034205 37.5856081,45.1211027 38.8324787,45.3359442 C37.6617297,50.0330142 35.9019258,52.4988851 34.980499,52.4988851 Z M38.8947443,52.0419248 C39.8439697,50.4899745 40.6615628,48.3978464 41.2640408,45.910933 C43.1280249,46.4582982 44.8600301,47.2271726 46.4394457,48.1969467 C44.3126298,50.046523 41.7353194,51.3908192 38.8947443,52.0419248 Z" id="Fill-1" fill="#02ADFF"></path>
                <path d="M12,36.9999492 C12,38.6569894 13.3430106,40 15.0000508,40 C16.6570911,40 18,38.6569894 18,36.9999492 C18,35.3430106 16.6570911,34 15.0000508,34 C13.3430106,34 12,35.3430106 12,36.9999492 Z" id="Fill-2" fill="#FFFFFF"></path>
                <path d="M15,39 C12.7926075,39 11,37.2073925 11,35 C11,32.7927053 12.7926075,31 15,31 C17.2072947,31 19,32.7927053 19,35 C19,37.2073925 17.2072947,39 15,39 Z M14.9998894,34 C14.446792,34 14,34.4470133 14,35.0001106 C14,35.553208 14.446792,36 14.9998894,36 C15.5529867,36 16,35.553208 16,35.0001106 C16,34.4470133 15.5529867,34 14.9998894,34 Z" id="Fill-3" fill="#02ADFF"></path>
                <path d="M53,35.9999873 C53,37.0717779 53.5720625,38.0621705 54.5002287,38.5981166 C55.4283948,39.1339611 56.5721133,39.1339611 57.5002795,38.5981166 C58.428344,38.0621705 59,37.0717779 59,35.9999873 C59,34.9281967 58.428344,33.9378041 57.5002795,33.4019596 C56.5721133,32.8660135 55.4283948,32.8660135 54.5002287,33.4019596 C53.5720625,33.9378041 53,34.9281967 53,35.9999873 Z" id="Fill-4" fill="#FFFFFF"></path>
                <path d="M55.9998043,39 C53.7925198,39 52,37.2073925 52,35 C52,32.7927053 53.7925198,31 55.9998043,31 C58.2073824,31 60,32.7927053 60,35 C60,37.2073925 58.1993591,39 55.9998043,39 Z M55.9998894,34 C55.446792,34 55,34.4470133 55,35.0001106 C55,35.553208 55.446792,36 55.9998894,36 C56.5529867,36 57,35.553208 57,35.0001106 C57,34.4470133 56.5486726,34 55.9998894,34 Z" id="Fill-5" fill="#02ADFF"></path>
                <path d="M35.1956387,7.88854188 C35.5967362,7.87309534 35.8618863,7.88854188 36.2629838,7.88854188 C51.1464765,7.88854188 63.5634421,20.4875674 63.5634421,36.536425 C63.5634421,45.5497702 59.3982616,53.5911277 53.4175218,58.9356303 L54.1650676,61.9751419 C60.8976861,56.2370422 66.244217,46.491816 66.244217,36.536425 C66.244217,19.2752071 52.271161,4.99908404 36.2629838,4.99908404 C35.5967859,4.99908404 34.9031629,4.94521424 34.244217,4.99908404 L35.1956387,7.88854188 Z M35.0614755,65.039033 C21.6468193,65 6.94066364,52.0024149 6.94066364,35.4998496 C6.94066364,26.8076366 10.0007605,19.5171933 15.7179252,14 L14.6864466,11 C8.14341952,16.9576225 3.99573069,25.8213317 3.99573069,35.4998496 C3.99573069,53.4217317 16.7564688,66.3762937 35.9824473,68 C36.0655699,68.00702 35.7585792,67.020031 35.0614755,65.039033 Z" id="Fill-6" fill="#02ADFF"></path>
                <path d="M34,65.0000508 C34,66.6569894 35.3430106,68 36.9999492,68 C38.6569894,68 40,66.6569894 40,65.0000508 C40,63.3430106 38.6569894,62 36.9999492,62 C35.3430106,62 34,63.3430106 34,65.0000508 Z" id="Fill-7" fill="#FFFFFF"></path>
                <path d="M37,70 C34.2408816,70 32,67.759228 32,65.0002446 C32,62.2406497 34.2408816,60 37,60 C39.7592407,60 42,62.2406497 42,65.0002446 C42,67.7491989 39.7592407,70 37,70 Z M37.0002212,63 C35.8940265,63 35,63.8935841 35,64.9997788 C35,66.1059735 35.8940265,67 37.0002212,67 C38.1064159,67 39,66.1059735 39,64.9997788 C39,63.9026549 38.1064159,63 37.0002212,63 Z" id="Fill-8" fill="#02ADFF"></path>
                <path d="M32,7.00005081 C32,8.65709108 33.3430106,10 34.9999492,10 C36.6569894,10 38,8.65709108 38,7.00005081 C38,5.34341706 36.6569894,4 34.9999492,4 C33.3430106,4 32,5.34341706 32,7.00005081 Z" id="Fill-9" fill="#FFFFFF"></path>
                <path d="M34,12 C31.2408816,12 29,9.759228 29,6.99975539 C29,4.24064969 31.2408816,2 34,2 C36.7592407,2 39,4.24064969 39,6.99975539 C39,9.759228 36.7592407,12 34,12 Z M34.0002212,5 C32.8940265,5 32,5.89358407 32,6.99977876 C32,8.10597345 32.8940265,9 34.0002212,9 C35.1064159,9 36,8.10597345 36,6.99977876 C36,5.89358407 35.1064159,5 34.0002212,5 Z" id="Fill-10" fill="#02ADFF"></path>
            </g>
        </g>
    </g>
</svg>