<?xml version="1.0" encoding="UTF-8"?>
<svg width="16px" height="16px" viewBox="0 0 16 16" version="1.1" xmlns="http://www.w3.org/2000/svg" xmlns:xlink="http://www.w3.org/1999/xlink">
    <!-- Generator: Sketch 52.2 (67145) - http://www.bohemiancoding.com/sketch -->
    <title>合并形状</title>
    <desc>Created with Sketch.</desc>
    <g id="Symbols" stroke="none" stroke-width="1" fill="none" fill-rule="evenodd">
        <g id="-左边栏-角色管理" transform="translate(-21.000000, -153.000000)" fill="#333333">
            <path d="M31.5773503,165 L33.3094011,168 L36.5,168 C36.7761424,168 37,168.223858 37,168.5 C37,168.776142 36.7761424,169 36.5,169 L21.5,169 C21.2238576,169 21,168.776142 21,168.5 C21,168.223858 21.2238576,168 21.5,168 L24.7886751,168 L26.5207259,165 L24,165 C22.8954305,165 22,164.104569 22,163 L22,155 C22,153.895431 22.8954305,153 24,153 L34,153 C35.1045695,153 36,153.895431 36,155 L36,163 C36,164.104569 35.1045695,165 34,165 L31.5773503,165 Z M30.4226497,165 L27.6754265,165 L25.9433757,168 L32.1547005,168 L30.4226497,165 Z M26.5,158 C26.2238576,158 26,157.776142 26,157.5 C26,157.223858 26.2238576,157 26.5,157 L31.5,157 C31.7761424,157 32,157.223858 32,157.5 C32,157.776142 31.7761424,158 31.5,158 L26.5,158 Z M26.5,161 C26.2238576,161 26,160.776142 26,160.5 C26,160.223858 26.2238576,160 26.5,160 L31.5,160 C31.7761424,160 32,160.223858 32,160.5 C32,160.776142 31.7761424,161 31.5,161 L26.5,161 Z M24,164 L34.0000366,164 C34.5523214,164 35.0000366,163.552285 35.0000366,163 L35.0000366,155 C35.0000366,154.447715 34.5523214,154 34.0000366,154 L24,154 C23.4477153,154 23,154.447715 23,155 L23,163 C23,163.552285 23.4477153,164 24,164 Z" id="合并形状"></path>
        </g>
    </g>
</svg>