<?xml version="1.0" encoding="UTF-8"?>
<svg width="50px" height="50px" viewBox="0 0 50 50" version="1.1" xmlns="http://www.w3.org/2000/svg" xmlns:xlink="http://www.w3.org/1999/xlink">
    <!-- Generator: Sketch 52.3 (67297) - http://www.bohemiancoding.com/sketch -->
    <title>申请电子印章</title>
    <desc>Created with Sketch.</desc>
    <g id="更改需求页面" stroke="none" stroke-width="1" fill="none" fill-rule="evenodd">
        <g id="首页2" transform="translate(-1665.000000, -284.000000)" fill="#02ADFF">
            <g id="分组-6" transform="translate(1635.000000, 284.000000)">
                <path d="M37,42 C36.5,42 36,41.5 36,41 C36,40.5 36.5,40 37,40 L47,40 C47.5,40 48,40.5 48,41 C48,41.5 47.5,42 47,42 L37,42 Z M37,34 C36.5,34 36,33.5 36,33 C36,32.5 36.5,32 37,32 L51,32 C51.5,32 52,32.5 52,33 C52,33.5 51.5,34 51,34 L37,34 Z M37,26 C36.5,26 36,25.5 36,25 C36,24.5 36.5,24 37,24 L57,24 C57.5,24 58,24.5 58,25 C58,25.5 57.5,26 57,26 L37,26 Z M37,10 C36.5,10 36,9.5 36,9 C36,8.5 36.5,8 37,8 L65,8 C65.5,8 66,8.5 66,9 C66,9.5 65.5,10 65,10 L37,10 Z M37,18 C36.5,18 36,17.5 36,17 C36,16.5 36.5,16 37,16 L65,16 C65.5,16 66,16.5 66,17 C66,17.5 65.5,18 65,18 L37,18 Z M66,-2.39808173e-14 C69.3137085,-2.45895357e-14 72,2.6862915 72,6 L72,20 C72,20.5522847 71.5522847,21 71,21 C70.4477153,21 70,20.5522847 70,20 L70,5.99002869 C70,3.7808897 68.209139,1.99002869 66,1.99002869 L36.0064562,1.99059002 C33.7975364,1.99059002 32.0067662,3.78110895 32.0064563,5.99002873 L32,44 C32,44.0001871 32,44.0003742 32,44.0005613 C32,46.2097003 33.790861,48.0005613 36,48.0005613 L53,48 C53.5522847,48 54,48.4477153 54,49 C54,49.5522847 53.5522847,50 53,50 L36,50 C32.6862915,50 30,47.3137085 30,44 L30,6 C30,2.6862915 32.6862915,-2.51484558e-14 36,-2.57571742e-14 L66,-2.48689958e-14 Z M68.1029755,32.3592831 L69.3089141,35.0734245 C69.4598128,35.2330019 69.6104907,35.3928911 69.7611686,35.3928911 L72.4746224,35.712046 C72.9269506,35.712046 73.2286008,36.5104788 72.7762727,36.8296336 L70.6657514,38.745654 C70.5150735,38.9052315 70.5150735,39.0648089 70.5150735,39.3841976 L71.1180795,42.2579164 C71.2687574,42.7369605 70.6657514,43.2160046 70.2134968,42.8965379 L67.8013253,41.4597954 C67.6506473,41.2999062 67.3493651,41.2999062 67.1983928,41.4597954 L64.7865157,42.8965379 C64.3342611,43.2160046 63.8819329,42.7369605 63.8819329,42.2579164 L64.484939,39.3841976 C64.484939,39.2246202 64.484939,38.9052315 64.3342611,38.745654 L62.2237398,36.8296336 C61.7714116,36.5104788 62.0730619,35.8719352 62.5250956,35.712046 L65.2388438,35.3928911 C65.3895218,35.3928911 65.690804,35.2330019 65.690804,35.0734245 L66.897037,32.3592831 C67.1983928,31.880239 67.8013253,31.880239 68.1029755,32.3592831 Z M78.0084809,37.5150606 C78.0084809,43.2816535 73.2883908,48 67.5196669,48 C61.7506869,48 57.0309383,43.2816535 57.0309383,37.5150606 C57.0309383,31.7481264 61.7506869,27.0298652 67.5196669,27.0298652 C73.2883908,27.0298652 78.0084809,31.7481264 78.0084809,37.5150606 Z M67.4999619,25 C60.6248646,25 55,30.6227868 55,37.4953444 C55,44.3676732 60.6248646,49.990765 67.4999619,49.990765 C74.3751354,49.990765 80,44.3676732 80,37.4953444 C80,30.6227868 74.3751354,25 67.4999619,25 Z" id="申请电子印章"></path>
            </g>
        </g>
    </g>
</svg>