<?xml version="1.0" encoding="UTF-8"?>
<svg width="28px" height="22px" viewBox="0 0 28 22" version="1.1" xmlns="http://www.w3.org/2000/svg" xmlns:xlink="http://www.w3.org/1999/xlink">
    <!-- Generator: Sketch 52.3 (67297) - http://www.bohemiancoding.com/sketch -->
    <title>签名1</title>
    <desc>Created with Sketch.</desc>
    <g id="Page-2" stroke="none" stroke-width="1" fill="none" fill-rule="evenodd">
        <g id="签署合同（多页签署）参数" transform="translate(-25.000000, -171.000000)" fill="#30BCFF">
            <g id="Combined-Shape-Copy-2" transform="translate(25.000000, 170.000000)">
                <path d="M11.6184573,22.0988265 C11.0515503,21.8060511 11.57943,21.1819258 11.687081,20.8967344 C11.7857473,20.6350877 12.5707854,19.3565107 12.0832358,19.554644 C11.5956861,19.7527772 10.8549407,20.4768242 10.3807286,20.8082433 C9.9065165,21.1396624 8.43053,22.4698653 7.92324144,22.2717321 C6.99579956,22.0636903 7.29405132,21.302714 7.21165586,20.4056003 C7.17270429,19.9838631 7.10707764,17.9449961 6.23655655,18.424268 C5.36603547,18.9035398 2.63082551,20.146717 1.46050305,21.7230866 C1.31503319,21.9190277 0.925102331,22.2006712 0.657106705,22.2673984 C0.424124433,22.3254077 0.362506756,22.2868464 0.214741821,22.2345536 C-0.168785051,22.0988265 0.08075407,21.688485 0.33648676,21.4013632 C4.38153365,16.8915262 6.11731908,17.3936942 6.64094655,17.4474369 C7.02251857,17.485012 7.69276427,17.8534631 7.92324144,18.557565 C8.1207933,19.1636614 8.17749496,19.7746184 8.22241801,20.2650593 C8.23288179,20.3723724 8.21042027,21.2804732 8.22241801,21.3962665 C8.23441575,21.5120598 7.94298035,21.6122787 9.40562931,20.5136064 C10.8682783,19.4149341 11.765858,18.4485239 12.8184769,18.6224012 C13.3619835,18.7121806 13.5498014,19.2168009 13.3060266,19.6130674 C13.0622517,20.0093338 12.5038709,21.1223476 12.4529216,21.3962665 C12.4019723,21.6701854 14.3425241,20.9494084 14.5249007,20.8967344 C14.9991128,20.7592578 15.2562252,20.8018668 15.5,21 C15.7437748,21.1981332 15.4765747,21.4540396 15.0124503,21.5943997 C13.5739206,22.0294388 12.2602544,22.4319692 11.6184573,22.0988265 Z M15.5732119,14.7275432 L22.3381884,2.52320252 C23.1442958,1.06894641 24.9766824,0.543518001 26.4309385,1.34962533 C27.8851946,2.15573266 28.410623,3.98811927 27.6045157,5.44237539 L20.8395392,17.6467161 C20.7538196,17.8013584 20.6286311,17.9305085 20.4767335,18.0210027 L16.4543126,20.4173948 C16.1696332,20.586995 15.8013667,20.4937049 15.6317665,20.2090254 C15.5786435,20.1198568 15.5495605,20.0184324 15.5473592,19.9146622 L15.4480566,15.2335616 C15.4443066,15.0567905 15.4874923,14.8821855 15.5732119,14.7275432 Z M16.4344254,15.2438528 C16.3602274,15.3777096 16.3177434,15.526811 16.3102458,15.6796728 L16.148669,18.9738949 C16.1432599,19.0841762 16.1745066,19.1931465 16.237534,19.283804 C16.395164,19.510536 16.7067509,19.5665543 16.9334829,19.4089243 L19.641519,17.5262277 C19.7671801,17.4388649 19.8711122,17.3238248 19.9453102,17.1899681 L26.7213201,4.96572263 C27.258725,3.99621855 26.9084394,2.77462748 25.9389353,2.23722259 C24.9694312,1.69981771 23.7478401,2.05010331 23.2104353,3.01960739 L16.4344254,15.2438528 Z" id="Combined-Shape-Copy"></path>
            </g>
        </g>
    </g>
</svg>