<?xml version="1.0" encoding="UTF-8"?>
<svg width="16px" height="16px" viewBox="0 0 16 16" version="1.1" xmlns="http://www.w3.org/2000/svg" xmlns:xlink="http://www.w3.org/1999/xlink">
    <!-- Generator: Sketch 52.3 (67297) - http://www.bohemiancoding.com/sketch -->
    <title>fanhui-2</title>
    <desc>Created with Sketch.</desc>
    <g id="Page-2" stroke="none" stroke-width="1" fill="none" fill-rule="evenodd">
        <g id="签署合同（多页签署）参数" transform="translate(-20.000000, -18.000000)" fill="#626262">
            <path d="M28.0011906,18 C23.5823755,18 20,21.5820161 20,26.0006739 C20,30.4192194 23.5823755,34.0012355 28.0011906,34.0012355 C32.420365,34.0012355 36.002471,30.4192194 36.002471,26.0006739 C36.002471,21.5820161 32.420365,18 28.0011906,18 Z M28.00155,33.1994585 C24.0339325,33.1994585 20.8059104,29.9584296 20.8059104,25.9943389 C20.8059104,22.0303382 24.0339325,18.8056408 28.00155,18.8056408 C31.9692349,18.8056408 35.1971672,22.0303382 35.1971672,25.9943389 C35.1971672,29.9584296 31.9692349,33.1994585 28.00155,33.1994585 Z M31.6033123,25.603054 L25.0713385,25.603054 L27.4494874,23.0528278 C27.6055251,22.8966328 27.6055251,22.6435489 27.4494874,22.4873539 C27.2931127,22.3311589 27.0400512,22.3311589 26.8840135,22.4873539 L23.621868,26.0115467 L26.833828,29.5604727 C26.912094,29.6385814 27.0144193,29.677984 27.1165649,29.677984 C27.2188903,29.677984 27.3211932,29.6385814 27.3993019,29.5604727 C27.5555867,29.4045473 27.5555867,29.1515532 27.3993019,28.9949314 L25.0457066,26.4029215 L31.6033123,26.4029215 C31.8241823,26.4029215 32.0032685,26.2240824 32.0032685,26.0029428 C32.0031786,25.7823424 31.8241823,25.603054 31.6033123,25.603054 Z" id="fanhui-2"></path>
        </g>
    </g>
</svg>