<?xml version="1.0" encoding="UTF-8"?>
<svg width="16px" height="16px" viewBox="0 0 16 16" version="1.1" xmlns="http://www.w3.org/2000/svg" xmlns:xlink="http://www.w3.org/1999/xlink">
    <!-- Generator: Sketch 52.2 (67145) - http://www.bohemiancoding.com/sketch -->
    <title>账户管理 copy 2</title>
    <desc>Created with Sketch.</desc>
    <g id="Symbols" stroke="none" stroke-width="1" fill="none" fill-rule="evenodd">
        <g id="-左边栏-账号管理" transform="translate(-21.000000, -113.000000)" fill="#02ADFF">
            <path d="M28.2800122,120.437735 C29.4879792,119.738272 30.3005227,118.461689 30.3005227,116.999972 C30.3005227,114.790846 28.4480253,113 26.1657517,113 C23.8845942,113 22.0342843,114.790846 22.0342843,116.999972 C22.0342843,118.461689 22.8434349,119.738272 24.051402,120.436597 C22.2525206,121.220547 21,122.969116 21,125.000028 L21,128.500559 C21,128.777121 21.2320309,129 21.5165395,129 C21.8022533,129 22.0342843,128.777121 22.0342843,128.49942 L22.0342843,125.000028 C22.0342843,122.789674 23.8845942,120.999792 26.1657517,120.999944 C26.6108751,120.999974 27.1216593,121.12371 27.6981044,121.371151 L27.6981,121.371162 C27.9742218,121.489688 28.2945764,121.429873 28.5093231,121.219692 L28.5093231,121.219692 C28.6871212,121.045675 28.6901863,120.760473 28.5161691,120.582674 C28.4862838,120.55214 28.4522064,120.526012 28.4149612,120.505077 C28.3697367,120.479655 28.3247534,120.457208 28.2800122,120.437735 Z M23.0662918,116.999972 C23.0662918,115.342876 24.4537229,114.000021 26.1657517,114.000021 C27.8776913,114.000021 29.2651001,115.344015 29.2651001,116.999972 C29.2651001,118.656041 27.8788297,120.000035 26.1668901,120.000035 C24.4548389,120.000035 23.0662918,118.657157 23.0662918,116.999972 Z M28.5000279,123.000056 C28.2238701,123.000056 28,122.776186 28,122.500028 C28,122.22387 28.2238701,122 28.5000279,122 L32.4999721,122 C32.7761299,122 33,122.22387 33,122.500028 C33,122.776186 32.7761299,123.000056 32.4999721,123.000056 L28.5000279,123.000056 Z M28.5000279,126.000056 C28.2238701,126.000056 28,125.776186 28,125.500028 C28,125.22387 28.2238701,125 28.5000279,125 L34.4999721,125 C34.7761299,125 35,125.22387 35,125.500028 C35,125.776186 34.7761299,126.000056 34.4999721,126.000056 L28.5000279,126.000056 Z M28.5000279,129.000056 C28.2238701,129.000056 28,128.776186 28,128.500028 C28,128.22387 28.2238701,128 28.5000279,128 L36.4999721,128 C36.7761299,128 37,128.22387 37,128.500028 C37,128.776186 36.7761299,129.000056 36.4999721,129.000056 L28.5000279,129.000056 Z" id="账户管理-copy-2"></path>
        </g>
    </g>
</svg>