<?xml version="1.0" encoding="UTF-8"?>
<svg width="44px" height="44px" viewBox="0 0 44 44" version="1.1" xmlns="http://www.w3.org/2000/svg" xmlns:xlink="http://www.w3.org/1999/xlink">
    <!-- Generator: Sketch 57 (83077) - https://sketch.com -->
    <title>caozuochenggong</title>
    <desc>Created with Sketch.</desc>
    <g id="实名认证/人工审核" stroke="none" stroke-width="1" fill="none" fill-rule="evenodd">
        <g id="企业实名认证—对公转账4" transform="translate(-938.000000, -349.000000)" fill="#5BCC52">
            <g id="caozuochenggong-2" transform="translate(938.000000, 349.000000)">
                <path d="M22,0 C24.2997404,0 26.5170643,0.352866745 28.6007824,1.00741078 L28.6008958,3.32697431 C26.5363017,2.59713272 24.3145285,2.2 22,2.2 C11.064762,2.2 2.2,11.064762 2.2,22 C2.2,32.935238 11.064762,41.8 22,41.8 C32.935238,41.8 41.8,32.935238 41.8,22 C41.8,20.8757808 41.7063058,19.773445 41.5263001,18.7003754 L43.7542386,18.7005952 C43.9161013,19.7768448 44,20.8786246 44,22 C44,34.1502645 34.1502645,44 22,44 C9.8497355,44 0,34.1502645 0,22 C0,9.8497355 9.8497355,0 22,0 Z M40.7,6.6 L41.8,7.7 C31.742116,16.9337859 23.5097938,24.1567164 20.9,30.8 L9.5,23 L12.8,20.8 L18.7,25.3 C23.1,20.9 30.8,13.2 40.7,6.6 Z" id="caozuochenggong"></path>
            </g>
        </g>
    </g>
</svg>