<?xml version="1.0" encoding="UTF-8"?>
<svg width="44px" height="44px" viewBox="0 0 44 44" version="1.1" xmlns="http://www.w3.org/2000/svg" xmlns:xlink="http://www.w3.org/1999/xlink">
    <!-- Generator: Sketch 57 (83077) - https://sketch.com -->
    <title>caozuochenggong</title>
    <desc>Created with Sketch.</desc>
    <g id="实名认证/人工审核" stroke="none" stroke-width="1" fill="none" fill-rule="evenodd">
        <g id="企业实名认证—对公转账4" transform="translate(-1002.000000, -349.000000)" fill="#EF8000">
            <g id="caozuochenggong-3" transform="translate(1002.000000, 349.000000)">
                <path d="M22,0 C24.2997404,0 26.5170643,0.352866745 28.6007824,1.00741078 L28.6003405,3.11472718 C26.5339186,2.39257601 24.3128048,2 22,2 C10.954305,2 2,10.954305 2,22 C2,33.045695 10.954305,42 22,42 C33.045695,42 42,33.045695 42,22 C42,20.8759053 41.9072633,19.7734704 41.7290233,18.6999286 L43.7542386,18.7005952 C43.9161013,19.7768448 44,20.8786246 44,22 C44,34.1502645 34.1502645,44 22,44 C9.8497355,44 0,34.1502645 0,22 C0,9.8497355 9.8497355,0 22,0 Z M34,8 L35.1,9.1 L34.2591705,9.87125544 C31.1924988,12.6820655 28.3092665,15.3057454 25.7207559,17.7839281 C29.3341793,20.9698293 32.3198089,23.9225529 34.5562304,26.1564416 L34.5562304,26.1564416 L35.1,26.7 L32.9,32.2 C31.4000824,28.3819292 28.0429848,24.3723949 23.5504838,19.8996991 C19.0570152,24.3723949 15.6999176,28.3819292 14.2,32.2 L14.2,32.2 L12,26.7 L12.5437696,26.1564416 C14.7801911,23.9225529 17.7658207,20.9698293 21.3795101,17.7842344 C18.5554143,15.0804561 15.3808414,12.2038304 12,9.1 L12,9.1 L13.1,8 C16.9352723,10.5568482 20.4403693,13.2787842 23.549666,15.9091398 C26.6603831,13.2781999 30.1651393,10.5565738 34,8 L34,8 Z" id="caozuochenggong"></path>
            </g>
        </g>
    </g>
</svg>