<?xml version="1.0" encoding="UTF-8"?>
<svg width="54px" height="60px" viewBox="0 0 54 60" version="1.1" xmlns="http://www.w3.org/2000/svg" xmlns:xlink="http://www.w3.org/1999/xlink">
    <!-- Generator: Sketch 60 (88103) - https://sketch.com -->
    <title>s</title>
    <desc>Created with Sketch.</desc>
    <g id="印章管理" stroke="none" stroke-width="1" fill="none" fill-rule="evenodd">
        <g id="印章管理-Ukey印章续期" transform="translate(-390.000000, -589.000000)">
            <g id="编组-5" transform="translate(389.500000, 589.000000)">
                <polygon id="s" fill="#FA6400" transform="translate(27.250000, 29.750000) scale(-1, 1) translate(-27.250000, -29.750000) " points="0.5 0 29.5 0 54 29 54 59.5"></polygon>
                <path d="M13.29,19.682 L13.29,15.743 L4.788,15.743 L4.788,19.682 L13.29,19.682 Z M12.107,17.29 L5.971,17.29 L5.971,16.64 L12.107,16.64 L12.107,17.29 Z M12.107,18.824 L5.971,18.824 L5.971,18.135 L12.107,18.135 L12.107,18.824 Z M9.013,27.378 L9.013,26.156 C9.26,26.104 9.494,26.065 9.702,26.026 L9.702,25.077 L9.013,25.194 L9.013,21.32 L14.772,21.32 L14.772,20.332 L3.254,20.332 L3.254,21.32 L4.385,21.32 L4.385,25.61 L3.267,25.662 L3.423,26.702 C5.178,26.585 6.647,26.455 7.83,26.312 L7.83,27.378 L9.013,27.378 Z M7.83,22.087 L5.516,22.087 L5.516,21.32 L7.83,21.32 L7.83,22.087 Z M14.187,27.391 L14.824,26.364 C14.083,26.065 13.446,25.727 12.913,25.35 C13.472,24.661 13.862,23.855 14.083,22.919 L14.083,21.983 L9.559,21.983 L9.559,22.984 L9.962,22.984 C10.196,23.842 10.638,24.635 11.301,25.363 C10.781,25.779 10.157,26.13 9.416,26.442 L10.053,27.391 C10.846,27.053 11.535,26.637 12.133,26.143 C12.705,26.598 13.381,27.014 14.187,27.391 Z M7.83,23.764 L5.516,23.764 L5.516,22.971 L7.83,22.971 L7.83,23.764 Z M12.055,24.635 C11.574,24.141 11.236,23.582 11.028,22.984 L12.978,22.984 C12.783,23.582 12.471,24.128 12.055,24.635 Z M5.516,25.545 L5.516,24.648 L7.83,24.648 L7.83,25.35 C7.128,25.428 6.361,25.493 5.516,25.545 Z M20.921,17.719 L21.961,17.199 C21.532,16.51 21.077,15.873 20.609,15.301 L19.595,15.795 C20.063,16.367 20.505,17.004 20.921,17.719 Z M21.714,27.261 C22.078,27.261 22.403,26.975 22.689,26.429 C22.923,25.974 23.131,25.415 23.326,24.752 L22.286,24.076 C22.065,25.285 21.857,25.909 21.649,25.948 C21.285,25.935 20.869,25.558 20.427,24.804 C20.323,24.622 20.232,24.427 20.141,24.206 C21.064,23.231 21.844,22.022 22.494,20.592 L21.415,20.033 C20.934,21.099 20.349,22.035 19.673,22.841 C19.543,22.438 19.439,21.983 19.335,21.489 C19.231,21.008 19.153,20.475 19.101,19.89 L22.767,19.331 L22.572,18.135 L18.984,18.681 C18.906,17.693 18.88,16.588 18.88,15.366 L17.632,15.366 C17.632,16.653 17.684,17.823 17.775,18.863 L16.137,19.123 L16.319,20.319 L17.905,20.072 C18.009,20.917 18.139,21.658 18.308,22.308 C18.438,22.828 18.594,23.309 18.763,23.777 C17.944,24.505 17.008,25.064 15.968,25.48 L16.709,26.585 C17.645,26.195 18.503,25.675 19.283,25.025 C19.452,25.376 19.647,25.701 19.868,26 C20.479,26.832 21.09,27.261 21.714,27.261 Z M26.186,27.222 C27.083,27.222 27.538,26.78 27.538,25.896 L27.538,15.379 L26.316,15.379 L26.316,25.584 C26.316,25.935 26.121,26.117 25.757,26.117 C25.211,26.117 24.639,26.091 24.028,26.039 L24.314,27.222 L26.186,27.222 Z M24.912,24.505 L24.912,16.471 L23.716,16.471 L23.716,24.505 L24.912,24.505 Z M30.255,18.564 C30.632,18.148 30.97,17.68 31.269,17.186 L32.153,17.186 C32.387,17.498 32.595,17.823 32.777,18.161 L33.791,17.797 C33.674,17.602 33.544,17.394 33.388,17.186 L34.831,17.186 L34.831,16.146 L31.815,16.146 C31.893,15.938 31.984,15.73 32.075,15.496 L30.905,15.236 C30.567,16.198 30.008,17.082 29.228,17.914 L30.255,18.564 Z M37.951,27.365 L37.951,25.285 L40.798,25.285 L40.798,24.206 L37.951,24.206 L37.951,23.53 L39.472,23.53 L39.472,18.252 L35.845,18.252 C36.131,17.914 36.404,17.537 36.638,17.134 L37.496,17.134 C37.73,17.472 37.951,17.81 38.146,18.174 L39.147,17.81 C39.03,17.602 38.887,17.368 38.705,17.134 L40.642,17.134 L40.642,16.094 L37.145,16.094 C37.21,15.912 37.275,15.717 37.353,15.522 L36.17,15.262 C35.897,16.107 35.442,16.9 34.805,17.641 L35.754,18.252 L30.684,18.252 L30.684,23.53 L32.309,23.53 L32.309,23.933 L32.283,24.206 L29.202,24.206 L29.202,25.285 L31.906,25.285 C31.88,25.337 31.841,25.389 31.789,25.454 C31.451,25.818 30.84,26.13 29.943,26.377 L30.58,27.352 C31.594,27.066 32.322,26.676 32.777,26.156 C32.985,25.909 33.154,25.623 33.284,25.285 L36.742,25.285 L36.742,27.365 L37.951,27.365 Z M38.263,19.76 L31.893,19.76 L31.893,19.188 L38.263,19.188 L38.263,19.76 Z M38.263,21.138 L31.893,21.138 L31.893,20.605 L38.263,20.605 L38.263,21.138 Z M38.263,22.594 L31.893,22.594 L31.893,21.996 L38.263,21.996 L38.263,22.594 Z M36.742,24.206 L33.518,24.206 C33.518,24.115 33.531,24.024 33.531,23.933 L33.531,23.53 L36.742,23.53 L36.742,24.206 Z" id="最划算" fill="#FFFFFF" fill-rule="nonzero" transform="translate(22.026000, 21.313500) rotate(-46.000000) translate(-22.026000, -21.313500) "></path>
            </g>
        </g>
    </g>
</svg>