<?xml version="1.0" encoding="UTF-8"?>
<svg width="58px" height="54px" viewBox="0 0 58 54" version="1.1" xmlns="http://www.w3.org/2000/svg" xmlns:xlink="http://www.w3.org/1999/xlink">
    <!-- Generator: Sketch 60 (88103) - https://sketch.com -->
    <title>最划算</title>
    <desc>Created with Sketch.</desc>
    <g id="用户中心" stroke="none" stroke-width="1" fill="none" fill-rule="evenodd">
        <g id="用户中心-费用管理-电子合同套餐" transform="translate(-1506.000000, -178.000000)">
            <g id="编组-6" transform="translate(1506.000000, 178.000000)">
                <path d="M0,4 L2,1.5 C2.66666667,0.833333333 3.33333333,0.5 4,0.5 C4.66666667,0.5 13.6666667,0.5 31,0.5 C32.6666667,0.5 34,1.16666667 35,2.5 C35.9518085,3.45180854 42.9432137,9.68826412 55.9742155,21.2093667 C57.262355,22.3482442 58,23.9850256 58,25.7044282 L58,50.5 L58,50.5 C56.3333333,52.8333333 55.3333333,54 55,54 C55,53.6666667 55,51.1666667 55,46.5 L8,4 L0,4 Z" id="路径-2" fill="#F2B306"></path>
                <path d="M29.647,16.591 L29.647,12.847 L21.431,12.847 L21.431,16.591 L29.647,16.591 Z M28.75,14.381 L22.328,14.381 L22.328,13.549 L28.75,13.549 L28.75,14.381 Z M28.75,15.915 L22.328,15.915 L22.328,15.044 L28.75,15.044 L28.75,15.915 Z M25.409,24.326 L25.409,23.065 C25.669,23.013 25.929,22.974 26.163,22.935 L26.163,22.194 C25.929,22.233 25.669,22.272 25.409,22.311 L25.409,18.203 L31.246,18.203 L31.246,17.449 L19.78,17.449 L19.78,18.203 L21.028,18.203 L21.028,22.701 L19.819,22.753 L19.936,23.559 C21.743,23.455 23.264,23.325 24.499,23.182 L24.499,24.326 L25.409,24.326 Z M24.499,19.178 L21.873,19.178 L21.873,18.203 L24.499,18.203 L24.499,19.178 Z M30.778,24.313 L31.259,23.533 C30.453,23.195 29.777,22.818 29.205,22.389 C29.829,21.661 30.271,20.803 30.518,19.802 L30.518,19.074 L26.085,19.074 L26.085,19.841 L26.501,19.841 C26.761,20.79 27.242,21.635 27.97,22.389 C27.411,22.857 26.735,23.247 25.955,23.585 L26.436,24.313 C27.281,23.949 28.009,23.507 28.607,22.987 C29.192,23.468 29.92,23.91 30.778,24.313 Z M28.542,21.83 C27.944,21.245 27.541,20.582 27.307,19.841 L29.673,19.841 C29.439,20.569 29.062,21.232 28.542,21.83 Z M24.499,20.855 L21.873,20.855 L21.873,19.88 L24.499,19.88 L24.499,20.855 Z M21.873,22.662 L21.873,21.544 L24.499,21.544 L24.499,22.428 C23.719,22.519 22.835,22.597 21.873,22.662 Z M37.551,14.654 L38.344,14.264 C37.902,13.575 37.447,12.938 36.953,12.353 L36.186,12.73 C36.667,13.302 37.122,13.939 37.551,14.654 Z M38.253,24.222 C38.578,24.222 38.877,23.936 39.137,23.39 C39.345,22.935 39.54,22.376 39.722,21.7 L38.929,21.193 C38.669,22.519 38.435,23.195 38.201,23.234 C37.811,23.221 37.369,22.831 36.888,22.064 C36.745,21.804 36.602,21.518 36.472,21.193 C37.421,20.205 38.227,18.97 38.877,17.514 L38.058,17.085 C37.525,18.268 36.875,19.295 36.108,20.166 C35.965,19.724 35.835,19.23 35.718,18.671 C35.601,18.099 35.51,17.475 35.432,16.773 L39.202,16.188 L39.059,15.278 L35.354,15.85 C35.276,14.823 35.237,13.679 35.237,12.405 L34.275,12.405 C34.275,13.731 34.327,14.927 34.431,15.993 L32.689,16.266 L32.832,17.176 L34.522,16.916 C34.626,17.826 34.756,18.619 34.938,19.295 C35.081,19.867 35.237,20.387 35.419,20.868 C34.574,21.648 33.599,22.246 32.507,22.675 L33.066,23.52 C34.067,23.104 34.977,22.532 35.809,21.83 C36.004,22.259 36.225,22.636 36.459,22.974 C37.057,23.806 37.655,24.222 38.253,24.222 Z M42.673,24.183 C43.479,24.183 43.895,23.78 43.895,22.974 L43.895,12.418 L42.959,12.418 L42.959,22.74 C42.959,23.143 42.751,23.351 42.348,23.351 C41.802,23.351 41.217,23.325 40.593,23.286 L40.801,24.183 L42.673,24.183 Z M41.269,21.622 L41.269,13.51 L40.359,13.51 L40.359,21.622 L41.269,21.622 Z M46.599,15.499 C47.015,15.057 47.379,14.563 47.691,14.043 L48.692,14.043 C48.952,14.394 49.186,14.758 49.394,15.122 L50.174,14.836 C50.031,14.589 49.849,14.329 49.628,14.043 L51.331,14.043 L51.331,13.25 L48.107,13.25 C48.211,13.003 48.328,12.743 48.432,12.483 L47.535,12.288 C47.184,13.276 46.612,14.186 45.819,15.018 L46.599,15.499 Z M52.163,15.239 C52.488,14.862 52.774,14.446 53.034,14.004 L54.022,14.004 C54.308,14.368 54.555,14.745 54.763,15.135 L55.543,14.849 C55.387,14.589 55.205,14.303 54.971,14.004 L57.142,14.004 L57.142,13.211 L53.437,13.211 L53.71,12.509 L52.8,12.314 C52.514,13.198 52.046,14.017 51.396,14.745 L52.163,15.239 Z M54.308,24.326 L54.308,22.129 L57.259,22.129 L57.259,21.297 L54.308,21.297 L54.308,20.426 L55.855,20.426 L55.855,15.317 L47.301,15.317 L47.301,20.426 L48.952,20.426 L48.952,20.933 C48.952,21.037 48.939,21.167 48.926,21.297 L45.741,21.297 L45.741,22.129 L48.692,22.129 C48.614,22.285 48.523,22.428 48.419,22.571 C48.055,22.961 47.418,23.286 46.508,23.546 L46.989,24.287 C47.99,24.001 48.718,23.611 49.16,23.104 C49.394,22.831 49.563,22.506 49.693,22.129 L53.385,22.129 L53.385,24.326 L54.308,24.326 Z M54.945,16.825 L48.211,16.825 L48.211,16.045 L54.945,16.045 L54.945,16.825 Z M54.945,18.216 L48.211,18.216 L48.211,17.488 L54.945,17.488 L54.945,18.216 Z M54.945,19.698 L48.211,19.698 L48.211,18.892 L54.945,18.892 L54.945,19.698 Z M53.385,21.297 L49.862,21.297 C49.875,21.18 49.888,21.063 49.888,20.933 L49.888,20.426 L53.385,20.426 L53.385,21.297 Z" id="最划算" fill="#FFFFFF" fill-rule="nonzero" transform="translate(38.519500, 18.307000) rotate(39.000000) translate(-38.519500, -18.307000) "></path>
            </g>
        </g>
    </g>
</svg>