<?xml version="1.0" encoding="UTF-8"?>
<svg width="270px" height="122px" viewBox="0 0 270 122" version="1.1" xmlns="http://www.w3.org/2000/svg" xmlns:xlink="http://www.w3.org/1999/xlink">
    <!-- Generator: Sketch 60 (88103) - https://sketch.com -->
    <title>路径 2</title>
    <desc>Created with Sketch.</desc>
    <g id="页面-1" stroke="none" stroke-width="1" fill="none" fill-rule="evenodd">
        <g id="待我签署合提示1" transform="translate(-227.000000, -24.000000)" fill="#FFFFFF" stroke="#2B2220">
            <path d="M284.114919,49.0297866 C249.448252,45.6923162 230.781585,55.5378538 228.114919,78.5663993 C226.448252,109.604874 242.910373,123.955996 277.501282,121.619767 C277.243706,132.967166 267.781585,139.80898 249.114919,142.14521 C257.114919,148.152656 302.501282,145.148933 316.001282,128.628455 C325.001282,132.633419 364.501282,151.657 405.501282,121.619767 C415.501282,128.628455 493.671385,130.23044 496.001282,97.5899803 C495.114684,65.9507613 462.152563,52.6008799 397.114919,57.540336 C378.448252,35.8467787 358.614919,25 337.614919,25 C316.614919,25 298.781585,33.0099289 284.114919,49.0297866 Z" id="路径-2"></path>
        </g>
    </g>
</svg>