<?xml version="1.0" encoding="UTF-8"?>
<svg width="16px" height="16px" viewBox="0 0 16 16" version="1.1" xmlns="http://www.w3.org/2000/svg" xmlns:xlink="http://www.w3.org/1999/xlink">
    <!-- Generator: Sketch 52.2 (67145) - http://www.bohemiancoding.com/sketch -->
    <title>合并形状</title>
    <desc>Created with Sketch.</desc>
    <g id="Symbols" stroke="none" stroke-width="1" fill="none" fill-rule="evenodd">
        <g id="-左边栏-账号管理" transform="translate(-21.000000, -73.000000)" fill="#02ADFF">
            <path d="M26,85.4999998 C26.0000001,83.6095932 27.5670044,82 29.5,82 C31.4329957,82 33,83.6095933 33,85.5 C33,85.7761424 32.7761424,86 32.5,86 C32.2238576,86 32,85.7761424 32,85.5 C32,84.2397437 30.7886714,83 29.5,83 C28.2113286,83 27,84.2397437 27,85.5 C27,85.7761424 26.7761424,86 26.5,86 C26.2238576,86 26,85.7761424 26,85.5 Z M29.5,81 C28.1192881,81 27,79.8807119 27,78.5 C27,77.1192881 28.1192881,76 29.5,76 C30.8807119,76 32,77.1192881 32,78.5 C32,79.8807119 30.8807119,81 29.5,81 Z M29.5,80 C30.3284271,80 31,79.3284271 31,78.5 C31,77.6715729 30.3284271,77 29.5,77 C28.6715729,77 28,77.6715729 28,78.5 C28,79.3284271 28.6715729,80 29.5,80 Z M35,73 C36.1045695,73 37,73.8954305 37,75 L37,86.9807042 C37,88.0841147 36.1063775,88.9790644 35.0029682,88.980702 L24.0029682,88.9970273 C24.0019788,88.9970288 24.0009894,88.9970296 24,88.9970296 C22.8954305,88.9970296 22,88.1015991 22,86.9970296 L22,85.5 L21.5,85.5 C21.2238576,85.5 21,85.2761424 21,85 C21,84.7238576 21.2238576,84.5 21.5,84.5 L22,84.5 L22,81.5 L21.5,81.5 C21.2238576,81.5 21,81.2761424 21,81 C21,80.7238576 21.2238576,80.5 21.5,80.5 L22,80.5 L22,77.5 L21.5,77.5 C21.2238576,77.5 21,77.2761424 21,77 C21,76.7238576 21.2238576,76.5 21.5,76.5 L22,76.5 L22,75 C22,73.8954305 22.8954305,73 24,73 L35,73 Z M35,88 C35.5522847,88 36,87.5522847 36,87 L36,75 C36,74.4477153 35.5522847,74 35,74 L23.9980098,73.9992042 C23.9977444,73.9992042 23.997479,73.9992043 23.9972137,73.9992045 C23.4449291,73.9996442 22.9975704,74.4477157 22.9980101,75.0000003 L23,76.5 L23.5,76.5 C23.7761424,76.5 24,76.7238576 24,77 C24,77.2761424 23.7761424,77.5 23.5,77.5 L23,77.5 L23,80.5 L23.5,80.5 C23.7761424,80.5 24,80.7238576 24,81 C24,81.2761424 23.7761424,81.5 23.5,81.5 L22.9980098,81.5 L22.9980098,84.5 L23.5,84.5 C23.7761424,84.5 24,84.7238576 24,85 C24,85.2761424 23.7761424,85.5 23.5,85.5 L23,85.5 L23,87 C23,87.5522847 23.4477153,88 24,88 L35,88 Z" id="合并形状"></path>
        </g>
    </g>
</svg>