<?xml version="1.0" encoding="UTF-8"?>
<svg width="16px" height="16px" viewBox="0 0 16 16" version="1.1" xmlns="http://www.w3.org/2000/svg" xmlns:xlink="http://www.w3.org/1999/xlink">
    <!-- Generator: Sketch 52.2 (67145) - http://www.bohemiancoding.com/sketch -->
    <title>Fill 1</title>
    <desc>Created with Sketch.</desc>
    <g id="Symbols" stroke="none" stroke-width="1" fill="none" fill-rule="evenodd">
        <g id="-左边栏-账号管理" transform="translate(-21.000000, -33.000000)" fill="#02ADFF">
            <path d="M36.4980683,45.0010771 L35,45.0010771 L35.0000366,45.9972137 L36.5,45.9972137 C36.7761424,45.9972137 37,46.2210713 37,46.4972137 L37,46.4972137 C37,46.7743684 36.7771724,47.0000189 36.5000396,47.0035078 L35,47.0223922 L35,48.497177 C35,48.7733224 34.7761453,48.9971852 34.5,48.9971953 L34.5,48.9971953 C34.2238677,48.9972055 34.0000101,48.7733642 34,48.497232 C34,48.4972259 34,48.4972198 34,48.4972137 L34,46.9971881 L32.5,46.9972073 C32.2238611,46.9972108 32.0000035,46.7733589 32,46.49722 C32,46.4972179 32,46.4972158 32,46.4972137 L32,46.4972137 C32,46.2210713 32.2238576,45.9972137 32.5,45.9972137 L34,45.9972137 L34,45.0010771 L32.4999991,44.9981795 C32.2237011,44.9976458 32,44.7735121 32,44.4972137 L32,44.4972137 C32,44.2210713 32.2238576,43.9972137 32.5,43.9972137 L33.5,43.9972137 L32.8821707,42.8680976 C32.7565681,42.6385521 32.8408304,42.3506477 33.0703759,42.225045 C33.0721997,42.2240471 33.07403,42.2230612 33.0758667,42.2220874 L33.0758667,42.2220874 C33.3045848,42.100822 33.5883024,42.1879296 33.7095678,42.4166477 C33.7113144,42.419942 33.7130217,42.423257 33.7146892,42.426592 L34.5,43.9972137 L35.2844041,42.4284629 C35.4009559,42.1953678 35.6844007,42.1008909 35.9174957,42.2174427 C35.920527,42.2189584 35.923542,42.2205067 35.9265399,42.2220874 L35.9265399,42.2220874 C36.1579273,42.3440863 36.2466041,42.6305625 36.1246052,42.8619498 C36.123292,42.8644405 36.1219566,42.8669194 36.1205992,42.8693863 L35.5,43.9972137 L36.4980683,43.9972137 C36.7752775,43.9972137 37,44.2219361 37,44.4991454 L37,44.4991454 C37,44.7763546 36.7752775,45.0010771 36.4980683,45.0010771 Z M23.5,40.9972137 L24.5,40.9972137 C24.7761424,40.9972137 25,41.2210713 25,41.4972137 L25,41.4972137 C25,41.773356 24.7761424,41.9972137 24.5,41.9972137 L23.5,41.9972137 C23.2238576,41.9972137 23,41.773356 23,41.4972137 L23,41.4972137 C23,41.2210713 23.2238576,40.9972137 23.5,40.9972137 Z M26,40.9972137 L27,40.9972137 C27.2761424,40.9972137 27.5,41.2210713 27.5,41.4972137 L27.5,41.4972137 C27.5,41.773356 27.2761424,41.9972137 27,41.9972137 L26,41.9972137 C25.7238576,41.9972137 25.5,41.773356 25.5,41.4972137 L25.5,41.4972137 C25.5,41.2210713 25.7238576,40.9972137 26,40.9972137 Z M28.5,40.9972137 L29.5,40.9972137 C29.7761424,40.9972137 30,41.2210713 30,41.4972137 L30,41.4972137 C30,41.773356 29.7761424,41.9972137 29.5,41.9972137 L28.5,41.9972137 C28.2238576,41.9972137 28,41.773356 28,41.4972137 L28,41.4972137 C28,41.2210713 28.2238576,40.9972137 28.5,40.9972137 Z M33.5,36.9972137 L23.4980098,36.9972137 C23.2218674,36.9972137 22.9980098,36.773356 22.9980098,36.4972137 L22.9980098,36.4972137 C22.9980098,36.2210713 23.2218674,35.9972137 23.4980098,35.9972137 L33.5,35.9972137 C33.7761424,35.9972137 34,36.2210713 34,36.4972137 L34,36.4972137 C34,36.773356 33.7761424,36.9972137 33.5,36.9972137 Z M33.4951317,39.0069502 L23.502879,39.0069502 C23.2245965,39.0069502 22.9990039,38.7813577 22.9990039,38.5030751 C22.9990039,38.5027441 22.9990042,38.502413 22.9990049,38.502082 L22.9990049,38.502082 C22.9995548,38.2230901 23.2258768,37.9972137 23.5048693,37.9972137 L33.4951317,37.9972137 C33.7739628,37.9972137 34,38.2232509 34,38.502082 L34,38.502082 C34,38.780913 33.7739628,39.0069502 33.4951317,39.0069502 Z M35.0000366,40.9972137 L35,34.9972137 C34.9999971,34.444931 34.5522827,33.9972189 34,33.9972189 L23,33.9972137 C22.4477153,33.9972137 22,34.4449289 22,34.9972137 L22,46.9972137 C22,47.5494984 22.4477153,47.9972137 23,47.9972137 L29.5,47.9972137 C29.7761424,47.9972137 30,48.2210713 30,48.4972137 L30,48.4972137 C30,48.773356 29.7761424,48.9972137 29.5,48.9972137 L23,48.9972137 C21.8954305,48.9972137 21,48.1017832 21,46.9972137 L21,35 C21,33.8954305 21.8954305,33 23,33 C23.0009281,33 23.0018563,33.0000006 23.0027844,33.0000019 L34.0027844,33.0153162 C35.1062656,33.0168524 36,33.9118319 36,35.0153142 L36,41.0050576 L35.0000366,40.9972137 Z" id="Fill-1"></path>
        </g>
    </g>
</svg>