<?xml version="1.0" encoding="UTF-8"?>
<svg width="16px" height="16px" viewBox="0 0 16 16" version="1.1" xmlns="http://www.w3.org/2000/svg" xmlns:xlink="http://www.w3.org/1999/xlink">
    <!-- Generator: Sketch 57 (83077) - https://sketch.com -->
    <title>dayin1</title>
    <desc>Created with Sketch.</desc>
    <defs>
        <polygon id="path-1" points="0.00116504854 0.00800976801 15.9856699 0.00800976801 15.9856699 16 0.00116504854 16"></polygon>
    </defs>
    <g id="Page-1" stroke="none" stroke-width="1" fill="none" fill-rule="evenodd">
        <g id="模板管理-模板下载-预览" transform="translate(-1424.000000, -91.000000)">
            <g id="dayin1" transform="translate(1424.000000, 91.000000)">
                <mask id="mask-2" fill="white">
                    <use xlink:href="#path-1"></use>
                </mask>
                <g id="Clip-2"></g>
                <path d="M14.9207379,2.96756044 L13.0259417,2.96756044 L13.0259417,1.4315409 C13.0259417,0.731291819 12.6720194,0.00800976801 11.9760388,0.00800976801 L4.40533981,0.00800976801 C3.70933981,0.00800976801 2.94159223,0.731291819 2.94159223,1.4315409 L2.94159223,2.96756044 L1.46064078,2.96756044 C0.765087379,2.96756044 0,3.69398779 0,4.39423687 L0,9.04929915 C0,9.74954823 0.765087379,10.1548425 1.46064078,10.1548425 L2.9412233,10.1548425 L2.9412233,14.9002589 C2.9412233,15.6005079 3.70897087,16 4.40495146,16 L11.9760388,16 C12.6720194,16 13.0259417,15.6005079 13.0259417,14.9002589 L13.0259417,10.1543736 L14.9207379,10.1543736 C15.6167379,10.1543736 15.9856699,9.74907937 15.9856699,9.04883028 L15.9856699,4.39423687 C15.9856699,3.69398779 15.6167379,2.96756044 14.9207379,2.96756044 Z M3.782,1.4315409 C3.782,1.19818315 4.17376699,0.835399267 4.40533981,0.835399267 L11.9764854,0.835399267 C12.2084272,0.835399267 12.1859806,1.19810501 12.1859806,1.4315409 L12.1859806,2.96756044 L3.782,2.96756044 L3.782,1.4315409 Z M12.185534,14.7381685 C12.185534,14.9715263 12.0032621,15.1726105 11.7713204,15.1726105 L4.19978641,15.1726105 C3.96776699,15.1726105 3.782,14.9715263 3.782,14.7381685 L3.782,8.4642149 C3.782,8.23038828 3.96776699,8.04075214 4.19978641,8.04075214 L11.7713204,8.04075214 C12.0033398,8.04075214 12.185534,8.23038828 12.185534,8.4642149 L12.185534,14.7381685 Z M15.1271262,9.04883028 C15.1271262,9.28228571 15.1531456,9.30883516 14.9207379,9.30883516 L13.0259417,9.30883516 L13.0259417,8.62583639 C13.0259417,7.9255873 12.6720194,7.19521368 11.9760388,7.19521368 L4.40533981,7.19521368 C3.70933981,7.19521368 2.94159223,7.9255873 2.94159223,8.62583639 L2.94159223,9.30883516 L1.46064078,9.30883516 C1.22914563,9.30883516 0.840407767,9.28228571 0.840407767,9.04883028 L0.840407767,4.39423687 C0.840407767,4.16078144 1.22914563,3.8130989 1.46064078,3.8130989 L14.9207379,3.8130989 C15.1526796,3.8130989 15.1272039,4.16078144 15.1272039,4.39423687 L15.1272039,9.04883028 L15.1271262,9.04883028 Z M10.9709515,9.915663 L5.082,9.915663 C4.85003883,9.915663 4.6615534,10.0950037 4.6615534,10.3293578 C4.6615534,10.5636337 4.85003883,10.7429744 5.082,10.7429744 L10.9709515,10.7429744 C11.2034369,10.7429744 11.3913786,10.5636337 11.3913786,10.3293578 C11.3913786,10.0950037 11.2034369,9.915663 10.9709515,9.915663 Z M10.9709515,12.3605763 L5.082,12.3605763 C4.85003883,12.3605763 4.6615534,12.5492161 4.6615534,12.7831209 C4.6615534,13.0170061 4.85003883,13.2056654 5.082,13.2056654 L10.9709515,13.2056654 C11.2034369,13.2056654 11.3913786,13.0170061 11.3913786,12.7831209 C11.3913786,12.5492161 11.2034369,12.3605763 10.9709515,12.3605763 Z" id="Fill-1" fill="#000000" mask="url(#mask-2)"></path>
            </g>
        </g>
    </g>
</svg>