<?xml version="1.0" encoding="UTF-8"?>
<svg width="16px" height="16px" viewBox="0 0 16 16" version="1.1" xmlns="http://www.w3.org/2000/svg" xmlns:xlink="http://www.w3.org/1999/xlink">
    <!-- Generator: Sketch 57 (83077) - https://sketch.com -->
    <title>Eliminate</title>
    <desc>Created with Sketch.</desc>
    <g id="Page-1" stroke="none" stroke-width="1" fill="none" fill-rule="evenodd">
        <g id="用户中心-消息中心" transform="translate(-1444.000000, -181.000000)" fill="#02ADFF">
            <path d="M1459,189 L1457,189 L1459,196 C1459,196.497308 1458.49108,197 1458,197 L1446,197 C1445.50883,197 1445,196.497308 1445,196 L1447,189 L1445,189 C1444.50883,189 1444,188.49722 1444,188 L1444,187 C1444,186.50278 1444.50883,186 1445,186 L1450.5,186 L1450.5,182.5 C1450.5,182.5 1450.5,181 1452,181 C1453.5,181 1453.5,182.5 1453.5,182.5 L1453.5,186 L1459,186 C1459.49108,186 1460,186.50278 1460,187 L1460,188 C1460,188.49722 1459.49108,189 1459,189 Z M1446,196 L1448,196 C1447.95909,195.93792 1448.29242,194.93792 1449,193 C1449.04264,192.755642 1449.32755,192.362381 1449.56933,192.405645 C1449.81108,192.448821 1450.04221,192.755202 1450,193 C1449.35521,194.966411 1449.02187,195.966411 1449,196 L1458,196 L1456,189 L1448,189 L1446,196 Z M1452.5,182.5 C1452.5,182 1452,182 1452,182 C1451.5,182 1451.5,182.5 1451.5,182.5 L1451.5,186 L1452.5,186 L1452.5,182.5 Z M1445,188 L1459,188 L1459,187 L1445,187 L1445,188 Z" id="Eliminate"></path>
        </g>
    </g>
</svg>