<?xml version="1.0" encoding="UTF-8"?>
<svg width="16px" height="16px" viewBox="0 0 16 16" version="1.1" xmlns="http://www.w3.org/2000/svg" xmlns:xlink="http://www.w3.org/1999/xlink">
    <!-- Generator: Sketch 52.3 (67297) - http://www.bohemiancoding.com/sketch -->
    <title>el-icon-delete2 copy</title>
    <desc>Created with Sketch.</desc>
    <g id="Page-2" stroke="none" stroke-width="1" fill="none" fill-rule="evenodd">
        <g id="设置签署流程-hover" transform="translate(-1350.000000, -653.000000)" fill="#02ADFF">
            <path d="M1356,664.485159 C1356,664.762916 1355.76807,664.988082 1355.5,664.988082 L1355.5,664.988082 C1355.22386,664.988082 1355,664.755411 1355,664.485159 L1355,658.497957 C1355,658.2202 1355.23193,657.995034 1355.5,657.995034 L1355.5,657.995034 C1355.77614,657.995034 1356,658.227705 1356,658.497957 L1356,664.485159 Z M1358.53184,664.485159 C1358.53184,664.762916 1358.29991,664.988082 1358.03184,664.988082 L1358.03184,664.988082 C1357.7557,664.988082 1357.53184,664.755411 1357.53184,664.485159 L1357.53184,658.497957 C1357.53184,658.2202 1357.76378,657.995034 1358.03184,657.995034 L1358.03184,657.995034 C1358.30798,657.995034 1358.53184,658.227705 1358.53184,658.497957 L1358.53184,664.485159 Z M1361,664.485159 C1361,664.762916 1360.76807,664.988082 1360.5,664.988082 L1360.5,664.988082 C1360.22386,664.988082 1360,664.755411 1360,664.485159 L1360,658.497957 C1360,658.2202 1360.23193,657.995034 1360.5,657.995034 L1360.5,657.995034 C1360.77614,657.995034 1361,658.227705 1361,658.497957 L1361,664.485159 Z M1363,655.997021 L1352.97962,655.997021 L1352.97962,667.485252 C1352.97962,667.761312 1353.20773,667.985103 1353.47653,667.985103 L1362.50309,667.985103 C1362.77752,667.985103 1363,667.756329 1363,667.485252 L1363,655.997021 Z M1355,654.998014 L1361.00354,654.998014 L1360.28593,654.337225 C1360.08308,654.150432 1359.68524,653.999007 1359.42233,653.999007 L1356.4963,653.999007 C1356.2222,653.999007 1355.84375,654.155102 1355.65025,654.348411 L1355,654.998014 Z M1365.5,655.997021 L1364,655.997021 L1364,668.002605 C1364,668.55425 1363.54424,669.000789 1362.99753,668.999999 L1353.00247,668.985558 C1352.44882,668.984758 1352,668.537064 1352,667.986599 L1352,655.997021 L1350.5,655.997021 C1350.5,655.997021 1350,655.997021 1350,655.490038 C1350,654.983055 1350.5,654.998014 1350.5,654.998014 L1353,654.998014 L1354.34124,653.698808 C1354.73967,653.312867 1355.50892,653 1356.06985,653 L1359.99281,653 C1360.54907,653 1361.30959,653.321015 1361.69565,653.721329 L1362.9269,654.998014 L1365.5,654.998014 C1365.5,654.998014 1366,654.963033 1366,655.480027 C1366,655.997021 1365.5,655.997021 1365.5,655.997021 Z" id="el-icon-delete2-copy"></path>
        </g>
    </g>
</svg>