<?xml version="1.0" encoding="UTF-8"?>
<svg width="18px" height="18px" viewBox="0 0 18 18" version="1.1" xmlns="http://www.w3.org/2000/svg" xmlns:xlink="http://www.w3.org/1999/xlink">
    <!-- Generator: Sketch 52.3 (67297) - http://www.bohemiancoding.com/sketch -->
    <title>Fill 1</title>
    <desc>Created with Sketch.</desc>
    <g id="组件" stroke="none" stroke-width="1" fill="none" fill-rule="evenodd" opacity="0.9">
        <g id="登陆头部" transform="translate(-1365.000000, -27.000000)" fill="#02ADFF">
            <g id="Group-23">
                <g transform="translate(1365.000000, 27.000000)">
                    <path d="M16.5677551,11.5435613 C15.7771685,11.5435613 15.136273,10.8926434 15.136273,10.089909 L15.136273,7.59860536 C15.136273,7.10797282 15.3774156,6.67621742 15.7439267,6.41290485 C14.9231203,3.43872137 12.2183555,1.34161491 9.00005868,1.34161491 C5.78129238,1.34161491 3.07652762,3.43872137 2.25572123,6.41290485 C2.62223229,6.67596834 2.86337497,7.10784828 2.86337497,7.59860536 L2.86337497,10.089909 C2.86337497,10.6898893 2.50522572,11.2043405 1.99430485,11.4263052 C2.88628925,13.4467162 4.61078656,15.0117399 6.73392187,15.6719362 C6.96016,15.0967709 7.73364151,14.6707133 8.66103888,14.6707133 C9.7658532,14.6707133 10.6619745,15.2721569 10.6619745,16.0138035 C10.6619745,16.7556992 9.7658532,17.3571429 8.66103888,17.3571429 C7.7382185,17.3571429 6.9689619,16.9353508 6.73814678,16.3647935 C4.28027527,15.6679197 2.28127608,13.8720265 1.30916506,11.5307958 C0.576583038,11.4666878 0,10.8500501 0,10.089909 L0,7.59860536 C0,6.97648778 0.386696745,6.4497381 0.927749452,6.24250049 C1.84106379,2.60902369 5.10337015,0 9.00005868,0 C12.8962778,0 16.1589362,2.60902369 17.0717811,6.24250049 C17.6129512,6.4497381 18,6.97648778 18,7.59860536 L18,10.089909 C18,10.8926434 17.3587523,11.5435613 16.5677551,11.5435613 Z M5.14285714,7.39297656 C5.14285714,6.86027744 5.57468325,6.42857143 6.10715695,6.42857143 C6.63994077,6.42857143 7.07142857,6.86027744 7.07142857,7.39297656 C7.07142857,7.92531744 6.63994077,8.35714286 6.10715695,8.35714286 C5.57468325,8.35714286 5.14285714,7.92531744 5.14285714,7.39297656 Z M5.99084853,11.7022699 L5.99084853,10.9615728 L6.16571824,10.9615728 C6.8376987,11.733638 7.85449349,12.2255891 8.99277362,12.2255891 C10.1305847,12.2255891 11.1473795,11.733638 11.8193599,10.9615728 L11.9946694,10.9615728 L11.9946694,11.7022699 C11.2165358,12.4157031 10.1603697,12.8571429 8.99277362,12.8571429 C7.82470847,12.8571429 6.76865961,12.4157031 5.99084853,11.7022699 Z M10.9285714,7.39297656 C10.9285714,6.86027744 11.3600373,6.42857143 11.8928571,6.42857143 C12.4253104,6.42857143 12.8571429,6.86027744 12.8571429,7.39297656 C12.8571429,7.92531744 12.4253104,8.35714286 11.8928571,8.35714286 C11.3600373,8.35714286 10.9285714,7.92531744 10.9285714,7.39297656 Z" id="Fill-1"></path>
                </g>
            </g>
        </g>
    </g>
</svg>