<?xml version="1.0" encoding="UTF-8"?>
<svg width="17px" height="17px" viewBox="0 0 17 17" version="1.1" xmlns="http://www.w3.org/2000/svg" xmlns:xlink="http://www.w3.org/1999/xlink">
    <!-- Generator: Sketch 57 (83077) - https://sketch.com -->
    <title>Fill 1</title>
    <desc>Created with Sketch.</desc>
    <g id="Page-1" stroke="none" stroke-width="1" fill="none" fill-rule="evenodd">
        <g id="模板管理-模板下载-预览" transform="translate(-1506.000000, -91.000000)" fill="#333333">
            <path d="M1508.49445,98.9726767 L1509.49351,98.9726767 C1509.7688,98.9726767 1509.99197,99.1958476 1509.99197,99.4711429 C1509.99197,99.7464382 1509.7688,99.9696092 1509.49351,99.9696092 L1508.49445,99.9696092 C1508.21916,99.9696092 1507.99599,99.7464382 1507.99599,99.4711429 C1507.99599,99.1958476 1508.21916,98.9726767 1508.49445,98.9726767 Z M1510.98944,98.9726767 L1511.98849,98.9726767 C1512.26379,98.9726767 1512.48696,99.1958476 1512.48696,99.4711429 C1512.48696,99.7464382 1512.26379,99.9696092 1511.98849,99.9696092 L1510.98944,99.9696092 C1510.71414,99.9696092 1510.49097,99.7464382 1510.49097,99.4711429 C1510.49097,99.1958476 1510.71414,98.9726767 1510.98944,98.9726767 Z M1518.47545,94.9849466 L1508.49247,94.9849466 C1508.21717,94.9849466 1507.994,94.7617757 1507.994,94.4864804 C1507.994,94.2111851 1508.21717,93.9880141 1508.49247,93.9880141 L1518.47545,93.9880141 C1518.75074,93.9880141 1518.97391,94.2111851 1518.97391,94.4864804 C1518.97391,94.7617757 1518.75074,94.9849466 1518.47545,94.9849466 Z M1518.47059,96.9885184 L1508.49732,96.9885184 C1508.21989,96.9885184 1507.99499,96.7636183 1507.99499,96.4861899 C1507.99499,96.4858595 1507.99499,96.4855291 1507.99499,96.4851988 C1507.99554,96.2070625 1508.22117,95.9818791 1508.49931,95.9818791 L1518.47059,95.9818791 C1518.74857,95.9818791 1518.97391,96.207223 1518.97391,96.4851988 C1518.97391,96.7631745 1518.74857,96.9885184 1518.47059,96.9885184 Z M1508.00278,91.0000019 L1518.97268,91.015258 C1520.07616,91.0167927 1520.9699,91.9117726 1520.9699,93.0152561 L1520.9699,96.9991132 L1519.97194,96.9912934 L1519.97191,92.9941491 C1519.9719,92.4418672 1519.52419,91.9941564 1518.97191,91.9941491 L1507.99799,91.9941491 C1507.44571,91.9941491 1506.99799,92.4418644 1506.99799,92.9941491 L1506.99799,104.961519 C1506.99799,105.509759 1507.43941,105.955781 1507.98763,105.961465 L1511.50156,105.997899 C1511.77767,106.000762 1512,106.225406 1512,106.501534 C1512,106.77446 1511.77875,106.99571 1511.50582,106.99571 L1511.50155,106.995691 L1507.98271,106.965275 C1506.88493,106.955786 1506,106.063174 1506,104.96535 L1506,93 C1506,91.8954305 1506.89543,91 1508,91 L1508.00278,91.0000019 Z M1518,100 C1518.27614,100 1518.5,100.223858 1518.5,100.5 L1518.5,100.5 L1518.49988,104.623195 L1519.76962,103.354321 C1519.96488,103.159059 1520.28147,103.159059 1520.47673,103.354321 C1520.67199,103.549583 1520.67199,103.866166 1520.47673,104.061428 L1520.47673,104.061428 L1518.36636,106.171074 L1518.3606,106.179661 C1518.33816,106.202099 1518.31412,106.221956 1518.28859,106.238908 C1518.09354,106.375758 1517.82259,106.357038 1517.6483,106.182748 C1517.63215,106.166597 1517.61733,106.149616 1517.60385,106.131942 L1517.60385,106.131942 L1515.53217,104.057599 C1515.33712,103.862542 1515.33712,103.546292 1515.53217,103.351234 C1515.72723,103.156177 1516.04348,103.156177 1516.23854,103.351234 L1516.23854,103.351234 L1517.49988,104.613195 L1517.5,100.5 C1517.5,100.223858 1517.72386,100 1518,100 Z M1518,108 C1520.76142,108 1523,105.761424 1523,103 C1523,100.238576 1520.76142,98 1518,98 C1515.23858,98 1513,100.238576 1513,103 C1513,105.761424 1515.23858,108 1518,108 Z M1518,107 C1520.20914,107 1522,105.209139 1522,103 C1522,100.790861 1520.20914,99 1518,99 C1515.79086,99 1514,100.790861 1514,103 C1514,105.209139 1515.79086,107 1518,107 Z" id="Fill-1"></path>
        </g>
    </g>
</svg>