<?xml version="1.0" encoding="UTF-8"?>
<svg width="16px" height="16px" viewBox="0 0 16 16" version="1.1" xmlns="http://www.w3.org/2000/svg" xmlns:xlink="http://www.w3.org/1999/xlink">
    <!-- Generator: Sketch 57 (83077) - https://sketch.com -->
    <title>fanhui-2</title>
    <desc>Created with Sketch.</desc>
    <g id="实名认证/人工审核" stroke="none" stroke-width="1" fill="none" fill-rule="evenodd">
        <g id="企业实名认证—对公转账4" transform="translate(-490.000000, -97.000000)" fill="#626262">
            <g id="分组" transform="translate(490.000000, 95.000000)">
                <path d="M8.00119057,2 C3.58237554,2 -1.0658141e-13,5.5820161 -1.0658141e-13,10.0006739 C-1.0658141e-13,14.4192194 3.58237554,18.0012355 8.00119057,18.0012355 C12.420365,18.0012355 16.002471,14.4192194 16.002471,10.0006739 C16.002471,5.5820161 12.420365,2 8.00119057,2 Z M8.00155,17.1994585 C4.03393246,17.1994585 0.80591038,13.9584296 0.80591038,9.99433893 C0.80591038,6.03033815 4.03393246,2.80564081 8.00155,2.80564081 C11.9692349,2.80564081 15.1971672,6.03033815 15.1971672,9.99433893 C15.1971672,13.9584296 11.9692349,17.1994585 8.00155,17.1994585 Z M11.6033123,9.603054 L5.07133849,9.603054 L7.44948735,7.05282782 C7.60552508,6.89663284 7.60552508,6.6435489 7.44948735,6.48735392 C7.29311266,6.33115894 7.04005118,6.33115894 6.88401345,6.48735392 L3.62186795,10.0115467 L6.83382798,13.5604727 C6.91209395,13.6385814 7.0144193,13.677984 7.11656493,13.677984 C7.21889028,13.677984 7.32119316,13.6385814 7.39930188,13.5604727 C7.55558672,13.4045473 7.55558672,13.1515532 7.39930188,12.9949314 L5.04570661,10.4029215 L11.6033123,10.4029215 C11.8241823,10.4029215 12.0032685,10.2240824 12.0032685,10.0029428 C12.0031786,9.78234238 11.8241823,9.603054 11.6033123,9.603054 Z" id="fanhui-2"></path>
            </g>
        </g>
    </g>
</svg>