<?xml version="1.0" encoding="UTF-8"?>
<svg width="16px" height="16px" viewBox="0 0 16 16" version="1.1" xmlns="http://www.w3.org/2000/svg" xmlns:xlink="http://www.w3.org/1999/xlink">
    <!-- Generator: Sketch 52.3 (67297) - http://www.bohemiancoding.com/sketch -->
    <title>添加附件1</title>
    <desc>Created with Sketch.</desc>
    <g id="Page-2" stroke="none" stroke-width="1" fill="none" fill-rule="evenodd">
        <g id="创建合同" transform="translate(-495.000000, -847.000000)" fill="#30BCFF">
            <g id="accessories-2" transform="translate(495.000000, 847.000000)">
                <path d="M14,15.0000107 L2,15.0000107 C0.8954305,15.0000107 -3.41744293e-15,14.1045802 -3.55271368e-15,13.0000107 L-3.55271368e-15,3 C-3.68798443e-15,1.8954305 0.8954305,1 2,1 L5,1 L8,3.00360976 L14.0077754,3.02698051 C15.1092991,3.03126553 15.9999947,3.92543241 15.9999953,5.02696443 L16,13.0000107 C16.0000005,14.1045802 15.1045704,15.0000111 14.0000009,15.0000116 C14.0000006,15.0000116 14.0000003,15.0000116 14,15.0000116 Z M5,2.01514893 L2,2.01514893 C1.44771525,2.01514893 1,2.46286418 1,3.01514893 L0.999494238,13.0070825 C0.999494238,13.5593672 1.44720949,14.0070825 1.99949424,14.0070825 C1.99966287,14.0070825 1.9998315,14.0070824 2.00000013,14.0070823 L13.9999999,13.9999999 C14.552087,13.9997206 14.999494,13.5520872 14.999494,13 L15,5.01833336 C15,4.4672412 14.5541444,4.02002149 14.0030548,4.01833803 L8,4 C6,2.67676595 5,2.01514893 5,2.01514893 Z M5,7 L13,7 L13,8.00000533 L5,8.00000533 L5,7 Z" id="accessories"></path>
            </g>
        </g>
    </g>
</svg>