<?xml version="1.0" encoding="UTF-8"?>
<svg width="24px" height="24px" viewBox="0 0 24 24" version="1.1" xmlns="http://www.w3.org/2000/svg" xmlns:xlink="http://www.w3.org/1999/xlink">
    <!-- Generator: Sketch 57 (83077) - https://sketch.com -->
    <title>Fill 1</title>
    <desc>Created with Sketch.</desc>
    <g id="实名认证/人工审核" stroke="none" stroke-width="1" fill="none" fill-rule="evenodd">
        <g id="个人实名认证—人工审核认证" transform="translate(-1159.000000, -394.000000)" fill="#FFFFFF">
            <g id="分组-5-copy-2" transform="translate(1143.000000, 394.000000)">
                <path d="M28.0000732,0 C21.3727898,0 16,5.37278976 16,12.0000732 C16,18.6277962 21.3727898,24 28.0000732,24 C34.6272395,24 40,18.6277962 40,12.0000732 C40,5.37278976 34.6272395,0 28.0000732,0 Z M31,16 L25,16 C23.8954305,16 23,15.1045695 23,14 L23,12.5 C23,12.2238576 23.2238576,12 23.5,12 C23.7761424,12 24,12.2238576 24,12.5 L24,14 C24,14.5522847 24.4477153,15 25,15 L31,15 C31.5522847,15 32,14.5522847 32,14 L32,12.5 C32,12.2238576 32.2238576,12 32.5,12 C32.7761424,12 33,12.2238576 33,12.5 L33,14 C33,15.1045695 32.1045695,16 31,16 Z M27.7156945,6.46727082 C27.9105626,6.33227476 28.179987,6.35155991 28.3535534,6.52512627 L28.3535534,6.52512627 L30.4748737,8.64644661 C30.6701359,8.84170876 30.6701359,9.15829124 30.4748737,9.35355339 C30.2796116,9.54881554 29.9630291,9.54881554 29.767767,9.35355339 L29.767767,9.35355339 L28.4996797,8.08567966 L28.5,13.5 C28.5,13.7761424 28.2761424,14 28,14 C27.7238576,14 27.5,13.7761424 27.5,13.5 L27.4996797,8.08467966 L26.232233,9.35355339 C26.0586667,9.52711974 25.7892423,9.54640489 25.5943742,9.41140884 L25.5251263,9.35355339 C25.3298641,9.15829124 25.3298641,8.84170876 25.5251263,8.64644661 L25.5251263,8.64644661 L27.6464466,6.52512627 Z" id="Fill-1" transform="translate(28.000000, 12.000000) rotate(-360.000000) translate(-28.000000, -12.000000) "></path>
            </g>
        </g>
    </g>
</svg>