<?xml version="1.0" encoding="UTF-8"?>
<svg width="24px" height="24px" viewBox="0 0 24 24" version="1.1" xmlns="http://www.w3.org/2000/svg" xmlns:xlink="http://www.w3.org/1999/xlink">
    <!-- Generator: Sketch 53.2 (72643) - https://sketchapp.com -->
    <title>合并形状 copy 4</title>
    <desc>Created with Sketch.</desc>
    <g id="Page-1" stroke="none" stroke-width="1" fill="none" fill-rule="evenodd">
        <g id="签署合同1" transform="translate(-1034.000000, -634.000000)" fill="#E2E2E2">
            <path d="M1046.5,644 L1046.5,652.5 C1046.5,652.776142 1046.27614,653 1046,653 C1045.72386,653 1045.5,652.776142 1045.5,652.5 L1045.5,644 L1042.81802,646.681981 C1042.62276,646.877243 1042.30617,646.877243 1042.11091,646.681981 C1041.91565,646.486718 1041.91565,646.170136 1042.11091,645.974874 L1045.29289,642.792893 C1045.68342,642.402369 1046.31658,642.402369 1046.70711,642.792893 L1049.88909,645.974874 C1050.08435,646.170136 1050.08435,646.486718 1049.88909,646.681981 C1049.69383,646.877243 1049.37724,646.877243 1049.18198,646.681981 L1046.5,644 Z M1052,641.5 C1052,641.776142 1051.77614,642 1051.5,642 L1040.5,642 C1040.22386,642 1040,641.776142 1040,641.5 C1040,641.223858 1040.22386,641 1040.5,641 L1051.5,641 C1051.77614,641 1052,641.223858 1052,641.5 Z M1041.32837,657.057371 C1039.89893,656.454005 1038.61455,655.586473 1037.51399,654.485913 C1036.41087,653.382829 1035.54603,652.100936 1034.94263,650.671503 C1034.31599,649.190344 1034,647.618421 1034,645.999951 C1034,644.381481 1034.31851,642.807002 1034.94263,641.328367 C1035.54603,639.898935 1036.41343,638.614549 1037.51399,637.51399 C1038.6172,636.410873 1039.89893,635.546027 1041.32837,634.942629 C1042.80966,634.31599 1044.38148,634 1045.99995,634 C1047.62108,634 1049.19287,634.318515 1050.6715,634.942629 C1052.10094,635.546027 1053.38535,636.41343 1054.48591,637.51399 C1055.58913,638.617204 1056.45401,639.898935 1057.05737,641.328367 C1057.68404,642.809656 1058,644.381481 1058,645.999951 C1058,647.618421 1057.68152,649.192869 1057.05737,650.671503 C1056.45401,652.100936 1055.58913,653.382829 1054.48857,654.485913 C1053.38535,655.589127 1052.10359,656.454005 1050.67416,657.057371 C1049.19287,657.684042 1047.62108,658 1046.00261,658 C1044.38148,658 1042.80966,657.684042 1041.32837,657.057371 Z M1035,646.000016 C1035,652.065614 1039.93439,657 1046.00002,657 C1052.06561,657 1057,652.065614 1057,646.000016 C1057,639.934386 1052.06561,635 1046.00002,635 C1039.93439,635 1035,639.931874 1035,646.000016 Z" id="合并形状-copy-4"></path>
        </g>
    </g>
</svg>