<?xml version="1.0" encoding="UTF-8"?>
<svg width="24px" height="24px" viewBox="0 0 24 24" version="1.1" xmlns="http://www.w3.org/2000/svg" xmlns:xlink="http://www.w3.org/1999/xlink">
    <!-- Generator: Sketch 53.2 (72643) - https://sketchapp.com -->
    <title>合并形状 copy 2</title>
    <desc>Created with Sketch.</desc>
    <g id="Page-1" stroke="none" stroke-width="1" fill="none" fill-rule="evenodd">
        <g id="签署合同1" transform="translate(-1061.000000, -634.000000)" fill="#0073BD">
            <path d="M1073.5,644 L1073.5,652.5 C1073.5,652.776142 1073.27614,653 1073,653 C1072.72386,653 1072.5,652.776142 1072.5,652.5 L1072.5,644 L1069.81802,646.681981 C1069.62276,646.877243 1069.30617,646.877243 1069.11091,646.681981 C1068.91565,646.486718 1068.91565,646.170136 1069.11091,645.974874 L1072.29289,642.792893 C1072.68342,642.402369 1073.31658,642.402369 1073.70711,642.792893 L1076.88909,645.974874 C1077.08435,646.170136 1077.08435,646.486718 1076.88909,646.681981 C1076.69383,646.877243 1076.37724,646.877243 1076.18198,646.681981 L1073.5,644 Z M1079,641.5 C1079,641.776142 1078.77614,642 1078.5,642 L1067.5,642 C1067.22386,642 1067,641.776142 1067,641.5 C1067,641.223858 1067.22386,641 1067.5,641 L1078.5,641 C1078.77614,641 1079,641.223858 1079,641.5 Z M1068.32837,657.057371 C1066.89893,656.454005 1065.61455,655.586473 1064.51399,654.485913 C1063.41087,653.382829 1062.54603,652.100936 1061.94263,650.671503 C1061.31599,649.190344 1061,647.618421 1061,645.999951 C1061,644.381481 1061.31851,642.807002 1061.94263,641.328367 C1062.54603,639.898935 1063.41343,638.614549 1064.51399,637.51399 C1065.6172,636.410873 1066.89893,635.546027 1068.32837,634.942629 C1069.80966,634.31599 1071.38148,634 1072.99995,634 C1074.62108,634 1076.19287,634.318515 1077.6715,634.942629 C1079.10094,635.546027 1080.38535,636.41343 1081.48591,637.51399 C1082.58913,638.617204 1083.45401,639.898935 1084.05737,641.328367 C1084.68404,642.809656 1085,644.381481 1085,645.999951 C1085,647.618421 1084.68152,649.192869 1084.05737,650.671503 C1083.45401,652.100936 1082.58913,653.382829 1081.48857,654.485913 C1080.38535,655.589127 1079.10359,656.454005 1077.67416,657.057371 C1076.19287,657.684042 1074.62108,658 1073.00261,658 C1071.38148,658 1069.80966,657.684042 1068.32837,657.057371 Z M1062,646.000016 C1062,652.065614 1066.93439,657 1073.00002,657 C1079.06561,657 1084,652.065614 1084,646.000016 C1084,639.934386 1079.06561,635 1073.00002,635 C1066.93439,635 1062,639.931874 1062,646.000016 Z" id="合并形状-copy-2"></path>
        </g>
    </g>
</svg>