<?xml version="1.0" encoding="UTF-8"?>
<svg width="24px" height="24px" viewBox="0 0 24 24" version="1.1" xmlns="http://www.w3.org/2000/svg" xmlns:xlink="http://www.w3.org/1999/xlink">
    <!-- Generator: Sketch 53.2 (72643) - https://sketchapp.com -->
    <title>合并形状</title>
    <desc>Created with Sketch.</desc>
    <g id="Page-1" stroke="none" stroke-width="1" fill="none" fill-rule="evenodd">
        <g id="签署合同1" transform="translate(-1094.000000, -634.000000)" fill="#02ADFF">
            <path d="M1106.5,644 L1106.5,652.5 C1106.5,652.776142 1106.27614,653 1106,653 C1105.72386,653 1105.5,652.776142 1105.5,652.5 L1105.5,644 L1102.81802,646.681981 C1102.62276,646.877243 1102.30617,646.877243 1102.11091,646.681981 C1101.91565,646.486718 1101.91565,646.170136 1102.11091,645.974874 L1105.29289,642.792893 C1105.68342,642.402369 1106.31658,642.402369 1106.70711,642.792893 L1109.88909,645.974874 C1110.08435,646.170136 1110.08435,646.486718 1109.88909,646.681981 C1109.69383,646.877243 1109.37724,646.877243 1109.18198,646.681981 L1106.5,644 Z M1112,641.5 C1112,641.776142 1111.77614,642 1111.5,642 L1100.5,642 C1100.22386,642 1100,641.776142 1100,641.5 C1100,641.223858 1100.22386,641 1100.5,641 L1111.5,641 C1111.77614,641 1112,641.223858 1112,641.5 Z M1101.32837,657.057371 C1099.89893,656.454005 1098.61455,655.586473 1097.51399,654.485913 C1096.41087,653.382829 1095.54603,652.100936 1094.94263,650.671503 C1094.31599,649.190344 1094,647.618421 1094,645.999951 C1094,644.381481 1094.31851,642.807002 1094.94263,641.328367 C1095.54603,639.898935 1096.41343,638.614549 1097.51399,637.51399 C1098.6172,636.410873 1099.89893,635.546027 1101.32837,634.942629 C1102.80966,634.31599 1104.38148,634 1105.99995,634 C1107.62108,634 1109.19287,634.318515 1110.6715,634.942629 C1112.10094,635.546027 1113.38535,636.41343 1114.48591,637.51399 C1115.58913,638.617204 1116.45401,639.898935 1117.05737,641.328367 C1117.68404,642.809656 1118,644.381481 1118,645.999951 C1118,647.618421 1117.68152,649.192869 1117.05737,650.671503 C1116.45401,652.100936 1115.58913,653.382829 1114.48857,654.485913 C1113.38535,655.589127 1112.10359,656.454005 1110.67416,657.057371 C1109.19287,657.684042 1107.62108,658 1106.00261,658 C1104.38148,658 1102.80966,657.684042 1101.32837,657.057371 Z M1095,646.000016 C1095,652.065614 1099.93439,657 1106.00002,657 C1112.06561,657 1117,652.065614 1117,646.000016 C1117,639.934386 1112.06561,635 1106.00002,635 C1099.93439,635 1095,639.931874 1095,646.000016 Z" id="合并形状"></path>
        </g>
    </g>
</svg>