<?xml version="1.0" encoding="UTF-8"?>
<svg width="16px" height="18px" viewBox="0 0 16 18" version="1.1" xmlns="http://www.w3.org/2000/svg" xmlns:xlink="http://www.w3.org/1999/xlink">
    <!-- Generator: Sketch 57 (83077) - https://sketch.com -->
    <title>蒙版</title>
    <desc>Created with Sketch.</desc>
    <defs>
        <rect id="path-1" x="0" y="0.667333743" width="16" height="16"></rect>
    </defs>
    <g id="Page-1" stroke="none" stroke-width="1" fill="none" fill-rule="evenodd">
        <g id="模板管理-新建模板" transform="translate(-443.000000, -531.000000)">
            <g id="路径" transform="translate(443.000000, 531.332666)">
                <mask id="mask-2" fill="white">
                    <use xlink:href="#path-1"></use>
                </mask>
                <use id="蒙版" fill="#D8D8D8" opacity="0" xlink:href="#path-1"></use>
                <path d="M5.99716457,12.2156641 C6.35683447,12.5570631 7.06383356,12.5445117 7.41116274,12.1909827 L13.2102057,6.07392274 C13.5696637,5.71516575 13.8923114,3.89047462 12.8133017,2.8662775 C11.734292,1.84208038 9.97296467,2.21478212 9.62563548,2.56831118 L3.38399396,9.02600073 C2.67688718,9.71952301 2.03169937,12.6210478 3.83004887,14.328043 C5.62839837,16.0350382 8.43160558,15.2825094 9.13871236,14.5889871 L12.6016127,10.9905966 C12.711326,10.8812139 13.1990294,10.8939498 13.3087195,10.9905966 C13.4183399,11.0998882 13.4183399,11.5747362 13.3087195,11.6841189 L9.51072298,15.6253143 C8.8036162,16.3188366 5.2934099,17.095777 3.1353905,15.0473828 C0.977371096,12.9989885 1.6102182,9.39025399 2.31732498,8.69673171 L8.90629568,1.87365281 C9.61340246,1.18013053 11.7096106,0.439942497 13.5079601,2.1469377 C15.3063096,3.85393291 14.6244193,6.07392274 13.9173125,6.76744501 L8.13050254,12.885641 C7.77694915,13.2324022 6.3815159,13.959201 5.3025062,12.9350039 C4.69814975,12.3613481 4.64439592,11.6407413 4.77617616,11.056833 C4.87967456,10.5982395 5.09761623,10.2239659 5.25314334,10.0714267 L10.7169859,4.37382961 C10.8265831,4.26444693 11.3143646,4.25231691 11.423985,4.3616996 C11.5336054,4.47108229 11.5459461,4.94735893 11.4363257,5.0566277 L5.97248314,10.7542248 C5.62515396,11.1077538 5.63749467,11.874265 5.99716457,12.2156641 Z" fill="#C4CFDC" mask="url(#mask-2)" transform="translate(8.152858, 8.733879) rotate(-8.000000) translate(-8.152858, -8.733879) "></path>
            </g>
        </g>
    </g>
</svg>