<?xml version="1.0" encoding="UTF-8"?>
<svg width="50px" height="50px" viewBox="0 0 50 50" version="1.1" xmlns="http://www.w3.org/2000/svg" xmlns:xlink="http://www.w3.org/1999/xlink">
    <!-- Generator: Sketch 52.3 (67297) - http://www.bohemiancoding.com/sketch -->
    <title>合同套餐购买</title>
    <desc>Created with Sketch.</desc>
    <g id="更改需求页面" stroke="none" stroke-width="1" fill="none" fill-rule="evenodd">
        <g id="首页2" transform="translate(-1136.000000, -145.000000)" fill="#02ADFF">
            <g id="合并形状-copy-5" transform="translate(1136.000000, 145.000000)">
                <path d="M37.1238407,-1.12798659e-13 C40.4375492,-1.13407378e-13 43.1238407,2.6862915 43.1238407,6 L43.1238407,19.9970514 C43.1238407,20.5509646 42.6748054,21 42.1208922,21 C41.5669789,21 41.1179436,20.5509646 41.1179436,19.9970514 L41.1179436,5.99002869 C41.1179436,3.7808897 39.3270826,1.99002869 37.1179436,1.99002869 L7.01237246,1.99059168 C4.8034533,1.99059168 3.01268337,3.7811096 3.0123725,5.99002873 L3.00589722,44 C3.00589719,44.0001876 3.00589718,44.0003753 3.00589718,44.0005629 C3.00589718,46.2097019 4.79675818,48.0005629 7.00589718,48.0005629 L24.0707661,48 C24.6230509,48 25.0707661,48.4477153 25.0707661,49 C25.0707661,49.5522847 24.6230509,50 24.0707661,50 L7,50 C3.6862915,50 1,47.3137085 1,44 L1,6 C1,2.6862915 3.6862915,-1.13966298e-13 7,-1.14575016e-13 L37.1238407,-1.13686838e-13 Z M32.0855091,33 L34.8660392,41.3170666 C35.0024111,41.7249795 35.3843375,42 35.8144424,42 L47.1297379,42 C47.1297379,42 48.1326447,42 48.1326447,43 C48.1326447,44 47.1297379,44 47.1297379,44 L35.5330324,44 C34.6720992,44 33.9077742,43.4490486 33.6356036,42.6322688 L29.0930044,29 L27.5984158,29 C27.5984158,29 26.4460708,29 26.4460708,28 C26.4460708,27 27.5984158,27 27.5984158,27 C27.5984158,27 28.4254812,27 30.0796119,27 L31.5840348,31 L47.0000031,31.0001216 C48.1045726,31.0001303 48.9999961,31.8955678 48.9999874,33.0001373 C48.999987,33.0438535 48.9985533,33.0875579 48.9956887,33.1311801 L48.6341608,38.6363636 L36.5987777,40 C36.1849512,40.0432502 35.5958103,39.6526925 35.5957873,39.1404759 C35.5957643,38.6282592 36.1849203,38.1795147 36.5986941,38.1363636 L46.6282218,37 L46.9887611,34.124405 C47.0574681,33.5764107 46.668929,33.0764755 46.1209346,33.0077685 C46.0796682,33.0025945 46.0381191,33 45.9965296,33 L32.0855091,33 Z M36.5987359,48.0000104 C36.5987359,47.7243012 36.373759,47.5000044 36.0972313,47.5000044 C35.8207279,47.5000044 35.5957752,47.7243012 35.5957873,48.0000104 C35.5957873,48.2757076 35.8207279,48.5000044 36.0972313,48.5000044 C36.373759,48.5000044 36.5987359,48.2757076 36.5987359,48.0000104 Z M34.0913644,48.0000104 C34.0913644,46.8954576 34.9894112,46 36.0972093,46 C37.2050074,46 38.1031379,46.8954576 38.1031588,48.0000104 C38.1031588,49.1046466 37.2050074,50 36.0972093,50 C35.3001378,50 34.6116533,49.5364915 34.2881364,48.8650029 C34.1620181,48.6032329 34.0913644,48.309856 34.0913644,48.0000104 Z M46.6282218,48.0000104 C46.6282218,47.7243012 46.4032743,47.5000044 46.1267717,47.5000044 C45.850245,47.5000044 45.6252732,47.7243012 45.6252732,48.0000104 C45.6252732,48.2757076 45.850245,48.5000044 46.1267717,48.5000044 C46.4032743,48.5000044 46.6282218,48.2757076 46.6282218,48.0000104 Z M44.1208503,48.0000104 C44.1208503,46.8954576 45.0188672,46 46.1267893,46 C47.234586,46 48.1326656,46.8954576 48.1326447,48.0000104 C48.1326447,49.1046466 47.234586,50 46.1267893,50 C45.0188881,50 44.1208503,49.1046675 44.1208503,48.0000104 Z M14.0853727,22.9998616 C14.0853727,22.9998616 13.0353831,22.9998616 13.0353831,21.9998616 C13.0353831,20.9998616 14.0853727,20.9998616 14.0853727,20.9998616 L34.0351763,20.9998616 C34.0351763,20.9998616 35.085166,21.0054146 35.085166,22.0026381 C35.085166,22.9998616 34.0351763,22.9998616 34.0351763,22.9998616 L14.0853727,22.9998616 Z M14.0853727,13.9998616 C14.0853727,13.9998616 13.0353831,13.9998616 13.0353831,12.9998616 C13.0353831,11.9998616 14.0853727,11.9998616 14.0853727,11.9998616 L34.0351763,11.9998616 C34.0351763,11.9998616 35.085166,11.9998616 35.085166,12.9998616 C35.085166,13.9998616 34.0351763,13.9998616 34.0351763,13.9998616 C34.0351763,13.9998616 27.3852418,13.9998616 14.0853727,13.9998616 Z M23.064869,31.9999317 C23.064869,33.0270603 22.0619204,32.9999317 22.0619204,32.9999317 L14.0383317,32.9999317 C14.0383317,32.9999317 13.0353831,32.9999317 13.0353831,31.9999317 C13.0353831,30.9999317 14.0383317,30.9999317 14.0383317,30.9999317 L22.0619204,30.9999317 C22.0619204,30.9999317 23.064869,30.9725527 23.064869,31.9999317 Z M10.0264472,30.9998616 C10.5808979,30.9998616 11.0294859,31.4470959 11.0294859,31.9997493 C11.0294859,32.5526273 10.5808979,32.9998616 10.0264472,32.9998616 C9.47213161,32.9998616 9.02358871,32.5526273 9.02358871,31.9997493 C9.02358871,31.4470959 9.47213161,30.9998616 10.0264472,30.9998616 Z M10.0264472,11.9998616 C10.5808979,11.9998616 11.0294859,12.4470959 11.0294859,12.999929 C11.0294859,13.5526273 10.5808979,13.9998616 10.0264472,13.9998616 C9.47213161,13.9998616 9.02358871,13.5526273 9.02358871,12.999929 C9.02358871,12.4470959 9.47213161,11.9998616 10.0264472,11.9998616 Z M10.0264472,20.9998616 C10.5808979,20.9998616 11.0294859,21.4470959 11.0294859,21.999929 C11.0294859,22.5526273 10.5808979,22.9998616 10.0264472,22.9998616 C9.47213161,22.9998616 9.02358871,22.5526273 9.02358871,21.999929 C9.02358871,21.4470959 9.47213161,20.9998616 10.0264472,20.9998616 Z" id="合并形状-copy-4"></path>
            </g>
        </g>
    </g>
</svg>