<?xml version="1.0" encoding="UTF-8"?>
<svg width="20px" height="20px" viewBox="0 0 20 20" version="1.1" xmlns="http://www.w3.org/2000/svg" xmlns:xlink="http://www.w3.org/1999/xlink">
    <!-- Generator: Sketch 52.3 (67297) - http://www.bohemiancoding.com/sketch -->
    <title>Group 3@1x</title>
    <desc>Created with Sketch.</desc>
    <defs>
        <polygon id="path-1" points="0.00153061224 0.0251785714 19.9747959 0.0251785714 19.9747959 19.9999745 0.00153061224 19.9999745"></polygon>
    </defs>
    <g id="Symbols" stroke="none" stroke-width="1" fill="none" fill-rule="evenodd">
        <g id="头部" transform="translate(-1477.000000, -27.000000)">
            <g id="帮助中心" transform="translate(1477.000000, 27.000000)">
                <g id="Group-3">
                    <mask id="mask-2" fill="white">
                        <use xlink:href="#path-1"></use>
                    </mask>
                    <g id="Clip-2"></g>
                    <path d="M10.0001533,20.0251786 C4.48588272,20.0251786 0,15.5392959 0,10.0253318 C0,4.5113678 4.48588272,0.0251785714 10.0001533,0.0251785714 C15.5141173,0.0251785714 20,4.5113678 20,10.0253318 C20,15.5392959 15.5138108,20.0251786 10.0001533,20.0251786 Z M10.0001004,1.02517857 C5.03747861,1.02517857 1,5.06275753 1,10.0253793 C1,14.9879759 5.03717755,19.0251786 10.0001004,19.0251786 C14.962421,19.0251786 19,14.9879759 19,10.0253793 C19,5.06275753 14.962421,1.02517857 10.0001004,1.02517857 Z" id="Fill-1" fill="#02ADFF" mask="url(#mask-2)"></path>
                </g>
                <path d="M8.40709527,8.87765279 L8,8.59765481 C9.09870796,7.53247621 10.0740186,7 10.9255929,7 C11.1481149,7 11.3020861,7.03013352 11.3884953,7.09060163 C11.4745936,7.15127079 11.5180808,7.24699939 11.5180808,7.37884298 C11.5180808,7.57675917 11.3206225,8.23529855 10.9255929,9.35526538 C10.2836273,11.2988651 9.96263042,12.4465276 9.96263042,12.7976749 C9.96263042,12.9736004 10.0243432,13.0611862 10.1480796,13.0611862 C10.3949872,13.0611862 10.9008682,12.7318034 11.6666549,12.0729624 L12,12.3858333 C11.2095734,13.0556822 10.6172833,13.4921534 10.2221406,13.6955735 C9.8268849,13.898491 9.4935398,14 9.2222183,14 C9.00003532,14 8.8361178,13.9283229 8.73148299,13.7858735 C8.62619826,13.6434493 8.5737537,13.4896904 8.5737537,13.3246723 C8.5737537,12.7210971 9.03015704,11.0846632 9.94409398,8.41642641 C9.99320425,8.28468335 10.018155,8.18061086 10.018155,8.10345496 C10.018155,7.98269468 9.94409398,7.9223271 9.79563292,7.9223271 C9.58579815,7.92262869 9.12278273,8.24100357 8.40709527,8.87765279 Z" id="Fill-4" fill="#02ADFF"></path>
                <path d="M10,5.56659827 C10,5.40379496 10.0602456,5.26859749 10.1805346,5.1611585 C10.3011913,5.0537195 10.4415744,5 10.6024378,5 C10.7068611,5 10.7990036,5.04259576 10.8795823,5.12765164 C10.9596463,5.21302969 11,5.31098977 11,5.42214234 C11,5.57051532 10.9397544,5.70384752 10.8195389,5.82222373 C10.6988271,5.94092212 10.5623047,6 10.409843,6 C10.2811523,6 10.1807552,5.95945602 10.1086517,5.87792719 C10.0361988,5.79644922 10,5.69272379 10,5.56659827 Z" id="Fill-5" fill="#02ADFF"></path>
            </g>
        </g>
    </g>
</svg>