<?xml version="1.0" encoding="UTF-8"?>
<svg width="18px" height="18px" viewBox="0 0 18 18" version="1.1" xmlns="http://www.w3.org/2000/svg" xmlns:xlink="http://www.w3.org/1999/xlink">
    <!-- Generator: Sketch 52.2 (67145) - http://www.bohemiancoding.com/sketch -->
    <title>合并形状</title>
    <desc>Created with Sketch.</desc>
    <g id="Page-2" stroke="none" stroke-width="1" fill="none" fill-rule="evenodd">
        <g id="首页-copy" transform="translate(-1476.000000, -26.000000)" fill="#000000">
            <path d="M1485.00014,44 C1480.03729,44 1476,39.9627056 1476,35.0001379 C1476,30.0375703 1480.03729,26 1485.00014,26 C1489.96271,26 1494,30.0375703 1494,35.0001379 C1494,39.9627056 1489.96243,44 1485.00014,44 Z M1485.00009,27 C1480.58887,27 1477,30.5889591 1477,35.0001784 C1477,39.4113754 1480.5886,43 1485.00009,43 C1489.41104,43 1493,39.4113754 1493,35.0001784 C1493,30.5889591 1489.41104,27 1485.00009,27 Z M1484.49145,38.449646 L1484.49145,36.6878246 C1484.59349,35.3328936 1485.0662,35.1862123 1485.73612,34.8171738 C1486.74298,34.4837771 1487.497,33.7354679 1487.497,32.783129 C1487.497,31.5926216 1486.34213,30.4533638 1485.14346,30.4533638 L1484.85581,30.4533638 C1483.65713,30.4533638 1482.49826,31.5926216 1482.49826,32.783129 L1481.4964,32.783129 C1481.4964,30.9259119 1483.03383,29.4497475 1484.85581,29.4497475 L1485.14346,29.4497475 C1487.01328,29.4497475 1488.49636,30.97354 1488.49636,32.783129 C1488.49636,34.2592934 1487.58866,35.313304 1486.00642,35.8371015 C1485.86267,35.884618 1485.50668,35.9734867 1485.50668,36.6878246 L1485.50668,38.449646 L1484.49145,38.449646 Z M1484.99604,40.4490276 C1484.72009,40.4490276 1484.4964,40.2253311 1484.4964,39.9493875 C1484.4964,39.6734439 1484.72009,39.4497475 1484.99604,39.4497475 L1485.00034,39.4497475 C1485.27628,39.4497475 1485.49998,39.6734439 1485.49998,39.9493875 C1485.49998,40.2253311 1485.27628,40.4490276 1485.00034,40.4490276 L1484.99604,40.4490276 Z" id="合并形状"></path>
        </g>
    </g>
</svg>