<?xml version="1.0" encoding="UTF-8"?>
<svg width="120px" height="90px" viewBox="0 0 120 90" version="1.1" xmlns="http://www.w3.org/2000/svg" xmlns:xlink="http://www.w3.org/1999/xlink">
    <!-- Generator: Sketch 52.3 (67297) - http://www.bohemiancoding.com/sketch -->
    <title>Fill 1 Copy</title>
    <desc>Created with Sketch.</desc>
    <g id="Page-1" stroke="none" stroke-width="1" fill="none" fill-rule="evenodd">
        <g id="印章管理-UKEY印章订单查看" transform="translate(-1611.000000, -106.000000)">
            <g id="Group" transform="translate(1611.000000, 91.000000)">
                <g id="分组" transform="translate(0.000000, 15.000000)">
                    <path d="M60.0000086,17.7635029 C68.9906734,17.7635029 76.9645881,22.1040875 81.9354179,28.7993682 L85.4138465,29.7289786 C80.2214764,21.1390531 70.7832756,15.3950052 60.0000086,15.3950052 C54.7902778,15.3950052 49.895036,16.7374351 45.6406018,19.0915178 L49.1118096,20.0200548 C52.4473585,18.5692062 56.1298132,17.7635029 60.0000086,17.7635029 Z M77.9181947,16.2221775 L79.8223351,17.7635029 L80.4093708,15.4543518 L82.5416579,14.2106797 L80.4093708,12.9671609 L79.8223351,10.6578564 L77.9181947,12.1985684 L75.4234849,12.0147012 L76.3783205,14.2106797 L75.4234849,16.4066581 L77.9181947,16.2221775 Z M44.8767333,11.0550341 L42.9172845,9.69343541 L42.4898746,12.1033378 L40.4843357,13.5960511 L42.6471959,14.6305532 L43.3662032,16.9140948 L45.1305367,15.1439705 L47.5808462,15.0625414 L46.5084805,12.9335771 L47.3030759,10.60035 L44.8767333,11.0550341 Z M63.2178739,7.72564241 L61.7655712,5.83452464 L60.6242238,8.00059977 L58.2590275,8.81412392 L60.0047713,10.4560472 L59.9946314,12.849081 L62.2144899,11.6983392 L64.5736944,12.3644936 L64.2003636,10.0108708 L65.668337,8.02881625 L63.2178739,7.72564241 Z M89.7641484,22.5958824 L87.7082175,21.1743237 L87.4152373,23.5506423 L85.4768365,24.9596262 L87.7202009,26.0635961 L88.5794762,28.3554186 L90.2580819,26.662583 L92.7271347,26.6697905 L91.5220292,24.5187437 L92.188801,22.231675 L89.7641484,22.5958824 Z M116.482186,40.4904999 L13.3444192,12.905974 C10.81253,12.2290851 8.21027636,13.7285458 7.53213564,16.2551479 L0.162617352,43.7079458 C-0.515062459,46.2345478 0.987171318,48.8319978 3.51844599,49.5088867 L106.655598,77.0934126 C109.187487,77.7709149 111.789741,76.2714542 112.468496,73.7448521 L119.836939,46.2920542 C120.515694,43.7648388 119.01346,41.1673888 116.482186,40.4904999 Z M117.237758,46.8228001 L110.483237,71.9873026 C109.974247,73.8825608 108.022634,75.0075397 106.124485,74.499643 L5.27863134,47.5285189 C3.37986807,47.0198555 2.25342319,45.0718447 2.76179827,43.1771999 L9.51739489,18.012084 C10.02577,16.1168258 11.9779979,14.9924603 13.8761466,15.4997436 L114.721386,42.4714811 C116.620149,42.9789177 117.747209,44.9275419 117.237758,46.8228001 Z M60.0000086,2.36803768 C79.7659514,2.36803768 96.3926896,15.7711739 101.26335,33.9683519 L103.888956,34.6703902 C99.2121818,14.7964784 81.3377814,0 60.0006231,0 C47.0623313,0 35.3987412,5.44041398 27.1770148,14.1531732 L29.7995481,14.8545982 C37.5281092,7.14045709 48.2056759,2.36803768 60.0000086,2.36803768 Z M70.8882076,69.9793318 C67.5526587,71.4301804 63.8708186,72.2364971 60.0000086,72.2364971 C51.0094974,72.2364971 43.0354291,67.8965259 38.0639848,61.2000184 L34.5861707,60.270408 C39.7779263,68.8603335 49.2162807,74.6049948 60.0000086,74.6049948 C65.2097394,74.6049948 70.1049812,73.2625649 74.3594154,70.9084822 L70.8882076,69.9793318 Z M45.430584,74.8972808 L43.5413461,73.3596358 L42.9592266,75.663573 L40.8449148,76.9040248 L42.9592266,78.1446299 L43.5413461,80.4485671 L45.430584,78.9113822 L47.905475,79.0947893 L46.9578602,76.9040248 L47.905475,74.7134136 L45.430584,74.8972808 Z M59.9921733,82.1917017 L61.4324925,84.078679 L62.5649291,81.9179711 L64.9109211,81.1069006 L63.1794654,79.4685044 L63.1891443,77.0808378 L60.987261,78.229126 L58.6478753,77.5648119 L59.0181334,79.9124539 L57.5622971,81.8897547 L59.9921733,82.1917017 Z M29.998197,67.3053599 L31.9330642,68.8634005 L32.3896646,66.5194389 L34.4073407,65.2530708 L32.2661429,63.9974373 L31.5777087,61.6565427 L29.79709,63.224091 L27.3546158,63.0439042 L28.3951792,65.2685592 L27.573698,67.4981215 L29.998197,67.3053599 Z M60.0000086,87.6308889 C40.2346803,87.6308889 23.6079421,74.2282127 18.7366672,56.0316481 L16.1110612,55.3289964 C20.7873745,75.2035216 38.6622358,90 60.0000086,90 C72.9383004,90 84.6025051,84.559586 92.8237706,75.8462134 L90.2010836,75.1447884 C82.4720617,82.8595429 71.7938804,87.6308889 60.0000086,87.6308889 Z M77.1530971,78.9408255 L79.0997942,80.3005839 L79.5193688,77.8985024 L81.5069325,76.4134567 L79.3585139,75.3783411 L78.6401211,73.1009336 L76.8931483,74.8638504 L74.4614285,74.941139 L75.5290315,77.0651961 L74.7453442,79.3912157 L77.1530971,78.9408255 Z" id="Fill-1-Copy" fill="#02ADFF" transform="translate(60.000000, 45.000000) scale(-1, 1) translate(-60.000000, -45.000000) "></path>
                    <path d="M24.6612656,32.1449164 L26.4252656,32.9569164 C24.9692656,36.0369164 22.6452656,38.7809164 19.3972656,41.1609164 L18.8092656,39.2289164 C21.4972656,37.1569164 23.4292656,34.8049164 24.6612656,32.1449164 Z M25.6972656,38.5849164 L27.4332656,39.3969164 C26.7612656,40.9089164 25.9212656,42.3369164 24.9132656,43.6809164 L24.9132656,57.8489164 L22.9812656,57.8489164 L22.9812656,45.9209164 C21.9732656,46.9849164 20.8532656,47.9649164 19.6492656,48.8889164 L19.0612656,46.9569164 C22.0852656,44.5209164 24.2972656,41.7209164 25.6972656,38.5849164 Z M35.1332656,32.2569164 L37.0652656,32.2569164 L37.0652656,35.3089164 L43.3652656,35.3089164 L43.3652656,37.1289164 L37.0652656,37.1289164 L37.0652656,40.6289164 L44.5132656,40.6289164 L44.5132656,42.4769164 L27.8252656,42.4769164 L27.8252656,40.6289164 L35.1332656,40.6289164 L35.1332656,37.1289164 L28.8892656,37.1289164 L28.8892656,35.3089164 L35.1332656,35.3089164 L35.1332656,32.2569164 Z M27.9652656,45.8929164 L38.8292656,45.8929164 L38.8292656,43.8209164 L40.8452656,43.8209164 L40.8452656,45.8929164 L44.1212656,45.8929164 L44.1212656,47.7689164 L40.8452656,47.7689164 L40.8452656,54.9649164 C40.8452656,56.7849164 39.9212656,57.7089164 38.1292656,57.7089164 L34.1532656,57.7089164 L33.7052656,55.7769164 C34.9932656,55.8609164 36.2532656,55.9169164 37.4292656,55.9169164 C38.3532656,55.9169164 38.8292656,55.4129164 38.8292656,54.4609164 L38.8292656,47.7689164 L27.9652656,47.7689164 L27.9652656,45.8929164 Z M31.2692656,48.8609164 C32.8372656,50.4569164 34.0412656,51.8569164 34.8812656,53.0329164 L33.3132656,54.1529164 C32.4172656,52.8649164 31.2132656,51.4089164 29.7012656,49.8409164 L31.2692656,48.8609164 Z M58.6532656,32.3129164 L60.7252656,32.3129164 L60.7252656,35.9809164 L71.7292656,35.9809164 L71.7292656,37.9409164 L60.7252656,37.9409164 L60.7252656,42.2249164 L68.2572656,42.2249164 L68.2572656,44.0169164 C66.6892656,47.1529164 64.4212656,49.8409164 61.4532656,52.0809164 C62.8532656,52.8649164 64.3932656,53.6209164 66.0732656,54.2929164 C68.0612656,55.0489164 70.1892656,55.6929164 72.4572656,56.2529164 L71.2812656,58.0169164 C68.8732656,57.3729164 66.5772656,56.5889164 64.4212656,55.6929164 C62.7132656,54.9649164 61.1452656,54.1529164 59.7452656,53.2569164 C56.5532656,55.2729164 52.7452656,56.8689164 48.2932656,58.0729164 L47.1452656,56.2809164 C51.4012656,55.2729164 55.0412656,53.8729164 58.0652656,52.0809164 C56.6092656,50.9889164 55.3212656,49.7289164 54.2292656,48.3289164 C53.2212656,47.0409164 52.4932656,45.6129164 52.0452656,44.1009164 L49.8892656,44.1009164 L49.8892656,42.2249164 L58.6532656,42.2249164 L58.6532656,37.9409164 L47.7612656,37.9409164 L47.7612656,35.9809164 L58.6532656,35.9809164 L58.6532656,32.3129164 Z M59.7172656,50.9889164 C62.4332656,49.0849164 64.5332656,46.7889164 65.9892656,44.1009164 L54.0332656,44.1009164 C54.5372656,45.5849164 55.3212656,46.9009164 56.3852656,48.0489164 C57.3652656,49.1689164 58.4852656,50.1489164 59.7172656,50.9889164 Z M81.1652656,32.0609164 L83.0412656,32.9569164 C82.4252656,34.9169164 81.6412656,36.7369164 80.7452656,38.4729164 L80.7452656,58.0449164 L78.7292656,58.0449164 L78.7292656,41.8049164 C77.7212656,43.2889164 76.5732656,44.6889164 75.3132656,46.0329164 L74.6972656,43.9329164 C77.6652656,40.4889164 79.8212656,36.5409164 81.1652656,32.0609164 Z M83.6292656,38.3889164 L94.3532656,38.3889164 L94.3532656,32.3689164 L96.3692656,32.3689164 L96.3692656,38.3889164 L100.401266,38.3889164 L100.401266,40.3489164 L96.3692656,40.3489164 L96.3692656,54.9649164 C96.3692656,56.8689164 95.4732656,57.8209164 93.7372656,57.8209164 L89.6772656,57.8209164 L89.2292656,55.8329164 C90.5452656,55.9169164 91.8052656,55.9729164 93.0372656,55.9729164 C93.9052656,55.9729164 94.3532656,55.4689164 94.3532656,54.4609164 L94.3532656,40.3489164 L83.6292656,40.3489164 L83.6292656,38.3889164 Z M86.2052656,43.4009164 C88.3332656,45.9209164 89.9852656,48.1329164 91.1332656,50.0089164 L89.4252656,51.2129164 C88.2212656,49.1689164 86.5972656,46.9009164 84.5532656,44.4089164 L86.2052656,43.4009164 Z" id="待支付" fill="#0073BD" transform="translate(59.605266, 45.066916) rotate(-15.000000) translate(-59.605266, -45.066916) "></path>
                </g>
            </g>
        </g>
    </g>
</svg>