<?xml version="1.0" encoding="UTF-8"?>
<svg width="16px" height="16px" viewBox="0 0 16 16" version="1.1" xmlns="http://www.w3.org/2000/svg" xmlns:xlink="http://www.w3.org/1999/xlink">
    <!-- Generator: Sketch 52.2 (67145) - http://www.bohemiancoding.com/sketch -->
    <title>Fill 1</title>
    <desc>Created with Sketch.</desc>
    <g id="Page-2" stroke="none" stroke-width="1" fill="none" fill-rule="evenodd">
        <g id="首页" transform="translate(-459.000000, -211.000000)" fill="#AEAEAE">
            <g id="分组-8" transform="translate(459.000000, 211.000000)">
                <path d="M2,7.03132175 L6.01564458,7.03132175 C6.56792933,7.03132175 7.01564458,6.5836065 7.01564458,6.03132175 L7.01564458,2 C7.01564458,1.44771525 6.56792933,1 6.01564458,1 L2,1 C1.44771525,1 1,1.44771525 1,2 L1,6.03132175 C1,6.5836065 1.44771525,7.03132175 2,7.03132175 Z M2.5,6 L5.5,6 C5.77614237,6 6,5.77614237 6,5.5 L6,2.5 C6,2.22385763 5.77614237,2 5.5,2 L2.5,2 C2.22385763,2 2,2.22385763 2,2.5 L2,5.5 C2,5.77614237 2.22385763,6 2.5,6 Z M9.98435542,7.03132175 L14,7.03132175 C14.5522847,7.03132175 15,6.5836065 15,6.03132175 L15,2 C15,1.44771525 14.5522847,1 14,1 L9.98435542,1 C9.43207067,1 8.98435542,1.44771525 8.98435542,2 L8.98435542,6.03132175 C8.98435542,6.5836065 9.43207067,7.03132175 9.98435542,7.03132175 Z M10.5,6 L13.5,6 C13.7761424,6 14,5.77614237 14,5.5 L14,2.5 C14,2.22385763 13.7761424,2 13.5,2 L10.5,2 C10.2238576,2 10,2.22385763 10,2.5 L10,5.5 C10,5.77614237 10.2238576,6 10.5,6 Z M2,15 L6.01564458,15 C6.56792933,15 7.01564458,14.5522847 7.01564458,14 L7.01564458,9.96867825 C7.01564458,9.4163935 6.56792933,8.96867825 6.01564458,8.96867825 L2,8.96867825 C1.44771525,8.96867825 1,9.4163935 1,9.96867825 L1,14 C1,14.5522847 1.44771525,15 2,15 Z M2.5,14 L5.5,14 C5.77614237,14 6,13.7761424 6,13.5 L6,10.5 C6,10.2238576 5.77614237,10 5.5,10 L2.5,10 C2.22385763,10 2,10.2238576 2,10.5 L2,13.5 C2,13.7761424 2.22385763,14 2.5,14 Z M9.98435542,15 L14,15 C14.5522847,15 15,14.5522847 15,14 L15,9.96867825 C15,9.4163935 14.5522847,8.96867825 14,8.96867825 L9.98435542,8.96867825 C9.43207067,8.96867825 8.98435542,9.4163935 8.98435542,9.96867825 L8.98435542,14 C8.98435542,14.5522847 9.43207067,15 9.98435542,15 Z M10.5,14 L13.5,14 C13.7761424,14 14,13.7761424 14,13.5 L14,10.5 C14,10.2238576 13.7761424,10 13.5,10 L10.5,10 C10.2238576,10 10,10.2238576 10,10.5 L10,13.5 C10,13.7761424 10.2238576,14 10.5,14 Z" id="Fill-1"></path>
            </g>
        </g>
    </g>
</svg>