<?xml version="1.0" encoding="UTF-8"?>
<svg width="18px" height="18px" viewBox="0 0 18 18" version="1.1" xmlns="http://www.w3.org/2000/svg" xmlns:xlink="http://www.w3.org/1999/xlink">
    <!-- Generator: Sketch 52.2 (67145) - http://www.bohemiancoding.com/sketch -->
    <title>合并形状</title>
    <desc>Created with Sketch.</desc>
    <g id="Page-2" stroke="none" stroke-width="1" fill="none" fill-rule="evenodd">
        <g id="首页-copy" transform="translate(-1326.000000, -26.000000)" fill="#040000">
            <path d="M1336.49996,34.5 C1338.51693,35.1804979 1339.99999,37.1463388 1340.00017,39.5 L1339,39.5 C1339,37.0129226 1337.00033,35.4748082 1335.00017,35.4748082 C1333,35.4748082 1331,37.0129226 1331,39.5 L1330.00017,39.5 C1330.00017,37.1465977 1331.48291,35.1804979 1333.49996,34.5 C1332.84683,34.000725 1332.40176,33.1593179 1332.40176,32.2447062 C1332.40176,30.731181 1333.56723,29.5 1335,29.5 C1336.43266,29.5 1337.59813,30.731181 1337.59813,32.2447062 C1337.59813,33.1593179 1337.15301,34.0009839 1336.49996,34.5 Z M1333.49996,32.25 C1333.49996,33.2149464 1334.17299,34 1335.00013,34 C1335.8272,34 1336.49996,33.2149464 1336.49996,32.25 C1336.49996,31.2850744 1335.82706,30.5 1335,30.5 C1334.17285,30.5 1333.49996,31.2850744 1333.49996,32.25 Z M1335.00005,26 C1339.97067,26 1344,30.0295044 1344,35.0000549 C1344,39.9704956 1339.9705,44 1335.00005,44 C1330.0295,44 1326,39.9704956 1326,35.0000549 C1326,30.0295044 1330.0295,26 1335.00005,26 Z M1335,43 C1339.41128,43 1343,39.4111116 1343,35 C1343,30.5886337 1339.41128,27 1335,27 C1330.58863,27 1327,30.5886337 1327,35 C1327,39.4111116 1330.58863,43 1335,43 Z" id="合并形状"></path>
        </g>
    </g>
</svg>