<?xml version="1.0" encoding="UTF-8"?>
<svg width="40px" height="48px" viewBox="0 0 40 48" version="1.1" xmlns="http://www.w3.org/2000/svg" xmlns:xlink="http://www.w3.org/1999/xlink">
    <!-- Generator: Sketch 52.3 (67297) - http://www.bohemiancoding.com/sketch -->
    <title>保存</title>
    <desc>Created with Sketch.</desc>
    <g id="Page-1" stroke="none" stroke-width="1" fill="none" fill-rule="evenodd">
        <g id="创建合同-取消弹窗" transform="translate(-806.000000, -367.000000)" fill="#F7BA2A" fill-rule="nonzero">
            <path d="M823.81089,409.38118 C821.317175,407.015332 819.764327,403.683822 819.764327,399.992977 C819.764327,392.815143 825.637382,386.996358 832.882163,386.996358 C837.555679,386.996358 841.658368,389.417773 843.981871,393.063408 L843.981871,371.99948 C843.981871,370.89491 843.086441,369.99948 841.981871,369.99948 L810.018129,369.99948 C808.913559,369.99948 808.018129,370.89491 808.018129,371.99948 L808.018129,414.00326 L846,414 L806,414.00326 L806,372 C806,369.790861 807.790861,368 810,368 L842,368 C844.209139,368 846,369.790861 846,372 L846,401.006642 L845.96069,401.006642 C845.438683,407.71073 839.782645,412.989595 832.882163,412.989595 C830.397391,412.989595 828.073976,412.305124 826.093523,411.116108 L815.728069,413 L815.728069,410.953379 L823.81089,409.38118 Z M811.682487,372.998699 L838.945874,372.998699 C839.498015,372.998699 839.945614,373.446298 839.945614,373.998439 C839.945614,374.55058 839.498015,374.998179 838.945874,374.998179 L811.682487,374.998179 C811.130346,374.998179 810.682747,374.55058 810.682747,373.998439 C810.682747,373.446298 811.130346,372.998699 811.682487,372.998699 Z M811.682487,378.997139 L838.945874,378.997139 C839.498015,378.997139 839.945614,379.444737 839.945614,379.996879 C839.945614,380.54902 839.498015,380.996618 838.945874,380.996618 L811.682487,380.996618 C811.130346,380.996618 810.682747,380.54902 810.682747,379.996879 C810.682747,379.444737 811.130346,378.997139 811.682487,378.997139 Z M811.682487,384.995578 L824.818973,384.995578 C825.371114,384.995578 825.818713,385.443177 825.818713,385.995318 C825.818713,386.547459 825.371114,386.995058 824.818973,386.995058 L811.682487,386.995058 C811.130346,386.995058 810.682747,386.547459 810.682747,385.995318 C810.682747,385.443177 811.130346,384.995578 811.682487,384.995578 Z M811.682487,390.994017 L820.782715,390.994017 C821.334857,390.994017 821.782455,391.441616 821.782455,391.993757 C821.782455,392.545898 821.334857,392.993497 820.782715,392.993497 L811.682487,392.993497 C811.130346,392.993497 810.682747,392.545898 810.682747,391.993757 C810.682747,391.441616 811.130346,390.994017 811.682487,390.994017 Z M832.882163,410.990115 C839.012363,410.990115 843.981871,406.066529 843.981871,399.992977 C843.981871,393.919425 839.012363,388.995838 832.882163,388.995838 C826.751964,388.995838 821.782455,393.919425 821.782455,399.992977 C821.782455,406.066529 826.751964,410.990115 832.882163,410.990115 Z M830.741812,403.975357 L840.790658,395.543374 L842.075898,397.075065 L830.481076,406.804276 L829.195835,405.272585 L824.697493,399.911669 L826.243469,398.614441 L830.741812,403.975357 Z" id="合并形状"></path>
        </g>
    </g>
</svg>