<?xml version="1.0" encoding="UTF-8"?>
<svg width="40px" height="47px" viewBox="0 0 40 47" version="1.1" xmlns="http://www.w3.org/2000/svg" xmlns:xlink="http://www.w3.org/1999/xlink">
    <!-- Generator: Sketch 52.3 (67297) - http://www.bohemiancoding.com/sketch -->
    <title>applications</title>
    <desc>Created with Sketch.</desc>
    <g id="Page-1" stroke="none" stroke-width="1" fill="none" fill-rule="evenodd">
        <g id="合同管理（删除文件弹窗）" transform="translate(-805.000000, -368.000000)">
            <g id="applications" transform="translate(805.000000, 368.000000)">
                <path d="M3.99995448,44 L3.99995448,3.9999722 C3.99995448,1.79083321 5.79081548,-2.77950182e-05 7.99995448,-2.77950182e-05 L36,-2.77950182e-05 C38.209139,-2.77950182e-05 40,1.79083321 40,3.9999722 L40,40 C40,42.209139 38.209139,44 36,44 L3.99995448,44 Z M5.88297327,4.00616027 L6,42 L35.9819045,41.9990934 C37.08612,41.9990934 37.9814039,41.1042152 37.9819043,39.9999998 L38.000033,4.00000021 C38.0005336,2.89543082 37.1055091,1.99959459 36.0009397,1.99909397 C36.0006375,1.99909384 36.0003354,1.99909377 36.0000332,1.99909377 L7.88296378,2 C6.77839428,2 5.88296378,2.8954305 5.88296378,4 C5.88296378,4.00205343 5.88296695,4.00410685 5.88297327,4.00616027 Z" id="Fill-3" fill="#F7BA2A"></path>
                <path d="M32.9463114,45.6654648 L4.99340691,45.6654648 C3.083193,45.6654648 1.54095775,44.1076969 1.54095775,42.1978484 L1.54095775,7.90176253 C1.54095775,5.98327847 3.0919557,4.4343662 4.99340691,4.4343662 L32.9463114,4.4343662 C34.8567444,4.4343662 36.3987606,5.99207911 36.3987606,7.90176253 L36.3987606,42.1890478 C36.3987606,44.1165525 34.8479817,45.6654648 32.9463114,45.6654648 Z" id="Fill-4" fill="#FFFFFF"></path>
                <path d="M8.55746479,9.14388732 C8.9011831,9.48760563 9.40230986,9.62185915 9.87211268,9.496 C10.3417465,9.37014085 10.7086197,9.00326761 10.8344789,8.5336338 C10.9603944,8.06377465 10.8261408,7.56264789 10.4821972,7.21892958 C10.1384225,6.87492958 9.63712676,6.74073239 9.16749296,6.86659155 C8.69785915,6.9924507 8.33098592,7.35932394 8.20512676,7.82895775 C8.07921127,8.2988169 8.21346479,8.79988732 8.55746479,9.14388732 Z" id="Fill-8" fill="#FFFFFF"></path>
                <g id="分组" transform="translate(0.000000, 2.873239)" fill="#F7BA2A">
                    <path d="M33,44.1267606 L4,44.1267606 C1.790861,44.1267606 -6.83488586e-15,42.3358996 -7.10542736e-15,40.1267606 L-7.10542736e-15,4.12676056 C-7.37596886e-15,1.91762156 1.790861,0.126760563 4,0.126760563 L33,0.126760563 C35.209139,0.126760563 37,1.91762156 37,4.12676056 L37,40.1267606 C37,42.3358996 35.209139,44.1267606 33,44.1267606 Z M2,4.12676056 L2,40.1267606 C2,41.2313301 2.8954305,42.1267606 4,42.1267606 L33,42.1267606 C34.1045695,42.1267606 35,41.2313301 35,40.1267606 L35,4.12676056 C35,3.02219106 34.1045695,2.12676056 33,2.12676056 L4,2.12676056 C2.8954305,2.12676056 2,3.02219106 2,4.12676056 Z" id="Fill-10"></path>
                    <path d="M36.5,10.1267606 L1.51848304,10.1267606 C1.23724677,10.1267606 1,9.41971545 1,9.12676056 C1,8.84268142 1.22845985,8.12676056 1.51848304,8.12676056 L36.481462,8.12676056 C36.7626983,8.12676056 37,8.83380568 37,9.12676056 C37,9.41971545 36.7812363,10.1267606 36.5,10.1267606 Z M5.06823285,6.83676426 C4.05784721,6.83676426 3.2319319,6.00250021 3.2319319,4.9816792 C3.2319319,3.96102462 4.05784721,3.12676056 5.06823285,3.12676056 C6.07883817,3.12676056 6.9048084,3.96102462 6.9048084,4.9816792 C6.9048084,6.00250021 6.08768001,6.83676426 5.06823285,6.83676426 Z M5.06823285,4.16516663 C4.62031975,4.16516663 4.25989138,4.52901648 4.25989138,4.9816792 C4.25989138,5.43434192 4.62031975,5.7983582 5.06823285,5.7983582 C5.51636563,5.7983582 5.876794,5.43434192 5.876794,4.9816792 C5.876794,4.52901648 5.51636563,4.16516663 5.06823285,4.16516663 Z M9.30358189,6.83676426 C8.29319624,6.83676426 7.46728094,6.00250021 7.46728094,4.9816792 C7.46728094,3.96102462 8.29319624,3.12676056 9.30358189,3.12676056 C10.3142421,3.12676056 11.1401574,3.96102462 11.1401574,4.9816792 C11.1401574,6.00250021 10.3142421,6.83676426 9.30358189,6.83676426 Z M9.30358189,4.16516663 C8.85544911,4.16516663 8.49524042,4.52901648 8.49524042,4.9816792 C8.49524042,5.43434192 8.85544911,5.7983582 9.30358189,5.7983582 C9.75171467,5.7983582 10.112143,5.43434192 10.112143,4.9816792 C10.112143,4.52901648 9.74292775,4.16516663 9.30358189,4.16516663 Z M13.530144,6.83676426 C12.5197584,6.83676426 11.6936234,6.00250021 11.6936234,4.9816792 C11.6936234,3.96102462 12.5197584,3.12676056 13.530144,3.12676056 C14.5405846,3.12676056 15.3667196,3.96102462 15.3667196,4.9816792 C15.3667196,6.00250021 14.5493715,6.83676426 13.530144,6.83676426 Z M13.530144,4.16516663 C13.0820112,4.16516663 12.7218025,4.52901648 12.7218025,4.9816792 C12.7218025,5.43434192 13.0820112,5.7983582 13.530144,5.7983582 C13.9782768,5.7983582 14.3384855,5.43434192 14.3384855,4.9816792 C14.3384855,4.52901648 13.9782768,4.16516663 13.530144,4.16516663 Z" id="Fill-12"></path>
                </g>
                <path d="M18.9999236,33 C16.8003959,33 15,31.2078016 15,29.0001273 C15,26.8003959 16.7922493,25 18.9999236,25 C21.207598,25 23,26.7921984 23,29.0001273 C22.9918534,31.2078016 21.1994514,33 18.9999236,33 Z M19,27 C17.8955429,27 17,27.8955204 17,29.0000838 C17,30.1045131 17.8955429,31 19,31 C20.1045912,31 21,30.1045131 21,29.0000838 C21,27.8955204 20.1045912,27 19,27 Z" id="Fill-14" fill="#F7BA2A"></path>
                <path d="M20.5097478,40 L17.4812653,40 C17.1936275,40 16.9509242,39.7664347 16.9509242,39.4699303 L16.9509242,37.2151266 C16.1332261,37.0085111 15.351251,36.6940402 14.6322406,36.2538594 L13.041779,37.8439002 C12.9428105,37.9428286 12.8081189,37.9967844 12.6731464,37.9967844 C12.5384549,37.9967844 12.4034824,37.9428286 12.3047947,37.8439002 L10.1567504,35.6970082 C9.95010723,35.4903927 9.95010723,35.157899 10.1567504,34.9513397 L11.7474929,33.3612428 C11.3161203,32.6425241 10.9927032,31.8610909 10.78606,31.0437246 L8.53028493,31.0437246 C8.24264706,31.0437246 8,30.8101593 8,30.5135987 L8,27.4861767 C8,27.198824 8.23366013,26.9562754 8.53028493,26.9562754 L10.78606,26.9562754 C10.9927032,26.1386845 11.3071334,25.3572513 11.7474929,24.6385327 L10.1567504,23.0484919 C9.95010723,22.8418764 9.95010723,22.5096073 10.1567504,22.3027672 L12.3047947,20.1558752 C12.5114379,19.9492598 12.8438419,19.9492598 13.0507659,20.1558752 L14.6412275,21.7459161 C15.3602379,21.3147747 16.142213,20.9912643 16.9599673,20.7846488 L16.9599673,18.5298452 C16.9599673,18.2425486 17.1936275,18 17.4902522,18 L20.5097478,18 C20.7973856,18 21.0400327,18.2335653 21.0400327,18.5298452 L21.0400327,20.7846488 C21.857787,20.9912643 22.6397621,21.3057353 23.3587163,21.7459161 L24.9494587,20.1558752 C25.1561019,19.9492598 25.4885059,19.9492598 25.6952053,20.1558752 L27.8431934,22.3027672 C27.9419373,22.4016956 27.995915,22.5363325 27.995915,22.6712502 C27.995915,22.8058871 27.9419373,22.9408048 27.8431934,23.0394524 L26.2525071,24.6295494 C26.6838797,25.3482119 27.0072406,26.1296451 27.21394,26.9472921 L29.4696589,26.9472921 C29.7572968,26.9472921 30,27.1808574 30,27.4771373 L30,30.5316214 C30,30.8191426 29.7663399,31.0614666 29.4696589,31.0614666 L27.21394,31.0614666 C27.0072406,31.8791136 26.6928666,32.6605468 26.2525071,33.3792655 L27.8431934,34.9693063 C27.9419373,35.0682347 27.995915,35.2028716 27.995915,35.3375085 C27.995915,35.4814095 27.9419373,35.6070631 27.8431934,35.7059915 L25.6952053,37.8528835 C25.5964614,37.9518118 25.4615451,38.0057677 25.3267974,38.0057677 C25.1831189,38.0057677 25.0571895,37.9518118 24.9584457,37.8528835 L23.3677594,36.2628426 C22.648749,36.6940402 21.8667739,37.0174944 21.0490196,37.2241099 L21.0490196,39.4789135 C21.0400327,39.7664347 20.7973856,40 20.5097478,40 Z M18.1039986,38 L19.8960014,38 L19.8960014,36.0534336 C19.8960014,35.825378 20.058846,35.6299018 20.2788058,35.5809818 C21.1664334,35.409991 21.9972511,35.0679585 22.7466721,34.5628765 C22.9340019,34.4326608 23.1865408,34.4570953 23.3493853,34.6199413 L24.7258011,35.9963688 L25.9964367,34.7257224 L24.6198173,33.349295 C24.4569727,33.186449 24.4324875,32.933908 24.5629566,32.7466275 C25.0678307,31.9973529 25.4100639,31.1665281 25.5810532,30.2786894 C25.621828,30.0506338 25.8173026,29.8959327 26.0532974,29.8959327 L28,29.8959327 L28,28.1040673 L26.0532974,28.1040673 C25.8254473,28.1040673 25.6299728,27.9412214 25.5810532,27.7213106 C25.4100639,26.833421 25.0678307,26.0026471 24.5629566,25.2533725 C24.4324875,25.066092 24.4569727,24.813551 24.6198173,24.6506541 L25.9964367,23.2742267 L24.7258011,22.0035803 L23.3493853,23.3800587 C23.1865408,23.5429047 22.9340019,23.5673392 22.7466721,23.4371235 C21.9972511,22.9320415 21.1664334,22.590009 20.2788058,22.4190182 C20.0507012,22.3782431 19.8960014,22.1827669 19.8960014,21.9465155 L19.8960014,20 L18.1039986,20 L18.1039986,21.9465155 C18.1039986,22.174622 17.941154,22.3700982 17.7212451,22.4190182 C16.8335666,22.590009 16.0027998,22.9320415 15.2533279,23.4371235 C15.0659981,23.5673392 14.8136629,23.5429047 14.6506147,23.3800587 L13.2741989,22.0035803 L12.0035633,23.2742267 L13.3801827,24.6506541 C13.5430273,24.813551 13.5675125,25.066092 13.4370434,25.2533725 C12.9321693,26.0026471 12.5901906,26.833421 12.4189468,27.7213106 C12.3784265,27.9493662 12.182952,28.1040673 11.9467026,28.1040673 L10,28.1040673 L10,29.8959327 L11.9467026,29.8959327 C12.1748072,29.8959327 12.3702309,30.0587786 12.4189468,30.2786894 C12.5901906,31.1665281 12.9321693,31.9973529 13.4370434,32.7466275 C13.5675125,32.933908 13.5430273,33.186449 13.3801827,33.349295 L12.0035633,34.7257224 L13.2741989,35.9963688 L14.6506147,34.6199413 C14.8136629,34.4570953 15.0659981,34.4326608 15.2533279,34.5628765 C16.0027998,35.0679585 16.8335666,35.409991 17.7212451,35.5809818 C17.9492988,35.6217569 18.1039986,35.8172331 18.1039986,36.0534336 L18.1039986,38 Z" id="Fill-15" fill="#F7BA2A"></path>
            </g>
        </g>
    </g>
</svg>