<?xml version="1.0" encoding="UTF-8"?>
<svg width="40px" height="48px" viewBox="0 0 40 48" version="1.1" xmlns="http://www.w3.org/2000/svg" xmlns:xlink="http://www.w3.org/1999/xlink">
    <!-- Generator: Sketch 52.3 (67297) - http://www.bohemiancoding.com/sketch -->
    <title>合并形状</title>
    <desc>Created with Sketch.</desc>
    <g id="Page-1" stroke="none" stroke-width="1" fill="none" fill-rule="evenodd">
        <g id="用户中心--企业实名认证" transform="translate(-715.000000, -268.000000)" fill="#F7BA2A">
            <g id="分组-6" transform="translate(715.000000, 268.000000)">
                <path d="M35.8072959,6.9255013 L20.3110931,4.02370963 C20.1362065,3.99212475 19.9566486,3.99212475 19.7814772,4.02354222 L4,7 C3.30791604,7.12488865 3,7.64118358 3,8.3304149 L3,27 C3,29.92841 4.14369513,32.5300173 6,35 C7.4429002,36.9199816 9.01017256,38.7102764 11.5,40.2475005 C15.6619032,42.8173161 19.4973291,43.9068272 19.6702219,43.9519166 C19.9194496,44.0168721 20.1816087,44.016035 20.4303806,43.9492938 C20.6021911,43.9033116 23.9670137,42.8281978 28.1043644,40.2475005 C30.5795515,38.7035241 32.5658726,36.9154057 34,35 C35.84588,32.5350396 37,29.9070372 37,27 L37,8.3304149 C37,7.6415742 36.4986963,7.0510596 35.8072959,6.9255013 Z M35,26.5 C35,36.5 21.0958789,41.6717069 20,42 C17.5960742,41.2960923 5,36.5 5,26.5 L5,9 L20,6 L35,9 L35,26.5 Z M20.3137085,28.7989899 L29.5060967,19.6066017 C29.8966209,19.2160774 30.5297859,19.2160774 30.9203102,19.6066017 C31.3108345,19.997126 31.3108345,20.630291 30.9203102,21.0208153 L20.3137085,31.627417 L18.8994949,30.2132034 L9.70710678,21.0208153 C9.31658249,20.630291 9.31658249,19.997126 9.70710678,19.6066017 C10.0976311,19.2160774 10.7307961,19.2160774 11.1213203,19.6066017 L20.3137085,28.7989899 Z" id="合并形状"></path>
            </g>
        </g>
    </g>
</svg>