<?xml version="1.0" encoding="UTF-8"?>
<svg width="120px" height="90px" viewBox="0 0 120 90" version="1.1" xmlns="http://www.w3.org/2000/svg" xmlns:xlink="http://www.w3.org/1999/xlink">
    <!-- Generator: Sketch 52.3 (67297) - http://www.bohemiancoding.com/sketch -->
    <title>已完成</title>
    <desc>Created with Sketch.</desc>
    <g id="Page-1" stroke="none" stroke-width="1" fill="none" fill-rule="evenodd">
        <g id="印章管理-UKEY印章订单查看" transform="translate(-1611.000000, -649.000000)">
            <g id="Group-Copy-4" transform="translate(1611.000000, 634.000000)">
                <g id="分组-5" transform="translate(0.000000, 15.000000)">
                    <path d="M60.0000086,17.7635029 C68.9906734,17.7635029 76.9645881,22.1040875 81.9354179,28.7993682 L85.4138465,29.7289786 C80.2214764,21.1390531 70.7832756,15.3950052 60.0000086,15.3950052 C54.7902778,15.3950052 49.895036,16.7374351 45.6406018,19.0915178 L49.1118096,20.0200548 C52.4473585,18.5692062 56.1298132,17.7635029 60.0000086,17.7635029 Z M77.9181947,16.2221775 L79.8223351,17.7635029 L80.4093708,15.4543518 L82.5416579,14.2106797 L80.4093708,12.9671609 L79.8223351,10.6578564 L77.9181947,12.1985684 L75.4234849,12.0147012 L76.3783205,14.2106797 L75.4234849,16.4066581 L77.9181947,16.2221775 Z M44.8767333,11.0550341 L42.9172845,9.69343541 L42.4898746,12.1033378 L40.4843357,13.5960511 L42.6471959,14.6305532 L43.3662032,16.9140948 L45.1305367,15.1439705 L47.5808462,15.0625414 L46.5084805,12.9335771 L47.3030759,10.60035 L44.8767333,11.0550341 Z M63.2178739,7.72564241 L61.7655712,5.83452464 L60.6242238,8.00059977 L58.2590275,8.81412392 L60.0047713,10.4560472 L59.9946314,12.849081 L62.2144899,11.6983392 L64.5736944,12.3644936 L64.2003636,10.0108708 L65.668337,8.02881625 L63.2178739,7.72564241 Z M89.7641484,22.5958824 L87.7082175,21.1743237 L87.4152373,23.5506423 L85.4768365,24.9596262 L87.7202009,26.0635961 L88.5794762,28.3554186 L90.2580819,26.662583 L92.7271347,26.6697905 L91.5220292,24.5187437 L92.188801,22.231675 L89.7641484,22.5958824 Z M116.482186,40.4904999 L13.3444192,12.905974 C10.81253,12.2290851 8.21027636,13.7285458 7.53213564,16.2551479 L0.162617352,43.7079458 C-0.515062459,46.2345478 0.987171318,48.8319978 3.51844599,49.5088867 L106.655598,77.0934126 C109.187487,77.7709149 111.789741,76.2714542 112.468496,73.7448521 L119.836939,46.2920542 C120.515694,43.7648388 119.01346,41.1673888 116.482186,40.4904999 Z M117.237758,46.8228001 L110.483237,71.9873026 C109.974247,73.8825608 108.022634,75.0075397 106.124485,74.499643 L5.27863134,47.5285189 C3.37986807,47.0198555 2.25342319,45.0718447 2.76179827,43.1771999 L9.51739489,18.012084 C10.02577,16.1168258 11.9779979,14.9924603 13.8761466,15.4997436 L114.721386,42.4714811 C116.620149,42.9789177 117.747209,44.9275419 117.237758,46.8228001 Z M60.0000086,2.36803768 C79.7659514,2.36803768 96.3926896,15.7711739 101.26335,33.9683519 L103.888956,34.6703902 C99.2121818,14.7964784 81.3377814,0 60.0006231,0 C47.0623313,0 35.3987412,5.44041398 27.1770148,14.1531732 L29.7995481,14.8545982 C37.5281092,7.14045709 48.2056759,2.36803768 60.0000086,2.36803768 Z M70.8882076,69.9793318 C67.5526587,71.4301804 63.8708186,72.2364971 60.0000086,72.2364971 C51.0094974,72.2364971 43.0354291,67.8965259 38.0639848,61.2000184 L34.5861707,60.270408 C39.7779263,68.8603335 49.2162807,74.6049948 60.0000086,74.6049948 C65.2097394,74.6049948 70.1049812,73.2625649 74.3594154,70.9084822 L70.8882076,69.9793318 Z M45.430584,74.8972808 L43.5413461,73.3596358 L42.9592266,75.663573 L40.8449148,76.9040248 L42.9592266,78.1446299 L43.5413461,80.4485671 L45.430584,78.9113822 L47.905475,79.0947893 L46.9578602,76.9040248 L47.905475,74.7134136 L45.430584,74.8972808 Z M59.9921733,82.1917017 L61.4324925,84.078679 L62.5649291,81.9179711 L64.9109211,81.1069006 L63.1794654,79.4685044 L63.1891443,77.0808378 L60.987261,78.229126 L58.6478753,77.5648119 L59.0181334,79.9124539 L57.5622971,81.8897547 L59.9921733,82.1917017 Z M29.998197,67.3053599 L31.9330642,68.8634005 L32.3896646,66.5194389 L34.4073407,65.2530708 L32.2661429,63.9974373 L31.5777087,61.6565427 L29.79709,63.224091 L27.3546158,63.0439042 L28.3951792,65.2685592 L27.573698,67.4981215 L29.998197,67.3053599 Z M60.0000086,87.6308889 C40.2346803,87.6308889 23.6079421,74.2282127 18.7366672,56.0316481 L16.1110612,55.3289964 C20.7873745,75.2035216 38.6622358,90 60.0000086,90 C72.9383004,90 84.6025051,84.559586 92.8237706,75.8462134 L90.2010836,75.1447884 C82.4720617,82.8595429 71.7938804,87.6308889 60.0000086,87.6308889 Z M77.1530971,78.9408255 L79.0997942,80.3005839 L79.5193688,77.8985024 L81.5069325,76.4134567 L79.3585139,75.3783411 L78.6401211,73.1009336 L76.8931483,74.8638504 L74.4614285,74.941139 L75.5290315,77.0651961 L74.7453442,79.3912157 L77.1530971,78.9408255 Z" id="Fill-1-Copy" fill="#66BB55" transform="translate(60.000000, 45.000000) scale(-1, 1) translate(-60.000000, -45.000000) "></path>
                    <path d="M41.1252656,44.9969164 L23.5412656,44.9969164 L23.5412656,53.2569164 C23.5412656,54.4889164 24.1852656,55.1329164 25.4732656,55.1329164 L39.5292656,55.1329164 C40.2012656,55.1329164 40.7612656,54.9649164 41.1812656,54.6289164 C41.7412656,54.1249164 42.1052656,52.3329164 42.2732656,49.2529164 L44.2332656,49.8689164 C43.9532656,53.3409164 43.4772656,55.4129164 42.8052656,56.1409164 C42.1892656,56.7289164 41.2652656,57.0369164 40.0892656,57.0929164 L24.9132656,57.0929164 C22.6452656,57.0929164 21.5252656,55.9169164 21.5252656,53.6209164 L21.5252656,38.9209164 L23.5412656,38.9209164 L23.5412656,43.0649164 L39.0812656,43.0649164 L39.0812656,35.7569164 L20.4052656,35.7569164 L20.4052656,33.7969164 L41.1252656,33.7969164 L41.1252656,44.9969164 Z M71.5892656,35.3089164 L71.5892656,41.5809164 L69.5452656,41.5809164 L69.5452656,37.2689164 L49.8892656,37.2689164 L49.8892656,41.5809164 L47.8452656,41.5809164 L47.8452656,35.3089164 L58.5972656,35.3089164 C58.2612656,34.3569164 57.9252656,33.4889164 57.5332656,32.7049164 L59.8012656,32.3129164 C60.1652656,33.2089164 60.5292656,34.1889164 60.8652656,35.3089164 L71.5892656,35.3089164 Z M51.8492656,40.5169164 L67.5292656,40.5169164 L67.5292656,42.4769164 L51.8492656,42.4769164 L51.8492656,40.5169164 Z M47.5652656,45.7809164 L71.9532656,45.7809164 L71.9532656,47.7129164 L64.0292656,47.7129164 L64.0292656,54.3489164 C64.0292656,55.1889164 64.4212656,55.6369164 65.2332656,55.6369164 L68.9572656,55.6369164 C69.4612656,55.6369164 69.7972656,55.4409164 69.9932656,55.0769164 C70.2172656,54.6569164 70.3852656,53.3969164 70.4972656,51.2689164 L72.4012656,51.8849164 C72.2332656,54.5729164 71.8972656,56.2249164 71.3932656,56.7849164 C70.9452656,57.2889164 70.2732656,57.5689164 69.3212656,57.5689164 L64.5892656,57.5689164 C62.8532656,57.5689164 62.0132656,56.6169164 62.0132656,54.7689164 L62.0132656,47.7129164 L57.3092656,47.7129164 L57.3092656,47.9089164 C57.2252656,50.6529164 56.4692656,52.8649164 55.0692656,54.5449164 C53.6692656,56.0569164 51.4012656,57.2609164 48.2652656,58.1289164 L47.1172656,56.3369164 C50.1692656,55.5529164 52.2972656,54.5169164 53.5292656,53.2009164 C54.6492656,51.8569164 55.2372656,50.0929164 55.3212656,47.9089164 L55.3212656,47.7129164 L47.5652656,47.7129164 L47.5652656,45.7809164 Z M94.5772656,32.2289164 C95.9212656,33.2369164 97.0692656,34.2729164 98.0212656,35.3089164 L96.7332656,36.5969164 L100.149266,36.5969164 L100.149266,38.5289164 L91.5252656,38.5289164 C91.7212656,42.0009164 92.0852656,44.7449164 92.5892656,46.7609164 C92.7572656,47.4609164 92.9532656,48.1049164 93.1492656,48.7209164 C94.5492656,46.4809164 95.6692656,43.8489164 96.5372656,40.8529164 L98.3572656,41.6369164 C97.2372656,45.3329164 95.7812656,48.4689164 93.9892656,50.9889164 C94.3812656,51.8849164 94.8012656,52.6689164 95.2492656,53.3129164 C96.1732656,54.6569164 96.9292656,55.3289164 97.4892656,55.3289164 C97.9932656,55.3009164 98.4692656,53.8449164 98.8892656,50.9609164 L100.709266,51.9689164 C100.037266,55.6929164 99.0852656,57.5689164 97.8252656,57.5689164 C96.6492656,57.5689164 95.3892656,56.7289164 94.0452656,55.0489164 C93.5412656,54.3769164 93.0652656,53.5929164 92.6452656,52.7249164 C90.6852656,55.0209164 88.3892656,56.7289164 85.7572656,57.9049164 L84.6372656,56.2249164 C87.4372656,54.9649164 89.8172656,53.1169164 91.7492656,50.6809164 C91.3572656,49.6449164 90.9932656,48.5249164 90.6852656,47.3209164 C90.0692656,44.9689164 89.6772656,42.0289164 89.4532656,38.5289164 L79.8492656,38.5289164 L79.8492656,43.1769164 L86.7092656,43.1769164 C86.6532656,47.9089164 86.4292656,50.9609164 86.0652656,52.3329164 C85.7012656,53.5369164 84.8332656,54.1529164 83.4332656,54.2089164 C82.7612656,54.2089164 81.9492656,54.1529164 81.0532656,54.0969164 L80.4372656,52.2769164 C81.5292656,52.3329164 82.4532656,52.3609164 83.2092656,52.3609164 C83.8252656,52.3329164 84.2172656,51.9129164 84.3852656,51.1289164 C84.5532656,50.1769164 84.6372656,48.1609164 84.6932656,45.0809164 L79.8492656,45.0809164 L79.8492656,45.9209164 C79.7372656,50.9329164 78.6172656,54.9649164 76.5452656,57.9889164 L75.0052656,56.6169164 C76.7972656,54.0409164 77.7212656,50.4849164 77.8052656,45.9209164 L77.8052656,36.5969164 L89.3692656,36.5969164 C89.3132656,35.1969164 89.2852656,33.7689164 89.2852656,32.2569164 L91.3572656,32.2569164 C91.3572656,33.8249164 91.3852656,35.2529164 91.4412656,36.5969164 L96.6772656,36.5969164 C95.8372656,35.5889164 94.7172656,34.5529164 93.2892656,33.4609164 L94.5772656,32.2289164 Z" id="已完成" fill="#008877" transform="translate(60.557266, 45.178916) rotate(-15.000000) translate(-60.557266, -45.178916) "></path>
                </g>
            </g>
        </g>
    </g>
</svg>