<?xml version="1.0" encoding="UTF-8"?>
<svg width="40px" height="48px" viewBox="0 0 40 48" version="1.1" xmlns="http://www.w3.org/2000/svg" xmlns:xlink="http://www.w3.org/1999/xlink">
    <!-- Generator: Sketch 52.3 (67297) - http://www.bohemiancoding.com/sketch -->
    <title>删除</title>
    <desc>Created with Sketch.</desc>
    <defs>
        <polygon id="path-1" points="0 0.140684411 40 0.158039549 40 37.1406844 0 37.1406844"></polygon>
    </defs>
    <g id="Page-1" stroke="none" stroke-width="1" fill="none" fill-rule="evenodd">
        <g id="合同管理（删除文件弹窗）" transform="translate(-805.000000, -365.000000)">
            <g id="shanchu-4" transform="translate(805.000000, 365.000000)">
                <g id="分组" transform="translate(0.000000, 8.859316)">
                    <mask id="mask-2" fill="white">
                        <use xlink:href="#path-1"></use>
                    </mask>
                    <g id="Clip-2"></g>
                    <path d="M34,5.14068441 L34,34.1406844 C34,34.6929692 33.5522847,35.1406844 33,35.1406844 L7,35.1406844 C6.44771525,35.1406844 6,34.6929692 6,34.1406844 L6,5.14068441 C6,3.66749303 4,3.66749303 4,5.14068441 L4,35.1333232 C4,36.2378927 4.8954305,37.1333232 6,37.1333232 L34,37.1333232 C35.1045695,37.1333232 36,36.2378927 36,35.1333232 L36,5.14068441 C36,3.66726996 34,3.64068441 34,5.14068441 Z" id="Fill-1" fill="#F7BA2A" mask="url(#mask-2)"></path>
                    <path d="M19,11.1406844 L19,27.1406844 C19,28.6134854 21,28.6134854 21,27.1406844 L21,11.1406844 C21,9.66743726 19,9.66743726 19,11.1406844 Z M11,11.1406844 L11,27.1406844 C11,28.6134854 13,28.6134854 13,27.1406844 L13,11.1406844 C13,9.66743726 11,9.66743726 11,11.1406844 Z M27,11.1406844 L27,27.1406844 C27,28.6134854 29,28.6134854 29,27.1406844 L29,11.1406844 C29,9.66743726 27,9.66743726 27,11.1406844 Z M1.5,2.14068441 L38,2.14068441 C39.4672778,2.14068441 39.4672778,0.158039549 38,0.158039549 L1.5,0.158039549 C0.0323888889,0.158039549 0.0323888889,2.14068441 1.5,2.14068441 Z" id="Fill-3" fill="#F7BA2A" mask="url(#mask-2)"></path>
                </g>
                <path d="M11,9.01735514 L11,5 C11,4.44771525 11.4477153,4 12,4 L28,4 C28.5522847,4 29,4.44771525 29,5 L29,9.01735514 C29,10.4903792 31,10.4730241 31,9 C31,7.34232422 31,5.68464845 31,4.02697267 L31,4.02697267 C31,2.9234563 30.1062124,2.02846262 29.0026971,2.02697449 L11.0026971,2.00270072 C9.89812859,2.00121116 9.00149138,2.89543333 9.00000182,4.00000182 C9.00000061,4.00090085 9,4.00179988 9,4.0026989 C9,5.67425098 9,7.34580306 9,9.01735514 C9,10.4903792 11,10.4903792 11,9.01735514 Z" id="Fill-4" fill="#F7BA2A"></path>
            </g>
        </g>
    </g>
</svg>