<?xml version="1.0" encoding="UTF-8"?>
<svg width="18px" height="18px" viewBox="0 0 18 18" version="1.1" xmlns="http://www.w3.org/2000/svg" xmlns:xlink="http://www.w3.org/1999/xlink">
    <!-- Generator: Sketch 52.2 (67145) - http://www.bohemiancoding.com/sketch -->
    <title>合并形状</title>
    <desc>Created with Sketch.</desc>
    <g id="Page-2" stroke="none" stroke-width="1" fill="none" fill-rule="evenodd">
        <g id="首页-copy" transform="translate(-1526.000000, -26.000000)" fill="#000000">
            <path d="M1542.31949,35.4748082 L1530.9874,35.4748082 C1530.71822,35.4748082 1530.5,35.2565899 1530.5,34.9874041 C1530.5,34.7182182 1530.71822,34.5 1530.9874,34.5 L1542.29508,34.5 L1538.90515,31.1100738 C1538.70989,30.9148116 1538.70989,30.5982291 1538.90515,30.402967 C1539.10041,30.2077049 1539.41699,30.2077049 1539.61226,30.402967 L1543.85574,34.6464466 C1544.051,34.8417088 1544.051,35.1582912 1543.85574,35.3535534 C1543.84956,35.3597263 1543.84327,35.3657041 1543.83686,35.3714868 L1539.61306,39.5961577 C1539.41784,39.7914199 1539.10129,39.7914524 1538.90603,39.5962304 C1538.90601,39.5962183 1538.906,39.5962062 1538.90599,39.5961941 C1538.71072,39.4009261 1538.7107,39.084339 1538.90595,38.8890509 L1542.31949,35.4748082 Z M1528.99328,27 L1528.99328,26.9991596 C1528.993,26.9991596 1528.99272,26.9991597 1528.99244,26.9991598 C1527.88787,26.999624 1526.99281,27.8954308 1526.99328,29.0000002 L1527,40.9999998 C1527.00046,42.104241 1527.89576,42.9991593 1529,42.9991593 L1535.5,43 C1535.77614,43 1536,43.2238576 1536,43.5 C1536,43.7761424 1535.77614,44 1535.5,44 L1529,44 C1527.34315,44 1526,42.6568542 1526,41 L1526,29 C1526,27.3431458 1527.34315,26 1529,26 L1535.5,26 C1535.77614,26 1536,26.2238576 1536,26.5 C1536,26.7761424 1535.77614,27 1535.5,27 L1528.99328,27 Z" id="合并形状"></path>
        </g>
    </g>
</svg>