<?xml version="1.0" encoding="UTF-8"?>
<svg width="40px" height="31px" viewBox="0 0 40 31" version="1.1" xmlns="http://www.w3.org/2000/svg" xmlns:xlink="http://www.w3.org/1999/xlink">
    <!-- Generator: Sketch 52.3 (67297) - http://www.bohemiancoding.com/sketch -->
    <title>web-icon-</title>
    <desc>Created with Sketch.</desc>
    <g id="Page-1" stroke="none" stroke-width="1" fill="none" fill-rule="evenodd">
        <g id="印章管理-微信支付" transform="translate(-621.000000, -407.000000)" fill="#5BCC52">
            <g id="web-icon--2" transform="translate(621.000000, 407.000000)">
                <path d="M-3.39994699e-12,29.0000062 L-3.39994699e-12,2 C-3.40008226e-12,0.8954305 0.8954305,1.29871976e-12 2,1.29851685e-12 L38,1.29851685e-12 C39.1045695,1.29831394e-12 40,0.8954305 40,2 L40,29.0000062 C40,30.1045757 39.1045695,31.0000062 38,31.0000062 L2,31.0000062 C0.8954305,31.0000062 -3.39981172e-12,30.1045757 -3.39994699e-12,29.0000062 Z M3,29 L37,29 C37.5522847,29 38,28.5522847 38,28 L38,9 L2,9 L2,28 C2,28.5522847 2.44771525,29 3,29 Z M37,2 L3,2 C2.44771525,2 2,2.44771525 2,3 L2,7 L38,7 L38,3 C38,2.44771525 37.5522847,2 37,2 Z M19,15 C19.6616383,15 20,15.4352812 20,16 C20,16.5647188 19.6616383,17 19,17 L7,17 C6.66867135,17.0009262 6,16.5647188 6,16 C6,15.4352812 6.66867135,14.9988423 7,15 L19,15 Z M17,20 C17.6620302,20.0370461 18,20.5 18,21 C18,21.5 17.6620302,22 17,22 L7,22 C6.66867135,22.0009262 6,21.5 6,21 C6,20.5 6.66835782,19.9984564 7,20 L17,20 Z M26,15 C26.6620302,15.0371233 27,15.5 27,16 C27,16.5 26.6620302,17 26,17 L24,17 C23.3107706,17 23,16.5 23,16 C23,15.5 23.3107706,15 24,15 L26,15 Z" id="web-icon-"></path>
            </g>
        </g>
    </g>
</svg>