<?xml version="1.0" encoding="UTF-8"?>
<svg width="120px" height="91px" viewBox="0 0 120 91" version="1.1" xmlns="http://www.w3.org/2000/svg" xmlns:xlink="http://www.w3.org/1999/xlink">
    <!-- Generator: Sketch 52.3 (67297) - http://www.bohemiancoding.com/sketch -->
    <title>Fill 1</title>
    <desc>Created with Sketch.</desc>
    <g id="Page-1" stroke="none" stroke-width="1" fill="none" fill-rule="evenodd">
        <g id="印章管理-UKEY印章订单查看" transform="translate(-1611.000000, -236.000000)">
            <g id="Group-2" transform="translate(1611.000000, 179.000000)">
                <g id="分组-2" transform="translate(0.000000, 57.000000)">
                    <path d="M59.9291773,17.7753453 C68.9092284,17.7753453 76.8737297,22.1188235 81.8386914,28.8185678 L85.3130136,29.748798 C80.1267732,21.1531458 70.6997144,15.4052685 59.9291773,15.4052685 C54.7255967,15.4052685 49.8361338,16.7485934 45.5867221,19.1042455 L49.053832,20.0334015 C52.3854433,18.5815857 56.0635507,17.7753453 59.9291773,17.7753453 Z M77.8262105,16.2329923 L79.7281031,17.7753453 L80.3144458,15.4646547 L82.4442157,14.2201535 L80.3144458,12.9758056 L79.7281031,10.6649616 L77.8262105,12.2067008 L75.3344458,12.022711 L76.2881543,14.2201535 L75.3344458,16.4175959 L77.8262105,16.2329923 Z M44.8237553,11.0624041 L42.8666198,9.6998977 L42.4397144,12.1114066 L40.436543,13.6051151 L42.5968499,14.6403069 L43.3150085,16.9253708 L45.0772591,15.1540665 L47.524676,15.0725831 L46.4535763,12.9421995 L47.2472336,10.6074169 L44.8237553,11.0624041 Z M63.1432438,7.73079284 L61.6926556,5.83841432 L60.5526556,8.0059335 L58.1902515,8.82 L59.9339343,10.4630179 L59.9238065,12.8576471 L62.1410443,11.7061381 L64.4974637,12.3727366 L64.1245737,10.0175448 L65.5908141,8.0341688 L63.1432438,7.73079284 Z M89.6581799,22.6109463 L87.604676,21.1884399 L87.3120417,23.5663427 L85.3759292,24.976266 L87.6166453,26.0809719 L88.4749062,28.3743223 L90.1515302,26.6803581 L92.6176683,26.6875703 L91.4139855,24.5350895 L92.0799701,22.2464962 L89.6581799,22.6109463 Z M116.344676,40.5174936 L13.3286658,12.914578 C10.7997655,12.2372379 8.20058395,13.7376982 7.52324379,16.2659847 L0.162425379,43.7370844 C-0.514454417,46.2653708 0.986005941,48.8645524 3.51429239,49.5418926 L106.529689,77.1448082 C109.058589,77.8227621 111.657771,76.3223018 112.335725,73.7940153 L119.695469,46.3229156 C120.373423,43.7940153 118.872962,41.1948338 116.344676,40.5174936 Z M117.099356,46.8540153 L110.352809,72.0352941 C109.84442,73.9318159 107.895111,75.0575448 105.999203,74.5493095 L5.2723998,47.5602046 C3.37587806,47.051202 2.25076297,45.1018926 2.75853791,43.2059847 L9.50615939,18.0240921 C10.0139343,16.1275703 11.9638576,15.0024552 13.8597655,15.5100767 L114.585955,42.4997954 C116.482477,43.0075703 117.608205,44.9574936 117.099356,46.8540153 Z M59.9291773,2.36961637 C79.671786,2.36961637 96.278896,15.781688 101.143806,33.9909974 L103.766313,34.6935038 C99.0950596,14.8063427 81.2417604,6.39488462e-13 59.9297911,6.39488462e-13 C47.0067732,6.39488462e-13 35.3569522,5.44404092 27.1449318,14.1626087 L29.7643691,14.8645013 C37.4838065,7.14521739 48.1487681,2.36961637 59.9291773,2.36961637 Z M70.8045226,70.0259847 C67.4729113,71.4778005 63.7954177,72.2846547 59.9291773,72.2846547 C50.9492796,72.2846547 42.9846249,67.9417903 38.0190494,61.2408184 L34.545341,60.3105882 C39.7309676,68.9062404 49.1581799,74.6547315 59.9291773,74.6547315 C65.1327579,74.6547315 70.0222208,73.3114066 74.2716325,70.9557545 L70.8045226,70.0259847 Z M45.3769522,74.9472123 L43.4899446,73.4085422 L42.9085123,75.7140153 L40.7966965,76.9552941 L42.9085123,78.1967263 L43.4899446,80.5021995 L45.3769522,78.9639898 L47.8489215,79.1475192 L46.9024254,76.9552941 L47.8489215,74.7632225 L45.3769522,74.9472123 Z M59.9213512,82.2464962 L61.3599701,84.1347315 L62.4910699,81.9725831 L64.8342924,81.1609719 L63.1048806,79.5214834 L63.1145481,77.1322251 L60.9152643,78.2812788 L58.5786402,77.6165217 L58.9484612,79.9657289 L57.4943435,81.9443478 L59.9213512,82.2464962 Z M29.9627834,67.3502302 L31.8953666,68.9093095 L32.3514279,66.5637852 L34.3667221,65.2965729 L32.228052,64.0401023 L31.5404305,61.6976471 L29.7619139,63.2662404 L27.3223231,63.0859335 L28.3616581,65.3120716 L27.5411466,67.5431202 L29.9627834,67.3502302 Z M59.9291773,87.6893095 C40.1871824,87.6893095 23.5800724,74.2776982 18.7145481,56.0690026 L16.0920417,55.3658824 C20.7628346,75.2536573 38.6165942,90.06 59.9291773,90.06 C72.8521952,90.06 84.50263,84.6159591 92.7141901,75.8967775 L90.0945993,75.1948849 C82.3747016,82.9147826 71.7091261,87.6893095 59.9291773,87.6893095 Z M77.0620162,78.9934527 L79.0064151,80.3541176 L79.4254944,77.9504348 L81.4107118,76.464399 L79.2648295,75.4285934 L78.5472847,73.1496675 L76.8023742,74.9137596 L74.3735251,74.9910997 L75.4398678,77.1165729 L74.6571057,79.4441432 L77.0620162,78.9934527 Z" id="Fill-1" fill="#F5A623" transform="translate(59.929169, 45.030000) scale(-1, 1) translate(-59.929169, -45.030000) "></path>
                    <path d="M10.3982061,46.5419349 L10.3982061,49.0719349 L15.2822061,49.0719349 L15.2822061,46.5419349 L10.3982061,46.5419349 Z M15.2822061,50.5239349 L10.3982061,50.5239349 L10.3982061,51.8219349 L8.85820612,51.8219349 L8.85820612,41.1519349 L15.2822061,41.1519349 L15.2822061,38.9519349 L16.8662061,38.9519349 L16.8662061,41.1519349 L23.3562061,41.1519349 L23.3562061,51.7559349 L21.8162061,51.7559349 L21.8162061,50.5239349 L16.8662061,50.5239349 L16.8662061,54.9899349 L15.2822061,54.9899349 L15.2822061,50.5239349 Z M16.8662061,49.0719349 L21.8162061,49.0719349 L21.8162061,46.5419349 L16.8662061,46.5419349 L16.8662061,49.0719349 Z M21.8162061,45.1339349 L21.8162061,42.6039349 L16.8662061,42.6039349 L16.8662061,45.1339349 L21.8162061,45.1339349 Z M15.2822061,42.6039349 L10.3982061,42.6039349 L10.3982061,45.1339349 L15.2822061,45.1339349 L15.2822061,42.6039349 Z M25.1382061,36.4219349 L25.1382061,40.2719349 L23.5982061,40.2719349 L23.5982061,37.8519349 L8.33020612,37.8519349 L8.33020612,40.3819349 L6.79020612,40.3819349 L6.79020612,36.4219349 L15.1722061,36.4219349 C14.9522061,35.8499349 14.7322061,35.3219349 14.4902061,34.8379349 L16.1622061,34.5519349 C16.3822061,35.1019349 16.5802061,35.7179349 16.8002061,36.4219349 L25.1382061,36.4219349 Z M32.7502061,43.7259349 L32.7502061,54.9239349 L31.2322061,54.9239349 L31.2322061,43.9019349 C30.5282061,46.1459349 29.6042061,48.1699349 28.4822061,49.9739349 L27.8222061,48.3679349 C29.3842061,46.0799349 30.5062061,43.4839349 31.1662061,40.5799349 L28.1962061,40.5799349 L28.1962061,39.0619349 L31.2322061,39.0619349 L31.2322061,34.7719349 L32.7502061,34.7719349 L32.7502061,39.0619349 L35.3462061,39.0619349 L35.3462061,40.5799349 L32.7502061,40.5799349 L32.7502061,42.0099349 C33.8062061,43.2199349 34.8622061,44.5839349 35.9622061,46.1239349 L35.0822061,47.4659349 C34.1802061,45.9259349 33.4102061,44.6719349 32.7502061,43.7259349 Z M35.8962061,37.1699349 L41.3962061,37.1699349 C41.0882061,36.3779349 40.7362061,35.6519349 40.3402061,34.9919349 L41.9682061,34.7279349 C42.2982061,35.4319349 42.6282061,36.2459349 42.9362061,37.1699349 L47.8202061,37.1699349 L47.8202061,38.5999349 L41.7922061,38.5999349 C40.5822061,40.7339349 39.5262061,42.2519349 38.6022061,43.1539349 C40.0102061,43.0659349 41.3962061,42.9779349 42.7602061,42.8679349 C43.3322061,42.0759349 43.8382061,41.2619349 44.2782061,40.3819349 L45.5542061,41.0639349 C43.3542061,45.4199349 40.1422061,48.4119349 35.8742061,49.9959349 L35.0162061,48.6759349 C37.6782061,47.7299349 39.9002061,46.2559349 41.7042061,44.2319349 C40.1642061,44.3199349 38.5142061,44.4079349 36.7762061,44.4739349 L36.4462061,43.1759349 C36.5782061,43.1319349 36.6662061,43.0879349 36.7542061,43.0439349 C37.6342061,42.4719349 38.7562061,40.9979349 40.1642061,38.5999349 L35.8962061,38.5999349 L35.8962061,37.1699349 Z M42.9362061,50.4579349 C40.8242061,52.3499349 38.3822061,53.8019349 35.5662061,54.7699349 L34.7082061,53.4059349 C39.8782061,51.7119349 43.7502061,48.4559349 46.3242061,43.6379349 L47.6662061,44.3419349 C46.6102061,46.3219349 45.3562061,48.0379349 43.9262061,49.4899349 C45.5102061,50.8979349 46.8742061,52.2839349 47.9742061,53.6699349 L46.8302061,54.8139349 C45.8622061,53.4499349 44.5642061,51.9979349 42.9362061,50.4579349 Z M59.1942061,34.8379349 L60.8222061,34.8379349 L60.8222061,37.8519349 L68.3682061,37.8519349 L68.3682061,39.3919349 L60.8222061,39.3919349 L60.8222061,43.2859349 L69.5342061,43.2859349 L69.5342061,44.8259349 L62.2742061,44.8259349 C63.7482061,47.5979349 66.3002061,50.0619349 69.9082061,52.2399349 L68.8082061,53.6479349 C65.0682061,51.0079349 62.4502061,48.0819349 60.9982061,44.8259349 L60.8222061,44.8259349 L60.8222061,54.8579349 L59.1942061,54.8579349 L59.1942061,44.8259349 L58.9962061,44.8259349 C57.4122061,48.4339349 54.7502061,51.3819349 51.0102061,53.7139349 L50.1082061,52.2399349 C53.6282061,50.3039349 56.1802061,47.8399349 57.7642061,44.8259349 L50.4822061,44.8259349 L50.4822061,43.2859349 L59.1942061,43.2859349 L59.1942061,39.3919349 L51.8022061,39.3919349 L51.8022061,37.8519349 L59.1942061,37.8519349 L59.1942061,34.8379349 Z M73.7802061,35.1019349 C75.2982061,36.2459349 76.5742061,37.3899349 77.6082061,38.5339349 L76.4862061,39.6339349 C75.5622061,38.5339349 74.3082061,37.3679349 72.7022061,36.1359349 L73.7802061,35.1019349 Z M86.6502061,54.5279349 C85.4402061,54.5279349 84.1202061,54.5059349 82.7122061,54.4839349 C81.2822061,54.4619349 80.1162061,54.3299349 79.2362061,54.0879349 C78.3562061,53.8239349 77.5642061,53.2739349 76.8822061,52.4819349 C76.5742061,52.1079349 76.2882061,51.9319349 76.0242061,51.9319349 C75.4962061,51.9319349 74.6162061,52.9439349 73.4062061,54.9679349 L72.2182061,53.8899349 C73.3842061,52.0419349 74.4182061,50.9199349 75.3202061,50.5239349 L75.3202061,43.8359349 L72.1962061,43.8359349 L72.1962061,42.3839349 L76.7942061,42.3839349 L76.7942061,50.6119349 C76.9702061,50.7439349 77.1462061,50.8979349 77.3442061,51.1179349 C77.8722061,51.7559349 78.4442061,52.2179349 79.0602061,52.5039349 C79.7642061,52.8119349 80.7542061,52.9879349 82.0742061,53.0319349 C83.2402061,53.0539349 84.6922061,53.0759349 86.4302061,53.0759349 C87.4422061,53.0759349 88.4982061,53.0539349 89.5762061,53.0319349 C90.6322061,53.0099349 91.4462061,52.9879349 92.0182061,52.9439349 L91.6442061,54.5279349 L86.6502061,54.5279349 Z M82.7122061,37.2139349 C83.6362061,37.7639349 84.4942061,38.3139349 85.2422061,38.8639349 C86.3862061,38.2699349 87.4422061,37.6099349 88.4102061,36.8619349 L78.6422061,36.8619349 L78.6422061,35.5199349 L90.5442061,35.5199349 L90.5442061,36.6639349 C89.2242061,37.8079349 87.7942061,38.7979349 86.2542061,39.6339349 L86.6062061,39.9199349 L90.9622061,39.9199349 L90.9622061,49.7539349 C90.9622061,50.8759349 90.3462061,51.4479349 89.1142061,51.4479349 L87.2882061,51.4479349 L86.9362061,50.1059349 L88.6742061,50.1719349 C89.2022061,50.1719349 89.4662061,49.9079349 89.4662061,49.4239349 L89.4662061,47.7739349 L85.7702061,47.7739349 L85.7702061,51.5579349 L84.2962061,51.5579349 L84.2962061,47.7739349 L80.6222061,47.7739349 L80.6222061,51.6239349 L79.1262061,51.6239349 L79.1262061,39.9199349 L84.6262061,39.9199349 C83.7902061,39.3259349 82.8222061,38.7319349 81.7442061,38.1599349 L82.7122061,37.2139349 Z M80.6222061,44.5399349 L80.6222061,46.4759349 L84.2962061,46.4759349 L84.2962061,44.5399349 L80.6222061,44.5399349 Z M85.7702061,44.5399349 L85.7702061,46.4759349 L89.4662061,46.4759349 L89.4662061,44.5399349 L85.7702061,44.5399349 Z M89.4662061,43.2199349 L89.4662061,41.2399349 L85.7702061,41.2399349 L85.7702061,43.2199349 L89.4662061,43.2199349 Z M84.2962061,43.2199349 L84.2962061,41.2399349 L80.6222061,41.2399349 L80.6222061,43.2199349 L84.2962061,43.2199349 Z M95.7142061,35.0579349 C97.2102061,36.2239349 98.4642061,37.3899349 99.4762061,38.5339349 L98.3322061,39.6999349 C97.4302061,38.5779349 96.1982061,37.3679349 94.6142061,36.0919349 L95.7142061,35.0579349 Z M109.090206,54.5279349 C107.836206,54.5279349 106.472206,54.5059349 104.998206,54.4839349 C103.502206,54.4619349 102.292206,54.3299349 101.390206,54.0879349 C100.466206,53.8239349 99.6522061,53.2739349 98.9482061,52.4819349 C98.6402061,52.1079349 98.3322061,51.9319349 98.0462061,51.9319349 C97.5182061,51.9319349 96.6162061,52.9439349 95.3842061,55.0119349 L94.1962061,53.9559349 C95.3842061,52.0639349 96.4182061,50.9199349 97.3422061,50.5239349 L97.3422061,43.8579349 L94.1742061,43.8579349 L94.1742061,42.3619349 L98.8602061,42.3619349 L98.8602061,50.6119349 C99.0362061,50.7439349 99.2342061,50.8979349 99.4322061,51.1179349 C100.004206,51.7339349 100.598206,52.1959349 101.236206,52.5039349 C101.940206,52.7899349 102.996206,52.9439349 104.360206,52.9879349 C105.570206,53.0099349 107.088206,53.0319349 108.892206,53.0319349 C109.860206,53.0319349 110.828206,53.0099349 111.840206,53.0099349 C112.830206,52.9879349 113.600206,52.9659349 114.128206,52.9219349 L113.732206,54.5279349 L109.090206,54.5279349 Z M108.430206,51.5799349 L105.306206,51.5799349 L104.954206,50.0619349 C105.966206,50.1279349 106.956206,50.1719349 107.880206,50.1719349 C108.496206,50.1719349 108.826206,49.8639349 108.826206,49.2699349 L108.826206,39.9199349 L100.510206,39.9199349 L100.510206,38.3579349 L108.826206,38.3579349 L108.826206,34.7939349 L110.432206,34.7939349 L110.432206,38.3579349 L113.688206,38.3579349 L113.688206,39.9199349 L110.432206,39.9199349 L110.432206,49.6439349 C110.432206,50.9199349 109.750206,51.5799349 108.430206,51.5799349 Z M102.908206,41.8779349 C104.316206,43.5059349 105.394206,44.9359349 106.142206,46.1679349 L104.866206,47.0479349 C104.074206,45.7279349 103.018206,44.2759349 101.676206,42.6699349 L102.908206,41.8779349 Z" id="审核未通过" fill="#EF8000" transform="translate(60.459206, 44.781935) rotate(-15.000000) translate(-60.459206, -44.781935) "></path>
                </g>
            </g>
        </g>
    </g>
</svg>