<?xml version="1.0" encoding="UTF-8"?>
<svg width="40px" height="48px" viewBox="0 0 40 48" version="1.1" xmlns="http://www.w3.org/2000/svg" xmlns:xlink="http://www.w3.org/1999/xlink">
    <!-- Generator: Sketch 52.3 (67297) - http://www.bohemiancoding.com/sketch -->
    <title>合并形状</title>
    <desc>Created with Sketch.</desc>
    <g id="Page-1" stroke="none" stroke-width="1" fill="none" fill-rule="evenodd">
        <g id="印章管理-ukey申请保存草稿" transform="translate(-810.000000, -380.000000)" fill="#F7BA2A">
            <g id="合并形状-2" transform="translate(810.000000, 380.000000)">
                <path d="M16.5504638,32.5075164 C15.98313,31.655732 12.7107177,26.7203309 12.6462378,26.6190773 C12.5710112,26.5102114 12.6882169,26.4599484 12.6882169,26.4599484 C12.6882169,26.4599484 18.7839209,23.6657063 18.9760733,23.5771583 C19.1711363,23.4879387 19.1202016,23.7041592 19.1202016,23.7041592 L18.3306583,26.5718927 C18.3306583,26.5718927 19.264274,27.1346368 21.1015041,27.0948406 C23.8139709,27.0386446 26.1674323,25.0737419 26.8010372,24.5004751 C26.9074962,24.3998931 26.9451095,24.4199871 26.8939509,24.5551039 C26.4767904,25.6974957 24.1531062,31.0216794 17.4976247,29.8304799 C17.298028,30.5233593 16.8220407,32.0287305 16.676625,32.4948667 C16.6480233,32.5819034 16.6044769,32.5892917 16.5504638,32.5075164 Z M13.1700812,20.7643334 C13.0124076,20.9023048 12.961473,20.8865206 13.0275201,20.710992 C13.5078732,19.434323 15.8976045,14.2339496 22.5336078,15.4220147 C22.7258162,14.7556102 23.1729218,13.3432087 23.3425734,12.8005026 C23.4101318,12.6151228 23.5406589,12.7712292 23.5406589,12.7712292 L27.4313956,18.6448357 C27.4313956,18.6448357 27.4974428,18.7965202 27.3669157,18.8586493 C27.1941856,18.9458539 22.0652887,21.2461977 21.0206243,21.7692016 C20.8238262,21.8691119 20.8763281,21.6806536 20.8763281,21.6806536 L21.6898835,18.7259393 C21.6898835,18.7259393 20.7429465,18.157654 18.8785698,18.1952673 C16.22034,18.2523589 13.9011895,20.1127615 13.1700812,20.7643334 Z M0,5 C-6.76353751e-17,4.44771525 0.44771525,4 1,4 L39,4 C39.5522847,4 40,4.44771525 40,5 C40,5.55228475 39.5522847,6 39,6 L37,6 L31.2665381,42.3119251 C31.113048,43.2840292 30.2751593,44 29.2910122,44 L10.7089878,44 C9.72484066,44 8.88695199,43.2840292 8.73346187,42.3119251 L3,6 L1,6 C0.44771525,6 6.76353751e-17,5.55228475 0,5 Z M10.8607332,41.164399 C10.9410978,41.646587 11.3582879,42 11.8471271,42 L28.1528729,42 C28.6417121,42 29.0589022,41.646587 29.1392668,41.164399 L35,6 L5,6 L10.8607332,41.164399 Z" id="合并形状"></path>
            </g>
        </g>
    </g>
</svg>