<?xml version="1.0" encoding="UTF-8"?>
<svg width="16px" height="16px" viewBox="0 0 16 16" version="1.1" xmlns="http://www.w3.org/2000/svg" xmlns:xlink="http://www.w3.org/1999/xlink">
    <!-- Generator: Sketch 52.2 (67145) - http://www.bohemiancoding.com/sketch -->
    <title>合并形状</title>
    <desc>Created with Sketch.</desc>
    <g id="Page-2" stroke="none" stroke-width="1" fill="none" fill-rule="evenodd">
        <g id="首页" transform="translate(-459.000000, -151.000000)" fill="#AEAEAE">
            <g id="分组-6" transform="translate(459.000000, 151.000000)">
                <path d="M14.5229184,1.17020052 C14.7994785,1.22042384 15,1.45662968 15,1.73216596 L15,9.16068568 C15,10.3235006 14.6256401,11.4130564 13.887288,12.3990405 C13.3136371,13.1652028 12.5208253,13.8666775 11.5307504,14.484268 C9.87581014,15.5165469 8.24087644,15.9613246 8.17215225,15.9797175 C8.07264347,16.006414 7.96777984,16.0067488 7.86808876,15.9807666 C7.79893164,15.9627309 6.15447316,15.5269264 4.48971188,14.4990002 C3.4937809,13.8841106 2.69618391,13.1829038 2.11902382,12.4149111 C1.37650188,11.426918 1,10.3320497 1,9.16068568 L1,1.73216596 C1,1.45647343 1.20088607,1.22008902 1.47771965,1.17013356 L7.91259086,0.00941688869 C7.98265945,-0.00315010139 8.0544826,-0.00315010139 8.12443725,0.00948385312 L14.5229184,1.17020052 Z M14,9 L14,2 L8,1 L2,2 L2,9 C2,13 7.03842969,14.7184369 8,15 C8.43835156,14.8686828 14,13 14,9 Z M4.52423134,7.26776695 C4.71949348,7.07250481 5.03607597,7.07250481 5.23133812,7.26776695 L6.64555168,8.68198052 C6.84081383,8.87724266 7.15739632,8.87724266 7.35265846,8.68198052 L10.8881924,5.14644661 C11.0834545,4.95118446 11.400037,4.95118446 11.5952991,5.14644661 C11.7905613,5.34170876 11.7905613,5.65829124 11.5952991,5.85355339 L7.70621185,9.74264069 C7.31568756,10.133165 6.68252258,10.133165 6.29199829,9.74264069 L4.52423134,7.97487373 C4.32896919,7.77961159 4.32896919,7.4630291 4.52423134,7.26776695 Z" id="合并形状"></path>
            </g>
        </g>
    </g>
</svg>