<?xml version="1.0" encoding="UTF-8"?>
<svg width="40px" height="48px" viewBox="0 0 40 48" version="1.1" xmlns="http://www.w3.org/2000/svg" xmlns:xlink="http://www.w3.org/1999/xlink">
    <!-- Generator: Sketch 52.3 (67297) - http://www.bohemiancoding.com/sketch -->
    <title>合并形状</title>
    <desc>Created with Sketch.</desc>
    <g id="Page-1" stroke="none" stroke-width="1" fill="none" fill-rule="evenodd">
        <g id="印章管理-ukey" transform="translate(-810.000000, -380.000000)" fill="#F7BA2A" fill-rule="nonzero">
            <g id="合并形状-2" transform="translate(810.000000, 380.000000)">
                <path d="M20,44 C8.954305,44 0,35.045695 0,24 C0,12.954305 8.954305,4 20,4 C31.045695,4 40,12.954305 40,24 C40,35.045695 31.045695,44 20,44 Z M20,42 C29.9411255,42 38,33.9411255 38,24 C38,14.0588745 29.9411255,6 20,6 C10.0588745,6 2,14.0588745 2,24 C2,33.9411255 10.0588745,42 20,42 Z M10,23 L30,23 C30.5522847,23 31,23.4477153 31,24 C31,24.5522847 30.5522847,25 30,25 L10,25 C9.44771525,25 9,24.5522847 9,24 C9,23.4477153 9.44771525,23 10,23 Z" id="合并形状"></path>
            </g>
        </g>
    </g>
</svg>