<?xml version="1.0" encoding="UTF-8"?>
<svg width="40px" height="48px" viewBox="0 0 40 48" version="1.1" xmlns="http://www.w3.org/2000/svg" xmlns:xlink="http://www.w3.org/1999/xlink">
    <!-- Generator: Sketch 52.3 (67297) - http://www.bohemiancoding.com/sketch -->
    <title>购物车</title>
    <desc>Created with Sketch.</desc>
    <g id="Page-1" stroke="none" stroke-width="1" fill="none" fill-rule="evenodd">
        <g id="待我签署-更多-" transform="translate(-754.000000, -458.000000)" fill="#F7BA2A" fill-rule="nonzero">
            <g id="友情提示" transform="translate(714.000000, 367.000000)">
                <g id="购物车" transform="translate(40.000000, 91.000000)">
                    <path d="M8.03487116,15 L12.8367923,30.2994588 C12.9676339,30.7163349 13.3539745,31 13.7909015,31 L37.1612791,31 C37.874862,31 38.165638,31.574707 38.165638,32 C38.165638,32.425293 37.874862,33 37.1612791,33 L12.5059148,33 C11.6371094,33 10.8676762,32.4390959 10.601839,31.6119602 L3.01307668,8 L1.00435889,8 C0.375028774,8 0,7.53765452 0,7 C4.89856992e-17,6.46234548 0.375028774,6 1.00435889,6 L5.02179447,6 L7.03051226,13 L37.9999698,13 C39.1045393,13 39.9999698,13.8954305 39.9999698,15 C39.9999698,15.0556761 39.9976449,15.1113278 39.9930012,15.1668099 L39.1699969,25 L18.0784601,27 C17.3693119,27.0778504 17.0741012,26.4735066 17.0741012,26 C17.0741012,25.5264934 17.3694024,25.077672 18.0784601,25 L37.1612791,23 L38.0244544,16.124567 C38.0932509,15.5765839 37.7047933,15.0765853 37.1568102,15.0077888 C37.1154906,15.0026013 37.0738872,15 37.0322432,15 L8.03487116,15 Z M15.0652621,38 C16.172928,38 17.0741012,38.8971872 17.0741012,40.0000241 C17.0741012,41.1028128 16.172928,42 15.0652621,42 C13.9576933,42 13.0566656,41.1028128 13.0566656,40.0000241 C13.0566171,38.8971872 13.9576933,38 15.0652621,38 Z M15.0652787,36 C12.846567,36 11.0479478,37.7909153 11.0479478,40.0000208 C11.0479478,42.2093349 12.846567,44 15.0652787,44 C17.2839904,44 19.082819,42.2092932 19.082819,40.0000208 C19.0827771,37.7909153 17.2839904,36 15.0652787,36 Z M33.1439406,38 C34.251506,38 35.1525613,38.8971872 35.1525613,40.0000241 C35.1525613,41.1028128 34.251506,42 33.1439406,42 C32.0362781,42 31.1351257,41.1028128 31.1351257,40.0000241 C31.1351258,38.8971872 32.0362781,38 33.1439406,38 Z M33.1439273,36 C30.9249671,36 29.126408,37.7909153 29.126408,40.0000208 C29.126408,42.2093349 30.925009,44 33.1439273,44 C35.3626362,44 37.1612791,42.2092932 37.1612791,40.0000208 C37.161321,37.7909153 35.3626362,36 33.1439273,36 Z" id="形状"></path>
                </g>
            </g>
        </g>
    </g>
</svg>