<?xml version="1.0" encoding="UTF-8"?>
<svg width="16px" height="16px" viewBox="0 0 16 16" version="1.1" xmlns="http://www.w3.org/2000/svg" xmlns:xlink="http://www.w3.org/1999/xlink">
    <!-- Generator: Sketch 52.2 (67145) - http://www.bohemiancoding.com/sketch -->
    <title>合并形状</title>
    <desc>Created with Sketch.</desc>
    <g id="Page-2" stroke="none" stroke-width="1" fill="none" fill-rule="evenodd">
        <g id="首页" transform="translate(-459.000000, -181.000000)" fill="#AEAEAE">
            <g id="分组-7" transform="translate(459.000000, 181.000000)">
                <path d="M9.19960614,11.8788025 C8.81203976,11.9578252 8.41089611,11.9995304 8.00009126,12.0000022 C7.5905327,12.0000022 7.18777933,11.9583641 6.79673534,11.8783644 L4.50429437,15.8489887 C4.42145166,15.9924765 4.23797454,16.041639 4.09448675,15.9587963 C4.03827212,15.9263408 3.99410056,15.876528 3.96860218,15.8168348 L3.31062813,14.2764792 C3.25825209,14.1538639 3.13123503,14.0805305 2.99885899,14.0964792 L1.33588495,14.2968348 C1.17138909,14.3166533 1.02197278,14.1993691 1.00215428,14.0348733 C0.994389926,13.9704282 1.00773722,13.9052033 1.04019275,13.8489887 L3.36905647,9.81527839 C2.9974382,9.36428847 2.68813265,8.85440365 2.45688856,8.29614593 C1.52820011,6.05410564 2.04159317,3.47344902 3.75748037,1.75754201 C5.47346663,0.041575562 8.05412325,-0.471797693 10.2961635,0.45689076 C12.5381246,1.38557921 14,3.57336957 14,6.00007365 C13.9983439,7.44948332 13.4834,8.77862094 12.6271606,9.81550099 L14.9574463,13.8516742 C14.9899018,13.9078889 15.0032491,13.9731138 14.9954848,14.0375588 C14.9756663,14.2020547 14.82625,14.3193388 14.6617541,14.2995203 L12.9987801,14.0991648 C12.866404,14.0832161 12.739387,14.1565494 12.6870109,14.2791648 L12.0290369,15.8195203 C12.0035385,15.8792135 11.9593669,15.9290263 11.9031523,15.9614818 C11.7596645,16.0443246 11.5761874,15.995162 11.4933447,15.8516742 L9.19960614,11.8788025 Z M8,1.00007365 C5.23858431,1.00007365 3.00000228,3.23865567 3.00000228,6.00007136 C3.00000228,8.76148706 5.23858431,11.0000691 8,11.0000691 C10.7614157,11.0000691 12.9999977,8.76148706 12.9999977,6.00007136 C13.00179,4.67281387 12.4758497,3.39928553 11.5379991,2.46004096 C10.6000888,1.52087604 9.32727741,0.993143422 8,0.993143422 L8,1.00007365 Z M8,9.34087745 C6.3455717,9.34087745 5.00340913,8.00151715 5,6.347071 C5,6.15540999 5.15540999,6 5.3471424,6 C5.53880341,6 5.6942134,6.15540999 5.6942134,6.347071 C5.6942134,7.17084925 6.13368793,7.93206725 6.8471424,8.34391176 C7.56054332,8.75582765 8.43945668,8.75582765 9.1528576,8.34391176 C9.86632992,7.93206725 10.3057866,7.17084925 10.3057866,6.347071 C10.3057866,6.15540999 10.4611966,6 10.6528576,6 C10.84459,6 11,6.15540999 11,6.347071 C10.9965909,8.00151715 9.65444615,9.34087745 8,9.34087745 Z M3.81240085,13.4046885 L4.22689506,14.3294584 L5.58826897,11.9714896 L3.85621816,10.9714896 L2.4827593,13.3503901 L3.50334558,13.2294747 C3.63358864,13.2140439 3.75875778,13.2850065 3.81240085,13.4046885 Z M12.1852382,13.4073741 C12.2388813,13.2876921 12.3640504,13.2167295 12.4942935,13.2321602 L13.5148797,13.3530757 L12.1414209,10.9741751 L10.4093701,11.9741751 L11.770744,14.3321439 L12.1852382,13.4073741 Z" id="合并形状"></path>
            </g>
        </g>
    </g>
</svg>