<?xml version="1.0" encoding="UTF-8"?>
<svg width="40px" height="40px" viewBox="0 0 40 40" version="1.1" xmlns="http://www.w3.org/2000/svg" xmlns:xlink="http://www.w3.org/1999/xlink">
    <!-- Generator: Sketch 52.3 (67297) - http://www.bohemiancoding.com/sketch -->
    <title>Fill 1</title>
    <desc>Created with Sketch.</desc>
    <g id="Page-1" stroke="none" stroke-width="1" fill="none" fill-rule="evenodd">
        <g id="待我签署-更多-3" transform="translate(-528.000000, -185.000000)" fill="#F7BA2A">
            <g id="友情提示" transform="translate(488.000000, 95.000000)">
                <g id="警告" transform="translate(40.000000, 90.000000)">
                    <path d="M20,8 C18.8508963,8 17.9380416,9.08009499 18.0032928,10.3651466 L18.6226953,22.5463349 C18.6634965,23.3620598 19.270572,24 20,24 C20.7334011,24 21.3365035,23.3620598 21.3773047,22.5463349 L21.9967072,10.3651466 C22.0619584,9.08009499 21.1491037,8 20,8 Z M20,26 C18.8998906,26 18,26.9000924 18,28.0001302 C18,29.100168 18.8998906,30 20,30 C21.1001094,30 22,29.100168 22,28.0001302 C22,26.9000924 21.1001094,26 20,26 Z" id="Fill-4"></path>
                    <path d="M38.4250537,12.2146703 C37.4183409,9.83446565 35.9777349,7.69587206 34.1386383,5.85677553 C32.2998214,4.01790271 30.1655343,2.57707295 27.7807435,1.57036014 C25.3155276,0.528020873 22.6936559,0 19.9955537,0 C17.2976193,0 14.6755239,0.528020873 12.2103079,1.57036014 C9.83010323,2.57707295 7.69128592,4.01790271 5.8524131,5.85677553 C4.01354029,7.69587206 2.57707295,9.83446565 1.57036014,12.2146703 C0.528020873,14.68011 0,17.3019817 0,20.0001398 C0,22.6980183 0.528020873,25.31989 1.57036014,27.7853297 C2.57707295,30.1655343 4.01790271,32.3044076 5.85677553,34.1432245 C7.69587206,35.9820973 9.83010323,37.422927 12.2146703,38.4296399 C14.68011,39.4722028 17.3019817,40 20.0001398,40 C22.6980183,40 25.31989,39.4722028 27.7853297,38.4296399 C30.1655343,37.422927 32.3044076,35.9820973 34.1432245,34.1432245 C35.9820973,32.3044076 37.422927,30.1701205 38.4296399,27.7853297 C39.4722028,25.31989 40,22.6980183 40,20.0001398 C39.9956376,17.3019817 39.4676167,14.6845284 38.4250537,12.2146703 Z M32.7267841,32.7267841 C29.3242961,36.129507 24.8079132,38 20.0001469,38 C15.1923218,38 10.6711216,36.129507 7.27321594,32.7267841 C3.87531026,29.3288784 2,24.8079132 2,20.0001469 C2,15.1923218 3.87049303,10.6711216 7.27321594,7.27321594 C10.6757039,3.87531026 15.1923218,2 20.0001469,2 C24.8079132,2 29.3288784,3.87049303 32.7267841,7.27321594 C36.1246897,10.6757039 38,15.1923218 38,20.0001469 C38,24.8079132 36.1246897,29.3288784 32.7267841,32.7267841 Z" id="Fill-1"></path>
                </g>
            </g>
        </g>
    </g>
</svg>