<?xml version="1.0" encoding="UTF-8"?>
<svg width="120px" height="90px" viewBox="0 0 120 90" version="1.1" xmlns="http://www.w3.org/2000/svg" xmlns:xlink="http://www.w3.org/1999/xlink">
    <!-- Generator: Sketch 52.3 (67297) - http://www.bohemiancoding.com/sketch -->
    <title>生产中</title>
    <desc>Created with Sketch.</desc>
    <g id="Page-1" stroke="none" stroke-width="1" fill="none" fill-rule="evenodd">
        <g id="印章管理-UKEY印章订单查看" transform="translate(-1611.000000, -370.000000)">
            <g id="Group-Copy-2" transform="translate(1611.000000, 355.000000)">
                <g id="分组-3" transform="translate(0.000000, 15.000000)">
                    <path d="M60.0000086,17.7635029 C68.9906734,17.7635029 76.9645881,22.1040875 81.9354179,28.7993682 L85.4138465,29.7289786 C80.2214764,21.1390531 70.7832756,15.3950052 60.0000086,15.3950052 C54.7902778,15.3950052 49.895036,16.7374351 45.6406018,19.0915178 L49.1118096,20.0200548 C52.4473585,18.5692062 56.1298132,17.7635029 60.0000086,17.7635029 Z M77.9181947,16.2221775 L79.8223351,17.7635029 L80.4093708,15.4543518 L82.5416579,14.2106797 L80.4093708,12.9671609 L79.8223351,10.6578564 L77.9181947,12.1985684 L75.4234849,12.0147012 L76.3783205,14.2106797 L75.4234849,16.4066581 L77.9181947,16.2221775 Z M44.8767333,11.0550341 L42.9172845,9.69343541 L42.4898746,12.1033378 L40.4843357,13.5960511 L42.6471959,14.6305532 L43.3662032,16.9140948 L45.1305367,15.1439705 L47.5808462,15.0625414 L46.5084805,12.9335771 L47.3030759,10.60035 L44.8767333,11.0550341 Z M63.2178739,7.72564241 L61.7655712,5.83452464 L60.6242238,8.00059977 L58.2590275,8.81412392 L60.0047713,10.4560472 L59.9946314,12.849081 L62.2144899,11.6983392 L64.5736944,12.3644936 L64.2003636,10.0108708 L65.668337,8.02881625 L63.2178739,7.72564241 Z M89.7641484,22.5958824 L87.7082175,21.1743237 L87.4152373,23.5506423 L85.4768365,24.9596262 L87.7202009,26.0635961 L88.5794762,28.3554186 L90.2580819,26.662583 L92.7271347,26.6697905 L91.5220292,24.5187437 L92.188801,22.231675 L89.7641484,22.5958824 Z M116.482186,40.4904999 L13.3444192,12.905974 C10.81253,12.2290851 8.21027636,13.7285458 7.53213564,16.2551479 L0.162617352,43.7079458 C-0.515062459,46.2345478 0.987171318,48.8319978 3.51844599,49.5088867 L106.655598,77.0934126 C109.187487,77.7709149 111.789741,76.2714542 112.468496,73.7448521 L119.836939,46.2920542 C120.515694,43.7648388 119.01346,41.1673888 116.482186,40.4904999 Z M117.237758,46.8228001 L110.483237,71.9873026 C109.974247,73.8825608 108.022634,75.0075397 106.124485,74.499643 L5.27863134,47.5285189 C3.37986807,47.0198555 2.25342319,45.0718447 2.76179827,43.1771999 L9.51739489,18.012084 C10.02577,16.1168258 11.9779979,14.9924603 13.8761466,15.4997436 L114.721386,42.4714811 C116.620149,42.9789177 117.747209,44.9275419 117.237758,46.8228001 Z M60.0000086,2.36803768 C79.7659514,2.36803768 96.3926896,15.7711739 101.26335,33.9683519 L103.888956,34.6703902 C99.2121818,14.7964784 81.3377814,0 60.0006231,0 C47.0623313,0 35.3987412,5.44041398 27.1770148,14.1531732 L29.7995481,14.8545982 C37.5281092,7.14045709 48.2056759,2.36803768 60.0000086,2.36803768 Z M70.8882076,69.9793318 C67.5526587,71.4301804 63.8708186,72.2364971 60.0000086,72.2364971 C51.0094974,72.2364971 43.0354291,67.8965259 38.0639848,61.2000184 L34.5861707,60.270408 C39.7779263,68.8603335 49.2162807,74.6049948 60.0000086,74.6049948 C65.2097394,74.6049948 70.1049812,73.2625649 74.3594154,70.9084822 L70.8882076,69.9793318 Z M45.430584,74.8972808 L43.5413461,73.3596358 L42.9592266,75.663573 L40.8449148,76.9040248 L42.9592266,78.1446299 L43.5413461,80.4485671 L45.430584,78.9113822 L47.905475,79.0947893 L46.9578602,76.9040248 L47.905475,74.7134136 L45.430584,74.8972808 Z M59.9921733,82.1917017 L61.4324925,84.078679 L62.5649291,81.9179711 L64.9109211,81.1069006 L63.1794654,79.4685044 L63.1891443,77.0808378 L60.987261,78.229126 L58.6478753,77.5648119 L59.0181334,79.9124539 L57.5622971,81.8897547 L59.9921733,82.1917017 Z M29.998197,67.3053599 L31.9330642,68.8634005 L32.3896646,66.5194389 L34.4073407,65.2530708 L32.2661429,63.9974373 L31.5777087,61.6565427 L29.79709,63.224091 L27.3546158,63.0439042 L28.3951792,65.2685592 L27.573698,67.4981215 L29.998197,67.3053599 Z M60.0000086,87.6308889 C40.2346803,87.6308889 23.6079421,74.2282127 18.7366672,56.0316481 L16.1110612,55.3289964 C20.7873745,75.2035216 38.6622358,90 60.0000086,90 C72.9383004,90 84.6025051,84.559586 92.8237706,75.8462134 L90.2010836,75.1447884 C82.4720617,82.8595429 71.7938804,87.6308889 60.0000086,87.6308889 Z M77.1530971,78.9408255 L79.0997942,80.3005839 L79.5193688,77.8985024 L81.5069325,76.4134567 L79.3585139,75.3783411 L78.6401211,73.1009336 L76.8931483,74.8638504 L74.4614285,74.941139 L75.5290315,77.0651961 L74.7453442,79.3912157 L77.1530971,78.9408255 Z" id="Fill-1-Copy" fill="#9ABBDA" transform="translate(60.000000, 45.000000) scale(-1, 1) translate(-60.000000, -45.000000) "></path>
                    <path d="M24.4932656,39.4809164 C23.3732656,42.0289164 21.9452656,44.1569164 20.2092656,45.8929164 L18.9212656,44.2409164 C21.5532656,41.4969164 23.3452656,37.7729164 24.2692656,33.0969164 L26.3132656,33.4609164 C26.0052656,34.9169164 25.6412656,36.2609164 25.2212656,37.5209164 L31.2132656,37.5209164 L31.2132656,32.5369164 L33.2572656,32.5369164 L33.2572656,37.5209164 L42.4692656,37.5209164 L42.4692656,39.4809164 L33.2572656,39.4809164 L33.2572656,45.9489164 L41.9092656,45.9489164 L41.9092656,47.9089164 L33.2572656,47.9089164 L33.2572656,55.0209164 L44.2612656,55.0209164 L44.2612656,57.0369164 L19.5932656,57.0369164 L19.5932656,55.0209164 L31.2132656,55.0209164 L31.2132656,47.9089164 L22.9812656,47.9089164 L22.9812656,45.9489164 L31.2132656,45.9489164 L31.2132656,39.4809164 L24.4932656,39.4809164 Z M59.8012656,31.9489164 C60.2492656,32.9009164 60.6972656,33.9929164 61.1172656,35.1969164 L70.9452656,35.1969164 L70.9452656,37.1289164 L66.0732656,37.1289164 C65.7372656,38.6129164 65.2892656,40.0409164 64.7012656,41.3849164 L71.5332656,41.3849164 L71.5332656,43.3169164 L51.4292656,43.3169164 L51.4292656,47.4609164 C51.3172656,51.8289164 50.3092656,55.3289164 48.3772656,57.9609164 L46.8372656,56.5889164 C48.4612656,54.4049164 49.3292656,51.3529164 49.3852656,47.4609164 L49.3852656,41.3849164 L55.1252656,41.3849164 L53.9492656,37.1289164 L48.8252656,37.1289164 L48.8252656,35.1969164 L59.0732656,35.1969164 C58.6812656,34.1329164 58.2052656,33.1809164 57.7012656,32.3129164 L59.8012656,31.9489164 Z M57.1132656,41.3849164 L62.7692656,41.3849164 C63.3852656,40.0409164 63.8612656,38.6129164 64.1412656,37.1289164 L55.9372656,37.1289164 L57.1132656,41.3849164 Z M86.7092656,32.2009164 L88.7812656,32.2009164 L88.7812656,37.2409164 L98.8332656,37.2409164 L98.8332656,50.4009164 L96.8172656,50.4009164 L96.8172656,48.6369164 L88.7812656,48.6369164 L88.7812656,58.1849164 L86.7092656,58.1849164 L86.7092656,48.6369164 L78.7012656,48.6369164 L78.7012656,50.4009164 L76.6852656,50.4009164 L76.6852656,37.2409164 L86.7092656,37.2409164 L86.7092656,32.2009164 Z M78.7012656,46.6769164 L86.7092656,46.6769164 L86.7092656,39.2009164 L78.7012656,39.2009164 L78.7012656,46.6769164 Z M88.7812656,46.6769164 L96.8172656,46.6769164 L96.8172656,39.2009164 L88.7812656,39.2009164 L88.7812656,46.6769164 Z" id="生产中" fill="#466989" transform="translate(58.877266, 45.066916) rotate(-15.000000) translate(-58.877266, -45.066916) "></path>
                </g>
            </g>
        </g>
    </g>
</svg>