<?xml version="1.0" encoding="UTF-8"?>
<svg width="19px" height="19px" viewBox="0 0 19 19" version="1.1" xmlns="http://www.w3.org/2000/svg" xmlns:xlink="http://www.w3.org/1999/xlink">
    <!-- Generator: Sketch 52.3 (67297) - http://www.bohemiancoding.com/sketch -->
    <title>退出-2</title>
    <desc>Created with Sketch.</desc>
    <g id="Symbols" stroke="none" stroke-width="1" fill="none" fill-rule="evenodd">
        <g id="头部" transform="translate(-1528.000000, -28.000000)" fill="#02ADFF">
            <g id="分组" transform="translate(1528.000000, 28.000000)">
                <path d="M1.00666505,16.0079906 C1.00666505,17.3313106 1.59702214,17.9929706 2.77773633,17.9929706 L10,17.9929706 L10,19 L2.22221891,19 C0.994482722,19 -1.77635684e-15,17.9372672 -1.77635684e-15,16.6250199 L-1.77635684e-15,2.37501196 C-1.77635684e-15,1.06286035 0.994482722,0 2.22221891,0 L10,0 L10,0.98618814 L2.77773633,0.98618814 C0.998675346,0.98618814 1.00666505,1.98546446 1.00666505,2.96872509 L1.00666505,16.0079906 Z M17.493667,8.99881358 C17.770137,8.99881358 17.9942602,9.22293679 17.9942602,9.49940679 C17.9942602,9.77587679 17.770137,10 17.493667,10 L17.0140088,10 L5.58159106,10 C5.26050856,10 4.99353789,9.74087173 4.99353789,9.48690646 C4.99353789,9.2329412 5.26050856,8.99881358 5.58159106,8.99881358 L17.0140088,8.99881358 L17.493667,8.99881358 Z" id="退出-2"></path>
                <path d="M17,6.5 L17,12.5 C17,12.7761424 16.7761424,13 16.5,13 C16.2238576,13 16,12.7761424 16,12.5 L16,7 L10.5,7 C10.2238576,7 10,6.77614237 10,6.5 C10,6.22385763 10.2238576,6 10.5,6 L16.5,6 C16.7761424,6 17,6.22385763 17,6.5 Z" id="Combined-Shape" transform="translate(13.500000, 9.500000) rotate(45.000000) translate(-13.500000, -9.500000) "></path>
            </g>
        </g>
    </g>
</svg>