<?xml version="1.0" encoding="UTF-8"?>
<svg width="40px" height="47px" viewBox="0 0 40 47" version="1.1" xmlns="http://www.w3.org/2000/svg" xmlns:xlink="http://www.w3.org/1999/xlink">
    <!-- Generator: Sketch 52.3 (67297) - http://www.bohemiancoding.com/sketch -->
    <title>zhongguohangtiantubiaoheji-weizhuanlunkuo--3</title>
    <desc>Created with Sketch.</desc>
    <defs>
        <polygon id="path-1" points="0 0.0298914835 40 0.0298914835 40 47.0298915 0 47.0298915"></polygon>
    </defs>
    <g id="Page-1" stroke="none" stroke-width="1" fill="none" fill-rule="evenodd">
        <g id="合同管理（实名认证提示弹窗）" transform="translate(-805.000000, -368.000000)">
            <g id="zhongguohangtiantubiaoheji-weizhuanlunkuo--3" transform="translate(805.000000, 368.000000)">
                <g id="分组">
                    <mask id="mask-2" fill="white">
                        <use xlink:href="#path-1"></use>
                    </mask>
                    <g id="Clip-2"></g>
                    <path d="M19.999972,47.0298915 C19.159293,46.948149 13.5,45 10.5906423,42.7109793 C3.99980105,38.0741401 0.0510693213,30.4985343 3.68547994e-08,22.393799 L3.68547994e-08,7.79480126 C-0.00230576696,7.45336066 0.137750465,7.1266492 0.386008675,6.89442824 C0.639134693,6.6656527 0.976465251,6.55531329 1.31473521,6.59028425 C1.39911055,6.59028425 10.047839,7.27161503 19.4078653,0.26407202 C19.831877,-0.0481686953 20.4073032,-0.0481686953 20.8313149,0.26407202 C20.9277316,0.337028678 30.4808476,7.28376011 38.6829334,6.59028425 C39.0208617,6.56539113 39.3534099,6.68451635 39.5996185,6.91897682 C39.8491577,7.14611579 39.9936548,7.46808981 39.9975832,7.80694635 L39.9975832,23.6834177 C39.9975832,23.7931542 40.6491008,41.4212744 20.4330086,46.9568501 C20.2564865,47.0069809 20.1834969,47.0316142 19.999972,47.0298915 Z M2,9 L2,23 C2.07335188,30.3072551 5.60040081,36.8234383 11.5,41 C13.3124629,42.3035773 15.4159736,43.2218623 17.5,44 C18.829571,44.5905836 19.6629043,44.923917 20,45 C38.1035504,39.9848258 38.023884,24.6465619 38,24 L38,9 C30.6049744,9 22.3420391,4.09860785 20.0009837,2.5 C14.8736616,6.34757885 8.3674193,8.71956977 2,9 Z" id="Fill-1" fill="#F7BA2A" mask="url(#mask-2)"></path>
                </g>
                <path d="M17.948742,35.8628938 C17.7912154,35.8646154 17.634968,35.8313022 17.4910021,35.7657949 C16.9839659,35.5548974 16.6821322,35.0253297 16.7564179,34.4769103 L17.948742,27 L13.3228998,27 C11.9206823,27 11.9206823,25.4942289 12.0945842,25.1153022 L17,13.792348 C17.1901919,13.3518736 17.5239232,13.0033571 18,13 C18.3173845,12.9977619 20.9840512,12.9977619 26,13 C27.1878891,13.0173551 27.5,14.5 27,15 L23,21 L27.5,21 C27.9563753,21 28.3735181,21.2603077 28.5774414,21.6722033 C28.7816205,22.0840989 28.7376119,22.5769963 28.463838,22.9452491 L18.9485714,35.3767106 C18.7136887,35.6934872 18.3405544,35.8746868 17.948742,35.8628938 Z M14,25 L18.5,25 C18.8521535,25 19.1866525,25.1552894 19.415565,25.4253242 C19.6400426,25.6906245 19.7410235,26.0402839 19.6924094,26.3859835 L18.5,33.5 L26.5,22.9269615 L22.1288699,22.9269615 C21.7104478,22.9249817 21.3226439,22.7040128 21.1050746,22.3432491 C20.8898934,21.9669908 20.8898934,21.503619 21.1050746,21.1273608 L25,15 L18,15 L14,25 Z" id="Fill-3" fill="#F7BA2A"></path>
            </g>
        </g>
    </g>
</svg>