<?xml version="1.0" encoding="UTF-8"?>
<svg width="40px" height="48px" viewBox="0 0 40 48" version="1.1" xmlns="http://www.w3.org/2000/svg" xmlns:xlink="http://www.w3.org/1999/xlink">
    <!-- Generator: Sketch 52.3 (67297) - http://www.bohemiancoding.com/sketch -->
    <title>分组</title>
    <desc>Created with Sketch.</desc>
    <defs>
        <polygon id="path-1" points="0.0036199095 -3.59053856e-13 32.0036199 -3.59053856e-13 32.0036199 38.0080845 0.0036199095 38.0080845"></polygon>
    </defs>
    <g id="Page-1" stroke="none" stroke-width="1" fill="none" fill-rule="evenodd">
        <g id="印章管理-撤销Ukey挂失-弹窗" transform="translate(-810.000000, -386.000000)">
            <g id="shenhebutongguo" transform="translate(810.000000, 386.000000)">
                <g id="分组" transform="translate(0.000000, 4.000000)">
                    <mask id="mask-2" fill="white">
                        <use xlink:href="#path-1"></use>
                    </mask>
                    <g id="Clip-2"></g>
                    <path d="M4,0 L28.0418703,-6.21724894e-15 C30.2510093,-6.62306119e-15 32.0418703,1.790861 32.0418703,4 C32.0418703,5.66666667 32.0418703,7.33333333 32.0418703,9 C32.0418703,10.7261504 30,10.7261504 30,9.0068175 C30,7.33787833 30,5.66893917 30,4 L30,4 C30,2.8954305 29.1045695,2 28,2 L4,2 C2.8954305,2 2,2.8954305 2,4 L1.99999035,34.0003474 C1.99999035,35.1048088 2.89524818,36.0001967 3.99970958,36.0003571 C6.89994008,36.0007782 9.23337022,36.0006592 11,36 C12.6299246,36 12.7496229,38 11,38 C8.66666667,38 6.33333333,38 4,38 L4,38 C1.790861,38 -3.14991215e-10,36.209139 -3.26588534e-10,34 L-3.0559022e-10,4 C-3.0559049e-10,1.790861 1.790861,-9.26455379e-16 4,-1.33226763e-15 Z" id="Fill-1" fill="#F7BA2A" mask="url(#mask-2)"></path>
                </g>
                <path d="M14.0000078,30.9606823 C14.0000078,23.77579 19.8339856,17.9524193 27.0191596,17.962543 C34.204157,17.9726667 40.0077682,23.8024531 40,31 C39.9926437,38.168353 34.1713187,43.9636481 26.9784942,43.9625298 C19.8061495,43.9611172 14.0000078,38.145398 14.0000078,30.9606823 Z M16.0000351,30.9315239 C15.9866384,36.990265 20.9023682,41.9449811 26.9447325,41.9624904 C33.0115224,41.9785667 37.9865717,37.0669075 37.9999684,31.0432474 C38.0160445,24.9321028 33.102994,19.9771998 27.0121523,19.9625567 C20.9751468,19.9492222 16.0134318,24.8890459 16.0000351,30.9315239 Z M22.8876072,12 C24.3707976,12 24.3707976,14 22.8876072,14 L7.10864385,14 C5.63045205,14 5.63045205,12 7.10864385,12 C12.2862692,12 21.4044168,12 22.8876072,12 Z M13.7351191,20 C15.4218347,20 15.4214192,22 13.7351191,22 L7.41753354,22 C5.52443747,22 5.52998475,20 7.41921016,20 C8.68239195,20 11.0002829,20 13.7351191,20 Z M11.1567461,28 C12.2812232,28 12.2809461,30 11.1567461,30 L6.94502236,30 C5.68295831,30 5.6866565,28 6.9461401,28 C7.7882613,28 9.33352193,28 11.1567461,28 Z" id="Fill-3" fill="#F7BA2A"></path>
                <path d="M28.5395551,30.9736261 L32.4286424,27.0845388 C32.7821958,26.7309854 32.7821958,26.0238786 32.4286424,25.6703253 C32.075089,25.3167719 31.3679823,25.3167719 31.0144289,25.6703253 L27.1253416,29.5594126 L23.2362543,25.6703253 C22.8827009,25.3167719 22.1755941,25.3167719 21.8220407,25.6703253 C21.4684873,26.0238786 21.4684516,26.7310211 21.8220407,27.0845388 L25.711128,30.9736261 L21.8230047,34.8617494 C21.4694513,35.2153028 21.4694513,35.9224096 21.8230047,36.275963 C22.1765581,36.6295163 22.8836649,36.6295163 23.2372183,36.275963 L27.1253416,32.3878397 L31.0144289,36.276927 C31.3679823,36.6304804 32.075089,36.6304804 32.4286424,36.276927 C32.7821958,35.9233736 32.7821958,35.2162668 32.4286424,34.8627134 L28.5395551,30.9736261 Z" id="Fill-4" fill="#F7BA2A"></path>
            </g>
        </g>
    </g>
</svg>