<?xml version="1.0" encoding="UTF-8"?>
<svg width="40px" height="48px" viewBox="0 0 40 48" version="1.1" xmlns="http://www.w3.org/2000/svg" xmlns:xlink="http://www.w3.org/1999/xlink">
    <!-- Generator: Sketch 52.3 (67297) - http://www.bohemiancoding.com/sketch -->
    <title>签署位置</title>
    <desc>Created with Sketch.</desc>
    <g id="Page-1" stroke="none" stroke-width="1" fill="none" fill-rule="evenodd">
        <g id="待我签署-更多-2" transform="translate(-528.000000, -181.000000)" fill="#F7BA2A" fill-rule="nonzero">
            <g id="友情提示" transform="translate(488.000000, 95.000000)">
                <g id="合并形状-2" transform="translate(40.000000, 86.000000)">
                    <path d="M35,19.2634693 L32.9818713,19.2634693 L32.9818713,8.00000028 C32.9818713,6.89543078 32.0864408,6.00000029 30.9818713,6.00000028 L4,6.00000002 C2.89543046,5.99999999 1.99999997,6.8954305 1.99999998,8 L2.00000031,38.0959507 C2.00000032,39.2005202 2.89543082,40.0959507 4.00000031,40.0959507 L12.9818715,40.0959507 L12.9818715,42 L4,42 C1.790861,42 2.705415e-16,40.209139 0,38 L0,8 C-2.705415e-16,5.790861 1.790861,4 4,4 L31,4 C33.209139,4 35,5.790861 35,8 L35,19.2634693 Z M5.74106257,9 L28.3611428,9 C28.9134275,9 29.3611428,9.44771525 29.3611428,10 C29.3611428,10.5522847 28.9134275,11 28.3611428,11 L5.74106257,11 C5.18877782,11 4.74106257,10.5522847 4.74106257,10 C4.74106257,9.44771525 5.18877782,9 5.74106257,9 Z M5.74106257,15 L28.3611428,15 C28.9134275,15 29.3611428,15.4477153 29.3611428,16 C29.3611428,16.5522847 28.9134275,17 28.3611428,17 L5.74106257,17 C5.18877782,17 4.74106257,16.5522847 4.74106257,16 C4.74106257,15.4477153 5.18877782,15 5.74106257,15 Z M5.74106257,21 L17.2358967,21 C17.7881814,21 18.2358967,21.4477153 18.2358967,22 C18.2358967,22.5522847 17.7881814,23 17.2358967,23 L5.74106257,23 C5.18877782,23 4.74106257,22.5522847 4.74106257,22 C4.74106257,21.4477153 5.18877782,21 5.74106257,21 Z M5.74106257,27 L13.1493749,27 C13.7016597,27 14.1493749,27.4477153 14.1493749,28 C14.1493749,28.5522847 13.7016597,29 13.1493749,29 L5.74106257,29 C5.18877782,29 4.74106257,28.5522847 4.74106257,28 C4.74106257,27.4477153 5.18877782,27 5.74106257,27 Z M21.7106352,34.9976583 C20.8154872,34.9976583 20.0293516,35.5924624 19.7859751,36.4538902 L18.5785387,40.7275956 C18.5535447,40.8160613 18.5408687,40.9075509 18.5408687,40.9994796 C18.5408687,41.5517644 18.9885839,41.9994796 19.5408687,41.9994796 L37.1435025,41.9994796 C37.237387,41.9994796 37.3308038,41.9862585 37.4210012,41.9602056 C37.9515955,41.8069474 38.2574868,41.2525753 38.1042285,40.721981 L36.8681783,36.442661 C36.6209774,35.5868283 35.8375449,34.9976583 34.9467263,34.9976583 L36.8751653,34.9976583 C37.810827,34.9976583 38.6214389,35.6463659 38.8265287,36.5592739 L39.9503318,41.5616157 C40.1924448,42.6393239 39.515061,43.7092504 38.4373527,43.9513634 C38.2934647,43.9836886 38.1464427,44 37.9989684,44 L18.6864552,44 C17.5818857,44 16.6864552,43.1045695 16.6864552,42 C16.6864552,41.8556558 16.7020815,41.7117357 16.733061,41.5707551 L17.832291,36.5684134 C18.0338576,35.6511306 18.846517,34.9976583 19.7856852,34.9976583 L21.7106352,34.9976583 Z M28.3486896,40 C24.2988768,34.8683141 22.2739704,31.1976142 22.2739704,28.9879004 C22.2739704,25.6733298 24.9937148,22.9863393 28.3486896,22.9863393 C31.7036644,22.9863393 34.4234088,25.6733298 34.4234088,28.9879004 C34.4234088,31.1976142 32.3985024,34.8683141 28.3486896,40 Z M28.3486896,37.9994796 C31.0485648,33.4649027 32.3985024,30.461043 32.3985024,28.9879004 C32.3985024,26.7781866 30.5853394,24.9868597 28.3486896,24.9868597 C26.1120397,24.9868597 24.2988768,26.7781866 24.2988768,28.9879004 C24.2988768,30.461043 25.6488144,33.4649027 28.3486896,37.9994796 Z" id="合并形状"></path>
                </g>
            </g>
        </g>
    </g>
</svg>