<?xml version="1.0" encoding="UTF-8"?>
<svg width="16px" height="16px" viewBox="0 0 16 16" version="1.1" xmlns="http://www.w3.org/2000/svg" xmlns:xlink="http://www.w3.org/1999/xlink">
    <!-- Generator: Sketch 60 (88103) - https://sketch.com -->
    <title>形状</title>
    <desc>Created with Sketch.</desc>
    <g id="Symbols" stroke="none" stroke-width="1" fill="none" fill-rule="evenodd">
        <g id="-左边栏-邀请好友" transform="translate(-21.000000, -193.000000)" fill="#02ADFF" fill-rule="nonzero">
            <g id="-左边栏-我的优惠券">
                <g id="haoyou" transform="translate(21.000000, 193.000000)">
                    <path d="M11.2494602,15.6772357 L8.65261814,12.9469603 C7.74940351,11.9969442 7.78860415,10.491229 8.73981956,9.59098871 C9.15453855,9.19993979 9.71346188,8.9872451 10.2910447,9.00067993 C10.9094547,9.01623483 11.5138645,9.28805686 11.9498716,9.74614893 L12.0002724,9.79903561 L12.0506732,9.74614893 C12.4862802,9.28805686 13.09069,9.01662371 13.7087,9.00067993 C14.2865641,8.98634574 14.8459571,9.19916431 15.2603252,9.59098871 C16.2111406,10.4912291 16.2507412,11.9965554 15.3475266,12.9469603 L12.7502845,15.6776245 C12.5572131,15.8817224 12.285491,15.9985159 12.0002724,16 C11.7147659,15.9983964 11.4427946,15.8814795 11.2494602,15.6772357 Z M10.0625524,10 C9.87654518,10 9.6168369,10.0506513 9.38608261,10.2759417 C8.88947831,10.7608441 8.86929826,11.6034831 9.34089687,12.1161067 L11.9998357,15 L14.6587745,12.1156667 C15.1308118,11.603483 15.1106317,10.7608441 14.6135888,10.2755017 C14.3714283,10.0387707 14.0972431,9.99960893 13.9099197,10 C13.6010775,10.0084093 13.29399,10.1536161 13.0676227,10.3991474 L12.8228301,10.6649197 C12.3959785,11.1282611 11.6045702,11.1287011 11.1768412,10.6644797 L10.9324874,10.3987074 C10.7069974,10.1540561 10.3994713,10.0084093 10.0897516,10 L10.0625524,10 Z M12,4.5 C12,2 10,0 7.51183713,0 C5,0 2.99341358,2.011013 3,4.5 C2.96242973,5.72067847 3.62450399,7.34325224 5.02881981,8.25347154 C2,9.5 0,12 0,15.5 C0,15.5 0,16 0.5,16 C1,16 1,15.5 1,15.5 C1,12 3.5,9 7.5,9 C7.54469696,9 7.97386364,8.98598485 8.01553029,8.97613636 C10.1441109,8.71147551 12,7 12,4.5 Z M7.51183713,8 C5.58189595,8 4.01183713,6.42994118 4.01183713,4.5 C4.01183713,2.5700588 5.58189595,1 7.51183713,1 C9.4417783,1 11.0118371,2.57005882 11.0118371,4.5 C11.0118371,6.42994116 9.4417783,8 7.51183713,8 Z" id="形状"></path>
                </g>
            </g>
        </g>
    </g>
</svg>