<?xml version="1.0" encoding="UTF-8"?>
<svg width="24px" height="24px" viewBox="0 0 24 24" version="1.1" xmlns="http://www.w3.org/2000/svg" xmlns:xlink="http://www.w3.org/1999/xlink">
    <!-- Generator: Sketch 53.2 (72643) - https://sketchapp.com -->
    <title>合并形状 copy</title>
    <desc>Created with Sketch.</desc>
    <g id="Page-1" stroke="none" stroke-width="1" fill="none" fill-rule="evenodd">
        <g id="签署合同1" transform="translate(-1094.000000, -735.000000)" fill="#02ADFF">
            <path d="M1106.5,745 L1106.5,753.5 C1106.5,753.776142 1106.27614,754 1106,754 C1105.72386,754 1105.5,753.776142 1105.5,753.5 L1105.5,745 L1102.81802,747.681981 C1102.62276,747.877243 1102.30617,747.877243 1102.11091,747.681981 C1101.91565,747.486718 1101.91565,747.170136 1102.11091,746.974874 L1105.29289,743.792893 C1105.68342,743.402369 1106.31658,743.402369 1106.70711,743.792893 L1109.88909,746.974874 C1110.08435,747.170136 1110.08435,747.486718 1109.88909,747.681981 C1109.69383,747.877243 1109.37724,747.877243 1109.18198,747.681981 L1106.5,745 Z M1112,742.5 C1112,742.776142 1111.77614,743 1111.5,743 L1100.5,743 C1100.22386,743 1100,742.776142 1100,742.5 C1100,742.223858 1100.22386,742 1100.5,742 L1111.5,742 C1111.77614,742 1112,742.223858 1112,742.5 Z M1101.32837,758.057371 C1099.89893,757.454005 1098.61455,756.586473 1097.51399,755.485913 C1096.41087,754.382829 1095.54603,753.100936 1094.94263,751.671503 C1094.31599,750.190344 1094,748.618421 1094,746.999951 C1094,745.381481 1094.31851,743.807002 1094.94263,742.328367 C1095.54603,740.898935 1096.41343,739.614549 1097.51399,738.51399 C1098.6172,737.410873 1099.89893,736.546027 1101.32837,735.942629 C1102.80966,735.31599 1104.38148,735 1105.99995,735 C1107.62108,735 1109.19287,735.318515 1110.6715,735.942629 C1112.10094,736.546027 1113.38535,737.41343 1114.48591,738.51399 C1115.58913,739.617204 1116.45401,740.898935 1117.05737,742.328367 C1117.68404,743.809656 1118,745.381481 1118,746.999951 C1118,748.618421 1117.68152,750.192869 1117.05737,751.671503 C1116.45401,753.100936 1115.58913,754.382829 1114.48857,755.485913 C1113.38535,756.589127 1112.10359,757.454005 1110.67416,758.057371 C1109.19287,758.684042 1107.62108,759 1106.00261,759 C1104.38148,759 1102.80966,758.684042 1101.32837,758.057371 Z M1095,747.000016 C1095,753.065614 1099.93439,758 1106.00002,758 C1112.06561,758 1117,753.065614 1117,747.000016 C1117,740.934386 1112.06561,736 1106.00002,736 C1099.93439,736 1095,740.931874 1095,747.000016 Z" id="合并形状-copy" transform="translate(1106.000000, 747.000000) rotate(-180.000000) translate(-1106.000000, -747.000000) "></path>
        </g>
    </g>
</svg>