<?xml version="1.0" encoding="UTF-8"?>
<svg width="24px" height="24px" viewBox="0 0 24 24" version="1.1" xmlns="http://www.w3.org/2000/svg" xmlns:xlink="http://www.w3.org/1999/xlink">
    <!-- Generator: Sketch 53.2 (72643) - https://sketchapp.com -->
    <title>合并形状 copy 3</title>
    <desc>Created with Sketch.</desc>
    <g id="Page-1" stroke="none" stroke-width="1" fill="none" fill-rule="evenodd">
        <g id="签署合同1" transform="translate(-1061.000000, -735.000000)" fill="#0073BD">
            <path d="M1073.5,745 L1073.5,753.5 C1073.5,753.776142 1073.27614,754 1073,754 C1072.72386,754 1072.5,753.776142 1072.5,753.5 L1072.5,745 L1069.81802,747.681981 C1069.62276,747.877243 1069.30617,747.877243 1069.11091,747.681981 C1068.91565,747.486718 1068.91565,747.170136 1069.11091,746.974874 L1072.29289,743.792893 C1072.68342,743.402369 1073.31658,743.402369 1073.70711,743.792893 L1076.88909,746.974874 C1077.08435,747.170136 1077.08435,747.486718 1076.88909,747.681981 C1076.69383,747.877243 1076.37724,747.877243 1076.18198,747.681981 L1073.5,745 Z M1079,742.5 C1079,742.776142 1078.77614,743 1078.5,743 L1067.5,743 C1067.22386,743 1067,742.776142 1067,742.5 C1067,742.223858 1067.22386,742 1067.5,742 L1078.5,742 C1078.77614,742 1079,742.223858 1079,742.5 Z M1068.32837,758.057371 C1066.89893,757.454005 1065.61455,756.586473 1064.51399,755.485913 C1063.41087,754.382829 1062.54603,753.100936 1061.94263,751.671503 C1061.31599,750.190344 1061,748.618421 1061,746.999951 C1061,745.381481 1061.31851,743.807002 1061.94263,742.328367 C1062.54603,740.898935 1063.41343,739.614549 1064.51399,738.51399 C1065.6172,737.410873 1066.89893,736.546027 1068.32837,735.942629 C1069.80966,735.31599 1071.38148,735 1072.99995,735 C1074.62108,735 1076.19287,735.318515 1077.6715,735.942629 C1079.10094,736.546027 1080.38535,737.41343 1081.48591,738.51399 C1082.58913,739.617204 1083.45401,740.898935 1084.05737,742.328367 C1084.68404,743.809656 1085,745.381481 1085,746.999951 C1085,748.618421 1084.68152,750.192869 1084.05737,751.671503 C1083.45401,753.100936 1082.58913,754.382829 1081.48857,755.485913 C1080.38535,756.589127 1079.10359,757.454005 1077.67416,758.057371 C1076.19287,758.684042 1074.62108,759 1073.00261,759 C1071.38148,759 1069.80966,758.684042 1068.32837,758.057371 Z M1062,747.000016 C1062,753.065614 1066.93439,758 1073.00002,758 C1079.06561,758 1084,753.065614 1084,747.000016 C1084,740.934386 1079.06561,736 1073.00002,736 C1066.93439,736 1062,740.931874 1062,747.000016 Z" id="合并形状-copy-3" transform="translate(1073.000000, 747.000000) rotate(-180.000000) translate(-1073.000000, -747.000000) "></path>
        </g>
    </g>
</svg>