<?xml version="1.0" encoding="UTF-8"?>
<svg width="24px" height="24px" viewBox="0 0 24 24" version="1.1" xmlns="http://www.w3.org/2000/svg" xmlns:xlink="http://www.w3.org/1999/xlink">
    <!-- Generator: Sketch 53.2 (72643) - https://sketchapp.com -->
    <title>合并形状 copy 5</title>
    <desc>Created with Sketch.</desc>
    <g id="Page-1" stroke="none" stroke-width="1" fill="none" fill-rule="evenodd">
        <g id="签署合同1" transform="translate(-1034.000000, -735.000000)" fill="#E2E2E2">
            <path d="M1046.5,745 L1046.5,753.5 C1046.5,753.776142 1046.27614,754 1046,754 C1045.72386,754 1045.5,753.776142 1045.5,753.5 L1045.5,745 L1042.81802,747.681981 C1042.62276,747.877243 1042.30617,747.877243 1042.11091,747.681981 C1041.91565,747.486718 1041.91565,747.170136 1042.11091,746.974874 L1045.29289,743.792893 C1045.68342,743.402369 1046.31658,743.402369 1046.70711,743.792893 L1049.88909,746.974874 C1050.08435,747.170136 1050.08435,747.486718 1049.88909,747.681981 C1049.69383,747.877243 1049.37724,747.877243 1049.18198,747.681981 L1046.5,745 Z M1052,742.5 C1052,742.776142 1051.77614,743 1051.5,743 L1040.5,743 C1040.22386,743 1040,742.776142 1040,742.5 C1040,742.223858 1040.22386,742 1040.5,742 L1051.5,742 C1051.77614,742 1052,742.223858 1052,742.5 Z M1041.32837,758.057371 C1039.89893,757.454005 1038.61455,756.586473 1037.51399,755.485913 C1036.41087,754.382829 1035.54603,753.100936 1034.94263,751.671503 C1034.31599,750.190344 1034,748.618421 1034,746.999951 C1034,745.381481 1034.31851,743.807002 1034.94263,742.328367 C1035.54603,740.898935 1036.41343,739.614549 1037.51399,738.51399 C1038.6172,737.410873 1039.89893,736.546027 1041.32837,735.942629 C1042.80966,735.31599 1044.38148,735 1045.99995,735 C1047.62108,735 1049.19287,735.318515 1050.6715,735.942629 C1052.10094,736.546027 1053.38535,737.41343 1054.48591,738.51399 C1055.58913,739.617204 1056.45401,740.898935 1057.05737,742.328367 C1057.68404,743.809656 1058,745.381481 1058,746.999951 C1058,748.618421 1057.68152,750.192869 1057.05737,751.671503 C1056.45401,753.100936 1055.58913,754.382829 1054.48857,755.485913 C1053.38535,756.589127 1052.10359,757.454005 1050.67416,758.057371 C1049.19287,758.684042 1047.62108,759 1046.00261,759 C1044.38148,759 1042.80966,758.684042 1041.32837,758.057371 Z M1035,747.000016 C1035,753.065614 1039.93439,758 1046.00002,758 C1052.06561,758 1057,753.065614 1057,747.000016 C1057,740.934386 1052.06561,736 1046.00002,736 C1039.93439,736 1035,740.931874 1035,747.000016 Z" id="合并形状-copy-5" transform="translate(1046.000000, 747.000000) rotate(-180.000000) translate(-1046.000000, -747.000000) "></path>
        </g>
    </g>
</svg>