<?xml version="1.0" encoding="UTF-8"?>
<svg width="22px" height="22px" viewBox="0 0 22 22" version="1.1" xmlns="http://www.w3.org/2000/svg" xmlns:xlink="http://www.w3.org/1999/xlink">
    <!-- Generator: Sketch 57 (83077) - https://sketch.com -->
    <title>Fill 3</title>
    <desc>Created with Sketch.</desc>
    <g id="Page-1" stroke="none" stroke-width="1" fill="none" fill-rule="evenodd">
        <g id="设置签署流程（新）" transform="translate(-1484.000000, -353.000000)" fill="#99A9BF">
            <g id="tongxunlu备份" transform="translate(1484.000000, 353.000000)">
                <path d="M12.4999039,11.2352941 C10.5669375,11.2352941 9,9.66823726 9,7.73527489 C9,5.80235098 10.5669375,4.23529412 12.4999039,4.23529412 C14.4329087,4.23529412 16,5.80235098 16,7.73527489 C16,8.66353518 15.631241,9.55376682 14.9748191,10.2101358 C14.3184358,10.8665432 13.4281845,11.2352941 12.4999039,11.2352941 Z M7.5,16.5 C7.77614237,16.5 8,16.2761424 8,16 C8,15.7238576 7.77614237,15.5 7.5,15.5 C7.22385763,15.5 7,15.7238576 7,16 C7,16.2761424 7.22385763,16.5 7.5,16.5 Z M17.5,16.5 C17.7761424,16.5 18,16.2761424 18,16 C18,15.7238576 17.7761424,15.5 17.5,15.5 C17.2238576,15.5 17,15.7238576 17,16 C17,16.2761424 17.2238576,16.5 17.5,16.5 Z M12.4999817,5.23529412 C11.119233,5.23529412 10,6.35455554 10,7.73529412 C10,9.1160327 11.119233,10.2352941 12.4999817,10.2352941 C13.8807304,10.2352941 15,9.1160327 15,7.73529412 C15,7.07226274 14.7366166,6.43636786 14.2678586,5.9674668 C13.7989175,5.4986756 13.1630545,5.23529412 12.4999817,5.23529412 Z" id="Fill-1"></path>
                <path d="M18,16 L17,16 C17,13.8823529 14.8235294,11.987033 12.4117647,11.9935165 C10,12 8,13.8823529 8,16 L7,16 C7,12.4705882 10.5,11 12.5,11 C14.5,11 18,12.4705882 18,16 Z M4,7 L0.5,7 C0.5,7 -4.48965825e-05,7 -4.48965825e-05,6.5 C-4.48965825e-05,6 0.5,6 0.5,6 L4,6 C4,6 4.50001017,6 4.50001017,6.5 C4.50001017,7 3.99815068,7 4,7 Z M4,17 L0.5,17 C0.49815068,17 -1.52675291e-05,17 -1.52675291e-05,16.5 C-1.52675291e-05,16 0.5,16 0.5,16 L4,16 C3.99815068,16 4.50000508,16 4.50000508,16.5 C4.50000508,17 3.99815068,17 4,17 Z" id="Fill-2"></path>
                <path d="M2,20.25 L2,19 C2,18.7238576 2.22385763,18.5 2.5,18.5 C2.77614237,18.5 3,18.7238576 3,19 L3,20 C3,20.5522847 3.44771525,21 4,21 L20,21 C20.5522847,21 21,20.5522847 21,20 L21,2 C21,1.44771525 20.5522847,1 20,1 L4,1 C3.44771525,1 3,1.44771525 3,2 L3,3.5 C3,3.77614237 2.77614237,4 2.5,4 C2.22385763,4 2,3.77614237 2,3.5 L2,2 C2,0.8954305 2.8954305,2.02906125e-16 4,0 L20,0 C21.1045695,-2.02906125e-16 22,0.8954305 22,2 L22,20 C22,21.1045695 21.1045695,22 20,22 L3.75,22 C2.78350169,22 2,21.2164983 2,20.25 Z" id="Fill-3"></path>
                <path d="M2.5,14 C2.77614237,14 3,13.7761424 3,13.5 L3,9 C3,8.72385763 2.77614237,8.5 2.5,8.5 C2.22385763,8.5 2,8.72385763 2,9 L2,13.5 C2,13.7761424 2.22385763,14 2.5,14 Z" id="Fill-4"></path>
            </g>
        </g>
    </g>
</svg>