<?xml version="1.0" encoding="UTF-8"?>
<svg width="458px" height="28px" viewBox="0 0 458 28" version="1.1" xmlns="http://www.w3.org/2000/svg" xmlns:xlink="http://www.w3.org/1999/xlink">
    <!-- Generator: Sketch 60 (88103) - https://sketch.com -->
    <title>安印电子印章，可以在网上盖的公章</title>
    <desc>Created with Sketch.</desc>
    <g id="Page-2" stroke="none" stroke-width="1" fill="none" fill-rule="evenodd">
        <g id="企业注册1" transform="translate(-146.000000, -379.000000)" fill="#333333" fill-rule="nonzero">
            <path d="M171.992629,393.307045 C172.024571,393.39958 171.952702,393.515246 171.777022,393.654048 C171.633283,393.808273 171.473576,393.885384 171.297895,393.885384 C171.074301,393.885384 170.491369,393.769717 169.549082,393.538381 C168.590824,393.307044 168.023863,393.191377 167.848182,393.191377 C167.704443,393.191377 167.289204,393.168244 166.602452,393.121977 C165.9157,393.029442 165.332769,393.029442 164.853639,393.121977 C164.406452,393.199089 163.607916,394.340332 162.458005,396.545741 C163.416264,396.91588 164.230771,397.22818 164.901552,397.48265 C165.572333,397.73712 166.091382,397.933753 166.458714,398.072555 C166.857989,398.22678 167.201359,398.388713 167.488837,398.55836 C167.776314,398.728006 168.023861,398.920784 168.231483,399.136698 C168.439106,399.39888 168.614784,399.661057 168.758523,399.923239 C168.902262,400.18542 169.030027,400.470731 169.141824,400.77918 C169.381389,401.365233 169.381389,401.874165 169.141824,402.305994 C168.90226,402.768667 168.742552,403 168.662697,403 C168.598814,403 168.119692,402.668423 167.225317,402.005258 C166.77813,401.681386 166.255088,401.318965 165.656177,400.917981 C165.057265,400.516998 164.374516,400.085176 163.60791,399.622503 C162.090667,398.697156 161.292131,398.257623 161.212276,398.303891 C161.132421,398.381003 160.453665,398.889936 159.175987,399.830705 C157.898309,400.786896 156.468928,401.465473 154.887802,401.866456 C154.057311,402.066948 153.358592,402.201892 152.791622,402.271293 C152.224653,402.340694 151.757509,402.34455 151.390176,402.28286 C150.735367,402.159481 150.352069,402.074658 150.240272,402.028391 C150.160417,401.951279 150.950969,401.604279 152.61195,400.987382 C154.272931,400.385907 156.32517,399.190685 158.768729,397.401682 C158.002122,397.124079 157.451132,396.985279 157.115742,396.985279 C156.76438,396.985279 156.413024,397.100945 156.061663,397.332282 C155.710301,397.563618 155.398872,397.679285 155.127365,397.679285 C154.887801,397.679285 154.624284,397.540485 154.336806,397.262881 C154.081271,397.0007 154.28889,396.090789 154.959671,394.533123 C153.905587,394.826149 152.572031,395.327371 150.958962,396.036803 C149.329923,396.761658 148.435562,397.100947 148.275852,397.054679 C148.195997,397.039257 148.064239,396.985279 147.880573,396.892744 C147.696906,396.80021 147.453353,396.684543 147.149904,396.545741 C146.511065,396.206448 146.167695,395.982826 146.119782,395.874869 C146.039927,395.736067 146,395.581845 146,395.412198 C146,395.273396 146.678756,394.995796 148.036289,394.57939 C148.723041,394.348054 149.469673,394.11672 150.276207,393.885384 C151.082741,393.654047 151.957138,393.438136 152.899426,393.237645 C153.362584,393.114265 153.841706,392.994743 154.336806,392.879075 C154.831906,392.763406 155.34297,392.651595 155.870012,392.543638 L158.193777,387.19979 C157.411199,387.585351 156.476911,388.448994 155.390885,389.790747 C154.256946,391.117076 153.610131,391.77252 153.450422,391.757098 C153.338625,391.757098 153.12302,391.679987 152.803601,391.525762 C152.564036,391.340693 152.324475,390.793205 152.08491,389.883281 C151.845346,388.988779 151.925199,388.43358 152.324474,388.217666 C152.707777,387.986329 153.059133,387.701018 153.378553,387.361725 C153.682001,387.007008 153.905591,386.490364 154.04933,385.811777 C154.113214,385.534173 154.161126,385.314407 154.193068,385.152471 C154.22501,384.990535 154.248966,384.859447 154.264937,384.759201 C154.280908,384.658955 154.288894,384.574133 154.288894,384.504732 L154.288894,384.284963 C154.288894,383.991937 154.512484,384.08447 154.959671,384.562566 C155.4388,385.009816 155.678361,385.264283 155.678361,385.325973 C155.678361,385.403085 155.798142,385.51104 156.037706,385.649842 C156.2613,385.804067 157.067822,385.511045 158.457297,384.770768 C158.281616,383.274791 158.185792,382.465125 158.169821,382.341746 C158.169821,382.218366 158.249674,381.987033 158.409384,381.647739 C158.569094,381.33929 158.808655,381.161935 159.128074,381.115668 C159.367639,381.038556 159.591229,381 159.798852,381 C159.958561,381 160.453654,381.293022 161.284145,381.879075 C162.130606,382.465127 162.833319,382.688749 163.392303,382.549947 C163.967258,382.411145 164.262716,382.341746 164.278687,382.341746 C164.374513,382.341746 164.877591,382.735012 165.787937,383.521556 C166.714253,384.354368 167.177404,384.840168 167.177404,384.97897 C167.177404,385.133194 167.017697,385.356816 166.698278,385.649842 C166.394829,385.942869 165.1012,387.053268 162.817351,388.981073 C164.015174,390.137756 164.614076,390.878022 164.614076,391.201893 C164.965437,391.18647 165.352728,391.155626 165.775959,391.109359 C166.199189,391.063091 166.666333,390.993691 167.177404,390.901157 C168.407169,390.66982 169.085926,390.584998 169.213693,390.646688 C169.389374,390.7238 169.860511,391.063088 170.627117,391.664564 C171.393724,392.266039 171.808963,392.674727 171.872847,392.890641 C171.952702,393.091133 171.992629,393.229933 171.992629,393.307045 Z M163.885855,385.012186 C163.819053,385.04062 163.675429,385.157907 163.454981,385.364052 C163.234533,385.570197 162.923906,385.865192 162.52309,386.249048 C161.748181,386.988326 161.240489,387.9053 161,389 C161.614583,388.744096 162.215797,388.296271 162.80366,387.656512 C163.33808,387.045186 163.678768,386.448086 163.825733,385.865194 C163.959338,385.410254 164.01612,385.147246 163.996079,385.076162 C163.976038,385.005077 163.939297,384.983752 163.885855,385.012186 Z M158.474444,384.117647 C158.427777,384.039215 158.369445,384 158.299444,384 C158.229444,384 158.147778,384.019608 158.054444,384.058824 C157.805554,384.137255 157.618889,384.784308 157.494444,386 C157.930002,385.764705 158.225555,385.431375 158.381111,385 C158.505556,384.581697 158.536667,384.287583 158.474444,384.117647 Z M160.96088,391.509804 C160.9022,391.261437 160.366753,390.758174 159.354523,390 C158.694373,391.46406 157.90954,392.46405 157,393 C157.63081,392.856208 158.283615,392.732027 158.958435,392.627451 C159.325185,392.562091 159.673592,392.506536 160.003667,392.460784 C160.333742,392.415032 160.645475,392.366013 160.938875,392.313725 C161.012225,391.986926 161.01956,391.718955 160.96088,391.509804 Z M159.755919,395.935816 C159.964406,395.449189 160.039329,395.168707 159.980693,395.094362 C159.922056,395.020016 159.781981,394.989602 159.560464,395.003119 C159.351977,395.030154 159.123948,395.090982 158.87637,395.185604 C158.628793,395.280225 158.361673,395.395122 158.075004,395.530296 C157.462574,395.814162 157.104243,396.131816 157,396.483269 C158.433346,396.875274 159.176068,397.044239 159.22819,396.990169 C159.293342,396.936099 159.46925,396.584652 159.755919,395.935816 Z M198,387.214286 C198,387.261905 197.972565,387.325396 197.917693,387.404762 C197.862822,387.484127 197.81187,387.539682 197.764838,387.571429 C197.702127,387.650794 197.62766,387.825395 197.541433,388.095238 C197.455207,388.365081 197.37682,388.666665 197.306271,389 C197.235722,389.333335 197.165174,389.646824 197.094625,389.940476 C197.024076,390.234128 196.973124,390.428571 196.941769,390.52381 C196.784994,391.333337 196.56943,392.115076 196.295073,392.869048 C196.020715,393.62302 195.64054,394.33333 195.154535,395 C195.107503,395.079365 195.013439,395.210317 194.87234,395.392857 C194.731242,395.575398 194.586227,395.765872 194.43729,395.964286 C194.288353,396.162699 194.135499,396.341269 193.978723,396.5 C193.821948,396.658731 193.696529,396.746032 193.602464,396.761905 C193.477043,396.777778 193.312431,396.738096 193.108623,396.642857 C192.904814,396.547619 192.69709,396.43254 192.485442,396.297619 C192.273795,396.162698 192.073909,396.02381 191.885778,395.880952 C191.697647,395.738095 191.556551,395.642857 191.462486,395.595238 C191.462486,396.341274 191.419373,397.095234 191.333147,397.857143 C191.24692,398.619051 191.148937,399.365076 191.039194,400.095238 C190.898096,401.269847 190.788354,402.436502 190.709966,403.595238 C190.631579,404.753974 190.459128,405.888883 190.192609,407 C190.114221,406.523807 190.000561,405.964289 189.851624,405.321429 C189.702687,404.678568 189.628219,404.126986 189.628219,403.666667 C189.628219,403.396824 189.620381,403.134922 189.604703,402.880952 C189.589026,402.626983 189.557671,402.373017 189.510638,402.119048 C189.479283,401.738093 189.459686,401.357145 189.451848,400.97619 C189.444009,400.595236 189.44009,400.214288 189.44009,399.833333 C189.424412,399.214283 189.416573,398.599209 189.416573,397.988095 L189.416573,394.654762 C189.416573,394.10714 189.408735,393.547622 189.393057,392.97619 C189.37738,392.404759 189.353864,391.849209 189.322508,391.309524 C189.291153,390.769839 189.236283,390.285716 189.157895,389.857143 L188.8757,390 C188.577826,390.4127 188.268199,390.805554 187.946809,391.178571 C187.625418,391.551589 187.362823,391.841269 187.159015,392.047619 C186.343781,392.920639 185.520721,393.78571 184.68981,394.642857 C183.858898,395.5 183.020161,396.357139 182.173572,397.214286 C182.016797,397.357144 181.832588,397.488095 181.620941,397.607143 C181.409293,397.726191 181.178053,397.761905 180.927212,397.714286 C180.660693,397.666666 180.429452,397.5 180.233483,397.214286 C180.037513,396.92857 179.892498,396.674604 179.798432,396.452381 C179.610301,396.055554 179.496641,395.710319 179.457447,395.416667 C179.418253,395.123014 179.418253,394.845239 179.457447,394.583333 C179.496641,394.321427 179.551511,394.04762 179.62206,393.761905 C179.69261,393.476189 179.727884,393.126986 179.727884,392.714286 C179.727884,392.444443 179.735722,392.130954 179.7514,391.77381 C179.767077,391.416665 179.778835,391.047621 179.786674,390.666667 C179.794513,390.285712 179.794513,389.920637 179.786674,389.571429 C179.778835,389.22222 179.743561,388.944445 179.680851,388.738095 C179.665173,388.61111 179.527997,388.380954 179.269317,388.047619 C179.010637,387.714284 178.732364,387.361113 178.43449,386.988095 C178.136617,386.615077 177.846586,386.265875 177.56439,385.940476 C177.282193,385.615078 177.094065,385.396826 177,385.285714 C177.235164,385.126983 177.411534,385.02381 177.529115,384.97619 C177.646697,384.928571 177.756438,384.90873 177.858343,384.916667 C177.960247,384.924603 178.066069,384.948413 178.175812,384.988095 C178.285555,385.027778 178.450167,385.047619 178.669653,385.047619 C178.732363,385.047619 178.893056,384.964287 179.151736,384.797619 C179.410416,384.630952 179.712204,384.420636 180.057111,384.166667 C180.402017,383.912697 180.778273,383.634922 181.18589,383.333333 C181.593507,383.031745 181.977602,382.746033 182.338186,382.47619 C182.69877,382.206348 183.008397,381.972223 183.267077,381.77381 C183.525757,381.575396 183.68645,381.444445 183.74916,381.380952 C183.717805,381.333333 183.655096,381.250001 183.56103,381.130952 C183.466965,381.011904 183.365062,380.876985 183.255319,380.72619 C183.145576,380.575396 183.055431,380.440477 182.984882,380.321429 C182.914333,380.20238 182.879059,380.095239 182.879059,380 C183.082868,380.095239 183.400334,380.218253 183.831467,380.369048 C184.2626,380.519842 184.701566,380.70238 185.148376,380.916667 C185.595187,381.130953 185.998878,381.357142 186.359462,381.595238 C186.720047,381.833335 186.947368,382.063491 187.041433,382.285714 C187.119821,382.492065 187.182531,382.706348 187.229563,382.928571 C187.276596,383.150795 187.25308,383.357142 187.159015,383.547619 C187.127659,383.611111 186.970886,383.714285 186.68869,383.857143 C186.406494,384 186.057673,384.166666 185.642217,384.357143 C185.226762,384.54762 184.783877,384.738094 184.31355,384.928571 C183.843223,385.119049 183.396419,385.305555 182.973124,385.488095 C182.54983,385.670636 182.181413,385.821428 181.867861,385.940476 C181.55431,386.059524 181.358343,386.142857 181.279955,386.190476 L182.173572,388.047619 C182.31467,387.984127 182.573346,387.86508 182.949608,387.690476 C183.32587,387.515872 183.725642,387.341271 184.148936,387.166667 C184.572231,386.992063 184.975922,386.845239 185.360022,386.72619 C185.744123,386.607142 185.99888,386.571428 186.1243,386.619048 C186.343786,386.698413 186.535833,386.813491 186.700448,386.964286 C186.865062,387.11508 187.025755,387.277777 187.182531,387.452381 C187.276596,387.563493 187.37066,387.70238 187.464726,387.869048 C187.558791,388.035715 187.605823,388.206348 187.605823,388.380952 C187.605823,388.444445 187.5,388.567459 187.288354,388.75 C187.076707,388.932541 186.806273,389.142856 186.477044,389.380952 C186.147815,389.619049 185.787236,389.873015 185.395297,390.142857 C185.003358,390.4127 184.631021,390.662697 184.278275,390.892857 C183.92553,391.123017 183.619822,391.325396 183.361142,391.5 C183.102462,391.674604 182.94177,391.777778 182.879059,391.809524 L183.302352,390.880952 C183.067188,390.992064 182.867302,391.170634 182.702688,391.416667 C182.538073,391.6627 182.404816,391.940475 182.302912,392.25 C182.201007,392.559525 182.122621,392.869046 182.067749,393.178571 C182.012878,393.488097 181.969765,393.753967 181.93841,393.97619 C182.502802,393.658729 183.051509,393.309526 183.584546,392.928571 C184.117584,392.547617 184.658452,392.150796 185.207167,391.738095 C185.771559,391.325395 186.320266,390.908732 186.853303,390.488095 C187.386341,390.067458 187.91937,389.642859 188.452408,389.214286 C188.546473,388.849205 188.652295,388.480161 188.769877,388.107143 C188.887459,387.734125 188.993281,387.404763 189.087346,387.119048 C189.118701,387.023809 189.181411,386.849208 189.275476,386.595238 C189.369541,386.341269 189.455767,386.07143 189.534155,385.785714 C189.612542,385.5 189.68701,385.234128 189.757559,384.988095 C189.828108,384.742062 189.863382,384.571429 189.863382,384.47619 C189.863382,384.301586 189.812431,384.119049 189.710526,383.928571 C189.608622,383.738094 189.510639,383.587302 189.416573,383.47619 C188.805148,383.761906 188.334828,384.206346 188.005599,384.809524 C187.989922,384.746031 187.954648,384.619049 187.899776,384.428571 C187.844905,384.238094 187.825308,384.103175 187.840985,384.02381 C187.840985,383.944444 187.868421,383.821429 187.923292,383.654762 L188.029115,383.333333 C188.091826,383.158729 188.166293,383.003969 188.25252,382.869048 C188.338746,382.734126 188.460246,382.619048 188.617021,382.52381 C188.773797,382.428571 188.958006,382.361111 189.169653,382.321429 C189.3813,382.281746 189.604702,382.277778 189.839866,382.309524 C190.075029,382.34127 190.294512,382.396825 190.49832,382.47619 C190.702129,382.555556 190.866741,382.650793 190.992161,382.761905 C191.211647,382.968255 191.399775,383.293649 191.556551,383.738095 C191.713327,384.182542 191.823068,384.539681 191.885778,384.809524 C192.371783,384.523808 192.900893,384.424603 193.473124,384.511905 C194.045356,384.599207 194.566627,384.738094 195.036954,384.928571 C195.13102,384.976191 195.295632,385.04365 195.530795,385.130952 C195.765959,385.218254 196.008957,385.313492 196.259798,385.416667 C196.51064,385.519842 196.737961,385.630952 196.941769,385.75 C197.145578,385.869048 197.278835,385.97619 197.341545,386.071429 L197.764838,386.738095 C197.81187,386.785715 197.862822,386.861111 197.917693,386.964286 C197.972565,387.067461 198,387.150793 198,387.214286 Z M194.782875,386.667055 C194.72579,386.575573 194.672273,386.476468 194.622324,386.369739 C194.572375,386.26301 194.515291,386.171529 194.45107,386.095294 C194.38685,386.019058 194.326198,385.988565 194.269113,386.003812 C194.212028,386.019059 194.147809,386.08767 194.076453,386.209646 C193.948012,386.438352 193.798166,386.651807 193.626911,386.850019 C193.455657,387.04823 193.284404,387.238815 193.11315,387.42178 C192.88481,387.68098 192.699287,388.008786 192.556575,388.405209 C192.413863,388.801632 192.296127,389.213296 192.203364,389.640214 C192.110601,390.067131 192.053517,390.501665 192.03211,390.94383 C192.010703,391.385994 192,391.782411 192,392.133093 C192,392.727728 192.20693,393.215626 192.620795,393.596802 C192.763507,393.718778 192.920488,393.829318 193.091743,393.928424 C193.262998,394.027529 193.448521,394.023718 193.648318,393.916988 C193.748217,393.856 193.855249,393.67685 193.969419,393.379533 C194.083589,393.082215 194.190621,392.746785 194.29052,392.373233 C194.390418,391.99968 194.476044,391.645192 194.547401,391.309757 C194.618757,390.974322 194.66157,390.74562 194.675841,390.623643 C194.732926,390.394938 194.79001,390.097625 194.847095,389.731696 C194.90418,389.365766 194.946993,388.992219 194.975535,388.611043 C195.004078,388.229867 195.007645,387.860132 194.986238,387.501826 C194.964832,387.143521 194.897044,386.865266 194.782875,386.667055 Z M227,389.772632 C227,390.611742 225.262253,392.915448 221.786706,396.683817 C222.22115,396.958435 222.494684,397.164396 222.607317,397.301705 C222.70386,397.469527 222.70386,397.660231 222.607317,397.873823 C222.542955,398.102671 222.116564,398.14844 221.32813,398.011131 C220.7006,397.904335 219.469696,398.072155 217.63538,398.514595 C217.587108,398.66716 217.566996,398.857865 217.575041,399.086713 C217.583086,399.315561 217.611244,399.532964 217.659516,399.738927 C217.707787,399.944891 217.76008,400.124153 217.816397,400.276718 C217.872714,400.429284 217.916962,400.513194 217.949143,400.52845 C218.158319,400.635246 218.632982,400.688643 219.373144,400.688643 C219.743226,400.688643 220.113302,400.692457 220.483383,400.700086 C220.853464,400.707714 221.360307,400.658131 222.003927,400.551335 C222.663637,400.459796 223.258976,400.364444 223.789963,400.265276 C224.320949,400.166108 224.642754,400.147038 224.755387,400.208064 C224.980654,400.31486 225.262234,400.726781 225.600134,401.443839 C225.954125,402.176154 225.455327,402.6491 224.103726,402.862692 C223.444016,402.954231 222.752135,403 222.028063,403 C221.30399,403 220.531658,402.938975 219.711043,402.816922 C218.069813,402.588074 216.959586,402.199038 216.380328,401.649802 C216.12288,401.405697 215.893594,401.0815 215.692463,400.677201 C215.491331,400.272902 215.286181,399.780886 215.077004,399.201136 C213.355322,399.658833 212.405997,399.826653 212.229001,399.7046 C212.003734,399.567291 211.722155,399.216396 211.384255,398.651903 C211.062445,398.072154 210.611918,396.577034 210.03266,394.166498 C209.437312,391.755962 209.107462,390.329496 209.0431,389.887055 C208.962647,389.429359 208.994828,389.231027 209.139642,389.292053 C209.220095,389.337822 209.473516,389.51327 209.899914,389.818401 C210.326312,390.123532 210.933719,390.558338 211.722153,391.12283 C212.542768,390.039615 213.862169,389.101351 215.680395,388.30801 C215.905662,386.278888 215.929797,385.111779 215.752802,384.806648 C215.607987,384.44049 215.463175,384.471003 215.318361,384.898187 C215.173546,385.32537 215.020689,385.561843 214.859784,385.607613 C214.537974,384.142983 214.360981,383.296257 214.3288,383.067409 C214.3288,382.838561 214.449477,382.617344 214.690834,382.403752 C214.948282,382.144391 215.253997,382.014712 215.607988,382.014712 C215.978069,381.968942 216.3401,382.029967 216.694091,382.19779 C217.031991,382.365612 217.434247,382.815673 217.900872,383.547988 C218.287044,384.15825 218.464036,385.394013 218.431855,387.255313 C218.818027,387.148517 219.13581,387.091306 219.385212,387.083677 C219.634615,387.076049 219.839766,387.064607 220.000671,387.04935 C220.483385,387.003581 221.344214,387.224797 222.583182,387.713007 C223.82215,388.201217 225.294408,388.887752 227,389.772632 Z M221.992951,389.542451 C222.005874,389.399479 221.760355,389.256509 221.256388,389.113537 C220.778265,388.970564 220.158007,388.962622 219.395595,389.089708 C218.839938,389.185023 218.487813,389.40345 218.339207,389.744994 C218.190601,390.086539 218.077533,390.582963 218,391.234281 C218.400589,391.091309 218.743024,391.043653 219.027313,391.09131 C219.350369,391.154853 219.634654,391.48845 219.880176,392.092111 C220.151543,392.743429 219.983557,393.315309 219.376211,393.807769 C218.768866,394.347887 218.859321,395.078623 219.647577,396 C220.319533,394.52262 220.836415,393.347088 221.198238,392.473368 C221.56006,391.599649 221.779735,391.00394 221.857269,390.686224 C221.973569,390.066677 222.018796,389.685424 221.992951,389.542451 Z M217.813187,395 C217.549449,395.28788 217.27839,395.95454 217,397 L219,396.522727 L217.813187,395 Z M215,390 C214.880668,390 214.313848,390.343946 213.299523,391.031847 C212.315031,391.719749 211.889916,392.375793 212.024165,393 C213.888733,391.980887 214.880668,390.980897 215,390 Z M213.952125,396.239481 C214.034196,395.862462 214.010748,395.402506 213.881778,394.859599 C212.932091,394.648468 212.304838,394.361938 212,394 C212.035174,394.874684 212.076209,395.62117 212.123107,396.239481 C212.193454,396.857792 212.498287,397.09908 213.037616,396.963353 C213.576944,396.842707 213.881778,396.601419 213.952125,396.239481 Z M253.96956,393.087413 C253.920855,393.41223 253.734158,393.598997 253.409461,393.647719 C253.101,393.761405 252.630198,393.737044 251.99704,393.574636 C251.363883,393.412228 251.01484,393.322904 250.9499,393.306664 C250.852492,393.306664 250.771319,393.395987 250.70638,393.574636 C250.625205,393.720803 250.584619,393.988773 250.584619,394.378553 C250.584619,394.573443 250.535915,395.05254 250.438507,395.815859 C250.341098,396.579177 250.186869,397.618575 249.975817,398.934082 C249.586181,401.613818 249.042324,403.294718 248.344227,403.976833 C247.64613,404.658948 247.094155,405 246.688285,405 C246.331119,405 245.243403,404.390978 243.425105,403.172916 C241.639276,401.906132 240.324276,400.728689 239.480066,399.640554 C239.15537,399.234533 238.903734,398.905662 238.725151,398.653929 C238.546568,398.402196 238.416692,398.195129 238.335518,398.03272 C238.254344,397.870312 238.201582,397.740387 238.177229,397.642942 C238.152877,397.545498 238.140701,397.431813 238.140701,397.301887 C238.124466,397.074515 238.116349,396.871508 238.116349,396.692859 C238.116349,396.51421 238.100115,396.376165 238.067645,396.27872 C237.986471,396.051348 237.978354,395.80774 238.043293,395.547886 C238.140702,395.288033 238.603387,394.882019 239.431362,394.32983 C239.885937,394.069977 240.506909,393.777647 241.294297,393.45283 C242.081685,393.128014 243.0517,392.778841 244.204372,392.405302 C246.509714,391.625743 247.629899,391.00048 247.56496,390.529496 C246.168766,390.838072 245.300217,390.992357 244.959286,390.992357 C244.66706,390.992357 244.439776,390.903034 244.277428,390.724385 C244.131315,390.561977 244.009555,390.285887 243.912146,389.896107 C243.830972,389.571291 243.790386,389.295201 243.790386,389.067829 C243.790386,388.937902 244.261188,388.255798 245.202807,387.021495 L245.446328,387.240745 C245.624911,387.1433 245.965837,387.216383 246.469116,387.459995 C246.95616,386.404342 248.09258,384.68284 249.878408,382.295438 C249.34266,382.539051 248.859682,382.766419 248.429459,382.97755 C247.999237,383.18868 247.6299,383.391688 247.321439,383.586578 C246.704516,383.960117 244.439795,385.868385 240.527206,389.31144 C240.20251,389.002865 239.999578,388.694293 239.918404,388.385718 C239.83723,388.125865 239.796643,387.695489 239.796643,387.094579 C239.796643,386.558631 239.885933,386.128256 240.064516,385.803439 C240.226864,385.478623 240.502852,385.251255 240.892487,385.121328 C241.282123,384.95892 241.777277,384.487943 242.377965,383.708383 L241.696106,381.832577 C243.254648,382.790786 244.926808,382.880109 246.712637,382.100549 C248.5147,381.32099 249.569947,380.955577 249.878408,381.004299 C250.18687,381.101744 250.649555,381.507759 251.266478,382.222355 C251.899635,382.90447 252.18374,383.47289 252.118801,383.927633 C252.021392,384.414858 251.712935,384.893955 251.193421,385.364939 C250.949899,385.57607 250.495331,385.884641 249.829704,386.290662 C249.164077,386.696682 248.279293,387.216381 247.175327,387.849773 C247.272735,387.898496 247.382319,387.959398 247.50408,388.032482 C247.625841,388.105565 247.767893,388.182708 247.930241,388.263912 C249.245261,389.124676 249.927112,389.725578 249.975817,390.066635 C250.08946,390.35897 250.251806,390.505135 250.462859,390.505135 C250.576502,390.505135 250.771317,390.545736 251.047309,390.626941 C251.323301,390.708145 251.672344,390.829949 252.094449,390.992357 C252.954893,391.317174 253.498751,391.658226 253.726039,392.015524 C253.969561,392.421545 254.050734,392.778838 253.96956,393.087413 Z M248.9913,394.85175 C248.907519,394.560759 248.773473,394.326353 248.589157,394.148526 C248.471864,394.035363 248.304306,393.986865 248.086478,394.003031 C247.868649,394.019197 247.558667,394.075778 247.156522,394.172775 C246.352231,394.302104 244.995012,394.956823 243.084822,396.136952 C241.141121,397.300915 240.119017,398.076879 240.018481,398.464866 C239.934701,398.852854 240.13577,399.36208 240.621696,399.99256 C241.124377,400.606874 242.263771,401.269676 244.039912,401.980986 C245.816053,402.676131 246.771134,403.015615 246.905182,402.999449 C247.072743,402.999449 247.28219,402.967117 247.533531,402.902452 C247.751359,402.837788 248.06972,401.560681 248.488621,399.071094 C248.87401,396.613839 249.041568,395.207405 248.9913,394.85175 Z M285,387.214286 C285,387.261905 284.972565,387.325396 284.917693,387.404762 C284.862822,387.484127 284.81187,387.539682 284.764838,387.571429 C284.702127,387.650794 284.62766,387.825395 284.541433,388.095238 C284.455207,388.365081 284.37682,388.666665 284.306271,389 C284.235722,389.333335 284.165174,389.646824 284.094625,389.940476 C284.024076,390.234128 283.973124,390.428571 283.941769,390.52381 C283.784994,391.333337 283.56943,392.115076 283.295073,392.869048 C283.020715,393.62302 282.64054,394.33333 282.154535,395 C282.107503,395.079365 282.013439,395.210317 281.87234,395.392857 C281.731242,395.575398 281.586227,395.765872 281.43729,395.964286 C281.288353,396.162699 281.135499,396.341269 280.978723,396.5 C280.821948,396.658731 280.696529,396.746032 280.602464,396.761905 C280.477043,396.777778 280.312431,396.738096 280.108623,396.642857 C279.904814,396.547619 279.69709,396.43254 279.485442,396.297619 C279.273795,396.162698 279.073909,396.02381 278.885778,395.880952 C278.697647,395.738095 278.556551,395.642857 278.462486,395.595238 C278.462486,396.341274 278.419373,397.095234 278.333147,397.857143 C278.24692,398.619051 278.148937,399.365076 278.039194,400.095238 C277.898096,401.269847 277.788354,402.436502 277.709966,403.595238 C277.631579,404.753974 277.459128,405.888883 277.192609,407 C277.114221,406.523807 277.000561,405.964289 276.851624,405.321429 C276.702687,404.678568 276.628219,404.126986 276.628219,403.666667 C276.628219,403.396824 276.620381,403.134922 276.604703,402.880952 C276.589026,402.626983 276.557671,402.373017 276.510638,402.119048 C276.479283,401.738093 276.459686,401.357145 276.451848,400.97619 C276.444009,400.595236 276.44009,400.214288 276.44009,399.833333 C276.424412,399.214283 276.416573,398.599209 276.416573,397.988095 L276.416573,394.654762 C276.416573,394.10714 276.408735,393.547622 276.393057,392.97619 C276.37738,392.404759 276.353864,391.849209 276.322508,391.309524 C276.291153,390.769839 276.236283,390.285716 276.157895,389.857143 L275.8757,390 C275.577826,390.4127 275.268199,390.805554 274.946809,391.178571 C274.625418,391.551589 274.362823,391.841269 274.159015,392.047619 C273.343781,392.920639 272.520721,393.78571 271.68981,394.642857 C270.858898,395.5 270.020161,396.357139 269.173572,397.214286 C269.016797,397.357144 268.832588,397.488095 268.620941,397.607143 C268.409293,397.726191 268.178053,397.761905 267.927212,397.714286 C267.660693,397.666666 267.429452,397.5 267.233483,397.214286 C267.037513,396.92857 266.892498,396.674604 266.798432,396.452381 C266.610301,396.055554 266.496641,395.710319 266.457447,395.416667 C266.418253,395.123014 266.418253,394.845239 266.457447,394.583333 C266.496641,394.321427 266.551511,394.04762 266.62206,393.761905 C266.69261,393.476189 266.727884,393.126986 266.727884,392.714286 C266.727884,392.444443 266.735722,392.130954 266.7514,391.77381 C266.767077,391.416665 266.778835,391.047621 266.786674,390.666667 C266.794513,390.285712 266.794513,389.920637 266.786674,389.571429 C266.778835,389.22222 266.743561,388.944445 266.680851,388.738095 C266.665173,388.61111 266.527997,388.380954 266.269317,388.047619 C266.010637,387.714284 265.732364,387.361113 265.43449,386.988095 C265.136617,386.615077 264.846586,386.265875 264.56439,385.940476 C264.282193,385.615078 264.094065,385.396826 264,385.285714 C264.235164,385.126983 264.411534,385.02381 264.529115,384.97619 C264.646697,384.928571 264.756438,384.90873 264.858343,384.916667 C264.960247,384.924603 265.066069,384.948413 265.175812,384.988095 C265.285555,385.027778 265.450167,385.047619 265.669653,385.047619 C265.732363,385.047619 265.893056,384.964287 266.151736,384.797619 C266.410416,384.630952 266.712204,384.420636 267.057111,384.166667 C267.402017,383.912697 267.778273,383.634922 268.18589,383.333333 C268.593507,383.031745 268.977602,382.746033 269.338186,382.47619 C269.69877,382.206348 270.008397,381.972223 270.267077,381.77381 C270.525757,381.575396 270.68645,381.444445 270.74916,381.380952 C270.717805,381.333333 270.655096,381.250001 270.56103,381.130952 C270.466965,381.011904 270.365062,380.876985 270.255319,380.72619 C270.145576,380.575396 270.055431,380.440477 269.984882,380.321429 C269.914333,380.20238 269.879059,380.095239 269.879059,380 C270.082868,380.095239 270.400334,380.218253 270.831467,380.369048 C271.2626,380.519842 271.701566,380.70238 272.148376,380.916667 C272.595187,381.130953 272.998878,381.357142 273.359462,381.595238 C273.720047,381.833335 273.947368,382.063491 274.041433,382.285714 C274.119821,382.492065 274.182531,382.706348 274.229563,382.928571 C274.276596,383.150795 274.25308,383.357142 274.159015,383.547619 C274.127659,383.611111 273.970886,383.714285 273.68869,383.857143 C273.406494,384 273.057673,384.166666 272.642217,384.357143 C272.226762,384.54762 271.783877,384.738094 271.31355,384.928571 C270.843223,385.119049 270.396419,385.305555 269.973124,385.488095 C269.54983,385.670636 269.181413,385.821428 268.867861,385.940476 C268.55431,386.059524 268.358343,386.142857 268.279955,386.190476 L269.173572,388.047619 C269.31467,387.984127 269.573346,387.86508 269.949608,387.690476 C270.32587,387.515872 270.725642,387.341271 271.148936,387.166667 C271.572231,386.992063 271.975922,386.845239 272.360022,386.72619 C272.744123,386.607142 272.99888,386.571428 273.1243,386.619048 C273.343786,386.698413 273.535833,386.813491 273.700448,386.964286 C273.865062,387.11508 274.025755,387.277777 274.182531,387.452381 C274.276596,387.563493 274.37066,387.70238 274.464726,387.869048 C274.558791,388.035715 274.605823,388.206348 274.605823,388.380952 C274.605823,388.444445 274.5,388.567459 274.288354,388.75 C274.076707,388.932541 273.806273,389.142856 273.477044,389.380952 C273.147815,389.619049 272.787236,389.873015 272.395297,390.142857 C272.003358,390.4127 271.631021,390.662697 271.278275,390.892857 C270.92553,391.123017 270.619822,391.325396 270.361142,391.5 C270.102462,391.674604 269.94177,391.777778 269.879059,391.809524 L270.302352,390.880952 C270.067188,390.992064 269.867302,391.170634 269.702688,391.416667 C269.538073,391.6627 269.404816,391.940475 269.302912,392.25 C269.201007,392.559525 269.122621,392.869046 269.067749,393.178571 C269.012878,393.488097 268.969765,393.753967 268.93841,393.97619 C269.502802,393.658729 270.051509,393.309526 270.584546,392.928571 C271.117584,392.547617 271.658452,392.150796 272.207167,391.738095 C272.771559,391.325395 273.320266,390.908732 273.853303,390.488095 C274.386341,390.067458 274.91937,389.642859 275.452408,389.214286 C275.546473,388.849205 275.652295,388.480161 275.769877,388.107143 C275.887459,387.734125 275.993281,387.404763 276.087346,387.119048 C276.118701,387.023809 276.181411,386.849208 276.275476,386.595238 C276.369541,386.341269 276.455767,386.07143 276.534155,385.785714 C276.612542,385.5 276.68701,385.234128 276.757559,384.988095 C276.828108,384.742062 276.863382,384.571429 276.863382,384.47619 C276.863382,384.301586 276.812431,384.119049 276.710526,383.928571 C276.608622,383.738094 276.510639,383.587302 276.416573,383.47619 C275.805148,383.761906 275.334828,384.206346 275.005599,384.809524 C274.989922,384.746031 274.954648,384.619049 274.899776,384.428571 C274.844905,384.238094 274.825308,384.103175 274.840985,384.02381 C274.840985,383.944444 274.868421,383.821429 274.923292,383.654762 L275.029115,383.333333 C275.091826,383.158729 275.166293,383.003969 275.25252,382.869048 C275.338746,382.734126 275.460246,382.619048 275.617021,382.52381 C275.773797,382.428571 275.958006,382.361111 276.169653,382.321429 C276.3813,382.281746 276.604702,382.277778 276.839866,382.309524 C277.075029,382.34127 277.294512,382.396825 277.49832,382.47619 C277.702129,382.555556 277.866741,382.650793 277.992161,382.761905 C278.211647,382.968255 278.399775,383.293649 278.556551,383.738095 C278.713327,384.182542 278.823068,384.539681 278.885778,384.809524 C279.371783,384.523808 279.900893,384.424603 280.473124,384.511905 C281.045356,384.599207 281.566627,384.738094 282.036954,384.928571 C282.13102,384.976191 282.295632,385.04365 282.530795,385.130952 C282.765959,385.218254 283.008957,385.313492 283.259798,385.416667 C283.51064,385.519842 283.737961,385.630952 283.941769,385.75 C284.145578,385.869048 284.278835,385.97619 284.341545,386.071429 L284.764838,386.738095 C284.81187,386.785715 284.862822,386.861111 284.917693,386.964286 C284.972565,387.067461 285,387.150793 285,387.214286 Z M280.782875,386.667055 C280.72579,386.575573 280.672273,386.476468 280.622324,386.369739 C280.572375,386.26301 280.515291,386.171529 280.45107,386.095294 C280.38685,386.019058 280.326198,385.988565 280.269113,386.003812 C280.212028,386.019059 280.147809,386.08767 280.076453,386.209646 C279.948012,386.438352 279.798166,386.651807 279.626911,386.850019 C279.455657,387.04823 279.284404,387.238815 279.11315,387.42178 C278.88481,387.68098 278.699287,388.008786 278.556575,388.405209 C278.413863,388.801632 278.296127,389.213296 278.203364,389.640214 C278.110601,390.067131 278.053517,390.501665 278.03211,390.94383 C278.010703,391.385994 278,391.782411 278,392.133093 C278,392.727728 278.20693,393.215626 278.620795,393.596802 C278.763507,393.718778 278.920488,393.829318 279.091743,393.928424 C279.262998,394.027529 279.448521,394.023718 279.648318,393.916988 C279.748217,393.856 279.855249,393.67685 279.969419,393.379533 C280.083589,393.082215 280.190621,392.746785 280.29052,392.373233 C280.390418,391.99968 280.476044,391.645192 280.547401,391.309757 C280.618757,390.974322 280.66157,390.74562 280.675841,390.623643 C280.732926,390.394938 280.79001,390.097625 280.847095,389.731696 C280.90418,389.365766 280.946993,388.992219 280.975535,388.611043 C281.004078,388.229867 281.007645,387.860132 280.986238,387.501826 C280.964832,387.143521 280.897044,386.865266 280.782875,386.667055 Z M306.143359,387.043456 C306.341777,386.998052 306.547484,386.952649 306.760486,386.907246 C306.982687,386.859881 307.21282,386.812518 307.450891,386.765154 C310.466469,386.275724 311.98217,386.031012 311.998042,386.031012 C312.140885,386.031012 312.33134,386.102057 312.569411,386.24415 C312.886841,386.386243 313.204265,386.694105 313.521694,387.167747 C313.839123,387.625601 313.997836,387.878207 313.997836,387.925571 C314.013707,387.972935 313.942287,388.04398 313.783572,388.138709 C313.640729,388.233437 313.140785,388.217649 312.283727,388.091345 C311.458411,387.949252 310.387103,387.917677 309.069772,387.996617 C308.419042,388.043981 307.427091,388.245276 306.093888,388.600508 C304.760686,388.955739 303.062465,389.457003 300.999175,390.104314 C296.951953,391.398935 294.817274,392.030448 294.595074,391.998872 C294.420488,391.998872 294.158612,391.927827 293.80944,391.785734 C293.523754,391.691006 293.345203,391.604173 293.273781,391.525233 C293.20236,391.446292 293.142843,391.343671 293.095228,391.217367 C293.031742,391.012122 293,390.838456 293,390.696363 C293.999902,390.427966 295.035499,390.135891 296.106823,389.82013 C297.178146,389.504368 298.301035,389.141248 299.475523,388.730758 C300.173867,388.493937 300.896008,388.276855 301.641966,388.079504 C302.387925,387.882153 303.17355,387.680858 303.998866,387.475613 C304.760696,386.844091 305.633614,385.849457 306.617644,384.491683 L306.141503,384.065408 C302.681524,386.875684 300.919819,388.280801 300.856333,388.280801 C300.792847,388.280801 300.602393,388.170286 300.284963,387.949253 C299.967534,387.72822 299.800886,387.412463 299.785015,387.001974 C299.785015,386.638848 300.459542,385.754729 301.808616,384.349591 C299.792941,383.023394 298.785118,382.289259 298.785118,382.147167 C299.102547,382.226107 299.352519,382.281365 299.535041,382.312941 C299.717562,382.344517 299.864371,382.368199 299.975471,382.383987 C300.118315,382.383987 301.403884,382.123487 303.832217,381.602481 C302.737086,380.102615 302.189529,379.321117 302.189529,379.257965 C302.189529,379.163236 302.213336,379.084297 302.26095,379.021145 C302.356179,378.942205 303.014835,379.084295 304.236937,379.447421 C305.459039,379.794758 306.228794,380.307863 306.546223,380.98675 C307.308053,380.813081 307.887352,380.915702 308.284139,381.294615 C308.665054,381.689317 308.855509,381.910347 308.855509,381.957711 C308.855509,382.020863 307.950849,382.541862 306.141503,383.520722 C306.744618,383.283901 307.165205,383.197068 307.403277,383.26022 C307.625478,383.307584 307.895289,383.575977 308.212718,384.065408 C308.530147,384.491685 308.688859,384.78376 308.688859,384.941641 C308.688859,385.067946 308.411113,385.446853 307.855612,386.078376 C307.538189,386.425707 306.958905,386.749352 306.117744,387.04932 L306.143359,387.043456 Z M311.940274,397.988173 C312.086271,398.287781 311.964608,398.524309 311.575283,398.697766 C311.20218,398.839685 310.658755,398.839685 309.944993,398.697766 C309.198786,398.540078 307.957832,398.611037 306.222091,398.910644 C306.3032,399.383708 306.311311,400.053872 306.246423,400.921156 C306.230202,401.126151 306.209925,401.449406 306.185592,401.890933 C306.161259,402.33246 306.12476,402.833112 306.076095,403.392904 C306.027429,403.952697 305.958487,404.544018 305.869267,405.166886 C305.780046,405.789753 305.678661,406.400785 305.565108,407 C305.32178,406.684624 305.12712,406.357426 304.981123,406.018397 C304.835127,405.679368 304.729686,405.226021 304.664798,404.658344 C304.632355,404.137974 304.599911,403.400793 304.567468,402.446781 C304.535024,401.492768 304.49447,400.314067 304.445804,398.910644 C300.26056,400.424449 298.094972,401.18134 297.948975,401.18134 C297.802978,401.18134 297.608319,400.992118 297.36499,400.613666 C297.121662,400.235215 297,399.896191 297,399.596583 L304.421471,397.420499 C304.372806,397.27858 304.344418,397.160316 304.336307,397.065703 C304.328196,396.97109 304.31603,396.876479 304.299808,396.781866 L303.496829,396.994744 C302.55596,397.231276 301.834098,397.408672 301.331219,397.526938 C300.828341,397.645204 300.544463,397.704336 300.479575,397.704336 L302.0612,396.805519 C301.28255,396.647831 300.860788,396.49803 300.7959,396.35611 C300.714791,396.198422 300.390358,395.409994 299.822592,393.990802 C299.238605,392.55584 299.027724,391.720106 299.189942,391.483574 C299.335939,391.231273 299.449491,391.120893 299.5306,391.152431 C299.595488,391.152431 300.106469,391.452034 301.06356,392.051248 C301.112225,393.73851 301.201444,394.67674 301.331219,394.865966 C301.493438,395.102498 301.6151,395.204994 301.69621,395.173456 C301.777319,395.173456 301.939536,395.149803 302.182864,395.102497 C302.40997,395.007884 302.742513,394.605785 303.180504,393.896189 C302.336967,393.927727 301.850318,393.809463 301.720542,393.541393 C301.671877,393.415242 301.631323,393.312747 301.598879,393.233903 C301.566435,393.155059 301.542103,393.099869 301.525881,393.068331 C301.525881,392.95795 302.150414,392.634694 303.399498,392.098555 C304.599917,391.562415 305.248783,391.29435 305.346114,391.29435 C305.427223,391.29435 305.629994,391.396845 305.954431,391.60184 C306.278869,391.838372 306.441085,392.035479 306.441085,392.193167 C306.441085,392.350855 305.59756,393.155052 303.910485,394.605782 L306.246423,394.250986 C306.522195,393.825228 307.041288,392.516437 307.803716,390.324573 C307.333281,389.883046 306.32754,389.969774 304.786462,390.584757 C303.245384,391.19974 302.385637,391.53088 302.207196,391.578187 C302.077421,391.578187 301.533997,391.428385 300.576906,391.128778 C304.794594,389.709586 306.968293,389 307.098068,389 C307.244065,389 307.844265,389.323256 308.898687,389.969777 C309.904443,390.632066 310.407314,391.042049 310.407314,391.199737 C310.407314,391.388963 310.358649,391.570301 310.261318,391.743758 C310.19643,392.011828 309.758446,392.752951 308.947352,393.967148 C308.136259,395.181346 307.479282,395.867279 306.976404,396.024967 C306.895295,396.072274 306.806076,396.095926 306.708745,396.095926 C306.432973,396.647835 306.295089,397.08147 306.295089,397.396846 C308.631039,397.049933 310.115319,396.986858 310.747972,397.207622 C311.364403,397.412616 311.761833,397.672797 311.940274,397.988173 Z M326,401.25 C326,401.53788 325.957365,401.803029 325.872093,402.045455 C325.786821,402.28788 325.674419,402.51515 325.534884,402.727273 C325.038757,403.348488 324.5,403.928028 323.918605,404.465909 C323.337206,405.003791 322.744189,405.515149 322.139535,406 L322,405.863636 C322.372095,405.42424 322.705425,404.962124 323,404.477273 C323.294575,403.992422 323.496123,403.4697 323.604651,402.909091 C323.604651,402.727272 323.542636,402.59091 323.418605,402.5 C323.294573,402.40909 323.186047,402.310607 323.093023,402.204545 C322.813952,402.143939 322.624032,402.003789 322.523256,401.784091 C322.42248,401.564393 322.310078,401.348486 322.186047,401.136364 C322.186047,400.833332 322.217054,400.5 322.27907,400.136364 C322.341086,399.772725 322.542634,399.507577 322.883721,399.340909 C323.03876,399.325758 323.174418,399.276516 323.290698,399.193182 C323.406977,399.109848 323.550387,399.05303 323.72093,399.022727 C323.767442,399.007576 323.860464,399 324,399 C324.279071,399 324.527131,399.079545 324.744186,399.238636 C324.961241,399.397728 325.193797,399.545454 325.44186,399.681818 C325.581396,399.772728 325.686046,399.905302 325.755814,400.079545 C325.825582,400.253789 325.883721,400.431817 325.930233,400.613636 C325.976744,400.84091 326,401.053029 326,401.25 Z M371.988178,384.79659 C371.911829,384.964294 371.72096,385.086259 371.415565,385.162488 C371.155979,385.238717 370.209268,385.215848 368.575404,385.093882 C366.94154,384.95667 365.842134,385.048143 365.277153,385.368305 C365.796325,386.511741 366.055907,387.19017 366.055907,387.403611 C366.055907,387.525578 366.044454,387.739016 366.02155,388.043932 C365.998645,388.348848 365.956654,388.768102 365.895575,389.301705 C365.865035,389.820063 365.857401,390.536605 365.87267,391.451354 C365.88794,392.366103 365.933749,393.479031 366.010098,394.790171 C366.101716,396.116556 366.120803,397.279032 366.067359,398.277633 C366.013915,399.276234 365.910845,400.133798 365.758148,400.850351 C365.468022,402.23772 365.254249,402.954263 365.116821,403 C364.979393,403 364.215917,402.519764 362.826369,401.559278 C361.46736,400.598792 360.696249,399.9661 360.513012,399.661184 C361.169612,399.78315 361.738402,399.847944 362.219399,399.855567 C362.700396,399.86319 363.093587,399.798396 363.398982,399.661184 C363.963963,399.447742 364.299893,398.327192 364.406781,396.299499 C364.513669,394.302297 364.544208,392.579546 364.498399,391.131194 C364.45259,390.399395 364.406781,389.75908 364.360972,389.210231 C364.315163,388.661382 364.261719,388.204014 364.20064,387.838115 C364.093752,387.121561 363.841805,386.57272 363.444791,386.191575 C363.047777,385.856167 362.589691,385.635106 362.07052,385.528385 C361.536078,385.421665 361.169609,385.375928 360.971103,385.391174 C360.757326,385.391174 359.428877,385.886655 356.985715,386.877633 C356.06953,387.243533 355.359497,387.53701 354.855595,387.758075 C354.351693,387.979139 353.973772,388.139217 353.721821,388.238315 C353.46987,388.337413 353.301905,388.406018 353.217921,388.444133 C353.133938,388.482247 353.061407,388.508927 353.000328,388.524173 C352.756012,388.630893 352.618587,388.684253 352.588047,388.684253 C352.496428,388.684253 352.206307,388.287868 351.717675,387.495086 C351.244313,386.687057 351.007635,386.153462 351.007635,385.894283 C350.977095,385.604613 351.038174,385.490271 351.190871,385.551254 C351.328299,385.612237 353.366781,385.246343 357.306379,384.453561 C359.276178,384.05717 361.001634,383.706521 362.482801,383.401605 C363.963968,383.096689 365.216069,382.822268 366.239143,382.578335 C368.224211,382.105715 369.506852,381.922768 370.087103,382.029489 C370.606274,382.13621 371.06436,382.585954 371.461374,383.378737 C371.873658,384.171519 372.049257,384.644132 371.988178,384.79659 Z M364,390.569231 C364,390.676283 363.87279,391.012727 363.618366,391.578572 C363.332139,392.113831 363.276485,392.63379 363.451401,393.138463 C363.610416,393.612549 363.713774,394.017811 363.761479,394.35426 C360.692491,395.225968 359.102366,395.631229 358.991056,395.570057 C358.847942,395.508884 358.680979,395.248905 358.490161,394.790111 C358.219836,395.692406 357.941564,396.090021 357.655337,395.982969 C357.321406,395.830038 356.947727,395.340665 356.534288,394.514837 C356.089046,393.627836 355.922083,392.771434 356.033393,391.945605 C356.112901,391.13507 357.035173,389.819881 358.800239,388 C358.243687,389.024639 358.052872,389.758698 358.227788,390.202198 C358.609424,389.881043 358.975153,389.590478 359.324985,389.330495 C359.674818,389.070512 360.016695,388.841118 360.350626,388.642308 C361.018489,388.244687 361.463724,388.076465 361.686345,388.137637 C361.908966,388.19881 362.354201,388.581132 363.022063,389.284616 C363.642221,389.988099 363.968197,390.4163 364,390.569231 Z M361,391 C360.115507,391.297736 359.59406,391.517799 359.435644,391.660194 C359.250824,391.80259 359.132013,391.996763 359.079208,392.242718 C359.026402,392.488674 359,392.741099 359,393 C359.250826,392.741099 359.468646,392.592233 359.653465,392.553398 C359.838285,392.553398 360.023101,392.495146 360.207921,392.378641 C360.39274,392.236245 360.656764,391.776703 361,391 Z M401,397.863094 C401,398.037253 400.931893,398.235157 400.795676,398.456814 C400.629188,398.725968 399.23677,399.224688 396.618378,399.952988 C395.271345,400.33297 394.230814,400.606079 393.496757,400.772321 C392.762699,400.938564 392.320001,401.013767 392.168649,400.997935 C391.956756,400.982102 391.741082,400.974186 391.521622,400.974186 C391.302161,400.974186 391.010813,400.982102 390.647568,400.997935 C391.252976,400.823776 393.598898,399.438444 397.685405,396.841896 C396.792428,396.889393 396.247569,396.960639 396.050811,397.055635 C395.823783,397.15063 395.581623,397.15063 395.324324,397.055635 C395.036755,396.992304 394.605408,396.548998 394.03027,395.725702 C393.500538,394.902407 393.235676,394.419519 393.235676,394.277026 C393.235676,394.197863 393.288648,393.790179 393.394595,393.053963 C393.500541,392.317746 393.651891,391.237187 393.848649,389.812252 C394.060542,388.387317 394.215675,387.3028 394.314054,386.558667 C394.412433,385.814534 394.461622,385.410809 394.461622,385.347478 C394.461622,385.220818 394.385947,384.983332 394.234595,384.635015 C394.068107,384.350028 393.90919,384.175872 393.757838,384.112541 C393.697297,384.080876 393.606487,384.041295 393.485405,383.993797 C392.183777,385.292071 391.101626,387.199872 390.238919,389.717257 C389.330806,392.392968 388.907027,393.849546 388.967568,394.087035 C389.058379,394.35619 389.103784,394.554094 389.103784,394.680755 C389.103784,394.759918 389.084865,394.90241 389.047027,395.108234 C389.009189,395.314057 388.967568,395.583208 388.922162,395.915693 C388.831351,396.26401 388.736757,396.572741 388.638378,396.841896 C388.54,397.11105 388.407568,397.348536 388.241081,397.554359 C387.877836,397.918509 387.658379,398.12433 387.582703,398.171828 C387.537297,398.171828 387.272435,397.673108 386.788108,396.675654 C386.56108,396.184843 386.383244,395.686123 386.254595,395.17948 C386.125945,394.672836 386.054054,394.158284 386.038919,393.635808 C385.721079,393.176663 385.282165,393.042087 384.722162,393.232079 C384.131889,393.406237 383.730812,393.714969 383.518919,394.158282 C383.412972,394.395771 383.341081,394.645131 383.303243,394.906369 C383.265405,395.167607 383.246486,395.440715 383.246486,395.725702 C383.261622,396.311509 383.231352,396.731067 383.155676,396.984388 C383.125405,397.206045 383.087568,397.364369 383.042162,397.459364 L382.860541,397.839345 C382.8,397.997671 382.724325,398.183701 382.633514,398.397442 C382.542702,398.611182 382.414055,398.852626 382.247568,399.12178 C381.990269,399.644256 381.823784,399.929239 381.748108,399.976737 C381.672432,399.976737 381.362165,399.446352 380.817297,398.385567 C380.27243,397.324782 380,396.723152 380,396.580659 C380,396.422333 380.166485,395.923613 380.499459,395.084485 C380.832434,394.261189 380.930811,393.612062 380.794595,393.137083 C381.672437,393.849551 382.648643,393.889132 383.723243,393.255827 C384.812978,392.590858 385.524323,392.258378 385.857297,392.258378 C386.175137,392.242545 386.878913,392.456282 387.968649,392.899596 C388.165406,392.50378 388.418917,391.98527 388.729189,391.344049 C389.039461,390.702829 389.398917,389.931001 389.807568,389.028542 C390.216218,388.126083 390.594593,387.338423 390.942703,386.665537 C391.290813,385.992651 391.616215,385.418727 391.918919,384.943749 C392.161082,384.595432 392.388107,384.35003 392.6,384.207536 L392.259459,384.278783 C393.379465,383.1705 394.348104,382.782607 395.165405,383.115092 C395.997842,383.479242 396.588106,384.033375 396.936216,384.777507 C397.329732,385.537473 397.526486,385.996611 397.526486,386.154938 C397.526486,386.297431 397.473514,386.455755 397.367568,386.629913 C397.246486,386.756574 396.905949,387.86484 396.345946,389.954745 C395.846484,392.060482 395.611892,393.406234 395.642162,393.99204 C397.125413,394.530349 397.957837,394.791583 398.139459,394.77575 C398.366488,394.77575 398.896212,395.250722 399.728649,396.200678 C400.57622,397.150635 401,397.704768 401,397.863094 Z M430,401.86224 C429.721496,401.911708 429.010589,401.730327 427.867257,401.318093 C426.709266,400.922349 424.957649,401.103729 422.612353,401.86224 C421.410388,402.225006 420.468619,402.505321 419.787018,402.703193 C419.105416,402.901065 418.647357,403 418.412827,403 C417.92911,401.779787 417.870478,400.831663 418.236931,400.155599 C418.808597,400.287514 419.534162,400.196824 420.413648,399.883526 C421.278476,399.586717 421.872121,398.622104 422.194599,396.989657 C421.593617,397.352423 421.212512,397.550292 421.051273,397.583271 C420.934008,397.583271 420.230429,396.527968 418.940516,394.417329 C419.21902,394.235946 419.460875,394.169989 419.666089,394.219458 C419.88596,394.285415 420.347684,394.169991 421.051273,393.873183 C421.754862,393.559885 422.121309,393.213613 422.150625,392.834358 C422.179941,392.636485 422.190935,392.40976 422.183605,392.154175 C422.176276,391.89859 422.165283,391.614153 422.150625,391.300855 C422.106651,390.987557 422.077335,390.731975 422.062677,390.534103 C422.048019,390.336231 422.018703,390.196073 421.974729,390.113626 C421.901438,389.981711 421.74753,389.833309 421.513001,389.668416 C421.278471,389.503522 421.124563,389.322142 421.051273,389.124269 C420.977982,388.893418 420.970653,388.67906 421.029286,388.481188 C421.087918,388.332783 421.285799,388.209115 421.622936,388.110179 C421.97473,387.994753 422.333848,387.970019 422.700301,388.035977 C423.052096,388.085445 423.381898,388.250336 423.689718,388.530655 C423.98288,388.843953 424.195419,390.105371 424.327342,392.314945 C424.57653,392.281967 424.972293,392.364412 425.514643,392.562285 C426.027676,392.760157 426.335492,393.139407 426.438099,393.700045 C426.555364,394.260684 426.57735,394.6152 426.50406,394.763604 C426.445427,394.912008 426.232888,395.010943 425.866436,395.060411 C425.514641,395.09339 425.236141,395.192324 425.030928,395.357218 C424.869689,395.522112 424.686465,396.049763 424.481252,396.940189 C424.422619,397.253487 424.374981,397.521435 424.338336,397.744041 C424.301691,397.966648 424.26871,398.160395 424.239394,398.325289 C424.210078,398.490182 424.184427,398.638584 424.16244,398.770499 C424.140452,398.902414 424.129459,399.050816 424.129459,399.21571 C424.906338,399.083795 425.543956,398.980738 426.042332,398.906536 C426.540707,398.832334 426.914483,398.7705 427.163671,398.721031 C427.647389,398.704542 428.116441,398.803477 428.570842,399.017838 C429.025243,399.2322 429.501624,400.180324 430,401.86224 Z M425,385.049165 C424.253897,385.096371 423.344597,385.458281 422.272073,386.134905 C421.199549,386.811529 420.189216,387.912994 419.241043,389.439332 C418.292869,390.949935 417.663354,393.06632 417.352478,395.788552 C417.010514,398.542255 416.862849,400.343936 416.909481,401.19365 C416.956112,401.618507 416.983314,402.122034 416.991086,402.704245 C416.998858,403.286457 416.979428,403.963071 416.932797,404.734107 C416.917253,406.24471 416.86285,407 416.769587,407 C416.676324,407 416.357681,406.40993 415.813647,405.229771 C415.285157,404.049613 415.013144,403.278588 414.9976,402.916673 C414.982057,402.727847 414.9976,402.133843 415.044232,401.134642 C415.090863,400.135442 415.168581,398.723207 415.277388,396.897895 C413.520936,399.919101 412.090926,402.059089 410.987314,403.317924 C409.852615,404.592495 409.2231,405.127493 409.098749,404.922932 C408.912223,404.734106 408.989941,403.821464 409.331905,402.184978 C409.689413,400.548492 410.210124,398.935633 410.894052,397.346353 C411.624611,395.678396 412.564999,394.207154 413.715241,392.932583 C414.912116,391.610806 415.510544,390.918457 415.510544,390.855515 C415.510544,390.745367 415.58049,390.548677 415.720385,390.265439 L412.036517,386.182111 C412.518376,386.465349 413.054629,386.575496 413.645295,386.512554 C414.220416,386.496819 415.129716,386.166379 416.373222,385.521226 C417.616728,384.891808 418.393907,384.089313 418.704783,383.113715 C419.000116,382.106647 419.06229,381.461503 418.891308,381.178265 C418.160749,381.524445 417.795474,381.666062 417.795474,381.60312 C417.795474,381.492972 418.028628,381.162533 418.494943,380.611792 C418.976801,380.045316 419.722894,379.872229 420.733242,380.092525 C421.712503,380.297086 422.248757,380.501643 422.34202,380.706204 C422.435283,380.863559 422.481913,381.044514 422.481913,381.249074 C422.497457,381.453635 422.450826,381.878486 422.34202,382.523639 C422.839422,382.492168 423.181381,382.500036 423.367907,382.547242 C423.616608,382.625919 423.857534,382.728198 424.090691,382.854082 C424.308304,382.979965 424.510371,383.294669 424.696897,383.798203 C424.883423,384.333209 424.984456,384.750192 425,385.049165 Z M415,392 C414.495628,392.076409 413.680885,393.344782 412.555748,395.805158 C411.391812,398.341942 410.880982,399.740209 411.023241,400 C411.424152,399.312317 411.951148,398.303732 412.604245,396.974212 C413.257342,395.644692 414.055919,393.986638 415,392 Z M446.461324,387.248373 C446.298489,387.263166 446.168394,387.270563 446.071035,387.270563 L445.781938,387.270563 C445.211451,387.192183 444.725773,387.184345 444.32489,387.247049 C443.954844,387.341105 443.330401,387.842728 442.451542,388.751935 C443.792958,386.635678 445.666288,385.279727 448.071586,384.68404 C450.553977,384.057001 452.381051,383.861054 453.552863,384.096194 C454.740094,384.331334 455.773123,384.856471 456.651982,385.671621 C457.54626,386.5338 457.993392,387.066775 457.993392,387.270563 C458.008811,387.364619 457.997247,387.560565 457.9587,387.858409 C457.920154,388.156252 457.862335,388.524632 457.785242,388.963559 C457.631056,389.904118 457.615638,391.252231 457.738987,393.00794 C457.846917,394.810677 457.870044,396.550684 457.80837,398.228013 C457.792951,399.05884 457.777533,399.75641 457.762114,400.320745 C457.746696,400.88508 457.715859,401.308325 457.669603,401.590493 C457.577092,402.233208 457.276434,402.954292 456.767621,403.753766 C456.258808,404.584593 455.973569,405 455.911894,405 C455.819383,405 455.364541,404.584593 454.547357,403.753766 C454.131055,403.330515 453.549012,402.679972 452.801211,401.802117 C452.05341,400.924263 451.124455,399.803448 450.014317,398.439638 C453.113452,399.787772 454.740087,400.438315 454.894273,400.391287 C455.03304,400.297231 455.148678,400.062095 455.241189,399.685872 C455.302864,399.356676 455.3337,398.079103 455.3337,395.853115 C455.3337,394.771473 455.275882,393.666334 455.160242,392.537663 C455.044603,391.408993 454.886565,390.264664 454.686123,389.104642 C454.223566,386.753246 453.884362,385.538377 453.668502,385.459997 C453.452642,385.381617 453.236785,385.342428 453.020925,385.342428 C452.789646,385.342428 451.671816,385.687294 449.667401,386.377037 C449.066076,386.5965 448.522579,386.768933 448.036894,386.894341 C447.551209,387.019749 447.138768,387.121641 446.799559,387.200021 C446.953745,387.247049 447.254403,387.419482 447.701542,387.717326 C448.210355,388.077873 448.611232,388.610848 448.904185,389.316267 C449.197138,389.974658 449.343612,390.374389 449.343612,390.515473 C449.343612,390.593853 449.281939,390.828989 449.15859,391.220888 C449.621148,391.314944 450.002752,391.393323 450.303414,391.456027 C450.604076,391.518731 450.831497,391.589271 450.985683,391.667651 C451.201543,391.040612 451.351872,390.523313 451.436674,390.115738 C451.521476,389.708162 451.563877,389.410323 451.563877,389.222212 C451.563877,388.814636 451.455948,388.563825 451.240088,388.469769 C451.070484,388.375713 450.9163,388.356118 450.777533,388.410984 C450.638766,388.46585 450.453746,388.571661 450.222467,388.728421 C450.5,387.819215 450.715858,387.333267 450.870044,387.270563 C450.977974,387.223535 451.209249,387.176508 451.563877,387.12948 C451.825992,387.12948 452.157487,387.207858 452.55837,387.364618 C452.912997,387.505702 453.1674,387.693811 453.321586,387.92895 C453.475772,388.195442 453.552863,388.508957 453.552863,388.869504 C453.552863,389.245727 453.290751,390.41357 452.76652,392.373067 L452.604626,392.890371 C452.928416,393.313622 453.321584,393.877949 453.784141,394.583368 C454.524233,395.790418 454.817181,396.699611 454.662996,397.310973 C453.568276,396.448795 452.620048,395.688522 451.818282,395.030131 C451.61784,395.437706 451.417402,395.825681 451.21696,396.194066 C451.016519,396.562451 450.800662,396.911237 450.569383,397.240432 C450.091407,397.883147 449.709803,398.357338 449.424559,398.663019 C449.139316,398.968701 448.95815,399.105864 448.881057,399.074512 C448.74229,399.058836 448.37225,398.549374 447.770925,397.546112 C448.140971,397.452056 448.457047,397.263947 448.719163,396.98178 C448.595814,396.919076 448.410794,396.789751 448.164097,396.593801 C447.9174,396.397852 447.601323,396.135283 447.215859,395.806088 C447.138766,395.900143 447.069384,396.002036 447.007709,396.111768 C446.946035,396.221499 446.868943,396.33123 446.776432,396.440961 L445.909141,397.616653 C445.70099,397.898821 445.539097,398.106525 445.423458,398.23977 C445.307819,398.373016 445.223018,398.455314 445.169053,398.486666 C445.115088,398.518018 445.064978,398.541531 445.018722,398.557207 C444.802862,398.635587 444.602424,398.674776 444.417401,398.674776 C444.263215,398.674776 443.977976,398.00072 443.561674,396.652586 C444.03965,396.903401 444.671802,396.119615 445.45815,394.301202 C445.103522,394.003358 444.783592,393.729033 444.498348,393.478217 C444.213104,393.227402 443.970265,392.992266 443.769824,392.772802 C443.738987,392.992266 443.700441,393.321456 443.654185,393.760383 C443.607929,394.199311 443.538547,394.787151 443.446035,395.523921 C443.214757,397.326658 443.099119,398.753151 443.099119,399.803441 C443.099119,400.806703 443.029736,401.637517 442.890969,402.295908 C442.767621,402.295908 442.466963,402.06861 441.988987,401.614007 C441.665197,401.284811 441.44934,401.045756 441.34141,400.896834 C441.23348,400.747913 441.125551,400.579399 441.017621,400.391287 C440.786342,399.999388 440.670705,399.646683 440.670705,399.333164 C440.670705,399.19208 440.686123,398.909917 440.71696,398.486666 C440.747798,398.063414 440.801762,397.483412 440.878855,396.746641 C440.971366,396.025547 441.033039,395.355409 441.063877,394.736208 C441.094714,394.117007 441.110132,393.540923 441.110132,393.00794 C441.110132,391.941974 440.740092,390.217643 440,387.834895 C442.112345,389.355464 443.261012,390.484118 443.446035,391.220888 L443.538546,391.526568 C443.754406,391.463864 443.916299,391.432513 444.024229,391.432513 C444.101322,391.432513 444.20925,391.452108 444.348018,391.491297 C444.486785,391.530487 444.671805,391.581434 444.903084,391.644137 C445.226874,391.769545 445.473567,391.867519 445.643172,391.93806 C445.812776,392.008602 445.997796,392.098738 446.198238,392.20847 C446.737888,390.813308 446.868944,389.802223 446.59141,389.175184 C446.205945,388.407061 446.005507,387.991654 445.990088,387.92895 C445.990088,387.881922 446.051761,387.740841 446.17511,387.505701 C446.267617,387.395975 446.367831,387.309761 446.475755,387.247058 L446.461324,387.248373 Z M449.777778,392.208054 C449.51111,391.979865 449.277779,391.768457 449.077778,391.573826 C448.877777,391.379194 448.718519,391.18792 448.6,391 L448.511111,391.302013 C448.348147,391.718123 448.177779,392.107381 448,392.469799 C448.785189,393.181212 449.2,393.691274 449.244444,394 C449.362964,393.785234 449.481481,393.543626 449.6,393.275168 L450,392.369128 L449.777778,392.208054 Z M488.99359,400.259843 C488.94792,400.622049 488.833745,400.850393 488.651063,400.944882 C488.529275,401.023622 487.516927,400.976379 485.61399,400.80315 C484.654909,400.708661 483.794794,400.633859 483.033619,400.57874 C482.272444,400.523622 481.60262,400.503937 481.024127,400.519685 C480.460858,400.519685 480.011771,400.53937 479.676854,400.57874 C479.341937,400.61811 479.1212,400.653543 479.014635,400.685039 C478.786283,400.76378 478.603603,400.921259 478.466592,401.15748 C478.32958,401.393702 478.055561,401.433072 477.644527,401.275591 C477.446621,401.19685 477.282971,401.133859 477.153571,401.086614 C477.024172,401.03937 476.913803,400.992126 476.822462,400.944882 C476.670227,400.850393 475.581763,401.173225 473.557037,401.913386 C471.547535,402.637799 470.497129,403 470.405788,403 C470.314447,403 470.124157,402.842521 469.83491,402.527559 C469.545664,402.228345 469.324926,401.8189 469.172691,401.299213 C469.005233,400.763777 468.959563,400.346458 469.03568,400.047244 C469.096574,399.732282 469.340147,399.433072 469.766405,399.149606 C469.629393,399.62205 469.591335,399.88189 469.652229,399.929134 C469.728346,400.007874 469.812074,400.047244 469.903415,400.047244 C469.933862,400.047244 472.080344,399.480321 476.342924,398.346457 L476.731121,394.23622 C475.695923,394.866145 475.102216,395.181102 474.949981,395.181102 C476.12219,393.95275 476.769179,392.69292 476.890967,391.401575 C476.997532,390.141726 476.502776,387.007899 475.406683,382 C475.543695,382 476.07651,382.251966 477.005143,382.755906 C477.949,383.291341 478.535096,383.66929 478.763449,383.889764 C478.976578,384.047245 479.140228,384.330707 479.254404,384.740157 C479.36858,385.149608 479.501784,385.73228 479.654019,386.488189 C480.065053,386.488189 480.60548,386.322836 481.275314,385.992126 C481.914701,385.677164 482.614971,385.66929 483.376146,385.968504 C484.122098,386.25197 484.525515,386.685036 484.586409,387.267717 C484.692973,387.866145 484.662527,388.220472 484.495068,388.330709 C484.358057,388.425197 483.421825,389.125978 481.686346,390.433071 C479.950867,391.724416 479.113587,394.196832 479.174481,397.850394 C480.712055,397.803149 481.979392,397.755906 482.976531,397.708661 C483.973671,397.661417 484.715805,397.598426 485.202957,397.519685 C486.162038,397.346456 487.052599,397.653539 487.874668,398.440945 C488.681514,399.22835 489.054484,399.834644 488.99359,400.259843 Z M517.891777,403.642133 C517.690792,404.046689 517.551651,404.248964 517.474349,404.248964 C517.427968,404.248964 517.072385,404.200418 516.407589,404.103325 C515.742793,404.006231 514.761074,403.852503 513.462403,403.642133 C512.132811,403.447947 511.050601,403.326582 510.215741,403.278035 C509.380881,403.229488 508.777935,403.229488 508.406886,403.278035 C508.020377,403.326582 507.537248,403.399401 506.957484,403.496494 C506.37772,403.593587 505.678149,403.723043 504.858749,403.884866 C503.204489,404.176146 501.542524,404.661606 499.872804,405.34126 C498.203084,406.020914 497.283205,406.174643 497.113141,405.802452 C497.06676,405.689176 496.985594,405.575902 496.869642,405.462626 C496.753689,405.349351 496.630008,405.215849 496.498595,405.062118 C496.367181,404.908387 496.25123,404.738476 496.150738,404.55238 C496.050245,404.366284 496,404.159964 496,403.933412 C496.154604,403.998141 496.421291,404.022414 496.80007,404.006232 C497.178849,403.99005 497.642654,403.925322 498.191497,403.812046 C498.74034,403.69877 499.354881,403.549087 500.035137,403.362991 C500.715393,403.176895 501.42656,402.954393 502.168658,402.695477 C501.85945,402.549837 501.503867,402.096741 501.101897,401.336176 C500.699928,400.575611 500.591707,399.871694 500.777231,399.224404 C500.962756,398.674208 502.060425,397.598105 504.070274,395.996064 C503.606463,396.04461 503.29726,396.020337 503.142656,395.923244 C502.787068,395.615781 502.586086,395.373051 502.539705,395.195047 C502.539705,395.033224 502.655656,394.806676 502.887561,394.515396 C503.073086,394.224116 503.250877,394.054205 503.420941,394.005658 C503.560085,394.005658 504.441313,393.593017 506.064652,392.767723 C505.508078,392.783905 504.796912,392.622085 503.931131,392.282258 C503.096271,391.910067 502.678847,391.643064 502.678847,391.481241 C502.678847,391.335601 502.856639,391.173781 503.212227,390.995777 C503.397752,390.898683 503.78812,390.728772 504.383345,390.486039 C504.978569,390.243305 505.755441,389.863028 506.713984,389.345196 L506.945889,389.22383 L507.224174,388.058715 C506.203789,388.722187 505.616304,389.053918 505.4617,389.053918 C505.307097,389.053918 504.487709,388.697914 503.003513,387.985895 C503.003513,387.807891 503.73014,387.31434 505.183415,386.505228 C504.425857,386.068307 503.64512,384.846566 502.84118,382.839969 C503.134927,382.839969 503.645112,383.050335 504.37175,383.471073 C506.134232,381.852849 507.154601,381.043749 507.432888,381.043749 L505.716795,386.116856 C506.226987,385.777029 506.679197,385.469571 507.073436,385.194473 C507.467676,384.919375 507.796204,384.668554 508.05903,384.442002 C508.584682,384.005082 508.994376,383.390166 509.288123,382.597236 C509.56641,381.820489 509.651441,381.310756 509.543218,381.068022 C509.465916,380.825289 509.210824,380.647287 508.777934,380.534011 C509.210824,380.194184 509.504567,380.016182 509.65917,380 C509.813774,380 510.184817,380.299367 510.772312,380.89811 C511.421647,381.496853 511.75404,381.941858 511.769501,382.233138 C511.831342,382.508236 511.792692,382.815694 511.653548,383.155521 C511.576246,383.527712 511.035142,384.183083 510.030217,385.121653 L510.957835,386.044036 C510.648628,386.545686 510.215744,386.958326 509.65917,387.281971 C509.257201,387.524705 508.963458,387.913073 508.777934,388.447087 C509.489111,388.188171 509.921995,388.066806 510.076598,388.082988 C510.354885,388.212446 510.579057,388.455176 510.749121,388.811185 C510.919185,389.102466 511.035136,389.29665 511.096978,389.393743 C511.096978,389.458472 510.153909,390.558848 508.267744,392.694903 C509.148985,392.338894 509.67463,392.160892 509.844694,392.160892 C509.983837,392.160892 510.24666,392.22562 510.633169,392.355078 C511.004218,392.500718 511.25931,392.686811 511.398453,392.913362 C511.553057,393.172278 511.599438,393.398826 511.537596,393.593013 C511.475755,393.835747 511.182012,394.046113 510.656359,394.224117 C510.393533,394.321211 509.941324,394.462803 509.299718,394.648899 C508.658113,394.834995 507.827131,395.089861 506.806746,395.413506 C505.925505,395.672422 505.191148,395.850424 504.603654,395.947517 L504.603654,396.263069 C502.856632,397.444373 501.952214,398.196835 501.890372,398.52048 C501.843991,398.844125 501.959942,399.297221 502.238229,399.879782 C502.531976,399.086852 502.93394,398.528573 503.444132,398.204928 C503.985245,397.865101 505.268437,397.339186 507.293745,396.627168 C509.349975,395.898967 510.756847,395.688601 511.514406,395.996064 C512.256504,396.335891 512.704848,396.65144 512.859451,396.94272 C513.029515,397.314911 513.114546,397.565732 513.114546,397.69519 C513.114546,397.824648 512.557981,399.070662 511.444834,401.433269 C511.754042,401.400904 512.086435,401.36854 512.442023,401.336176 C512.797612,401.303811 513.184115,401.287629 513.601545,401.287629 C514.436406,401.287629 514.992971,401.247174 515.271257,401.166263 C515.565004,401.06917 515.912858,401.101534 516.314827,401.263356 C516.716797,401.425179 517.134221,401.740727 517.567111,402.210012 C518,402.744026 518.108222,403.221395 517.891777,403.642133 Z M508.563025,397.494382 C508.462184,398.033711 507.941181,399.202238 507,401 C508.142863,400.67041 508.789915,400.423222 508.941176,400.258427 C509.092438,400.108613 509.445375,399.022482 510,397 L508.563025,397.494382 Z M504.848612,398.227586 C504.739722,398.972418 504.57639,399.537929 504.358612,399.924138 C504.156388,400.268967 504.280832,400.627584 504.731945,401 L505.735278,398 L504.848612,398.227586 Z M503.758333,399 C502.887218,399.138365 502.412778,399.301886 502.335,399.490566 C502.272777,399.679246 502.241667,399.855345 502.241667,400.018868 C502.241667,400.220127 502.334999,400.396226 502.521667,400.54717 C502.661667,400.723271 503.027219,400.874213 503.618333,401 C503.602778,400.748426 503.610555,400.455977 503.641667,400.122642 C503.672778,399.789307 503.711666,399.415096 503.758333,399 Z M545.791402,393.628377 C545.64747,394.110901 545.46356,394.6907 545.239665,395.367791 C545.01577,396.044882 544.751899,396.83481 544.448042,397.737598 C543.840328,399.512043 543.256612,400.819509 542.696875,401.660036 C542.153132,402.453867 541.801303,402.889689 541.641378,402.967516 C541.481453,403.092038 541.057659,402.858562 540.369983,402.26708 C539.666315,401.628902 538.938668,400.765041 538.187022,399.675469 C537.403392,398.523636 536.907632,397.519689 536.69973,396.663597 C536.475836,395.776374 536.443851,395.068163 536.603776,394.538943 C536.763701,394.025287 537.027572,393.675073 537.395399,393.48829 C537.747234,393.363767 538.314958,393.457158 539.098588,393.768464 C539.882219,394.095335 540.361986,394.383289 540.537903,394.632334 C540.665843,394.91251 540.697827,395.254941 540.633858,395.659639 C540.569888,396.017641 540.338,396.313378 539.938189,396.546858 C539.570362,396.780337 538.682793,396.585774 537.275456,395.963161 C537.88317,395.496202 538.187022,395.200466 538.187022,395.075943 C538.187022,394.951421 538.043092,394.912508 537.755228,394.959204 C537.435379,395.052596 537.243472,395.208247 537.179502,395.426161 C537.083547,395.675206 537.123528,396.08768 537.299445,396.663597 C537.45937,397.286209 538.139039,397.924377 539.338474,398.57812 C540.537909,399.247429 541.257559,399.488687 541.497446,399.301904 C541.689356,399.11512 542.11315,397.869914 542.768841,395.566248 C543.008728,394.710156 543.188641,394.036966 543.308584,393.546659 C543.428528,393.056352 543.512487,392.671116 543.560464,392.390941 C543.608442,392.110765 543.620436,391.904528 543.596447,391.772223 C543.572459,391.639918 543.536476,391.503723 543.488499,391.363635 C543.360559,390.881111 543.024722,390.616505 542.480978,390.569809 C541.937234,390.569809 540.905736,391.028978 539.386451,391.947332 C537.835182,392.85012 536.971602,392.951293 536.795685,392.250854 C536.667745,391.628241 536.627764,391.067899 536.675742,390.569809 C536.739712,390.289633 537.15551,390.001679 537.923148,389.705938 C539.36247,386.530615 540.090116,384.779544 540.106109,384.452673 C540.154086,384.188062 539.794261,383.814501 539.026623,383.331976 C538.562841,384.421548 538.007111,385.553907 537.359416,386.729088 C536.711721,387.904269 535.980077,389.137801 535.164461,390.429722 C535.260416,390.60094 535.348373,390.760482 535.428336,390.908352 C535.508298,391.056223 535.596255,391.207982 535.69221,391.363635 C535.996067,392.064074 536.060036,392.6322 535.884119,393.068028 C535.804156,393.301508 535.680217,393.76846 535.512296,394.468899 C535.344375,395.169338 535.124482,396.118808 534.85261,397.317337 C534.324858,399.714394 533.893068,400.912905 533.557226,400.912905 C533.205392,400.912905 532.693641,400.609386 532.021957,400.002339 C531.366266,399.395292 530.934476,398.702646 530.726574,397.924381 C530.486687,397.083854 530.366745,396.515729 530.366745,396.219988 C530.52667,395.986508 530.750561,395.65575 531.038425,395.227704 C531.32629,394.799658 531.686115,394.266554 532.117912,393.628377 C532.229859,393.426028 532.373789,393.180878 532.549706,392.892919 C532.725623,392.604961 532.941518,392.266421 533.197398,391.877288 C532.957511,391.20798 532.741616,391.005634 532.549706,391.270244 L531.158368,393.068028 C530.51867,393.92412 530.142852,395.083718 530.030905,396.546858 C529.99892,397.247296 529.97893,397.803748 529.970934,398.216229 C529.962937,398.628709 529.974932,398.897207 530.006917,399.021729 C530.102871,399.224078 530.110867,399.480902 530.030905,399.792208 C529.93495,400.072384 529.735047,400.142427 529.431191,400.002339 C529.143326,399.862251 528.639571,398.375786 527.91991,395.5429 C527.248226,392.725579 526.944374,390.997856 527.008344,390.359678 C527.104299,389.752631 527.664027,388.95103 528.687545,387.95485 C529.727055,386.943105 530.310771,386.351632 530.438711,386.180413 C530.550658,385.99363 530.406728,385.588938 530.006917,384.966325 C529.63909,384.374843 529.527144,384.079107 529.671076,384.079107 C529.799016,384.079107 530.374736,384.27367 531.398254,384.662803 C532.40578,385.020805 533.029476,385.479975 533.269363,386.040326 C533.493258,386.600677 533.413297,387.044282 533.029478,387.371154 C532.661651,387.698025 531.662137,388.17276 530.030905,388.795372 C528.415666,389.402419 528.071833,390.966709 528.999396,393.48829 C531.446244,390.639838 533.093443,389.417979 533.941044,389.822678 C534.132953,389.900504 534.260891,389.970547 534.324861,390.032808 C535.428341,388.258363 536.843653,385.931384 538.57084,383.051802 L538.426908,382.95841 C538.426908,382.522582 538.626811,382.21128 539.026623,382.024496 C539.394449,381.899974 539.930189,382.250188 540.633858,383.07515 C541.305541,383.900111 541.665366,384.444889 541.713344,384.709499 C541.761321,384.942979 541.233578,386.398313 540.130097,389.075546 C541.569419,388.779806 542.712864,388.826501 543.560464,389.215633 C544.50402,389.651462 545.199682,390.250718 545.647471,391.013418 C546.063275,391.791683 546.111252,392.663327 545.791402,393.628377 Z M532.701842,394 C532.297396,394.606029 531.97851,395.11778 531.745175,395.535266 C531.511841,395.952753 531.356287,396.282698 531.278509,396.525109 C531.434065,397.494756 531.581841,397.986306 531.721842,397.999773 C531.861843,398.01324 532.102951,397.427421 532.445175,396.242297 C532.67851,395.393856 532.764065,394.646431 532.701842,394 Z M576,387.379992 C576,387.702349 575.959392,388.009352 575.878176,388.301008 C575.764473,388.592665 575.602042,388.807567 575.390879,388.94572 C575.130987,389.099224 574.343199,389.060849 573.027492,388.830593 C571.695542,388.600338 570.225546,388.638713 568.617459,388.94572 C567.967728,389.083874 567.411403,389.222025 566.948469,389.360178 C566.485535,389.498331 566.132249,389.659507 565.888599,389.843712 L565.79114,389.958839 C565.644951,390.189094 565.551553,390.377133 565.510945,390.522962 C565.470337,390.66879 565.450033,390.810779 565.450033,390.948932 C565.450033,391.225239 565.677435,391.839244 566.132248,392.790966 C566.603303,393.758039 566.838827,394.318318 566.838827,394.471822 C566.838827,394.609975 566.806341,394.763476 566.741368,394.93233 C566.643908,395.085834 565.441923,396.260119 563.135375,398.45522 C564.174946,398.317067 565.068313,398.132865 565.815505,397.90261 C566.497723,397.672354 567.391091,397.557228 568.495635,397.557228 L567.569772,395.346788 C568.560613,395.776598 569.34028,396.133488 569.908795,396.41747 C570.47731,396.701452 570.8509,396.897166 571.029577,397.004618 C571.370686,397.219523 571.728033,397.894929 572.101629,399.030856 C572.280305,399.568118 572.426492,400.005597 572.540195,400.343305 C572.653899,400.681013 572.718871,400.903589 572.735114,401.011042 C572.735114,401.241297 572.613291,401.640401 572.369642,402.208364 C572.142236,402.791678 571.89859,403.05263 571.638697,402.991228 C571.395048,402.914476 570.972728,402.507698 570.371726,401.770881 C569.738238,401.064764 569.421498,400.481459 569.421498,400.020949 C568.78801,400.020949 567.845913,400.212825 566.595179,400.596584 C565.945447,400.811489 565.307908,401.045579 564.682541,401.29886 C564.057174,401.552141 563.435877,401.839956 562.818632,402.162313 C561.616628,402.791678 560.820719,402.952854 560.43088,402.645847 C560.041041,402.323489 559.683693,401.701809 559.358828,400.780788 C559.066448,399.813715 558.952747,399.18436 559.01772,398.892703 C559.11518,398.585696 559.513135,398.102167 560.211596,397.442101 C560.893815,396.782036 561.697846,395.753577 562.623714,394.356695 C563.565825,392.959812 564.036873,391.892978 564.036873,391.156161 C564.313009,391.156161 564.824665,390.826133 565.571857,390.166068 L565.742411,389.981864 C565.807384,389.905113 565.856113,389.859062 565.888599,389.843712 C566.148492,389.582756 566.485536,389.291103 566.89974,388.968746 C567.313944,388.646388 567.813417,388.308685 568.398176,387.955627 C569.681396,387.142058 570.347361,386.696904 570.396091,386.620153 C570.396091,386.52805 570.298633,386.412924 570.103713,386.274771 C569.99001,386.167319 569.888491,386.033005 569.799153,385.871826 C569.709815,385.710648 569.583931,385.476558 569.421498,385.169551 C569.908797,385.031398 570.420453,384.977672 570.956482,385.008373 C571.524997,385.039074 572.418365,385.2156 573.636612,385.537958 C574.822373,385.844965 575.504581,386.182668 575.683257,386.551076 C575.89442,386.796682 576,387.072984 576,387.379992 Z M563.970185,386.607362 C563.890677,386.885482 563.350035,387.319015 562.348241,387.907975 C561.394151,388.529655 560.209508,389.208585 558.794275,389.944785 C557.394944,390.648265 556.528326,391 556.194395,391 C555.82866,391 555.478833,390.96728 555.144902,390.90184 C554.842773,390.80368 554.461143,390.435586 554,389.797546 C554.286227,389.633946 554.954079,389.208592 556.003578,388.521472 C557.005372,387.850712 557.887891,387.106344 558.651163,386.288344 C558.921488,385.993864 559.13218,385.752557 559.283244,385.564417 C559.434308,385.376277 559.549592,385.224949 559.629099,385.110429 C559.708607,384.995909 559.756311,384.893661 559.772212,384.803681 C559.788114,384.713701 559.811965,384.619632 559.843768,384.521472 C559.875571,384.325152 559.899423,384.096116 559.915325,383.834356 C559.931226,383.572596 559.939177,383.29448 559.939177,383 C562.228991,384.07976 563.493141,384.905928 563.731663,385.478528 C563.970186,386.034768 564.049692,386.411042 563.970185,386.607362 Z M596.143359,387.043456 C596.341777,386.998052 596.547484,386.952649 596.760486,386.907246 C596.982687,386.859881 597.21282,386.812518 597.450891,386.765154 C600.466469,386.275724 601.98217,386.031012 601.998042,386.031012 C602.140885,386.031012 602.33134,386.102057 602.569411,386.24415 C602.886841,386.386243 603.204265,386.694105 603.521694,387.167747 C603.839123,387.625601 603.997836,387.878207 603.997836,387.925571 C604.013707,387.972935 603.942287,388.04398 603.783572,388.138709 C603.640729,388.233437 603.140785,388.217649 602.283727,388.091345 C601.458411,387.949252 600.387103,387.917677 599.069772,387.996617 C598.419042,388.043981 597.427091,388.245276 596.093888,388.600508 C594.760686,388.955739 593.062465,389.457003 590.999175,390.104314 C586.951953,391.398935 584.817274,392.030448 584.595074,391.998872 C584.420488,391.998872 584.158612,391.927827 583.80944,391.785734 C583.523754,391.691006 583.345203,391.604173 583.273781,391.525233 C583.20236,391.446292 583.142843,391.343671 583.095228,391.217367 C583.031742,391.012122 583,390.838456 583,390.696363 C583.999902,390.427966 585.035499,390.135891 586.106823,389.82013 C587.178146,389.504368 588.301035,389.141248 589.475523,388.730758 C590.173867,388.493937 590.896008,388.276855 591.641966,388.079504 C592.387925,387.882153 593.17355,387.680858 593.998866,387.475613 C594.760696,386.844091 595.633614,385.849457 596.617644,384.491683 L596.141503,384.065408 C592.681524,386.875684 590.919819,388.280801 590.856333,388.280801 C590.792847,388.280801 590.602393,388.170286 590.284963,387.949253 C589.967534,387.72822 589.800886,387.412463 589.785015,387.001974 C589.785015,386.638848 590.459542,385.754729 591.808616,384.349591 C589.792941,383.023394 588.785118,382.289259 588.785118,382.147167 C589.102547,382.226107 589.352519,382.281365 589.535041,382.312941 C589.717562,382.344517 589.864371,382.368199 589.975471,382.383987 C590.118315,382.383987 591.403884,382.123487 593.832217,381.602481 C592.737086,380.102615 592.189529,379.321117 592.189529,379.257965 C592.189529,379.163236 592.213336,379.084297 592.26095,379.021145 C592.356179,378.942205 593.014835,379.084295 594.236937,379.447421 C595.459039,379.794758 596.228794,380.307863 596.546223,380.98675 C597.308053,380.813081 597.887352,380.915702 598.284139,381.294615 C598.665054,381.689317 598.855509,381.910347 598.855509,381.957711 C598.855509,382.020863 597.950849,382.541862 596.141503,383.520722 C596.744618,383.283901 597.165205,383.197068 597.403277,383.26022 C597.625478,383.307584 597.895289,383.575977 598.212718,384.065408 C598.530147,384.491685 598.688859,384.78376 598.688859,384.941641 C598.688859,385.067946 598.411113,385.446853 597.855612,386.078376 C597.538189,386.425707 596.958905,386.749352 596.117744,387.04932 L596.143359,387.043456 Z M601.940274,397.988173 C602.086271,398.287781 601.964608,398.524309 601.575283,398.697766 C601.20218,398.839685 600.658755,398.839685 599.944993,398.697766 C599.198786,398.540078 597.957832,398.611037 596.222091,398.910644 C596.3032,399.383708 596.311311,400.053872 596.246423,400.921156 C596.230202,401.126151 596.209925,401.449406 596.185592,401.890933 C596.161259,402.33246 596.12476,402.833112 596.076095,403.392904 C596.027429,403.952697 595.958487,404.544018 595.869267,405.166886 C595.780046,405.789753 595.678661,406.400785 595.565108,407 C595.32178,406.684624 595.12712,406.357426 594.981123,406.018397 C594.835127,405.679368 594.729686,405.226021 594.664798,404.658344 C594.632355,404.137974 594.599911,403.400793 594.567468,402.446781 C594.535024,401.492768 594.49447,400.314067 594.445804,398.910644 C590.26056,400.424449 588.094972,401.18134 587.948975,401.18134 C587.802978,401.18134 587.608319,400.992118 587.36499,400.613666 C587.121662,400.235215 587,399.896191 587,399.596583 L594.421471,397.420499 C594.372806,397.27858 594.344418,397.160316 594.336307,397.065703 C594.328196,396.97109 594.31603,396.876479 594.299808,396.781866 L593.496829,396.994744 C592.55596,397.231276 591.834098,397.408672 591.331219,397.526938 C590.828341,397.645204 590.544463,397.704336 590.479575,397.704336 L592.0612,396.805519 C591.28255,396.647831 590.860788,396.49803 590.7959,396.35611 C590.714791,396.198422 590.390358,395.409994 589.822592,393.990802 C589.238605,392.55584 589.027724,391.720106 589.189942,391.483574 C589.335939,391.231273 589.449491,391.120893 589.5306,391.152431 C589.595488,391.152431 590.106469,391.452034 591.06356,392.051248 C591.112225,393.73851 591.201444,394.67674 591.331219,394.865966 C591.493438,395.102498 591.6151,395.204994 591.69621,395.173456 C591.777319,395.173456 591.939536,395.149803 592.182864,395.102497 C592.40997,395.007884 592.742513,394.605785 593.180504,393.896189 C592.336967,393.927727 591.850318,393.809463 591.720542,393.541393 C591.671877,393.415242 591.631323,393.312747 591.598879,393.233903 C591.566435,393.155059 591.542103,393.099869 591.525881,393.068331 C591.525881,392.95795 592.150414,392.634694 593.399498,392.098555 C594.599917,391.562415 595.248783,391.29435 595.346114,391.29435 C595.427223,391.29435 595.629994,391.396845 595.954431,391.60184 C596.278869,391.838372 596.441085,392.035479 596.441085,392.193167 C596.441085,392.350855 595.59756,393.155052 593.910485,394.605782 L596.246423,394.250986 C596.522195,393.825228 597.041288,392.516437 597.803716,390.324573 C597.333281,389.883046 596.32754,389.969774 594.786462,390.584757 C593.245384,391.19974 592.385637,391.53088 592.207196,391.578187 C592.077421,391.578187 591.533997,391.428385 590.576906,391.128778 C594.794594,389.709586 596.968293,389 597.098068,389 C597.244065,389 597.844265,389.323256 598.898687,389.969777 C599.904443,390.632066 600.407314,391.042049 600.407314,391.199737 C600.407314,391.388963 600.358649,391.570301 600.261318,391.743758 C600.19643,392.011828 599.758446,392.752951 598.947352,393.967148 C598.136259,395.181346 597.479282,395.867279 596.976404,396.024967 C596.895295,396.072274 596.806076,396.095926 596.708745,396.095926 C596.432973,396.647835 596.295089,397.08147 596.295089,397.396846 C598.631039,397.049933 600.115319,396.986858 600.747972,397.207622 C601.364403,397.412616 601.761833,397.672797 601.940274,397.988173 Z" id="安印电子印章，可以在网上盖的公章"></path>
        </g>
    </g>
</svg>