<?xml version="1.0" encoding="UTF-8"?>
<svg width="16px" height="16px" viewBox="0 0 16 16" version="1.1" xmlns="http://www.w3.org/2000/svg" xmlns:xlink="http://www.w3.org/1999/xlink">
    <!-- Generator: Sketch 52.2 (67145) - http://www.bohemiancoding.com/sketch -->
    <title>合并形状 copy</title>
    <desc>Created with Sketch.</desc>
    <g id="Page-1" stroke="none" stroke-width="1" fill="none" fill-rule="evenodd">
        <g id="用户中心-账号管理hover" transform="translate(-765.000000, -233.000000)" fill="#999999" fill-rule="nonzero">
            <g id="分组-2" transform="translate(765.000000, 195.000000)">
                <g id="分组-3" transform="translate(0.000000, 38.000000)">
                    <path d="M8.05235792,8.75002081 C7.63888289,8.75002081 7.30249023,8.41358574 7.30249023,8.00003329 C7.30249023,7.58648084 7.63887029,7.25002081 8.05235792,7.25002081 C8.46597156,7.25002081 8.80249023,7.58648084 8.80249023,8.00003329 C8.80243983,8.41359823 8.46593376,8.75002081 8.05235792,8.75002081 Z M5.05236421,7.24998752 C5.46597698,7.24998752 5.80249023,7.58644755 5.80249023,8 C5.80250284,8.41355245 5.46598958,8.74998752 5.05236421,8.74998752 C4.63889007,8.74998752 4.30249023,8.41355245 4.30249023,8 C4.30249023,7.58644755 4.63889007,7.24998752 5.05236421,7.24998752 Z M11.0526036,8.75003745 C10.6389922,8.75003745 10.3024902,8.41360239 10.3024902,8.00004994 C10.3024902,7.58649749 10.6389922,7.25003745 11.0526036,7.25003745 C11.4660891,7.25003745 11.8024902,7.58649749 11.8024902,8.00004994 C11.8024902,8.41360239 11.4660891,8.75003745 11.0526036,8.75003745 Z M8,14 C4.6862915,14 2,11.3137085 2,8 C2,4.6862915 4.6862915,2 8,2 C11.3137085,2 14,4.6862915 14,8 C14,11.3137085 11.3137085,14 8,14 Z M8,13 C10.7614237,13 13,10.7614237 13,8 C13,5.23857625 10.7614237,3 8,3 C5.23857625,3 3,5.23857625 3,8 C3,10.7614237 5.23857625,13 8,13 Z" id="合并形状-copy"></path>
                </g>
            </g>
        </g>
    </g>
</svg>