<?xml version="1.0" encoding="UTF-8"?>
<svg width="16px" height="16px" viewBox="0 0 16 16" version="1.1" xmlns="http://www.w3.org/2000/svg" xmlns:xlink="http://www.w3.org/1999/xlink">
    <!-- Generator: Sketch 52.2 (67145) - http://www.bohemiancoding.com/sketch -->
    <title>Combined Shape</title>
    <desc>Created with Sketch.</desc>
    <g id="Symbols" stroke="none" stroke-width="1" fill="none" fill-rule="evenodd">
        <g id="-左边栏-日志记录" transform="translate(-21.000000, -113.000000)" fill="#333333">
            <g id="分组-2" transform="translate(20.000000, 111.000000)">
                <path d="M11.5045835,5.00115101 C12.1023848,5.34696043 12.5045835,5.99330426 12.5045835,6.73358662 L12.5045835,15.6764667 C12.5045835,17.6094634 10.9375801,19.1764667 9.00458347,19.1764667 C7.07158684,19.1764667 5.50458347,17.6094634 5.50458347,15.6764667 L5.50458347,6.73358662 C5.50458347,5.99330426 5.9067821,5.34696043 6.50458347,5.00115101 L6.50458347,1.73358662 C6.50458347,1.18130187 6.95229872,0.73358662 7.50458347,0.73358662 L10.5045835,0.73358662 C11.0568682,0.73358662 11.5045835,1.18130187 11.5045835,1.73358662 L11.5045835,5.00115101 Z M7.53525775,5.73358662 C6.982973,5.73358662 6.53525775,6.18130187 6.53525775,6.73358662 L6.53525775,15.7335866 C6.53525775,17.1142985 7.65454587,18.2335866 9.03525775,18.2335866 C10.4159696,18.2335866 11.5352577,17.1142985 11.5352577,15.7335866 L11.5352577,6.73358662 C11.5352577,6.18130187 11.0875425,5.73358662 10.5352577,5.73358662 L7.53525775,5.73358662 Z M8.03525775,1.73358662 C7.75911537,1.73358662 7.53525775,1.95744425 7.53525775,2.23358662 L7.53525775,4.73358662 L10.5352577,4.73358662 L10.5352577,2.23358662 C10.5352577,1.95744425 10.3114001,1.73358662 10.0352577,1.73358662 L8.03525775,1.73358662 Z M9.00458347,17.2335866 C8.17615634,17.2335866 7.50458347,16.5620137 7.50458347,15.7335866 C7.50458347,14.9051595 8.17615634,14.2335866 9.00458347,14.2335866 C9.83301059,14.2335866 10.5045835,14.9051595 10.5045835,15.7335866 C10.5045835,16.5620137 9.83301059,17.2335866 9.00458347,17.2335866 Z M9.03525775,16.7335866 C9.5875425,16.7335866 10.0352577,16.2858714 10.0352577,15.7335866 C10.0352577,15.1813019 9.5875425,14.7335866 9.03525775,14.7335866 C8.482973,14.7335866 8.03525775,15.1813019 8.03525775,15.7335866 C8.03525775,16.2858714 8.482973,16.7335866 9.03525775,16.7335866 Z M8.03525775,2.73358662 L8.53525775,2.73358662 L8.53525775,3.73358662 L8.03525775,3.73358662 L8.03525775,2.73358662 Z M9.53525775,2.73358662 L10.0352577,2.73358662 L10.0352577,3.73358662 L9.53525775,3.73358662 L9.53525775,2.73358662 Z" id="Combined-Shape" transform="translate(9.004583, 9.955027) rotate(-135.000000) translate(-9.004583, -9.955027) "></path>
            </g>
        </g>
    </g>
</svg>