<?xml version="1.0" encoding="UTF-8"?>
<svg width="16px" height="16px" viewBox="0 0 16 16" version="1.1" xmlns="http://www.w3.org/2000/svg" xmlns:xlink="http://www.w3.org/1999/xlink">
    <!-- Generator: Sketch 52.2 (67145) - http://www.bohemiancoding.com/sketch -->
    <title>Combined Shape</title>
    <desc>Created with Sketch.</desc>
    <g id="Symbols" stroke="none" stroke-width="1" fill="none" fill-rule="evenodd">
        <g id="-左边栏-日志记录" transform="translate(-21.000000, -153.000000)" fill="#333333">
            <path d="M33,164.5 L34,164.5 C34.2761424,164.5 34.5,164.723858 34.5,165 C34.5,165.276142 34.2761424,165.5 34,165.5 L32.5,165.5 C32.2238576,165.5 32,165.276142 32,165 L32,162.5 C32,162.223858 32.2238576,162 32.5,162 C32.7761424,162 33,162.223858 33,162.5 L33,164.5 Z M34,159.207032 C33.6777176,159.115879 33.3434098,159.053368 33,159.022422 L33,156 C33,155.447715 32.5522847,155 32,155 L30,155 L30,155.5 C30,155.776142 29.7761424,156 29.5,156 C29.2238576,156 29,155.776142 29,155.5 L29,155 L26,155 L26,155.5 C26,155.776142 25.7761424,156 25.5,156 C25.2238576,156 25,155.776142 25,155.5 L25,155 L23,155 C22.4477153,155 22,155.447715 22,156 L22,166 C22,166.552285 22.4477153,167 23,167 L27.5997096,167 C27.7826058,167.357782 28.0035339,167.692892 28.2571621,168 L23,168 C21.8954305,168 21,167.104569 21,166 L21,156 C21,154.895431 21.8954305,154 23,154 L25,154 L25,153.5 C25,153.223858 25.2238576,153 25.5,153 C25.7761424,153 26,153.223858 26,153.5 L26,154 L29,154 L29,153.5 C29,153.223858 29.2238576,153 29.5,153 C29.7761424,153 30,153.223858 30,153.5 L30,154 L32,154 C33.1045695,154 34,154.895431 34,156 L34,159.207032 Z M28.2571621,161 C28.0035339,161.307108 27.7826058,161.642218 27.5997096,162 L23.5,162 C23.2238576,162 23,161.776142 23,161.5 C23,161.223858 23.2238576,161 23.5,161 L28.2571621,161 Z M23.5,158 L31.5,158 C31.7761424,158 32,158.223858 32,158.5 C32,158.776142 31.7761424,159 31.5,159 L23.5,159 C23.2238576,159 23,158.776142 23,158.5 C23,158.223858 23.2238576,158 23.5,158 Z M23.5,164 L26.5,164 C26.7761424,164 27,164.223858 27,164.5 C27,164.776142 26.7761424,165 26.5,165 L23.5,165 C23.2238576,165 23,164.776142 23,164.5 C23,164.223858 23.2238576,164 23.5,164 Z M32.5,169 C30.0147186,169 28,166.985281 28,164.5 C28,162.014719 30.0147186,160 32.5,160 C34.9852814,160 37,162.014719 37,164.5 C37,166.985281 34.9852814,169 32.5,169 Z M32.5,168 C34.4329966,168 36,166.432997 36,164.5 C36,162.567003 34.4329966,161 32.5,161 C30.5670034,161 29,162.567003 29,164.5 C29,166.432997 30.5670034,168 32.5,168 Z" id="Combined-Shape"></path>
        </g>
    </g>
</svg>