<?xml version="1.0" encoding="UTF-8"?>
<svg width="16px" height="16px" viewBox="0 0 16 16" version="1.1" xmlns="http://www.w3.org/2000/svg" xmlns:xlink="http://www.w3.org/1999/xlink">
    <!-- Generator: Sketch 52.2 (67145) - http://www.bohemiancoding.com/sketch -->
    <title>Fill 1</title>
    <desc>Created with Sketch.</desc>
    <g id="Symbols" stroke="none" stroke-width="1" fill="none" fill-rule="evenodd">
        <g id="-左边栏-日志记录" transform="translate(-21.000000, -73.000000)" fill="#333333">
            <path d="M35.4406842,84.0721669 L32.8418904,82.8926948 C32.3063164,82.6499154 32,82 32,81.5 C32,81 32.1225957,80.354593 32.4071565,80.0925175 C32.7539515,79.7707802 33.0205692,79.3088599 33.2070096,78.7067566 L33.2069901,78.7067505 C33.9264451,76.3832941 32.6261449,73.9165269 30.3026884,73.197072 C29.8807969,73.0664339 29.4416546,73 29,73 C29,73 29,73 29,73 C29,73 29,73 29,73 L29,73 C26.5786835,73 24.6158186,74.9628649 24.6158186,77.3841814 C24.6158186,77.7715279 24.6671513,78.1571663 24.768476,78.5310254 C24.9587437,79.2331998 25.2236716,79.7446923 25.5632239,80.0655126 C25.8715248,80.356472 26,81 26,81.5 C26,82 25.6936836,82.6517944 25.1581096,82.8946701 L22.5593158,84.0740459 C21.6126739,84.5038121 21,85.4385295 21,86.4580197 L21,88 C21,88.5522848 21.4477153,89 22,89 L36,89 C36.5522847,89 37,88.5522848 37,88 L37,86.4561407 C37,85.4385295 36.3873261,84.5019331 35.4406842,84.0721669 Z M22.0059412,87.5 L22.0059412,87.5 C22.0026987,87.2271194 22.2212836,87.0032774 22.4941643,87.0000349 C22.4961212,87.0000116 22.4980782,87 22.5000353,87 L30.5,87 C30.7761424,87 31,86.7761424 31,86.5 L31,86.5 C31,86.2238576 30.7761424,86 30.5,86 L22.0118824,86 C22.0039608,85.3333333 23.3333333,84.5037756 26,83.5113268 C26.78261,83.1566493 27,82.0003979 27,81.5 C27,80.9996021 26.7865197,79.9864732 26.3478332,79.5721246 C26.0495287,79.2895466 25.8256749,78.8278748 25.676272,78.1871093 L25.6762192,78.1871216 C25.2482076,76.3514482 26.3893431,74.5163689 28.2250166,74.0883574 C28.4790879,74.0291173 28.7391138,73.9992042 29,73.9992042 C29,73.9992042 29,73.9992042 29,73.9992042 C29,73.9992042 29,73.9992042 29,73.9992042 L29,73.9992042 C30.8939268,73.9992042 32.4292578,75.5345352 32.4292578,77.428462 C32.4292578,77.7059958 32.3955665,77.9825034 32.3289233,78.251917 C32.1818557,78.8463553 31.9470801,79.2928585 31.6245728,79.5914207 C31.2015978,79.9845941 31,81 31,81.5 C31,82 31.2194157,83.1547702 32,83.5113268 C34.6666667,84.5037756 36,85.3333333 36,86 L33.5,86 C33.2238576,86 33,86.2238576 33,86.5 L33,86.5 C33,86.7761424 33.2238576,87 33.5,87 L35.5,87 C35.7761424,87 36,87.2238576 36,87.5 L36,87.5 C36,87.7761424 35.7761424,88 35.5,88 L22.5119177,88 C22.2348,88 22.0092338,87.7770982 22.0059412,87.5 Z" id="Fill-1"></path>
        </g>
    </g>
</svg>