<?xml version="1.0" encoding="UTF-8"?>
<svg width="16px" height="16px" viewBox="0 0 16 16" version="1.1" xmlns="http://www.w3.org/2000/svg" xmlns:xlink="http://www.w3.org/1999/xlink">
    <!-- Generator: Sketch 52.2 (67145) - http://www.bohemiancoding.com/sketch -->
    <title>合并形状</title>
    <desc>Created with Sketch.</desc>
    <g id="Symbols" stroke="none" stroke-width="1" fill="none" fill-rule="evenodd">
        <g id="-左边栏-日志记录" transform="translate(-22.000000, -34.000000)" fill="#333333">
            <g id="分组" transform="translate(22.000000, 34.000000)">
                <path d="M3.1370697,14.5 L15.5,14.5 C15.7761424,14.5 16,14.7238576 16,15 C16,15.2761424 15.7761424,15.5 15.5,15.5 L2,15.5 L0.105993828,15.5 C0.0507653526,15.5 0.00599382763,15.4552285 0.00599382763,15.4 C0.00599382763,15.3856542 0.00907445385,15.3716598 0.014838849,15.358881 L1.19424219,11.7802421 C1.29214551,11.4831761 1.45835918,11.2132137 1.67953022,10.9920427 L4.00462036,8.66695251 C3.95906232,7.84453789 4.25041541,7.0069439 4.87867966,6.37867966 L9.82842712,1.42893219 C11,0.257359313 12.8994949,0.257359313 14.0710678,1.42893219 C15.2426407,2.60050506 15.2426407,4.5 14.0710678,5.67157288 L9.12132034,10.6213203 C8.4930561,11.2495846 7.65546211,11.5409377 6.83304749,11.4953796 L4.50652083,13.8219063 C4.28626881,14.0421583 4.0176169,14.2079216 3.72197335,14.3059869 L3.1370697,14.5 Z M5.7064936,11.20772 C5.4071538,11.0647236 5.12661634,10.869257 4.87867966,10.6213203 C4.63074297,10.3733837 4.43527643,10.0928462 4.29228004,9.7935064 L2.32260518,11.7631813 C2.14268974,11.9430967 1.99875706,12.15569 1.89852868,12.3895562 L1.08807218,14.2806214 C1.07729152,14.3057763 1.07729152,14.3342504 1.08807218,14.3594052 C1.10982775,14.4101682 1.16861564,14.4336834 1.21937862,14.4119278 L3.11044378,13.6014713 C3.34430999,13.5012429 3.5569033,13.3573103 3.73681874,13.1773948 L5.7064936,11.20772 Z M13.363961,2.13603897 C12.5829124,1.35499039 11.3165825,1.35499039 10.5355339,2.13603897 L5.58578644,7.08578644 C4.80473785,7.86683502 4.80473785,9.13316498 5.58578644,9.91421356 C6.36683502,10.6952621 7.63316498,10.6952621 8.41421356,9.91421356 L13.363961,4.96446609 C14.1450096,4.18341751 14.1450096,2.91708755 13.363961,2.13603897 Z" id="合并形状"></path>
            </g>
        </g>
    </g>
</svg>