<?xml version="1.0" encoding="UTF-8"?>
<svg width="188px" height="25px" viewBox="0 0 188 25" version="1.1" xmlns="http://www.w3.org/2000/svg" xmlns:xlink="http://www.w3.org/1999/xlink">
    <!-- Generator: Sketch 57 (83077) - https://sketch.com -->
    <title>矩形备份 2</title>
    <desc>Created with Sketch.</desc>
    <defs>
        <polygon id="path-1" points="0.0010041841 0.0120502092 11.9859414 0.0120502092 11.9859414 10.4435314 0.0010041841 10.4435314"></polygon>
    </defs>
    <g id="更改需求页面" stroke="none" stroke-width="1" fill="none" fill-rule="evenodd">
        <g id="首页2" transform="translate(-1089.000000, -76.000000)">
            <g id="编组-2" transform="translate(1089.000000, 76.000000)">
                <g id="编组备份" transform="translate(183.500000, 18.500000) scale(-1, 1) rotate(27.000000) translate(-183.500000, -18.500000) translate(178.000000, 12.000000)" fill="#F7B500">
                    <path d="M5.65413774,9.52995386 L9.81770803,10.0290149 C10.1334736,10.0668637 10.4016982,10.2778131 10.5129038,10.5757624 C10.5826036,10.7625066 10.4877203,10.9703956 10.300976,11.0400954 C10.2610431,11.0549999 10.2187857,11.0627129 10.1761622,11.0628769 L5.69292052,11.0801293 C5.23460817,11.0818929 4.85960768,10.7157042 4.85047501,10.2574794 C4.84256981,9.86084258 5.15769907,9.53289648 5.5543359,9.52499129 C5.58767804,9.52432676 5.62102599,9.52598497 5.65413774,9.52995386 Z" id="矩形" transform="translate(7.763992, 10.257479) rotate(-39.000000) translate(-7.763992, -10.257479) "></path>
                    <path d="M1.67114735,1.70072291 L6.26564017,1.96461279 C6.49659335,1.97787785 6.67306445,2.17585585 6.65979939,2.40680903 C6.65858839,2.42789334 6.65578454,2.44885587 6.65141182,2.46951728 C6.59179624,2.75120516 6.35123503,2.9582849 6.06381302,2.97533369 L1.65127703,3.23706872 C1.23253408,3.26190698 0.872940465,2.94258413 0.848102209,2.52384118 C0.847032152,2.50580132 0.846606269,2.48772902 0.846825373,2.46965878 C0.85204607,2.03908968 1.20532351,1.69427666 1.63589262,1.69949736 C1.64765193,1.69963994 1.65940652,1.70004856 1.67114735,1.70072291 Z" id="矩形备份-4" transform="translate(3.794643, 2.469659) rotate(18.000000) translate(-3.794643, -2.469659) "></path>
                    <path d="M1.90414982,6.11615439 L6.4694736,6.46407982 C6.77527942,6.48738542 7.0122314,6.74110455 7.01460711,7.04778795 C7.01693321,7.34806883 6.77662851,7.59401864 6.47637456,7.59866435 L1.91901228,7.66917868 C1.47310259,7.67607807 1.10602831,7.3201899 1.09912892,6.87428022 C1.09909675,6.87220116 1.09907261,6.87012198 1.0990565,6.86804274 C1.09585538,6.45480491 1.42825581,6.11721443 1.84149364,6.11401331 C1.86239977,6.11385136 1.88330351,6.11456568 1.90414982,6.11615439 Z" id="矩形备份-3" transform="translate(4.055781, 6.868043) rotate(-11.000000) translate(-4.055781, -6.868043) "></path>
                </g>
                <path d="M10,3 L169.52327,3 C175.073905,3 179.612008,7.42609784 179.750693,12.975 C179.88502,18.3495652 175.636968,22.8154053 170.262403,22.9497331 C170.182246,22.9517365 170.102067,22.9527494 170.021885,22.9527717 L9.99999961,22.9972222 C4.47868624,22.9987559 0.00153408385,18.5240904 3.85695294e-07,13.002777 C1.285651e-07,13.0018513 1.13361725e-19,13.0009257 0,13 C-6.76353751e-16,7.4771525 4.4771525,3 10,3 Z" id="矩形" fill="#F8B600" transform="translate(90.000000, 13.000000) scale(1, -1) translate(-90.000000, -13.000000) "></path>
                <g id="yinlianglabashengyin" transform="translate(8.000000, 8.000000)">
                    <mask id="mask-2" fill="white">
                        <use xlink:href="#path-1"></use>
                    </mask>
                    <g id="Clip-2"></g>
                    <path d="M6.22195816,10.4314812 C6.18580753,10.4314812 6.05988285,10.376569 5.99430962,10.3109289 L5.99032636,10.3069456 L2.9054728,7.76170711 L0.42441841,7.76170711 C0.305238494,7.76170711 0.17939749,7.70005021 0.120485356,7.64115481 C0.0615899582,7.58224268 -1.22568622e-13,7.45640167 -1.22568622e-13,7.33720502 L-1.22568622e-13,3.06609205 C-1.22568622e-13,2.97241841 0.0361506276,2.89337238 0.0589121339,2.87062762 L0.0883849372,2.87062762 L0.120485356,2.8385272 C0.17939749,2.77954812 0.305238494,2.71795816 0.42441841,2.71795816 L2.9054728,2.71795816 L5.99032636,0.0964351464 L5.99293724,0.0937573222 C6.07061088,0.016083682 6.1656569,2.66453526e-14 6.23129707,2.66453526e-14 C6.29020921,2.66453526e-14 6.35047699,0.0134058577 6.39996653,0.0388284519 L6.4067113,0.0428284519 L6.41337238,0.0455062762 C6.5807364,0.101723849 6.64369874,0.196853556 6.64369874,0.398995816 L6.64369874,10.0096736 C6.64369874,10.2118828 6.5807364,10.308318 6.41337238,10.3631632 L6.38932218,10.3712134 L6.37056067,10.3899749 C6.3303431,10.4301088 6.29556485,10.4314812 6.22195816,10.4314812 Z M9.95881172,9.36435146 C9.82629289,9.36435146 9.64952301,9.29608368 9.59866109,9.19566527 C9.478159,8.95462762 9.52098745,8.70828452 9.70443515,8.57839331 C9.76870293,8.55164854 9.85976569,8.4820251 9.97620084,8.36950628 C10.0953808,8.25307113 10.2761506,8.05223431 10.4609038,7.7576569 C10.768887,7.26490377 11.1357155,6.42279498 11.1357155,5.20169038 C11.1357155,3.98058577 10.7474477,3.13708787 10.4220753,2.64304603 C10.2279665,2.34845188 10.0364854,2.14761506 9.91062762,2.03248536 C9.82224268,1.95077824 9.71109623,1.85839331 9.62943933,1.8249205 C9.46076987,1.70312971 9.40187448,1.4045523 9.51025941,1.22913808 C9.6361841,1.10728033 9.78609205,1.0376569 9.92266109,1.0376569 C9.99496234,1.0376569 10.0619079,1.05641841 10.1208201,1.09387448 C10.1302259,1.10192469 10.1422594,1.1112636 10.1610209,1.12604184 C10.5546611,1.43534728 10.8960502,1.81419247 11.1759331,2.25203347 C11.7128033,3.09420921 11.9859414,4.08635983 11.9859414,5.20169038 C11.9859414,6.32237657 11.7221423,7.31851046 11.2040335,8.16200837 C10.9348787,8.59983264 10.6082008,8.97737238 10.2319498,9.28132218 C10.209205,9.30008368 10.1971715,9.30942259 10.1877657,9.31884519 C10.1422594,9.36435146 10.0096736,9.36435146 9.95881172,9.36435146 Z M8.3574728,7.6867113 C8.2463431,7.6867113 8.05491213,7.55682008 7.99732218,7.44169038 L7.99464435,7.43494561 L7.99064435,7.4296569 C7.88082008,7.26359833 8.00130544,7.02262762 8.18475314,6.89807531 C8.27046025,6.85256904 9.00020084,6.42279498 9.00020084,5.12669456 C9.00020084,4.50411715 8.75914644,4.07702092 8.5556318,3.82793305 C8.33472803,3.5574728 8.11245188,3.43429289 8.10440167,3.42893724 L8.09643515,3.42495397 L8.08701255,3.42225941 C8.00935565,3.39683682 7.93435983,3.30845188 7.89559833,3.19730544 C7.85675314,3.086159 7.86480335,2.97509623 7.91429289,2.90010042 L7.92232636,2.88801674 L7.92639331,2.87467782 C7.96522176,2.75948117 8.13519665,2.65906276 8.29189958,2.65906276 C8.35211715,2.65906276 8.40702929,2.673841 8.4485523,2.70194142 L8.47665272,2.72065272 L8.4967364,2.72065272 C8.55700418,2.74346444 8.88637657,2.90815063 9.21305439,3.28164017 C9.50359833,3.61506276 9.85035983,4.19345607 9.85035983,5.05171548 C9.85035983,6.02778243 9.52235983,6.66108787 9.24784937,7.02125523 C8.94527197,7.41625105 8.6372887,7.58629289 8.57302092,7.61173222 L8.5409205,7.61173222 L8.50875314,7.64383264 C8.46594142,7.68403347 8.43246862,7.6867113 8.3574728,7.6867113 Z" id="Fill-1" fill="#E02020" mask="url(#mask-2)"></path>
                </g>
            </g>
        </g>
    </g>
</svg>