<?xml version="1.0" encoding="UTF-8"?>
<svg width="14px" height="16px" viewBox="0 0 14 16" version="1.1" xmlns="http://www.w3.org/2000/svg" xmlns:xlink="http://www.w3.org/1999/xlink">
    <!-- Generator: Sketch 52.3 (67297) - http://www.bohemiancoding.com/sketch -->
    <title>新手指引@3x</title>
    <desc>Created with Sketch.</desc>
    <defs>
        <rect id="path-1" x="0" y="0" width="16" height="16"></rect>
    </defs>
    <g id="更改需求页面" stroke="none" stroke-width="1" fill="none" fill-rule="evenodd">
        <g id="首页2" transform="translate(-1300.000000, -349.000000)">
            <g id="新手引导" transform="translate(1300.000000, 349.000000)">
                <mask id="mask-2" fill="white">
                    <use xlink:href="#path-1"></use>
                </mask>
                <use id="Mask" fill="#D8D8D8" fill-rule="nonzero" opacity="0" xlink:href="#path-1"></use>
                <path d="M2,1 L12,1 C12.5522847,1 13,1.44771525 13,2 L13,7.00054795 L14,7.00054795 L14,2 C14,0.8954305 13.1045695,-8.37472233e-13 12,-8.51985149e-13 L1.99999995,-8.24229573e-13 C0.895430449,-8.24026667e-13 -5.18142792e-08,0.8954305 -5.18142791e-08,2 L-5.29946489e-08,14 C-5.29946488e-08,15.1045695 0.895430447,16 1.99999995,16 L5.99321811,16 L6,15 L2,15 C1.44771525,15 1,14.5522847 1,14 L1,2 C1,1.44771525 1.44771525,1 2,1 Z" id="Fill-3" fill="#02ADFF" mask="url(#mask-2)"></path>
                <path d="M2.49647913,4.008 L7.49228356,4.008 C7.7677178,4.008 7.99100137,3.78471643 7.99100137,3.50928219 L7.99100137,3.50928219 C7.99100137,3.23384795 7.7677178,3.01056438 7.49228356,3.01056438 L2.49647913,3.01056438 C2.22104489,3.01056438 1.99776132,3.23384795 1.99776132,3.50928219 L1.99776132,3.50928219 C1.99776132,3.78471643 2.22104489,4.008 2.49647913,4.008 Z M2.49647913,9.99303014 L7.49228356,9.99303014 C7.7677178,9.99303014 7.99100137,9.76974657 7.99100137,9.49431233 L7.99100137,9.49431233 C7.99100137,9.21887809 7.7677178,8.99559452 7.49228356,8.99559452 L2.49647913,8.99559452 C2.22104489,8.99559452 1.99776132,9.21887809 1.99776132,9.49431233 L1.99776132,9.49431233 C1.99776132,9.76974657 2.22104489,9.99303014 2.49647913,9.99303014 Z M2.496512,7.00054795 L10.4888158,7.00054795 C10.7642682,7.00054795 10.9875665,6.77724966 10.9875665,6.50179726 L10.9875665,6.50179726 C10.9875665,6.22634486 10.7642682,6.00304658 10.4888158,6.00304658 L2.496512,6.00304658 C2.2210596,6.00304658 1.99776132,6.22634486 1.99776132,6.50179726 L1.99776132,6.50179726 C1.99776132,6.77724966 2.2210596,7.00054795 2.496512,7.00054795 Z" id="Fill-4" fill="#02ADFF" mask="url(#mask-2)"></path>
                <polygon id="矩形" fill="#02ADFF" mask="url(#mask-2)" transform="translate(11.213643, 11.930932) rotate(-44.000000) translate(-11.213643, -11.930932) " points="11.3559898 9.93120592 17.0712969 11.9706871 11.3559898 13.930658 5.35598979 11.9309319"></polygon>
                <polygon id="矩形-copy-3" fill="#FFFFFF" mask="url(#mask-2)" transform="translate(9.881895, 13.253806) rotate(-46.000000) translate(-9.881895, -13.253806) " points="11.8954968 12.2538059 11.8954968 14.2538059 7.86829233 13.2538059"></polygon>
            </g>
        </g>
    </g>
</svg>