<?xml version="1.0" encoding="UTF-8"?>
<svg width="64px" height="64px" viewBox="0 0 64 64" version="1.1" xmlns="http://www.w3.org/2000/svg" xmlns:xlink="http://www.w3.org/1999/xlink">
    <!-- Generator: Sketch 52.2 (67145) - http://www.bohemiancoding.com/sketch -->
    <title>合并形状</title>
    <desc>Created with Sketch.</desc>
    <g id="Page-1" stroke="none" stroke-width="1" fill="none" fill-rule="evenodd">
        <g id="第一步" transform="translate(-1231.000000, -627.000000)" fill="#C0CCDA">
            <g id="分组-2" transform="translate(610.000000, 172.000000)">
                <g id="分组-3" transform="translate(621.000000, 455.000000)">
                    <path d="M45.2295246,32.7371966 L16,32.7371966 C15.4477153,32.7371966 15,32.2894813 15,31.7371966 C15,31.1849118 15.4477153,30.7371966 16,30.7371966 L45.2480736,30.7371966 L35.6321973,21.1213203 C35.2416731,20.7307961 35.2416731,20.0976311 35.6321973,19.7071068 C36.0227216,19.3165825 36.6558866,19.3165825 37.0464109,19.7071068 L48.3601194,31.0208153 C48.7506437,31.4113396 48.7506437,32.0445046 48.3601194,32.4350288 L37.0278619,43.7672863 C36.6373376,44.1578106 36.0041727,44.1578106 35.6136484,43.7672863 C35.2231241,43.376762 35.2231241,42.7435971 35.6136484,42.3530728 L45.2295246,32.7371966 Z" id="合并形状"></path>
                </g>
            </g>
        </g>
    </g>
</svg>