<?xml version="1.0" encoding="UTF-8"?>
<svg width="148px" height="91px" viewBox="0 0 148 91" version="1.1" xmlns="http://www.w3.org/2000/svg" xmlns:xlink="http://www.w3.org/1999/xlink">
    <!-- Generator: Sketch 57 (83077) - https://sketch.com -->
    <title>编组</title>
    <desc>Created with Sketch.</desc>
    <defs>
        <linearGradient x1="71.0762354%" y1="43.1258679%" x2="17.5612604%" y2="56.8741321%" id="linearGradient-1">
            <stop stop-color="#D4DFF1" offset="0%"></stop>
            <stop stop-color="#FFFFFF" stop-opacity="0" offset="100%"></stop>
        </linearGradient>
        <linearGradient x1="28.1872722%" y1="16.8294996%" x2="80.2274806%" y2="100%" id="linearGradient-2">
            <stop stop-color="#E0E8F4" offset="0%"></stop>
            <stop stop-color="#D0DAEA" offset="100%"></stop>
        </linearGradient>
        <linearGradient x1="31.3302457%" y1="-11.3125166%" x2="62.190813%" y2="85.4494883%" id="linearGradient-3">
            <stop stop-color="#85A6DB" offset="0%"></stop>
            <stop stop-color="#C6D4EE" offset="100%"></stop>
        </linearGradient>
        <linearGradient x1="26.5542228%" y1="16.8294996%" x2="85.1401131%" y2="100%" id="linearGradient-4">
            <stop stop-color="#EDF3FD" offset="0%"></stop>
            <stop stop-color="#D0DAEA" offset="100%"></stop>
        </linearGradient>
        <polygon id="path-5" points="0 0 40.1671309 8.63396288 40.1671309 45.6549935 0.755425922 34.26523"></polygon>
        <linearGradient x1="76.9619195%" y1="50%" x2="50%" y2="100%" id="linearGradient-7">
            <stop stop-color="#B4C9E7" offset="0%"></stop>
            <stop stop-color="#BECFEC" stop-opacity="0.101788949" offset="100%"></stop>
        </linearGradient>
        <linearGradient x1="26.5542228%" y1="16.8294996%" x2="82.4905158%" y2="100%" id="linearGradient-8">
            <stop stop-color="#EDF3FD" offset="0%"></stop>
            <stop stop-color="#D0DAEA" offset="100%"></stop>
        </linearGradient>
        <polygon id="path-9" points="0.832869081 0 40.8328691 11.5 41 45.6549935 1.588295 34.26523"></polygon>
        <linearGradient x1="50%" y1="0%" x2="50%" y2="100%" id="linearGradient-11">
            <stop stop-color="#EDF3FD" offset="0%"></stop>
            <stop stop-color="#D6E3FA" offset="100%"></stop>
        </linearGradient>
        <linearGradient x1="50%" y1="36.6937224%" x2="82.8314148%" y2="65.3833908%" id="linearGradient-12">
            <stop stop-color="#E5ECF8" offset="0%"></stop>
            <stop stop-color="#C6D4EE" offset="100%"></stop>
        </linearGradient>
    </defs>
    <g id="用户中心" stroke="none" stroke-width="1" fill="none" fill-rule="evenodd">
        <g id="用户中心-消息中心3" transform="translate(-995.000000, -327.000000)">
            <g id="编组" transform="translate(983.000000, 327.000000)">
                <polygon id="路径-2" fill="url(#linearGradient-1)" points="103.5 35 10 53 65.5 84.5 143.5 46.5"></polygon>
                <polygon id="Mask" fill="url(#linearGradient-2)" transform="translate(88.250000, 20.327497) scale(-1, 1) translate(-88.250000, -20.327497) " points="71.5 0 105.5 5 104.667131 40.6549935 71 34.5"></polygon>
                <polygon id="Rectangle-19" fill="url(#linearGradient-3)" points="70.7715877 4.83009079 105.487465 20.2927363 105.487465 57.3333333 71.9005594 40.0414548"></polygon>
                <g id="Path-15" transform="translate(105.487465, 11.678340)">
                    <mask id="mask-6" fill="white">
                        <use xlink:href="#path-5"></use>
                    </mask>
                    <use id="Mask" fill="url(#linearGradient-4)" transform="translate(20.083565, 22.827497) scale(-1, 1) translate(-20.083565, -22.827497) " xlink:href="#path-5"></use>
                    <polygon fill="url(#linearGradient-7)" style="mix-blend-mode: multiply;" opacity="0.218582589" mask="url(#mask-6)" points="9.50414927 1.70456981 46.7482079 36.8550332 41.1357855 -6.60342729"></polygon>
                </g>
                <g id="Path-15备份" transform="translate(125.500000, 23.000000) scale(-1, 1) translate(-125.500000, -23.000000) translate(105.000000, 0.000000)">
                    <mask id="mask-10" fill="white">
                        <use xlink:href="#path-9"></use>
                    </mask>
                    <use id="Mask" fill="url(#linearGradient-8)" transform="translate(20.916435, 22.827497) scale(-1, 1) translate(-20.916435, -22.827497) " xlink:href="#path-9"></use>
                </g>
                <polygon id="Path-106" fill="url(#linearGradient-11)" points="70.8319801 4.54474708 57 18.7689088 91.2983877 35.6472114 105.200557 20.198657"></polygon>
                <polygon id="Path-106-Copy" fill="url(#linearGradient-12)" transform="translate(132.743733, 23.805447) scale(-1, 1) translate(-132.743733, -23.805447) " points="120.193738 11.6783398 105.487465 27.0555198 145.223407 35.9325551 160 20.1886115"></polygon>
                <text id="暂无消息" font-family="PingFangSC-Regular, PingFang SC" font-size="14" font-weight="normal" fill="#99A9BF">
                    <tspan x="86" y="89">暂无消息</tspan>
                </text>
            </g>
        </g>
    </g>
</svg>