<?xml version="1.0" encoding="UTF-8"?>
<svg width="24px" height="24px" viewBox="0 0 24 24" version="1.1" xmlns="http://www.w3.org/2000/svg" xmlns:xlink="http://www.w3.org/1999/xlink">
    <!-- Generator: Sketch 53.2 (72643) - https://sketchapp.com -->
    <title>合并形状 copy 6</title>
    <desc>Created with Sketch.</desc>
    <g id="Page-1" stroke="none" stroke-width="1" fill="none" fill-rule="evenodd">
        <g id="签署合同1" transform="translate(-1061.000000, -668.000000)" fill="#0073BD">
            <path d="M1073.53553,676.5 L1073.53553,685 C1073.53553,685.276142 1073.31168,685.5 1073.03553,685.5 C1072.75939,685.5 1072.53553,685.276142 1072.53553,685 L1072.53553,676.5 L1069.85355,679.181981 C1069.65829,679.377243 1069.34171,679.377243 1069.14645,679.181981 C1068.95118,678.986718 1068.95118,678.670136 1069.14645,678.474874 L1072.32843,675.292893 C1072.71895,674.902369 1073.35212,674.902369 1073.74264,675.292893 L1076.92462,678.474874 C1077.11988,678.670136 1077.11988,678.986718 1076.92462,679.181981 C1076.72936,679.377243 1076.41278,679.377243 1076.21751,679.181981 L1073.53553,676.5 Z M1068.32837,691.057371 C1066.89893,690.454005 1065.61455,689.586473 1064.51399,688.485913 C1063.41087,687.382829 1062.54603,686.100936 1061.94263,684.671503 C1061.31599,683.190344 1061,681.618421 1061,679.999951 C1061,678.381481 1061.31851,676.807002 1061.94263,675.328367 C1062.54603,673.898935 1063.41343,672.614549 1064.51399,671.51399 C1065.6172,670.410873 1066.89893,669.546027 1068.32837,668.942629 C1069.80966,668.31599 1071.38148,668 1072.99995,668 C1074.62108,668 1076.19287,668.318515 1077.6715,668.942629 C1079.10094,669.546027 1080.38535,670.41343 1081.48591,671.51399 C1082.58913,672.617204 1083.45401,673.898935 1084.05737,675.328367 C1084.68404,676.809656 1085,678.381481 1085,679.999951 C1085,681.618421 1084.68152,683.192869 1084.05737,684.671503 C1083.45401,686.100936 1082.58913,687.382829 1081.48857,688.485913 C1080.38535,689.589127 1079.10359,690.454005 1077.67416,691.057371 C1076.19287,691.684042 1074.62108,692 1073.00261,692 C1071.38148,692 1069.80966,691.684042 1068.32837,691.057371 Z M1062,680.000016 C1062,686.065614 1066.93439,691 1073.00002,691 C1079.06561,691 1084,686.065614 1084,680.000016 C1084,673.934386 1079.06561,669 1073.00002,669 C1066.93439,669 1062,673.931874 1062,680.000016 Z" id="合并形状-copy-6"></path>
        </g>
    </g>
</svg>