<?xml version="1.0" encoding="UTF-8"?>
<svg width="24px" height="24px" viewBox="0 0 24 24" version="1.1" xmlns="http://www.w3.org/2000/svg" xmlns:xlink="http://www.w3.org/1999/xlink">
    <!-- Generator: Sketch 53.2 (72643) - https://sketchapp.com -->
    <title>合并形状 copy 10</title>
    <desc>Created with Sketch.</desc>
    <g id="Page-1" stroke="none" stroke-width="1" fill="none" fill-rule="evenodd">
        <g id="签署合同1" transform="translate(-1034.000000, -668.000000)" fill="#E2E2E2">
            <path d="M1046.53553,676.5 L1046.53553,685 C1046.53553,685.276142 1046.31168,685.5 1046.03553,685.5 C1045.75939,685.5 1045.53553,685.276142 1045.53553,685 L1045.53553,676.5 L1042.85355,679.181981 C1042.65829,679.377243 1042.34171,679.377243 1042.14645,679.181981 C1041.95118,678.986718 1041.95118,678.670136 1042.14645,678.474874 L1045.32843,675.292893 C1045.71895,674.902369 1046.35212,674.902369 1046.74264,675.292893 L1049.92462,678.474874 C1050.11988,678.670136 1050.11988,678.986718 1049.92462,679.181981 C1049.72936,679.377243 1049.41278,679.377243 1049.21751,679.181981 L1046.53553,676.5 Z M1041.32837,691.057371 C1039.89893,690.454005 1038.61455,689.586473 1037.51399,688.485913 C1036.41087,687.382829 1035.54603,686.100936 1034.94263,684.671503 C1034.31599,683.190344 1034,681.618421 1034,679.999951 C1034,678.381481 1034.31851,676.807002 1034.94263,675.328367 C1035.54603,673.898935 1036.41343,672.614549 1037.51399,671.51399 C1038.6172,670.410873 1039.89893,669.546027 1041.32837,668.942629 C1042.80966,668.31599 1044.38148,668 1045.99995,668 C1047.62108,668 1049.19287,668.318515 1050.6715,668.942629 C1052.10094,669.546027 1053.38535,670.41343 1054.48591,671.51399 C1055.58913,672.617204 1056.45401,673.898935 1057.05737,675.328367 C1057.68404,676.809656 1058,678.381481 1058,679.999951 C1058,681.618421 1057.68152,683.192869 1057.05737,684.671503 C1056.45401,686.100936 1055.58913,687.382829 1054.48857,688.485913 C1053.38535,689.589127 1052.10359,690.454005 1050.67416,691.057371 C1049.19287,691.684042 1047.62108,692 1046.00261,692 C1044.38148,692 1042.80966,691.684042 1041.32837,691.057371 Z M1035,680.000016 C1035,686.065614 1039.93439,691 1046.00002,691 C1052.06561,691 1057,686.065614 1057,680.000016 C1057,673.934386 1052.06561,669 1046.00002,669 C1039.93439,669 1035,673.931874 1035,680.000016 Z" id="合并形状-copy-10"></path>
        </g>
    </g>
</svg>