<?xml version="1.0" encoding="UTF-8"?>
<svg width="24px" height="24px" viewBox="0 0 24 24" version="1.1" xmlns="http://www.w3.org/2000/svg" xmlns:xlink="http://www.w3.org/1999/xlink">
    <!-- Generator: Sketch 53.2 (72643) - https://sketchapp.com -->
    <title>合并形状 copy 8</title>
    <desc>Created with Sketch.</desc>
    <g id="Page-1" stroke="none" stroke-width="1" fill="none" fill-rule="evenodd">
        <g id="签署合同1" transform="translate(-1094.000000, -668.000000)" fill="#02ADFF">
            <path d="M1106.53553,676.5 L1106.53553,685 C1106.53553,685.276142 1106.31168,685.5 1106.03553,685.5 C1105.75939,685.5 1105.53553,685.276142 1105.53553,685 L1105.53553,676.5 L1102.85355,679.181981 C1102.65829,679.377243 1102.34171,679.377243 1102.14645,679.181981 C1101.95118,678.986718 1101.95118,678.670136 1102.14645,678.474874 L1105.32843,675.292893 C1105.71895,674.902369 1106.35212,674.902369 1106.74264,675.292893 L1109.92462,678.474874 C1110.11988,678.670136 1110.11988,678.986718 1109.92462,679.181981 C1109.72936,679.377243 1109.41278,679.377243 1109.21751,679.181981 L1106.53553,676.5 Z M1101.32837,691.057371 C1099.89893,690.454005 1098.61455,689.586473 1097.51399,688.485913 C1096.41087,687.382829 1095.54603,686.100936 1094.94263,684.671503 C1094.31599,683.190344 1094,681.618421 1094,679.999951 C1094,678.381481 1094.31851,676.807002 1094.94263,675.328367 C1095.54603,673.898935 1096.41343,672.614549 1097.51399,671.51399 C1098.6172,670.410873 1099.89893,669.546027 1101.32837,668.942629 C1102.80966,668.31599 1104.38148,668 1105.99995,668 C1107.62108,668 1109.19287,668.318515 1110.6715,668.942629 C1112.10094,669.546027 1113.38535,670.41343 1114.48591,671.51399 C1115.58913,672.617204 1116.45401,673.898935 1117.05737,675.328367 C1117.68404,676.809656 1118,678.381481 1118,679.999951 C1118,681.618421 1117.68152,683.192869 1117.05737,684.671503 C1116.45401,686.100936 1115.58913,687.382829 1114.48857,688.485913 C1113.38535,689.589127 1112.10359,690.454005 1110.67416,691.057371 C1109.19287,691.684042 1107.62108,692 1106.00261,692 C1104.38148,692 1102.80966,691.684042 1101.32837,691.057371 Z M1095,680.000016 C1095,686.065614 1099.93439,691 1106.00002,691 C1112.06561,691 1117,686.065614 1117,680.000016 C1117,673.934386 1112.06561,669 1106.00002,669 C1099.93439,669 1095,673.931874 1095,680.000016 Z" id="合并形状-copy-8"></path>
        </g>
    </g>
</svg>