<?xml version="1.0" encoding="UTF-8"?>
<svg width="28px" height="28px" viewBox="0 0 28 28" version="1.1" xmlns="http://www.w3.org/2000/svg" xmlns:xlink="http://www.w3.org/1999/xlink">
    <!-- Generator: Sketch 52.3 (67297) - http://www.bohemiancoding.com/sketch -->
    <title>Fill 1</title>
    <desc>Created with Sketch.</desc>
    <g id="Page-2" stroke="none" stroke-width="1" fill="none" fill-rule="evenodd">
        <g id="首页" transform="translate(-1871.000000, -748.000000)" fill="#FFFFFF">
            <g id="QQ-2" transform="translate(1871.000000, 748.000000)">
                <path d="M13.9999414,0.0348340307 C6.2680778,0.0348340307 0,6.30278169 0,14.0346776 C0,21.76673 6.2680778,28.034834 13.9999414,28.034834 C21.7319613,28.034834 28,21.7668864 28,14.0346776 C28,6.30278169 21.7318049,0.0348340307 13.9999414,0.0348340307 Z M21.9094361,18.3240801 C21.3151556,18.833594 20.5433612,16.646606 20.4324736,16.9829063 C20.1621364,17.8012721 20.0355307,18.3482049 19.2393379,19.2391015 C19.196719,19.2867646 20.1598686,19.6347167 20.4324736,20.3776194 C20.6936615,21.0893592 21.2019611,22.2172809 17.8761564,22.5711762 C15.9246767,22.7787588 14.514497,21.5311907 14.3739717,21.5434291 C14.1135659,21.5663418 14.2294973,21.5434291 13.9495415,21.5434291 C13.7204156,21.5434291 13.705323,21.5600857 13.489804,21.5434291 C13.430372,21.5390108 12.7818598,22.5711762 9.88115004,22.5711762 C7.63290151,22.5711762 7.05097659,21.1559467 7.5029332,20.3776194 C7.9553199,19.5994093 8.70967571,19.3727458 8.60320648,19.2493458 C8.07965782,18.642668 7.71841316,17.9938794 7.5029332,17.4075338 C7.44960083,17.2616511 7.40487046,17.1194439 7.36956318,16.9829063 C7.28788334,16.6699487 6.66181455,18.821082 5.98976419,18.3240801 C5.31775292,17.8272346 5.37777139,16.5627362 5.8127586,15.3523132 C6.25173401,14.1322716 7.35720759,12.9575861 7.36956318,12.6980785 C7.41370705,11.7331262 7.27443295,11.5727374 7.36956318,11.3193685 C7.58171964,10.7516345 7.83985768,10.9692659 7.83985768,10.6746464 C7.83985768,6.96349583 10.5979308,3.95477929 13.9999414,3.95477929 C17.4017955,3.95477929 20.1598686,6.96349583 20.1598686,10.6746464 C20.1598686,10.8171664 20.5294807,10.6746464 20.7064863,11.3193685 C20.7430056,11.4525436 20.7680296,11.9663194 20.7248242,12.6980785 C20.7043358,13.049706 21.661855,13.4775007 22.1568607,15.3523132 C22.652492,17.2274385 22.1568607,18.1117663 21.9094361,18.3240801 Z" id="Fill-1"></path>
            </g>
        </g>
    </g>
</svg>