<?xml version="1.0" encoding="UTF-8"?>
<svg width="40px" height="18px" viewBox="0 0 40 18" version="1.1" xmlns="http://www.w3.org/2000/svg" xmlns:xlink="http://www.w3.org/1999/xlink">
    <!-- Generator: Sketch 59 (86127) - https://sketch.com -->
    <title>路径</title>
    <desc>Created with Sketch.</desc>
    <g id="实名认证/人工审核" stroke="none" stroke-width="1" fill="none" fill-rule="evenodd">
        <g id="企业实名认证—对公转账1" transform="translate(-870.000000, -195.000000)" fill-rule="nonzero">
            <g id="tuijian" transform="translate(870.000000, 195.000000)">
                <path d="M8.8,0 L36.8,0 C38.5673112,0 40,1.4471604 40,3.23232323 L40,14.5454545 C40,16.3306174 38.5673112,17.7777778 36.8,17.7777778 L8.8,17.7777778 C7.0326888,17.7777778 5.6,16.3306174 5.6,14.5454545 L5.6,12.0905051 L0,8.93737374 L5.6,5.55070707 L5.6,3.23232323 C5.6,1.4471604 7.0326888,0 8.8,0 Z" id="路径" fill="#EA3721"></path>
                <path d="M31.735346,11.6330393 L31.735346,13.1194221 C31.735346,13.8266526 31.3783782,14.1862613 30.6763414,14.1862613 L29.2373642,14.1862613 L28.9041942,13.0834612 C29.4634438,13.131409 29.9037042,13.1553829 30.2249753,13.1553829 C30.4629539,13.1553829 30.5930488,13.0355134 30.5930488,12.7957742 L30.5930488,11.6330393 L27.4406259,11.6330393 L27.4406259,10.554213 L30.5930488,10.554213 L30.5930488,9.97883902 C30.902421,9.77506073 31.3188835,9.51134765 31.8424364,9.18769978 L28.2735509,9.18769978 L28.2735509,8.15682138 L33.4606908,8.15682138 L33.4606908,8.97193454 C32.9609357,9.36750416 32.3778882,9.79903465 31.735346,10.278513 L31.735346,10.554213 L34.2222222,10.554213 L34.2222222,11.6330393 L31.735346,11.6330393 L31.735346,11.6330393 Z M31.5925589,5.724268 L30.451055,5.724268 L30.451055,4.94511571 L27.5715141,4.94511571 L27.5715141,5.71228104 L26.4292169,5.71228104 L26.4292169,4.94511571 L23.8114525,4.94511571 L23.8114525,3.90225035 L26.4292169,3.90225035 L26.4292169,3.14707199 L27.5715141,3.14707199 L27.5715141,3.90225035 L30.451055,3.90225035 L30.451055,3.14707199 L31.5925589,3.14707199 L31.5925589,3.90225035 L34.2103233,3.90225035 L34.2103233,4.94511571 L31.5925589,4.94511571 L31.5925589,5.724268 L31.5925589,5.724268 Z M24.0018354,7.44959085 L24.0018354,6.40752461 L27.3097377,6.40752461 C27.4406259,6.13182457 27.5596152,5.85612454 27.6667056,5.59241146 L28.761407,5.78420279 C28.6900135,5.99996803 28.606721,6.20374632 28.5234284,6.40752461 L34.1508286,6.40752461 L34.1508286,7.44959085 L28.0117745,7.44959085 C27.6548066,8.06092571 27.2383441,8.63629971 26.7623869,9.18769978 L26.7623869,14.2222222 L25.6795844,14.2222222 L25.6795844,10.2545391 C25.239324,10.6381217 24.7752658,10.9977305 24.2755108,11.3333653 L23.561575,10.3983826 C24.8942551,9.53532157 25.9294619,8.552391 26.6909934,7.44959085 L24.0018354,7.44959085 L24.0018354,7.44959085 Z M17.4217276,14.1383135 L16.3032283,14.1383135 L16.3032283,7.49753868 C16.0652497,7.84516047 15.8034732,8.18079529 15.5297979,8.51643012 L15.1490321,7.31773431 C16.0890475,6.04791587 16.7553876,4.66941568 17.1361533,3.15905894 L18.2308548,3.37482419 C18.0642698,3.9741721 17.861988,4.54954609 17.6240094,5.10094617 L19.4437523,5.10094617 C19.2533694,4.52557218 19.0391887,3.95019818 18.8012101,3.39879811 L19.8840127,3.11111111 C20.1457891,3.84231556 20.3599698,4.50159826 20.502757,5.10094617 L22.3232931,5.10094617 L22.3232931,6.19175937 L20.3837677,6.19175937 L20.3837677,7.56946043 L22.0853145,7.56946043 L22.0853145,8.63629971 L20.3837677,8.63629971 L20.3837677,9.96685206 L22.0853145,9.96685206 L22.0853145,11.0217044 L20.3837677,11.0217044 L20.3837677,12.5080872 L22.4541813,12.5080872 L22.4541813,13.5989004 L17.4217276,13.5989004 L17.4217276,14.1383135 L17.4217276,14.1383135 Z M19.2652683,6.19175937 L17.4217276,6.19175937 L17.4217276,7.56946043 L19.2652683,7.56946043 L19.2652683,6.19175937 L19.2652683,6.19175937 Z M19.2652683,8.63629971 L17.4217276,8.63629971 L17.4217276,9.96685206 L19.2652683,9.96685206 L19.2652683,8.63629971 L19.2652683,8.63629971 Z M19.2652683,12.5080872 L19.2652683,11.0217044 L17.4217276,11.0217044 L17.4217276,12.5080872 L19.2652683,12.5080872 L19.2652683,12.5080872 Z M14.339905,8.44450837 C14.6849739,8.30066488 15.0181439,8.14483442 15.3513139,7.97701701 L15.3513139,9.13975195 C15.0181439,9.29558241 14.673075,9.4394259 14.339905,9.5832694 L14.339905,12.843722 C14.339905,13.6228743 13.9353414,14.0184439 13.1381131,14.0184439 L12.0672095,14.0184439 L11.817332,12.9156438 C12.1386031,12.9635916 12.4479752,12.9875655 12.7454485,12.9875655 C13.0548206,12.9875655 13.2095067,12.843722 13.2095067,12.556035 L13.2095067,10.0147999 C12.7573474,10.1706304 12.2932892,10.3144739 11.8411299,10.4463304 L11.5555556,9.29558241 C12.1148052,9.17571282 12.662156,9.03186933 13.2095067,8.86405191 L13.2095067,6.34758982 L11.7816352,6.34758982 L11.7816352,5.24478967 L13.2095067,5.24478967 L13.2095067,3.13508503 L14.339905,3.13508503 L14.339905,5.24478967 L15.4465054,5.24478967 L15.4465054,6.34758982 L14.339905,6.34758982 L14.339905,8.44450837 L14.339905,8.44450837 Z" id="形状" fill="#FFFFFF"></path>
            </g>
        </g>
    </g>
</svg>