<?xml version="1.0" encoding="UTF-8"?>
<svg width="40px" height="38px" viewBox="0 0 40 38" version="1.1" xmlns="http://www.w3.org/2000/svg" xmlns:xlink="http://www.w3.org/1999/xlink">
    <!-- Generator: Sketch 52.3 (67297) - http://www.bohemiancoding.com/sketch -->
    <title>Group</title>
    <desc>Created with Sketch.</desc>
    <g id="更改需求页面" stroke="none" stroke-width="1" fill="none" fill-rule="evenodd">
        <g id="Ukey印章续期（NetCA）-核对资料" transform="translate(-410.000000, -610.000000)" fill="#C0CCDA">
            <g id="Group" transform="translate(410.000000, 610.000000)">
                <path d="M2.35204134,14.1544186 L35.28,14.1544186 L35.28,2.39447028 L28.2239276,2.39447028 L28.2239276,0.0424806202 L25.8718863,0.0424806202 L25.8718863,2.39447028 L9.40790698,2.39447028 L9.40790698,0.0424806202 L7.05607235,0.0424806202 L7.05607235,2.39447028 L-1.20792265e-13,2.39447028 L-1.20792265e-13,32.9704393 L16.4639793,32.9704393 L16.4639793,30.6183979 L2.35204134,30.6183979 L2.35204134,14.1544186 Z M2.35204134,4.74651163 L7.05607235,4.74651163 L7.05607235,7.09855297 L9.40790698,7.09855297 L9.40790698,4.74651163 L25.8718863,4.74651163 L25.8718863,7.09855297 L28.2239276,7.09855297 L28.2239276,4.74651163 L32.9279587,4.74651163 L32.9279587,11.8023773 L2.35204134,11.8023773 L2.35204134,4.74651163 Z" id="Fill-1"></path>
                <path d="M30.575969,25.9145736 L30.575969,21.210491 L28.2239276,21.210491 L28.2239276,28.2663566 L35.28,28.2663566 L35.28,25.9143669 L30.575969,25.9145736 Z M7.05607235,21.210491 L11.7599483,21.210491 L11.7599483,16.5064599 L7.05607235,16.5064599 L7.05607235,21.210491 Z M14.111938,21.210491 L18.8160207,21.210491 L18.8160207,16.5064599 L14.111938,16.5064599 L14.111938,21.210491 Z M7.05607235,28.2663566 L11.7599483,28.2663566 L11.7599483,23.5625323 L7.05607235,23.5625323 L7.05607235,28.2663566 Z" id="Fill-2"></path>
                <path d="M29.4000517,16.5064599 C23.519845,16.5064599 18.8160207,21.210491 18.8160207,27.090491 C18.8160207,32.9704393 23.519845,37.6744703 29.4000517,37.6744703 C35.28,37.6744703 39.983876,32.9704393 39.983876,27.090491 C39.983876,21.210491 35.28,16.5064599 29.4000517,16.5064599 Z M29.4000517,35.3224806 C24.9311628,35.3224806 21.168062,31.5591214 21.168062,27.090491 C21.168062,22.6218088 24.9311628,18.8584496 29.4000517,18.8584496 C33.8686822,18.8584496 37.6318346,22.6216021 37.6318346,27.090491 C37.6318346,31.5591214 33.8686822,35.3224806 29.4000517,35.3224806 Z" id="Fill-3"></path>
            </g>
        </g>
    </g>
</svg>