<?xml version="1.0" encoding="UTF-8"?>
<svg width="51px" height="50px" viewBox="0 0 51 50" version="1.1" xmlns="http://www.w3.org/2000/svg" xmlns:xlink="http://www.w3.org/1999/xlink">
    <!-- Generator: Sketch 52.3 (67297) - http://www.bohemiancoding.com/sketch -->
    <title>续期电子印章</title>
    <desc>Created with Sketch.</desc>
    <g id="更改需求页面" stroke="none" stroke-width="1" fill="none" fill-rule="evenodd">
        <g id="首页2" transform="translate(-1815.000000, -284.000000)" fill="#02ADFF">
            <g id="分组-6" transform="translate(1635.000000, 284.000000)">
                <path d="M225,44 L225,40 L227,40 L227,44 L231,44 L231,46 L227,46 L227,50 L225,50 L225,46 L221,46 L221,44 L225,44 Z M219,38 L211.205771,42.5 L210.205771,40.7679492 L217,36.8452995 L217,30 L219,30 L219,38 Z M187,42 C186.5,42 186,41.5 186,41 C186,40.5 186.5,40 187,40 L197,40 C197.5,40 198,40.5 198,41 C198,41.5 197.5,42 197,42 L187,42 Z M187,34 C186.5,34 186,33.5 186,33 C186,32.5 186.5,32 187,32 L201,32 C201.5,32 202,32.5 202,33 C202,33.5 201.5,34 201,34 L187,34 Z M187,26 C186.5,26 186,25.5 186,25 C186,24.5 186.5,24 187,24 L207,24 C207.5,24 208,24.5 208,25 C208,25.5 207.5,26 207,26 L187,26 Z M187,18 C186.5,18 186,17.5 186,17 C186,16.5 186.5,16 187,16 L215,16 C215.5,16 216,16.5 216,17 C216,17.5 215.5,18 215,18 L187,18 Z M216,-2.39808173e-14 C219.313708,-2.45895357e-14 222,2.6862915 222,6 L222,20 C222,20.5522847 221.552285,21 221,21 C220.447715,21 220,20.5522847 220,20 L220,5.99002869 C220,3.7808897 218.209139,1.99002869 216,1.99002869 L186.006456,1.99059002 C183.797536,1.99059002 182.006766,3.78110895 182.006456,5.99002873 L182,44 C182,44.0001871 182,44.0003742 182,44.0005613 C182,46.2097003 183.790861,48.0005613 186,48.0005613 L203,48 C203.552285,48 204,48.4477153 204,49 C204,49.5522847 203.552285,50 203,50 L186,50 C182.686292,50 180,47.3137085 180,44 L180,6 C180,2.6862915 182.686292,-2.51484558e-14 186,-2.57571742e-14 L216,-2.48689958e-14 Z M227.90285,39 C227.972454,38.5146526 228.008481,38.018857 228.008481,37.5150606 C228.008481,31.7481264 223.288391,27.0298652 217.519667,27.0298652 C211.750687,27.0298652 207.030938,31.7481264 207.030938,37.5150606 C207.030938,43.2816535 211.750687,48 217.519667,48 C218.368968,48 219.195539,47.8977288 219.987665,47.7048981 C219.991778,47.703897 219.995889,47.7028934 220,47.7018874 L220,49.7379853 C219.191633,49.9036959 218.355478,49.990765 217.499962,49.990765 C210.624865,49.990765 205,44.3676732 205,37.4953444 C205,30.6227868 210.624865,25 217.499962,25 C224.375135,25 230,30.6227868 230,37.4953444 C230,38.0043414 229.969144,38.5064856 229.90921,39 L227.90285,39 Z" id="续期电子印章"></path>
            </g>
        </g>
    </g>
</svg>