<?xml version="1.0" encoding="UTF-8"?>
<svg width="16px" height="16px" viewBox="0 0 16 16" version="1.1" xmlns="http://www.w3.org/2000/svg" xmlns:xlink="http://www.w3.org/1999/xlink">
    <!-- Generator: Sketch 52.2 (67145) - http://www.bohemiancoding.com/sketch -->
    <title>账户管理 copy 4</title>
    <desc>Created with Sketch.</desc>
    <g id="Symbols" stroke="none" stroke-width="1" fill="none" fill-rule="evenodd">
        <g id="-左边栏-账号管理" transform="translate(-21.000000, -193.000000)" fill="#333333">
            <path d="M32.4988978,200.999944 C32.6328074,200.999944 32.7710828,201.010231 32.9248973,201.029667 L33.0454506,201.386181 L33.1251567,201.630678 L33.3719257,201.707215 C33.5378863,201.758627 33.7027664,201.827154 33.8576832,201.905946 L34.0845256,202.024836 L34.3113681,201.910565 L34.6510914,201.741468 C34.875751,201.91737 35.077091,202.120809 35.2586125,202.34587 L35.0881565,202.682837 L34.9752756,202.912517 L35.0904258,203.137578 C35.1745191,203.294135 35.241971,203.458613 35.2939702,203.626572 L35.3714718,203.869953 L35.6160579,203.949882 L35.9723147,204.069821 C35.9922412,204.224102 36,204.362338 36,204.491426 C36,204.627409 35.991139,204.772451 35.9723147,204.924455 L35.613767,205.043278 L35.3669981,205.125462 L35.2917873,205.371186 C35.241971,205.540193 35.1756214,205.703623 35.0926302,205.85556 L34.9741733,206.082897 L35.0870542,206.312555 L35.2553058,206.649633 C35.1623514,206.769572 35.0716015,206.876948 34.9764642,206.970668 C34.8790361,207.068895 34.7728334,207.160249 34.6521936,207.253947 L34.3146747,207.08485 L34.0856278,206.970668 L33.8587854,207.089469 C33.7005835,207.169398 33.5368057,207.236854 33.3730279,207.292818 L33.1262589,207.368218 L33.0488437,207.609323 L32.9259996,207.969139 C32.772185,207.991967 32.6316188,208 32.4977307,208 C32.366112,208 32.2255457,207.990829 32.0695267,207.969139 L31.9510914,207.610461 L31.8714718,207.36708 L31.6247028,207.293956 C31.4587206,207.237992 31.2938405,207.174017 31.1400259,207.090607 L30.9153879,206.971784 L30.6841366,207.085988 L30.3455155,207.255085 C30.2248757,207.159111 30.1197752,207.070033 30.0235358,206.971784 C29.9272099,206.878086 29.8342555,206.77071 29.7424897,206.650772 L29.9095742,206.315969 L30.0257402,206.08524 L29.9072833,205.86009 C29.8242922,205.703623 29.7568403,205.539055 29.7059434,205.373462 L29.630711,205.127827 L29.3872488,205.047808 L29.0287011,204.927869 C29.0076724,204.775932 29,204.633076 29,204.501713 C29,204.368006 29.0076724,204.227493 29.0287011,204.073302 L29.3861465,203.956755 L29.6296088,203.874483 L29.7059434,203.628848 C29.7579425,203.459751 29.8254809,203.294135 29.9072833,203.142108 L30.0257402,202.917069 L29.9095742,202.685202 L29.7413011,202.348124 C29.9172466,202.125339 30.1208775,201.919713 30.3444348,201.747225 L30.6807651,201.913956 L30.9120813,202.028227 L31.1389237,201.908289 C31.290469,201.828292 31.4565377,201.760903 31.6247028,201.707215 L31.8714718,201.631816 L31.9510914,201.388457 L32.0695267,201.029667 C32.2266479,201.010231 32.3671926,200.999944 32.4988978,200.999944 Z M32.5016208,200.000035 C32.7283576,200.000035 32.9550945,200.021731 33.2117072,200.062803 L33.4029948,200.088004 L33.6474671,200.815971 C33.8720005,200.884587 34.0832269,200.973717 34.2889448,201.081127 L34.9758305,200.737154 L35.1361621,200.851373 C35.5222153,201.132578 35.8594907,201.472019 36.1448775,201.859407 L36.2577059,202.019407 L35.913669,202.707464 C36.0210104,202.913133 36.1094283,203.125722 36.1791386,203.348579 L36.9091423,203.589673 L36.9368147,203.784025 C36.9799327,204.04456 37.0020534,204.275453 36.99985,204.495966 C36.99985,204.716546 36.9799327,204.948577 36.9368147,205.210251 L36.9091423,205.402237 L36.1791386,205.645674 C36.1106164,205.869692 36.0220905,206.083397 35.913669,206.286812 L36.2577059,206.974847 L36.1426957,207.135985 C35.9911346,207.343931 35.842965,207.522257 35.6825469,207.683372 C35.5254988,207.838841 35.3474534,207.990827 35.1361621,208.142791 L34.9780123,208.257122 L34.2933301,207.915403 C34.0854088,208.019421 33.8720005,208.110805 33.6474671,208.180559 L33.4074664,208.908527 L33.2149907,208.939397 C32.9550945,208.981674 32.7216825,209 32.5016208,209 C32.2792692,209 32.0481471,208.981674 31.7893309,208.940536 L31.5968552,208.909665 L31.3524045,208.181698 C31.1279359,208.113149 30.9166447,208.023952 30.7109052,207.916542 L30.0241059,208.258238 L29.8658913,208.144019 C29.6557666,207.993082 29.4766194,207.841118 29.3184048,207.684511 C29.1613783,207.523373 29.0098171,207.345159 28.8583424,207.137123 L28.7432458,206.975985 L29.086181,206.290294 C28.9777595,206.086879 28.88932,205.871946 28.8207114,205.649089 L28.0918094,205.405719 L28.0608318,205.213733 C28.0199172,204.95197 28,204.719961 28,204.499448 C28,204.278846 28.0188155,204.049092 28.0608318,203.787418 L28.0918094,203.595432 L28.8218131,203.355387 C28.8915234,203.131392 28.9799413,202.917687 29.0872827,202.711995 L28.7421441,202.023938 L28.8572623,201.867443 C29.1381775,201.477689 29.4777211,201.139386 29.8658913,200.857132 L30.0241059,200.743962 L30.7109052,201.088024 C30.9155429,200.980592 31.1301177,200.893672 31.3524045,200.824007 L31.5957535,200.093673 L31.7882292,200.062803 C32.0481471,200.02287 32.2726805,200.000035 32.5016208,200.000035 Z M32.4987841,203 C31.6723511,203 31,203.668831 31,204.498877 C31,205.3289 31.67117,206 32.4987841,206 C33.3276489,206 34,205.3289 34,204.498877 C34,203.668831 33.3276489,203 32.4987841,203 Z M32.5,205 C32.2238576,205 32,204.776142 32,204.5 C32,204.223858 32.2238576,204 32.5,204 C32.7761424,204 33,204.223858 33,204.5 C33,204.776142 32.7761424,205 32.5,205 Z M28.2800122,200.437735 C29.4879792,199.738272 30.3005227,198.461689 30.3005227,196.999972 C30.3005227,194.790846 28.4480253,193 26.1657517,193 C23.8845942,193 22.0342843,194.790846 22.0342843,196.999972 C22.0342843,198.461689 22.8434349,199.738272 24.051402,200.436597 C22.2525206,201.220547 21,202.969116 21,205.000028 L21,208.500559 C21,208.777121 21.2320309,209 21.5165395,209 C21.8022533,209 22.0342843,208.777121 22.0342843,208.49942 L22.0342843,205.000028 C22.0342843,202.789674 23.8845942,200.999792 26.1657517,200.999944 C26.6108751,200.999974 27.1216593,201.12371 27.6981044,201.371151 L27.6981,201.371162 C27.9742218,201.489688 28.2945764,201.429873 28.5093231,201.219692 L28.5093231,201.219692 C28.6871212,201.045675 28.6901863,200.760473 28.5161691,200.582674 C28.4862838,200.55214 28.4522064,200.526012 28.4149612,200.505077 C28.3697367,200.479655 28.3247534,200.457208 28.2800122,200.437735 Z M23.0662918,196.999972 C23.0662918,195.342876 24.4537229,194.000021 26.1657517,194.000021 C27.8776913,194.000021 29.2651001,195.344015 29.2651001,196.999972 C29.2651001,198.656041 27.8788297,200.000035 26.1668901,200.000035 C24.4548389,200.000035 23.0662918,198.657157 23.0662918,196.999972 Z" id="账户管理-copy-4"></path>
        </g>
    </g>
</svg>