<?xml version="1.0" encoding="UTF-8"?>
<svg width="16px" height="16px" viewBox="0 0 16 16" version="1.1" xmlns="http://www.w3.org/2000/svg" xmlns:xlink="http://www.w3.org/1999/xlink">
    <!-- Generator: Sketch 52.3 (67297) - http://www.bohemiancoding.com/sketch -->
    <title>Fill 3</title>
    <desc>Created with Sketch.</desc>
    <g id="Page-2" stroke="none" stroke-width="1" fill="none" fill-rule="evenodd">
        <g id="设置签署流程-hover" transform="translate(-1386.000000, -653.000000)" fill="#02ADFF">
            <g id="tongxunlu" transform="translate(1386.000000, 653.000000)">
                <path d="M9.51553676,8.5 C8.13484648,8.5 7.01560543,7.38067367 7.01560543,5.99998627 C7.01560543,4.61932633 8.13484648,3.5 9.51553676,3.5 C10.8962545,3.5 12.0156054,4.61932633 12.0156054,5.99998627 C12.0156054,6.66302933 11.7522061,7.29890907 11.2833334,7.76774404 C10.8144881,8.23660648 10.1785944,8.5 9.51553676,8.5 Z M9.51559444,4.5 C8.68714522,4.5 8.01560543,5.17155685 8.01560543,6 C8.01560543,6.82844315 8.68714522,7.5 9.51559444,7.5 C10.3440437,7.5 11.0156054,6.82844315 11.0156054,6 C11.0156054,5.60218117 10.8575754,5.22064424 10.5763206,4.93930361 C10.2949559,4.65802889 9.91343815,4.5 9.51559444,4.5 Z" id="Fill-1"></path>
                <path d="M13.5155368,11.9954075 L12.5155368,11.9954075 C12.5155368,10.4954075 11.5155368,8.99540752 9.51553676,8.99540752 C7.51553676,8.99540752 6.51553676,10.4954075 6.51553676,11.9954075 L5.51553676,11.9954075 C5.51553676,9.49540752 7.51553676,7.99540752 9.51553676,7.99540752 C11.5155368,7.99540752 13.5155368,9.49540752 13.5155368,11.9954075 Z M3.50130994,5 L0.501309935,5 C0.321094881,5 0.0013099351,4.68021505 0.0013099351,4.5 C0.0013099351,4.31978495 0.321094881,4.01735514 0.501309935,4.01735514 L3.50130994,4.01735514 C3.68143897,4.01735514 4.00130994,4.32846252 4.00130994,4.50867757 C4.00130994,4.68889262 3.68143897,5 3.50130994,5 Z M3.50130994,12 L0.501309935,12 C0.321094881,12 0.0013099351,11.6802151 0.0013099351,11.5 C0.0013099351,11.3197563 0.321094881,11 0.501309935,11 L3.50130994,11 C3.68143897,11 4.00130994,11.3197563 4.00130994,11.5 C4.00130994,11.6802151 3.68143897,12 3.50130994,12 Z" id="Fill-2"></path>
                <path d="M2.00130994,14.9989353 L2.00130994,13.5 C2.00130994,13.2238576 2.22516756,13 2.50130994,13 L2.50130994,13 C2.77745231,13 3.00130994,13.2238576 3.00130994,13.5 L3.00130994,14.5 C3.00130994,14.7761424 3.22516756,15 3.50130994,15 L14.4948496,15 C14.770992,15 14.9948496,14.7761424 14.9948496,14.5 L14.9948496,1.5 C14.9948496,1.22385763 14.770992,1 14.4948496,1 L3.50130994,1 C3.22516756,1 3.00130994,1.22385763 3.00130994,1.5 L3.00130994,2.51735514 C3.00130994,2.79349751 2.77745231,3.01735514 2.50130994,3.01735514 L2.50130994,3.01735514 C2.22516756,3.01735514 2.00130994,2.79349751 2.00130994,2.51735514 L2.00130994,1.01020789 C2.00130994,0.457923135 2.44902519,0.0102078853 3.00130994,0.0102078853 L15.0013099,0.0102078853 C15.5535947,0.0102078853 16.0013099,0.457923135 16.0013099,1.01020789 L16.0013099,14.9861661 C16.0013099,15.5380354 15.554243,15.9855783 15.002374,15.9861656 L3.00237403,15.9989348 C2.4500896,15.9995225 2.00189819,15.5522839 2.0013105,14.9999994 C2.00131012,14.9996447 2.00130994,14.99929 2.00130994,14.9989353 Z" id="Fill-3"></path>
                <path d="M2.50130994,10 L2.50130994,10 C2.77745231,10 3.00130994,9.77614237 3.00130994,9.5 L3.00130994,6.4950342 C3.00130994,6.21889183 2.77745231,5.9950342 2.50130994,5.9950342 L2.50130994,5.9950342 C2.22516756,5.9950342 2.00130994,6.21889183 2.00130994,6.4950342 L2.00130994,9.5 C2.00130994,9.77614237 2.22516756,10 2.50130994,10 Z" id="Fill-4"></path>
            </g>
        </g>
    </g>
</svg>