<?xml version="1.0" encoding="UTF-8"?>
<svg width="28px" height="22px" viewBox="0 0 28 22" version="1.1" xmlns="http://www.w3.org/2000/svg" xmlns:xlink="http://www.w3.org/1999/xlink">
    <!-- Generator: Sketch 52.3 (67297) - http://www.bohemiancoding.com/sketch -->
    <title>盖章1</title>
    <desc>Created with Sketch.</desc>
    <g id="Page-2" stroke="none" stroke-width="1" fill="none" fill-rule="evenodd">
        <g id="签署合同（多页签署）参数" transform="translate(-25.000000, -217.000000)" fill="#30BCFF">
            <g id="Group-3" transform="translate(25.000000, 217.000000)">
                <path d="M13.9999278,20.5 C8.81580311,20.5 4,18.2904675 4,15.0819345 C4,15.0595765 3.99967502,15.0440033 4,15.0213258 C4.00583487,14.6141562 4.06588847,14.1513909 4.22780447,13.75 L5.17093402,14.1737467 C5.05703178,14.4764902 5,14.7791909 5,15.0213258 C5,17.50354 9.55644997,19.5 13.9999278,19.5 C18.4434056,19.5 23,17.50354 23,15.0213258 C23,14.7185822 22.9431296,14.4764902 22.8292273,14.1737467 L23.7721955,13.75 C23.8860978,14.1737467 24,14.5975362 24,15.0213258 C24,18.2904675 19.1839315,20.5 13.9999278,20.5 Z" id="Fill-1"></path>
                <path d="M13.9694493,18 C8.40358987,18 4,15.7984985 4,13 C4,10.4446563 7.54580442,8.36492603 12.5,8 L12.5,9 C8.40222039,9.30419117 5,11.2469301 5,13.0112992 C5,14.8364032 8.74012406,17 14,17 C19.2600058,17 23,14.8364032 23,13.0112992 C23,11.2469301 19.6287607,9.30419117 15.5920393,9 L15.618946,8 C20.5119536,8.36492603 24,10.5168627 24,13.0112992 C23.9389419,15.8097977 19.5351788,18 13.9694493,18 Z" id="Fill-3"></path>
                <path d="M16,12 L12,12 L12,8 C10.5714215,7.33333333 10,5.94441167 10,4.5 C10,2.38888233 11.6189586,1 13.9998946,1 C16.3808306,1 18,2.44434283 18,4.5 C18,5.94441167 17.4880007,7.33333333 16,8 L16,12 Z M15,11 L15,7.83328417 C15,7.6111275 15.1786039,7.38897083 15.4166722,7.33331367 C16.6072245,6.94446083 17,5.5 17,4.5 C17,3.0000885 15.6665414,2 13.9998946,2 C12.3332479,2 11,3.055549 11,4.5 C11,5.61117667 11.3809746,6.94446083 12.5713583,7.33331367 C12.8095531,7.38897083 12.9879884,7.6111275 12.9879884,7.83328417 L12.9879884,11 L15,11 Z" id="Fill-4"></path>
            </g>
        </g>
    </g>
</svg>