<?xml version="1.0" encoding="UTF-8"?>
<svg width="12px" height="16px" viewBox="0 0 12 16" version="1.1" xmlns="http://www.w3.org/2000/svg" xmlns:xlink="http://www.w3.org/1999/xlink">
    <!-- Generator: Sketch 57 (83077) - https://sketch.com -->
    <title>合并形状</title>
    <desc>Created with Sketch.</desc>
    <g id="Page-2" stroke="none" stroke-width="1" fill="none" fill-rule="evenodd">
        <g id="发起合同-关键字签署" transform="translate(-1575.000000, -855.000000)" fill="#FFFFFF">
            <g id="合并形状-copy-13" transform="translate(1566.000000, 848.000000)">
                <g id="合并形状-2" transform="translate(9.230769, 8.076923)">
                    <path d="M6.46207827,0.0967418937 L11.3291003,4.77317821 C11.5973176,5.03089243 11.6058319,5.45724412 11.3481177,5.72546135 L11.3291003,5.74447873 L11.3291003,5.74447873 C11.046746,6.01577649 10.6005693,6.01577649 10.3182149,5.74447873 L6.484,2.061 L6.48403467,13.9230769 C6.48403467,14.1992193 6.26017705,14.4230769 5.98403467,14.4230769 L5.55442687,14.4230769 C5.27828449,14.4230769 5.05442687,14.1992193 5.05442687,13.9230769 L5.054,2.06 L1.22024659,5.74447873 C0.937892231,6.01577649 0.491715574,6.01577649 0.209361216,5.74447873 C-0.0588560175,5.48676451 -0.0673703892,5.06041282 0.190343834,4.79219559 C0.196555748,4.78573051 0.202896139,4.77939012 0.209361216,4.77317821 L5.07638327,0.0967418937 C5.46342717,-0.275145917 6.07503436,-0.275145917 6.46207827,0.0967418937 Z" id="合并形状"></path>
                </g>
            </g>
        </g>
    </g>
</svg>