<?xml version="1.0" encoding="UTF-8"?>
<svg width="30px" height="30px" viewBox="0 0 30 30" version="1.1" xmlns="http://www.w3.org/2000/svg" xmlns:xlink="http://www.w3.org/1999/xlink">
    <!-- Generator: Sketch 57 (83077) - https://sketch.com -->
    <title>Fill 4</title>
    <desc>Created with Sketch.</desc>
    <g id="Page-1" stroke="none" stroke-width="1" fill="none" fill-rule="evenodd">
        <g id="模板管理-新建模板" transform="translate(-510.000000, -327.000000)" fill="#C0CCDA">
            <g id="zhongguohangtiantubiaoheji-weizhuanlunkuo-" transform="translate(510.000000, 327.000000)">
                <path d="M20,30 L5,30 C2.790861,30 1,28.209139 1,26 L1,4 C1,1.790861 2.790861,4.05812251e-16 5,0 L19.5,0 L19.5,0 C19.7283573,0.000985626283 26.9990144,7.2673306 27,7.5 L27,16 C27,16.4805544 26.4805544,17 26,17 C25.5194456,17 25,16.4805544 25,16 L25,8 L19,2 L5,2 C3.8954305,2 3,2.8954305 3,4 L3,26 C3,27.1045695 3.8954305,28 5,28 L20,28 L20,28 C20.4805544,28 21,28.5195072 21,29 C21,29.4805544 20.4805544,30 20,30 Z" id="Fill-4"></path>
                <path d="M23.9151468,28.3369862 C23.4345924,28.3369862 23.0450236,27.9476633 23.0450236,27.4671089 L23.0450236,22.4032691 L20.5130728,25.6310719 C20.2062967,25.9677249 19.6920462,26.0108461 19.3335246,25.7300042 C18.975003,25.4491623 18.8938737,24.9392855 19.1470564,24.5609898 L23.2365431,19.340497 C23.4622515,19.0459795 23.850157,18.9273348 24.2022104,19.0448091 C24.5501365,19.1662875 24.7837915,19.4940083 24.78527,19.8626941 L24.78527,27.4495524 C24.7898285,27.6834539 24.7003213,27.9091623 24.5367073,28.0761643 C24.372847,28.2431664 24.1488018,28.3372321 23.9151468,28.3369862 Z" id="Fill-1"></path>
                <path d="M27.8999722,26.0053019 C27.6261529,26.0053019 27.3682269,25.8763081 27.2041201,25.6573142 L23.2276724,20.4368214 C23.022847,20.1909077 22.9694384,19.8525914 23.0888223,19.5556099 C23.2081447,19.25869 23.4807936,19.0510309 23.7986581,19.0154251 C24.1167689,18.979573 24.4289045,19.1210719 24.6110605,19.3840494 L28.5875082,24.6045422 C28.8776519,24.9867188 28.8035451,25.5317085 28.4221694,25.822653 C28.2724774,25.9386489 28.0893973,26.0028995 27.8999722,26.0053019 Z" id="Fill-3"></path>
                <path d="M26,10 L19,10 C17.8954305,10 17,9.1045695 17,8 L17,2 L17,2 L19,2 L19,7 C19,7.55228475 19.4477153,8 20,8 L26,8 L26,8 L26,10 Z M13,8 L6,8 C5.51944559,8 5,7.48030801 5,7 C5,6.51944559 5.51944559,6 6,6 L13,6 C13.4805544,6 14,6.51944559 14,7 C14,7.48030801 13.4805544,8 13,8 Z M22,14 L6,14 C5.51944559,14 5,13.4805544 5,13 C5,12.5194456 5.51944559,12 6,12 L22,12 C22.4805544,12 23,12.5194456 23,13 C23,13.4805544 22.4805544,14 22,14 Z M18.5,20 C10.4870363,20 6.32036961,20 6,20 C5.51944559,20 5,19.4805544 5,19 C5,18.5194456 5.51944559,18 6,18 L18.5,18 C18.9805544,18 19.5,18.5194456 19.5,19 C19.5,19.4805544 18.9805544,20 18.5,20 Z" id="Fill-5"></path>
            </g>
        </g>
    </g>
</svg>