<?xml version="1.0" encoding="UTF-8"?>
<svg width="56px" height="56px" viewBox="0 0 56 56" version="1.1" xmlns="http://www.w3.org/2000/svg" xmlns:xlink="http://www.w3.org/1999/xlink">
    <!-- Generator: Sketch 52.3 (67297) - http://www.bohemiancoding.com/sketch -->
    <title>Fill 1 Copy</title>
    <desc>Created with Sketch.</desc>
    <g id="Page-1" stroke="none" stroke-width="1" fill="none" fill-rule="evenodd">
        <g id="首页" transform="translate(-596.000000, -362.000000)" stroke="#02ADFF" stroke-width="1.5">
            <g id="Fill-1-Copy-3" transform="translate(596.000000, 362.000000)">
                <path d="M52.8512177,7.7422318 C52.069944,7.41608632 51.1574162,6.19913208 50.2073873,6.15663731 C47.0947927,5.63741611 42.8695081,6.43470256 39.5255783,8.16747782 C40.5131865,5.8367566 36.7569786,6.85715946 35.3256069,7.21953495 C30.7252327,8.37293211 26.5878414,10.4560062 22.9064014,13.3000612 C23.2314112,11.3196388 20.6437545,12.473036 18.7876824,13.9583905 C15.1312432,16.8867558 12.224983,20.3830263 10.4496947,24.616049 C8.86855286,28.3838181 8.83799794,32.156218 10.2567911,35.7066826 C15.0506086,30.5920632 19.6562245,25.7452928 25.525231,20.8300139 C32.0943369,15.3229784 39.9506694,11.0839929 44.507136,10.7036533 C27.3252075,19.0606313 14.056586,35.1367073 3,49.2542553 L24.0563582,49.2542553 L24.0563582,48.7554283 L4.6286805,48.7554283 C6.57184981,46.9009493 7.63507787,45.8750333 7.81836469,45.6776805 C9.09348157,44.3311321 10.1371852,42.7793559 11.4873043,41.4991537 C13.1875122,39.8869942 13.2872809,40.0196866 14.7500597,39.9833811 C17.5937399,39.9111475 20.4749993,39.7118825 23.2689905,39.2165128 C29.2127649,38.1659937 34.2879973,35.5454325 38.1693652,31.0226453 C39.1379884,29.8934014 40.0755169,27.9792497 37.5754409,28.0517852 C38.4567958,27.6472924 39.0882213,27.4058345 39.6693327,27.0917657 C44.2257212,24.6402023 48.4510058,21.8324528 51.126009,17.3880129 C51.8511092,16.1924229 52.675978,13.8980072 50.2320756,14.3446929 C51.5761008,13.0768693 52.9073132,12.0322376 53.9635953,10.7820762 C55.5447371,8.92845878 55.1324589,8.66005848 52.8512177,7.7422318 Z" id="Fill-1-Copy"></path>
            </g>
        </g>
    </g>
</svg>