<?xml version="1.0" encoding="UTF-8"?>
<svg width="56px" height="56px" viewBox="0 0 56 56" version="1.1" xmlns="http://www.w3.org/2000/svg" xmlns:xlink="http://www.w3.org/1999/xlink">
    <!-- Generator: Sketch 52.3 (67297) - http://www.bohemiancoding.com/sketch -->
    <title>Fill 4</title>
    <desc>Created with Sketch.</desc>
    <g id="Page-1" stroke="none" stroke-width="1" fill="none" fill-rule="evenodd">
        <g id="首页" transform="translate(-1266.000000, -362.000000)" fill="#008877">
            <g id="签字-copy" transform="translate(1266.000000, 362.000000)">
                <path d="M41,45.0000893 C41,46.1048081 40.1048081,47 38.9999107,47 C37.8951919,47 37,46.1048081 37,45.0000893 C37,43.8951919 37.8951919,43 38.9999107,43 C40.1048081,43 41,43.8951919 41,45.0000893 Z" id="Fill-1"></path>
                <path d="M39.0030975,50 C38.5284938,50 38.1048951,49.7463667 37.8869206,49.3443878 C37.771277,49.1279375 37.4828097,49.0351732 37.2516028,49.146645 C36.7384244,49.3999691 36.1031066,49.2700989 35.731315,48.849799 C35.4938527,48.5776902 35.3911208,48.2373995 35.448702,47.8786333 C35.4872766,47.6313389 35.3140518,47.3964131 35.0574226,47.3593074 C34.5891543,47.2850186 34.2107064,46.975804 34.0631445,46.5430581 C33.9155827,46.1100804 34.0309055,45.6401515 34.3645235,45.3185683 C34.5505798,45.1392239 34.5505798,44.8547464 34.3645235,44.675402 C34.0309055,44.3538188 33.9155827,43.883658 34.0631445,43.4509122 C34.2107064,43.0179344 34.5891543,42.7026129 35.0574226,42.634431 C35.3140518,42.597248 35.4872766,42.3623222 35.448702,42.1150278 C35.3911208,41.7626005 35.4938527,41.4162801 35.731315,41.1441713 C36.1031066,40.7299011 36.7384244,40.5997217 37.2516028,40.8534323 C37.3158403,40.8845083 37.3928291,40.9029066 37.4633219,40.9029066 C37.643203,40.9029066 37.8035963,40.8102195 37.8803445,40.6556122 C38.0986398,40.2473717 38.5219177,40 38.996762,40 C39.4713657,40 39.8949644,40.2537106 40.1129389,40.6556122 C40.2285825,40.8721398 40.5173706,40.9648268 40.7482567,40.8534323 C41.2614351,40.5997217 41.8967529,40.7299011 42.2688653,41.150201 C42.5060068,41.4223098 42.6088189,41.7626005 42.5511575,42.1213667 C42.5125829,42.3686611 42.6858077,42.6035869 42.942437,42.6407699 C43.4107854,42.7150588 43.7891532,43.0242733 43.936715,43.4569419 C44.0845976,43.8899969 43.968954,44.3598485 43.635336,44.6814317 C43.4555351,44.8607761 43.4555351,45.1452536 43.635336,45.324598 C43.968954,45.6462585 44.0845976,46.1164193 43.936715,46.5490878 C43.7891532,46.9821429 43.4107854,47.2973871 42.942437,47.3656463 C42.6858077,47.4024428 42.5125829,47.6376778 42.5511575,47.8849722 C42.6088189,48.2373995 42.5060068,48.5837972 42.2688653,48.8558287 C41.8967529,49.2700989 41.2614351,49.3999691 40.7482567,49.1526747 C40.5237061,49.0415121 40.2285825,49.1342764 40.1129389,49.3507267 C39.9015406,49.7527056 39.4713657,50 39.0030975,50 Z M37.5445866,48.1511474 C37.9953589,48.1511474 38.3971111,48.3896691 38.604305,48.7675103 C38.6833918,48.9128618 38.8293866,49 39.0000438,49 C39.1704725,49 39.3227091,48.9128618 39.3958587,48.7675103 C39.5968109,48.3840004 40.0048047,48.1511474 40.455577,48.1511474 C40.6381086,48.1511474 40.8268819,48.1920638 40.9913734,48.2732426 C41.1801467,48.3663402 41.4052284,48.3141591 41.5393487,48.1688076 C41.6003195,48.0989662 41.6672274,47.9884991 41.6368562,47.8258508 C41.5334115,47.2094878 41.9779421,46.6280819 42.6231205,46.5290249 C42.7937776,46.5000999 42.9275935,46.3953015 42.9763853,46.2383219 C43.0313426,46.081633 42.9885642,45.918694 42.8669272,45.8022675 C42.403976,45.3605443 42.403976,44.6394557 42.8669272,44.1977325 C42.9885642,44.081306 43.0313426,43.9186577 42.9763853,43.7616781 C42.9216562,43.6046985 42.7875359,43.4999001 42.6231205,43.4709751 C41.9779421,43.3722088 41.5334115,42.7908029 41.6368562,42.1744399 C41.6612141,42.0117916 41.6003195,41.9010338 41.5393487,41.8314831 C41.4052284,41.6861317 41.1801467,41.6336598 40.9913734,41.7267574 C40.8268819,41.8082269 40.6381086,41.8488526 40.455577,41.8488526 C40.0048047,41.8488526 39.6027481,41.6103309 39.3958587,41.2324897 C39.3167718,41.0871382 39.1704725,41 39.0000438,41 C38.8293866,41 38.6771501,41.0871382 38.604305,41.2324897 C38.4033528,41.6162903 37.9953589,41.8488526 37.5445866,41.8488526 C37.3620551,41.8488526 37.1732057,41.8082269 37.0087902,41.7267574 C36.820017,41.6336598 36.5946308,41.6861317 36.4608149,41.8314831 C36.3998442,41.8953651 36.3329363,42.0117916 36.3633074,42.1744399 C36.4667521,42.7908029 36.0222215,43.3722088 35.3767387,43.4709751 C35.2063861,43.4999001 35.0722657,43.6046985 35.0234739,43.7616781 C34.968821,43.9186577 35.011295,44.0756373 35.1332364,44.1977325 C35.5961877,44.6394557 35.5961877,45.3605443 35.1332364,45.8022675 C35.011295,45.918694 34.968821,46.081633 35.0234739,46.2383219 C35.0785074,46.3953015 35.2063861,46.5000999 35.3767387,46.5290249 C36.0222215,46.6280819 36.4667521,47.2094878 36.3633074,47.8258508 C36.3389496,47.9884991 36.3998442,48.0989662 36.4608149,48.1688076 C36.5946308,48.3141591 36.820017,48.3663402 37.0087902,48.2732426 C37.1732057,48.1977325 37.3620551,48.1511474 37.5445866,48.1511474 Z" id="Fill-2"></path>
                <path d="M45.0653319,55.0194879 L20.1505971,55.0194879 L10.0072357,51.4580353 C8.84340588,51.1959124 6.94736805,50.0062828 6.94736805,47.9084916 L6.99112612,5.9854557 C6.99343026,3.7779482 8.78361524,1.98963078 10.9911239,1.98963078 L45.0653319,1.98963078 C47.2744709,1.98963078 49.0653319,3.78049178 49.0653319,5.98963078 L49.0653319,31.1434021 L49.0653319,38.6991116 L49.0653319,51.0194879 C49.0653319,53.2286269 47.2744709,55.0194879 45.0653319,55.0194879 Z M20.8802207,53.304662 L44.9473681,53.304662 C46.0519376,53.304662 46.9473681,52.4092315 46.9473681,51.304662 L46.9473681,32.1929945 L46.9473681,5.98963078 C46.9473681,4.88506128 46.0519376,3.98963078 44.9473681,3.98963078 L10.9473681,3.98963078 C9.84279855,3.98963078 8.94736805,4.88506128 8.94736805,5.98963078 L8.94736805,47.9460965 C8.94736805,48.8184327 9.54457302,49.5890199 10.3740244,49.7814719 L10.5176577,49.8268589 L19.8812777,53.1334626 C20.2021397,53.2467696 20.5399402,53.304662 20.8802207,53.304662 Z" id="Fill-4"></path>
                <path d="M18,22.6745351 L21.4808847,22.6745351 L21.4808847,20.680647 L18,20.680647 L18,22.6745351 Z M24,22.6806714 L38.2147064,22.6806714 L38.2147064,20.6745108 L24,20.6745108 L24,22.6806714 Z M22,13.3603215 L36.2147064,13.3603215 L36.2147064,11.3541609 L22,11.3541609 L22,13.3603215 Z M15,26.7352867 L42.9268958,26.7352867 L42.9268958,24.680647 L15,24.680647 L15,26.7352867 Z M41.3109149,36.0111848 L42.0072346,36.0111848 L42.0072346,33.9996505 L41.3109149,33.9996505 L41.3109149,36.0111848 Z M39.9186324,36.0076781 L40.614952,36.0076781 L40.614952,34.0067761 L39.9186324,34.0067761 L39.9186324,36.0076781 Z M38.5318422,36.0134852 L39.2281618,36.0134852 L39.2281618,34.0032694 L38.5318422,34.0032694 L38.5318422,36.0134852 Z M37.1454086,36.010792 L37.8414429,36.010792 L37.8414429,34.002007 L37.1454086,34.002007 L37.1454086,36.010792 Z M35.7530547,36.0116898 L36.449089,36.0116898 L36.449089,34.0107598 L35.7530547,34.0107598 L35.7530547,36.0116898 Z M34.3663359,36.0098102 L35.0626555,36.0098102 L35.0626555,34.0079263 L34.3663359,34.0079263 L34.3663359,36.0098102 Z M32.979617,36.0052374 L33.6758653,36.0052374 L33.6758653,34.0038024 L32.979617,34.0038024 L32.979617,36.0052374 Z M31.5872631,36.0132047 L32.2835827,36.0132047 L32.2835827,34.007225 L31.5872631,34.007225 L31.5872631,36.0132047 Z M30.2008296,36.0093332 L30.8967925,36.0093332 L30.8967925,34.0084594 L30.2008296,34.0084594 L30.2008296,36.0093332 Z M28.8081904,36.0147757 L29.50451,36.0147757 L29.50451,34.0032694 L28.8081904,34.0032694 L28.8081904,36.0147757 Z M27.4217568,36.0130924 L28.1177198,36.0130924 L28.1177198,34.0089082 L27.4217568,34.0089082 L27.4217568,36.0130924 Z M26.0349666,36.0085758 L26.7312862,36.0085758 L26.7312862,33.9984722 L26.0349666,33.9984722 L26.0349666,36.0085758 Z M24.6426841,36.0014711 L25.3389323,36.0014711 L25.3389323,33.9990009 L24.6426841,33.9990009 L24.6426841,36.0014711 Z M23.2558939,36.0053267 L23.9522135,36.0053267 L23.9522135,34.0002768 L23.2558939,34.0002768 L23.2558939,36.0053267 Z M21.8694603,35.9947386 L22.5654946,35.9947386 L22.5654946,34.0099239 L21.8694603,34.0099239 L21.8694603,35.9947386 Z M20.4771064,36.0007769 L21.1731407,36.0007769 L21.1731407,34.0022045 L20.4771064,34.0022045 L20.4771064,36.0007769 Z M19.0903876,36.0167989 L19.7867072,36.0167989 L19.7867072,33.9999401 L19.0903876,33.9999401 L19.0903876,36.0167989 Z M17.7035974,36.0055114 L18.399917,36.0055114 L18.399917,34.0103699 L17.7035974,34.0103699 L17.7035974,36.0055114 Z M16.3113148,36.0105891 L17.0076344,36.0105891 L17.0076344,34.001484 L16.3113148,34.001484 L16.3113148,36.0105891 Z M14.9248099,36.0062547 L15.6208442,36.0062547 L15.6208442,33.9971669 L14.9248099,33.9971669 L14.9248099,36.0062547 Z M20.2714632,54 L10,50.3584526 L10.2056588,49.7541337 C10.3369053,49.7835541 10.4861552,49.8027785 10.6167866,49.7939174 C12.2967208,49.6799628 13.2029562,48.3025402 13.0722062,47.267084 C12.9414561,46.2316279 12.7192534,46.2262122 12.4740935,45.886633 L13.8039957,44.7335788 L22.4266647,53.3395929 L20.2714632,54 Z M12.606721,51.0560415 L20.4952352,53.5426503 L14.4682354,47.7123946 C14.4740844,47.7767244 14.4740844,47.8353457 14.4740844,47.8996023 C14.4796481,48.9768147 13.5028348,50.6403498 12.606721,51.0560415 Z" id="Fill-5"></path>
            </g>
        </g>
    </g>
</svg>