<?xml version="1.0" encoding="UTF-8"?>
<svg width="56px" height="56px" viewBox="0 0 56 56" version="1.1" xmlns="http://www.w3.org/2000/svg" xmlns:xlink="http://www.w3.org/1999/xlink">
    <!-- Generator: Sketch 52.3 (67297) - http://www.bohemiancoding.com/sketch -->
    <title>Fill 1</title>
    <desc>Created with Sketch.</desc>
    <g id="Page-1" stroke="none" stroke-width="1" fill="none" fill-rule="evenodd">
        <g id="首页" transform="translate(-1043.000000, -362.000000)" fill="#66B355">
            <g id="Group-7-Copy" transform="translate(1043.000000, 362.000000)">
                <path d="M11.9166667,45 L21.0833333,45 C21.5416667,45 22,44.5 22,44 C22,43.5 21.5416667,43 21.0833333,43 L11.9166667,43 C11.4583333,43 11,43.5 11,44 C11,44.5 11.4583333,45 11.9166667,45 Z M11.9375,37 L25.0625,37 C25.53125,37 26,36.5 26,36 C26,35.5 25.53125,35 25.0625,35 L11.9375,35 C11.46875,35 11,35.5 11,36 C11,36.5 11.46875,37 11.9375,37 Z M11.8636364,29 L29.1363636,29 C29.5681818,29 30,28.5 30,28 C30,27.5 29.5681818,27 29.1363636,27 L11.8636364,27 C11.4318182,27 11,27.5 11,28 C11,28.5 11.4318182,29 11.8636364,29 Z M12,13 L40,13 C40.5,13 41,12.5 41,12 C41,11.5 40.5,11 40,11 L12,11 C11.5,11 11,11.5 11,12 C11,12.5 11.5,13 12,13 Z M12,21 L40,21 C40.5,21 41,20.5 41,20 C41,19.5 40.5,19 40,19 L12,19 C11.5,19 11,19.5 11,20 C11,20.5 11.5,21 12,21 Z" id="Fill-1"></path>
                <path d="M43,3 L9,3 C6.75372314,3 5,4.81060791 5,7 L5,49 C5,51.2357788 6.77789307,53 9,53 L28,53 C28.5,53 29,52.5 29,52 C29,51.5 28.5,51 28,51 L9,51.0002806 C7.8954305,51.0002806 7,50.1048501 7,49.0002806 C7,49.0001871 7.00000001,49.0000935 7.00000002,49 L7.00645626,6.99002871 C7.00661124,5.88556882 7.90199634,4.99030936 9.00645624,4.99030936 L43,4.99002869 C44.1045695,4.99002869 45,5.88545919 45,6.99002869 L45,19.3544652 C45,19.8802902 45.5,20.3544652 46,20.3544652 C46.5,20.3544652 47.0128407,19.8802902 47.0128407,19.3544652 L47.0128407,7 C47.0128407,4.79638672 45.2427368,3 43,3 Z" id="Fill-2"></path>
                <path d="M41.7893922,36.951251 C41.8112716,36.9628347 41.833151,36.9719305 41.859814,36.983541 L41.8816934,36.9880354 C42.0005727,37.0134234 42.1123474,36.9971312 42.2216881,36.951251 L42.22633,36.9421552 L42.3551442,36.896275 L42.3673151,36.8916736 L42.3770236,36.8916736 C43.255796,36.632417 43.9672883,36.2194148 44.5473058,35.6800883 C45.1737711,35.0995899 45.6471935,34.3768495 45.9699507,33.5830817 C46.0575251,33.3580681 45.9482694,33.1124016 45.712662,33.0320377 C45.4748469,32.9403843 45.2102557,33.0527172 45.1203603,33.2755104 C44.8337764,33.9523706 44.4407107,34.5740675 43.9065749,35.0698146 C43.4331525,35.50569 42.8454927,35.8523196 42.1124607,36.065696 L42.0905529,36.0770925 L42.0370573,36.0861883 L41.9932701,36.1068679 L41.9521435,36.0861883 L41.920499,36.0770925 L41.8770515,36.065696 C41.1533033,35.8523196 40.5563596,35.50569 40.0876924,35.0698146 C39.5487731,34.5740675 39.155396,33.9523706 38.8714727,33.2755104 C38.7838984,33.0527172 38.514552,32.9403843 38.2889078,33.0320377 C38.0507531,33.1124016 37.9439316,33.3580681 38.0289585,33.5830817 C38.3542348,34.3769565 38.8154014,35.0995899 39.4514903,35.6800883 C40.0222239,36.2194148 40.7455475,36.632417 41.6171305,36.8916736 L41.6244048,36.8916736 L41.6390099,36.896275 L41.7578609,36.9421552 L41.7893922,36.951251 Z" id="Fill-1"></path>
                <path d="M50.1161636,49.1627699 L49.3761647,49.1627699 C49.2459931,46.3450983 48.6360011,44.2216177 47.7519012,42.6296959 C46.8141917,40.9314073 45.5854812,39.8445646 44.2949286,39.1800902 C45.5854812,38.5067663 46.8141917,37.4316311 47.740738,35.7660205 C48.667021,34.0766158 49.2942023,31.8348886 49.390061,28.8340278 L50.1161636,28.8340278 C50.6102426,28.8340278 51,28.4294274 51,27.9156021 C51,27.4075617 50.6102426,27 50.1161636,27 L33.8840998,27 C33.395553,27 33,27.4075617 33,27.9156021 C33,28.4294274 33.395553,28.8340278 33.8840998,28.8340278 L34.6126721,28.8340278 C34.7172243,31.8348886 35.333012,34.0766158 36.247967,35.7361661 C37.1943042,37.4316311 38.417219,38.5067663 39.7138307,39.1800902 C38.417219,39.8445646 37.1943042,40.9314073 36.2649259,42.5971557 C35.3696629,44.2216177 34.745544,46.1741003 34.6126721,48.9917719 L33.867141,48.9917719 C33.3784624,48.9917719 33,49.5703316 33,50.0666644 C33,50.5921628 33.3954213,51 33.8840998,51 L50.1160319,51 C50.6102426,51 50.9998683,50.5921628 50.9998683,50.0666644 C50.9998683,49.5703316 50.6102426,49.1627699 50.1161636,49.1627699 Z M36.0954032,46.0439034 C36.3611468,44.9158087 36.7226175,43.9735546 37.1633173,43.1879068 C38.2394309,41.2327055 39.7558821,40.2108398 41.2981832,39.7116835 L41.3603218,39.6732206 C41.4056003,39.661513 41.4364555,39.6465686 41.4619432,39.6231879 L41.5128856,39.581626 L41.5550687,39.5286319 C41.5863191,39.4902724 41.6002155,39.4575944 41.6256703,39.425192 C41.6484577,39.3720602 41.6624858,39.3275369 41.6624858,39.2807066 L41.6739124,39.1946214 L41.6681168,39.1357047 C41.6624858,39.0383251 41.6484577,38.9909783 41.6256703,38.9526531 C41.6002155,38.8993836 41.5863191,38.8727661 41.5608644,38.8493509 L41.5184178,38.7959437 L41.4731393,38.7576185 C41.4364555,38.7252161 41.4054685,38.7046245 41.3742181,38.6837574 L41.2981832,38.651355 C39.7558821,38.1671086 38.2394309,37.130333 37.1745134,35.2045728 C36.3356921,33.6777659 35.7706164,31.613202 35.6689949,28.8340278 L48.3308734,28.8340278 C48.24328,31.613202 47.6785995,33.6777659 46.8396464,35.1900417 C45.7663647,37.130333 44.2441179,38.1671086 42.7161084,38.651355 L42.6396782,38.6779725 C42.5943997,38.7046245 42.5693401,38.7253194 42.5380568,38.7430874 L42.4900781,38.7959437 L42.4449313,38.8286216 C42.4194765,38.8727661 42.3996528,38.8993836 42.3884566,38.9409456 C42.3630019,38.991116 42.3518057,39.0383251 42.3375471,39.0855342 L42.3375471,39.2807066 C42.3518057,39.3275369 42.3630019,39.3720602 42.37703,39.4103853 C42.3996528,39.4575944 42.4194765,39.4902724 42.4391686,39.5165111 L42.4900781,39.5699184 L42.5267619,39.6082435 C42.5635445,39.6465686 42.5945315,39.661513 42.6256831,39.6732206 L42.7161084,39.7116835 C44.2441179,40.2108398 45.7663647,41.2327055 46.82575,43.146758 C47.2830464,43.9735546 47.6419486,46.1149409 47.9044651,47.2284012 C47.3027385,46.4015702 46.5742979,45.7339968 45.7608325,45.2435867 C44.6082888,44.5554561 43.3035764,44.2011639 41.9930683,44.2011639 C40.6964566,44.2011639 39.3917441,44.5554561 38.2336682,45.2496471 C37.4372934,45.7339968 36.775865,46.1797803 36.0691581,46.897903 L35.8847182,47.2284012 L36.0954032,46.0439034 Z M35.796839,49.04158 C36.9411967,47.2741763 37.4259655,47.0188354 38.7647603,46.2065356 C39.7504816,45.6039393 40.8716432,45.3026411 41.9930683,45.3026411 C43.1284885,45.3026411 44.2441179,45.6039393 45.2354702,46.2065356 C46.5742979,47.0188354 46.980985,47.1745989 48.2417032,49.04158 L35.796839,49.04158 Z" id="Fill-2"></path>
                <path d="M42.0000906,43 C42.552347,43 43,42.6698443 43,42.2626422 C43,41.8553391 42.552347,41 42.0000906,41 C41.447798,41 41,41.8553391 41,42.2626422 C41,42.6698443 41.447798,43 42.0000906,43 Z" id="Fill-3"></path>
            </g>
        </g>
    </g>
</svg>