<?xml version="1.0" encoding="UTF-8"?>
<svg width="50px" height="50px" viewBox="0 0 50 50" version="1.1" xmlns="http://www.w3.org/2000/svg" xmlns:xlink="http://www.w3.org/1999/xlink">
    <!-- Generator: Sketch 52.3 (67297) - http://www.bohemiancoding.com/sketch -->
    <title>发起签约</title>
    <desc>Created with Sketch.</desc>
    <g id="更改需求页面" stroke="none" stroke-width="1" fill="none" fill-rule="evenodd">
        <g id="首页" transform="translate(-1405.000000, -407.000000)" fill="#02ADFF">
            <path d="M1443,457 L1411,457 C1407.68629,457 1405,454.313708 1405,451 L1405,413 C1405,409.686292 1407.68629,407 1411,407 L1436.00096,407 C1436.55272,407 1437,407.447284 1437,407.999036 C1437,408.5508 1436.55273,408.998102 1436.00096,408.998137 L1411,409 C1408.79096,409.000142 1407.00026,410.790961 1407.00026,413 L1407,450.992766 C1407,453.201905 1408.79086,454.992766 1411,454.992766 L1443,454.992766 C1445.20914,454.992766 1447,453.201905 1447,450.992766 L1447,435 C1447,434.447715 1447.44772,434 1448,434 C1448.55228,434 1449,434.447715 1449,435 L1449,451 C1449,454.313708 1446.31371,457 1443,457 Z M1442.00827,450 L1412,450 C1411.44772,450 1411,449.552285 1411,449 C1411,448.448001 1411.44748,448.000517 1411.99948,448.000517 C1411.99966,448.000517 1411.99983,448.000517 1412,448.000517 L1442.00827,448.016036 C1442.55607,448.016319 1443,448.460476 1443,449.008274 C1443,449.555989 1442.55599,450 1442.00827,450 Z M1437.99173,444.016548 L1416.00827,444.016548 C1415.45142,444.016548 1415,443.565129 1415,443.008274 C1415,442.45142 1415.45142,442 1416.00827,442 L1437.99173,442 C1438.54858,442 1439,442.45142 1439,443.008274 C1439,443.565129 1438.54858,444.016548 1437.99173,444.016548 Z M1447.11373,412.00719 L1452.77058,417.664044 L1436.89411,433.540511 C1436.63823,433.796392 1436.33817,434.003868 1436.00842,434.152913 L1427.47634,438.009347 C1427.2247,438.123083 1426.92851,438.011296 1426.81478,437.759663 C1426.75605,437.629729 1426.75559,437.480901 1426.81352,437.350606 L1430.62405,428.779485 C1430.77359,428.443132 1430.98375,428.13717 1431.24403,427.876887 L1447.11373,412.00719 Z M1447.82083,411.300083 L1448.17439,410.94653 C1449.73648,409.384433 1452.26914,409.384433 1453.83124,410.94653 C1455.39334,412.508627 1455.39334,415.041287 1453.83124,416.603384 L1453.47769,416.956937 L1447.82083,411.300083 Z" id="发起签约"></path>
        </g>
    </g>
</svg>