<?xml version="1.0" encoding="UTF-8"?>
<svg width="56px" height="56px" viewBox="0 0 56 56" version="1.1" xmlns="http://www.w3.org/2000/svg" xmlns:xlink="http://www.w3.org/1999/xlink">
    <!-- Generator: Sketch 52.3 (67297) - http://www.bohemiancoding.com/sketch -->
    <title>Combined Shape Copy</title>
    <desc>Created with Sketch.</desc>
    <g id="Page-1" stroke="none" stroke-width="1" fill="none" fill-rule="evenodd">
        <g id="首页" transform="translate(-820.000000, -362.000000)" fill="#0088B6">
            <g id="Combined-Shape-Copy-2" transform="translate(820.000000, 362.000000)">
                <path d="M34.1630202,40.4427813 C34.115161,40.3345436 34.0868497,40.2185635 34.0795175,40.1002243 L33.6880926,33.7827684 C33.6760885,33.5890256 33.7207319,33.3959772 33.8165764,33.2271749 L44.2356812,14.8769441 C45.5059535,12.6397279 48.3493346,11.855865 50.5865508,13.1261373 C50.6141511,13.1418085 50.6415905,13.1577614 50.6688648,13.1739935 C52.9320722,14.5209248 53.6886996,17.4390403 52.365112,19.7159785 L41.9927203,37.5593724 C41.8937787,37.7295793 41.7467971,37.8667941 41.5701992,37.9538171 L35.5196248,40.9353882 C35.2250648,41.08054 34.8937018,41.0673702 34.6221219,40.9286976 C34.6048191,41.1894144 34.2224269,41.458745 33.6705616,41.6275176 C31.3072851,42.3502596 29.1491394,43.0189942 28.0947686,42.4655353 C27.1634302,41.9791398 28.0306529,40.9422636 28.2075064,40.4684675 C28.3695996,40.0337869 29.6592928,37.9096528 28.8583259,38.2388168 C28.0573591,38.5679809 26.8404317,39.7708596 26.0613763,40.321455 C25.2823209,40.8720504 22.8575088,43.0819521 22.0241141,42.752788 C20.5004739,42.4071626 20.9904543,41.1429323 20.8550917,39.6525333 C20.7911004,38.9518901 20.6832862,35.5646658 19.2531579,36.3608929 C17.8230296,37.1571201 13.6107984,40.1339231 11.6881439,42.752788 C11.44916,43.0783102 10.8085653,43.5462121 10.3682909,43.6570677 C9.98553797,43.7534402 9.88240026,43.6901825 9.6415555,43.6025019 C8.89454072,43.3351647 9.42143484,42.6953035 9.84156315,42.2183003 C16.4869346,34.7259875 19.0572696,34.6487732 19.9175067,34.7380574 C20.5443691,34.8004819 21.6454766,35.4125996 22.0241141,36.5823428 C22.3486605,37.589267 22.4418123,38.6042662 22.5156138,39.4190489 C22.5328041,39.5973309 22.4959034,41.1059831 22.5156138,41.2983536 C22.5353242,41.4907241 22.056542,41.6572205 24.4594426,39.8319668 C26.8623432,38.0067131 28.3369246,36.40119 30.0662107,36.690057 C30.9591059,36.8392098 31.267661,37.6775491 30.8671775,38.3358772 C30.4666941,38.9942053 29.5493628,40.8432848 29.4656612,41.2983536 C29.3819595,41.7534223 32.5699788,40.5559763 32.8695947,40.4684675 C33.4546031,40.2969623 33.8384973,40.2941594 34.1630202,40.4427813 Z M43.1210087,40.9968097 C43.1210087,40.4462869 43.6230505,40 44.1753352,40 C44.72762,40 45.1753352,40.4462869 45.1753352,40.9968097 L45.1866506,40.9968097 L45.1866506,49.020272 C45.1866506,51.229411 43.3957896,53.020272 41.1866506,53.020272 L7,53.020272 C4.790861,53.020272 3,51.229411 3,49.020272 L3,7 C3,4.790861 4.790861,3 7,3 L41.1866506,3 C43.3957896,3 45.1866506,4.790861 45.1866506,7 L45.1866506,9 C45.1866506,9.55228475 44.7389353,10 44.1866506,10 C43.6343658,10 43.126651,9.55228475 43.126651,9 L43.1085722,9 L43.1085722,8.03237687 C43.1085722,6.37552262 41.7654265,5.03237687 40.1085722,5.03237687 L7.95539267,5.03237687 C6.29853842,5.03237687 4.95539267,6.37552262 4.95539267,8.03237687 L4.95539267,48.0226515 C4.95539267,49.6795057 6.29853842,51.0226515 7.95539267,51.0226515 L40.1085722,51.0226515 C41.7654265,51.0226515 43.1085722,49.6795057 43.1085722,48.0226515 L43.1085722,40.9968097 L43.1210087,40.9968097 Z M49.8605775,14.5140811 C48.3605214,13.6480233 46.4424071,14.1619805 45.5763493,15.6620366 L35.1819917,33.6655921 C35.0830279,33.8370025 35.0371564,34.0339256 35.0501864,34.231424 L35.3031599,38.0658065 C35.311786,38.1965549 35.3460241,38.3243334 35.4039279,38.4418779 C35.6479843,38.9373119 36.2474598,39.1410938 36.7428938,38.8970373 L40.1900533,37.1989275 C40.3676068,37.1114626 40.5152116,36.9732752 40.6141754,36.8018648 L51.008533,18.7983093 C51.8745908,17.2982532 51.3606336,15.3801389 49.8605775,14.5140811 Z M10.2562313,24.0059015 L31.7876474,24.0059015 C32.3372186,24.0059015 32.7838019,24.4493902 32.7876232,24.9989482 L32.7876544,25.003436 C32.7914587,25.5505415 32.351026,25.9971422 31.8039205,26.0009465 C31.8016244,26.0009624 31.7993283,26.0009704 31.7970322,26.0009704 L10.2656161,26.0009704 C9.71604488,26.0009704 9.26946164,25.5574817 9.2656403,25.0079237 L9.2656091,25.003436 C9.26180481,24.4563304 9.70223752,24.0097297 10.2493431,24.0059255 C10.2516391,24.0059095 10.2539352,24.0059015 10.2562313,24.0059015 Z M10.2680741,14.0017774 L19.2539712,14.0017774 C19.8037865,14.0017774 20.2494999,14.4474908 20.2494999,14.9973061 C20.2494999,15.5471215 19.8037865,15.9928348 19.2539712,15.9928348 L10.2680741,15.9928348 C9.71825881,15.9928348 9.27254542,15.5471215 9.27254542,14.9973061 C9.27254542,14.4474908 9.71825881,14.0017774 10.2680741,14.0017774 Z" id="Combined-Shape-Copy"></path>
            </g>
        </g>
    </g>
</svg>