<?xml version="1.0" encoding="UTF-8"?>
<svg width="16px" height="16px" viewBox="0 0 16 16" version="1.1" xmlns="http://www.w3.org/2000/svg" xmlns:xlink="http://www.w3.org/1999/xlink">
    <!-- Generator: Sketch 57 (83077) - https://sketch.com -->
    <title>Fill 1</title>
    <desc>Created with Sketch.</desc>
    <g id="Symbols" stroke="none" stroke-width="1" fill="none" fill-rule="evenodd">
        <g id="-左边栏-自定义模板" transform="translate(-21.000000, -33.000000)" fill="#02ADFF">
            <path d="M36.2583773,40.0583585 C36.9970812,40.5199453 37.2217236,41.4929646 36.7601302,42.2316579 L33.1325905,48.0368522 C33.0749665,48.1290687 32.9901648,48.2011483 32.8898678,48.2431614 L31.1808668,48.9590388 C30.9130593,49.0712197 30.6050166,48.9450625 30.492834,48.6772589 C30.4687536,48.6197737 30.4550868,48.5584648 30.4524719,48.4961947 L30.3757688,46.6696533 C30.3713203,46.5637208 30.3990061,46.4589186 30.4551921,46.3690036 L34.0850469,40.5601042 C34.5466403,39.8214109 35.5196735,39.5967717 36.2583773,40.0583585 Z M35.9107348,40.6146949 C35.5413829,40.3839015 35.0548663,40.4962211 34.8240696,40.8655678 L34.8240696,40.8655678 L31.1978341,46.6686751 C31.1545834,46.7378897 31.1280418,46.8162235 31.1203114,46.8974729 L31.1203114,46.8974729 L31.0485575,47.6516293 C31.039523,47.746584 31.0615305,47.8419075 31.1112766,47.9232918 C31.2382533,48.1310251 31.5095919,48.1964928 31.7173283,48.0695178 L31.7173283,48.0695178 L32.3637143,47.6744263 C32.4333531,47.6318609 32.492125,47.5736666 32.5353757,47.504452 L32.5353757,47.504452 L36.1616112,41.7013446 C36.3924079,41.331998 36.2800867,40.8454883 35.9107348,40.6146949 Z M23.4949764,40.9810527 L24.4929839,40.9810527 C24.7685683,40.9810527 24.9919735,41.204458 24.9919735,41.4800423 C24.9919735,41.7556266 24.7685683,41.9790319 24.4929839,41.9790319 L23.4949764,41.9790319 C23.219392,41.9790319 22.9959868,41.7556266 22.9959868,41.4800423 C22.9959868,41.204458 23.219392,40.9810527 23.4949764,40.9810527 Z M25.9899598,40.9810527 L26.9879674,40.9810527 C27.2635517,40.9810527 27.486957,41.204458 27.486957,41.4800423 C27.486957,41.7556266 27.2635517,41.9790319 26.9879674,41.9790319 L25.9899598,41.9790319 C25.7143755,41.9790319 25.4909702,41.7556266 25.4909702,41.4800423 C25.4909702,41.204458 25.7143755,40.9810527 25.9899598,40.9810527 Z M28.4849433,40.9810527 L29.4829508,40.9810527 C29.7585352,40.9810527 29.9819404,41.204458 29.9819404,41.4800423 C29.9819404,41.7556266 29.7585352,41.9790319 29.4829508,41.9790319 L28.4849433,41.9790319 C28.2093589,41.9790319 27.9859537,41.7556266 27.9859537,41.4800423 C27.9859537,41.204458 28.2093589,40.9810527 28.4849433,40.9810527 Z M33.4749244,36.989136 L23.4929901,36.989136 C23.2174058,36.989136 22.9940005,36.7657308 22.9940005,36.4901464 C22.9940005,36.2145621 23.2174058,35.9911568 23.4929901,35.9911568 L33.4749244,35.9911568 C33.7505087,35.9911568 33.973914,36.2145621 33.973914,36.4901464 C33.973914,36.7657308 33.7505087,36.989136 33.4749244,36.989136 Z M33.4700659,38.9948113 L23.4978495,38.9948113 C23.2201294,38.9948113 22.9949927,38.7696746 22.9949927,38.4919544 C22.9949927,38.491624 22.994993,38.4912936 22.9949936,38.4909632 C22.9955424,38.2125351 23.2214072,37.9871152 23.4998358,37.9871152 L33.4700659,37.9871152 C33.7483335,37.9871152 33.973914,38.2126956 33.973914,38.4909632 C33.973914,38.7692308 33.7483335,38.9948113 33.4700659,38.9948113 Z M34.9719439,38.9975892 L34.9719146,34.9951985 C34.9719033,34.4429166 34.5241892,33.9952058 33.9719073,33.9951985 L22.9979934,33.9951985 C22.4457086,33.9951985 21.9979934,34.4429137 21.9979934,34.9951985 L21.9979934,46.966907 C21.9979934,47.5191917 22.4457086,47.966907 22.9979934,47.966907 L28.5112208,47.966907 C28.7868051,47.966907 29.0102103,48.1903122 29.0102103,48.4658966 C29.0102103,48.7414809 28.7868051,48.9648861 28.5112208,48.9648861 L23,48.9648861 C21.8954305,48.9648861 21,48.0694556 21,46.9648861 L21,35.0000056 C21,33.8954361 21.8954305,33.0000056 23,33.0000056 C23.0009281,33.0000056 23.0018562,33.0000062 23.0027844,33.0000075 L33.9726851,33.0152796 C35.0761663,33.0168159 35.9699007,33.9117954 35.9699007,35.0152777 L35.9699007,39.0054172 L35.9699007,39.0054172 L34.9719439,38.9975892 Z" id="Fill-1"></path>
        </g>
    </g>
</svg>