<?xml version="1.0" encoding="UTF-8"?>
<svg width="16px" height="16px" viewBox="0 0 16 16" version="1.1" xmlns="http://www.w3.org/2000/svg" xmlns:xlink="http://www.w3.org/1999/xlink">
    <!-- Generator: Sketch 57 (83077) - https://sketch.com -->
    <title>Fill 1</title>
    <desc>Created with Sketch.</desc>
    <g id="Symbols" stroke="none" stroke-width="1" fill="none" fill-rule="evenodd">
        <g id="-左边栏-自定义模板" transform="translate(-21.000000, -73.000000)" fill="#333333">
            <path d="M23.494453,80.9726767 L24.4935073,80.9726767 C24.7688026,80.9726767 24.9919735,81.1958476 24.9919735,81.4711429 C24.9919735,81.7464382 24.7688026,81.9696092 24.4935073,81.9696092 L23.494453,81.9696092 C23.2191577,81.9696092 22.9959868,81.7464382 22.9959868,81.4711429 C22.9959868,81.1958476 23.2191577,80.9726767 23.494453,80.9726767 Z M25.9894365,80.9726767 L26.9884907,80.9726767 C27.263786,80.9726767 27.486957,81.1958476 27.486957,81.4711429 C27.486957,81.7464382 27.263786,81.9696092 26.9884907,81.9696092 L25.9894365,81.9696092 C25.7141412,81.9696092 25.4909702,81.7464382 25.4909702,81.4711429 C25.4909702,81.1958476 25.7141412,80.9726767 25.9894365,80.9726767 Z M28.4844199,80.9726767 L29.4834742,80.9726767 C29.7587695,80.9726767 29.9819404,81.1958476 29.9819404,81.4711429 C29.9819404,81.7464382 29.7587695,81.9696092 29.4834742,81.9696092 L28.4844199,81.9696092 C28.2091246,81.9696092 27.9859537,81.7464382 27.9859537,81.4711429 C27.9859537,81.1958476 28.2091246,80.9726767 28.4844199,80.9726767 Z M33.4754477,76.9849466 L23.4924668,76.9849466 C23.2171715,76.9849466 22.9940005,76.7617757 22.9940005,76.4864804 C22.9940005,76.2111851 23.2171715,75.9880141 23.4924668,75.9880141 L33.4754477,75.9880141 C33.750743,75.9880141 33.973914,76.2111851 33.973914,76.4864804 C33.973914,76.7617757 33.750743,76.9849466 33.4754477,76.9849466 Z M33.4705943,78.9885184 L23.4973211,78.9885184 C23.2198928,78.9885184 22.9949927,78.7636183 22.9949927,78.4861899 C22.9949927,78.4858595 22.994993,78.4855291 22.9949936,78.4851988 C22.9955424,78.2070625 23.2211706,77.9818791 23.4993074,77.9818791 L33.4705943,77.9818791 C33.7485701,77.9818791 33.973914,78.207223 33.973914,78.4851988 C33.973914,78.7631745 33.7485701,78.9885184 33.4705943,78.9885184 Z M33.6746075,81 C33.9507499,81 34.1746075,81.2238576 34.1746075,81.5 L34.1746075,81.5 L34.1738172,87.295854 L36.1476272,85.3233643 C36.3428894,85.1281022 36.6594719,85.1281022 36.854734,85.3233643 C37.0499962,85.5186265 37.0499962,85.835209 36.854734,86.0304711 L36.854734,86.0304711 L34.0356718,88.8481191 C33.8345868,89.0506184 33.5183363,89.0506184 33.323279,88.855561 L33.323279,88.855561 L30.4941102,86.0263923 C30.2990529,85.8313349 30.2990529,85.5150845 30.4941102,85.3200271 C30.6891676,85.1249697 31.005418,85.1249697 31.2004754,85.3200271 L31.2004754,85.3200271 L33.1738172,87.295854 L33.1746075,81.5 C33.1746075,81.2238576 33.3984652,81 33.6746075,81 Z M23.0027814,73.0000019 L33.9726822,73.015258 C35.0761645,73.0167927 35.9699007,73.9117726 35.9699007,75.0152561 L35.9699007,78.9991132 L34.9719439,78.9912934 L34.9719147,74.9941491 C34.9719033,74.4418672 34.5241892,73.9941564 33.9719073,73.9941491 L22.9979934,73.9941491 C22.4457086,73.9941491 21.9979934,74.4418644 21.9979934,74.9941491 L21.9979934,86.9553221 C21.9979934,87.5059961 22.4431977,87.9530413 22.993867,87.9553136 L30.001538,87.98423 C30.277163,87.9853673 30.5,88.2091257 30.5,88.4847531 C30.5,88.7590336 30.2776517,88.9813819 30.0033711,88.9813819 L30.0015371,88.9813785 L22.9926142,88.9554952 C21.8909355,88.9514268 21,88.0571952 21,86.9555089 L21,75 C21,73.8954305 21.8954305,73 23,73 L23.0027814,73.0000019 Z" id="Fill-1"></path>
        </g>
    </g>
</svg>