<?xml version="1.0" encoding="UTF-8"?>
<svg width="20px" height="20px" viewBox="0 0 20 20" version="1.1" xmlns="http://www.w3.org/2000/svg" xmlns:xlink="http://www.w3.org/1999/xlink">
    <!-- Generator: Sketch 57 (83077) - https://sketch.com -->
    <title>xiaoxitixing</title>
    <desc>Created with Sketch.</desc>
    <g id="Symbols" stroke="none" stroke-width="1" fill="none" fill-rule="evenodd">
        <g id="印章管理头部" transform="translate(-1461.000000, -26.000000)">
            <g id="头部" transform="translate(0.000000, 16.000000)">
                <g id="xiaoxitixing" transform="translate(1461.000000, 10.000000)">
                    <path d="M10.0572706,0.475689308 C10.9287289,0.475689308 11.7727811,0.580677578 12.5744894,0.777288855 C14.9953349,1.37097797 17.0300877,2.800089 18.2674712,4.69663748 C19.0874442,5.95341739 19.5572706,7.4154619 19.5572706,8.97568931 C19.5572706,13.6701097 15.3039757,17.4756893 10.0572706,17.4756893 C9.64839726,17.4756893 9.24555696,17.452578 8.85029245,17.4077357 C9.08768089,17.1285855 9.2730868,16.8055714 9.39455217,16.4527948 C9.61267885,16.4680916 9.83396913,16.4756893 10.0572706,16.4756893 C14.7516909,16.4756893 18.5572706,13.1178249 18.5572706,8.97568931 C18.5572706,7.60304962 18.1393581,6.31653524 17.409677,5.20980237 C16.3468672,3.59780173 14.6226375,2.36720914 12.5649783,1.80742811 C11.772307,1.59178386 10.9301541,1.47568931 10.0572706,1.47568931 C5.36285019,1.47568931 1.55727056,4.83355368 1.55727056,8.97568931 C1.55727056,10.9697597 2.43923925,12.78207 3.87775526,14.1254837 C3.7142766,14.4484576 3.60744811,14.8067915 3.57110518,15.1857094 C1.71699832,13.6359418 0.557270558,11.4269938 0.557270558,8.97568931 C0.557270558,4.28126893 4.81056544,0.475689308 10.0572706,0.475689308 Z" id="形状结合" fill="#000000"></path>
                    <rect id="矩形" fill="#000000" x="4" y="7" width="7" height="1" rx="0.5"></rect>
                    <rect id="矩形备份-2" fill="#000000" x="13" y="10" width="2" height="1" rx="0.5"></rect>
                    <rect id="矩形备份-3" fill="#000000" x="13" y="7" width="2" height="1" rx="0.5"></rect>
                    <rect id="矩形备份" fill="#000000" x="4" y="10" width="7" height="1" rx="0.5"></rect>
                    <path d="M9.60225343,16.915498 C2.75832182,19.3712634 3.02681686,20.7465384 5.30005729,16.1521871" id="路径-2" stroke="#000000"></path>
                </g>
            </g>
        </g>
    </g>
</svg>