<?xml version="1.0" encoding="UTF-8"?>
<svg width="40px" height="40px" viewBox="0 0 40 40" version="1.1" xmlns="http://www.w3.org/2000/svg" xmlns:xlink="http://www.w3.org/1999/xlink">
    <!-- Generator: Sketch 52.3 (67297) - http://www.bohemiancoding.com/sketch -->
    <title>Mask</title>
    <desc>Created with Sketch.</desc>
    <defs>
        <rect id="path-1" x="0" y="0" width="40" height="40"></rect>
    </defs>
    <g id="更改需求页面" stroke="none" stroke-width="1" fill="none" fill-rule="evenodd">
        <g id="Ukey印章续期（GDCA）-更新证书弹窗" transform="translate(-737.000000, -176.000000)">
            <g id="分组-2" transform="translate(697.000000, 106.000000)">
                <g id="Combined-Shape" transform="translate(40.000000, 70.000000)">
                    <mask id="mask-2" fill="white">
                        <use xlink:href="#path-1"></use>
                    </mask>
                    <g id="Mask" fill-rule="nonzero"></g>
                    <path d="M16.4027989,6.7153486 L16.4027989,0.715348603 C16.4027989,0.163063853 16.8505141,-0.284651397 17.4027989,-0.284651397 L27.6527989,-0.284651397 C28.2050836,-0.284651397 28.6527989,0.163063853 28.6527989,0.715348603 L28.6527989,6.7153486 L16.4027989,6.7153486 Z M18.8752023,4.9653486 L20.6252023,4.9653486 L20.6252023,1.4653486 L18.8752023,1.4653486 L18.8752023,4.9653486 Z M24.1252023,4.9653486 L25.8752023,4.9653486 L25.8752023,1.4653486 L24.1252023,1.4653486 L24.1252023,4.9653486 Z M22.5277989,41.7153486 C18.1785565,41.7153486 14.6527989,38.189591 14.6527989,33.8403486 L14.6527989,8.0903486 C14.6527989,7.81420623 14.8766565,7.5903486 15.1527989,7.5903486 L29.9027989,7.5903486 C30.1789413,7.5903486 30.4027989,7.81420623 30.4027989,8.0903486 L30.4027989,33.8403486 C30.4027989,38.189591 26.8770413,41.7153486 22.5277989,41.7153486 Z M22.5277989,39.9653486 C25.7172433,39.9653486 28.3027989,37.379793 28.3027989,34.1903486 L28.3027989,10.0153486 C28.3027989,9.73920623 28.0789413,9.5153486 27.8027989,9.5153486 L17.2527989,9.5153486 C16.9766565,9.5153486 16.7527989,9.73920623 16.7527989,10.0153486 L16.7527989,34.1903486 C16.7527989,37.379793 19.3383545,39.9653486 22.5277989,39.9653486 Z" fill="#F7BA2A" mask="url(#mask-2)" transform="translate(22.527799, 20.715349) scale(1, -1) rotate(-145.000000) translate(-22.527799, -20.715349) "></path>
                    <path d="M18.1235605,21.1025509 L18.1235605,22.2325509 L17.6435605,22.2325509 L17.6435605,21.5625509 L14.3385605,21.5625509 L14.3385605,22.2275509 L13.8585605,22.2275509 L13.8585605,21.1025509 L15.7235605,21.1025509 C15.6585605,20.9575509 15.5885605,20.8225509 15.5085605,20.6975509 L16.0435605,20.6075509 C16.1135605,20.7575509 16.1835605,20.9225509 16.2535605,21.1025509 L18.1235605,21.1025509 Z M13.7785605,22.4875509 L15.1635605,22.4875509 C15.3035605,22.2275509 15.4385605,21.9725509 15.5685605,21.7125509 L16.0585605,21.8575509 C15.9385605,22.0775509 15.8285605,22.2875509 15.7235605,22.4875509 L18.2185605,22.4875509 L18.2185605,22.9475509 L17.2535605,22.9475509 C17.0535605,23.4375509 16.8385605,23.8325509 16.6085605,24.1225509 C17.1035605,24.3325509 17.6085605,24.5825509 18.1285605,24.8625509 L17.8035605,25.2825509 C17.2885605,24.9825509 16.7735605,24.7125509 16.2635605,24.4775509 C15.6985605,24.9675509 14.9585605,25.2275509 14.0485605,25.2525509 L13.7735605,24.8125509 C14.5935605,24.8075509 15.2585605,24.6225509 15.7685605,24.2625509 C15.3185605,24.0725509 14.8685605,23.9025509 14.4235605,23.7625509 C14.5935605,23.4875509 14.7535605,23.2175509 14.9085605,22.9475509 L13.7785605,22.9475509 L13.7785605,22.4875509 Z M15.4685605,22.9475509 C15.3335605,23.1775509 15.2085605,23.3875509 15.0935605,23.5725509 C15.4335605,23.6725509 15.7835605,23.7875509 16.1385605,23.9275509 C16.3785605,23.6575509 16.5785605,23.3275509 16.7335605,22.9475509 L15.4685605,22.9475509 Z M19.4835605,22.8625509 L19.4835605,24.1925509 C19.8935605,24.1025509 20.3285605,23.9975509 20.7785605,23.8675509 L20.9035605,24.3025509 C20.2885605,24.4725509 19.6585605,24.6175509 19.0185605,24.7425509 L18.8285605,24.3475509 C18.9485605,24.2825509 19.0085605,24.1875509 19.0085605,24.0625509 L19.0085605,21.0275509 C19.6335605,20.9275509 20.2035605,20.7975509 20.7185605,20.6325509 L21.0135605,21.0125509 C20.5685605,21.1575509 20.0585605,21.2825509 19.4835605,21.3925509 L19.4835605,22.4075509 L20.8635605,22.4075509 L20.8635605,22.8625509 L19.4835605,22.8625509 Z M22.5835605,24.5925509 L22.1135605,24.5925509 L21.9835605,24.1325509 L22.4285605,24.1425509 C22.5585605,24.1425509 22.6235605,24.0675509 22.6235605,23.9275509 L22.6235605,21.3375509 L21.6385605,21.3375509 L21.6385605,25.2675509 L21.1585605,25.2675509 L21.1585605,20.8875509 L23.1035605,20.8875509 L23.1035605,24.0275509 C23.1035605,24.4025509 22.9285605,24.5925509 22.5835605,24.5925509 Z M24.5635605,22.8125509 L24.5635605,23.4375509 L25.6735605,23.4375509 L25.6735605,22.8125509 L24.5635605,22.8125509 Z M25.6735605,23.8825509 L24.5635605,23.8825509 L24.5635605,24.2775509 L24.0885605,24.2775509 L24.0885605,21.3025509 L25.6735605,21.3025509 L25.6735605,20.6575509 L26.1485605,20.6575509 L26.1485605,21.3025509 L27.7635605,21.3025509 L27.7635605,23.8825509 L26.1485605,23.8825509 L26.1485605,24.3875509 C26.1485605,24.6225509 26.2535605,24.7425509 26.4635605,24.7425509 L27.5535605,24.7425509 C27.6535605,24.7425509 27.7335605,24.7125509 27.7835605,24.6625509 C27.8235605,24.6125509 27.8535605,24.4275509 27.8685605,24.1175509 L28.3235605,24.2725509 C28.2935605,24.7025509 28.2335605,24.9625509 28.1435605,25.0575509 C28.0485605,25.1425509 27.8785605,25.1875509 27.6335605,25.1875509 L26.3535605,25.1875509 C25.8985605,25.1875509 25.6735605,24.9425509 25.6735605,24.4575509 L25.6735605,23.8825509 Z M26.1485605,23.4375509 L27.2935605,23.4375509 L27.2935605,22.8125509 L26.1485605,22.8125509 L26.1485605,23.4375509 Z M27.2935605,22.3775509 L27.2935605,21.7525509 L26.1485605,21.7525509 L26.1485605,22.3775509 L27.2935605,22.3775509 Z M25.6735605,21.7525509 L24.5635605,21.7525509 L24.5635605,22.3775509 L25.6735605,22.3775509 L25.6735605,21.7525509 Z M28.7935605,22.7425509 L30.8585605,22.7425509 L30.8585605,22.1025509 C31.2535605,21.8725509 31.6335605,21.6025509 31.9985605,21.2825509 L29.3185605,21.2825509 L29.3185605,20.8375509 L32.6385605,20.8375509 L32.6385605,21.2825509 C32.2585605,21.6575509 31.8235605,22.0125509 31.3335605,22.3425509 L31.3335605,22.7425509 L33.1935605,22.7425509 L33.1935605,23.2075509 L31.3335605,23.2075509 L31.3335605,24.7375509 C31.3335605,25.0625509 31.1685605,25.2275509 30.8435605,25.2275509 L29.9685605,25.2275509 L29.8385605,24.7675509 C30.0885605,24.7775509 30.3635605,24.7825509 30.6535605,24.7825509 C30.7885605,24.7825509 30.8585605,24.7175509 30.8585605,24.5875509 L30.8585605,23.2075509 L28.7935605,23.2075509 L28.7935605,22.7425509 Z" id="安印电子" fill="#F7BA2A" mask="url(#mask-2)" transform="translate(23.483561, 22.945051) rotate(56.000000) translate(-23.483561, -22.945051) "></path>
                </g>
            </g>
        </g>
    </g>
</svg>