<?xml version="1.0" encoding="UTF-8"?>
<svg width="12px" height="16px" viewBox="0 0 12 16" version="1.1" xmlns="http://www.w3.org/2000/svg" xmlns:xlink="http://www.w3.org/1999/xlink">
    <!-- Generator: Sketch 57 (83077) - https://sketch.com -->
    <title>合并形状</title>
    <desc>Created with Sketch.</desc>
    <g id="Page-2" stroke="none" stroke-width="1" fill="none" fill-rule="evenodd">
        <g id="发起合同-关键字签署" transform="translate(-1575.000000, -901.000000)" fill="#FFFFFF">
            <g id="合并形状-copy-14" transform="translate(1581.000000, 909.000000) scale(1, -1) translate(-1581.000000, -909.000000) translate(1566.000000, 894.000000)">
                <g id="编组-2" transform="translate(9.000000, 7.000000)">
                    <path d="M6.6928475,1.17366497 L11.5598696,5.85010128 C11.8280868,6.10781551 11.8366012,6.53416719 11.5788869,6.80238443 L11.5598696,6.82140181 L11.5598696,6.82140181 C11.2775152,7.09269957 10.8313385,7.09269957 10.5489842,6.82140181 L6.71476923,3.13792308 L6.7148039,15 C6.7148039,15.2761424 6.49094628,15.5 6.2148039,15.5 L5.7851961,15.5 C5.50905372,15.5 5.2851961,15.2761424 5.2851961,15 L5.28476923,3.13692308 L1.45101582,6.82140181 C1.16866146,7.09269957 0.722484805,7.09269957 0.440130447,6.82140181 C0.171913213,6.56368758 0.163398842,6.1373359 0.421113065,5.86911866 C0.427324979,5.86265359 0.43366537,5.8563132 0.440130447,5.85010128 L5.3071525,1.17366497 C5.6941964,0.80177716 6.3058036,0.80177716 6.6928475,1.17366497 Z" id="合并形状"></path>
                </g>
            </g>
        </g>
    </g>
</svg>