<?xml version="1.0" encoding="UTF-8"?>
<svg width="16px" height="16px" viewBox="0 0 16 16" version="1.1" xmlns="http://www.w3.org/2000/svg" xmlns:xlink="http://www.w3.org/1999/xlink">
    <!-- Generator: Sketch 57 (83077) - https://sketch.com -->
    <title>xiaoxi-2</title>
    <desc>Created with Sketch.</desc>
    <g id="Symbols" stroke="none" stroke-width="1" fill="none" fill-rule="evenodd">
        <g id="-左边栏-消息中心" transform="translate(-21.000000, -233.000000)" fill="#02ADFF">
            <path d="M24.9492733,236.951553 C24.472708,236.951553 24.0851204,237.34535 24.0851204,237.82941 C24.0851204,238.313743 24.472708,238.707814 24.9492733,238.707814 C25.4257489,238.707814 25.8134262,238.313743 25.8134262,237.82941 C25.8134262,237.34535 25.4257489,236.951553 24.9492733,236.951553 Z M27.3481064,236.951553 C26.8716308,236.951553 26.4839535,237.34535 26.4839535,237.82941 C26.4839535,238.313743 26.8716308,238.707814 27.3481064,238.707814 C27.8243131,238.707814 28.2117213,238.313743 28.2117213,237.82941 C28.2117213,237.34535 27.8243131,236.951553 27.3481064,236.951553 Z M29.7470292,237.031037 C29.2704639,237.031037 28.8827866,237.425108 28.8827866,237.909532 C28.8827866,238.393501 29.2704639,238.787298 29.7470292,238.787298 C30.2231462,238.787298 30.6105545,238.393501 30.6105545,237.909532 C30.6105545,237.425108 30.2231462,237.031037 29.7470292,237.031037 Z M35,238.5 L34,238.5 L34,235 C34,233.949001 33.0339481,233 32,233 L23,233 C21.9664106,233 21,233.990685 21,235.041684 L21,241.041884 C21,242.081763 21.9813859,242.98218 23,243 L23,246 L27,243 L27,245 C27,245.889 27,247 29,247 L33,247 L35,249 L35,247 C36.5,247 37,246 37,245 L37,241 C37,240 37,238.5 35,238.5 Z M26.5,242 L24,244 L24,242 L23,242 C22.4730835,242 22,241.535948 22,241 L22,235 C22,234.463961 22.4729938,234 23,234 L32,234 C32.5272752,234 33,234.463961 33,235 L33,241 C33,241.535948 32.5272752,242 32,242 L26.5,242 Z M36,245 C36,246 35.3678821,246 35,246 L34,246 L34,247 L33,246 L29,246 C28,246 28,245.373949 28,245 L28,243 L32,243 C33.0340378,243 34,242.050999 34,241 L34,239.5 L35,239.5 C36,239.5 36,240.5 36,241 L36,245 Z" id="xiaoxi-2"></path>
        </g>
    </g>
</svg>