<?xml version="1.0" encoding="UTF-8"?>
<svg width="18px" height="18px" viewBox="0 0 18 18" version="1.1" xmlns="http://www.w3.org/2000/svg" xmlns:xlink="http://www.w3.org/1999/xlink">
    <!-- Generator: Sketch 52.3 (67297) - http://www.bohemiancoding.com/sketch -->
    <title>Group 3</title>
    <desc>Created with Sketch.</desc>
    <g id="组件" stroke="none" stroke-width="1" fill="none" fill-rule="evenodd" opacity="0.9">
        <g id="登陆头部" transform="translate(-1267.000000, -26.000000)" fill="#02ADFF">
            <g id="Group-3">
                <g transform="translate(1267.000000, 26.000000)">
                    <path d="M13.5,5.78571429 C13.8550402,5.78571429 14.1428571,6.07353123 14.1428571,6.42857143 C14.1428571,6.78361162 13.8550402,7.07142857 13.5,7.07142857 L5.14285714,7.07142857 C4.78781695,7.07142857 4.5,6.78361162 4.5,6.42857143 C4.5,6.07353123 4.78781695,5.78571429 5.14285714,5.78571429 L13.5,5.78571429 Z M11.5714286,9 C11.9264688,9 12.2142857,9.28781695 12.2142857,9.64285714 C12.2142857,9.99789734 11.9264688,10.2857143 11.5714286,10.2857143 L7.07142857,10.2857143 C6.71638838,10.2857143 6.42857143,9.99789734 6.42857143,9.64285714 C6.42857143,9.28781695 6.71638838,9 7.07142857,9 L11.5714286,9 Z" id="Combined-Shape"></path>
                    <path d="M9,0 C4.03763449,0 0,3.53021915 0,7.86982406 C0,10.2808207 1.21891765,12.5001495 3.3805957,14.0178906 L3.3805957,17.4378948 C3.3805957,17.6531612 3.50383307,17.8493773 3.69786872,17.9437939 C3.77601067,17.9809497 3.85984726,18 3.94315617,18 C4.06742693,18 4.19059834,17.958977 4.29184867,17.8791502 L7.20110815,15.5828291 C7.79003108,15.6868697 8.39364135,15.7396481 9,15.7396481 C13.9623655,15.7396481 18,12.2095169 18,7.86982406 C18,3.53021915 13.9623655,0 9,0 Z M4.5,16.0714286 L4.5,13.5762223 C4.5,13.3913851 4.37985871,13.2015951 4.22445903,13.1000965 C2.29483222,11.8418268 1.28571429,9.93522239 1.28571429,7.86781539 C1.28571429,4.23828606 4.74607642,1.28571429 9,1.28571429 C13.2538374,1.28571429 16.7142857,4.23828606 16.7142857,7.86781539 C16.7142857,11.4973447 13.2538374,14.4500022 9,14.4500022 C8.39281048,14.4500022 7.78880864,14.3896262 7.20472984,14.2706109 C7.16781299,14.2629781 7.13096076,14.2596334 7.09402237,14.2596334 C6.97168416,14.2596334 6.85044441,14.3002629 6.75293999,14.3775553 L4.5,16.0714286 Z" id="Fill-1"></path>
                </g>
            </g>
        </g>
    </g>
</svg>