<?xml version="1.0" encoding="UTF-8"?>
<svg width="18px" height="10px" viewBox="0 0 18 10" version="1.1" xmlns="http://www.w3.org/2000/svg" xmlns:xlink="http://www.w3.org/1999/xlink">
    <!-- Generator: Sketch 57 (83077) - https://sketch.com -->
    <title>合并形状</title>
    <desc>Created with Sketch.</desc>
    <g id="Page-2" stroke="none" stroke-width="1" fill="none" fill-rule="evenodd">
        <g id="发起合同-关键字签署" transform="translate(-1572.000000, -949.000000)" fill="#FFFFFF">
            <g id="合并形状-copy-8" transform="translate(1581.000000, 955.000000) scale(1, -1) translate(-1581.000000, -955.000000) translate(1566.000000, 940.000000)">
                <g id="编组" transform="translate(6.000000, 11.000000)">
                    <path d="M9.75494089,3.38028083 L14.2831439,7.90848387 C14.5459968,8.17133676 14.5459968,8.5975055 14.2831439,8.86035839 C14.020291,9.12321127 13.5941223,9.12321127 13.3312694,8.86035839 L9.40138749,4.93047647 C9.20612535,4.73521432 8.88954286,4.73521432 8.69428071,4.93047647 L4.7643988,8.86035839 C4.50154591,9.12321127 4.07537717,9.12321127 3.81252428,8.86035839 C3.54967139,8.5975055 3.54967139,8.17133676 3.81252428,7.90848387 L8.34072732,3.38028083 C8.73125161,2.98975654 9.36441659,2.98975654 9.75494089,3.38028083 Z M16.5769231,0.538461538 C16.8530655,0.538461538 17.0769231,0.762319164 17.0769231,1.03846154 L17.0769231,1.38461538 C17.0769231,1.66075776 16.8530655,1.88461538 16.5769231,1.88461538 L1.42307692,1.88461538 C1.14693455,1.88461538 0.923076923,1.66075776 0.923076923,1.38461538 L0.923076923,1.03846154 C0.923076923,0.762319164 1.14693455,0.538461538 1.42307692,0.538461538 L16.5769231,0.538461538 Z" id="合并形状"></path>
                </g>
            </g>
        </g>
    </g>
</svg>