<?xml version="1.0" encoding="UTF-8"?>
<svg width="18px" height="10px" viewBox="0 0 18 10" version="1.1" xmlns="http://www.w3.org/2000/svg" xmlns:xlink="http://www.w3.org/1999/xlink">
    <!-- Generator: Sketch 57 (83077) - https://sketch.com -->
    <title>合并形状</title>
    <desc>Created with Sketch.</desc>
    <g id="Page-2" stroke="none" stroke-width="1" fill="none" fill-rule="evenodd">
        <g id="发起合同-关键字签署" transform="translate(-1572.000000, -813.000000)" fill="#FFFFFF">
            <g id="合并形状-copy-7" transform="translate(1566.000000, 802.000000)">
                <g id="合并形状-3" transform="translate(6.923077, 11.538462)">
                    <path d="M8.83186396,2.84181929 L13.360067,7.37002233 C13.6229199,7.63287522 13.6229199,8.05904396 13.360067,8.32189685 C13.0972141,8.58474974 12.6710454,8.58474974 12.4081925,8.32189685 L8.47831057,4.39201493 C8.28304843,4.19675278 7.96646594,4.19675278 7.77120379,4.39201493 L3.84132187,8.32189685 C3.57846898,8.58474974 3.15230025,8.58474974 2.88944736,8.32189685 C2.62659447,8.05904396 2.62659447,7.63287522 2.88944736,7.37002233 L7.4176504,2.84181929 C7.80817469,2.451295 8.44133967,2.451295 8.83186396,2.84181929 Z M15.6538462,-7.62219538e-13 C15.9299885,-7.6225814e-13 16.1538462,0.223857625 16.1538462,0.5 L16.1538462,0.846153846 C16.1538462,1.12229622 15.9299885,1.34615385 15.6538462,1.34615385 L0.5,1.34615385 C0.223857625,1.34615385 -2.0783375e-13,1.12229622 -2.0783375e-13,0.846153846 L-2.0783375e-13,0.5 C-2.0783375e-13,0.223857625 0.223857625,-7.65020163e-13 0.5,-7.65003255e-13 L15.6538462,-7.62219538e-13 Z" id="合并形状"></path>
                </g>
            </g>
        </g>
    </g>
</svg>